<svg width="87" height="87" viewBox="0 0 87 87" fill="none" xmlns="http://www.w3.org/2000/svg">
<circle cx="43.2849" cy="43.3997" r="42" stroke="#4183E4" stroke-width="2"/>
<g clip-path="url(#clip0)">
<path d="M48.5404 36.7791C47.9403 36.7791 47.4534 37.2658 47.4534 37.8659V37.8814C47.4534 38.4816 47.9402 38.9683 48.5404 38.9683C49.1405 38.9683 49.6273 38.4816 49.6273 37.8814V37.8659C49.6273 37.2657 49.1407 36.7791 48.5404 36.7791Z" fill="#4183E4"/>
<path d="M54.8082 41.5684V32.6471C54.8082 32.3025 54.6446 31.9782 54.3675 31.7732C54.0904 31.5684 53.7325 31.5068 53.4029 31.608L29.0271 39.0729H22.8062C18.8022 39.0729 15.5446 42.3303 15.5446 46.3344C15.5446 50.123 18.4614 53.2412 22.1671 53.5662L24.5594 65.036C24.9526 66.9214 26.636 68.2899 28.562 68.2899C29.7984 68.2899 30.9548 67.7397 31.7346 66.7803C32.5145 65.8209 32.817 64.5766 32.5645 63.3662L32.0402 60.8532C34.3329 60.1455 36.0699 58.2417 36.5753 55.9076L53.4027 61.0608C53.507 61.0927 53.6142 61.1084 53.7209 61.1084C53.9509 61.1084 54.1779 61.0353 54.3673 60.8953C54.6444 60.6903 54.8079 60.366 54.8079 60.0214V51.1001C56.9824 50.6044 58.6105 48.6566 58.6105 46.3342C58.6105 44.0121 56.9824 42.0642 54.8082 41.5684ZM22.8062 51.4219C20.0008 51.4219 17.7184 49.1396 17.7184 46.3343C17.7184 43.5288 20.0009 41.2466 22.8062 41.2466H28.1027V51.422H23.0568H22.8062V51.4219ZM30.0481 65.4091C29.6829 65.8584 29.1411 66.1161 28.5621 66.1161C27.6601 66.1161 26.8717 65.4753 26.6875 64.5922L24.3938 53.5957H28.3062L29.6949 60.2537C29.6951 60.2545 29.6952 60.2553 29.6954 60.2561L30.4367 63.81C30.5549 64.3769 30.4133 64.9598 30.0481 65.4091ZM31.5938 58.7113L30.6291 54.0864L34.4867 55.2677C34.2114 56.8528 33.0974 58.17 31.5938 58.7113ZM52.6343 58.5518L49.6274 57.631V42.2244C49.6274 41.6243 49.1407 41.1375 48.5405 41.1375C47.9404 41.1375 47.4537 41.6242 47.4537 42.2244V56.9653L36.1253 53.4961C36.0198 53.4434 35.9048 53.4073 35.7833 53.3913L30.2768 51.705V40.9637L52.6344 34.1168V58.5518H52.6343ZM54.8081 48.8219V43.8467C55.7657 44.2667 56.4365 45.2234 56.4365 46.3343C56.4365 47.4452 55.7657 48.4019 54.8081 48.8219Z" fill="#4183E4"/>
<path d="M66.5992 45.2474H61.7515C61.1513 45.2474 60.6645 45.7342 60.6645 46.3344C60.6645 46.9345 61.1512 47.4213 61.7515 47.4213H66.5992C67.1993 47.4213 67.6861 46.9345 67.6861 46.3344C67.6861 45.7342 67.1993 45.2474 66.5992 45.2474Z" fill="#4183E4"/>
<path d="M63.4992 36.8627C63.1455 36.3776 62.4653 36.2714 61.9806 36.6251L59.5412 38.4044C59.0562 38.7581 58.9498 39.4381 59.3035 39.923C59.5162 40.2148 59.8471 40.3695 60.1824 40.3695C60.4046 40.3695 60.6288 40.3016 60.8221 40.1606L63.2615 38.3814C63.7465 38.0277 63.853 37.3477 63.4992 36.8627Z" fill="#4183E4"/>
<path d="M63.2616 54.2875L60.8371 52.5191C60.3523 52.1655 59.6722 52.2717 59.3185 52.7568C58.9646 53.2417 59.0712 53.9217 59.5561 54.2755L61.9806 56.0437C62.1739 56.1847 62.398 56.2526 62.6203 56.2526C62.9556 56.2526 63.2866 56.0977 63.4992 55.8062C63.8531 55.3211 63.7466 54.6411 63.2616 54.2875Z" fill="#4183E4"/>
<path d="M65.0656 22.4222H42.505C41.9049 22.4222 41.4182 22.909 41.4182 23.5091C41.4182 24.1092 41.9049 24.596 42.505 24.596H65.0656C65.6657 24.596 66.1525 24.1092 66.1525 23.5091C66.1525 22.909 65.6658 22.4222 65.0656 22.4222Z" fill="#4183E4"/>
<path d="M31.4843 22.7407C31.282 22.5386 31.0018 22.4222 30.7158 22.4222C30.4299 22.4222 30.1496 22.5384 29.9474 22.7407C29.7442 22.9429 29.6288 23.2233 29.6288 23.5092C29.6288 23.7951 29.7441 24.0754 29.9474 24.2776C30.1494 24.4797 30.4299 24.5962 30.7158 24.5962C31.0018 24.5962 31.282 24.4799 31.4843 24.2776C31.6864 24.0756 31.8028 23.7951 31.8028 23.5092C31.8028 23.2233 31.6865 22.9429 31.4843 22.7407Z" fill="#4183E4"/>
<path d="M27.4899 22.7407C27.2877 22.5386 27.0074 22.4222 26.7214 22.4222C26.4355 22.4222 26.1552 22.5384 25.9531 22.7407C25.7509 22.9429 25.6345 23.2233 25.6345 23.5092C25.6345 23.7951 25.7507 24.0754 25.9531 24.2776C26.1551 24.4797 26.4355 24.5962 26.7214 24.5962C27.0074 24.5962 27.2877 24.4799 27.4899 24.2776C27.692 24.0756 27.8084 23.7951 27.8084 23.5092C27.8084 23.2233 27.6921 22.9429 27.4899 22.7407Z" fill="#4183E4"/>
<path d="M35.4786 22.7407C35.2754 22.5385 34.9962 22.4222 34.7101 22.4222C34.4232 22.4222 34.1439 22.5384 33.9407 22.7407C33.7386 22.9429 33.6232 23.2233 33.6232 23.5092C33.6232 23.7951 33.7385 24.0754 33.9407 24.2776C34.1438 24.4797 34.4231 24.5962 34.7101 24.5962C34.9962 24.5962 35.2753 24.4799 35.4786 24.2776C35.6807 24.0756 35.7971 23.7951 35.7971 23.5092C35.7971 23.2233 35.6808 22.9429 35.4786 22.7407Z" fill="#4183E4"/>
<path d="M66.9796 18.5094H24.8075C22.2903 18.5094 20.2425 20.5572 20.2425 23.0744V37.965C20.2425 38.5652 20.7292 39.0519 21.3293 39.0519C21.9295 39.0519 22.4162 38.5652 22.4162 37.965V33.734H29.1896C29.7897 33.734 30.2765 33.2472 30.2765 32.6471C30.2765 32.047 29.7898 31.5601 29.1896 31.5601H22.4163V28.5082C22.4203 28.5082 22.4243 28.5089 22.4281 28.5089H69.3708V56.7686C69.3708 58.0871 68.2982 59.1597 66.9796 59.1597H58.3205C57.7204 59.1597 57.2336 59.6464 57.2336 60.2467C57.2336 60.8469 57.7203 61.3335 58.3205 61.3335H66.9796C69.4968 61.3335 71.5446 59.2857 71.5446 56.7686V23.0744C71.5446 20.5572 69.4968 18.5094 66.9796 18.5094ZM69.3708 26.3352H22.4281C22.4241 26.3352 22.4201 26.3357 22.4163 26.3358V23.0744C22.4163 21.7559 23.4889 20.6832 24.8075 20.6832H66.9796C68.2982 20.6832 69.3708 21.7559 69.3708 23.0744V26.3352Z" fill="#4183E4"/>
<path d="M33.4831 31.8784C33.2811 31.6763 33.0006 31.5598 32.7147 31.5598C32.4288 31.5598 32.1485 31.6761 31.9463 31.8784C31.7441 32.0804 31.6278 32.3609 31.6278 32.6468C31.6278 32.9328 31.7439 33.2131 31.9463 33.4153C32.1484 33.6185 32.4288 33.7338 32.7147 33.7338C33.0006 33.7338 33.281 33.6187 33.4831 33.4153C33.6852 33.2132 33.8017 32.9328 33.8017 32.6468C33.8017 32.3609 33.6853 32.0804 33.4831 31.8784Z" fill="#4183E4"/>
</g>
<defs>
<clipPath id="clip0">
<rect width="56" height="56" fill="white" transform="translate(15.5446 15.3997)"/>
</clipPath>
</defs>
</svg>
