<svg width="87" height="87" viewBox="0 0 87 87" fill="none" xmlns="http://www.w3.org/2000/svg">
<circle cx="43.2849" cy="43.3997" r="42" stroke="#4183E4" stroke-width="2"/>
<g clip-path="url(#clip0)">
<path d="M60.1373 59.1122L52.1046 54.6419C51.2707 54.2223 50.7465 53.3665 50.7515 52.433L50.7469 50.1939C52.4719 47.9345 53.7341 45.3568 54.4611 42.6088C54.477 42.5402 54.4848 42.4701 54.4848 42.3997V40.533H57.2849C58.8306 40.5313 60.0833 39.2786 60.0849 37.733V32.133C60.0813 30.9503 59.3337 29.8979 58.2182 29.5049V29.333C58.2182 21.0855 51.5324 14.3997 43.2849 14.3997C35.0375 14.3997 28.3515 21.0855 28.3515 29.333V29.5049C27.236 29.8978 26.4885 30.9502 26.4848 32.133V37.733C26.4884 38.9156 27.236 39.968 28.3515 40.3609V42.3997C28.3539 44.4605 30.024 46.1307 32.0848 46.133H33.3686C34.0487 47.5625 34.8692 48.9209 35.8181 50.188V52.3396C35.8216 53.2441 35.327 54.0771 34.5311 54.507L26.2077 59.0511C23.499 60.5227 21.8142 63.3596 21.8181 66.4421V69.4664C21.8181 69.7139 21.9165 69.9513 22.0915 70.1263C22.2665 70.3013 22.5039 70.3997 22.7514 70.3997H63.8181C64.3336 70.3997 64.7514 69.9818 64.7514 69.4664V66.6291C64.7656 63.4504 62.978 60.5383 60.1373 59.1122ZM58.2182 32.133V37.733C58.2176 38.2481 57.8001 38.6656 57.2849 38.6663H54.4849V31.1997H57.2849C57.8001 31.2003 58.2176 31.6178 58.2182 32.133ZM29.2849 38.6664C28.7698 38.6657 28.3523 38.2482 28.3516 37.7331V32.1331C28.3523 31.6179 28.7698 31.2004 29.2849 31.1998H32.0849V38.6665H29.2849V38.6664ZM32.0849 44.2664C31.0544 44.2654 30.2193 43.4302 30.2182 42.3997V40.533H32.0849V42.3997C32.0848 42.4701 32.0928 42.5402 32.1087 42.6088C32.2421 43.1701 32.4067 43.7234 32.602 44.2663H32.0849V44.2664ZM32.0803 29.333H30.2182C30.2263 22.1198 36.0718 16.2745 43.2849 16.2664C50.4981 16.2745 56.3435 22.1199 56.3516 29.3331H54.4895C54.6576 27.1414 53.9549 24.9718 52.5336 23.2951C50.6172 21.1085 47.5054 19.9997 43.2849 19.9997C39.0645 19.9997 35.9527 21.1085 34.0364 23.295C32.615 24.9717 31.9122 27.1413 32.0803 29.333ZM23.6849 68.533V66.442C23.6815 64.0434 24.9925 61.8357 27.1002 60.6908L35.4209 56.1481C36.8195 55.3925 37.6894 53.9292 37.6849 52.3396V50.188C37.6868 49.7812 37.5538 49.3852 37.3067 49.0619C36.6137 48.1354 35.9942 47.1562 35.4539 46.133H39.7237C40.1166 47.2485 41.169 47.9959 42.3516 47.9997H45.1516C46.698 47.9997 47.9516 46.746 47.9516 45.1997C47.9516 43.6533 46.698 42.3997 45.1516 42.3997H42.3516C41.169 42.4033 40.1166 43.1508 39.7236 44.2664H34.5917C34.3315 43.6242 34.1176 42.9644 33.9516 42.2917V29.333C33.9516 29.2922 33.9489 29.2513 33.9434 29.2108C33.8066 27.513 34.3443 25.8296 35.44 24.5255C36.9862 22.7609 39.6259 21.8664 43.2849 21.8664C46.9303 21.8664 49.5644 22.7546 51.1135 24.5065C52.2115 25.8176 52.7543 27.5055 52.6264 29.211C52.621 29.2515 52.6182 29.2923 52.6182 29.3332V42.2918C51.9461 44.7436 50.8069 47.0424 49.2632 49.0621C49.0161 49.3853 48.8831 49.7814 48.8849 50.1883V52.4332C48.8741 54.0594 49.7821 55.5524 51.231 56.2909L59.2646 60.7616C61.4895 61.8694 62.8929 64.1438 62.8849 66.6292V68.5332H23.6849V68.533ZM41.4182 45.1997C41.4189 44.6845 41.8364 44.267 42.3515 44.2664H45.1515C45.667 44.2664 46.0848 44.6843 46.0848 45.1997C46.0848 45.715 45.667 46.133 45.1515 46.133H42.3515C41.8364 46.1323 41.4189 45.7148 41.4182 45.1997Z" fill="#4183E4"/>
</g>
<defs>
<clipPath id="clip0">
<rect width="56" height="56" fill="white" transform="translate(15.2849 14.3997)"/>
</clipPath>
</defs>
</svg>
