<svg width="184" height="122" viewBox="0 0 184 122" fill="none" xmlns="http://www.w3.org/2000/svg">
<g clip-path="url(#clip0)">
<path opacity="0.1" d="M170.52 99.7546C169.947 100.259 169.36 100.749 168.761 101.224C168.661 101.306 168.557 101.384 168.454 101.467C166.317 103.125 164.074 104.64 161.739 106.003L161.302 106.258C161.196 106.322 161.093 106.381 160.982 106.44C158.542 107.849 156.011 109.146 153.449 110.374L153.422 110.388L153.229 110.479C151.163 111.469 149.066 112.417 146.938 113.322L146.887 113.341C145.928 113.745 144.968 114.139 144.009 114.521C143.617 114.681 143.224 114.83 142.83 114.982C142.09 115.265 141.348 115.543 140.6 115.81L140.507 115.845L140.347 115.901L140.147 115.975C138.195 116.672 136.217 117.316 134.213 117.906L134.178 117.916C132.781 118.323 131.374 118.7 129.958 119.047L129.765 119.095C127.686 119.597 125.574 120.028 123.449 120.374L122.959 120.452C121.405 120.696 119.84 120.896 118.265 121.05C109.408 121.906 100.445 121.21 91.6429 120.017C73.8684 117.606 56.3289 113.085 40.3325 106C37.2624 104.641 34.252 103.186 31.3013 101.635C31.2773 101.622 31.2565 101.609 31.2325 101.598C29.4662 100.67 27.7238 99.7023 26.0054 98.696C25.5017 98.405 25.0012 98.1076 24.5039 97.8086C23.892 97.4397 23.2828 97.0666 22.6763 96.6893C21.8768 96.1904 21.0773 95.6787 20.2777 95.1558L19.9036 94.9064L19.7597 94.8088C19.5566 94.6729 19.3567 94.537 19.1552 94.3995C11.6399 89.2827 4.93849 83.0817 1.77247 75.3218C-1.88606 66.3673 0.454887 55.0144 9.51645 49.7217C12.6313 47.8988 16.2515 46.9091 19.91 46.092L20.2841 46.0088C20.903 45.8729 21.5218 45.7418 22.1374 45.6107C24.2944 45.1534 26.4627 44.6992 28.6102 44.1924C29.7295 43.9285 30.8376 43.6519 31.9393 43.3529L32.3902 43.2282C35.0472 42.5153 37.6457 41.6002 40.163 40.4907H40.179C40.4492 40.3707 40.7162 40.246 40.9785 40.1181C41.148 40.0381 41.3175 39.9582 41.4869 39.8702C44.2053 38.5175 47.0835 36.6419 49.2981 34.4064C49.4756 34.2274 49.6483 34.0451 49.8162 33.8628C49.9457 33.7205 50.0736 33.5766 50.1967 33.4327C51.7494 31.6226 52.8239 29.6126 53.0286 27.4796C53.0975 26.7628 53.0652 26.0399 52.9326 25.3321C52.6816 23.9905 52.4385 22.6777 52.2594 21.3969C51.9253 18.9904 51.8117 16.6895 52.2754 14.4717C52.7471 12.2107 53.8169 10.0344 55.8588 7.92373C56.1669 7.60393 56.4989 7.28413 56.855 6.96433C58.5063 5.51556 60.3749 4.33499 62.3923 3.46571C62.6418 3.35911 62.8928 3.25251 63.1455 3.14591C68.7548 0.875322 75.4946 0.402017 81.7915 0.715422C87.6744 1.01817 93.52 1.83139 99.2622 3.14591C99.7179 3.24824 100.174 3.35538 100.626 3.46571C105.511 4.64899 110.317 6.1352 115.017 7.91574C127.23 12.5097 138.758 18.8881 149.527 25.9269C149.632 25.9957 149.738 26.0644 149.847 26.1348C150.297 26.4279 150.744 26.7222 151.188 27.0174C152.049 27.5878 152.901 28.1618 153.747 28.7396L154.318 29.1281C154.599 29.32 154.879 29.5124 155.157 29.7054L156.014 30.2986C156.054 30.3229 156.093 30.3501 156.129 30.3802L156.858 30.8854C157.28 31.1797 157.699 31.4755 158.12 31.7729L159.022 32.4125C159.209 32.5468 159.398 32.6795 159.585 32.8154L160.544 33.5158L160.758 33.6757C160.803 33.7077 160.848 33.7397 160.891 33.7748L160.918 33.7924C163.518 35.7 166.056 37.678 168.434 39.7743L168.741 40.0461L168.773 40.0749C169.032 40.3052 169.291 40.5386 169.545 40.7737C172.65 43.6007 175.432 46.6388 177.706 49.9967C188.151 65.5071 185.05 86.9833 170.52 99.7546Z" fill="#4183E4"/>
<path d="M129.896 57.1921C129.896 57.1921 130.827 52.3151 133.817 52.2896L136.005 56.7892L134.534 57.7885C134.534 57.7885 131.374 57.8893 129.896 57.1921Z" fill="#3F4D65"/>
<path opacity="0.1" d="M135.998 56.7828L134.534 57.7886C134.534 57.7886 132.305 57.8589 130.712 57.4688C130.432 57.4036 130.159 57.311 129.896 57.1921C129.896 57.1921 129.896 57.1649 129.912 57.1138C129.912 57.1074 129.912 57.101 129.912 57.0946C130.05 56.4827 130.24 55.8836 130.478 55.3037C130.57 55.0846 130.675 54.8592 130.787 54.6337C131.225 53.791 131.841 52.9644 132.684 52.555C132.995 52.4024 133.334 52.3138 133.68 52.2944H133.769H133.812L133.862 52.3935L134.601 53.9142L135.998 56.7828Z" fill="black"/>
<path d="M160.834 77.0437C160.834 77.0437 163.976 76.7431 164.253 76.9686C164.529 77.194 166.314 78.3517 167.371 77.6226C168.428 76.8934 167.722 74.3542 167.722 74.2535C167.722 74.1527 167.622 70.5582 167.622 70.5582L165.737 68.0189L163.373 63.5705L158.547 63.0908L158.672 70.1552L158.648 73.7754L160.834 77.0437Z" fill="#3F4D65"/>
<path opacity="0.1" d="M160.834 77.0437C160.834 77.0437 163.976 76.7431 164.253 76.9686C164.529 77.194 166.314 78.3517 167.371 77.6226C168.428 76.8934 167.722 74.3542 167.722 74.2535C167.722 74.1527 167.622 70.5582 167.622 70.5582L165.737 68.0189L163.373 63.5705L158.547 63.0908L158.672 70.1552L158.648 73.7754L160.834 77.0437Z" fill="black"/>
<path d="M133.182 52.1584C133.182 52.1584 132.935 55.2253 131.016 55.2733C131.016 55.2733 130.475 54.9535 129.746 54.4018C128.067 53.1466 125.405 50.7321 126.14 48.4855C127.196 45.2683 132.324 51.2038 132.324 51.2038L132.719 51.6451L133.182 52.1584Z" fill="#A5636D"/>
<path opacity="0.1" d="M133.182 52.1584C133.182 52.1584 132.934 55.2253 131.016 55.2733C131.016 55.2733 130.475 54.9535 129.746 54.4018L129.586 54.1924C129.91 54.3623 130.268 54.4589 130.634 54.4754C131.113 54.485 131.654 54.3155 132.001 53.6135C132.201 53.2188 132.378 52.8125 132.53 52.3967C132.621 52.1526 132.685 51.8996 132.722 51.642L133.182 52.1584Z" fill="black"/>
<path d="M132.352 57.7134L131.922 57.1601L130.483 55.2973L129.737 54.3459C130.06 54.5151 130.417 54.6112 130.782 54.6273C131.262 54.6385 131.802 54.4674 132.149 53.7655C132.351 53.3711 132.527 52.9647 132.679 52.5486C132.917 51.8706 132.912 51.522 132.827 51.4037C132.743 51.2854 133.361 51.8594 133.659 52.1425L133.67 52.1521L133.808 52.2832L133.86 52.3855L134.588 53.8422C134.588 53.8422 134.588 53.863 134.588 53.903C134.655 54.3651 134.9 57.2977 132.352 57.7134Z" fill="#E7EFFD"/>
<path d="M160.13 37.7786L156.409 41.7521C156.409 41.7521 151.635 39.8333 152.137 39.1937C152.332 38.9411 152.297 38.1432 152.188 37.2621C152.012 35.8694 151.635 34.2656 151.635 34.2656C151.635 34.2656 159.98 32.908 159.275 34.3168C159.019 34.8301 159.062 35.4361 159.222 35.9861C159.427 36.6282 159.734 37.2333 160.13 37.7786Z" fill="#A5636D"/>
<path opacity="0.1" d="M159.275 34.3104C159.019 34.8236 158.896 34.8732 159.056 35.4297C157.965 36.6001 156.577 37.8809 154.852 37.8809C153.928 37.8826 153.016 37.6691 152.188 37.2573C152.012 35.8646 151.635 34.2608 151.635 34.2608C151.635 34.2608 159.98 32.9016 159.275 34.3104Z" fill="black"/>
<path d="M160.836 31.7456C160.836 33.3325 160.205 34.8544 159.083 35.9765C157.961 37.0987 156.439 37.7291 154.852 37.7291C153.265 37.7291 151.743 37.0987 150.621 35.9765C149.499 34.8544 148.869 33.3325 148.869 31.7456C148.869 31.7168 148.869 31.688 148.869 31.6592C148.903 30.0879 149.554 28.5932 150.682 27.4981C151.809 26.403 153.322 25.7955 154.894 25.8069C156.465 25.8182 157.97 26.4475 159.081 27.5587C160.193 28.67 160.822 30.1739 160.834 31.7456H160.836Z" fill="#A5636D"/>
<path opacity="0.1" d="M161.701 71.2154C160.901 71.2154 158.269 71.2442 155.321 71.2905H155.284L154.31 71.3065H154.28C150.783 71.3625 147.337 70.6797 145.954 70.8092C143.011 71.0859 147.009 68.0909 147.009 68.0909C149.201 68.6226 151.455 68.8508 153.709 68.7689L154.555 68.7241C157.227 68.5738 159.913 68.3228 161.317 67.9006C161.414 68.6809 161.557 69.8114 161.701 71.2154Z" fill="black"/>
<path d="M161.701 71.0651C160.901 71.0651 158.269 71.0923 155.321 71.1403H155.284L154.31 71.1562H154.28C150.783 71.2122 147.337 70.5294 145.954 70.659C143.011 70.934 147.009 67.9406 147.009 67.9406C149.201 68.4723 151.455 68.6999 153.709 68.617L154.555 68.5739C157.227 68.4235 159.913 68.1709 161.317 67.7504C161.414 68.5307 161.557 69.6644 161.701 71.0651Z" fill="#5F5D7E"/>
<path opacity="0.1" d="M153.242 39.4431L148.616 41.605L145.049 69.2006C145.049 69.2006 147.159 68.2412 148.367 68.8488C149.574 69.4565 153.293 68.9 153.293 68.9C153.293 68.9 156.011 68.7401 156.41 69.0503C156.808 69.3605 161.539 67.7935 161.539 67.7935C161.539 67.7935 162.393 65.8827 161.739 65.5821C161.085 65.2815 161.941 62.3089 161.941 62.3089L161.539 42.3997L160.74 39.8413L158.578 38.5349L156.366 40.2938L155.311 40.4457L153.242 39.4431Z" fill="black"/>
<path d="M153.242 39.1361L148.618 41.298L145.049 68.9C145.049 68.9 147.159 67.9406 148.367 68.5482C149.574 69.1558 153.293 68.5978 153.293 68.5978C153.293 68.5978 156.011 68.4475 156.41 68.7481C156.808 69.0487 161.539 67.4913 161.539 67.4913C161.539 67.4913 162.393 65.5821 161.739 65.2799C161.085 64.9776 161.941 62.0115 161.941 62.0115L161.539 42.1023L160.74 39.5439L158.578 38.2359L156.366 39.9948L155.311 40.1451L153.242 39.1361Z" fill="#E7EFFD"/>
<path opacity="0.1" d="M153.167 40.4186C153.167 40.4186 154.5 42.0016 154.475 42.3294C154.449 42.6572 154.4 43.4343 154.4 43.4343L153.402 45.4714C153.402 45.4714 152.849 48.0107 152.849 48.5383C152.849 49.066 151.969 53.6407 151.969 53.6407L150.914 60.6764L149.58 69.9026L150.938 72.2404L152.546 70.8828L154.681 54.445L155.134 51.2023C155.134 51.2023 155.613 45.3707 155.613 44.7679C155.613 44.165 155.337 42.5804 155.337 42.5804C155.337 42.5804 155.664 41.0726 157.022 40.7208C158.379 40.369 156.921 40.644 156.921 40.644L156.142 40.0156L155.463 40.2923C155.463 40.2923 153.57 39.715 153.167 40.4186Z" fill="black"/>
<path d="M153.016 40.2682C153.016 40.2682 154.348 41.8513 154.324 42.1775C154.3 42.5037 154.248 43.284 154.248 43.284L153.242 45.3211C153.242 45.3211 152.689 47.8587 152.689 48.3864C152.689 48.9141 151.809 53.4904 151.809 53.4904L150.752 60.526L149.42 69.7507L150.778 72.0884L152.386 70.7309L154.521 54.2947L154.974 51.0519C154.974 51.0519 155.453 45.2204 155.453 44.6159C155.453 44.0115 155.177 42.4301 155.177 42.4301C155.177 42.4301 155.496 40.9206 156.86 40.5689C158.224 40.2171 156.761 40.4937 156.761 40.4937L155.981 39.8653L155.303 40.1419C155.303 40.1419 153.419 39.5631 153.016 40.2682Z" fill="#4183E4"/>
<path opacity="0.1" d="M152.137 37.6283C152.137 37.6283 151.935 37.7786 151.886 38.7844C151.836 39.7902 151.131 42.0527 151.131 42.0527C151.131 42.0527 153.746 40.2427 155.054 40.4441L152.137 37.6283Z" fill="black"/>
<path d="M152.137 37.3261C152.137 37.3261 151.935 37.478 151.886 38.4822C151.836 39.4864 151.131 41.7506 151.131 41.7506C151.131 41.7506 153.746 39.9405 155.054 40.142L152.137 37.3261Z" fill="#E7EFFD"/>
<path opacity="0.1" d="M159.276 36.824L155.161 40.4441C155.161 40.4441 158.631 42.5052 159.083 43.0025C159.536 43.4998 159.988 38.076 159.988 38.076L159.276 36.824Z" fill="black"/>
<path d="M159.427 36.5218L155.305 40.1419C155.305 40.1419 158.773 42.2031 159.225 42.7003C159.678 43.1976 160.13 37.7722 160.13 37.7722L159.427 36.5218Z" fill="#E7EFFD"/>
<path opacity="0.1" d="M152.282 37.6283C152.282 37.6283 151.83 37.4012 151.403 38.0552C150.976 38.7092 150.172 39.0146 150.172 39.0146C150.172 39.0146 145.595 39.7438 145.42 40.3466L143.283 40.4713C143.283 40.4713 142.529 40.5625 142.458 42.1615C142.388 43.7605 141.978 43.8948 141.978 43.8948C141.978 43.8948 141.097 45.4538 141.179 46.2581C141.261 47.0624 140.499 47.4654 140.499 47.4654L143.648 55.6267C143.648 55.6267 143.749 58.9958 143.168 60.227C142.588 61.4582 141.508 66.914 141.508 66.914C141.508 66.914 141.961 66.8133 141.935 67.1155C141.91 67.4177 141.382 70.7101 141.382 70.7101C141.382 70.7101 141.232 72.0165 140.981 72.469C140.73 72.9215 140.704 75.2848 140.704 75.2848L140.29 76.9942C140.29 76.9942 141.249 79.1304 142.704 78.8282C144.16 78.526 146.801 72.8208 146.801 72.8208L148.485 66.663L149.793 60.5788L150.17 56.4566L150.773 47.331L151.652 41.298C151.652 41.298 152.639 38.0552 152.282 37.6283Z" fill="black"/>
<path d="M152.137 37.3261C152.137 37.3261 151.684 37.1006 151.258 37.7546C150.831 38.4086 150.025 38.714 150.025 38.714C150.025 38.714 145.45 39.4431 145.274 40.046L143.138 40.1723C143.138 40.1723 142.383 40.273 142.308 41.856C142.233 43.4391 141.828 43.591 141.828 43.591C141.828 43.591 140.949 45.15 141.029 45.9543C141.109 46.7586 140.351 47.1599 140.351 47.1599L143.488 55.3245C143.488 55.3245 143.589 58.6936 143.008 59.9248C142.428 61.156 141.35 66.6118 141.35 66.6118C141.35 66.6118 141.803 66.5111 141.777 66.8133C141.751 67.1155 141.224 70.4079 141.224 70.4079C141.224 70.4079 141.074 71.7143 140.822 72.1668C140.571 72.6193 140.546 74.9826 140.546 74.9826L140.146 76.7C140.146 76.7 141.105 78.8362 142.559 78.5356C144.012 78.235 146.657 72.5266 146.657 72.5266L148.341 66.3688L149.649 60.2926L150.025 56.1703L150.629 47.0464L151.509 41.0134C151.509 41.0134 152.489 37.7546 152.137 37.3261Z" fill="#3F4D65"/>
<path opacity="0.1" d="M135.998 56.7828L134.534 57.7885C134.534 57.7885 132.305 57.8589 130.712 57.4687L129.9 57.109L129.74 57.037L129.908 57.0898C130.749 57.3392 131.406 57.3344 131.919 57.1617C133.983 56.4678 133.755 53.0603 133.678 52.2896C133.678 52.2128 133.665 52.1632 133.662 52.1441C133.662 52.1409 133.662 52.1376 133.662 52.1345L133.675 52.1536C133.702 52.2006 133.734 52.245 133.769 52.2864C133.798 52.3208 133.829 52.3534 133.862 52.3839L134.59 53.8406C134.59 53.8406 134.59 53.8614 134.59 53.9014L135.998 56.7828Z" fill="black"/>
<path d="M141.051 46.9585L140.347 47.16L140.247 48.5991C140.247 48.5991 139.417 48.4744 139.191 49.4545C138.966 50.4347 138.563 50.8936 138.563 50.8936C138.563 50.8936 137.18 52.0497 137.105 53.0299L136.249 53.5576C136.249 53.5576 134.263 53.1051 133.811 52.3008C133.811 52.3008 134.716 58.7863 129.89 57.2033C129.89 57.2033 135.295 59.5666 135.546 59.8928C135.797 60.219 137.457 61.1721 138.964 60.3725C140.472 59.573 140.8 58.3114 140.8 58.3114C140.8 58.3114 142.258 56.2759 142.308 55.9737C142.357 55.6715 143.49 55.3197 143.49 55.3197L145.651 50.0925L141.051 46.9585Z" fill="#3F4D65"/>
<path opacity="0.1" d="M158.698 39.8397L159.427 36.5218C159.427 36.5218 159.747 37.6027 160.081 37.8538C160.415 38.1048 161.162 38.6836 161.162 38.6836C161.162 38.6836 162.243 39.1873 162.618 39.1873C162.994 39.1873 165.033 39.715 165.284 39.9868C165.535 40.2587 166.541 40.062 166.541 40.062C166.541 40.062 167.371 40.3386 168.1 40.5145C168.829 40.6904 169.181 41.8976 169.029 42.3741C168.968 42.6117 168.969 42.8608 169.03 43.0982C169.092 43.3355 169.212 43.5535 169.381 43.7317C169.683 44.0339 169.833 45.0109 169.833 45.0109C170.203 45.1314 170.511 45.3936 170.689 45.7401C170.94 46.2933 170.865 47.499 170.865 47.499L167.12 52.7757C167.12 52.7757 167.169 54.8112 167.019 55.2637C166.869 55.7162 167.547 63.4091 167.547 63.4091L168.325 76.6312C168.325 76.6312 167.296 77.5107 167.068 77.6114C166.841 77.7122 166.616 72.9359 166.616 72.76C166.616 72.5841 160.81 64.0614 160.81 64.0614C160.81 64.0614 160.03 62.8046 160.03 62.528C160.03 62.2514 159.301 59.7138 159.301 59.7138L158.199 54.8224L158.698 39.8397Z" fill="black"/>
<path d="M171.176 47.2191C171.176 47.3918 171.167 47.5069 171.167 47.5069L167.423 52.7837C167.423 52.7837 167.475 54.8208 167.324 55.2733C167.236 55.5355 167.428 58.2411 167.606 60.4621C167.732 62.0611 167.852 63.417 167.852 63.417L168.181 69.0263L168.629 76.6408C168.629 76.6408 167.599 77.5203 167.374 77.621C167.148 77.7217 166.921 72.9455 166.921 72.768C166.921 72.5905 161.111 64.0678 161.111 64.0678C161.111 64.0678 160.332 62.8094 160.332 62.5328C160.332 62.2562 159.603 59.7169 159.603 59.7169L158.498 54.816L159 39.8333L159.427 36.5154C159.427 36.5154 160.055 37.5979 160.386 37.8473C160.717 38.0968 161.466 38.6772 161.466 38.6772C161.466 38.6772 162.547 39.1809 162.924 39.1809C163.301 39.1809 165.337 39.7086 165.589 39.9804C165.842 40.2523 166.846 40.0556 166.846 40.0556C166.846 40.0556 167.674 40.3322 168.404 40.5081C169.133 40.684 169.485 41.8912 169.334 42.3677C169.273 42.6053 169.273 42.8545 169.335 43.0919C169.396 43.3294 169.517 43.5473 169.686 43.7253C169.987 44.0259 170.139 45.0045 170.139 45.0045C170.509 45.1255 170.816 45.3875 170.994 45.7336C171.165 46.1302 171.181 46.8274 171.176 47.2191Z" fill="#3F4D65"/>
<path opacity="0.1" d="M144.011 114.521C143.619 114.681 143.226 114.83 142.832 114.982C141.6 114.622 140.448 114.198 140.448 114.198C141.641 114.241 142.83 114.349 144.011 114.521Z" fill="black"/>
<path opacity="0.1" d="M155.907 101.101C155.907 101.101 158.899 101.804 159.075 102.282L155.907 101.101Z" fill="black"/>
<path opacity="0.1" d="M144.369 103.263C144.369 103.263 142.81 103.715 144.319 104.62C145.829 105.525 144.369 103.263 144.369 103.263Z" fill="black"/>
<path opacity="0.1" d="M151.282 79.0985C151.457 79.0985 154.198 78.1935 155.153 78.5964C156.107 78.9994 157.291 78.9978 157.291 78.9978L151.282 79.0985Z" fill="black"/>
<path opacity="0.1" d="M151.643 81.9767L151.616 82.2261L149.272 88.3567C149.272 88.3567 148.894 90.2164 148.566 91.2717C148.361 91.9891 148.197 92.7179 148.077 93.4543L150.156 80.5887L151.643 81.9767Z" fill="black"/>
<path d="M155.284 71.1402L154.31 71.1562H154.28L153.709 68.6218C153.989 68.609 154.272 68.5946 154.555 68.577L155.284 71.1402Z" fill="#3F3D56"/>
<path d="M167.144 68.0653L166.518 68.5818L164.435 70.304C164.435 70.304 158.779 73.3213 157.222 70.4543C155.848 67.9294 162.26 66.1274 163.805 65.734C164.014 65.6812 164.134 65.6541 164.134 65.6541L167.144 68.0653Z" fill="#A5636D"/>
<path opacity="0.1" d="M142.987 43.3591C142.987 43.3591 144.092 43.8628 144.343 44.5664C144.594 45.2699 142.987 43.3591 142.987 43.3591Z" fill="black"/>
<path opacity="0.1" d="M139.567 50.9016C139.567 50.9016 137.959 52.862 138.608 53.6199C139.257 54.3778 139.567 50.9016 139.567 50.9016Z" fill="black"/>
<path opacity="0.1" d="M168.325 44.4656C168.325 44.4656 166.817 44.6159 166.766 45.9239L168.325 44.4656Z" fill="black"/>
<path opacity="0.1" d="M154.348 65.0784C154.508 64.9281 157.969 59.8017 158.773 60.2526L154.348 65.0784Z" fill="black"/>
<path opacity="0.1" d="M160.836 31.7455C160.836 32.7309 160.593 33.7011 160.127 34.5694H160.082C159.703 34.4894 159.507 34.0481 159.217 33.7699C159.039 33.6005 158.812 33.4912 158.569 33.457C158.326 33.4229 158.078 33.4658 157.86 33.5796C157.639 33.7112 157.46 33.9017 157.342 34.1297C157.225 34.3577 157.173 34.6141 157.193 34.87C157.001 34.0705 157.062 33.2086 156.873 32.4027C156.685 31.5968 156.123 30.7797 155.353 30.7653C155.02 30.7653 154.633 30.8885 154.393 30.639C154.248 30.4887 154.219 30.2521 154.11 30.0698C153.558 29.1791 151.883 29.6301 151.198 30.0874C150.514 30.5447 149.719 31.2738 148.869 31.6656C148.903 30.0942 149.554 28.5995 150.682 27.5045C151.809 26.4094 153.322 25.8019 154.894 25.8132C156.465 25.8245 157.97 26.4538 159.081 27.5651C160.193 28.6763 160.822 30.1803 160.834 31.7519L160.836 31.7455Z" fill="black"/>
<path d="M154.112 29.9131C154.22 30.0954 154.249 30.332 154.395 30.4823C154.635 30.7302 155.022 30.6023 155.354 30.6087C156.125 30.6215 156.688 31.4386 156.875 32.2445C157.062 33.0504 157.001 33.9074 157.195 34.7117C157.175 34.4561 157.227 34.2 157.344 33.9723C157.462 33.7446 157.641 33.5544 157.861 33.4229C158.079 33.309 158.327 33.2661 158.57 33.3002C158.813 33.3343 159.04 33.4438 159.217 33.6132C159.507 33.8882 159.697 34.3296 160.084 34.4127C160.471 34.4959 160.829 34.1281 160.967 33.7283C161.104 33.3286 161.093 32.8905 161.182 32.4763C161.354 31.6912 161.865 31.0484 162.142 30.3033C162.479 29.396 162.47 28.3963 162.116 27.4954C161.928 27.0157 161.648 26.5984 161.456 26.1267C161.168 25.4103 161.091 24.6028 160.74 23.92C160.148 22.7767 158.754 22.2059 157.609 22.6408C157.062 22.8471 156.587 23.2453 156.032 23.4227C155.29 23.661 154.495 23.4819 153.726 23.3748C152.957 23.2676 152.107 23.258 151.488 23.7633C150.776 24.3454 150.581 25.4391 149.913 26.0787C149.631 26.3473 149.283 26.5184 148.987 26.7663C148.691 27.0141 148.435 27.3835 148.469 27.7864C148.514 28.3077 149.024 28.781 148.835 29.2623C148.767 29.4023 148.672 29.5274 148.555 29.6301C147.996 30.2176 147.579 30.9262 147.338 31.7008C148.685 32.1213 150.14 30.6375 151.194 29.9419C151.886 29.4734 153.562 29.0209 154.112 29.9131Z" fill="#4C3E42"/>
<path opacity="0.1" d="M167.144 68.0654L166.518 68.5818C165.967 67.6624 163.701 65.8268 163.701 65.8268L163.798 65.7324C164.008 65.6796 164.128 65.6525 164.128 65.6525L167.144 68.0654Z" fill="black"/>
<path d="M167.748 67.1395C167.748 67.1395 167.523 67.6991 167.291 68.1836C167.059 68.6681 166.811 69.1063 166.792 68.7497C166.766 68.0445 163.851 65.6812 163.851 65.6812L164.246 65.2974L164.705 64.8513L167.748 67.1395Z" fill="#E7EFFD"/>
<path opacity="0.1" d="M167.849 63.4186L168.178 69.0279C167.398 67.8143 165.254 64.701 163.875 64.8018L167.219 60.9642C167.358 60.8095 167.487 60.6449 167.603 60.4717C167.729 62.0675 167.849 63.4186 167.849 63.4186Z" fill="black"/>
<path opacity="0.1" d="M167.748 67.1395C167.748 67.1395 167.523 67.6991 167.291 68.1836C166.414 66.9812 165.212 65.5629 164.253 65.2974L164.712 64.8513L167.748 67.1395Z" fill="black"/>
<path d="M170.262 46.7986L171.167 47.5021C171.167 47.5021 172.675 47.5277 172.825 48.7813C172.975 50.035 174.358 50.617 174.358 50.617C174.358 50.617 175.39 51.6468 175.39 52.1249C175.39 52.603 176.168 53.4568 176.168 53.532C176.168 53.6071 176.923 55.1406 176.822 55.4172C176.722 55.6938 177.622 56.9011 177.35 57.3536C177.123 57.7595 176.922 58.1793 176.747 58.6104C176.747 58.6104 175.566 60.873 174.961 61.3C174.357 61.7269 171.594 65.3215 171.594 65.3215C171.594 65.3215 168.628 68.7401 168.628 69.7987C168.628 69.7987 165.737 64.9713 164.027 65.0976L167.371 61.252C167.371 61.252 167.948 60.6236 167.974 60.2462C167.999 59.8688 169.582 58.1339 170.337 58.0588C170.337 58.0588 170.462 57.0274 170.135 57.0034C169.809 56.9794 169.533 56.1735 169.533 56.1735C169.533 56.1735 167.32 53.5592 167.294 51.8994C167.268 50.2396 170.262 46.7986 170.262 46.7986Z" fill="#3F4D65"/>
<path opacity="0.1" d="M171.594 49.1971C171.594 49.1971 169.481 50.7545 169.934 51.2582C170.386 51.7619 171.594 49.1971 171.594 49.1971Z" fill="black"/>
<path opacity="0.1" d="M171.694 55.6267C171.694 55.6267 175.615 54.3699 176.012 55.6267H171.694Z" fill="black"/>
<path opacity="0.1" d="M144.03 48.8901C144.03 48.8901 144.03 54.6209 143.539 55.187C143.048 55.753 144.03 48.8901 144.03 48.8901Z" fill="black"/>
<path opacity="0.1" d="M166.691 50.7369L167.42 52.7853C167.42 52.7853 167.71 50.7753 166.691 50.7369Z" fill="black"/>
<g opacity="0.1">
<path opacity="0.1" d="M148.925 28.765C149.108 28.2933 148.627 27.8312 148.563 27.3259C148.5 27.4685 148.473 27.6244 148.483 27.78C148.515 28.1622 148.803 28.5172 148.872 28.8706C148.893 28.8371 148.91 28.8018 148.925 28.765Z" fill="black"/>
<path opacity="0.1" d="M157.26 34.1792C157.08 33.3797 157.132 32.5466 156.95 31.7551C156.768 30.9636 156.2 30.1305 155.429 30.1178C155.097 30.1178 154.71 30.2393 154.47 29.9914C154.324 29.8411 154.296 29.6045 154.187 29.4222C153.637 28.5315 151.961 28.9825 151.275 29.4398C150.247 30.1226 148.835 31.5521 147.516 31.2291C147.454 31.381 147.394 31.5345 147.345 31.6928C148.691 32.1133 150.146 30.6294 151.2 29.9339C151.886 29.4782 153.56 29.0256 154.112 29.9179C154.221 30.1002 154.249 30.3368 154.395 30.4871C154.635 30.735 155.022 30.6071 155.354 30.6134C156.125 30.6262 156.688 31.4433 156.875 32.2492C157.062 33.0551 157.001 33.9122 157.195 34.7165C157.18 34.5348 157.203 34.3521 157.26 34.1792Z" fill="black"/>
<path opacity="0.1" d="M161.04 33.2358C160.903 33.6356 160.545 34.0018 160.158 33.9202C159.771 33.8387 159.582 33.3989 159.293 33.1207C159.114 32.9519 158.887 32.8429 158.644 32.8091C158.401 32.7753 158.153 32.8182 157.935 32.932C157.725 33.0569 157.553 33.2356 157.436 33.4496C157.318 33.6636 157.261 33.905 157.268 34.1489C157.369 33.8418 157.58 33.5827 157.86 33.4213C158.077 33.3074 158.325 33.2645 158.568 33.2986C158.812 33.3327 159.038 33.4422 159.216 33.6116C159.505 33.8866 159.695 34.328 160.082 34.4111C160.469 34.4943 160.828 34.1265 160.965 33.7267C161.036 33.4913 161.082 33.2491 161.103 33.004C161.086 33.0823 161.065 33.1597 161.04 33.2358Z" fill="black"/>
<path opacity="0.1" d="M162.222 29.8124C161.939 30.5575 161.422 31.2003 161.262 31.9838C161.227 32.1437 161.208 32.3036 161.189 32.4635C161.36 31.6832 161.87 31.042 162.148 30.2985C162.274 29.9636 162.352 29.6126 162.38 29.2559C162.342 29.4453 162.289 29.6314 162.222 29.8124Z" fill="black"/>
</g>
<path d="M125.894 48.0138C125.929 48.0138 125.956 47.9859 125.956 47.9515C125.956 47.917 125.929 47.8891 125.894 47.8891C125.86 47.8891 125.832 47.917 125.832 47.9515C125.832 47.9859 125.86 48.0138 125.894 48.0138Z" fill="#E6E8EC"/>
<path d="M49.2746 70.555C48.8987 70.7099 48.5082 70.8267 48.109 70.9036C47.4113 71.0342 46.7032 71.1011 45.9935 71.1035C46.0143 71.2906 46.0303 71.4649 46.0462 71.6232C46.0846 72.0581 46.107 72.3571 46.107 72.3571L45.3571 72.3059L39.1721 71.8838L35.5552 71.3481C35.7298 71.5825 35.9194 71.8052 36.1228 72.0149C36.3335 72.238 36.5773 72.4272 36.8456 72.5762C36.8456 72.5762 40.1091 75.2193 40.6736 75.2433C40.7535 75.2433 40.7791 75.3232 40.7663 75.4496C42.1399 75.4496 46.4108 75.6494 45.226 78.0272C45.0299 78.451 44.6843 78.7875 44.2554 78.9722C42.885 79.5526 40.8175 78.5085 39.7526 77.8673C39.6486 78.0703 39.5495 78.259 39.4615 78.4205C39.2809 78.7611 39.1545 78.9866 39.1545 78.9866L39.0474 78.9098L33.5596 75.0019L32.3572 73.9817C32.004 73.9656 31.6542 73.9048 31.3162 73.801L31.1563 73.7498C31.1494 73.7638 31.1435 73.7782 31.1387 73.793C31.0949 73.9178 31.0623 74.0462 31.0412 74.1768C31.0412 74.1959 31.0412 74.2151 31.0412 74.2343C31.0187 74.3833 31.0038 74.5332 30.9964 74.6837C30.9964 74.786 30.9884 74.8947 30.9884 75.0035C30.9788 77.1813 31.8519 80.6815 31.8519 80.6815C31.8519 80.6815 34.1145 86.4523 33.3118 87.7843C33.2704 87.8519 33.2161 87.9106 33.1519 87.957C32.8688 88.1617 32.6994 88.5262 32.6114 88.9596C32.3124 90.3731 32.8369 92.5301 32.8369 92.5301C32.8369 92.5301 32.7889 92.6101 32.7073 92.7348C32.5309 93.0169 32.332 93.2843 32.1125 93.5343C32.0789 93.5727 32.0438 93.6127 32.007 93.6494C31.908 93.7535 31.8011 93.8497 31.6872 93.9373C31.708 93.9996 31.7304 94.0636 31.7527 94.1323C31.7751 94.2011 31.8039 94.3082 31.8263 94.4042C32.0044 95.19 31.9345 96.0118 31.6264 96.7563C31.4168 97.2991 31.2813 97.8675 31.2235 98.4465C31.1195 99.5064 31.1469 100.575 31.305 101.628C31.281 101.616 31.2603 101.603 31.2363 101.592C29.4678 100.667 27.7243 99.7022 26.0059 98.6959C25.5022 98.4049 25.0017 98.1075 24.5045 97.8085C23.8926 97.4396 23.2833 97.0665 22.6768 96.6892C21.8773 96.1903 21.0778 95.6786 20.2783 95.1557L19.9041 94.9063L19.7602 94.8087C19.5571 94.6728 19.3573 94.5369 19.1558 94.3994C18.3291 93.331 17.5738 92.2093 16.8948 91.0415C16.7813 90.8384 16.6789 90.6449 16.5942 90.4674V90.4578L16.5398 90.3411L16.3144 90.2612C15.8906 90.1124 15.622 90.0085 15.622 90.0085C15.8176 89.2951 15.9112 88.5576 15.9002 87.8179C15.8874 86.3788 15.4893 84.46 13.8487 82.9217C11.4246 80.6303 11.0904 78.3678 11.0552 77.4995C11.0552 77.4387 11.0552 77.3844 11.0552 77.3396C11.0544 77.2665 11.0576 77.1933 11.0648 77.1205L11.2503 76.943C10.7802 76.8487 10.3389 76.8055 10.3389 76.8055C10.3389 76.8055 11.9475 70.9851 14.6562 69.0424C15.9994 68.083 17.1171 66.484 17.907 65.112C19.3479 62.6326 20.9661 60.2604 22.7487 58.014L23.2364 57.3984L23.3788 57.2177L23.4091 57.1809L23.4475 57.1298C23.3814 57.0296 23.3143 56.9304 23.246 56.8324L23.2013 56.7668C22.9886 56.447 22.8063 56.1272 22.8351 55.745C22.8351 55.745 22.8351 55.737 22.8351 55.7338C22.8351 55.7067 22.8351 55.6811 22.8351 55.6523C22.8419 55.5886 22.8536 55.5255 22.8703 55.4636C22.8757 55.4738 22.8822 55.4834 22.8895 55.4924C23.1181 54.8272 23.9992 54.533 24.6484 54.1652C26.1786 53.305 26.831 51.4229 27.1588 49.672C27.413 48.3097 27.6241 46.7826 28.6795 45.908C29.3606 45.3451 30.2785 45.1596 30.9676 44.6016C31.3664 44.2492 31.696 43.8257 31.9398 43.3528C32.0997 43.0809 32.2372 42.7995 32.3859 42.5277C33.0671 41.2964 33.9626 40.1515 35.1474 39.4144C36.3323 38.6773 37.8354 38.391 39.1337 38.8867C39.6342 39.077 40.0932 39.3664 40.5729 39.5791C40.8691 39.6999 41.175 39.7951 41.4875 39.8637C42.4645 40.0924 43.4926 40.1516 44.4105 40.5593C45.9023 41.2213 46.8729 42.686 47.7588 44.0771C48.2177 44.7967 48.9388 45.8488 49.3482 46.9073C49.3482 46.869 49.3482 46.8338 49.3482 46.797C49.5456 47.2631 49.654 47.7621 49.668 48.2681C49.676 48.4835 49.6528 48.6989 49.5992 48.9077C49.4521 49.4514 49.0764 49.7951 48.6046 50.0478L48.5295 50.0846C48.4286 50.1364 48.3251 50.1828 48.2193 50.2237C48.2033 50.3116 48.1857 50.4012 48.1665 50.4875C48.1585 50.5243 48.1489 50.5627 48.1393 50.5994C48.1186 50.689 48.0946 50.7769 48.069 50.8649C47.7272 52.0077 47.0605 53.0266 46.1502 53.7975C45.5197 54.3368 44.7911 54.7494 44.0043 55.0127C43.9483 55.0319 43.8892 55.0463 43.8332 55.0639C43.7857 55.1977 43.7177 55.3234 43.6317 55.4364C43.5695 55.5161 43.4963 55.5866 43.4143 55.6459C43.3632 55.6805 43.3098 55.7115 43.2544 55.7386C43.2408 55.7472 43.2263 55.7541 43.2112 55.7594C42.6356 56.0185 41.8473 55.8154 41.2924 55.4284C41.2636 55.4093 41.2364 55.3869 41.2093 55.3661C41.2093 55.4572 41.1949 55.5532 41.1789 55.6523C41.1629 55.7514 41.1517 55.8122 41.1341 55.8953C41.1165 55.9785 41.1101 56.0185 41.0989 56.0776C41.0877 56.1368 41.0797 56.1768 41.0701 56.2231L41.051 56.3047C40.7342 57.8481 40.1299 59.318 39.2697 60.638C39.1449 60.827 39.0099 61.0091 38.8651 61.1833L38.4686 61.7877V61.8692C38.5437 63.2604 38.0864 64.5572 37.4404 65.6733C37.2241 66.0433 36.9865 66.4005 36.7288 66.743L36.8184 66.7958C37.7138 67.3058 39.4791 68.2125 40.5952 68.1357C40.5952 68.1357 44.8166 68.681 45.3059 68.4076C45.3731 68.3692 45.4386 68.4219 45.4994 68.5355C46.1822 68.1197 47.7524 67.2387 48.9916 67.122C49.8583 67.0388 50.5634 67.3282 50.6945 68.4012C50.8257 69.4741 50.1797 70.1665 49.2746 70.555Z" fill="url(#paint0_linear)"/>
<path d="M26.1674 92.5429C26.4376 93.004 26.5989 93.5207 26.6388 94.0537C26.6787 94.5866 26.5962 95.1216 26.3976 95.6178C26.0091 96.5916 25.9659 97.8053 26.0059 98.6959C25.5022 98.4049 25.0017 98.1075 24.5044 97.8085C23.8925 97.4396 23.2833 97.0665 22.6767 96.6892C21.8772 96.1903 21.0777 95.6786 20.2782 95.1557L19.9041 94.9063L19.7602 94.8087C19.7476 94.7855 19.732 94.7639 19.7138 94.7448C19.4995 94.5177 18.2507 92.7268 17.5088 91.3677C17.3744 91.1182 17.2577 90.888 17.165 90.6769V90.6657C17.0051 90.3107 16.9299 90.0261 16.9779 89.8966C17.036 89.6927 17.1347 89.5027 17.2679 89.3379C17.4012 89.173 17.5663 89.0368 17.7534 88.9372C18.6744 88.4575 20.1519 88.9004 21.6134 89.6056C22.8708 90.2411 24.076 90.9752 25.2176 91.801L25.3471 91.8953L25.3599 91.9049C25.8396 92.2455 26.1178 92.471 26.1178 92.471C26.1178 92.471 26.1386 92.4966 26.1674 92.5429Z" fill="#FBBEBE"/>
<path opacity="0.05" d="M25.9244 92.3303C26.1951 92.7917 26.3567 93.3091 26.3966 93.8426C26.4365 94.3761 26.3537 94.9117 26.1546 95.4084C25.7661 96.3821 25.7229 97.5958 25.7629 98.488C25.2597 98.1949 24.7592 97.8985 24.2614 97.599C23.6484 97.2302 23.0392 96.8571 22.4337 96.4797C21.6342 95.9792 20.8347 95.4675 20.0432 94.9446L19.6691 94.6952L19.5252 94.5977C19.5122 94.5746 19.4966 94.5532 19.4788 94.5337C19.2645 94.3082 18.0157 92.5174 17.2738 91.1566C17.1394 90.9072 17.0227 90.6769 16.93 90.4658V90.4562C16.7701 90.0997 16.6949 89.8166 16.7429 89.6855C16.8013 89.4818 16.9 89.2919 17.0332 89.1271C17.1665 88.9623 17.3314 88.8259 17.5184 88.7261C18.4394 88.2464 19.9169 88.6893 21.3784 89.3945C22.6358 90.03 23.841 90.7641 24.9826 91.5899L25.1121 91.6843L25.1249 91.6939C25.6046 92.0345 25.8828 92.2599 25.8828 92.2599C25.8828 92.2599 25.8956 92.2839 25.9244 92.3303Z" fill="black"/>
<path d="M31.8118 96.2078C31.7653 96.4816 31.6897 96.7496 31.5864 97.0073C31.4093 97.4711 31.2875 97.9541 31.2234 98.4464C31.0975 99.4913 31.1018 100.548 31.2362 101.592C29.4677 100.667 27.7242 99.7022 26.0059 98.6959C25.5022 98.4048 25.0017 98.1074 24.5044 97.8084C24.3925 96.9578 24.2326 96.2094 24.0519 96.0255C23.8152 95.7761 22.4641 93.8445 21.6246 92.3206C21.5158 92.1288 21.4215 91.9433 21.3336 91.7674V91.7594C21.3 91.689 21.268 91.6219 21.2376 91.5547C21.0218 91.091 20.9066 90.7296 20.9642 90.5553C21.0764 90.1764 21.3073 89.8434 21.623 89.6055C23.0413 88.5694 25.9899 89.9717 28.2541 91.3644L28.31 91.398C28.7386 91.665 29.1447 91.9289 29.5093 92.1751L29.7219 92.319C30.659 92.9586 31.281 93.4559 31.281 93.4559C31.4355 93.6943 31.5596 93.9511 31.6503 94.2203C31.7037 94.3721 31.7481 94.5269 31.7831 94.684C31.8937 95.185 31.9035 95.703 31.8118 96.2078Z" fill="#FBBEBE"/>
<path opacity="0.1" d="M17.5167 91.3676C18.6792 91.7738 20.3949 92.3127 21.3288 92.3271C21.4255 92.33 21.5222 92.3252 21.6182 92.3127C22.2754 92.2231 24.3013 92.367 26.161 92.5349C26.9061 92.6005 27.624 92.6692 28.2173 92.73L29.7075 92.8899V92.3143C29.2934 92.0296 28.8121 91.713 28.2972 91.3932C26.025 89.9893 23.0397 88.555 21.6102 89.5991C19.597 88.627 17.5535 88.16 16.9731 89.8902C16.9059 90.1156 17.1506 90.6881 17.5167 91.3676Z" fill="black"/>
<path d="M11.9315 77.9664C11.9635 78.8282 12.2865 81.0652 14.6002 83.3246C17.552 86.2028 16.2936 90.3411 16.2936 90.3411C16.2936 90.3411 19.8114 91.7226 21.3288 91.7594C21.4255 91.7623 21.5223 91.7575 21.6183 91.745C22.5281 91.6187 26.145 91.9529 28.2237 92.1623L29.714 92.3222V80.0866L13.4138 76.1275L11.9379 77.5986C11.9279 77.7209 11.9258 77.8438 11.9315 77.9664Z" fill="#3F4D65"/>
<g opacity="0.1">
<path opacity="0.1" d="M29.447 92.1703L29.714 92.1975V92.3286L28.2238 92.1687C26.7319 92.0184 24.4517 91.8041 22.947 91.7418C23.988 91.649 27.4338 91.9672 29.447 92.1703Z" fill="black"/>
<path opacity="0.1" d="M11.9379 77.6066L13.4137 76.1355L14.3987 76.3738L13.1691 77.6066C13.1613 77.729 13.1613 77.8519 13.1691 77.9744C13.2011 78.8362 13.5241 81.0716 15.8378 83.3326C18.7896 86.2108 17.5312 90.3475 17.5312 90.3475C17.5312 90.3475 20.4414 91.4907 22.1091 91.7258C21.9488 91.7251 21.7886 91.7342 21.6294 91.753C21.5335 91.7655 21.4367 91.7703 21.34 91.7674C19.8226 91.729 16.3047 90.3475 16.3047 90.3475C16.3047 90.3475 17.5632 86.2108 14.6114 83.3326C12.2864 81.0716 11.9634 78.8362 11.9315 77.9792C11.9256 77.855 11.9277 77.7305 11.9379 77.6066Z" fill="black"/>
</g>
<path d="M44.5095 69.3254C44.5095 69.3254 49.4393 65.9067 49.799 68.9832C50.1588 72.0597 44.5095 71.628 44.5095 71.628V69.3254Z" fill="#FBBEBE"/>
<path d="M36.0092 67.058C36.0092 67.058 38.6748 68.8169 40.1506 68.7129C40.1506 68.7129 44.1801 69.2534 44.6486 68.9832C45.1171 68.7129 45.405 72.8879 45.405 72.8879L38.7835 72.4194L34.5365 71.7718C34.5365 71.7718 32.4131 70.4767 32.4131 69.3605C32.4131 68.2444 36.0092 67.058 36.0092 67.058Z" fill="#F7CDDD"/>
<path d="M36.0092 67.058C36.0092 67.058 38.6748 68.8169 40.1506 68.7129C40.1506 68.7129 44.1801 69.2534 44.6486 68.9832C45.1171 68.7129 45.405 72.8879 45.405 72.8879L38.7835 72.4194L34.5365 71.7718C34.5365 71.7718 32.4131 70.4767 32.4131 69.3605C32.4131 68.2444 36.0092 67.058 36.0092 67.058Z" fill="#4183E4"/>
<path d="M39.9172 75.9549C39.9172 75.9549 45.9119 75.707 44.5687 78.4989C43.2256 81.2907 38.6844 77.9008 38.6844 77.9008L39.9172 75.9549Z" fill="#FBBEBE"/>
<path d="M33.889 70.0082C33.889 70.0082 38.7468 66.3736 38.064 61.9476C37.3812 57.5215 33.889 65.3311 33.889 65.3311V70.0082Z" fill="#3F4D65"/>
<path d="M35.2354 49.9422C35.2363 51.5344 35.8555 53.0639 36.9623 54.2084C37.5593 54.8247 38.2781 55.31 39.073 55.6331C39.3293 55.7403 39.5934 55.828 39.8629 55.8953C40.1492 55.9692 40.4404 56.0227 40.7343 56.0552C40.9454 56.076 41.1581 56.0872 41.374 56.0872C42.0611 56.0858 42.7429 55.9674 43.3903 55.737C44.4552 55.3671 45.3978 54.7112 46.1146 53.841C46.8314 52.9709 47.2949 51.9203 47.4541 50.8042C47.6134 49.6882 47.4623 48.5498 47.0175 47.5139C46.5726 46.478 45.8512 45.5846 44.9322 44.9316C44.0132 44.2786 42.9322 43.8912 41.8076 43.8119C40.6831 43.7325 39.5584 43.9643 38.5568 44.4819C37.5553 44.9994 36.7155 45.7827 36.1296 46.7458C35.5438 47.709 35.2344 48.8149 35.2354 49.9422Z" fill="#FBBEBE"/>
<path opacity="0.1" d="M11.9315 77.9664C12.4816 78.0671 13.1611 78.2526 13.1611 78.5372C13.1611 79.0169 20.8363 81.6089 20.8363 81.6089C20.8363 81.6089 20.5485 82.2789 21.316 83.4318C22.0836 84.5846 28.3245 91.2045 28.3245 91.2045L28.3037 91.3996L28.2237 92.1623L27.8432 95.8097C27.8432 95.8097 30.2417 94.9462 31.0092 95.0421C31.2571 95.0725 31.5273 94.9142 31.7751 94.6839C31.6839 94.2482 31.5143 93.8327 31.2746 93.4575C31.2746 93.4575 30.6526 92.9682 29.714 92.3206V80.0866L13.4138 76.1275L11.9379 77.5986C11.9279 77.7209 11.9258 77.8438 11.9315 77.9664Z" fill="black"/>
<path d="M11.2407 77.29C11.2407 77.29 13.1595 77.4803 13.1595 77.9616C13.1595 78.4429 20.8347 81.0333 20.8347 81.0333C20.8347 81.0333 20.5469 81.7032 21.3144 82.8561C22.082 84.009 28.3229 90.6289 28.3229 90.6289L27.8432 95.234C27.8432 95.234 30.2417 94.3705 31.0092 94.4665C31.353 94.5097 31.7319 94.1915 32.0453 93.8269C32.3053 93.5195 32.5371 93.1893 32.7377 92.8403C32.7377 92.8403 31.8727 89.1914 33.0255 88.3279C34.1784 87.4644 31.7783 81.1324 31.7783 81.1324C31.7783 81.1324 30.6926 76.6296 31.0124 74.698C31.0327 74.5693 31.0638 74.4426 31.1051 74.319C31.1051 74.3046 31.1131 74.2903 31.1195 74.2759C31.8039 72.4306 39.1657 56.9506 39.1657 56.9506C39.161 56.5116 39.13 56.0732 39.073 55.6379C39.0586 55.5163 39.0394 55.39 39.0154 55.2637C38.9783 55.0336 38.9286 54.8057 38.8667 54.5809C38.8251 54.4338 38.7804 54.2931 38.7276 54.1588C38.5005 53.5736 38.1519 53.1242 37.6307 53.113C37.6307 53.113 37.055 52.4734 35.7119 52.3039C34.7205 52.1744 33.3134 52.3039 31.3946 53.113C26.8854 55.0318 25.83 55.1278 25.83 55.1278L23.5626 58.0971L23.0957 58.708C21.3892 60.9339 19.8443 63.2793 18.473 65.726C17.7183 67.0819 16.6501 68.6634 15.3693 69.6132C12.7773 71.5336 11.2407 77.29 11.2407 77.29Z" fill="#4183E4"/>
<path opacity="0.1" d="M28.059 66.1945C28.059 66.1945 21.6534 67.7775 19.1702 71.7718L28.059 66.1945Z" fill="black"/>
<path opacity="0.1" d="M26.0794 73.2109C26.0794 73.2109 24.869 81.3435 25.2048 81.9559C25.5406 82.5683 26.0794 73.2109 26.0794 73.2109Z" fill="black"/>
<path opacity="0.1" d="M26.5128 77.386C26.9797 77.9968 28.8713 82.7122 28.8713 82.7122L28.3245 90.6289L27.8447 95.234C27.8447 95.234 30.2433 94.3706 31.0124 94.4665C31.3546 94.5097 31.7351 94.1931 32.0485 93.8269C31.5496 91.1294 30.4847 85.4865 30.2896 85.3778C30.0354 85.2339 28.7402 80.6991 28.6714 79.4391C28.6027 78.1791 26.799 75.3392 26.799 75.3392C26.799 75.3392 26.0443 76.7751 26.5128 77.386Z" fill="black"/>
<path opacity="0.1" d="M28.3244 69.6132C28.4412 69.9729 28.6266 72.0596 28.6266 72.0596C28.7578 73.9001 30.1489 74.5013 31.0124 74.6932C31.0327 74.5645 31.0637 74.4378 31.1051 74.3143C31.6807 72.6849 39.1657 56.9459 39.1657 56.9459C39.1579 56.147 39.0576 55.3518 38.8667 54.5761C37.2373 54.0964 34.6565 54.8352 34.6565 54.8352C33.9114 54.7376 31.4793 59.5746 31.4793 59.5746C31.4793 59.5746 29.8579 63.2795 29.6804 63.7832C29.5029 64.2869 29.6804 65.1168 29.6084 65.4046C29.5365 65.6924 28.7786 65.9419 28.6714 66.34C28.5643 66.7382 28.6346 67.5249 28.5627 67.6688C28.4907 67.8127 28.1997 69.2534 28.3244 69.6132Z" fill="black"/>
<path d="M28.9001 69.3254C29.0184 69.6852 29.2023 71.7719 29.2023 71.7719C29.311 73.3037 30.296 73.9769 31.1211 74.2711C31.4916 74.4034 31.8795 74.481 32.2724 74.5014L33.4301 75.5056L38.7723 79.4471C38.7723 79.4471 40.7647 75.7694 40.2242 75.7454C39.6838 75.7214 36.5673 73.107 36.5673 73.107C35.6079 72.5986 34.6581 70.8972 34.2152 70.0242C34.2413 69.9189 34.2605 69.8121 34.2727 69.7044C34.4662 68.075 38.4957 61.8373 38.4957 61.8373C38.4957 61.8373 40.0531 60.0032 40.6607 56.6053C40.6783 56.5286 40.6895 56.4454 40.7039 56.3671C40.7211 56.2612 40.7318 56.1544 40.7359 56.0473C40.8079 54.7409 39.8581 54.266 38.7292 54.1524C38.1426 54.1068 37.5529 54.1251 36.9702 54.2068C36.3874 54.2796 35.8104 54.3929 35.2433 54.5458C34.7636 54.4834 33.5708 56.4902 32.7905 57.9117C32.3699 58.6824 32.0677 59.2852 32.0677 59.2852C32.0677 59.2852 30.4383 62.9917 30.256 63.4954C30.0737 63.9991 30.256 64.8274 30.1841 65.1168C30.1121 65.4062 29.3542 65.6541 29.2487 66.0522C29.1431 66.4504 29.2103 67.2371 29.1383 67.381C29.0664 67.5249 28.7785 68.9656 28.9001 69.3254Z" fill="#4183E4"/>
<path opacity="0.1" d="M22.7007 61.0297C23.7145 62.0723 25.3678 62.0755 26.6886 61.5462C28.0094 61.0169 29.1303 60.0511 30.3567 59.3076C31.1562 58.8279 31.9941 58.4234 32.7776 57.9229C32.8927 57.8477 33.0047 57.7726 33.1134 57.6958C34.0184 57.0562 34.8004 56.2359 35.7358 55.6491C36.3627 55.2343 37.092 55.0008 37.8433 54.9743C38.1899 54.9708 38.5331 55.0428 38.849 55.1854C38.9042 55.2094 38.9576 55.2371 39.0089 55.2685C39.3164 55.4465 39.601 55.6613 39.8564 55.9081C40.1202 56.1464 40.3745 56.4006 40.6559 56.6213C40.6735 56.5445 40.6847 56.4614 40.6991 56.383C40.7163 56.2772 40.727 56.1704 40.7311 56.0632C40.9421 56.084 41.1548 56.0952 41.3707 56.0952C42.0593 56.0916 42.7423 55.9705 43.3902 55.737C43.3902 55.7114 43.3998 55.6843 43.4046 55.6587C43.6349 54.4498 44.0442 53.169 45.0228 52.4895C45.5872 52.0945 46.4891 51.9346 47.2694 51.634C47.5401 50.6912 47.581 49.6973 47.3886 48.7355C47.1963 47.7737 46.7764 46.872 46.164 46.1058C45.5516 45.3396 44.7645 44.7313 43.8687 44.3318C42.9729 43.9323 41.9945 43.7531 41.0152 43.8094C40.036 43.8657 39.0845 44.1558 38.2404 44.6554C37.3963 45.1549 36.6842 45.8494 36.1636 46.6807C35.643 47.512 35.3292 48.456 35.2484 49.4335C35.1675 50.411 35.3221 51.3936 35.699 52.2992C34.7076 52.1697 33.3005 52.2992 31.3817 53.1083C26.8725 55.0271 25.8172 55.123 25.8172 55.123L23.5626 58.0972C23.8072 58.4713 24.0838 58.8407 24.1094 59.2772C24.1606 60.0863 23.3803 60.6444 22.7007 61.0297Z" fill="black"/>
<path d="M45.0308 51.9154C44.057 52.5966 43.6429 53.8758 43.4126 55.083C43.3407 55.4604 43.2719 55.8586 43.0416 56.1576C42.5252 56.8276 41.4858 56.6373 40.811 56.1576C40.1362 55.6779 39.6054 54.9487 38.8522 54.6081C37.8513 54.1572 36.676 54.4866 35.7406 55.0734C34.8052 55.6603 34.0217 56.4806 33.1166 57.1186C32.242 57.7358 31.2666 58.1755 30.3551 58.7304C29.1303 59.4771 28.011 60.4413 26.6886 60.969C25.3662 61.4966 23.7145 61.4966 22.7023 60.4541C23.3819 60.0767 24.1622 59.5187 24.1094 58.7112C24.0567 57.9037 23.1148 57.2977 23.1788 56.4726C23.2428 55.6475 24.2166 55.3181 24.9153 54.9119C26.3784 54.0613 26.994 52.1936 27.3138 50.4667C27.5569 49.1188 27.7568 47.6109 28.7657 46.7458C29.4149 46.1878 30.296 46.0055 30.95 45.4538C31.5704 44.9294 31.9094 44.1347 32.3059 43.4039C32.9567 42.1839 33.8106 41.0518 34.9411 40.3226C36.0716 39.5935 37.5091 39.3121 38.7499 39.803C39.2296 39.99 39.6581 40.2827 40.1283 40.4857C41.2955 40.991 42.6339 40.9239 43.7916 41.4547C45.2163 42.1103 46.1421 43.559 46.9896 44.9342C47.7139 46.1094 49.1307 48.1897 48.7341 49.7088C48.3296 51.2582 46.0877 51.1751 45.0308 51.9154Z" fill="#7C5C5C"/>
<g opacity="0.1">
<path opacity="0.1" d="M23.1789 56.3718C23.1841 56.3085 23.1953 56.2459 23.2125 56.1848C23.4699 56.5909 23.7913 56.9843 23.8217 57.464C23.829 57.574 23.8199 57.6845 23.7945 57.7918C23.5083 57.3312 23.1389 56.9011 23.1789 56.3718Z" fill="black"/>
<path opacity="0.1" d="M26.4009 59.7201C27.7232 59.1893 28.8425 58.2251 30.0674 57.4815C30.9788 56.9267 31.9542 56.4869 32.8289 55.8697C33.7339 55.2301 34.5174 54.4098 35.4528 53.8246C36.3882 53.2394 37.5635 52.9084 38.5645 53.3593C39.3176 53.6999 39.8437 54.421 40.5233 54.9087C41.2028 55.3964 42.2374 55.5867 42.7539 54.9167C42.9857 54.6177 43.0529 54.2212 43.1248 53.8438C43.3551 52.6349 43.7645 51.3557 44.743 50.6746C45.8016 49.9358 48.0418 50.019 48.4479 48.4599C48.5156 48.1834 48.5335 47.8969 48.5007 47.6141C48.7613 48.3064 48.8941 49.0036 48.7374 49.6112C48.3296 51.1703 46.0894 51.0871 45.0309 51.8259C44.0587 52.507 43.6429 53.7862 43.4127 54.9951C43.3407 55.3724 43.2736 55.7706 43.0433 56.068C42.5252 56.738 41.4859 56.5477 40.8047 56.06C40.1235 55.5723 39.599 54.8512 38.8459 54.5106C37.8449 54.0597 36.6697 54.3907 35.7343 54.9759C34.7988 55.5611 34.0153 56.383 33.1103 57.021C32.2356 57.6398 31.2602 58.078 30.3488 58.6328C29.124 59.3811 28.0047 60.3437 26.6823 60.8714C25.3599 61.3991 23.7081 61.3975 22.696 60.3549C22.9575 60.2133 23.2058 60.0485 23.4379 59.8624C24.3621 60.1998 25.4654 60.0943 26.4009 59.7201Z" fill="black"/>
</g>
<path d="M130.536 44.0228L123.98 37.4301C123.659 37.1014 123.275 36.8397 122.852 36.66C122.429 36.4803 121.975 36.3861 121.515 36.383C121.055 36.3799 120.6 36.4678 120.174 36.6418C119.749 36.8157 119.362 37.0722 119.036 37.3965L77.868 78.2159L60.4612 60.6732C59.8149 60.0176 58.9346 59.6456 58.014 59.639C57.0935 59.6324 56.2079 59.9918 55.5523 60.638L48.926 67.1939C48.2712 67.8479 47.9004 68.7336 47.8942 69.6591C47.8879 70.5846 48.2465 71.4752 48.8924 72.138L75.3272 98.7807C75.981 99.4357 76.8666 99.8067 77.792 99.8133C78.7175 99.8199 79.6083 99.4615 80.2713 98.8158L130.499 48.9653C130.828 48.6441 131.09 48.2611 131.269 47.8382C131.449 47.4154 131.544 46.9611 131.547 46.5017C131.55 46.0422 131.463 45.5866 131.289 45.1611C131.116 44.7357 130.86 44.3488 130.536 44.0228Z" fill="#4183E4"/>
</g>
<defs>
<linearGradient id="paint0_linear" x1="8712.65" y1="44380.5" x2="8712.65" y2="19563.4" gradientUnits="userSpaceOnUse">
<stop stop-color="#808080" stop-opacity="0.25"/>
<stop offset="0.54" stop-color="#808080" stop-opacity="0.12"/>
<stop offset="1" stop-color="#808080" stop-opacity="0.1"/>
</linearGradient>
<clipPath id="clip0">
<rect width="183.745" height="120.806" fill="white" transform="translate(0.127594 0.625732)"/>
</clipPath>
</defs>
</svg>
