<svg width="152" height="119" viewBox="0 0 152 119" fill="none" xmlns="http://www.w3.org/2000/svg">
<g clip-path="url(#clip0)">
<path opacity="0.1" d="M47.4857 118.141C65.4241 118.141 79.966 115.937 79.966 113.218C79.966 110.499 65.4241 108.295 47.4857 108.295C29.5473 108.295 15.0054 110.499 15.0054 113.218C15.0054 115.937 29.5473 118.141 47.4857 118.141Z" fill="#4183E4"/>
<path opacity="0.1" d="M46.9595 6.01971C52.1112 1.47931 60.1991 0.549344 67.5622 0.915859C90.6855 2.0537 111.556 13.0861 129.615 25.5681C136.152 30.088 142.588 34.9566 146.831 41.1805C155.468 53.8472 152.906 71.3961 140.895 81.8309C136.809 85.3866 131.856 88.104 126.771 90.5164C117.728 94.8066 107.972 98.2502 97.7095 99.2307C90.3915 99.9296 82.9832 99.3607 75.7076 98.3856C55.3797 95.6613 35.4265 89.633 18.7036 79.3254C11.3692 74.8096 4.45604 69.1834 1.43229 61.8681C-1.59146 54.5528 0.338215 45.2833 7.83399 40.9549C10.9316 39.1633 14.635 38.3564 18.2605 37.5947C23.5941 36.4774 29.0207 35.3751 33.8374 33.1035C38.8113 30.7554 44.7016 26.2163 43.7169 21.0222C42.6597 15.4465 41.8091 10.5519 46.9595 6.01971Z" fill="#4183E4"/>
<path d="M125.999 12.9434C126.924 19.0374 124.351 24.4818 124.351 24.4818C124.351 24.4818 120.28 20.0467 119.353 13.9527C118.834 10.5337 119.416 7.32264 120.026 5.15911C120.102 4.87814 120.259 4.62555 120.477 4.43202C120.695 4.23849 120.964 4.11234 121.252 4.06889C121.54 4.02544 121.835 4.06657 122.1 4.18727C122.365 4.30797 122.589 4.50305 122.746 4.74883C123.972 6.63064 125.481 9.52583 125.999 12.9434Z" fill="#4183E4"/>
<path d="M143.19 22.6561C144.106 22.6518 145.018 22.7672 145.905 22.9993C147.397 23.3823 147.42 25.4952 145.936 25.9109C145.055 26.1619 144.145 26.297 143.229 26.313C139.875 26.3499 137.135 24.5502 137.135 24.5502C137.135 24.5502 139.835 22.693 143.19 22.6561Z" fill="#4183E4"/>
<path d="M133.756 13.392C130.634 16.8233 129.973 21.3076 129.973 21.3076C129.973 21.3076 134.374 20.2272 137.495 16.7946C138.942 15.2041 139.861 13.3879 140.43 11.8972C140.538 11.615 140.558 11.307 140.488 11.0131C140.418 10.7192 140.262 10.4531 140.039 10.2495C139.816 10.0459 139.536 9.91411 139.237 9.87139C138.938 9.82866 138.633 9.87695 138.362 10.01C136.923 10.717 135.203 11.8015 133.756 13.392Z" fill="#4183E4"/>
<path d="M137.6 12.7451H72.7219C71.2264 12.7451 70.014 13.9575 70.014 15.453V94.6872C70.014 96.1827 71.2264 97.395 72.7219 97.395H137.6C139.096 97.395 140.308 96.1827 140.308 94.6872V15.453C140.308 13.9575 139.096 12.7451 137.6 12.7451Z" fill="#464353"/>
<path opacity="0.1" d="M134.244 21.2844H76.0779V88.8558H134.244V21.2844Z" fill="#4183E4"/>
<path d="M105.161 95.7867C106.528 95.7867 107.636 94.6785 107.636 93.3114C107.636 91.9443 106.528 90.8361 105.161 90.8361C103.794 90.8361 102.686 91.9443 102.686 93.3114C102.686 94.6785 103.794 95.7867 105.161 95.7867Z" fill="white"/>
<path d="M105.161 18.8651C104.93 18.8651 104.704 18.7966 104.512 18.6681C104.319 18.5396 104.169 18.357 104.081 18.1433C103.992 17.9297 103.969 17.6945 104.014 17.4677C104.059 17.2409 104.171 17.0326 104.334 16.869C104.498 16.7055 104.706 16.5941 104.933 16.549C105.16 16.5039 105.395 16.5271 105.609 16.6156C105.822 16.7041 106.005 16.8539 106.133 17.0462C106.262 17.2385 106.33 17.4646 106.33 17.6958C106.33 18.0057 106.206 18.3027 105.987 18.5219C105.768 18.741 105.471 18.8644 105.161 18.8651Z" fill="white"/>
<path d="M105.161 16.5949C105.379 16.5949 105.592 16.6595 105.773 16.7804C105.954 16.9014 106.095 17.0734 106.178 17.2745C106.262 17.4757 106.283 17.697 106.241 17.9106C106.198 18.1242 106.094 18.3203 105.94 18.4743C105.786 18.6282 105.589 18.7331 105.376 18.7756C105.162 18.8181 104.941 18.7963 104.74 18.7129C104.539 18.6296 104.367 18.4885 104.246 18.3075C104.125 18.1264 104.06 17.9136 104.06 17.6958C104.061 17.4039 104.177 17.1241 104.383 16.9178C104.589 16.7114 104.869 16.5953 105.161 16.5949ZM105.161 16.4581C104.916 16.4568 104.676 16.5282 104.472 16.6634C104.267 16.7986 104.108 16.9914 104.013 17.2174C103.918 17.4435 103.893 17.6925 103.94 17.9331C103.987 18.1736 104.104 18.3948 104.277 18.5685C104.45 18.7423 104.67 18.8609 104.91 18.9092C105.151 18.9575 105.4 18.9334 105.626 18.8399C105.853 18.7464 106.047 18.5878 106.183 18.3841C106.319 18.1805 106.392 17.9409 106.392 17.6958C106.393 17.5336 106.362 17.3728 106.3 17.2227C106.239 17.0726 106.148 16.9361 106.034 16.8211C105.92 16.706 105.784 16.6148 105.634 16.5525C105.484 16.4902 105.323 16.4581 105.161 16.4581Z" fill="white"/>
<path d="M90.2557 42.2167H79.3683C79.0436 42.2167 78.7803 42.48 78.7803 42.8048V58.0288C78.7803 58.3536 79.0436 58.6169 79.3683 58.6169H90.2557C90.5805 58.6169 90.8438 58.3536 90.8438 58.0288V42.8048C90.8438 42.48 90.5805 42.2167 90.2557 42.2167Z" fill="white" stroke="white" stroke-width="0.136759" stroke-miterlimit="10"/>
<path opacity="0.5" d="M88.7364 46.3496H80.8878C80.3485 46.3496 79.9113 46.7868 79.9113 47.3261V50.5768C79.9113 51.1161 80.3485 51.5533 80.8878 51.5533H88.7364C89.2757 51.5533 89.7129 51.1161 89.7129 50.5768V47.3261C89.7129 46.7868 89.2757 46.3496 88.7364 46.3496Z" fill="#4183E4"/>
<path d="M87.4359 53.6758H82.1884C82.0608 53.6758 81.9573 53.7793 81.9573 53.9069V54.2529C81.9573 54.3806 82.0608 54.484 82.1884 54.484H87.4359C87.5635 54.484 87.667 54.3806 87.667 54.2529V53.9069C87.667 53.7793 87.5635 53.6758 87.4359 53.6758Z" fill="#4183E4"/>
<path d="M110.651 42.2167H99.7632C99.4385 42.2167 99.1752 42.48 99.1752 42.8048V58.0288C99.1752 58.3536 99.4385 58.6169 99.7632 58.6169H110.651C110.975 58.6169 111.239 58.3536 111.239 58.0288V42.8048C111.239 42.48 110.975 42.2167 110.651 42.2167Z" fill="white" stroke="white" stroke-width="0.136759" stroke-miterlimit="10"/>
<path opacity="0.5" d="M107.929 44.7783H102.548C102.437 44.7783 102.348 44.8677 102.348 44.9779V47.6475C102.348 47.7577 102.437 47.8471 102.548 47.8471H107.929C108.039 47.8471 108.129 47.7577 108.129 47.6475V44.9779C108.129 44.8677 108.039 44.7783 107.929 44.7783Z" fill="#4183E4"/>
<path d="M108.651 50.7232H101.734C101.606 50.7232 101.503 50.8267 101.503 50.9543V51.3003C101.503 51.428 101.606 51.5315 101.734 51.5315H108.651C108.779 51.5315 108.882 51.428 108.882 51.3003V50.9543C108.882 50.8267 108.779 50.7232 108.651 50.7232Z" fill="#4183E4"/>
<path d="M108.651 52.2303H101.734C101.606 52.2303 101.503 52.3338 101.503 52.4614V52.8074C101.503 52.9351 101.606 53.0385 101.734 53.0385H108.651C108.779 53.0385 108.882 52.9351 108.882 52.8074V52.4614C108.882 52.3338 108.779 52.2303 108.651 52.2303Z" fill="#4183E4"/>
<path d="M130.954 30.5662H120.067C119.742 30.5662 119.478 30.8295 119.478 31.1543V46.3783C119.478 46.7031 119.742 46.9664 120.067 46.9664H130.954C131.279 46.9664 131.542 46.7031 131.542 46.3783V31.1543C131.542 30.8295 131.279 30.5662 130.954 30.5662Z" fill="white" stroke="white" stroke-width="0.136759" stroke-miterlimit="10"/>
<path opacity="0.5" d="M129.238 33.1113H121.783C121.673 33.1113 121.583 33.2007 121.583 33.311V36.5768C121.583 36.6871 121.673 36.7765 121.783 36.7765H129.238C129.348 36.7765 129.437 36.6871 129.437 36.5768V33.311C129.437 33.2007 129.348 33.1113 129.238 33.1113Z" fill="#4183E4"/>
<path opacity="0.5" d="M129.238 38.4381H121.783C121.673 38.4381 121.583 38.5275 121.583 38.6378V41.9036C121.583 42.0139 121.673 42.1033 121.783 42.1033H129.238C129.348 42.1033 129.437 42.0139 129.437 41.9036V38.6378C129.437 38.5275 129.348 38.4381 129.238 38.4381Z" fill="#4183E4"/>
<path d="M123.008 45.0573H121.479C121.19 45.0573 120.956 45.2918 120.956 45.581V45.6645C120.956 45.9537 121.19 46.1882 121.479 46.1882H123.008C123.298 46.1882 123.532 45.9537 123.532 45.6645V45.581C123.532 45.2918 123.298 45.0573 123.008 45.0573Z" fill="#4183E4"/>
<path d="M126.275 45.0573H124.746C124.457 45.0573 124.223 45.2918 124.223 45.581V45.6645C124.223 45.9537 124.457 46.1882 124.746 46.1882H126.275C126.565 46.1882 126.799 45.9537 126.799 45.6645V45.581C126.799 45.2918 126.565 45.0573 126.275 45.0573Z" fill="#4183E4"/>
<path d="M129.543 45.0573H128.014C127.724 45.0573 127.49 45.2918 127.49 45.581V45.6645C127.49 45.9537 127.724 46.1882 128.014 46.1882H129.543C129.832 46.1882 130.066 45.9537 130.066 45.6645V45.581C130.066 45.2918 129.832 45.0573 129.543 45.0573Z" fill="#4183E4"/>
<path d="M130.925 53.8672H120.038C119.713 53.8672 119.45 54.1305 119.45 54.4553V69.6794C119.45 70.0041 119.713 70.2674 120.038 70.2674H130.925C131.25 70.2674 131.513 70.0041 131.513 69.6794V54.4553C131.513 54.1305 131.25 53.8672 130.925 53.8672Z" fill="white" stroke="white" stroke-width="0.136759" stroke-miterlimit="10"/>
<path opacity="0.5" d="M123.786 55.7847H120.581C120.471 55.7847 120.381 55.8741 120.381 55.9843V59.2501C120.381 59.3604 120.471 59.4498 120.581 59.4498H123.786C123.897 59.4498 123.986 59.3604 123.986 59.2501V55.9843C123.986 55.8741 123.897 55.7847 123.786 55.7847Z" fill="#4183E4"/>
<path d="M128.941 61.6817H122.024C121.896 61.6817 121.792 61.7852 121.792 61.9128V62.2588C121.792 62.3865 121.896 62.4899 122.024 62.4899H128.941C129.069 62.4899 129.172 62.3865 129.172 62.2588V61.9128C129.172 61.7852 129.069 61.6817 128.941 61.6817Z" fill="#4183E4"/>
<path d="M128.941 63.316H122.024C121.896 63.316 121.792 63.4195 121.792 63.5471V63.8931C121.792 64.0207 121.896 64.1242 122.024 64.1242H128.941C129.069 64.1242 129.172 64.0207 129.172 63.8931V63.5471C129.172 63.4195 129.069 63.316 128.941 63.316Z" fill="#4183E4"/>
<path d="M128.941 64.9503H122.024C121.896 64.9503 121.792 65.0537 121.792 65.1814V65.5274C121.792 65.655 121.896 65.7585 122.024 65.7585H128.941C129.069 65.7585 129.172 65.655 129.172 65.5274V65.1814C129.172 65.0537 129.069 64.9503 128.941 64.9503Z" fill="#4183E4"/>
<path d="M97.7844 50.0257L97.5997 50.1146L96.1036 50.8339L95.9668 50.8982C95.9577 50.9025 95.9478 50.9048 95.9378 50.9051C95.9277 50.9054 95.9177 50.9036 95.9084 50.8999C95.899 50.8962 95.8905 50.8906 95.8834 50.8835C95.8763 50.8764 95.8707 50.8679 95.867 50.8585C95.8654 50.8495 95.8654 50.8403 95.867 50.8312V50.4059C95.867 50.3867 95.8594 50.3682 95.8458 50.3546C95.8322 50.341 95.8137 50.3334 95.7945 50.3334H92.1581C92.1387 50.3334 92.1202 50.3258 92.1063 50.3123C92.0925 50.2987 92.0846 50.2803 92.0842 50.2609V49.6605C92.0846 49.6412 92.0925 49.6228 92.1063 49.6092C92.1202 49.5956 92.1387 49.5881 92.1581 49.5881H95.7986C95.818 49.5877 95.8364 49.5798 95.85 49.566C95.8635 49.5521 95.8711 49.5336 95.8711 49.5142V49.0793C95.8697 49.0703 95.8697 49.061 95.8711 49.052C95.8749 49.0427 95.8806 49.0344 95.8878 49.0274C95.895 49.0204 95.9035 49.015 95.9128 49.0114C95.9221 49.0079 95.9321 49.0062 95.9421 49.0066C95.9521 49.007 95.9619 49.0094 95.9709 49.0137L96.1077 49.0779L97.5997 49.8041L97.7844 49.8944C97.7968 49.9002 97.8074 49.9095 97.8148 49.9211C97.8222 49.9328 97.8261 49.9463 97.8261 49.96C97.8261 49.9738 97.8222 49.9873 97.8148 49.9989C97.8074 50.0106 97.7968 50.0198 97.7844 50.0257Z" fill="white" stroke="white" stroke-width="0.136759" stroke-miterlimit="10"/>
<path d="M118.029 46.3373L117.908 46.5028L116.929 47.8375L116.843 47.9565C116.837 47.9644 116.829 47.971 116.821 47.9759C116.812 47.9808 116.802 47.9839 116.792 47.9851C116.782 47.9862 116.772 47.9854 116.763 47.9826C116.753 47.9798 116.744 47.9751 116.736 47.9688C116.73 47.9628 116.724 47.9553 116.72 47.9469L116.52 47.5722C116.511 47.555 116.495 47.5421 116.477 47.5363C116.458 47.5304 116.438 47.532 116.421 47.5408L113.207 49.2516C113.198 49.2561 113.189 49.259 113.18 49.2599C113.17 49.2608 113.16 49.2599 113.151 49.2571C113.142 49.2543 113.134 49.2497 113.126 49.2436C113.119 49.2375 113.113 49.23 113.108 49.2215L112.827 48.6895C112.822 48.6811 112.819 48.6719 112.818 48.6623C112.817 48.6528 112.818 48.6432 112.821 48.634C112.824 48.6249 112.828 48.6164 112.835 48.609C112.841 48.6016 112.848 48.5955 112.857 48.5911L116.07 46.8829C116.079 46.8785 116.086 46.8724 116.093 46.865C116.099 46.8576 116.103 46.8491 116.106 46.84C116.109 46.8308 116.11 46.8212 116.109 46.8117C116.108 46.8022 116.105 46.7929 116.101 46.7845L115.897 46.4002C115.892 46.3925 115.889 46.3835 115.889 46.3742C115.887 46.3642 115.888 46.354 115.891 46.3444C115.894 46.3347 115.899 46.3258 115.905 46.3181C115.912 46.3105 115.92 46.3043 115.929 46.3001C115.938 46.2959 115.948 46.2936 115.958 46.2935H116.105L117.762 46.2333L117.967 46.2265C117.98 46.2265 117.993 46.23 118.004 46.2365C118.015 46.2431 118.024 46.2525 118.031 46.2638C118.037 46.2751 118.04 46.2879 118.04 46.3008C118.039 46.3137 118.036 46.3263 118.029 46.3373Z" fill="white" stroke="white" stroke-width="0.136759" stroke-miterlimit="10"/>
<path d="M118.018 53.3476H117.814H116.158H116.012C116.002 53.3476 115.992 53.3456 115.983 53.3416C115.973 53.3376 115.965 53.3318 115.958 53.3245C115.952 53.3172 115.946 53.3085 115.943 53.2991C115.94 53.2896 115.938 53.2796 115.939 53.2697C115.939 53.2606 115.942 53.2517 115.946 53.2437L116.129 52.8594C116.133 52.8508 116.136 52.8414 116.136 52.8319C116.137 52.8223 116.136 52.8127 116.132 52.8037C116.129 52.7947 116.124 52.7864 116.118 52.7793C116.111 52.7722 116.104 52.7664 116.095 52.7623L112.813 51.1868C112.795 51.1783 112.782 51.1631 112.775 51.1446C112.769 51.1262 112.77 51.1059 112.779 51.0884L113.038 50.5481C113.042 50.5394 113.048 50.5315 113.055 50.525C113.062 50.5185 113.071 50.5135 113.08 50.5103C113.089 50.5071 113.098 50.5057 113.108 50.5064C113.118 50.507 113.127 50.5096 113.136 50.514L116.418 52.0908C116.435 52.0989 116.456 52.0999 116.474 52.0935C116.492 52.0871 116.507 52.0739 116.516 52.0566L116.705 51.6641C116.71 51.6528 116.718 51.6431 116.728 51.6358C116.738 51.6285 116.75 51.6239 116.762 51.6225C116.774 51.6211 116.787 51.623 116.798 51.6279C116.809 51.6328 116.819 51.6405 116.827 51.6504L116.918 51.7639L117.948 53.0659L118.075 53.2273C118.085 53.2379 118.091 53.2511 118.093 53.2652C118.095 53.2793 118.092 53.2936 118.086 53.3064C118.08 53.3192 118.07 53.33 118.058 53.3373C118.046 53.3446 118.032 53.3482 118.018 53.3476Z" fill="white" stroke="white" stroke-width="0.136759" stroke-miterlimit="10"/>
<path d="M58.0791 83.8107L58.0681 84.2115L57.3707 108.838H56.1973L56.773 84.2115L56.784 83.7492L58.0791 83.8107Z" fill="#504F60"/>
<path opacity="0.1" d="M58.0791 83.8107L58.0681 84.2115L57.3707 108.838H56.1973L56.773 84.2115L56.784 83.7492L58.0791 83.8107Z" fill="black"/>
<path d="M64.8691 104.672L63.9911 104.669L50.9375 104.642L50.2427 104.641L50.612 103.499H64.7761L64.8691 104.672Z" fill="#504F60"/>
<path opacity="0.1" d="M58.0791 83.8107L58.0682 84.2115H56.7731L56.784 83.7492L58.0791 83.8107Z" fill="black"/>
<path d="M58.5742 83.209H56.3983V84.0268H58.5742V83.209Z" fill="#504F60"/>
<path opacity="0.1" d="M51.0537 103.499L50.9375 104.642L50.2427 104.641L50.612 103.499H51.0537Z" fill="black"/>
<path d="M52.9273 83.1939L52.8904 83.5481L49.9952 112.108L48.6686 112.046L51.7197 83.5481L51.7539 83.224L52.9273 83.1939Z" fill="#504F60"/>
<path opacity="0.1" d="M64.8692 104.672L63.9912 104.669L63.8722 103.499H64.7762L64.8692 104.672Z" fill="black"/>
<path d="M66.2586 112.046L64.9307 112.108L62.0355 83.5481L61.9999 83.1939L63.172 83.224L63.2062 83.5481L66.2586 112.046Z" fill="#504F60"/>
<path d="M71.9054 55.0338H42.6512V83.0845H71.9054V55.0338Z" fill="white"/>
<path d="M77.7915 55.0338H36.7993C36.4874 55.0338 36.2345 55.2867 36.2345 55.5986V82.5197C36.2345 82.8316 36.4874 83.0845 36.7993 83.0845H77.7915C78.1035 83.0845 78.3564 82.8316 78.3564 82.5197V55.5986C78.3564 55.2867 78.1035 55.0338 77.7915 55.0338Z" fill="white"/>
<path d="M57.8479 45.6535V52.4272H56.7073V45.6535C56.7073 45.5023 56.7674 45.3572 56.8744 45.2503C56.9813 45.1433 57.1264 45.0833 57.2776 45.0833C57.4289 45.0833 57.5739 45.1433 57.6809 45.2503C57.7878 45.3572 57.8479 45.5023 57.8479 45.6535Z" fill="#504F60"/>
<path opacity="0.1" d="M57.8493 51.8104H56.7073V52.4272H57.8493V51.8104Z" fill="black"/>
<path d="M58.2965 52.2727V54.51H56.2602V52.2727C56.2602 52.2001 56.289 52.1306 56.3403 52.0793C56.3916 52.028 56.4612 51.9991 56.5337 51.9991H58.0148C58.0514 51.998 58.0879 52.0043 58.122 52.0176C58.1561 52.0308 58.1873 52.0508 58.2135 52.0763C58.2398 52.1018 58.2607 52.1323 58.275 52.1661C58.2892 52.1998 58.2966 52.236 58.2965 52.2727Z" fill="#504F60"/>
<path opacity="0.1" d="M57.2777 53.8467C57.5164 53.8467 57.7098 53.6533 57.7098 53.4146C57.7098 53.1759 57.5164 52.9824 57.2777 52.9824C57.039 52.9824 56.8455 53.1759 56.8455 53.4146C56.8455 53.6533 57.039 53.8467 57.2777 53.8467Z" fill="black"/>
<path d="M57.2777 53.7538C57.5164 53.7538 57.7098 53.5603 57.7098 53.3216C57.7098 53.083 57.5164 52.8895 57.2777 52.8895C57.039 52.8895 56.8455 53.083 56.8455 53.3216C56.8455 53.5603 57.039 53.7538 57.2777 53.7538Z" fill="#3F3D56"/>
<path opacity="0.1" d="M58.2965 54.2324H56.2602V54.51H58.2965V54.2324Z" fill="black"/>
<path opacity="0.1" d="M59.1294 54.603H55.426V55.2198H59.1294V54.603Z" fill="black"/>
<path d="M59.1294 54.4171H55.426V55.0338H59.1294V54.4171Z" fill="#504F60"/>
<path opacity="0.1" d="M49.9336 82.3542H65.1932C65.4108 82.3542 65.6195 82.4407 65.7734 82.5946C65.9273 82.7485 66.0138 82.9572 66.0138 83.1748H49.1158C49.1158 82.9577 49.2019 82.7494 49.3551 82.5955C49.5084 82.4417 49.7165 82.355 49.9336 82.3542Z" fill="black"/>
<path opacity="0.1" d="M51.754 83.224L52.9274 83.1939L52.8904 83.5481H51.7198L51.754 83.224Z" fill="black"/>
<path opacity="0.1" d="M58.5742 83.209H56.3983V83.5481H58.5742V83.209Z" fill="black"/>
<path opacity="0.1" d="M63.2062 83.5481H62.0355L61.9999 83.1939L63.172 83.224L63.2062 83.5481Z" fill="black"/>
<path d="M49.9336 82.5457H65.1932C65.4108 82.5457 65.6195 82.6322 65.7734 82.786C65.9273 82.9399 66.0138 83.1486 66.0138 83.3663H49.1158C49.1158 83.1486 49.2022 82.9399 49.3561 82.786C49.51 82.6322 49.7187 82.5457 49.9363 82.5457H49.9336Z" fill="#504F60"/>
<path d="M70.8838 58.3284C70.9148 58.3235 70.9465 58.3259 70.9764 58.3353C71.0063 58.3447 71.0336 58.3609 71.0563 58.3826C71.0789 58.4043 71.0962 58.431 71.1069 58.4605C71.1175 58.4899 71.1212 58.5215 71.1177 58.5526C70.9194 60.4673 71.0466 62.4284 71.2613 64.3389C71.3611 65.2128 71.4965 66.1373 71.8835 66.7856C71.9082 66.8249 71.919 66.8713 71.914 66.9175C71.909 66.9636 71.8887 67.0068 71.8562 67.0399C71.7481 67.124 71.6125 67.1645 71.476 67.1534L65.3724 67.1876C65.3415 67.1879 65.3108 67.181 65.2829 67.1677C65.255 67.1543 65.2304 67.1348 65.2112 67.1105C65.1919 67.0863 65.1785 67.0579 65.1718 67.0277C65.1652 66.9974 65.1655 66.9661 65.1728 66.936C65.6637 64.8436 65.5584 62.5597 65.3615 60.3893C65.2644 59.3212 65.2083 58.7482 66.0056 58.673C66.8262 58.5991 67.6467 58.5649 68.4673 58.4966C68.6642 58.4802 70.2424 58.4337 70.8838 58.3284Z" fill="white" stroke="#3F4D65" stroke-width="0.410278" stroke-miterlimit="10"/>
<path d="M66.2136 70.8678C66.1826 70.863 66.1509 70.8653 66.121 70.8748C66.0911 70.8842 66.0638 70.9004 66.0411 70.9221C66.0185 70.9438 66.0012 70.9704 65.9905 70.9999C65.9799 71.0294 65.9762 71.0609 65.9797 71.0921C66.178 73.0067 66.0508 74.9678 65.8347 76.8784C65.7363 77.7523 65.6009 78.6767 65.2139 79.3264C65.189 79.3654 65.1782 79.4117 65.1832 79.4576C65.1882 79.5036 65.2086 79.5465 65.2412 79.5794C65.3493 79.6634 65.4849 79.7039 65.6214 79.6929L71.725 79.7284C71.7559 79.7282 71.7864 79.721 71.8142 79.7074C71.842 79.6938 71.8664 79.6741 71.8855 79.6499C71.9047 79.6256 71.9182 79.5973 71.9249 79.5671C71.9317 79.5369 71.9316 79.5056 71.9246 79.4754C71.4337 77.383 71.539 75.0991 71.7359 72.9288C71.833 71.8607 71.8891 71.2876 71.0918 71.2124C70.2945 71.1372 69.4507 71.1044 68.6301 71.036C68.4332 71.0196 66.855 70.9731 66.2136 70.8678Z" fill="white" stroke="#3F4D65" stroke-width="0.410278" stroke-miterlimit="10"/>
<path d="M68.0064 74.3907C68.7156 74.3577 69.4262 74.3663 70.1344 74.4167C70.1803 74.4212 70.2233 74.4412 70.2562 74.4736C70.289 74.506 70.3098 74.5487 70.3149 74.5945L70.3819 75.1539C70.3853 75.1664 70.3856 75.1795 70.3827 75.1921C70.3799 75.2048 70.3739 75.2165 70.3655 75.2263C70.3505 75.2371 70.3319 75.242 70.3135 75.24C70.0154 75.2482 69.7173 75.214 69.4205 75.24C69.2359 75.2551 69.0526 75.2906 68.8735 75.3111C68.5706 75.3378 68.2663 75.3433 67.9626 75.3276C67.5349 75.3349 67.1081 75.2825 66.6949 75.1716C66.6949 75.1716 66.7195 74.708 66.7195 74.6643C66.7195 74.4482 66.7127 74.429 66.9356 74.4236L68.0064 74.3907Z" stroke="#3F4D65" stroke-width="0.273519" stroke-miterlimit="10" stroke-linecap="round"/>
<path d="M68.0064 76.9126C68.7156 76.9459 69.4262 76.9368 70.1344 76.8852C70.1803 76.8808 70.2233 76.8607 70.2562 76.8284C70.289 76.796 70.3098 76.7533 70.3149 76.7074L70.3819 76.1495C70.3853 76.1367 70.3856 76.1234 70.3827 76.1105C70.3799 76.0977 70.374 76.0857 70.3655 76.0756C70.3505 76.0648 70.3319 76.06 70.3135 76.0619C70.0154 76.0537 69.7173 76.0893 69.4205 76.0619C69.2359 76.0483 69.0526 76.0127 68.8735 75.9922C68.5706 75.9648 68.2662 75.9594 67.9626 75.9758C67.5349 75.9684 67.1081 76.0209 66.6949 76.1317C66.6949 76.1317 66.7195 76.5939 66.7195 76.6391C66.7195 76.8551 66.7127 76.8729 66.9356 76.8798L68.0064 76.9126Z" stroke="#3F4D65" stroke-width="0.273519" stroke-miterlimit="10" stroke-linecap="round"/>
<path d="M68.0064 77.9C68.7156 77.8667 69.4262 77.8758 70.1344 77.9273C70.1803 77.9317 70.2233 77.9518 70.2562 77.9842C70.289 78.0166 70.3098 78.0593 70.3149 78.1051L70.3819 78.6631C70.3853 78.6758 70.3856 78.6892 70.3827 78.702C70.3799 78.7149 70.374 78.7269 70.3655 78.7369C70.3505 78.7477 70.3319 78.7526 70.3135 78.7506C70.0154 78.7588 69.7173 78.7233 69.4205 78.7506C69.2359 78.7643 69.0526 78.8012 68.8735 78.8217C68.5706 78.8479 68.2662 78.853 67.9626 78.8368C67.5349 78.8446 67.1082 78.7926 66.6949 78.6822C66.6949 78.6822 66.7195 78.2186 66.7195 78.1735C66.7195 77.9574 66.7127 77.9396 66.9356 77.9342L68.0064 77.9Z" stroke="#3F4D65" stroke-width="0.273519" stroke-miterlimit="10" stroke-linecap="round"/>
<path d="M68.9049 66.1948C68.9674 66.3451 68.9882 66.5095 68.965 66.6707C68.9653 66.6836 68.962 66.6964 68.9555 66.7076C68.9479 66.7149 68.9389 66.7205 68.929 66.7241C68.9191 66.7276 68.9085 66.729 68.898 66.7281L67.5988 66.7787C67.5988 66.7787 67.6713 66.3958 67.6809 66.3684C67.726 66.2125 67.8395 66.2536 67.9858 66.2454L68.9049 66.1948Z" fill="white" stroke="#3F4D65" stroke-width="0.273519" stroke-miterlimit="10" stroke-linecap="round"/>
<path d="M70.8674 66.1948C70.9294 66.3452 70.9498 66.5096 70.9262 66.6707C70.9269 66.6835 70.924 66.6963 70.918 66.7076C70.9103 66.7148 70.9013 66.7203 70.8914 66.7238C70.8815 66.7274 70.871 66.7288 70.8605 66.7281L69.5599 66.7787C69.5599 66.7787 69.6338 66.3958 69.6434 66.3684C69.6871 66.2125 69.8006 66.2536 69.9483 66.2454L70.8674 66.1948Z" fill="white" stroke="#3F4D65" stroke-width="0.273519" stroke-miterlimit="10" stroke-linecap="round"/>
<path d="M70.0838 59.6659L70.2588 61.1702C70.2647 61.2246 70.2596 61.2795 70.2439 61.3319C70.2282 61.3843 70.2022 61.433 70.1674 61.4751C70.1326 61.5173 70.0898 61.5521 70.0414 61.5775C69.993 61.6028 69.9399 61.6183 69.8855 61.6229C68.7755 61.7107 67.66 61.7033 66.5513 61.601C66.4527 61.5915 66.3609 61.5467 66.2928 61.4748C66.2247 61.4029 66.1848 61.3088 66.1807 61.2099C66.1599 60.9417 66.1206 60.6753 66.0631 60.4126C66.0179 60.1391 65.9687 59.8751 66.2915 59.7944C66.6142 59.7137 67.0559 59.7712 67.4088 59.7643C67.8318 59.7561 68.2535 59.7443 68.6738 59.7288C68.7914 59.7288 70.0838 59.659 70.0838 59.6659Z" stroke="#3F4D65" stroke-width="0.410278" stroke-miterlimit="10"/>
<path d="M70.0838 65.1007L70.2562 63.5963C70.262 63.542 70.2569 63.487 70.2412 63.4346C70.2255 63.3823 70.1995 63.3336 70.1647 63.2914C70.13 63.2492 70.0871 63.2144 70.0387 63.1891C69.9903 63.1637 69.9373 63.1483 69.8828 63.1436C68.7728 63.0561 67.6574 63.063 66.5486 63.1642C66.4498 63.1737 66.3578 63.2187 66.2897 63.2909C66.2215 63.363 66.1818 63.4575 66.178 63.5567C66.1572 63.8248 66.1179 64.0912 66.0604 64.354C66.0152 64.6275 65.966 64.8914 66.2888 64.9721C66.6115 65.0528 67.0532 64.9954 67.4061 65.0022C67.8287 65.0104 68.2499 65.0214 68.6711 65.0378C68.7915 65.0419 70.0838 65.1116 70.0838 65.1007Z" stroke="#3F4D65" stroke-width="0.410278" stroke-miterlimit="10"/>
<path d="M68.3264 71.8798C68.2809 72.3804 68.2521 72.8818 68.2403 73.3842C67.7383 73.38 67.2382 73.3227 66.7482 73.2132C66.7096 73.2114 66.6719 73.2012 66.6377 73.1832C66.6035 73.1652 66.5737 73.1399 66.5504 73.1091C66.527 73.0783 66.5107 73.0428 66.5026 73.005C66.4945 72.9672 66.4948 72.9281 66.5034 72.8905C66.4939 72.5787 66.3298 71.8826 66.7687 71.8388C66.9 71.8251 68.3251 71.9045 68.3264 71.8798Z" stroke="#3F4D65" stroke-width="0.273519" stroke-miterlimit="10" stroke-linecap="round"/>
<path d="M44.1789 65.0473C44.2432 65.0404 44.3083 65.0478 44.3694 65.0691C44.4305 65.0903 44.4861 65.125 44.5322 65.1704C44.5783 65.2158 44.6137 65.2709 44.6358 65.3317C44.658 65.3925 44.6663 65.4575 44.6603 65.5219C44.503 67.3422 44.6274 69.2062 44.8326 71.021C44.9242 71.8279 45.0459 72.6771 45.3687 73.3131C45.3968 73.3676 45.4104 73.4284 45.4082 73.4897C45.4061 73.551 45.3882 73.6108 45.3564 73.6632C45.3246 73.7156 45.2798 73.759 45.2264 73.7892C45.173 73.8193 45.1127 73.8353 45.0514 73.8355L38.9957 73.8711C38.9595 73.8713 38.9238 73.8634 38.8911 73.8479C38.8584 73.8324 38.8297 73.8098 38.8069 73.7817C38.7842 73.7536 38.7681 73.7207 38.7598 73.6855C38.7515 73.6503 38.7513 73.6137 38.7591 73.5784C39.2391 71.4969 39.1338 69.224 38.9382 67.0714C38.8398 66.0033 38.7851 65.4303 39.581 65.3551C40.4016 65.2826 41.2221 65.2484 42.0358 65.1786C42.2095 65.165 43.4513 65.1267 44.1789 65.0473Z" fill="white" stroke="#3F4D65" stroke-width="0.410278" stroke-miterlimit="10" stroke-linecap="round"/>
<path d="M52.6032 65.0131C52.5701 65.0081 52.5362 65.0107 52.5043 65.0209C52.4723 65.031 52.4432 65.0484 52.4191 65.0718C52.395 65.0951 52.3766 65.1236 52.3653 65.1552C52.3541 65.1868 52.3503 65.2205 52.3543 65.2538C52.5499 67.1589 52.4227 69.1173 52.208 71.021C52.1095 71.8949 51.9741 72.8153 51.5884 73.4649C51.5614 73.5108 51.5523 73.5652 51.5629 73.6174C51.5735 73.6697 51.6031 73.7162 51.6459 73.7479C51.7493 73.8135 51.8711 73.8442 51.9933 73.8355L58.0804 73.871C58.1138 73.8711 58.1468 73.8634 58.1768 73.8487C58.2068 73.834 58.233 73.8127 58.2535 73.7863C58.2739 73.7599 58.2881 73.7291 58.2948 73.6964C58.3016 73.6637 58.3007 73.6299 58.2924 73.5975C57.8069 71.5092 57.9108 69.2281 58.1078 67.0673C58.2049 65.9992 58.2609 65.4261 57.465 65.3509C56.6444 65.2784 55.8239 65.2443 55.0033 65.1745C54.8023 65.1622 53.2569 65.1171 52.6032 65.0131Z" fill="white" stroke="#3F4D65" stroke-width="0.410278" stroke-miterlimit="10"/>
<path d="M40.5533 66.2563L43.6496 70.3864" stroke="#3F4D65" stroke-width="0.273519" stroke-miterlimit="10" stroke-linecap="round"/>
<path d="M43.6495 65.9472L40.6559 70.5929" stroke="#3F4D65" stroke-width="0.273519" stroke-miterlimit="10" stroke-linecap="round"/>
<path d="M54.3701 66.4505L56.0564 68.7002" stroke="#3F4D65" stroke-width="0.273519" stroke-miterlimit="10" stroke-linecap="round"/>
<path d="M56.0564 66.2809L54.4263 68.8123" stroke="#3F4D65" stroke-width="0.273519" stroke-miterlimit="10" stroke-linecap="round"/>
<path d="M41.5764 71.7062C42.286 71.6731 42.997 71.6818 43.7057 71.7322C43.7514 71.7371 43.7942 71.7573 43.827 71.7896C43.8597 71.8219 43.8806 71.8643 43.8862 71.9099L43.9519 72.4693C43.9551 72.4819 43.9555 72.4952 43.9529 72.5079C43.9502 72.5207 43.9448 72.5328 43.9368 72.5431C43.9212 72.5526 43.9031 72.5573 43.8849 72.5568C43.5867 72.565 43.2872 72.5295 42.9905 72.5568C42.8058 72.5705 42.6239 72.6061 42.4434 72.6266C42.1406 72.6532 41.8362 72.6587 41.5326 72.643C41.1053 72.6504 40.679 72.598 40.2662 72.4871C40.258 72.4871 40.2908 72.0248 40.2908 71.9797C40.2908 71.7636 40.2826 71.7458 40.5055 71.739L41.5764 71.7062Z" stroke="#3F4D65" stroke-width="0.273519" stroke-miterlimit="10" stroke-linecap="round"/>
<path d="M54.5848 69.6411C55.2945 69.6078 56.0056 69.6169 56.7142 69.6684C56.7601 69.6728 56.8031 69.6929 56.836 69.7253C56.8688 69.7577 56.8896 69.8003 56.8947 69.8462L56.9603 70.4042C56.9636 70.4168 56.9639 70.43 56.9613 70.4428C56.9587 70.4556 56.9532 70.4677 56.9453 70.478C56.9302 70.4887 56.9117 70.4936 56.8933 70.4917C56.5952 70.4999 56.2957 70.4643 55.9989 70.4917C55.8143 70.5054 55.6324 70.5423 55.4519 70.5614C55.1491 70.5888 54.8447 70.5943 54.5411 70.5779C54.1133 70.5852 53.6866 70.5328 53.2733 70.4219C53.2665 70.4219 53.2979 69.9597 53.2979 69.9146C53.2979 69.6985 53.2911 69.6807 53.514 69.6739L54.5848 69.6411Z" stroke="#3F4D65" stroke-width="0.273519" stroke-miterlimit="10" stroke-linecap="round"/>
<path d="M55.6693 71.1906C54.9601 71.1575 54.2496 71.1662 53.5414 71.2165C53.4954 71.2209 53.4524 71.241 53.4196 71.2734C53.3867 71.3058 53.366 71.3485 53.3608 71.3943L53.2979 71.9523C53.294 71.9649 53.2933 71.9782 53.2959 71.9912C53.2986 72.0041 53.3044 72.0161 53.313 72.0261C53.328 72.037 53.3465 72.0418 53.3649 72.0398C53.6631 72.048 53.9612 72.0138 54.2594 72.0398C54.444 72.0535 54.6259 72.0904 54.8064 72.1109C55.1093 72.1369 55.4136 72.1424 55.7172 72.1273C56.145 72.1349 56.5717 72.0824 56.985 71.9714C56.9918 71.9714 56.9603 71.5078 56.9603 71.4641C56.9603 71.2466 56.9686 71.2288 56.7456 71.2234L55.6693 71.1906Z" stroke="#3F4D65" stroke-width="0.273519" stroke-miterlimit="10" stroke-linecap="round"/>
<path d="M46.8197 70.1785C46.8197 70.1785 48.8314 70.076 49.1925 70.1785" stroke="#3F4D65" stroke-width="0.410278" stroke-miterlimit="10"/>
<path d="M49.1951 69.0954C49.1951 69.0954 50.0718 69.972 50.0718 70.1785C50.0718 70.385 48.9366 71.1071 48.9366 71.1071" stroke="#3F4D65" stroke-width="0.410278" stroke-miterlimit="10"/>
<path d="M59.9773 68.3077C59.9773 68.3077 61.8003 67.4543 62.1736 67.4133" stroke="#3F4D65" stroke-width="0.410278" stroke-miterlimit="10"/>
<path d="M61.7661 66.4108C61.7661 66.4108 62.9081 66.8922 62.986 67.0823C63.064 67.2724 62.2858 68.3706 62.2858 68.3706" stroke="#3F4D65" stroke-width="0.410278" stroke-miterlimit="10"/>
<path d="M59.9581 70.4931C59.9581 70.4931 61.8112 71.2795 62.0916 71.5311" stroke="#3F4D65" stroke-width="0.410278" stroke-miterlimit="10"/>
<path d="M62.5647 70.556C62.5647 70.556 62.975 71.7281 62.8793 71.914C62.7835 72.1 61.4529 72.2532 61.4529 72.2532" stroke="#3F4D65" stroke-width="0.410278" stroke-miterlimit="10"/>
<path d="M67.1503 66.1948C67.2124 66.3452 67.2327 66.5096 67.2091 66.6707C67.2098 66.6835 67.207 66.6963 67.2009 66.7076C67.1933 66.7148 67.1842 66.7203 67.1743 66.7238C67.1644 66.7274 67.1539 66.7288 67.1435 66.7281L65.8429 66.7787C65.8429 66.7787 65.9168 66.3958 65.9263 66.3684C65.9701 66.2125 66.085 66.2536 66.2313 66.2454L67.1503 66.1948Z" fill="white" stroke="#3F4D65" stroke-width="0.273519" stroke-miterlimit="10" stroke-linecap="round"/>
<path d="M42.5814 77.9807L43.0409 77.5526L42.6307 77.5362L42.416 77.8658L42.5814 77.9807Z" fill="#3F4D65"/>
<path d="M39.276 80.9784L39.7629 80.3534L39.8709 80.2413L41.3616 78.6795L41.869 78.1489L42.1069 78.1202L42.4488 77.781L42.6498 77.9574L42.3175 78.3458L42.323 78.5496L41.8047 79.1117L40.3414 80.7008L40.247 80.802L39.6589 81.3463L39.276 80.9784Z" fill="#65617D"/>
<path d="M39.871 80.2413L41.3617 78.6795L41.8047 79.1117L40.3414 80.7008L39.871 80.2413Z" fill="#3F4D65"/>
<path d="M42.1206 80.843C41.6873 80.4398 41.3105 79.9797 41.0005 79.4754C40.3441 78.4525 39.2473 77.9 38.4951 77.6251V77.2928L38.5416 77.2832L38.5211 76.9741H38.5416L38.4883 76.1536V76.1467L38.2175 72.0754C38.2175 72.0754 37.2533 69.3607 38.9669 66.8567C40.6805 64.3526 39.0736 61.9511 37.4626 61.0116C37.4626 61.0116 36.7131 57.0456 37.3559 56.106C36.484 55.6042 35.5855 55.1499 34.6645 54.7453C34.6494 54.696 34.6371 54.6468 34.6248 54.5948C34.607 54.2256 34.5838 53.8563 34.5633 53.4871C34.5847 53.2952 34.6199 53.105 34.6686 52.9182C34.6891 52.8402 34.7123 52.7623 34.7369 52.6816C35.5028 52.3889 36.1626 51.8719 36.6298 51.1982C37.0971 50.5246 37.3501 49.7255 37.3559 48.9056C37.3562 48.4273 37.2701 47.9529 37.1015 47.5052C37.188 47.363 37.2538 47.2092 37.2971 47.0485C37.3996 46.6259 37.2834 46.1746 37.0427 45.7465C36.6133 44.8193 35.5425 43.9509 34.7657 43.6295C33.6524 43.1782 31.9771 43.2848 30.8174 43.4243C30.1665 43.5023 29.4238 43.7197 29.1886 44.316C29.1025 44.5348 29.1011 44.7769 29.0409 44.9998C28.7975 45.9106 27.7458 46.3346 27.0962 47.032C26.5218 47.6475 26.2756 48.4803 26.0842 49.2913C25.5509 51.6156 25.4237 54.0146 25.7081 56.3823C25.7737 56.9293 25.8613 57.4695 25.9543 58.0111C25.5631 58.5581 25.2103 59.525 25.3717 61.2044L24.0861 67.2574L23.5514 70.8063C23.5514 70.8063 23.23 72.2669 24.5087 73.5196C25.3293 74.3182 26.3208 75.6681 26.9321 76.542C26.6659 77.3157 26.5341 78.1293 26.5423 78.9475C26.556 79.3195 26.5765 79.6792 26.6025 80.0211C26.6567 80.7475 26.7943 81.4652 27.0128 82.16C27.1632 83.6179 27.46 85.4819 28.0412 86.6731L28.2546 93.0392C28.2546 93.0392 27.9332 98.8843 27.2972 100.032C26.6613 101.179 28.6881 110.886 28.6881 110.886V112.243L28.3462 113.247L28.26 113.182C26.6545 115.166 28.26 115.896 28.26 115.896C28.26 115.896 28.6977 115.916 29.3965 115.944C29.3372 116.222 29.3722 116.512 29.496 116.768C29.6198 117.024 29.8254 117.232 30.0803 117.358C30.0803 117.358 39.1789 117.775 40.7858 117.358C42.3927 116.941 41.9633 115.479 41.1058 115.58C40.779 115.621 40.2962 115.535 39.8244 115.413C40.3236 114.832 39.9242 114.045 39.2869 114.119C38.4308 114.223 36.5039 113.466 36.5039 113.466L36.4943 113.478C36.4328 113.454 36.3697 113.435 36.3056 113.42C35.5898 113.259 34.8827 113.062 34.1872 112.828C33.7769 111.949 32.8196 109.586 33.5034 107.753C33.8125 106.924 33.9137 105.822 33.9137 104.753C33.93 101.526 34.4047 98.3187 35.3236 95.226L36.6078 90.8497C36.6078 90.8497 38.4281 85.5257 38.5347 84.0651L38.5279 81.9398C40.0323 82.8972 41.2289 82.61 41.992 82.1628C42.1033 82.0971 42.1976 82.0061 42.267 81.8971C42.3365 81.7881 42.3793 81.6642 42.3918 81.5356C42.4043 81.4069 42.3863 81.2772 42.3392 81.1568C42.292 81.0365 42.2171 80.929 42.1206 80.843ZM27.8333 69.7655C27.8703 69.6124 27.9003 69.4455 27.9263 69.2691C28.178 69.2691 28.431 69.2691 28.6826 69.2609C28.9956 69.8967 29.1272 70.6065 29.0628 71.3123C28.4829 71.1331 27.6159 70.6941 27.8333 69.7724V69.7655Z" fill="url(#paint0_linear)"/>
<path d="M28.8508 111.736L28.4406 112.966L29.7794 114.305L34.2091 115.335L37.4024 115.026L37.1959 113.892C37.1345 113.649 37.0073 113.427 36.8283 113.251C36.6494 113.076 36.4254 112.952 36.1811 112.895C34.8682 112.586 32.3655 111.883 31.839 110.905L28.8508 111.736Z" fill="#DB8B8B"/>
<path opacity="0.1" d="M28.8508 111.736L28.4406 112.966L29.7794 114.305L34.2091 115.335L37.4024 115.026L37.1959 113.892C37.1345 113.649 37.0073 113.427 36.8283 113.251C36.6494 113.076 36.4254 112.952 36.1811 112.895C34.8682 112.586 32.3655 111.883 31.839 110.905L28.8508 111.736Z" fill="black"/>
<path d="M36.3712 114.717L35.753 113.896L36.3712 112.939C36.3712 112.939 38.2243 113.687 39.0489 113.585C39.8736 113.482 40.2798 114.923 38.7399 115.335C37.2 115.747 28.4392 115.335 28.4392 115.335C28.4392 115.335 26.8938 114.614 28.4392 112.657L29.778 113.687C29.778 113.687 32.0441 114.918 33.1779 114.717H36.3712Z" fill="#2E3037"/>
<path d="M39.1515 116.469L35.9582 116.778L31.5286 115.747L30.1856 114.408L30.295 114.081L30.4482 113.622L30.5986 113.172L33.5854 112.351C33.7371 112.598 33.9446 112.805 34.1913 112.957C35.1609 113.62 36.9046 114.1 37.9275 114.339C37.9699 114.35 38.0137 114.363 38.0547 114.378C38.2713 114.45 38.4661 114.575 38.6212 114.743C38.7764 114.91 38.8868 115.114 38.9423 115.335L39.1515 116.469Z" fill="#DB8B8B"/>
<path opacity="0.1" d="M39.1515 116.469L35.9582 116.778L31.5286 115.747L30.1856 114.408L30.295 114.081L31.5258 115.026C31.5258 115.026 33.7933 116.257 34.9257 116.056H38.1176L37.4995 115.235L38.0547 114.378C38.2713 114.45 38.4661 114.575 38.6212 114.743C38.7764 114.91 38.8868 115.114 38.9423 115.335L39.1515 116.469Z" fill="black"/>
<path d="M38.1177 116.16L37.4995 115.339L38.1177 114.382C38.1177 114.382 39.9721 115.13 40.7954 115.027C41.6187 114.925 42.0262 116.366 40.4877 116.779C38.9491 117.192 30.1856 116.779 30.1856 116.779C30.1856 116.779 28.6402 116.057 30.1856 114.1L31.5245 115.13C31.5245 115.13 33.792 116.361 34.9243 116.161L38.1177 116.16Z" fill="#2E3037"/>
<path d="M35.5466 56.4137C35.5466 56.4137 30.6027 56.9279 31.3234 54.8683C31.5255 54.2843 31.5777 53.6589 31.4752 53.0494C31.3472 52.2939 31.0488 51.5774 30.6027 50.9543L35.2375 51.675C34.9597 52.1392 34.7484 52.6401 34.6098 53.1629C34.0573 55.3497 35.5466 56.4137 35.5466 56.4137Z" fill="#DB8B8B"/>
<path d="M27.1003 79.8994C27.1003 79.8994 27.2029 84.329 28.2326 86.4926L28.4392 92.7753C28.4392 92.7753 28.1301 98.5452 27.5119 99.6775C26.8938 100.81 28.8508 110.391 28.8508 110.391V112.039C28.8508 112.039 32.1467 113.27 33.0739 111.833L32.1467 99.575L32.557 82.5785L27.1003 79.8994Z" fill="#35323E"/>
<path opacity="0.1" d="M27.0989 79.8994C27.0989 79.8994 27.2015 84.329 28.2313 86.4926L28.4378 92.7753C28.4378 92.7753 28.1287 98.5452 27.5106 99.6775C26.8924 100.81 28.8495 110.391 28.8495 110.391V112.039C28.8495 112.039 32.1454 113.27 33.0726 111.833L32.1454 99.575L32.5556 82.5785L27.0989 79.8994Z" fill="black"/>
<path d="M25.0394 65.6846L24.4213 67.3326L23.907 70.835C23.8374 71.3229 23.8852 71.8204 24.0465 72.2861C24.2078 72.7518 24.4778 73.1724 24.8343 73.5127C26.0651 74.7436 27.7185 77.3242 27.7185 77.3242L29.6755 71.4531C29.6755 71.4531 27.7185 71.1441 28.0344 69.8052C28.3503 68.4663 28.2396 65.9937 28.2396 65.9937L25.0394 65.6846Z" fill="#4183E4"/>
<path opacity="0.1" d="M34.1954 112.954C32.873 115.034 30.8175 113.855 30.4523 113.622L30.6028 113.172L33.5896 112.351C33.7416 112.597 33.9491 112.803 34.1954 112.954Z" fill="black"/>
<path d="M38.3283 83.9174C38.2244 85.3589 36.4738 90.6186 36.4738 90.6186L35.243 94.9416C34.3553 97.996 33.896 101.159 33.8782 104.34C33.8782 105.394 33.7811 106.483 33.4843 107.301C32.6637 109.567 34.3048 112.657 34.3048 112.657C32.8634 115.233 30.3908 113.478 30.3908 113.478V111.837C30.3908 111.837 28.4392 102.871 28.9548 101.12C29.4704 99.3698 29.6769 94.6298 29.6769 94.6298V86.0809C28.0256 84.436 27.0221 82.2513 26.8501 79.9268C26.8255 79.589 26.805 79.2348 26.7927 78.8669C26.7092 76.542 28.297 73.8177 28.9179 72.8495C29.0683 72.6143 29.1613 72.483 29.1613 72.483L38.2545 76.0907L38.275 76.0989V76.4504V77.2299L38.3283 83.9174Z" fill="#35323E"/>
<path opacity="0.1" d="M35.2375 51.675C34.9597 52.1392 34.7484 52.6401 34.6098 53.1629C34.1063 53.3549 33.5694 53.4437 33.031 53.4242C32.4925 53.4047 31.9635 53.2773 31.4752 53.0494C31.3472 52.2939 31.0488 51.5774 30.6027 50.9543L35.2375 51.675Z" fill="black"/>
<path d="M33.1779 53.2204C35.397 53.2204 37.1959 51.4215 37.1959 49.2024C37.1959 46.9834 35.397 45.1844 33.1779 45.1844C30.9588 45.1844 29.1599 46.9834 29.1599 49.2024C29.1599 51.4215 30.9588 53.2204 33.1779 53.2204Z" fill="#DB8B8B"/>
<path opacity="0.1" d="M38.3283 77.2217L38.2832 77.2299C33.9643 78.1175 28.5446 73.6167 28.5446 73.6167C28.6903 73.3717 28.8156 73.1151 28.9193 72.8495C29.0697 72.6143 29.1627 72.483 29.1627 72.483L38.2545 76.0907L38.2777 76.4504L38.3283 77.2217Z" fill="black"/>
<path d="M37.1945 56.3112C37.1945 56.3112 31.426 52.8088 29.5716 54.2502L26.9964 57.5461C26.9964 57.5461 25.3485 58.0617 25.6575 61.3576L24.4267 67.3326L28.1342 68.2598C28.1342 68.2598 30.2978 70.3194 28.5445 73.3076C28.5445 73.3076 34.0039 77.8398 38.331 76.9126L38.0192 72.0754C38.0192 72.0754 37.092 69.3963 38.7399 66.9251C40.3879 64.4538 38.8425 62.0838 37.2985 61.1566C37.2971 61.1525 36.5764 57.2371 37.1945 56.3112Z" fill="#4183E4"/>
<path d="M37.5036 77.3242C37.5036 77.3242 39.6672 77.7345 40.6969 79.3852C40.9942 79.8808 41.3572 80.3339 41.776 80.7323C41.869 80.8183 41.9408 80.9248 41.9858 81.0433C42.0308 81.1618 42.0477 81.2891 42.0353 81.4152C42.0228 81.5413 41.9813 81.6628 41.914 81.7702C41.8468 81.8776 41.7555 81.968 41.6474 82.0342C40.8269 82.5265 39.4976 82.8288 37.8182 81.4448C34.9284 79.0761 37.5036 77.3242 37.5036 77.3242Z" fill="#DB8B8B"/>
<path opacity="0.1" d="M34.3103 58.2627C34.3103 58.2627 32.2507 58.0562 31.7351 63.4131C31.2195 68.7699 30.3962 70.0049 30.3962 70.0049C30.3962 70.0049 29.8807 72.7865 31.117 74.4345C32.3533 76.0824 34.7219 79.5971 34.7219 79.5971C34.7219 79.5971 37.2985 80.3192 37.8127 77.7427L34.6194 71.769C34.6194 71.769 34.1052 69.7081 35.3401 68.2666C36.575 66.8252 37.5036 57.237 34.3103 58.2627Z" fill="black"/>
<path d="M34.5168 57.9591C34.5168 57.9591 32.4558 57.7526 31.9416 63.1095C31.4274 68.4663 30.6027 69.7013 30.6027 69.7013C30.6027 69.7013 30.0871 72.4857 31.3234 74.1268C32.5597 75.7679 34.9284 79.2772 34.9284 79.2772C34.9284 79.2772 37.5036 79.9993 38.0192 77.4241L34.8258 71.4491C34.8258 71.4491 34.3103 69.3881 35.5466 67.9467C36.7829 66.5052 37.7074 56.928 34.5168 57.9591Z" fill="#4183E4"/>
<path opacity="0.1" d="M36.2168 61.8185C36.2168 61.8185 36.4219 65.0118 35.4947 66.7637C34.5674 68.5156 34.5674 70.7803 35.4947 72.0166" fill="black"/>
<path opacity="0.1" d="M36.7309 57.9071C36.7309 57.9071 35.9103 57.0866 33.5376 56.9799C31.1648 56.8732 30.1391 56.1594 30.1391 56.1594" fill="black"/>
<path opacity="0.1" d="M31.0062 44.011C30.3799 44.0876 29.6646 44.3023 29.439 44.8918C29.3555 45.1078 29.3542 45.3458 29.2954 45.5756C29.0615 46.4754 28.0495 46.8939 27.4245 47.5818C26.8775 48.189 26.6299 49.0109 26.4508 49.811C25.9364 52.1051 25.8121 54.4694 26.0829 56.8049C26.2839 58.513 26.6942 60.1938 26.8105 61.9101C26.9267 63.6264 26.7147 65.4316 25.7766 66.8731C25.3663 67.494 24.8411 68.0383 24.5553 68.7207C25.1461 69.1993 25.9612 69.2677 26.7216 69.2937C27.6078 69.3238 28.494 69.3238 29.3802 69.2937C29.8451 69.2773 30.3306 69.2472 30.7313 69.012C31.0281 68.8223 31.2723 68.5607 31.4411 68.2516C31.9471 67.3914 32.0757 66.3575 32.0538 65.3592C32.0319 64.3608 31.8747 63.3693 31.8555 62.371C31.8459 61.8239 31.8883 61.2495 32.2015 60.8037C32.4272 60.4823 32.7704 60.2662 33.0645 60.005C34.1681 59.0286 34.5456 57.4613 34.5825 55.9884C34.6194 54.5155 34.3773 53.0399 34.5018 51.5724C34.5497 50.9967 34.7644 50.3074 35.3306 50.1953C35.5083 50.1597 35.6984 50.1953 35.868 50.1269C36.3221 49.9532 36.2783 49.3132 36.4069 48.8455C36.5532 48.3189 37.0018 47.9128 37.1276 47.3821C37.4243 46.1363 35.8379 44.647 34.8027 44.2148C33.7291 43.7662 32.1167 43.8743 31.0062 44.011Z" fill="black"/>
<path d="M30.8982 43.8059C30.2718 43.8825 29.5566 44.0972 29.3309 44.6853C29.2727 44.9105 29.227 45.1388 29.1941 45.3691C28.9603 46.2689 27.9469 46.6874 27.3219 47.3767C26.7749 47.9825 26.5273 48.8044 26.3482 49.6059C25.8362 51.9017 25.7141 54.2674 25.9871 56.6038C26.1882 58.3119 26.5984 59.9941 26.7133 61.709C26.8282 63.424 26.619 65.2306 25.6808 66.672C25.2705 67.2929 24.7454 67.8372 24.4595 68.5197C25.0503 68.9997 25.8654 69.0667 26.6258 69.0927C27.512 69.1228 28.3982 69.1228 29.2844 69.0927C29.7494 69.0763 30.2349 69.0476 30.6356 68.811C30.9326 68.6219 31.1764 68.3602 31.344 68.0506C31.8514 67.1904 31.9786 66.1565 31.958 65.1581C31.9375 64.1598 31.7775 63.1683 31.7597 62.1699C31.7502 61.6229 31.7926 61.0485 32.1044 60.604C32.3314 60.2813 32.6747 60.0652 32.9687 59.8054C34.071 58.8275 34.4498 57.2603 34.4867 55.7874C34.5236 54.3145 34.2802 52.8388 34.4047 51.3714C34.4539 50.797 34.6686 50.1064 35.2334 49.9956C35.4126 49.9601 35.6027 49.9956 35.7723 49.9259C36.2263 49.7522 36.1825 49.1135 36.3111 48.6444C36.4561 48.1179 36.9046 47.7131 37.0318 47.1825C37.3286 45.9352 35.7422 44.4473 34.7069 44.0138C33.6251 43.5625 32.0141 43.6678 30.8982 43.8059Z" fill="#35323E"/>
</g>
<defs>
<linearGradient id="paint0_linear" x1="32.9563" y1="117.549" x2="32.9563" y2="43.3095" gradientUnits="userSpaceOnUse">
<stop stop-color="#808080" stop-opacity="0.25"/>
<stop offset="0.54" stop-color="#808080" stop-opacity="0.12"/>
<stop offset="1" stop-color="#808080" stop-opacity="0.1"/>
</linearGradient>
<clipPath id="clip0">
<rect width="151.866" height="117.296" fill="white" transform="translate(0.0671387 0.845703)"/>
</clipPath>
</defs>
</svg>
