<svg width="186" height="114" viewBox="0 0 186 114" fill="none" xmlns="http://www.w3.org/2000/svg">
<path opacity="0.1" d="M173.398 94.1064C173.237 94.2238 173.089 94.338 172.932 94.449C172.35 94.8604 171.741 95.2317 171.109 95.5606C167.799 97.3059 163.718 98.1584 159.743 98.7375C150.828 100.037 141.727 100.29 132.664 100.537C108.177 101.21 83.6302 101.881 59.2024 100.332C49.551 99.7203 39.6872 98.6973 30.9414 95.5606C29.6878 95.1123 28.4588 94.6179 27.2545 94.0775C24.8175 92.982 22.4771 91.6485 20.5307 90.056C18.7017 88.5633 17.2186 86.8485 16.3323 84.8989C14.4841 80.8389 15.4621 76.2786 17.5725 72.299C18.449 70.689 19.4375 69.1426 20.5307 67.6711C22.1602 65.4304 23.9569 63.254 25.5961 61.0148C31.4288 53.0556 35.2347 42.9859 29.8508 34.8224C28.3033 32.4771 26.0674 30.4181 24.8063 27.9699C23.1977 24.838 23.3216 21.3603 23.8331 17.9822C23.8996 17.5533 23.9698 17.1286 24.0438 16.7083C24.9173 11.6992 26.5612 6.30239 31.6298 3.17532C36.8947 -0.0739987 44.3714 0.0900759 50.9054 1.24503C61.0667 3.0595 70.4399 6.83644 79.9128 10.2466C89.3857 13.6568 99.2961 16.7726 109.707 17.1072C118.9 17.4032 129.623 15.1882 135.724 9.43107C141.65 3.83966 152.789 3.41339 160.818 6.7914C166.329 9.10935 170.44 13.2852 172.174 17.9822C172.525 18.9252 172.778 19.902 172.929 20.897C173.068 21.8063 173.113 22.7275 173.064 23.646C173.04 24.0997 172.993 24.5484 172.929 24.9924C171.587 34.261 161.931 41.572 156.061 49.8513C153.193 53.8953 151.168 58.7532 153.14 63.114C156.148 69.759 166.608 72.122 172.925 77.0668C174.114 77.9667 175.161 79.0404 176.03 80.2518C179.094 84.6528 177.963 90.5965 173.398 94.1064Z" fill="#4183E4"/>
<path opacity="0.1" d="M55.2079 112.967C63.3496 112.967 69.9499 112.108 69.9499 111.048C69.9499 109.988 63.3496 109.129 55.2079 109.129C47.0661 109.129 40.4659 109.988 40.4659 111.048C40.4659 112.108 47.0661 112.967 55.2079 112.967Z" fill="#4183E4"/>
<path d="M145.082 77.6713V13.0183H19.3331V73.9623C20.9391 75.3026 22.8703 76.4301 24.8847 77.3567C25.8769 77.814 26.8903 78.2322 27.9248 78.6111H143.582L145.082 77.6713Z" fill="url(#paint0_linear)"/>
<path d="M144.839 77.6977V14.8688H19.6082V74.0984C21.2075 75.4017 23.1307 76.4975 25.1333 77.4029C26.122 77.8435 27.1318 78.2498 28.1628 78.6216H143.341L144.839 77.6977Z" fill="white"/>
<path d="M144.839 13.202H19.6095V16.525H144.839V13.202Z" fill="#5A5773"/>
<path d="M22.1101 15.7227C22.5846 15.7227 22.9693 15.3381 22.9693 14.8636C22.9693 14.3891 22.5846 14.0044 22.1101 14.0044C21.6356 14.0044 21.251 14.3891 21.251 14.8636C21.251 15.3381 21.6356 15.7227 22.1101 15.7227Z" fill="white"/>
<path d="M24.4234 15.7227C24.8979 15.7227 25.2826 15.3381 25.2826 14.8636C25.2826 14.3891 24.8979 14.0044 24.4234 14.0044C23.9489 14.0044 23.5643 14.3891 23.5643 14.8636C23.5643 15.3381 23.9489 15.7227 24.4234 15.7227Z" fill="white"/>
<path d="M26.7366 15.7227C27.2111 15.7227 27.5958 15.3381 27.5958 14.8636C27.5958 14.3891 27.2111 14.0044 26.7366 14.0044C26.2621 14.0044 25.8774 14.3891 25.8774 14.8636C25.8774 15.3381 26.2621 15.7227 26.7366 15.7227Z" fill="white"/>
<path d="M72.2973 23.828H51.6112V36.8265H72.2973V23.828Z" fill="#4183E4"/>
<path opacity="0.2" d="M43.6554 23.828H22.9693V36.8265H43.6554V23.828Z" fill="#5A5773"/>
<path opacity="0.2" d="M100.939 23.828H80.2532V36.8265H100.939V23.828Z" fill="#5A5773"/>
<path opacity="0.2" d="M43.6554 42.4111H22.9693V55.4097H43.6554V42.4111Z" fill="#5A5773"/>
<path opacity="0.2" d="M72.2973 42.4111H51.6112V55.4097H72.2973V42.4111Z" fill="#5A5773"/>
<path opacity="0.2" d="M100.939 42.4111H80.2532V55.4097H100.939V42.4111Z" fill="#5A5773"/>
<path opacity="0.2" d="M43.6554 60.9929H22.9693V73.9915H43.6554V60.9929Z" fill="#5A5773"/>
<path opacity="0.2" d="M72.2973 60.9929H51.6112V73.9915H72.2973V60.9929Z" fill="#5A5773"/>
<path opacity="0.2" d="M100.939 60.9929H80.2532V73.9915H100.939V60.9929Z" fill="#5A5773"/>
<path d="M67.2285 35.2139L65.8009 35.7188L65.2828 34.8596C64.8862 34.1987 64.3364 33.2946 63.9306 32.6377C63.2142 31.4824 64.1513 29.7218 64.1513 29.7218C64.1513 29.7218 64.3205 27.9546 64.9232 27.41C65.526 26.8654 65.6939 29.7218 65.6939 29.7218C68.1141 30.8215 66.8174 33.4083 66.8174 33.4083L67.0527 34.434L67.2285 35.2139Z" fill="#EFB7B9"/>
<path opacity="0.1" d="M67.2284 35.2139L65.8009 35.7189L65.2827 34.8597V34.7844C65.2827 34.7844 66.1009 34.2226 67.0552 34.4341L67.2284 35.2139Z" fill="black"/>
<path d="M64.9232 41.0033L65.6383 40.3979L65.2801 34.9495C65.2801 34.9495 67.1306 33.6832 68.5 35.6646C68.5 35.6646 68.4445 36.8754 68.5 37.2058C68.5555 37.5363 68.1153 37.8667 68.5 38.1958C68.8846 38.525 68.5 39.6273 68.5 39.6273C68.5 39.6273 68.9348 40.3979 69.2098 40.6174C69.4847 40.8368 69.761 42.6543 69.2098 43.0389C68.6586 43.4235 67.6249 44.3052 67.6249 44.6898C67.6249 45.0745 66.3031 46.0116 66.3031 46.0116L65.1426 44.477L64.9232 41.0033Z" fill="#4183E4"/>
<path d="M49.4582 74.0773C46.7908 72.9458 47.383 70.182 47.8852 68.7901C47.9856 68.5081 48.1035 68.2327 48.2382 67.9653L49.7344 67.0573C49.7344 67.0573 50.0398 67.8358 50.3662 68.88C51.1236 71.3095 51.9947 75.1546 49.4582 74.0773Z" fill="#EFB7B9"/>
<path d="M53.1249 99.2958C52.9443 99.6477 52.811 100.022 52.7283 100.409C52.5963 101.031 52.5386 101.667 52.5565 102.303C52.5671 102.743 52.6041 103.031 52.6041 103.031L49.6327 105.075C49.6327 105.075 49.6499 104.835 49.679 104.484C49.7556 103.548 49.9156 101.811 50.0662 101.586C50.1707 101.431 50.2434 100.804 50.2896 100.222C50.3359 99.6408 50.3544 99.1306 50.3544 99.1306C50.3544 99.1306 53.9298 97.7903 53.1249 99.2958Z" fill="#EFB7B9"/>
<path d="M60.1422 100.762C60.1422 100.762 60.1422 101.33 60.121 101.991C60.0999 102.652 60.0602 103.432 59.977 103.795C59.9003 104.128 59.895 104.74 59.9095 105.305C59.9294 105.966 59.977 106.56 59.977 106.56C59.977 106.56 56.9434 103.692 57.2527 103.465C57.336 103.404 57.418 103.159 57.4933 102.834C57.5858 102.438 57.6691 101.909 57.7312 101.46C57.8052 100.924 57.8515 100.493 57.8515 100.493L60.1422 100.762Z" fill="#EFB7B9"/>
<path opacity="0.1" d="M53.1248 99.2958C52.9442 99.6477 52.8109 100.022 52.7283 100.409C51.915 100.387 51.1032 100.325 50.2962 100.222C50.3411 99.654 50.3609 99.1306 50.3609 99.1306C50.3609 99.1306 53.9298 97.7903 53.1248 99.2958Z" fill="black"/>
<path opacity="0.1" d="M60.1423 100.762C60.1423 100.762 60.1423 101.33 60.1211 101.991C59.1747 102.233 58.2019 101.749 57.7313 101.462C57.8053 100.927 57.8516 100.496 57.8516 100.496L60.1423 100.762Z" fill="black"/>
<path d="M66.3534 72.6471C65.1426 75.2907 64.647 78.426 64.647 78.426L64.2068 81.0696C64.2068 81.0696 64.4275 82.2248 64.2068 82.665C63.9861 83.1051 63.5459 83.8216 63.5459 83.8216C63.5459 83.8216 63.8764 86.518 63.5459 86.793C63.2155 87.0679 63.5459 88.7188 63.5459 88.7188L62.4448 94.2704L60.9036 101.424C59.4179 102.636 57.4405 101.095 57.4405 101.095L57.8767 96.417C57.8767 96.417 58.5376 88.2218 58.2627 87.8861C57.9878 87.5503 58.3724 86.5101 58.3724 86.5101C58.3724 86.5101 58.7584 85.5188 58.4834 85.1341C58.2085 84.7495 58.5376 83.9233 58.5376 83.9233C58.5376 83.9233 58.4279 80.566 58.7584 79.7954C59.0888 79.0248 58.7584 74.2584 58.7584 74.2584L58.6262 72.774L58.5495 71.9518L58.5429 71.8712C58.5429 71.8712 58.4927 72.2003 58.4107 72.7105C58.1675 74.2637 57.6494 77.4822 57.4445 78.1445C57.3052 78.6217 57.116 79.0829 56.8801 79.5204C56.8801 79.5204 57.1656 81.1714 56.8801 81.6115C56.5946 82.0517 56.8365 82.5474 56.8365 82.5474C56.8365 82.5474 57.1114 83.9233 56.2853 84.4732C55.4592 85.0231 56.2853 85.2993 56.2853 85.2993C56.2853 85.2993 55.6799 86.6211 55.4605 87.1697C55.2411 87.7182 55.4605 88.4915 55.4605 88.4915L55.0203 92.9486C55.0203 92.9486 54.6344 94.8189 54.6899 96.0852C54.7454 97.3515 54.1942 100.267 54.1942 100.267C54.1942 100.267 49.9565 100.267 49.3036 99.7717C48.6506 99.276 50.394 94.4409 50.394 94.4409C50.394 94.4409 50.8897 85.9655 50.7787 85.7461C50.6676 85.5267 50.7787 83.8744 51.1646 83.5453C51.5506 83.2162 51.1646 82.554 51.1646 82.554C51.1646 82.554 51.0549 81.2322 51.1646 80.903C51.2744 80.5739 51.1475 79.4715 51.1475 79.4715C51.1475 79.4715 50.7787 76.7751 50.7245 75.2339C50.6703 73.6926 50.394 70.2269 50.394 70.2269C50.394 70.2269 50.6822 68.0829 50.7258 67.0625C50.7417 66.6871 50.9095 66.2179 51.1223 65.7764C51.3605 65.2779 51.6344 64.7973 51.9419 64.3383C51.9419 64.3383 64.9814 60.4839 65.5286 60.8673C65.674 60.969 65.8855 61.6603 66.0943 62.6609C66.6759 65.4565 67.2443 70.7041 66.3534 72.6471Z" fill="#3F4D65"/>
<path d="M58.3194 39.0114C60.4167 39.0114 62.1169 37.3112 62.1169 35.2139C62.1169 33.1166 60.4167 31.4164 58.3194 31.4164C56.2221 31.4164 54.5219 33.1166 54.5219 35.2139C54.5219 37.3112 56.2221 39.0114 58.3194 39.0114Z" fill="#A1616A"/>
<path opacity="0.1" d="M66.0943 62.6636C65.6568 62.8883 65.3633 63.0429 65.3633 63.0429C65.3633 63.0429 59.1998 65.9602 57.4471 65.7949C56.091 65.6627 52.6292 65.7381 51.121 65.7751C51.3592 65.2766 51.6331 64.796 51.9405 64.337C51.9405 64.337 64.9814 60.4839 65.5286 60.8673C65.674 60.9717 65.8855 61.6603 66.0943 62.6636Z" fill="black"/>
<path d="M55.6772 41.2783C55.6772 41.2783 52.1599 41.8335 51.3298 42.378C50.4998 42.9226 48.8554 43.9748 48.8554 46.2311C48.8554 48.4874 48.4708 50.7992 48.2501 51.4588C48.0293 52.1184 51.7171 57.4571 51.7171 57.4571L50.3953 65.5478C50.3953 65.5478 55.6825 65.3826 57.4432 65.5478C59.2038 65.713 65.3647 62.7958 65.3647 62.7958C65.3647 62.7958 68.997 60.87 69.7676 60.8131C70.5382 60.7563 68.2264 56.5755 68.2264 56.5755C68.2264 56.5755 64.6483 49.8079 65.2536 48.7068C65.859 47.6057 66.3032 46.0103 66.3032 46.0103L65.6423 40.398C65.6423 40.398 64.6522 40.0675 63.8261 40.6729C63 41.2783 60.1938 40.9479 60.1938 40.9479L55.6772 41.2783Z" fill="#4183E4"/>
<path opacity="0.1" d="M49.7067 51.0742L48.3267 51.4588L47.9447 56.6376C47.9447 56.6376 48.4404 58.0136 47.9447 58.4538C47.449 58.8939 47.3393 68.3051 47.3393 68.3051C47.3393 68.3051 48.9361 69.4604 50.8064 68.5801C50.8064 68.5801 50.5315 67.5345 51.3576 63.737C52.1837 59.9395 52.1824 58.0136 52.1824 58.0136C52.1824 58.0136 52.1824 53.2803 52.5683 52.5097C52.9543 51.7391 52.5683 49.8132 52.5683 49.8132C52.5683 49.8132 51.7977 48.7677 51.8519 48.383C51.9061 47.9984 49.7067 51.0742 49.7067 51.0742Z" fill="black"/>
<path opacity="0.1" d="M50.3663 68.884C49.5559 69.1569 48.6738 69.1249 47.8853 68.7942C47.9857 68.5121 48.1035 68.2367 48.2382 67.9694L49.7345 67.0613C49.7345 67.0613 50.0451 67.8398 50.3663 68.884Z" fill="black"/>
<path d="M49.6234 51.0741L48.2474 51.4587L47.8628 56.6375C47.8628 56.6375 48.3585 58.0135 47.8628 58.4536C47.3671 58.8938 47.2574 68.305 47.2574 68.305C47.2574 68.305 48.8555 69.4589 50.7245 68.5746C50.7245 68.5746 50.4496 67.5291 51.2744 63.7316C52.0992 59.9341 52.1005 58.0082 52.1005 58.0082C52.1005 58.0082 52.1005 53.2748 52.4851 52.5042C52.8698 51.7336 52.4851 49.8078 52.4851 49.8078C52.4851 49.8078 51.7145 48.7622 51.77 48.3776C51.8255 47.993 49.6234 51.0741 49.6234 51.0741Z" fill="#4183E4"/>
<path opacity="0.1" d="M63.7124 51.8989C63.7124 51.8989 62.9973 58.0625 60.9049 59.219C60.9049 59.219 65.5828 57.8986 63.7124 51.8989Z" fill="black"/>
<path opacity="0.1" d="M53.2015 52.4501C53.2015 52.4501 55.7869 53.715 55.1842 54.5953C54.5815 55.4757 53.2015 52.4501 53.2015 52.4501Z" fill="black"/>
<path opacity="0.1" d="M53.2015 54.9813C53.2015 54.9813 54.8524 56.6878 54.5233 57.2931C54.1942 57.8985 53.2015 54.9813 53.2015 54.9813Z" fill="black"/>
<path opacity="0.1" d="M66.5186 40.8381C66.5186 40.8381 67.1662 41.9379 67.2284 42.6543C67.2905 43.3707 66.5186 40.8381 66.5186 40.8381Z" fill="black"/>
<path opacity="0.1" d="M66.5186 39.3524C66.5186 39.3524 66.8437 39.0761 67.6738 39.3524C68.5039 39.6286 66.5186 39.3524 66.5186 39.3524Z" fill="black"/>
<path opacity="0.1" d="M63.3409 71.5183C61.9773 71.7118 60.5869 71.5337 59.316 71.0028L58.6221 72.7793L58.5454 71.9572C58.6591 71.2672 58.8799 70.5283 59.316 70.3419C59.316 70.3419 60.844 71.5593 63.3409 71.5183Z" fill="black"/>
<path opacity="0.1" d="M52.0516 73.8301C52.0516 73.8301 55.4367 74.532 56.3857 74.4078L52.0516 73.8301Z" fill="black"/>
<path opacity="0.1" d="M52.4031 74.7171C52.4031 74.7171 53.8478 74.655 54.5695 74.9444L52.4031 74.7171Z" fill="black"/>
<path opacity="0.1" d="M52.5684 75.3158C53.2276 75.4558 53.8967 75.5442 54.5696 75.5802L52.5684 75.3158Z" fill="black"/>
<path opacity="0.1" d="M52.4851 82.8897C52.5472 82.8487 55.3746 82.1878 55.7262 82.6624L52.4851 82.8897Z" fill="black"/>
<path opacity="0.1" d="M52.4851 83.7568C52.4851 83.7568 54.941 83.4674 55.0031 83.7568C55.0653 84.0463 52.4851 83.7568 52.4851 83.7568Z" fill="black"/>
<path opacity="0.1" d="M52.4851 84.5406C52.4851 84.5406 55.1062 83.9987 55.4155 84.1309C55.7248 84.2631 52.4851 84.5406 52.4851 84.5406Z" fill="black"/>
<path opacity="0.1" d="M52.6094 103.033L49.638 105.076C49.638 105.076 49.6552 104.837 49.6842 104.485C50.3451 102.859 51.2056 102.002 51.2056 102.002C51.8758 101.827 52.2987 101.988 52.5618 102.304C52.5724 102.743 52.6094 103.033 52.6094 103.033Z" fill="black"/>
<path d="M52.8988 104.869C52.4789 105.827 52.2676 106.863 52.2789 107.909C52.2957 108.766 52.0781 109.612 51.6497 110.355C51.5878 110.46 51.5179 110.56 51.4409 110.654C51.4409 110.654 49.3763 110.637 48.6532 110.038C48.572 109.974 48.5057 109.893 48.4589 109.8C48.0452 108.975 49.2639 105.818 49.2639 105.818C49.9036 103.383 51.203 102.082 51.203 102.082C53.5174 101.483 52.8988 104.869 52.8988 104.869Z" fill="#3F4D65"/>
<path opacity="0.1" d="M51.6497 110.349C51.5877 110.453 51.5179 110.553 51.4409 110.647C51.4409 110.647 49.3762 110.63 48.6532 110.032C49.0088 108.855 50.1429 105.296 50.6742 105.901C51.1739 106.469 51.5215 109.204 51.6497 110.349Z" fill="black"/>
<path d="M51.3668 106.122L51.2227 111.454H51.9153C51.9153 111.454 52.0277 106.776 52.337 106.122C52.6463 105.467 51.3668 106.122 51.3668 106.122Z" fill="#3F4D65"/>
<path opacity="0.1" d="M59.977 106.56C59.977 106.56 56.9434 103.692 57.2527 103.465C57.336 103.404 57.418 103.159 57.4933 102.834C58.0762 102.733 59.0795 102.976 59.9095 105.305C59.9294 105.966 59.977 106.56 59.977 106.56Z" fill="black"/>
<path d="M60.4304 109.759C60.4071 109.769 60.3827 109.776 60.3577 109.78C60.0008 109.842 58.6856 109.807 57.9494 109.78C57.8145 109.776 57.6866 109.719 57.5927 109.622C57.4987 109.525 57.4461 109.396 57.4458 109.261C57.4458 109.063 57.4458 108.821 57.4299 108.563C57.3956 107.749 57.2977 106.78 57.0056 106.562C56.4888 106.165 56.0804 104.82 57.0056 103.116C57.0056 103.116 58.7795 101.761 60.059 105.833C60.059 105.833 60.1832 106.995 60.7397 107.408C61.2962 107.82 60.6789 109.642 60.4304 109.759Z" fill="#3F4D65"/>
<path opacity="0.1" d="M60.3551 109.78C59.9982 109.842 58.683 109.807 57.9467 109.78C57.8118 109.776 57.684 109.719 57.59 109.622C57.4961 109.525 57.4434 109.396 57.4431 109.261C57.4431 109.063 57.4431 108.821 57.4273 108.563C57.6507 107.577 57.9719 106.562 58.3856 106.33C58.3882 106.329 59.64 106.188 60.3551 109.78Z" fill="black"/>
<path d="M57.2303 106.21L57.5634 110.647H57.9864V105.832L57.2303 106.21Z" fill="#3F4D65"/>
<path opacity="0.1" d="M58.2639 29.1628C57.0649 29.252 55.9042 29.6249 54.8775 30.2506C54.6131 30.4105 54.3488 30.6048 54.2391 30.8917C54.1439 31.1402 54.1835 31.4204 54.1875 31.6847C54.2232 33.9609 51.6853 35.6832 51.7647 37.958C51.7964 38.8608 52.2497 39.7014 52.333 40.6016C52.4718 42.1031 51.5836 43.4844 50.7323 44.7282C51.6093 44.7816 52.4732 44.4952 53.1446 43.9285C54.0428 46.9224 54.1589 50.0966 53.4817 53.1481H54.699C54.8193 53.1393 54.9401 53.1541 55.0546 53.1917C55.1614 53.2424 55.2571 53.3138 55.3361 53.4018C56.4742 54.5346 57.2369 56.2093 56.802 57.7558L59.3927 56.7843C60.0127 56.5517 60.6418 56.3151 61.1811 55.9318C61.7204 55.5484 62.1725 54.992 62.2861 54.339C62.3562 53.9425 62.3337 53.4693 62.6602 53.2393C62.8211 53.1537 62.9927 53.0901 63.1704 53.0502C63.8815 52.7991 64.1961 51.977 64.3415 51.2367C64.5186 50.3286 64.5741 49.4009 64.5068 48.4782C64.3918 46.9317 63.9344 45.3614 64.3111 43.8519C64.5239 43.0046 64.9971 42.2155 65.0355 41.3405C65.0976 39.8984 63.9701 38.6559 63.8022 37.2217C63.6846 36.2225 64.0455 35.2113 63.9278 34.212C63.8625 33.6962 63.6738 33.2038 63.3776 32.7765C63.0815 32.3492 62.6867 31.9997 62.2267 31.7574C61.9081 31.5935 61.5658 31.4838 61.2512 31.3027C60.5334 30.8864 60.0748 30.1369 59.4231 29.6214C58.7715 29.1059 57.6863 28.9116 57.1959 29.5818L58.2639 29.1628Z" fill="black"/>
<path d="M58.2639 28.9974C57.0649 29.0867 55.9042 29.4595 54.8775 30.0853C54.6131 30.2452 54.3488 30.4395 54.2391 30.7263C54.1439 30.9748 54.1835 31.2551 54.1875 31.5194C54.2232 33.7956 51.6853 35.5179 51.7647 37.794C51.7964 38.6954 52.2497 39.5361 52.333 40.4376C52.4718 41.9391 51.5836 43.3204 50.7323 44.5655C51.6091 44.617 52.4722 44.3309 53.1446 43.7659C54.0427 46.7589 54.1587 49.9321 53.4817 52.9827H54.699C54.8194 52.9744 54.9401 52.9897 55.0546 53.0277C55.1616 53.0775 55.2574 53.1485 55.3361 53.2365C56.4742 54.3706 57.2369 56.044 56.802 57.5905L59.3927 56.619C60.0127 56.3864 60.6418 56.1498 61.1811 55.7664C61.7204 55.3831 62.1725 54.8266 62.2861 54.1737C62.3562 53.7771 62.3337 53.3039 62.6602 53.0739C62.8211 52.9884 62.9927 52.9248 63.1704 52.8849C63.8815 52.6338 64.1961 51.8116 64.3415 51.0714C64.5201 50.1626 64.577 49.234 64.5107 48.3102C64.3957 46.7637 63.9384 45.1934 64.3151 43.6839C64.5279 42.8366 65.0011 42.0475 65.0394 41.1725C65.1016 39.7304 63.9741 38.4879 63.8062 37.0538C63.6886 36.0545 64.0494 35.0446 63.9318 34.044C63.8663 33.5283 63.6774 33.036 63.3813 32.6088C63.0852 32.1815 62.6905 31.8319 62.2306 31.5895C61.9121 31.4256 61.5697 31.3159 61.2551 31.1361C60.5374 30.7184 60.0787 29.969 59.4271 29.4535C58.7755 28.938 57.6903 28.7436 57.1999 29.4138L58.2639 28.9974Z" fill="#3F4D65"/>
<g opacity="0.1">
<path opacity="0.1" d="M54.1849 30.9696C54.1796 31.0205 54.1769 31.0717 54.177 31.1229C54.1809 31.0727 54.1836 31.0212 54.1849 30.9696Z" fill="black"/>
<path opacity="0.1" d="M63.7917 36.2608C63.8393 35.5603 63.9953 34.8571 63.9371 34.1592C63.8935 34.8597 63.7375 35.5629 63.7917 36.2608Z" fill="black"/>
<path opacity="0.1" d="M52.333 39.7437C52.2564 38.9242 51.8744 38.1575 51.7845 37.3394C51.7666 37.4893 51.7599 37.6404 51.7647 37.7914C51.7964 38.6836 52.2392 39.5177 52.3291 40.4059C52.3509 40.1858 52.3522 39.9641 52.333 39.7437Z" fill="black"/>
<path opacity="0.1" d="M64.3204 42.9993C64.1967 43.5372 64.1522 44.0903 64.1883 44.641C64.2014 44.3198 64.2457 44.0006 64.3204 43.688C64.5332 42.8407 65.0064 42.0516 65.0448 41.1766C65.051 41.0212 65.044 40.8655 65.0236 40.7113C64.9205 41.4978 64.5095 42.23 64.3204 42.9993Z" fill="black"/>
<path opacity="0.1" d="M53.1446 43.0707C52.5933 43.5327 51.9109 43.8101 51.1936 43.8638C51.0429 44.099 50.8869 44.329 50.7323 44.5564C51.609 44.6078 52.4722 44.3217 53.1446 43.7567C53.6274 45.3635 53.8863 47.0292 53.9139 48.7068C53.9531 46.7995 53.6935 44.8977 53.1446 43.0707Z" fill="black"/>
<path opacity="0.1" d="M64.3455 50.3788C64.2001 51.1191 63.8855 51.9412 63.1744 52.191C62.9964 52.2307 62.8247 52.2948 62.6642 52.3814C62.3377 52.6114 62.3602 53.0872 62.2901 53.4811C62.1764 54.1341 61.7257 54.6892 61.1851 55.0673C60.6445 55.4453 60.0166 55.6885 59.3967 55.9211L56.9249 56.8464C56.9121 57.0945 56.8722 57.3405 56.806 57.58L59.3967 56.6085C60.0166 56.3758 60.6458 56.1392 61.1851 55.7559C61.7244 55.3726 62.1764 54.8161 62.2901 54.1631C62.3602 53.7666 62.3377 53.2934 62.6642 53.0634C62.825 52.9779 62.9966 52.9143 63.1744 52.8744C63.8855 52.6233 64.2001 51.8011 64.3455 51.0609C64.496 50.2906 64.5585 49.5057 64.5319 48.7213C64.5144 49.2779 64.4521 49.8322 64.3455 50.3788Z" fill="black"/>
<path opacity="0.1" d="M55.3401 52.5401C55.2614 52.4517 55.1656 52.3802 55.0585 52.3299C54.944 52.2924 54.8233 52.2771 54.703 52.285H53.6231C53.5808 52.5149 53.5358 52.7449 53.4909 52.9736H54.7082C54.8286 52.9653 54.9494 52.9805 55.0638 53.0186C55.1709 53.0683 55.2667 53.1394 55.3454 53.2274C56.1781 54.0575 56.8086 55.1757 56.917 56.323C57.0505 54.951 56.3393 53.5393 55.3401 52.5401Z" fill="black"/>
</g>
<path opacity="0.1" d="M49.3009 57.0446C49.3009 57.0446 50.2843 56.6322 50.5037 57.0446C50.7231 57.457 49.3009 57.0446 49.3009 57.0446Z" fill="black"/>
<path opacity="0.1" d="M49.6485 57.7518C49.6485 57.7518 50.6319 57.3394 50.8527 57.7518C51.0734 58.1642 49.6485 57.7518 49.6485 57.7518Z" fill="black"/>
<path d="M118.703 54.4395C118.329 54.4395 117.963 54.5504 117.652 54.7583C117.341 54.9661 117.099 55.2615 116.956 55.6071C116.812 55.9528 116.775 56.3331 116.848 56.7C116.921 57.0669 117.101 57.4039 117.366 57.6685C117.63 57.933 117.967 58.1131 118.334 58.1861C118.701 58.2591 119.081 58.2217 119.427 58.0785C119.773 57.9353 120.068 57.6929 120.276 57.3818C120.484 57.0708 120.595 56.7051 120.595 56.331C120.593 55.8298 120.393 55.3495 120.039 54.995C119.685 54.6406 119.204 54.4409 118.703 54.4395ZM113.173 39.597V41.4885H115.064L118.469 48.3857L117.046 50.7028C116.89 50.9768 116.809 51.2866 116.809 51.6016C116.809 52.8679 117.675 53.4931 118.848 53.4931H129.908V51.6743H119.08C119.048 51.6762 119.017 51.6714 118.987 51.6602C118.957 51.649 118.931 51.6317 118.908 51.6093C118.886 51.5869 118.868 51.5601 118.857 51.5305C118.846 51.5009 118.841 51.4693 118.843 51.4377C118.868 51.3559 118.902 51.277 118.944 51.2024L119.889 49.7101H126.935C127.276 49.7129 127.61 49.6217 127.902 49.4466C128.194 49.2714 128.432 49.0191 128.59 48.7174L131.996 42.8606C132.063 42.7118 132.095 42.5502 132.092 42.3874C132.09 42.2656 132.064 42.1454 132.016 42.0339C131.967 41.9223 131.897 41.8216 131.808 41.7378C131.72 41.654 131.616 41.5887 131.502 41.5459C131.388 41.5031 131.267 41.4836 131.145 41.4885H117.146L116.247 39.597H113.173ZM128.015 54.4395C127.641 54.4398 127.275 54.5509 126.965 54.7589C126.654 54.9669 126.412 55.2624 126.269 55.6081C126.126 55.9537 126.088 56.334 126.161 56.7008C126.235 57.0676 126.415 57.4045 126.679 57.6689C126.944 57.9333 127.281 58.1133 127.648 58.1862C128.015 58.2591 128.395 58.2216 128.741 58.0784C129.086 57.9352 129.381 57.6927 129.589 57.3817C129.797 57.0707 129.908 56.705 129.908 56.331C129.907 55.8295 129.707 55.349 129.352 54.9946C128.997 54.6401 128.517 54.4405 128.015 54.4395Z" fill="#4183E4"/>
<path d="M125.595 44.8301H124.009V43.2439H122.819V44.8301H121.233V46.0197H122.819V47.6058H124.009V46.0197H125.595V44.8301Z" fill="white"/>
<defs>
<linearGradient id="paint0_linear" x1="82.207" y1="78.6111" x2="82.207" y2="13.0183" gradientUnits="userSpaceOnUse">
<stop stop-color="#808080" stop-opacity="0.25"/>
<stop offset="0.54" stop-color="#808080" stop-opacity="0.12"/>
<stop offset="1" stop-color="#808080" stop-opacity="0.1"/>
</linearGradient>
</defs>
</svg>
