<svg width="152" height="130" viewBox="0 0 152 130" fill="none" xmlns="http://www.w3.org/2000/svg">
<path fill-rule="evenodd" clip-rule="evenodd" d="M76.3578 22.7022C84.4637 25.543 92.8651 25.6231 100.875 28.7233C110.796 32.563 121.862 34.8247 128.711 42.9646C136.441 52.1523 141.059 64.1303 140.766 76.134C140.457 88.8148 137.281 103.296 127.058 110.806C116.878 118.284 102.535 111.68 90.0217 113.408C79.9185 114.804 70.9411 119.217 60.7693 119.963C45.717 121.067 27.3755 129.192 16.4231 118.807C5.79335 108.729 14.2653 90.4582 14.2013 75.8102C14.147 63.3872 12.1025 51.1143 16.0761 39.3438C20.3447 26.6997 24.7217 10.0941 37.5856 6.54282C51.3614 2.73983 62.871 17.9756 76.3578 22.7022Z" fill="#EBF2FC"/>
<path d="M64.2176 48.6639C64.1928 48.773 64.1766 48.8838 64.1692 48.9954L55.4875 54.0039L53.3773 52.789L51.1277 55.7341L55.642 58.9516L65.5465 51.1379C65.9505 51.2874 66.3904 51.3104 66.8077 51.2037C67.2251 51.0971 67.6 50.866 67.8828 50.5411C68.1656 50.2161 68.3427 49.8128 68.3907 49.3848C68.4387 48.9567 68.3552 48.5242 68.1513 48.1447C67.9475 47.7653 67.633 47.4569 67.2496 47.2605C66.8662 47.0642 66.4322 46.9892 66.0051 47.0456C65.5781 47.1019 65.1783 47.287 64.859 47.5761C64.5397 47.8651 64.316 48.2446 64.2176 48.6639Z" fill="#FFB8B8"/>
<path d="M44.4455 51.7367L51.2813 56.6088L54.3387 52.7755L47.6936 47.4436C47.4077 47.2142 47.078 47.0456 46.7247 46.9481C46.3714 46.8506 46.0018 46.8262 45.6388 46.8766C45.2757 46.9269 44.9267 47.0508 44.6132 47.2407C44.2997 47.4306 44.0283 47.6825 43.8155 47.981C43.401 48.5626 43.2345 49.285 43.3527 49.9893C43.4708 50.6937 43.8639 51.3222 44.4455 51.7367Z" fill="#4183E4"/>
<path d="M30.3346 107.328L32.7315 107.956L36.2945 99.0101L32.7572 98.0831L30.3346 107.328Z" fill="#FFB8B8"/>
<path d="M36.7707 111.393L29.2379 109.419L30.0005 106.509L34.6229 107.72C35.3948 107.922 36.0547 108.423 36.4575 109.111C36.8603 109.8 36.9729 110.621 36.7707 111.393Z" fill="#2F2E41"/>
<path d="M51.6406 109.034L54.0797 108.599L53.56 98.9834L49.9601 99.6265L51.6406 109.034Z" fill="#FFB8B8"/>
<path d="M59.1884 110.023L51.5226 111.393L50.9936 108.431L55.6975 107.591C56.0865 107.521 56.4853 107.529 56.8712 107.614C57.2571 107.698 57.6226 107.858 57.9468 108.084C58.2709 108.31 58.5474 108.597 58.7604 108.93C58.9735 109.263 59.1189 109.634 59.1884 110.023Z" fill="#2F2E41"/>
<path d="M46.8377 38.3211C47.4388 38.4674 47.9277 39.0799 48.2214 39.7894C48.4922 40.5346 48.6756 41.3087 48.7679 42.0962C48.9986 43.5628 49.2202 45.1505 48.743 46.5088C48.1836 48.1008 46.6932 48.9347 45.4005 48.5428C44.1077 48.151 43.0795 46.6801 42.7282 44.987C42.4084 43.2763 42.6144 41.5088 43.3192 39.9175C43.6864 39.0814 44.1926 38.31 44.8653 37.9328C45.1953 37.7333 45.5886 37.6661 45.9661 37.7447C46.3436 37.8234 46.6773 38.0421 46.9002 38.3568" fill="#2F2E41"/>
<path d="M50.2385 64.8745L54.8821 106.466L51.0469 107.922L43.9734 80.032L34.1254 105.533L29.9274 105.766C29.9274 105.766 35.6873 66.0871 39.9559 65.1854L50.2385 64.8745Z" fill="#2F2E41"/>
<path d="M46.3381 43.6289C49.0795 43.6289 51.3018 41.4066 51.3018 38.6651C51.3018 35.9237 49.0795 33.7014 46.3381 33.7014C43.5966 33.7014 41.3743 35.9237 41.3743 38.6651C41.3743 41.4066 43.5966 43.6289 46.3381 43.6289Z" fill="#FFB8B8"/>
<path d="M48.4684 45.7114L43.1043 45.0117C43.1043 45.0117 39.606 49.2097 39.8392 56.4396C40.0724 63.6694 39.2562 65.885 39.2562 65.885L50.4405 66.0871C48.8237 63.864 55.5862 51.0959 48.4684 45.7114Z" fill="#4183E4"/>
<path d="M51.3501 67.0976C51.2382 67.0984 51.1266 67.108 51.0163 67.1264L44.154 59.8212L44.8536 57.489L41.4719 55.9731L39.3729 61.1039L49.2459 68.9574C49.1928 69.3849 49.2711 69.8184 49.4704 70.2002C49.6697 70.5821 49.9805 70.8942 50.3615 71.0951C50.7425 71.296 51.1757 71.3762 51.6034 71.3249C52.031 71.2736 52.433 71.0934 52.7557 70.8081C53.0784 70.5229 53.3067 70.1461 53.4101 69.728C53.5135 69.3098 53.4871 68.8701 53.3345 68.4673C53.1819 68.0645 52.9104 67.7177 52.5559 67.4731C52.2014 67.2284 51.7808 67.0974 51.3501 67.0976Z" fill="#FFB8B8"/>
<path d="M43.834 48.5535L40.6556 56.3229L45.0868 58.4219L48.7565 50.733C48.9144 50.4022 49.0031 50.0427 49.0171 49.6764C49.0312 49.3101 48.9703 48.9448 48.8383 48.6029C48.7062 48.261 48.5057 47.9496 48.2491 47.6879C47.9925 47.4262 47.6852 47.2196 47.3459 47.0808C47.0186 46.9469 46.6681 46.8788 46.3145 46.8803C45.9609 46.8819 45.611 46.9531 45.2849 47.0898C44.9588 47.2266 44.6628 47.4262 44.4139 47.6774C44.1649 47.9285 43.9679 48.2262 43.834 48.5535Z" fill="#4183E4"/>
<path d="M45.0398 43.1779C45.8175 42.7292 45.9005 41.6468 45.7948 40.7552C45.6891 39.8635 45.5125 38.8695 46.0366 38.1404C46.6622 37.2702 47.919 37.2529 48.9903 37.2245C50.0615 37.1961 51.3661 36.8824 51.6437 35.8473C51.8271 35.1634 51.4347 34.4294 50.8716 34.0001C50.3085 33.5708 49.604 33.381 48.9192 33.2006C47.3874 32.7971 45.8058 32.3901 44.2373 32.6119C42.6838 32.8316 41.2792 33.6541 40.3275 34.9015C39.3758 36.1489 38.9535 37.7208 39.1519 39.2772C39.4058 41.2681 39.774 42.1374 39.5323 43.0153C39.0822 44.6503 37.1413 45.7007 37.1026 47.3961C37.0724 48.7223 38.2438 49.7453 39.3867 50.4187C40.2932 50.9528 41.2716 51.4061 42.3163 51.5311C43.3611 51.6562 44.4859 51.4168 45.2641 50.7086C46.2679 49.7954 46.5162 48.2695 46.2284 46.9433C45.9405 45.6171 45.2022 44.4394 44.4718 43.2956" fill="#2F2E41"/>
<path d="M138.96 44.6645H67.2148C66.7327 44.6652 66.2704 44.8571 65.9295 45.198C65.5885 45.539 65.3967 46.0012 65.3959 46.4834V92.5622C65.3967 93.0444 65.5885 93.5066 65.9295 93.8476C66.2704 94.1885 66.7327 94.3804 67.2148 94.3811H138.96C139.443 94.3804 139.905 94.1885 140.246 93.8476C140.587 93.5066 140.779 93.0444 140.779 92.5622V46.4834C140.779 46.0012 140.587 45.539 140.246 45.198C139.905 44.8571 139.443 44.6652 138.96 44.6645ZM140.375 92.5622C140.375 92.9373 140.226 93.2969 139.96 93.5621C139.695 93.8273 139.335 93.9765 138.96 93.9769H67.2148C66.8398 93.9765 66.4802 93.8273 66.215 93.5621C65.9497 93.2969 65.8006 92.9373 65.8001 92.5622V46.4834C65.8006 46.1083 65.9497 45.7487 66.215 45.4835C66.4802 45.2183 66.8398 45.0691 67.2148 45.0687H138.96C139.335 45.0691 139.695 45.2183 139.96 45.4835C140.226 45.7487 140.375 46.1083 140.375 46.4834V92.5622Z" fill="#3F3D56"/>
<path d="M82.529 67.6019H71.2114C70.7559 67.6014 70.3193 67.4202 69.9973 67.0982C69.6752 66.7762 69.4941 66.3395 69.4935 65.8841V54.5665C69.4941 54.111 69.6752 53.6744 69.9973 53.3524C70.3193 53.0303 70.7559 52.8492 71.2114 52.8486H82.529C82.9844 52.8492 83.4211 53.0303 83.7431 53.3524C84.0651 53.6744 84.2463 54.111 84.2468 54.5665V65.8841C84.2463 66.3395 84.0651 66.7762 83.7431 67.0982C83.4211 67.4202 82.9844 67.6014 82.529 67.6019Z" fill="#4183E4"/>
<path d="M135.224 79.6288H70.9559C70.6075 79.6288 70.2734 79.4904 70.027 79.244C69.7807 78.9976 69.6423 78.6635 69.6423 78.3151C69.6423 77.9667 69.7807 77.6326 70.027 77.3862C70.2734 77.1399 70.6075 77.0015 70.9559 77.0015H135.224C135.572 77.0015 135.906 77.1399 136.153 77.3862C136.399 77.6326 136.537 77.9667 136.537 78.3151C136.537 78.6635 136.399 78.9976 136.153 79.244C135.906 79.4904 135.572 79.6288 135.224 79.6288Z" fill="#CCCCCC"/>
<path d="M135.267 73.2626H70.9991C70.6507 73.2626 70.3165 73.1242 70.0702 72.8779C69.8238 72.6315 69.6854 72.2974 69.6854 71.949C69.6854 71.6006 69.8238 71.2664 70.0702 71.0201C70.3165 70.7737 70.6507 70.6353 70.9991 70.6353H135.267C135.615 70.6353 135.949 70.7737 136.196 71.0201C136.442 71.2664 136.581 71.6006 136.581 71.949C136.581 72.2974 136.442 72.6315 136.196 72.8779C135.949 73.1242 135.615 73.2626 135.267 73.2626Z" fill="#CCCCCC"/>
<path d="M103.537 64.5704H94.0385C93.6901 64.5704 93.356 64.432 93.1096 64.1856C92.8633 63.9392 92.7249 63.6051 92.7249 63.2567C92.7249 62.9083 92.8633 62.5742 93.1096 62.3278C93.356 62.0815 93.6901 61.9431 94.0385 61.9431H103.537C103.886 61.9431 104.22 62.0815 104.466 62.3278C104.712 62.5742 104.851 62.9083 104.851 63.2567C104.851 63.6051 104.712 63.9392 104.466 64.1856C104.22 64.432 103.886 64.5704 103.537 64.5704Z" fill="#CCCCCC"/>
<path d="M135.267 58.1051H94.0385C93.6901 58.1051 93.356 57.9667 93.1096 57.7204C92.8633 57.474 92.7249 57.1399 92.7249 56.7915C92.7249 56.4431 92.8633 56.109 93.1096 55.8626C93.356 55.6162 93.6901 55.4778 94.0385 55.4778H135.267C135.615 55.4778 135.949 55.6162 136.196 55.8626C136.442 56.109 136.581 56.4431 136.581 56.7915C136.581 57.1399 136.442 57.474 136.196 57.7204C135.949 57.9667 135.615 58.1051 135.267 58.1051Z" fill="#CCCCCC"/>
<path d="M101.92 86.096H70.9559C70.6075 86.096 70.2734 85.9576 70.027 85.7112C69.7807 85.4649 69.6423 85.1307 69.6423 84.7823C69.6423 84.4339 69.7807 84.0998 70.027 83.8534C70.2734 83.6071 70.6075 83.4687 70.9559 83.4687H101.92C102.269 83.4687 102.603 83.6071 102.849 83.8534C103.096 84.0998 103.234 84.4339 103.234 84.7823C103.234 85.1307 103.096 85.4649 102.849 85.7112C102.603 85.9576 102.269 86.096 101.92 86.096Z" fill="#CCCCCC"/>
</svg>
