<svg width="87" height="87" viewBox="0 0 87 87" fill="none" xmlns="http://www.w3.org/2000/svg">
<circle cx="43.3571" cy="43.3909" r="42" stroke="#4183E4" stroke-width="2"/>
<path d="M31.2321 58.2659H22.4821C22.25 58.2659 22.0274 58.3581 21.8633 58.5222C21.6992 58.6862 21.6071 58.9088 21.6071 59.1409V66.1409C21.6071 66.3729 21.6992 66.5955 21.8633 66.7596C22.0274 66.9237 22.25 67.0159 22.4821 67.0159H31.2321C31.4641 67.0159 31.6867 66.9237 31.8508 66.7596C32.0149 66.5955 32.1071 66.3729 32.1071 66.1409V59.1409C32.1071 58.9088 32.0149 58.6862 31.8508 58.5222C31.6867 58.3581 31.4641 58.2659 31.2321 58.2659ZM30.3571 65.2659H23.3571V60.0159H30.3571V65.2659Z" fill="#4183E4"/>
<path d="M40.8571 58.2659H33.8571C33.625 58.2659 33.4024 58.3581 33.2383 58.5222C33.0742 58.6862 32.9821 58.9088 32.9821 59.1409C32.9821 59.3729 33.0742 59.5955 33.2383 59.7596C33.4024 59.9237 33.625 60.0159 33.8571 60.0159H40.8571C41.0891 60.0159 41.3117 59.9237 41.4758 59.7596C41.6399 59.5955 41.7321 59.3729 41.7321 59.1409C41.7321 58.9088 41.6399 58.6862 41.4758 58.5222C41.3117 58.3581 41.0891 58.2659 40.8571 58.2659Z" fill="#4183E4"/>
<path d="M37.3571 60.8909H33.8571C33.625 60.8909 33.4024 60.9831 33.2383 61.1472C33.0742 61.3112 32.9821 61.5338 32.9821 61.7659C32.9821 61.9979 33.0742 62.2205 33.2383 62.3846C33.4024 62.5487 33.625 62.6409 33.8571 62.6409H37.3571C37.5891 62.6409 37.8117 62.5487 37.9758 62.3846C38.1399 62.2205 38.2321 61.9979 38.2321 61.7659C38.2321 61.5338 38.1399 61.3112 37.9758 61.1472C37.8117 60.9831 37.5891 60.8909 37.3571 60.8909Z" fill="#4183E4"/>
<path d="M35.6071 63.5159H33.8571C33.625 63.5159 33.4024 63.6081 33.2383 63.7722C33.0742 63.9362 32.9821 64.1588 32.9821 64.3909C32.9821 64.6229 33.0742 64.8455 33.2383 65.0096C33.4024 65.1737 33.625 65.2659 33.8571 65.2659H35.6071C35.8391 65.2659 36.0617 65.1737 36.2258 65.0096C36.3899 64.8455 36.4821 64.6229 36.4821 64.3909C36.4821 64.1588 36.3899 63.9362 36.2258 63.7722C36.0617 63.6081 35.8391 63.5159 35.6071 63.5159Z" fill="#4183E4"/>
<path d="M71.3541 34.7011L66.1675 19.8294C65.9563 19.2247 65.5314 18.718 64.9726 18.4049C64.4138 18.0918 63.7599 17.9937 63.1339 18.1293C62.5079 18.2648 61.953 18.6245 61.5738 19.1407C61.1946 19.6569 61.0172 20.294 61.075 20.9319L55.8535 25.2795L47.7411 28.1091C46.7789 28.4457 45.9643 29.1076 45.4377 29.9805C44.9112 30.8534 44.7058 31.8827 44.8569 32.8909H21.6071C20.9111 32.8919 20.244 33.1687 19.7519 33.6608C19.2598 34.1529 18.983 34.82 18.9821 35.5159V67.0159C18.983 67.7118 19.2598 68.379 19.7519 68.8711C20.244 69.3631 20.9111 69.64 21.6071 69.6409H53.1071C53.803 69.64 54.4701 69.3631 54.9622 68.8711C55.4543 68.379 55.7311 67.7118 55.7321 67.0159V44.7822L57.096 44.3064C57.2144 44.2652 57.3226 44.199 57.4132 44.1124C57.5039 44.0257 57.5748 43.9205 57.6211 43.804C57.6675 43.6875 57.6883 43.5624 57.682 43.4371C57.6758 43.3119 57.6426 43.1894 57.5849 43.0781L55.206 38.4789L59.8872 36.847L66.6794 37.0045C67.0003 37.4945 67.4758 37.8632 68.0304 38.0516C68.585 38.2401 69.1867 38.2377 69.7397 38.0447C70.3971 37.8152 70.9364 37.3341 71.2392 36.7071C71.5419 36.0801 71.5832 35.3586 71.3541 34.7011ZM32.9821 34.6409H41.7321V49.6308L37.8427 47.0375C37.6988 46.9419 37.5298 46.8909 37.3571 46.8909C37.1843 46.8909 37.0154 46.9419 36.8714 47.0375L32.9821 49.6308V34.6409ZM53.9821 67.0159C53.9817 67.2479 53.8894 67.4703 53.7254 67.6343C53.5614 67.7983 53.339 67.8906 53.1071 67.8909H21.6071C21.3751 67.8906 21.1527 67.7983 20.9887 67.6343C20.8247 67.4703 20.7324 67.2479 20.7321 67.0159V35.5159C20.7324 35.284 20.8247 35.0616 20.9887 34.8976C21.1527 34.7335 21.3751 34.6412 21.6071 34.6409H31.2321V51.2659C31.2323 51.4242 31.2754 51.5795 31.3569 51.7153C31.4383 51.8511 31.555 51.9622 31.6946 52.0369C31.8342 52.1117 31.9914 52.1472 32.1495 52.1397C32.3076 52.1322 32.4608 52.0819 32.5927 51.9944L37.3571 48.8181L42.1214 51.9944C42.2654 52.0899 42.4343 52.1409 42.6071 52.1409C42.839 52.1405 43.0613 52.0482 43.2253 51.8842C43.3893 51.7202 43.4816 51.4979 43.4821 51.2659V34.6409H45.1489C45.2254 34.6409 45.3016 34.6306 45.3753 34.6103L46.2033 36.9848C46.5036 37.8422 47.0628 38.5851 47.8036 39.1108C48.5445 39.6365 49.4304 39.9191 50.3388 39.9194C50.5692 39.919 50.7992 39.9007 51.0267 39.8647L53.5522 44.7472C53.6452 44.9261 53.797 45.0675 53.9821 45.1475V67.0159ZM55.568 42.9862L55.0047 43.182C54.9559 43.1738 54.9065 43.1694 54.8571 43.1689C54.8087 43.1694 54.7604 43.1738 54.7127 43.182L52.7275 39.343L53.5369 39.0608L55.568 42.9862ZM53.678 37.1587H53.6769L51.1985 38.0228C50.5411 38.2515 49.8199 38.2099 49.1932 37.9072C48.5665 37.6045 48.0855 37.0655 47.856 36.4084L46.7032 33.1042C46.4746 32.4467 46.5162 31.7254 46.8188 31.0985C47.1215 30.4717 47.6605 29.9905 48.3175 29.7606L55.7539 27.1684L58.6349 35.4306L53.678 37.1587ZM60.375 35.108L57.7457 27.5655L57.3169 26.3383L61.6263 22.7508L62.7003 25.8308L65.9805 35.2381L60.375 35.108ZM69.6631 35.9469C69.5879 36.1028 69.4681 36.2328 69.3188 36.3206C69.1696 36.4084 68.9977 36.4499 68.8249 36.44C68.6521 36.43 68.4861 36.369 68.3479 36.2647C68.2098 36.1604 68.1057 36.0174 68.0488 35.8539L62.8633 20.9822C62.8255 20.8737 62.8094 20.7588 62.8159 20.644C62.8225 20.5293 62.8516 20.417 62.9015 20.3135C63.0025 20.1044 63.1823 19.9441 63.4014 19.8676C63.6206 19.7912 63.8611 19.805 64.0701 19.9059C64.2792 20.0068 64.4395 20.1866 64.516 20.4058L69.7014 35.2775C69.7395 35.3861 69.7557 35.5011 69.7491 35.616C69.7426 35.7309 69.7133 35.8433 69.6631 35.9469Z" fill="#4183E4"/>
</svg>
