<svg width="87" height="87" viewBox="0 0 87 87" fill="none" xmlns="http://www.w3.org/2000/svg">
<circle cx="43.357" cy="43.391" r="42" stroke="#4183E4" stroke-width="2"/>
<g clip-path="url(#clip0)">
<path d="M22.5929 20.2119C21.0758 20.2119 19.8415 21.4462 19.8415 22.9634C19.8415 24.4801 21.0758 25.7144 22.5925 25.7144C24.1097 25.7144 25.344 24.4801 25.344 22.9634C25.344 21.4462 24.1097 20.2119 22.5929 20.2119ZM22.5929 24.0738C21.9803 24.0738 21.4821 23.5756 21.4821 22.9634C21.4821 22.3507 21.9803 21.8525 22.5925 21.8525C23.2052 21.8525 23.7033 22.3507 23.7033 22.9634C23.7033 23.5756 23.2052 24.0738 22.5929 24.0738Z" fill="#4183E4"/>
<path d="M29.1288 20.2119C27.6121 20.2119 26.3778 21.4462 26.3778 22.9634C26.3778 24.4801 27.6121 25.7144 29.1288 25.7144C30.646 25.7144 31.8803 24.4801 31.8803 22.9634C31.8803 21.4462 30.646 20.2119 29.1288 20.2119ZM29.1288 24.0738C28.5166 24.0738 28.0184 23.5756 28.0184 22.9634C28.0184 22.3507 28.5166 21.8525 29.1288 21.8525C29.7415 21.8525 30.2397 22.3507 30.2397 22.9634C30.2397 23.5756 29.7415 24.0738 29.1288 24.0738Z" fill="#4183E4"/>
<path d="M35.6654 20.2119C34.1482 20.2119 32.9139 21.4462 32.9139 22.9634C32.9139 24.4801 34.1482 25.7144 35.6654 25.7144C37.1821 25.7144 38.4164 24.4801 38.4164 22.9634C38.4164 21.4462 37.1821 20.2119 35.6654 20.2119ZM35.6654 24.0738C35.0527 24.0738 34.5545 23.5756 34.5545 22.9634C34.5545 22.3507 35.0527 21.8525 35.6654 21.8525C36.2776 21.8525 36.7758 22.3507 36.7758 22.9634C36.7758 23.5756 36.2776 24.0738 35.6654 24.0738Z" fill="#4183E4"/>
<path d="M65.5418 22.9634C65.5418 22.5101 65.1748 22.1431 64.7215 22.1431H44.7426C44.2893 22.1431 43.9223 22.5101 43.9223 22.9634C43.9223 23.4163 44.2893 23.7837 44.7426 23.7837H64.7219C65.1748 23.7837 65.5418 23.4163 65.5418 22.9634Z" fill="#4183E4"/>
<path d="M67.8225 17.2504H18.6729C16.7814 17.2504 15.2476 18.7897 15.2476 20.6756V66.3124C15.2476 66.5192 15.266 66.7213 15.301 66.9178C15.3062 66.946 15.3117 66.9742 15.3173 67.002C15.3258 67.0434 15.3352 67.0849 15.3455 67.1263C15.3519 67.1537 15.3591 67.181 15.3664 67.2084C15.3737 67.2357 15.3814 67.2626 15.3895 67.2895C15.8112 68.7037 17.1237 69.7377 18.6729 69.7377H67.8225C69.7109 69.7377 71.2477 68.2013 71.2477 66.3124V20.6756C71.2477 18.7893 69.7135 17.2504 67.8225 17.2504ZM32.9139 68.097H18.6729C17.8581 68.097 17.169 67.548 16.9562 66.8003C16.9519 66.7862 16.9481 66.7721 16.9447 66.7576C16.9408 66.7435 16.9374 66.7294 16.934 66.7149C16.9041 66.5854 16.8883 66.4508 16.8883 66.3124V28.6762H32.9139V68.097ZM67.8225 68.097H34.5545V28.6762H53.2008C53.6537 28.6762 54.0211 28.3088 54.0211 27.8559C54.0211 27.4026 53.6537 27.0356 53.2008 27.0356H16.8883V20.6756C16.8883 19.6938 17.6864 18.891 18.6729 18.891H67.8225C68.8022 18.891 69.6071 19.6874 69.6071 20.6756V27.0356H56.2633C55.8105 27.0356 55.443 27.4026 55.443 27.8559C55.443 28.3088 55.8105 28.6762 56.2633 28.6762H69.6071V66.3124C69.6071 67.2964 68.8065 68.097 67.8225 68.097Z" fill="#4183E4"/>
<path d="M19.4872 33.2673H30.3154C30.7683 33.2673 31.1357 32.8999 31.1357 32.447C31.1357 31.9941 30.7683 31.6267 30.3154 31.6267H19.4872C19.0339 31.6267 18.6669 31.9941 18.6669 32.447C18.6669 32.8999 19.0339 33.2673 19.4872 33.2673Z" fill="#4183E4"/>
<path d="M19.4872 38.3989H30.3154C30.7683 38.3989 31.1357 38.0315 31.1357 37.5786C31.1357 37.1253 30.7683 36.7583 30.3154 36.7583H19.4872C19.0339 36.7583 18.6669 37.1253 18.6669 37.5786C18.6669 38.0315 19.0339 38.3989 19.4872 38.3989Z" fill="#4183E4"/>
<path d="M19.4872 43.5302H30.3154C30.7683 43.5302 31.1357 43.1627 31.1357 42.7098C31.1357 42.257 30.7683 41.8895 30.3154 41.8895H19.4872C19.0339 41.8895 18.6669 42.257 18.6669 42.7098C18.6669 43.1627 19.0339 43.5302 19.4872 43.5302Z" fill="#4183E4"/>
<path d="M19.4872 48.6615H30.3154C30.7683 48.6615 31.1357 48.2945 31.1357 47.8412C31.1357 47.3883 30.7683 47.0209 30.3154 47.0209H19.4872C19.0339 47.0209 18.6669 47.3883 18.6669 47.8412C18.6669 48.2945 19.0339 48.6615 19.4872 48.6615Z" fill="#4183E4"/>
<path d="M37.989 42.9475H49.3811C50.3112 42.9475 51.0679 42.1909 51.0679 41.2608V32.7338C51.0679 31.8037 50.3112 31.047 49.3811 31.047H37.989C37.0589 31.047 36.3023 31.8037 36.3023 32.7338V41.2608C36.3023 42.1909 37.0589 42.9475 37.989 42.9475ZM37.9429 32.7338C37.9429 32.7086 37.9634 32.6876 37.989 32.6876H49.3811C49.4063 32.6876 49.4273 32.7086 49.4273 32.7338V41.2608C49.4273 41.286 49.4068 41.3069 49.3811 41.3069H37.989C37.9638 41.3069 37.9429 41.286 37.9429 41.2608V32.7338Z" fill="#4183E4"/>
<path d="M54.9422 42.9475H66.3343C67.2645 42.9475 68.0211 42.1909 68.0211 41.2608V32.7338C68.0211 31.8037 67.2645 31.047 66.3343 31.047H54.9422C54.0121 31.047 53.2555 31.8037 53.2555 32.7338V41.2608C53.2555 42.1909 54.0121 42.9475 54.9422 42.9475ZM66.1818 32.6876C66.2912 32.6876 66.3805 32.7769 66.3805 32.8863V41.1082C66.3805 41.2176 66.2912 41.3069 66.1818 41.3069H55.0948C54.9854 41.3069 54.8961 41.2176 54.8961 41.1082V32.8863C54.8961 32.7769 54.9854 32.6876 55.0948 32.6876H66.1818Z" fill="#4183E4"/>
<path d="M66.3915 59.8749H37.989C37.0589 59.8749 36.3023 60.6315 36.3023 61.5616V63.4159C36.3023 64.346 37.0589 65.1027 37.989 65.1027H66.3915C67.3217 65.1027 68.0783 64.346 68.0783 63.4159V61.5616C68.0783 60.6315 67.3217 59.8749 66.3915 59.8749ZM66.4377 63.4159C66.4377 63.4411 66.4172 63.462 66.3915 63.462H37.989C37.9634 63.462 37.9429 63.4415 37.9429 63.4159V61.5616C37.9429 61.536 37.9634 61.5155 37.989 61.5155H66.3915C66.4168 61.5155 66.4377 61.536 66.4377 61.5616V63.4159Z" fill="#4183E4"/>
<path d="M37.989 57.602H42.1538C42.6067 57.602 42.9741 57.2349 42.9741 56.7816C42.9741 56.3288 42.6067 55.9613 42.1538 55.9613H37.989C37.9638 55.9613 37.9429 55.9408 37.9429 55.9152V46.4918C37.9429 46.4666 37.9634 46.4457 37.989 46.4457H66.3343C66.3595 46.4457 66.3804 46.4666 66.3804 46.4918V55.9152C66.3804 55.9408 66.3599 55.9613 66.3343 55.9613H45.2163C44.7635 55.9613 44.396 56.3288 44.396 56.7816C44.396 57.2349 44.7635 57.602 45.2163 57.602H66.3343C67.2644 57.602 68.0211 56.8453 68.0211 55.9152V46.4918C68.0211 45.5617 67.2644 44.8051 66.3343 44.8051H37.989C37.0589 44.8051 36.3023 45.5617 36.3023 46.4918V55.9152C36.3023 56.8453 37.0589 57.602 37.989 57.602Z" fill="#4183E4"/>
</g>
<defs>
<clipPath id="clip0">
<rect width="56" height="56" fill="white" transform="translate(15.357 15.391)"/>
</clipPath>
</defs>
</svg>
