<svg width="87" height="87" viewBox="0 0 87 87" fill="none" xmlns="http://www.w3.org/2000/svg">
<circle cx="43.357" cy="43.391" r="42" stroke="#4183E4" stroke-width="2"/>
<g clip-path="url(#clip0)">
<path d="M21.8902 61.0574C20.3438 61.0574 19.0903 62.3109 19.0903 63.8573C19.0903 65.4037 20.3438 66.6573 21.8902 66.6573C23.4366 66.6573 24.6902 65.4037 24.6902 63.8573C24.6902 62.3109 23.4366 61.0574 21.8902 61.0574ZM21.8902 64.7906C21.3748 64.7906 20.9569 64.3728 20.9569 63.8573C20.9569 63.3419 21.3748 62.924 21.8902 62.924C22.4056 62.924 22.8235 63.3419 22.8235 63.8573C22.8235 64.3728 22.4056 64.7906 21.8902 64.7906Z" fill="#4183E4"/>
<path d="M70.7142 53.9141C69.8994 52.5555 68.4314 51.7243 66.8472 51.7243H66.6503C65.9104 51.7248 65.1819 51.9068 64.5288 52.2544L57.3563 56.0801V43.3245H60.6229C63.458 43.3245 65.7562 41.0263 65.7562 38.1912C65.7562 35.3561 63.458 33.058 60.6229 33.058H40.5566C37.9793 33.058 35.89 30.9686 35.89 28.3914C35.89 25.8141 37.9793 23.7248 40.5566 23.7248H43.8232L49.1431 30.818C49.3194 31.053 49.596 31.1913 49.8898 31.1913H70.4227C70.9382 31.1913 71.3561 30.7734 71.3561 30.258V15.3249C71.3561 14.8095 70.9382 14.3916 70.4227 14.3916H49.8898C49.596 14.3916 49.3194 14.53 49.1431 14.7649L43.8232 21.8581H40.5566C36.9484 21.8581 34.0233 24.7832 34.0233 28.3914C34.0233 31.9996 36.9484 34.9246 40.5566 34.9246H60.6229C62.427 34.9246 63.8895 36.3871 63.8895 38.1912C63.8895 39.9953 62.427 41.4578 60.6229 41.4578H57.3563V37.7245C57.3563 37.2091 56.9384 36.7912 56.423 36.7912H30.2901C29.7747 36.7912 29.3568 37.2091 29.3568 37.7245V51.7243C28.6331 51.977 27.9317 52.2892 27.2596 52.6576H15.357V54.5243H26.5568V68.524H15.357V70.3907H50.7223C51.5683 70.3907 52.3984 70.1606 53.1237 69.7252L69.1665 60.0999C71.302 58.819 71.9949 56.0497 70.7142 53.9141ZM51.7679 25.4312C53.2259 24.9158 53.9899 23.316 53.4744 21.8581C52.959 20.4002 51.3591 19.6361 49.9013 20.1517C49.1039 20.4336 48.4767 21.0609 48.1948 21.8581H46.1565L50.3564 16.2582H69.4894V29.3247H50.3564L46.1565 23.7248H48.1948C48.7103 25.1827 50.3101 25.9468 51.7679 25.4312ZM49.8898 22.7915C49.8898 22.276 50.3076 21.8581 50.8231 21.8581C51.3385 21.8581 51.7564 22.276 51.7564 22.7915C51.7564 23.3069 51.3385 23.7248 50.8231 23.7248C50.3076 23.7248 49.8898 23.3069 49.8898 22.7915ZM41.4899 38.6579H45.2232V42.3911H41.4899V38.6579ZM31.2234 38.6579H39.6233V43.3245C39.6233 43.8399 40.0411 44.2578 40.5566 44.2578H46.1565C46.6719 44.2578 47.0898 43.8399 47.0898 43.3245V38.6579H55.4897V57.075L53.9609 57.8898C54.531 55.6414 53.1705 53.3566 50.922 52.7864C50.5846 52.7009 50.2379 52.6576 49.8898 52.6576H40.8002C37.8774 51.0643 34.4866 50.5515 31.2234 51.2091V38.6579ZM68.2061 58.4993L52.1633 68.1246C51.728 68.3859 51.23 68.524 50.7223 68.524H28.4234V54.1509C32.1072 52.2669 36.4919 52.3626 40.0899 54.4057C40.2324 54.4857 40.3932 54.5266 40.5566 54.5243H49.8898C51.1784 54.5243 52.223 55.5689 52.223 56.8576C52.223 58.1462 51.1784 59.1909 49.8898 59.1909H41.4899C40.9745 59.1909 40.5566 59.6087 40.5566 60.1242C40.5566 60.6396 40.9745 61.0575 41.4899 61.0575H51.7564C51.9097 61.0577 52.0606 61.0203 52.196 60.9483L65.4071 53.9017C65.7899 53.698 66.2167 53.5913 66.6503 53.591H66.8472C68.3064 53.5908 69.4895 54.7737 69.4897 56.2329C69.4897 57.1615 69.0025 58.0218 68.2061 58.4993Z" fill="#4183E4"/>
<path d="M65.7463 24.2219C65.6736 23.5117 65.2417 22.8885 64.6024 22.5711L62.1459 21.3428C62.0366 21.2894 61.9913 21.1575 62.0447 21.0483C62.0811 20.9737 62.1563 20.926 62.2392 20.9247H65.756V19.0581H63.8893V18.1248H62.0227V19.0805C60.8802 19.1974 60.0488 20.2183 60.1657 21.3608C60.2384 22.0709 60.6703 22.6942 61.3096 23.0116L63.7661 24.2399C63.8755 24.2933 63.9207 24.4252 63.8673 24.5344C63.8309 24.609 63.7558 24.6567 63.6728 24.658H60.1561V26.5246H62.0227V27.4579H63.8893V26.5022C65.0318 26.3853 65.8632 25.3644 65.7463 24.2219Z" fill="#4183E4"/>
</g>
<defs>
<clipPath id="clip0">
<rect width="56" height="56" fill="white" transform="translate(15.357 14.391)"/>
</clipPath>
</defs>
</svg>
