<svg width="87" height="87" viewBox="0 0 87 87" fill="none" xmlns="http://www.w3.org/2000/svg">
<circle cx="43.2849" cy="43.3997" r="42" stroke="#4183E4" stroke-width="2"/>
<g clip-path="url(#clip0)">
<path d="M67.0971 54.9868L52.8267 59.9937C52.618 60.0667 52.3982 60.1031 52.1769 60.1012H51.9546C52.2399 59.0859 52.109 57.9989 51.591 57.0803L51.5181 56.9482C50.6759 55.464 49.1057 54.5418 47.3992 54.5293H43.3678C41.9778 54.5195 40.6353 54.0224 39.5742 53.1245C38.1751 51.952 36.4095 51.3064 34.5841 51.2997H34.1112C33.8763 51.2997 29.0924 51.3433 26.0051 53.976C25.6578 53.4694 25.0832 53.1665 24.4691 53.1659H17.004C15.9738 53.1671 15.1389 54.0019 15.1377 55.0322V68.0962C15.1389 69.1264 15.9737 69.9613 17.004 69.9625H24.4691C25.0262 69.9604 25.5527 69.7082 25.9035 69.2755C27.5938 70.4304 29.6162 70.9995 31.6607 70.8957H51.9282C53.103 70.8915 54.2527 70.5549 55.2443 69.9248L69.6914 60.6659C70.4107 60.1923 70.9066 59.4468 71.0657 58.6004C71.2339 57.7266 71.0394 56.822 70.5271 56.0944C69.753 55.0092 68.3596 54.5592 67.0971 54.9868ZM24.469 68.0962H17.004V55.0323H24.4691V68.0962H24.469ZM69.233 58.2482C69.1729 58.5947 68.9733 58.9014 68.6808 59.0966L54.2437 68.349C53.5514 68.7896 52.7487 69.0253 51.9282 69.0293H31.6607C28.0931 69.0293 26.7044 67.6264 26.3353 67.1497V56.3235C28.6144 53.2156 34.0564 53.166 34.1111 53.166H34.584C35.9722 53.1723 37.3143 53.6645 38.3777 54.557C39.7745 55.7352 41.5404 56.3857 43.3677 56.3956H47.3992C48.4324 56.3975 49.3842 56.9569 49.8888 57.8586L49.9617 57.9907C50.3304 58.6505 50.3125 59.4584 49.9148 60.1012H45.3216C43.7525 60.1056 42.2229 60.5938 40.9412 61.499L40.3816 61.8918C40.1088 62.0833 39.9589 62.4056 39.9882 62.7376C40.0176 63.0696 40.2219 63.3607 40.524 63.5012C40.8263 63.6417 41.1804 63.6105 41.4533 63.419L42.011 63.0281C42.9793 62.3427 44.1352 61.9723 45.3216 61.9674H52.1771C52.6128 61.9694 53.0457 61.8961 53.4565 61.7505L67.706 56.751C68.1874 56.5874 68.719 56.7626 69.0091 57.1802C69.2255 57.4911 69.3064 57.8765 69.233 58.2482Z" fill="#4183E4"/>
<path d="M19.8034 65.2969C20.0505 65.293 20.2869 65.1965 20.466 65.0262C20.5483 64.9355 20.6146 64.8312 20.6619 64.7182C20.7097 64.606 20.7351 64.4856 20.7366 64.3637C20.733 64.1166 20.6364 63.8801 20.466 63.7011C20.0918 63.3557 19.5151 63.3557 19.141 63.7011C18.8719 63.968 18.7909 64.3713 18.9363 64.7215C19.0816 65.0716 19.4243 65.2991 19.8034 65.2969Z" fill="#4183E4"/>
<path d="M54.3294 26.1054C55.8754 26.1054 57.1288 24.852 57.1288 23.306C57.1288 21.76 55.8755 20.5066 54.3294 20.5066C52.7833 20.5066 51.53 21.7599 51.53 23.306C51.5317 24.8513 52.784 26.1037 54.3294 26.1054ZM54.3294 22.3729C54.8448 22.3729 55.2625 22.7906 55.2625 23.306C55.2625 23.8214 54.8448 24.2391 54.3294 24.2391C53.814 24.2391 53.3963 23.8214 53.3963 23.306C53.3968 22.7908 53.8142 22.3733 54.3294 22.3729Z" fill="#4183E4"/>
<path d="M50.5968 42.9016H58.0619C58.3093 42.9017 58.5467 42.8034 58.7218 42.6284C58.8968 42.4534 58.9951 42.216 58.9951 41.9684V38.2359C58.9952 37.9885 58.8969 37.7511 58.7218 37.576C58.5469 37.401 58.3095 37.3027 58.0619 37.3027H57.1288V28.9046C57.1289 28.6572 57.0306 28.4198 56.8555 28.2447C56.6806 28.0697 56.4431 27.9714 56.1956 27.9714H50.5968C50.3493 27.9713 50.1119 28.0696 49.9368 28.2447C49.7619 28.4197 49.6636 28.6571 49.6636 28.9046V32.6371C49.6635 32.8846 49.7618 33.122 49.9368 33.2971C50.1118 33.472 50.3492 33.5703 50.5968 33.5703H51.5299V37.3028H50.5968C50.3493 37.3027 50.1119 37.401 49.9368 37.5761C49.7619 37.7511 49.6636 37.9885 49.6636 38.236V41.9685C49.6635 42.216 49.7618 42.4534 49.9368 42.6285C50.1119 42.8034 50.3493 42.9017 50.5968 42.9016ZM51.5299 39.1691H52.463C52.7104 39.1693 52.9478 39.0709 53.1229 38.8959C53.2979 38.7209 53.3962 38.4835 53.3962 38.2359V32.6371C53.3963 32.3897 53.298 32.1523 53.1229 31.9772C52.9479 31.8022 52.7105 31.7039 52.463 31.7039H51.5299V29.8376H55.2624V38.2358C55.2623 38.4833 55.3606 38.7207 55.5356 38.8958C55.7106 39.0707 55.948 39.169 56.1956 39.169H57.1287V41.0353H51.5299V39.1691Z" fill="#4183E4"/>
<path d="M44.0649 44.993V50.3668C44.0649 50.7247 44.2696 51.0511 44.5918 51.2068C44.9141 51.3627 45.297 51.3203 45.5775 51.098L49.6818 47.8471C55.991 49.6631 62.7798 47.6371 67.0616 42.6601C71.3434 37.6832 72.3332 30.668 69.5955 24.7007C66.858 18.7335 60.8947 14.9082 54.3294 14.9077C47.1434 14.906 40.7528 19.4767 38.4325 26.2778C36.1122 33.0787 38.3764 40.6024 44.0649 44.993ZM41.0491 24.9188C44.3895 18.3842 51.9854 15.2485 58.9628 17.5235C65.9402 19.7986 70.2277 26.8093 69.074 34.0569C67.9203 41.3045 61.6683 46.6377 54.3294 46.6342C52.7828 46.6367 51.2453 46.3969 49.773 45.9234C49.476 45.8285 49.1514 45.8872 48.9064 46.0802L45.9312 48.4372V44.5256C45.9313 44.2265 45.7879 43.9456 45.5457 43.7702C39.6154 39.447 37.7086 31.4535 41.0491 24.9188Z" fill="#4183E4"/>
</g>
<defs>
<clipPath id="clip0">
<rect width="56" height="56" fill="white" transform="translate(15.1318 14.9077)"/>
</clipPath>
</defs>
</svg>
