<svg width="87" height="87" viewBox="0 0 87 87" fill="none" xmlns="http://www.w3.org/2000/svg">
<circle cx="43.2849" cy="43.3995" r="42" stroke="#4183E4" stroke-width="2"/>
<g clip-path="url(#clip0)">
<path d="M33.1486 58.9573C29.9197 58.9573 27.3023 61.5748 27.3023 64.8036C27.3023 68.0325 29.9198 70.6499 33.1486 70.6499C36.3775 70.6499 38.9949 68.0323 38.9949 64.8036C38.995 61.5748 36.3775 58.9573 33.1486 58.9573ZM33.1486 68.0516C31.3548 68.0516 29.9007 66.5975 29.9007 64.8037C29.9007 63.0099 31.3548 61.5558 33.1486 61.5558C34.9424 61.5558 36.3965 63.0099 36.3965 64.8037C36.3966 66.5975 34.9424 68.0516 33.1486 68.0516Z" fill="#4183E4"/>
<path d="M57.8332 58.9573C54.6043 58.9573 51.9869 61.5748 51.9869 64.8036C51.9869 68.0325 54.6045 70.6499 57.8332 70.6499C61.062 70.6499 63.6795 68.0323 63.6795 64.8036C63.6795 61.5748 61.0621 58.9573 57.8332 58.9573ZM57.8332 68.0516C56.0394 68.0516 54.5853 66.5975 54.5853 64.8037C54.5853 63.0099 56.0394 61.5558 57.8332 61.5558C59.627 61.5558 61.0812 63.0099 61.0812 64.8037C61.0813 66.5975 59.627 68.0516 57.8332 68.0516Z" fill="#4183E4"/>
<path d="M71.0201 24.8537C70.7495 24.5582 70.3794 24.3732 69.9808 24.334L27.6922 23.7494L26.5229 20.1766C25.6992 17.7882 23.4626 16.1758 20.9364 16.149H16.5841C15.8666 16.149 15.2849 16.7307 15.2849 17.4482C15.2849 18.1658 15.8666 18.7474 16.5841 18.7474H20.9364C22.349 18.7786 23.5928 19.6857 24.0545 21.021L32.3043 45.9005L31.6548 47.3945C30.9303 49.2628 31.1479 51.3656 32.2394 53.046C33.3205 54.6964 35.1393 55.715 37.1114 55.7743H62.3807C63.0983 55.7743 63.6799 55.1927 63.6799 54.4751C63.6799 53.7576 63.0983 53.1759 62.3807 53.1759H37.1113C35.9976 53.1481 34.9725 52.5622 34.383 51.6169C33.8001 50.6831 33.6804 49.5328 34.0582 48.4988L34.578 47.3295L61.9259 44.4713C64.9299 44.1404 67.4009 41.9556 68.0971 39.0146L71.2152 25.9578C71.3557 25.5818 71.2811 25.159 71.0201 24.8537ZM65.5636 38.4301C65.1418 40.3233 63.5345 41.7197 61.6011 41.873L34.578 44.6662L28.5367 26.3477L68.3568 26.9324L65.5636 38.4301Z" fill="#4183E4"/>
</g>
<defs>
<clipPath id="clip0">
<rect width="56" height="56" fill="white" transform="translate(15.2849 15.3995)"/>
</clipPath>
</defs>
</svg>
