<svg width="107" height="120" viewBox="0 0 107 120" fill="none" xmlns="http://www.w3.org/2000/svg">
<path opacity="0.41" d="M105.088 91.8282C104.698 93.8455 104.199 95.8782 103.181 97.6533C103.086 97.8188 102.991 97.9813 102.874 98.1377V98.0672L2.17676 97.7912V98.2266C1.87017 90.1389 0.0306716 82.1401 0.00921075 74.0433C0.00246657 69.3658 0.610624 64.7077 1.81806 60.1887C2.95548 55.9333 4.64476 51.7761 7.25992 48.232C14.3972 38.5531 26.9457 34.9477 37.1089 28.5217C47.9221 21.6879 51.6839 6.34647 63.5671 1.61588C69.8306 -0.885845 77.158 -0.419837 83.1977 2.57855C89.2374 5.57694 93.9802 11.0096 96.4268 17.2946C99.5601 25.3547 98.999 34.2947 100.002 42.8821C101.265 53.7351 105.057 64.159 105.977 75.0243C106.453 80.6399 106.154 86.2942 105.088 91.8282Z" fill="#4183E4"/>
<path opacity="0.66" d="M102.886 98.0794V98.2082C96.252 111.643 80.6837 119.381 73.4268 119.571L22.7148 120C11.1597 120 2.15222 110.349 2.15222 98.7938V98.2266V97.7912L102.886 98.0794Z" fill="#4183E4"/>
<path d="M15.4149 102.963C14.8201 103.19 14.0966 103.727 14.3848 104.294C14.5128 104.493 14.7006 104.647 14.9213 104.732C20.9794 107.927 28.0738 108.325 34.9137 108.663L61.5865 109.966C65.8265 110.171 70.2597 110.343 74.1104 108.562C75.5762 107.83 76.9674 106.959 78.2646 105.959C80.1041 104.634 81.9232 103.292 83.7218 101.933C84.1725 101.596 84.6416 101.204 84.7427 100.649C84.8439 100.011 84.3503 99.3977 83.7555 99.1433C83.141 98.9334 82.4882 98.8602 81.8425 98.9287C75.9499 99.1331 70.0553 99.2158 64.1587 99.177C60.4184 99.1555 56.6658 99.0912 52.9531 98.619C46.9072 97.8495 41.1434 97.0248 35.0424 97.7912C28.3528 98.6282 21.6815 100.557 15.4149 102.963Z" fill="url(#paint0_linear)"/>
<path d="M79.065 17.6778H43.581C40.4418 17.6778 37.8969 20.2226 37.8969 23.3619V93.6217C37.8969 96.7609 40.4418 99.3058 43.581 99.3058H79.065C82.2042 99.3058 84.749 96.7609 84.749 93.6217V23.3619C84.749 20.2226 82.2042 17.6778 79.065 17.6778Z" fill="#4183E4"/>
<path d="M79.065 17.6778H43.581C40.4418 17.6778 37.8969 20.2226 37.8969 23.3619V93.6217C37.8969 96.7609 40.4418 99.3058 43.581 99.3058H79.065C82.2042 99.3058 84.749 96.7609 84.749 93.6217V23.3619C84.749 20.2226 82.2042 17.6778 79.065 17.6778Z" fill="url(#paint1_linear)"/>
<path d="M76.1492 17.6778H40.6652C37.526 17.6778 34.9811 20.2226 34.9811 23.3619V93.6217C34.9811 96.7609 37.526 99.3058 40.6652 99.3058H76.1492C79.2884 99.3058 81.8333 96.7609 81.8333 93.6217V23.3619C81.8333 20.2226 79.2884 17.6778 76.1492 17.6778Z" fill="#4183E4"/>
<path d="M78.2984 27.0225V87.0854C78.2984 88.2825 77.823 89.4307 76.9768 90.2775C76.1305 91.1244 74.9827 91.6005 73.7855 91.6013H43.2497C42.6568 91.6013 42.0697 91.4845 41.522 91.2575C40.9743 91.0305 40.4766 90.6978 40.0575 90.2784C39.6384 89.8591 39.3061 89.3612 39.0795 88.8133C38.8529 88.2654 38.7364 87.6783 38.7368 87.0854V27.0225C38.7364 26.5341 38.8322 26.0505 39.0187 25.5991C39.2052 25.1478 39.4788 24.7376 39.8239 24.392C40.1689 24.0464 40.5787 23.7721 41.0297 23.5848C41.4807 23.3976 41.9642 23.301 42.4526 23.3006H74.5765C75.5633 23.3014 76.5096 23.6938 77.2074 24.3916C77.9052 25.0894 78.2976 26.0356 78.2984 27.0225Z" fill="white"/>
<path d="M78.2984 67.1359V87.0853C78.2984 88.2825 77.8231 89.4307 76.9768 90.2775C76.1306 91.1244 74.9827 91.6005 73.7855 91.6013H47.0606V67.1359H78.2984Z" fill="#4183E4"/>
<path d="M78.2954 67.1359V87.0853C78.2946 88.2818 77.8194 89.429 76.9739 90.2756C76.1285 91.1221 74.9819 91.5989 73.7855 91.6013H47.0606V67.1359H78.2954Z" fill="url(#paint2_linear)"/>
<path d="M78.2954 78.642V87.0853C78.2972 88.2443 77.8513 89.3592 77.0507 90.1972H48.0325V78.642H78.2954Z" fill="url(#paint3_linear)"/>
<path d="M38.274 23.3404L28.7361 33.5405H71.0846L79.5831 23.1963L38.274 23.3404Z" fill="#4183E4"/>
<path d="M43.5043 23.3006L34.9598 33.4791L71.1612 33.5159H28.7361L28.9937 33.2737L32.406 30.0761L38.7093 23.2975L43.5043 23.3006Z" fill="url(#paint4_linear)"/>
<path d="M56.0436 23.1534L47.5574 33.4792L83.7588 33.516H41.3337L41.5913 33.2738L49.6636 23.2975L56.0436 23.1534Z" fill="url(#paint5_linear)"/>
<path d="M68.1904 23.1534L59.7042 33.4792L53.4805 33.516L53.7381 33.2738L61.8104 23.2975L68.1904 23.1534Z" fill="url(#paint6_linear)"/>
<path d="M79.6445 23.1534L71.1583 33.4792L64.9346 33.516L65.1922 33.2738L73.2645 23.2975L79.6445 23.1534Z" fill="url(#paint7_linear)"/>
<path d="M47.4561 33.5374H53.5295C53.4277 34.2704 53.0642 34.9419 52.5061 35.4279C51.9479 35.9139 51.2328 36.1816 50.4928 36.1816C49.7527 36.1816 49.0376 35.9139 48.4795 35.4279C47.9213 34.9419 47.5578 34.2704 47.4561 33.5374Z" fill="#4183E4"/>
<path d="M41.2877 33.5374H47.3611C47.2594 34.2704 46.8959 34.9419 46.3377 35.4279C45.7796 35.9139 45.0645 36.1816 44.3244 36.1816C43.5844 36.1816 42.8693 35.9139 42.3111 35.4279C41.753 34.9419 41.3895 34.2704 41.2877 33.5374Z" fill="#4183E4"/>
<path d="M65.851 33.5006C65.7558 34.2366 65.3969 34.913 64.8409 35.4045C64.2849 35.896 63.5695 36.1691 62.8275 36.1732C62.0854 36.1773 61.367 35.9122 60.8056 35.4269C60.2442 34.9416 59.8778 34.2692 59.7745 33.5343H65.8142L65.851 33.5006Z" fill="#4183E4"/>
<path d="M71.1307 33.5006C70.9835 35.0335 69.8553 36.22 68.4879 36.22C67.1205 36.22 66.0076 35.0458 65.8482 33.5343H71.1092L71.1307 33.5006Z" fill="#4183E4"/>
<path d="M35.156 33.5374H41.2294C41.1277 34.2704 40.7642 34.9419 40.206 35.4279C39.6479 35.9139 38.9328 36.1816 38.1927 36.1816C37.4526 36.1816 36.7375 35.9139 36.1794 35.4279C35.6213 34.9419 35.2578 34.2704 35.156 33.5374Z" fill="#4183E4"/>
<path d="M53.6155 33.5374H59.6828C59.581 34.2704 59.2175 34.9419 58.6594 35.4279C58.1013 35.9139 57.3862 36.1816 56.6461 36.1816C55.906 36.1816 55.1909 35.9139 54.6328 35.4279C54.0746 34.9419 53.7111 34.2704 53.6094 33.5374H53.6155Z" fill="#4183E4"/>
<path d="M28.9815 33.5374H35.0549C34.9532 34.2704 34.5897 34.9419 34.0315 35.4279C33.4734 35.9139 32.7583 36.1816 32.0182 36.1816C31.2781 36.1816 30.563 35.9139 30.0049 35.4279C29.4468 34.9419 29.0833 34.2704 28.9815 33.5374Z" fill="#4183E4"/>
<path d="M47.4561 33.5374H53.5295C53.4277 34.2704 53.0642 34.9419 52.5061 35.4279C51.9479 35.9139 51.2328 36.1816 50.4928 36.1816C49.7527 36.1816 49.0376 35.9139 48.4795 35.4279C47.9213 34.9419 47.5578 34.2704 47.4561 33.5374Z" fill="url(#paint8_linear)"/>
<path d="M41.2877 33.5374H47.3611C47.2594 34.2704 46.8959 34.9419 46.3377 35.4279C45.7796 35.9139 45.0645 36.1816 44.3244 36.1816C43.5844 36.1816 42.8693 35.9139 42.3111 35.4279C41.753 34.9419 41.3895 34.2704 41.2877 33.5374Z" fill="url(#paint9_linear)"/>
<path d="M65.8481 33.5374C65.7529 34.2733 65.3941 34.9498 64.8381 35.4413C64.2821 35.9327 63.5667 36.2059 62.8246 36.21C62.0825 36.2141 61.3641 35.9489 60.8027 35.4637C60.2413 34.9784 59.8749 34.306 59.7716 33.5711H65.8144L65.8481 33.5374Z" fill="url(#paint10_linear)"/>
<path d="M71.1123 33.519C70.9682 35.0519 69.843 36.2415 68.4787 36.2415C67.1144 36.2415 66.0076 35.0642 65.8482 33.5558H71.0908L71.1123 33.519Z" fill="url(#paint11_linear)"/>
<path d="M35.156 33.5374H41.2294C41.1277 34.2704 40.7642 34.9419 40.206 35.4279C39.6479 35.9139 38.9328 36.1816 38.1927 36.1816C37.4526 36.1816 36.7375 35.9139 36.1794 35.4279C35.6213 34.9419 35.2578 34.2704 35.156 33.5374Z" fill="url(#paint12_linear)"/>
<path d="M53.6155 33.5374H59.6828C59.581 34.2704 59.2175 34.9419 58.6594 35.4279C58.1013 35.9139 57.3862 36.1816 56.6461 36.1816C55.906 36.1816 55.1909 35.9139 54.6328 35.4279C54.0746 34.9419 53.7111 34.2704 53.6094 33.5374H53.6155Z" fill="url(#paint13_linear)"/>
<path d="M28.9815 33.5374H35.0549C34.9532 34.2704 34.5897 34.9419 34.0315 35.4279C33.4734 35.9139 32.7583 36.1816 32.0182 36.1816C31.2781 36.1816 30.563 35.9139 30.0049 35.4279C29.4468 34.9419 29.0833 34.2704 28.9815 33.5374Z" fill="url(#paint14_linear)"/>
<path d="M35.0517 33.5374L43.446 23.3741L49.6635 23.2975L41.211 33.5374H35.0517Z" fill="url(#paint15_linear)"/>
<path d="M47.401 33.5374L55.7953 23.3741L61.6326 23.2423L53.5603 33.5374H47.401Z" fill="url(#paint16_linear)"/>
<path d="M59.7501 33.5374L68.1413 23.3741L73.9817 23.2423L65.9063 33.5374H59.7501Z" fill="url(#paint17_linear)"/>
<path d="M71.0908 33.5558L79.2336 31.9432L79.6751 23.1534L71.0908 33.5558Z" fill="#4183E4"/>
<path d="M71.1581 33.47L79.3009 31.8573L79.7455 23.0676L71.1581 33.47Z" fill="url(#paint18_linear)"/>
<path d="M59.9004 93.5113H53.3763C52.418 93.5113 51.6411 94.2882 51.6411 95.2466C51.6411 96.205 52.418 96.9819 53.3763 96.9819H59.9004C60.8588 96.9819 61.6357 96.205 61.6357 95.2466C61.6357 94.2882 60.8588 93.5113 59.9004 93.5113Z" fill="url(#paint19_linear)"/>
<path d="M36.1402 57.874C40.5917 57.874 44.2003 54.2654 44.2003 49.8139C44.2003 45.3625 40.5917 41.7538 36.1402 41.7538C31.6888 41.7538 28.0801 45.3625 28.0801 49.8139C28.0801 54.2654 31.6888 57.874 36.1402 57.874Z" fill="#4183E4"/>
<path d="M34.7084 57.874C39.1599 57.874 42.7685 54.2654 42.7685 49.8139C42.7685 45.3625 39.1599 41.7538 34.7084 41.7538C30.2569 41.7538 26.6483 45.3625 26.6483 49.8139C26.6483 54.2654 30.2569 57.874 34.7084 57.874Z" fill="url(#paint20_linear)"/>
<path d="M26.8903 74.0616C30.8321 74.0616 34.0276 70.8662 34.0276 66.9244C34.0276 62.9826 30.8321 59.7871 26.8903 59.7871C22.9485 59.7871 19.7531 62.9826 19.7531 66.9244C19.7531 70.8662 22.9485 74.0616 26.8903 74.0616Z" fill="#4183E4"/>
<path d="M25.6212 74.0616C29.563 74.0616 32.7584 70.8662 32.7584 66.9244C32.7584 62.9826 29.563 59.7871 25.6212 59.7871C21.6794 59.7871 18.4839 62.9826 18.4839 66.9244C18.4839 70.8662 21.6794 74.0616 25.6212 74.0616Z" fill="url(#paint21_linear)"/>
<path d="M60.9366 58.2695C59.9372 59.3426 59.3577 60.7222 58.7905 62.0834L57.1932 65.9525C57.1417 66.0407 57.1103 66.1392 57.1013 66.241C57.0923 66.3428 57.1059 66.4453 57.1411 66.5411C57.2017 66.618 57.2784 66.6806 57.3658 66.7246C57.4532 66.7686 57.5492 66.7928 57.647 66.7956C58.4599 66.9186 59.2785 67.0005 60.0996 67.0409C64.2467 67.2984 68.4009 67.3935 72.5623 67.326C73.0611 67.3523 73.5596 67.2675 74.0216 67.0777C75.1682 66.4982 75.248 64.904 75.0548 63.6378C74.8232 62.1623 74.4114 60.7208 73.8285 59.3456C73.6239 58.8006 73.3227 58.2969 72.9394 57.8587C71.989 56.8623 70.4867 56.7029 69.104 56.663C66.4797 56.5986 62.9049 56.151 60.9366 58.2695Z" fill="#4183E4"/>
<path d="M57.886 57.3835C57.8599 57.2431 57.7829 57.1172 57.6698 57.0301C57.5566 56.9429 57.4152 56.9006 57.2728 56.9114C56.9116 56.8955 56.5496 56.9088 56.1906 56.9512C55.9597 56.9575 55.7374 57.0406 55.559 57.1873C55.4299 57.3435 55.3499 57.5345 55.3291 57.7361C55.0378 59.315 55.375 60.9337 55.5038 62.5341C55.5927 63.6255 55.6019 64.7844 56.1906 65.7042C56.4567 66.1111 56.8207 66.4447 57.2492 66.6744C57.6777 66.9042 58.157 67.0228 58.6432 67.0194C59.0541 67.0194 59.5201 66.8692 59.6764 66.4921C59.7399 66.3017 59.7578 66.099 59.7285 65.9004C59.517 63.0277 59.1031 60.0262 57.886 57.3835Z" fill="#4183E4"/>
<path d="M57.6775 55.9763C57.8706 55.5593 58.1343 55.1792 58.3642 54.7806C58.4296 54.6806 58.4725 54.5677 58.4899 54.4495C58.4973 54.3883 58.486 54.3263 58.4575 54.2716C58.4291 54.2169 58.3848 54.1721 58.3305 54.1429C58.1006 54.054 57.9166 54.3728 57.6775 54.4219C57.4384 54.471 57.2667 54.2809 57.1103 54.1153C56.4284 53.4364 55.623 52.8943 54.7374 52.518C54.6918 52.4906 54.6411 52.4727 54.5884 52.4653C54.5358 52.4579 54.4821 52.4613 54.4308 52.4751C54.3357 52.518 54.3081 52.6866 54.4062 52.7173C54.3114 52.7247 54.2167 52.701 54.1364 52.6498C54.0506 52.6131 53.9249 52.61 53.885 52.6958C53.8452 52.7817 53.9617 52.9074 53.931 53.0024C53.8267 53.0049 53.7228 52.9883 53.6245 52.9534C53.5202 52.935 53.3823 52.9534 53.3639 53.0729C53.356 53.1124 53.356 53.153 53.3639 53.1925C53.3776 53.3526 53.3776 53.5137 53.3639 53.6738C53.412 54.1016 53.5908 54.5041 53.8759 54.8266C54.4443 55.5337 54.9568 56.2841 55.4088 57.0708C55.5173 57.3278 55.6629 57.5674 55.8411 57.7821C56.0925 58.0518 57.0245 58.4351 57.2697 57.966C57.3862 57.7453 57.2912 57.2609 57.3341 57.0033C57.403 56.6474 57.5184 56.3021 57.6775 55.9763Z" fill="url(#paint22_linear)"/>
<path d="M70.3271 62.4513C70.3872 62.6455 70.4037 62.8506 70.3756 63.0519C70.3476 63.2533 70.2755 63.446 70.1646 63.6163C69.8979 63.9413 69.4319 64.0057 69.0119 64.0272C66.967 64.1345 64.8791 63.7819 62.8802 64.2479C62.5931 64.2844 62.3281 64.4212 62.1321 64.6342C61.9612 64.9367 61.9119 65.293 61.9942 65.6306L62.1659 67.093L60.1731 66.7312C60.0983 66.7212 60.0264 66.6961 59.9615 66.6576C59.8671 66.5663 59.8112 66.4424 59.8052 66.3112C59.6419 65.5489 59.5709 64.7697 59.5936 63.9904C59.6203 63.2044 59.9294 62.4544 60.4643 61.878C60.9711 61.428 61.5824 61.1118 62.2425 60.9583C63.7754 60.5168 65.3881 60.388 66.9854 60.2592C67.6752 60.2041 68.8249 60.0508 69.4166 60.5198C69.9102 60.9184 70.2045 61.8657 70.3271 62.4513Z" fill="url(#paint23_linear)"/>
<path d="M61.8902 51.8956C61.8353 52.3963 61.8528 52.9022 61.9423 53.3979C62.0504 53.8328 62.2606 54.2357 62.5554 54.5732C62.8502 54.9107 63.2212 55.173 63.6377 55.3386C64.2509 55.5808 64.9775 55.6452 65.3975 56.1449C65.8175 56.6446 65.796 57.3099 66.2283 57.7269C66.4527 57.9145 66.7329 58.0226 67.0252 58.0342C67.3175 58.0459 67.6054 57.9604 67.844 57.7912C68.315 57.4356 68.6303 56.9116 68.7239 56.3288C68.8114 55.7517 68.8453 55.1677 68.8251 54.5844C68.8342 53.8061 68.8987 53.0295 69.0182 52.2605C69.1224 51.7253 69.1869 51.1833 69.2114 50.6386C69.2063 50.0086 69.0847 49.3849 68.8527 48.7991C68.3346 47.4348 67.2676 46.2054 65.8543 45.8437C65.2081 45.684 64.5279 45.7347 63.9125 45.9884C63.2972 46.242 62.7788 46.6854 62.4328 47.2539C62.0772 47.8273 62.1109 48.4098 62.068 49.0935C62.0108 50.0234 61.9515 50.9575 61.8902 51.8956Z" fill="url(#paint24_linear)"/>
<path d="M61.4884 44.0501C61.234 43.9459 60.8906 43.8509 60.7281 44.0716C60.6723 44.1638 60.6456 44.2706 60.6514 44.3782C60.6467 44.7667 60.7767 45.1448 61.0193 45.4482C60.7654 45.4301 60.5136 45.5053 60.3111 45.6597C60.026 45.9418 60.167 46.4384 60.4184 46.7481C60.6698 47.0577 61.0163 47.3091 61.1665 47.6678C61.2462 47.861 61.2646 48.0756 61.3413 48.281C61.3707 48.3818 61.428 48.4721 61.5067 48.5416C61.5854 48.611 61.6822 48.6568 61.7858 48.6734C62.0617 48.6734 62.2365 48.3975 62.399 48.1676C62.8324 47.5779 63.4752 47.1765 64.1953 47.046C64.9155 46.9154 65.6582 47.0655 66.2711 47.4655C67.4545 48.3055 67.7826 49.8906 68.0187 51.3223C68.1382 51.4082 68.2087 51.1782 68.2547 51.0403C68.359 50.7337 68.8372 50.7613 69.0089 51.0219C69.0803 51.1609 69.1118 51.317 69.0999 51.4729C69.088 51.6287 69.0332 51.7782 68.9415 51.9048C68.7759 52.1685 68.5337 52.377 68.3528 52.6314C68.2999 52.6912 68.2724 52.7693 68.2762 52.8491C68.2921 52.9157 68.3299 52.9751 68.3835 53.0177C68.5302 53.1642 68.6858 53.3014 68.8495 53.4286C68.9093 53.4886 68.9813 53.535 69.0607 53.5646C69.1401 53.5942 69.2249 53.6064 69.3094 53.6002C69.4246 53.5671 69.5259 53.4971 69.5976 53.401C70.2107 52.7142 70.4499 51.7607 70.5817 50.844C70.7135 49.9274 70.7043 48.8942 69.9931 48.3423C69.852 48.235 69.6865 48.1553 69.5577 48.0357C69.328 47.8082 69.1392 47.5426 68.9997 47.2509C68.2344 45.9635 67.0553 44.9735 65.6549 44.4426C65.0243 44.1467 64.3189 44.0484 63.6314 44.1605C62.9256 44.3712 62.1688 44.3322 61.4884 44.0501Z" fill="#B7A451"/>
<path d="M57.8125 66.5105C57.7052 66.6454 57.6071 66.8508 57.7267 66.9734C57.7685 67.0031 57.8158 67.0241 57.8658 67.0351C57.9158 67.0462 57.9676 67.0471 58.018 67.0378L61.6786 66.8201C61.7382 66.8207 61.7974 66.8103 61.8533 66.7895C62.0373 66.7067 62.0495 66.4584 62.0373 66.256L61.9729 65.3118C61.9514 64.9714 62.0219 64.8672 61.6908 64.8212C61.1929 64.7992 60.6951 64.8688 60.2223 65.0266C59.2863 65.2634 58.4453 65.7813 57.8125 66.5105Z" fill="url(#paint25_linear)"/>
<path d="M78.2955 68.2335H48.0203V77.2103H78.2955V68.2335Z" fill="url(#paint26_linear)"/>
<path d="M39.2549 54.4587H31.5198L32.832 47.4624H38.1329L39.2549 54.4587Z" fill="white"/>
<path d="M37.2286 48.0817H33.9113V47.7751C33.9113 47.3352 34.0861 46.9134 34.3971 46.6023C34.7082 46.2913 35.13 46.1165 35.5699 46.1165C36.0098 46.1165 36.4317 46.2913 36.7428 46.6023C37.0538 46.9134 37.2286 47.3352 37.2286 47.7751V48.0817ZM34.5429 47.4839H36.5847C36.5201 47.2632 36.3856 47.0694 36.2016 46.9315C36.0175 46.7937 35.7938 46.7192 35.5638 46.7192C35.3338 46.7192 35.1101 46.7937 34.926 46.9315C34.742 47.0694 34.6075 47.2632 34.5429 47.4839Z" fill="white"/>
<path d="M55.9485 70.7904H50.1448V77.0938H55.9485V70.7904Z" fill="#4183E4"/>
<path d="M55.9485 70.7904H50.1448V77.0938H55.9485V70.7904Z" fill="url(#paint27_linear)"/>
<path d="M63.4446 73.5221H57.641V77.0938H63.4446V73.5221Z" fill="url(#paint28_linear)"/>
<path d="M55.1237 70.7904H49.3201V77.0938H55.1237V70.7904Z" fill="#4183E4"/>
<path d="M62.2703 73.8808H57.7604V77.1643H62.2703V73.8808Z" fill="#4183E4"/>
<path d="M55.8196 83.5351H50.016V89.8385H55.8196V83.5351Z" fill="#4183E4"/>
<path d="M62.1415 86.6255H57.6317V89.909H62.1415V86.6255Z" fill="#4183E4"/>
<path d="M67.6814 77.1643C68.8091 77.1643 69.7232 76.2501 69.7232 75.1224C69.7232 73.9948 68.8091 73.0806 67.6814 73.0806C66.5537 73.0806 65.6395 73.9948 65.6395 75.1224C65.6395 76.2501 66.5537 77.1643 67.6814 77.1643Z" fill="url(#paint29_linear)"/>
<path d="M66.9304 77.1643C68.0581 77.1643 68.9722 76.2501 68.9722 75.1224C68.9722 73.9948 68.0581 73.0806 66.9304 73.0806C65.8027 73.0806 64.8885 73.9948 64.8885 75.1224C64.8885 76.2501 65.8027 77.1643 66.9304 77.1643Z" fill="#4183E4"/>
<path d="M65.8207 89.9642C66.9483 89.9642 67.8625 89.05 67.8625 87.9223C67.8625 86.7946 66.9483 85.8805 65.8207 85.8805C64.693 85.8805 63.7788 86.7946 63.7788 87.9223C63.7788 89.05 64.693 89.9642 65.8207 89.9642Z" fill="url(#paint30_linear)"/>
<path d="M65.0664 89.9642C66.1941 89.9642 67.1083 89.05 67.1083 87.9223C67.1083 86.7946 66.1941 85.8805 65.0664 85.8805C63.9388 85.8805 63.0246 86.7946 63.0246 87.9223C63.0246 89.05 63.9388 89.9642 65.0664 89.9642Z" fill="#4183E4"/>
<path d="M74.141 77.1643C75.6446 77.1643 76.8635 75.9454 76.8635 74.4418C76.8635 72.9382 75.6446 71.7193 74.141 71.7193C72.6375 71.7193 71.4186 72.9382 71.4186 74.4418C71.4186 75.9454 72.6375 77.1643 74.141 77.1643Z" fill="url(#paint31_linear)"/>
<path d="M73.1385 77.1643C74.6421 77.1643 75.861 75.9454 75.861 74.4418C75.861 72.9382 74.6421 71.7193 73.1385 71.7193C71.635 71.7193 70.4161 72.9382 70.4161 74.4418C70.4161 75.9454 71.635 77.1643 73.1385 77.1643Z" fill="#4183E4"/>
<path d="M71.5628 89.8691C73.0664 89.8691 74.2853 88.6502 74.2853 87.1467C74.2853 85.6431 73.0664 84.4242 71.5628 84.4242C70.0592 84.4242 68.8403 85.6431 68.8403 87.1467C68.8403 88.6502 70.0592 89.8691 71.5628 89.8691Z" fill="url(#paint32_linear)"/>
<path d="M70.5602 89.8691C72.0638 89.8691 73.2827 88.6502 73.2827 87.1467C73.2827 85.6431 72.0638 84.4242 70.5602 84.4242C69.0567 84.4242 67.8378 85.6431 67.8378 87.1467C67.8378 88.6502 69.0567 89.8691 70.5602 89.8691Z" fill="#4183E4"/>
<path d="M26.0106 65.5969C26.0106 67.1114 25.2165 67.8595 24.2876 67.8595C23.3586 67.8595 22.6228 67.1421 22.6106 65.7134C22.5983 64.2847 23.3954 63.4723 24.3428 63.4723C25.3453 63.4569 26.0106 64.2295 26.0106 65.5969ZM23.3831 65.6643C23.3617 66.5841 23.7051 67.277 24.3029 67.277C24.9007 67.277 25.2226 66.5902 25.2226 65.6429C25.2226 64.7691 24.9682 64.0425 24.3029 64.0425C23.7051 64.0425 23.3831 64.7722 23.3831 65.6643ZM24.2232 70.8763L28.4387 63.46H29.0519L24.8394 70.8732L24.2232 70.8763ZM30.6798 68.5708C30.6798 70.0822 29.8827 70.8334 28.9691 70.8334C28.0555 70.8334 27.3013 70.1159 27.2921 68.6873C27.2829 67.2586 28.0739 66.4369 29.0243 66.4369C30.0268 66.4277 30.6798 67.1973 30.6798 68.5677V68.5708ZM28.0524 68.6351C28.0524 69.5549 28.3958 70.2478 28.9906 70.2478C29.6313 70.2478 29.9103 69.5641 29.9103 68.6137C29.9103 67.743 29.6559 67.0133 28.9906 67.0133C28.3835 67.0102 28.0524 67.7277 28.0524 68.6321V68.6351Z" fill="white"/>
<defs>
<linearGradient id="paint0_linear" x1="50.8959" y1="81.6649" x2="48.5321" y2="117.339" gradientUnits="userSpaceOnUse">
<stop offset="0.01"/>
<stop offset="0.13" stop-opacity="0.69"/>
<stop offset="1" stop-opacity="0"/>
</linearGradient>
<linearGradient id="paint1_linear" x1="7714.15" y1="15711.5" x2="18322.8" y2="15464.6" gradientUnits="userSpaceOnUse">
<stop offset="0.01"/>
<stop offset="0.13" stop-opacity="0.69"/>
<stop offset="1" stop-opacity="0"/>
</linearGradient>
<linearGradient id="paint2_linear" x1="7656.47" y1="8472.23" x2="7539.33" y2="4382.44" gradientUnits="userSpaceOnUse">
<stop offset="0.01"/>
<stop offset="0.13" stop-opacity="0.69"/>
<stop offset="1" stop-opacity="0"/>
</linearGradient>
<linearGradient id="paint3_linear" x1="7250.6" y1="2934.61" x2="7314.12" y2="4273.91" gradientUnits="userSpaceOnUse">
<stop offset="0.01"/>
<stop offset="0.13" stop-opacity="0.69"/>
<stop offset="1" stop-opacity="0"/>
</linearGradient>
<linearGradient id="paint4_linear" x1="7079.36" y1="713.554" x2="7065.17" y2="1465.35" gradientUnits="userSpaceOnUse">
<stop offset="0.01"/>
<stop offset="0.13" stop-opacity="0.69"/>
<stop offset="1" stop-opacity="0"/>
</linearGradient>
<linearGradient id="paint5_linear" x1="8837.32" y1="717.029" x2="8822.53" y2="1488.92" gradientUnits="userSpaceOnUse">
<stop offset="0.01"/>
<stop offset="0.13" stop-opacity="0.69"/>
<stop offset="1" stop-opacity="0"/>
</linearGradient>
<linearGradient id="paint6_linear" x1="3005.9" y1="679.517" x2="2963.43" y2="1449.33" gradientUnits="userSpaceOnUse">
<stop offset="0.01"/>
<stop offset="0.13" stop-opacity="0.69"/>
<stop offset="1" stop-opacity="0"/>
</linearGradient>
<linearGradient id="paint7_linear" x1="3566.92" y1="679.517" x2="3524.38" y2="1449.34" gradientUnits="userSpaceOnUse">
<stop offset="0.01"/>
<stop offset="0.13" stop-opacity="0.69"/>
<stop offset="1" stop-opacity="0"/>
</linearGradient>
<linearGradient id="paint8_linear" x1="49.55" y1="24.8611" x2="51.7789" y2="45.3654" gradientUnits="userSpaceOnUse">
<stop offset="0.02" stop-color="white" stop-opacity="0"/>
<stop offset="0.32" stop-color="white" stop-opacity="0.39"/>
<stop offset="0.68" stop-color="white" stop-opacity="0.68"/>
<stop offset="1" stop-color="white"/>
</linearGradient>
<linearGradient id="paint9_linear" x1="1122.96" y1="271.467" x2="1131.41" y2="450.003" gradientUnits="userSpaceOnUse">
<stop offset="0.01"/>
<stop offset="0.13" stop-opacity="0.69"/>
<stop offset="1" stop-opacity="0"/>
</linearGradient>
<linearGradient id="paint10_linear" x1="1503.92" y1="256.998" x2="1512.54" y2="437.472" gradientUnits="userSpaceOnUse">
<stop offset="0.02" stop-color="white" stop-opacity="0"/>
<stop offset="0.32" stop-color="white" stop-opacity="0.39"/>
<stop offset="0.68" stop-color="white" stop-opacity="0.68"/>
<stop offset="1" stop-color="white"/>
</linearGradient>
<linearGradient id="paint11_linear" x1="1414.66" y1="262.751" x2="1424.81" y2="443.488" gradientUnits="userSpaceOnUse">
<stop offset="0.01"/>
<stop offset="0.13" stop-opacity="0.69"/>
<stop offset="1" stop-opacity="0"/>
</linearGradient>
<linearGradient id="paint12_linear" x1="996.215" y1="277.152" x2="1004.66" y2="455.715" gradientUnits="userSpaceOnUse">
<stop offset="0.02" stop-color="white" stop-opacity="0"/>
<stop offset="0.32" stop-color="white" stop-opacity="0.39"/>
<stop offset="0.68" stop-color="white" stop-opacity="0.68"/>
<stop offset="1" stop-color="white"/>
</linearGradient>
<linearGradient id="paint13_linear" x1="1376.46" y1="260.043" x2="1384.91" y2="438.58" gradientUnits="userSpaceOnUse">
<stop offset="0.01"/>
<stop offset="0.13" stop-opacity="0.69"/>
<stop offset="1" stop-opacity="0"/>
</linearGradient>
<linearGradient id="paint14_linear" x1="869.483" y1="282.863" x2="877.932" y2="461.426" gradientUnits="userSpaceOnUse">
<stop offset="0.01"/>
<stop offset="0.13" stop-opacity="0.69"/>
<stop offset="1" stop-opacity="0"/>
</linearGradient>
<linearGradient id="paint15_linear" x1="1705.62" y1="972.434" x2="2402.02" y2="972.434" gradientUnits="userSpaceOnUse">
<stop offset="0.02" stop-color="white" stop-opacity="0"/>
<stop offset="0.32" stop-color="white" stop-opacity="0.39"/>
<stop offset="0.68" stop-color="white" stop-opacity="0.68"/>
<stop offset="1" stop-color="white"/>
</linearGradient>
<linearGradient id="paint16_linear" x1="2247.75" y1="976.567" x2="2908.38" y2="976.567" gradientUnits="userSpaceOnUse">
<stop offset="0.02" stop-color="white" stop-opacity="0"/>
<stop offset="0.32" stop-color="white" stop-opacity="0.39"/>
<stop offset="0.68" stop-color="white" stop-opacity="0.68"/>
<stop offset="1" stop-color="white"/>
</linearGradient>
<linearGradient id="paint17_linear" x1="2833.35" y1="976.567" x2="3493.98" y2="976.567" gradientUnits="userSpaceOnUse">
<stop offset="0.02" stop-color="white" stop-opacity="0"/>
<stop offset="0.32" stop-color="white" stop-opacity="0.39"/>
<stop offset="0.68" stop-color="white" stop-opacity="0.68"/>
<stop offset="1" stop-color="white"/>
</linearGradient>
<linearGradient id="paint18_linear" x1="2439.48" y1="1133.31" x2="1956.8" y2="938.35" gradientUnits="userSpaceOnUse">
<stop offset="0.01"/>
<stop offset="0.13" stop-opacity="0.69"/>
<stop offset="1" stop-opacity="0"/>
</linearGradient>
<linearGradient id="paint19_linear" x1="1883.46" y1="1087.12" x2="1887.29" y2="1271.57" gradientUnits="userSpaceOnUse">
<stop offset="0.01"/>
<stop offset="0.13" stop-opacity="0.69"/>
<stop offset="1" stop-opacity="0"/>
</linearGradient>
<linearGradient id="paint20_linear" x1="1427.81" y1="2660.96" x2="2275.25" y2="2660.96" gradientUnits="userSpaceOnUse">
<stop offset="0.02" stop-color="white" stop-opacity="0"/>
<stop offset="0.32" stop-color="white" stop-opacity="0.39"/>
<stop offset="0.68" stop-color="white" stop-opacity="0.68"/>
<stop offset="1" stop-color="white"/>
</linearGradient>
<linearGradient id="paint21_linear" x1="879.096" y1="3175.78" x2="1543.72" y2="3175.78" gradientUnits="userSpaceOnUse">
<stop offset="0.02" stop-color="white" stop-opacity="0"/>
<stop offset="0.32" stop-color="white" stop-opacity="0.39"/>
<stop offset="0.68" stop-color="white" stop-opacity="0.68"/>
<stop offset="1" stop-color="white"/>
</linearGradient>
<linearGradient id="paint22_linear" x1="53.3577" y1="55.3478" x2="58.4899" y2="55.3478" gradientUnits="userSpaceOnUse">
<stop stop-color="#E5C5D5"/>
<stop offset="0.42" stop-color="#EAD4D1"/>
<stop offset="1" stop-color="#F0E9CB"/>
</linearGradient>
<linearGradient id="paint23_linear" x1="63.7785" y1="59.4683" x2="68.3527" y2="76.873" gradientUnits="userSpaceOnUse">
<stop stop-opacity="0"/>
<stop offset="0.99"/>
</linearGradient>
<linearGradient id="paint24_linear" x1="4309.23" y1="-8312.06" x2="4490.84" y2="-8385.03" gradientUnits="userSpaceOnUse">
<stop stop-color="#E5C5D5"/>
<stop offset="0.42" stop-color="#EAD4D1"/>
<stop offset="1" stop-color="#F0E9CB"/>
</linearGradient>
<linearGradient id="paint25_linear" x1="1038.19" y1="558.661" x2="1100.44" y2="558.661" gradientUnits="userSpaceOnUse">
<stop stop-color="#E5C5D5"/>
<stop offset="0.42" stop-color="#EAD4D1"/>
<stop offset="1" stop-color="#F0E9CB"/>
</linearGradient>
<linearGradient id="paint26_linear" x1="6175.41" y1="1936.03" x2="6207.61" y2="2811.07" gradientUnits="userSpaceOnUse">
<stop offset="0.01"/>
<stop offset="0.13" stop-opacity="0.69"/>
<stop offset="1" stop-opacity="0"/>
</linearGradient>
<linearGradient id="paint27_linear" x1="1114.47" y1="1573.76" x2="919.978" y2="1621.04" gradientUnits="userSpaceOnUse">
<stop offset="0.01"/>
<stop offset="0.13" stop-opacity="0.69"/>
<stop offset="1" stop-opacity="0"/>
</linearGradient>
<linearGradient id="paint28_linear" x1="1258.07" y1="942.015" x2="1100.92" y2="1009.41" gradientUnits="userSpaceOnUse">
<stop offset="0.01"/>
<stop offset="0.13" stop-opacity="0.69"/>
<stop offset="1" stop-opacity="0"/>
</linearGradient>
<linearGradient id="paint29_linear" x1="980.43" y1="1039.73" x2="938.245" y2="1147.78" gradientUnits="userSpaceOnUse">
<stop offset="0.01"/>
<stop offset="0.13" stop-opacity="0.69"/>
<stop offset="1" stop-opacity="0"/>
</linearGradient>
<linearGradient id="paint30_linear" x1="953.782" y1="1223.03" x2="911.557" y2="1331.08" gradientUnits="userSpaceOnUse">
<stop offset="0.01"/>
<stop offset="0.13" stop-opacity="0.69"/>
<stop offset="1" stop-opacity="0"/>
</linearGradient>
<linearGradient id="paint31_linear" x1="1411.74" y1="1333.42" x2="1336.71" y2="1525.52" gradientUnits="userSpaceOnUse">
<stop offset="0.01"/>
<stop offset="0.13" stop-opacity="0.69"/>
<stop offset="1" stop-opacity="0"/>
</linearGradient>
<linearGradient id="paint32_linear" x1="1363.37" y1="1571.71" x2="1288.34" y2="1763.8" gradientUnits="userSpaceOnUse">
<stop offset="0.01"/>
<stop offset="0.13" stop-opacity="0.69"/>
<stop offset="1" stop-opacity="0"/>
</linearGradient>
</defs>
</svg>
