<svg width="143" height="120" viewBox="0 0 143 120" fill="none" xmlns="http://www.w3.org/2000/svg">
<g clip-path="url(#clip0)">
<path opacity="0.24" d="M140.589 42.75C138.505 55.2821 137.746 67.999 138.327 80.69C138.749 90.1182 139.37 101.021 132.393 107.387C124.777 114.344 112.91 111.686 102.608 112.159C88.8914 112.788 76.0105 119.734 62.2861 119.992C53.3104 120.169 44.5441 117.452 36.1996 114.155C25.6035 109.964 15.1045 104.563 7.73373 95.8737C4.2298 91.7538 2.23376 87.7081 1.16035 83.5755C-0.2172 78.2314 -0.0587435 72.7212 0.355287 66.6104C0.442183 65.3325 0.541857 63.9933 0.638975 62.6464C1.5846 49.952 -2.92374 37.25 3.64964 25.2635C10.1055 13.5071 24.5505 8.65118 37.912 7.52409C51.2734 6.39701 64.9825 7.89723 77.912 4.3473C82.7679 3.00042 87.4756 0.953268 92.4797 0.273439C97.1261 -0.355274 101.849 0.214657 106.483 0.953268C113.813 2.1238 121.204 3.72625 127.695 7.32986C134.187 10.9335 139.738 16.7861 141.496 23.9882C142.971 30.1143 141.624 36.5318 140.589 42.75Z" fill="#4183E4"/>
<path d="M138.286 65.5088C138.229 65.762 138.111 65.9977 137.944 66.1963C137.848 66.3093 137.726 66.397 137.589 66.4519C137.106 66.6385 136.584 66.3318 136.152 66.0379C135.199 65.4191 134.283 64.7458 133.408 64.0214C132.896 63.5767 132.237 62.9991 132.217 62.3269C132.2 62.0754 132.269 61.8257 132.413 61.619C132.581 61.3785 132.805 61.1829 133.065 61.0492C133.326 60.9155 133.616 60.8479 133.908 60.8523C134.492 60.8589 135.066 61.0034 135.582 61.274C136.419 61.6364 137.147 62.2096 137.696 62.9377C137.971 63.2999 138.166 63.7165 138.268 64.1598C138.37 64.603 138.376 65.0629 138.286 65.5088Z" fill="#4183E4"/>
<path d="M137.944 66.1963C137.848 66.3093 137.726 66.397 137.589 66.4519C137.106 66.6384 136.584 66.3318 136.152 66.0378C135.199 65.4191 134.283 64.7458 133.407 64.0214C132.896 63.5767 132.237 62.9991 132.216 62.3269C132.568 61.9876 133.037 61.7979 133.525 61.7979C134.111 61.8058 134.686 61.9502 135.207 62.2196C136.042 62.5859 136.77 63.1584 137.323 63.8833C137.814 64.5485 138.036 65.3746 137.944 66.1963Z" fill="url(#paint0_linear)"/>
<path d="M1.05296 67.1038C0.945615 67.3006 1.05296 66.8865 1.05296 67.1038V67.1038Z" fill="#FECB9C"/>
<path d="M53.3793 44.4727C52.771 45.6253 50.9488 45.495 50.154 46.5019C49.8089 46.9338 49.7195 47.5242 49.6428 48.0763C49.2901 50.6525 48.9246 53.221 48.5617 55.7895C49.5559 56.4003 50.5884 57.0674 51.0996 58.1229C51.6107 59.1784 51.2862 60.6786 50.1846 61.0646C48.9937 61.4479 47.9023 60.3643 46.8392 59.7049C45.5996 58.9177 43.6419 58.8308 42.9416 60.1292C43.6419 60.5432 44.3601 60.9853 44.8227 61.6626C45.2853 62.3399 45.4233 63.3136 44.9198 63.9628C44.1837 64.8777 42.7449 64.5813 41.6535 64.1289C40.5622 63.6765 39.2537 63.1935 38.3081 63.904C39.0428 64.4709 39.6556 65.1802 40.1099 65.9895C40.3833 66.4623 40.5801 67.0706 40.276 67.5229C39.9719 67.9753 39.3023 67.9753 38.7425 67.8756C36.1561 67.3952 33.8125 65.6624 31.2159 65.5448C31.0584 65.5346 30.9005 65.5346 30.7431 65.5448C28.057 65.624 25.8437 67.5229 23.5307 68.9005C23.4396 68.9585 23.3449 69.0106 23.2471 69.0564C21.4893 70.0871 19.5847 70.8438 17.5989 71.3003C16.5638 71.538 15.5313 71.3693 14.5192 71.6735C13.3665 72.0185 12.4235 72.7571 11.4881 73.5136C7.772 76.5498 3.99205 79.6781 1.16028 83.5756C-0.217264 78.2315 -0.0588073 72.7213 0.355224 66.6105C1.0325 66.3166 1.57432 66.0789 1.6331 66.0406C4.30811 64.4458 6.9908 62.8579 9.68114 61.2767C9.87866 61.1415 10.0984 61.042 10.3303 60.9828C11.0791 60.855 11.6491 61.5629 12.0427 62.2325C13.3614 60.3132 15.2501 58.7976 17.1899 57.5197C19.3342 56.0834 21.5884 54.8234 23.8349 53.5532C25.8999 52.3827 27.9752 51.2224 30.0428 50.0493C32.343 48.7714 34.6764 47.4527 37.1657 46.5479C39.292 45.7812 41.5258 45.3084 43.6112 44.4318C45.7376 43.5551 47.2327 42.7194 49.4895 42.3463C50.3661 42.2083 51.7896 42.0217 52.541 42.4741C53.2924 42.9264 53.7831 43.6829 53.3793 44.4727Z" fill="#FECB9C"/>
<path d="M33.2197 64.2693C33.0612 64.8776 32.2638 65.105 31.6045 65.1843C31.521 65.2108 31.4439 65.2542 31.378 65.3118C31.312 65.3694 31.2586 65.44 31.2211 65.5191C31.0637 65.5088 30.9057 65.5088 30.7483 65.5191C28.0622 65.5983 25.8489 67.4972 23.536 68.8747C23.4448 68.9327 23.3501 68.9848 23.2523 69.0306C23.0453 68.3636 23.0555 66.4545 24.4611 62.0662C24.7167 61.2995 25.003 60.2772 25.2279 59.5361C25.359 59.0454 25.5514 58.5731 25.8004 58.1304C26.6792 56.7692 28.0329 55.7835 29.5982 55.3651C29.7396 55.3085 29.8911 55.2819 30.0433 55.2867C30.1955 55.2915 30.345 55.3278 30.4825 55.3932C30.7789 55.5695 30.8173 55.9733 30.7202 56.2903C30.623 56.6072 30.4135 56.8883 30.3061 57.2052C29.864 58.3936 30.8173 59.5846 31.5559 60.6376C32.1663 61.4859 32.6718 62.405 33.0612 63.3748C33.2057 63.6492 33.2611 63.9619 33.2197 64.2693Z" fill="url(#paint1_linear)"/>
<path d="M55.8982 49.9403L47.8471 40.3215C47.386 39.7706 46.5655 39.6978 46.0146 40.1589L25.8461 57.0404C25.2951 57.5015 25.2223 58.322 25.6835 58.8729L33.7346 68.4917C34.1958 69.0427 35.0162 69.1154 35.5671 68.6543L55.7357 51.7728C56.2866 51.3117 56.3594 50.4913 55.8982 49.9403Z" fill="#4183E4"/>
<path d="M55.8982 49.9403L47.8471 40.3215C47.386 39.7706 46.5655 39.6978 46.0146 40.1589L25.8461 57.0404C25.2951 57.5015 25.2223 58.322 25.6835 58.8729L33.7346 68.4917C34.1958 69.0427 35.0162 69.1154 35.5671 68.6543L55.7357 51.7728C56.2866 51.3117 56.3594 50.4913 55.8982 49.9403Z" fill="url(#paint2_linear)"/>
<path d="M54.3069 50.6189L46.7922 41.641C46.38 41.1485 45.6466 41.0834 45.1541 41.4957L27.8313 55.9952C27.3388 56.4075 27.2737 57.1409 27.6859 57.6333L35.2006 66.6113C35.6129 67.1038 36.3463 67.1688 36.8388 66.7566L54.1616 52.257C54.6541 51.8448 54.7192 51.1114 54.3069 50.6189Z" fill="#FFFBFF"/>
<path d="M13.9595 55.0865C14.9992 54.1127 16.1249 53.235 17.3229 52.4643C18.6194 51.7097 19.9729 51.0577 21.3712 50.5143C24.0087 49.4179 26.6488 48.3163 29.3809 47.4934C30.2115 47.2378 31.0472 47.018 31.883 46.7957L39.1081 44.8584C39.3355 45.5817 38.9445 46.3484 38.5075 46.9669C37.1438 48.8969 35.2336 50.3745 33.0228 51.2094C32.3967 51.4446 31.745 51.6337 31.2134 52.0503C30.8269 52.3971 30.4836 52.7892 30.1911 53.2183C28.5937 55.2628 26.2552 56.8193 25.3351 59.2447C25.0259 60.0498 24.8828 60.9289 24.4253 61.6573C23.9141 62.4573 23.0963 62.9889 22.2964 63.4924C19.2295 65.4322 16.0706 67.3924 12.5436 68.2921C12.127 68.4344 11.6786 68.4556 11.2504 68.3534C10.8327 68.1708 10.4735 67.8763 10.2128 67.5023C9.27227 66.3957 8.25764 65.3172 7.38102 64.1594C6.53762 63.0425 6.94143 62.3423 7.79761 61.389C9.73702 59.1791 11.794 57.0753 13.9595 55.0865Z" fill="#FECB9C"/>
<path d="M46.2303 54.4197L41.0196 47.9644L37.8078 50.5569L43.0185 57.0122L46.2303 54.4197Z" fill="#FFFBFF"/>
<path d="M138.386 84.5977C135.493 80.2198 131.381 76.8155 127.335 73.4777C126.41 72.711 125.467 71.9826 124.306 71.6376C123.302 71.3334 122.262 71.5021 121.224 71.2644C119.202 70.7975 117.264 70.0217 115.479 68.9642L115.303 68.8569C113.002 67.4793 110.776 65.5804 108.09 65.5012C107.575 65.4856 107.06 65.5354 106.557 65.6494C104.374 66.0916 102.337 67.4385 100.104 67.8423C99.5617 67.9419 98.9023 67.9419 98.5701 67.4896C98.2378 67.0372 98.4704 66.4366 98.7362 65.9561C99.1917 65.1447 99.8083 64.435 100.548 63.8706C99.6026 63.1601 98.2838 63.6534 97.2028 64.0955C96.1217 64.5377 94.6623 64.8444 93.9365 63.9294C93.4254 63.2879 93.5506 62.3142 94.0234 61.6292C94.4962 60.9443 95.2144 60.5175 95.9044 60.0958C95.2144 58.7975 93.2465 58.8844 92.0069 59.6715C90.954 60.3309 89.8626 61.4146 88.6717 61.0312C87.5701 60.6555 87.2532 59.1323 87.7465 58.0895C88.2397 57.0468 89.2799 56.367 90.2844 55.7561C89.9214 53.1876 89.5662 50.6191 89.2033 48.0429C89.1343 47.4908 89.0346 46.9005 88.6921 46.4685C87.8973 45.4462 86.075 45.5919 85.477 44.4393C85.0732 43.6521 85.546 42.9058 86.3025 42.4432C87.059 41.9806 88.4774 42.1877 89.3438 42.3155C91.6159 42.6886 93.1008 43.5243 95.2374 44.4009C97.3126 45.2776 99.5566 45.7504 101.673 46.5171C104.162 47.4218 106.493 48.7304 108.806 50.0185C110.873 51.1916 112.938 52.3519 115.014 53.5224C117.268 54.8003 119.512 56.0526 121.659 57.4889C123.599 58.7668 125.492 60.2824 126.816 62.2017C127.2 61.5321 127.769 60.8242 128.526 60.952C128.756 61.0106 128.973 61.1102 129.167 61.2459C131.854 62.8304 134.541 64.4184 137.226 66.0098C137.412 66.1171 138.079 66.5772 138.179 66.7637C137.969 72.6292 137.785 78.7911 138.386 84.5977Z" fill="#FECB9C"/>
<path d="M132.702 63.0886L131.498 62.4548C131.442 62.4166 131.374 62.3994 131.307 62.4063C131.246 62.428 131.196 62.4718 131.166 62.5289C130.958 62.9007 130.821 63.3081 130.762 63.7301C130.371 65.493 129.567 67.1379 128.416 68.5298C127.772 69.3093 126.993 70.0633 126.768 71.0421C126.543 72.021 126.913 73.0228 127.519 73.7947C128.125 74.5665 128.968 75.1415 129.789 75.6527C130.609 76.1638 131.478 76.675 132.181 77.3701C134.095 76.1178 135.148 73.9199 135.948 71.7756C135.989 71.6632 136.071 71.52 136.203 71.5456C136.259 71.5626 136.306 71.5977 136.339 71.6453C136.968 72.3813 137.333 73.35 138.128 73.9173L138.424 67.0909C138.445 66.9479 138.425 66.802 138.368 66.6692C138.279 66.5421 138.155 66.4436 138.01 66.3856C136.377 65.5316 134.82 64.5389 133.356 63.4183" fill="url(#paint3_linear)"/>
<path d="M137.775 67.1038C137.775 66.8865 137.893 67.3006 137.775 67.1038V67.1038Z" fill="#FECB9C"/>
<path d="M119.573 67.1726C119.597 67.5219 119.539 67.8719 119.405 68.1949C119.07 68.8339 118.224 68.9821 117.506 69.0128C116.83 69.0376 116.153 69.0239 115.479 68.9719L115.303 68.8645C113.002 67.487 110.776 65.5881 108.09 65.5088C107.575 65.4932 107.06 65.543 106.557 65.6571C106.042 65.2995 105.57 64.8835 105.151 64.4175C104.544 63.7178 104.099 62.8929 103.847 62.0014C103.595 61.11 103.543 60.1739 103.694 59.26C104.226 56.211 108.55 52.3825 111.024 55.9938C111.782 57.1486 112.674 58.2091 113.682 59.1527C115.246 60.6095 117.608 60.9724 118.809 62.902C119.553 64.1517 119.573 65.6852 119.573 67.1726Z" fill="url(#paint4_linear)"/>
<path d="M105.099 68.4899L113.151 58.8711C113.612 58.3202 113.539 57.4997 112.988 57.0386L92.8194 40.1571C92.2685 39.696 91.448 39.7688 90.9869 40.3197L82.9358 49.9385C82.4746 50.4894 82.5474 51.3099 83.0983 51.771L103.267 68.6525C103.818 69.1136 104.638 69.0408 105.099 68.4899Z" fill="#4183E4"/>
<path d="M105.099 68.4899L113.151 58.8711C113.612 58.3202 113.539 57.4997 112.988 57.0386L92.8194 40.1571C92.2685 39.696 91.448 39.7688 90.9869 40.3197L82.9358 49.9385C82.4746 50.4894 82.5474 51.3099 83.0983 51.771L103.267 68.6525C103.818 69.1136 104.638 69.0408 105.099 68.4899Z" fill="url(#paint5_linear)"/>
<path d="M103.631 66.605L111.146 57.6271C111.558 57.1346 111.493 56.4012 111.001 55.989L93.6779 41.4894C93.1854 41.0772 92.452 41.1422 92.0398 41.6347L84.5251 50.6127C84.1129 51.1051 84.178 51.8385 84.6704 52.2508L101.993 66.7504C102.486 67.1626 103.219 67.0975 103.631 66.605Z" fill="#FFFBFF"/>
<path d="M124.879 55.0865C123.84 54.1133 122.715 53.2357 121.518 52.4643C120.221 51.7097 118.866 51.0577 117.467 50.5143C114.832 49.4179 112.19 48.3163 109.457 47.4934C108.629 47.2378 107.791 47.018 106.955 46.7957L99.7303 44.8584C99.5028 45.5817 99.8939 46.3484 100.331 46.9669C101.695 48.8969 103.605 50.3745 105.816 51.2094C106.442 51.4446 107.093 51.6337 107.628 52.0503C108.013 52.3977 108.357 52.7898 108.65 53.2183C110.247 55.2628 112.586 56.8193 113.519 59.2447C113.828 60.0498 113.971 60.9289 114.431 61.6573C114.942 62.4573 115.757 62.9889 116.557 63.4924C119.637 65.4322 122.783 67.3924 126.31 68.2921C126.727 68.4344 127.175 68.4556 127.603 68.3534C128.021 68.1702 128.381 67.8758 128.643 67.5023C129.581 66.3957 130.599 65.3172 131.473 64.1594C132.316 63.0425 131.912 62.3423 131.056 61.389C129.112 59.1787 127.05 57.0748 124.879 55.0865Z" fill="#FECB9C"/>
<path d="M95.8173 57.0069L101.028 50.5515L97.8162 47.959L92.6055 54.4144L95.8173 57.0069Z" fill="#FFFBFF"/>
<path d="M56.4692 45.7197L55.9299 44.9658C56.9877 44.2634 58.1106 43.6643 59.2831 43.1768L59.6485 44.0278C58.5377 44.4902 57.4732 45.0567 56.4692 45.7197ZM80.8868 44.1607C79.7687 43.6838 78.6225 43.2758 77.4544 42.9391L77.71 42.0497C78.9147 42.3965 80.0969 42.8173 81.2497 43.3097L80.8868 44.1607ZM63.0809 42.8215L62.8253 41.927C64.0371 41.5945 65.2701 41.3452 66.5158 41.1807L66.636 42.1008C65.4357 42.2587 64.2479 42.4995 63.0809 42.8215ZM73.8994 42.1724C72.6993 41.9953 71.4884 41.9005 70.2753 41.8887V40.9609C71.5312 40.9744 72.7848 41.0734 74.0272 41.2574L73.8994 42.1724Z" fill="#4183E4"/>
<path d="M60.2516 35.7831V34.6228C59.6294 34.6195 59.0203 34.4425 58.4933 34.1117L58.7693 33.3449C59.2622 33.6633 59.8361 33.8336 60.4229 33.8356C61.2382 33.8356 61.7902 33.3654 61.7902 32.7111C61.7902 32.0568 61.3404 31.6888 60.4919 31.3463C59.3188 30.8863 58.5981 30.3573 58.5981 29.358C58.5981 28.4047 59.2728 27.6814 60.3309 27.5102V26.3499H61.0439V27.4642C61.5674 27.4691 62.0811 27.6072 62.5365 27.8654L62.2477 28.6321C61.8107 28.3711 61.3101 28.2358 60.8011 28.2411C59.9168 28.2411 59.5846 28.7701 59.5846 29.2276C59.5846 29.8257 60.0088 30.1247 61.0081 30.5362C62.1915 31.0192 62.7972 31.6172 62.7972 32.6395C62.7972 33.5468 62.1633 34.3953 60.98 34.5896V35.7831H60.2516Z" fill="#4183E4"/>
<path d="M87.2175 34.3083V33.1505C86.5954 33.146 85.9867 32.9691 85.4592 32.6394L85.7352 31.8727C86.2278 32.1919 86.8017 32.3631 87.3888 32.3659C88.204 32.3659 88.7561 31.8957 88.7561 31.2414C88.7561 30.5871 88.3063 30.2191 87.4578 29.8741C86.2872 29.4166 85.564 28.8875 85.564 27.8882C85.564 26.9349 86.2412 26.2117 87.2968 26.0379V24.8801H88.0098V25.9944C88.5333 25.9994 89.0469 26.1374 89.5024 26.3957L89.2136 27.1624C88.7774 26.9016 88.2777 26.7663 87.7696 26.7714C86.8827 26.7714 86.5505 27.3004 86.5505 27.7579C86.5505 28.3559 86.9747 28.6524 87.974 29.0664C89.1573 29.5495 89.763 30.1475 89.763 31.1698C89.763 32.0771 89.1292 32.9256 87.9485 33.1199V34.3134L87.2175 34.3083Z" fill="#4183E4"/>
<path d="M71.5175 56.6584V55.498C70.8951 55.4957 70.2858 55.3186 69.7592 54.9869L70.0352 54.2202C70.5278 54.5395 71.1017 54.7107 71.6887 54.7134C72.504 54.7134 73.0561 54.2432 73.0561 53.5889C73.0561 52.9346 72.6088 52.5666 71.7578 52.2216C70.5872 51.7615 69.8639 51.2325 69.8639 50.2358C69.8639 49.2825 70.5412 48.5566 71.5967 48.3854V47.2251H72.3098V48.3394C72.8334 48.3435 73.3472 48.4817 73.8024 48.7407L73.5161 49.5074C73.0788 49.2471 72.5784 49.1119 72.0696 49.1163C71.1827 49.1163 70.8505 49.6454 70.8505 50.1054C70.8505 50.7009 71.2747 50.9999 72.274 51.414C73.4573 51.897 74.063 52.4925 74.063 53.5148C74.063 54.4221 73.4318 55.2706 72.2485 55.4674V56.6609L71.5175 56.6584Z" fill="#4183E4"/>
<path d="M132.894 62.8457C132.894 62.8457 127.69 71.5634 127.335 73.4776C126.98 75.3919 130.77 78.3617 131.6 78.3617C132.431 78.3617 137.205 66.0404 137.205 66.0404C137.205 66.0404 136.124 63.7709 132.894 62.8457Z" fill="#4183E4"/>
<path d="M133.024 62.8892C133.024 62.8892 127.897 71.6911 127.545 73.6233C127.192 75.5554 130.977 78.5048 131.808 78.5048C132.638 78.5048 137.246 66.1068 137.246 66.1068C137.246 66.1068 136.255 63.8118 133.024 62.8892Z" fill="url(#paint6_linear)"/>
<path opacity="0.24" d="M41.1194 59.0786C43.8224 59.0786 46.0137 56.8873 46.0137 54.1843C46.0137 51.4813 43.8224 49.29 41.1194 49.29C38.4164 49.29 36.2252 51.4813 36.2252 54.1843C36.2252 56.8873 38.4164 59.0786 41.1194 59.0786Z" fill="#4183E4"/>
<path opacity="0.24" d="M98.1689 58.7822C100.872 58.7822 103.063 56.5909 103.063 53.8879C103.063 51.1849 100.872 48.9937 98.1689 48.9937C95.4658 48.9937 93.2746 51.1849 93.2746 53.8879C93.2746 56.5909 95.4658 58.7822 98.1689 58.7822Z" fill="#4183E4"/>
</g>
<defs>
<linearGradient id="paint0_linear" x1="136.145" y1="62.3422" x2="134.067" y2="66.0838" gradientUnits="userSpaceOnUse">
<stop stop-color="#010101" stop-opacity="0"/>
<stop offset="0.95" stop-color="#010101"/>
</linearGradient>
<linearGradient id="paint1_linear" x1="750.468" y1="3626.93" x2="4263.59" y2="3041.73" gradientUnits="userSpaceOnUse">
<stop stop-color="#010101" stop-opacity="0"/>
<stop offset="0.95" stop-color="#010101"/>
</linearGradient>
<linearGradient id="paint2_linear" x1="3255.39" y1="6704.69" x2="-930.654" y2="6249.39" gradientUnits="userSpaceOnUse">
<stop stop-color="#010101" stop-opacity="0"/>
<stop offset="0.95" stop-color="#010101"/>
</linearGradient>
<linearGradient id="paint3_linear" x1="5594.5" y1="3436.35" x2="7936.86" y2="5180.85" gradientUnits="userSpaceOnUse">
<stop stop-color="#010101" stop-opacity="0"/>
<stop offset="0.95" stop-color="#010101"/>
</linearGradient>
<linearGradient id="paint4_linear" x1="6371.82" y1="4227.55" x2="11706.7" y2="208.449" gradientUnits="userSpaceOnUse">
<stop stop-color="#010101" stop-opacity="0"/>
<stop offset="0.95" stop-color="#010101"/>
</linearGradient>
<linearGradient id="paint5_linear" x1="5301.24" y1="7134.17" x2="10573.3" y2="5657.11" gradientUnits="userSpaceOnUse">
<stop stop-color="#010101" stop-opacity="0"/>
<stop offset="0.95" stop-color="#010101"/>
</linearGradient>
<linearGradient id="paint6_linear" x1="5211.03" y1="4223.98" x2="5469.43" y2="5766.35" gradientUnits="userSpaceOnUse">
<stop stop-color="#010101" stop-opacity="0"/>
<stop offset="0.95" stop-color="#010101"/>
</linearGradient>
<clipPath id="clip0">
<rect width="142.146" height="120" fill="white"/>
</clipPath>
</defs>
</svg>
