<svg width="128" height="120" viewBox="0 0 128 120" fill="none" xmlns="http://www.w3.org/2000/svg">
<path opacity="0.18" d="M100.491 115.768C110.292 113.006 120.448 108.304 125.201 99.2946C129.266 91.5934 128.498 82.0293 125.026 74.0446C123.548 70.6531 121.598 67.3972 120.826 63.7707C120.004 59.9164 120.571 55.9168 121.14 52.019L123.401 36.5414C123.81 33.7434 124.217 30.8824 123.704 28.1013C123.175 25.2476 121.703 22.6506 119.968 20.325C111.465 8.9149 97 3.56111 82.9493 1.29847C71.8057 -0.494199 60.2405 -0.695269 49.3682 2.34258C38.4959 5.38043 28.3479 11.8995 22.3255 21.4515C19.8788 25.3275 18.1563 29.6275 16.0996 33.7361C13.711 38.5109 10.8694 43.0459 8.4638 47.811C4.28009 56.0912 1.41666 65.1418 1.02906 74.4104C0.660832 83.2502 3.10032 90.6413 6.48459 98.6357C9.27777 105.237 17.0928 107.899 23.3745 110.591C38.8865 117.202 55.6396 120.398 72.4961 119.961C81.9656 119.732 91.3696 118.323 100.491 115.768Z" fill="#4183E4"/>
<path opacity="0.18" d="M67.2658 108.704C90.6769 108.704 109.655 106.448 109.655 103.665C109.655 100.882 90.6769 98.626 67.2658 98.626C43.8548 98.626 24.8764 100.882 24.8764 103.665C24.8764 106.448 43.8548 108.704 67.2658 108.704Z" fill="#4183E4"/>
<path d="M68.7461 17.0037C69.2137 17.5803 69.3711 18.3458 69.4268 19.0847C69.5116 20.2015 69.4002 21.3304 69.5649 22.4375C69.7297 23.5446 70.2481 24.6832 71.2341 25.2113C71.0905 25.328 70.9253 25.4152 70.7479 25.4678C70.5706 25.5204 70.3845 25.5374 70.2006 25.5178C70.0166 25.4982 69.8384 25.4424 69.676 25.3536C69.5137 25.2648 69.3706 25.1448 69.2548 25.0005L69.2161 25.7055C68.6853 25.4831 68.2313 25.11 67.9103 24.6323C67.9103 24.9133 67.5324 25.0683 67.2708 24.9666C67.0187 24.8373 66.8218 24.6214 66.716 24.3585C66.1225 23.2006 65.919 21.8876 65.7252 20.6012L65.4079 18.5105C65.3255 17.9727 65.248 17.401 65.4757 16.9068C65.9868 15.7997 68.1114 16.2334 68.7461 17.0037Z" fill="#3F3D56"/>
<path d="M68.7461 17.0037C69.2137 17.5803 69.3711 18.3458 69.4268 19.0847C69.5116 20.2015 69.4002 21.3304 69.5649 22.4375C69.7297 23.5446 70.2481 24.6832 71.2341 25.2113C71.0905 25.328 70.9253 25.4152 70.7479 25.4678C70.5706 25.5204 70.3845 25.5374 70.2006 25.5178C70.0166 25.4982 69.8384 25.4424 69.676 25.3536C69.5137 25.2648 69.3706 25.1448 69.2548 25.0005L69.2161 25.7055C68.6853 25.4831 68.2313 25.11 67.9103 24.6323C67.9103 24.9133 67.5324 25.0683 67.2708 24.9666C67.0187 24.8373 66.8218 24.6214 66.716 24.3585C66.1225 23.2006 65.919 21.8876 65.7252 20.6012L65.4079 18.5105C65.3255 17.9727 65.248 17.401 65.4757 16.9068C65.9868 15.7997 68.1114 16.2334 68.7461 17.0037Z" fill="url(#paint0_linear)"/>
<path d="M48.4574 98.7762C47.9815 99.5683 47.4122 100.3 46.7616 100.957C46.3453 101.325 45.981 101.749 45.6787 102.216C45.4123 102.701 45.3347 103.345 45.6569 103.798C46.0809 104.399 46.953 104.416 47.687 104.355C49 104.246 50.485 103.992 51.2021 102.885C51.5291 102.386 51.6503 101.766 52.0209 101.301C52.2874 100.969 52.6677 100.734 52.9124 100.385C53.4236 99.658 53.2104 98.6575 52.9657 97.8C52.9137 97.4865 52.7524 97.2015 52.5103 96.9957C52.2828 96.8731 52.0235 96.8224 51.7665 96.8503C51.0761 96.8673 50.2258 96.8503 49.6347 97.2379C49.0945 97.5989 48.782 98.2312 48.4574 98.7762Z" fill="#4183E4"/>
<path d="M82.1015 97.5068C82.5786 98.298 83.1479 99.0299 83.7973 99.6871C84.2142 100.056 84.5785 100.481 84.8802 100.949C85.1466 101.434 85.2242 102.076 84.9044 102.529C84.478 103.132 83.6059 103.146 82.8719 103.086C81.5589 102.979 80.0739 102.722 79.3568 101.618C79.0322 101.119 78.9111 100.499 78.538 100.034C78.2715 99.6992 77.8912 99.4642 77.6465 99.1154C77.1353 98.3886 77.3485 97.3905 77.5932 96.533C77.6463 96.2192 77.8074 95.9338 78.0486 95.7263C78.2764 95.6046 78.5357 95.5548 78.7924 95.5833C79.4828 95.5979 80.3355 95.5833 80.9242 95.9685C81.4668 96.327 81.7769 96.9617 82.1015 97.5068Z" fill="#4183E4"/>
<path d="M77.8596 96.1768C78.0438 96.5644 78.2836 96.9666 78.6785 97.1337C79.0519 97.2476 79.4509 97.2476 79.8243 97.1337C80.0274 97.106 80.2187 97.0221 80.3767 96.8915C80.5248 96.7096 80.6045 96.4816 80.602 96.2471C80.7238 94.7916 80.3582 93.3368 79.5627 92.1118C79.1509 92.3807 78.7414 92.6569 78.3514 92.9428C78.0801 93.1366 77.3388 93.4999 77.2007 93.8052C76.9439 94.3599 77.6198 95.6657 77.8596 96.1768Z" fill="#E9B9A3"/>
<path d="M49.5595 96.5427C49.4892 97.095 49.4263 97.6958 49.7145 98.173C49.8983 98.449 50.1814 98.6435 50.5048 98.7161C50.8283 98.7888 51.1674 98.7339 51.4515 98.563C51.6511 98.4208 51.8207 98.2405 51.9505 98.0325C52.3691 97.3671 52.6186 96.6095 52.6773 95.8256C52.7318 95.0444 52.7221 94.2601 52.6482 93.4806C52.6482 93.328 50.4486 94.2945 50.2741 94.4108C49.5522 94.8856 49.6661 95.7287 49.5595 96.5427Z" fill="#E9B9A3"/>
<path d="M55.2718 59.6693C55.0998 65.103 55.1337 70.5925 54.0097 75.9002C52.6095 82.5186 49.4069 88.8487 49.6733 95.6245C50.2984 96.2834 51.4055 96.109 52.0741 95.5009C52.7427 94.8929 53.0843 93.9869 53.3992 93.1147C54.9157 88.9262 56.4346 84.7352 57.6895 80.4522C59.1043 75.6265 60.1823 70.6894 61.8248 65.9485C62.7695 63.2183 63.9081 60.5245 64.2764 57.6441C64.4916 57.695 64.7155 57.6973 64.9317 57.6508C65.148 57.6043 65.3511 57.5101 65.5264 57.3752C66.0763 62.8137 69.8361 67.3293 70.9601 72.671C71.3598 74.5751 71.4131 76.5471 71.636 78.473C72.3095 84.3888 74.543 90.0212 77.5494 95.0625C78.4094 95.3314 79.3227 94.6264 79.6594 93.7494C79.9962 92.8725 79.9138 91.8841 79.8217 90.9442C79.5165 87.7949 79.2088 84.6165 78.3682 81.5787C77.6075 78.846 76.4302 76.237 75.9796 73.4244C75.6719 71.4622 75.7374 69.4587 75.7664 67.4674C75.8682 59.805 75.139 51.6265 70.6985 45.5702C68.3975 46.1583 66.0445 46.5202 63.6732 46.6506C61.7133 46.7572 59.5767 46.0208 58.2273 47.6439C55.6328 50.7665 55.4026 55.7327 55.2718 59.6693Z" fill="#3F3D56"/>
<path d="M55.2718 59.6693C55.0998 65.103 55.1337 70.5925 54.0097 75.9002C52.6095 82.5186 49.4069 88.8487 49.6733 95.6245C50.2984 96.2834 51.4055 96.109 52.0741 95.5009C52.7427 94.8929 53.0843 93.9869 53.3992 93.1147C54.9157 88.9262 56.4346 84.7352 57.6895 80.4522C59.1043 75.6265 60.1823 70.6894 61.8248 65.9485C62.7695 63.2183 63.9081 60.5245 64.2764 57.6441C64.4916 57.695 64.7155 57.6973 64.9317 57.6508C65.148 57.6043 65.3511 57.5101 65.5264 57.3752C66.0763 62.8137 69.8361 67.3293 70.9601 72.671C71.3598 74.5751 71.4131 76.5471 71.636 78.473C72.3095 84.3888 74.543 90.0212 77.5494 95.0625C78.4094 95.3314 79.3227 94.6264 79.6594 93.7494C79.9962 92.8725 79.9138 91.8841 79.8217 90.9442C79.5165 87.7949 79.2088 84.6165 78.3682 81.5787C77.6075 78.846 76.4302 76.237 75.9796 73.4244C75.6719 71.4622 75.7374 69.4587 75.7664 67.4674C75.8682 59.805 75.139 51.6265 70.6985 45.5702C68.3975 46.1583 66.0445 46.5202 63.6732 46.6506C61.7133 46.7572 59.5767 46.0208 58.2273 47.6439C55.6328 50.7665 55.4026 55.7327 55.2718 59.6693Z" fill="url(#paint1_linear)"/>
<path d="M58.9954 46.4132C60.2333 48.1502 62.4475 49.0441 64.5672 48.969C66.687 48.8939 68.734 47.9419 70.3813 46.5998C70.6151 46.443 70.7972 46.2204 70.9046 45.9602C70.9605 45.66 70.9422 45.3506 70.8513 45.0591C70.4855 43.0798 71.6604 41.1297 71.6895 39.1166C71.7093 38.8304 71.6542 38.544 71.5296 38.2857C71.34 38.0075 71.0766 37.7876 70.7689 37.651C68.8866 36.619 66.7378 35.9818 64.5963 36.1441C63.0556 36.258 59.6519 37.2222 59.2183 39.0391C59.0003 39.9572 59.6592 41.5706 59.6471 42.5832C59.6395 43.8868 59.4194 45.1805 58.9954 46.4132Z" fill="#E9B9A3"/>
<path d="M79.5237 16.4805L74.451 19.4408L75.3037 20.7998L80.3207 17.8492L79.5237 16.4805Z" fill="#4183E4"/>
<path d="M71.7887 25.7152C72.6822 25.6817 73.5605 25.9534 74.2791 26.4855C74.9918 27.0149 75.642 27.6236 76.2171 28.3C76.8348 28.0214 77.5471 28.1159 78.2133 28.2322C79.9162 28.5331 81.5959 28.9532 83.24 29.4895C82.541 26.4545 81.1803 23.6113 79.255 21.1632C79.2084 21.0964 79.1481 21.0402 79.0781 20.9985C78.9695 20.9582 78.85 20.9582 78.7414 20.9985C78.1164 21.1802 77.4841 21.6162 76.8785 21.3861C76.6916 21.3043 76.5215 21.1885 76.377 21.0445C75.6032 20.3307 75.0118 19.4418 74.6521 18.4524C75.3305 18.6947 75.5848 19.6225 76.2752 19.826C76.7597 19.9689 77.2612 19.6976 77.6561 19.3851C78.051 19.0726 78.4337 18.7019 78.9279 18.6002C79.5311 18.4742 80.1561 18.8037 80.5655 19.264C80.9465 19.7506 81.258 20.2879 81.491 20.8604C83.0123 24.0097 85.4736 26.597 87.1548 29.6542C87.5909 30.4488 87.9809 31.2918 88.0657 32.193C88.0978 32.3865 88.076 32.5852 88.0027 32.7672C87.9102 32.9299 87.7755 33.0647 87.6127 33.1572C86.981 33.5187 86.275 33.7309 85.5487 33.7773C84.3589 33.8823 83.1632 33.9026 81.9706 33.8379C80.3839 33.7895 78.7438 33.7265 77.3242 33.0191C76.4206 32.5685 75.5146 31.8442 74.5237 32.0501C74.2815 32.0985 72.9758 34.2086 72.7432 34.2837C72.0915 34.5017 71.9801 33.4939 71.2897 33.4455C70.5217 33.3897 70.2286 32.2633 69.5818 31.8417C68.9238 31.3737 68.4304 30.7099 68.1719 29.9449C67.9265 29.3468 67.7753 28.7143 67.7237 28.0699C67.7019 27.4182 68.2082 27.4061 68.7557 27.0839C69.7126 26.5219 70.6501 25.8024 71.7887 25.7152Z" fill="#E9B9A3"/>
<path d="M82.1447 19.484L83.1386 18.8806C83.5241 18.6466 83.6468 18.1445 83.4129 17.7591L81.4116 14.4623C81.1776 14.0769 80.6755 13.9541 80.2901 14.1881L79.2961 14.7915C78.9106 15.0255 78.7879 15.5276 79.0218 15.913L81.0231 19.2098C81.2571 19.5952 81.7592 19.718 82.1447 19.484Z" fill="#4183E4"/>
<path d="M74.9627 23.5206L75.9567 22.9172C76.3421 22.6833 76.4649 22.1811 76.2309 21.7957L74.2296 18.499C73.9956 18.1135 73.4935 17.9908 73.1081 18.2247L72.1141 18.8281C71.7287 19.0621 71.6059 19.5642 71.8399 19.9497L73.8412 23.2464C74.0751 23.6318 74.5773 23.7546 74.9627 23.5206Z" fill="#4183E4"/>
<path d="M78.9036 17.0304C79.142 17.2448 79.3369 17.5031 79.4778 17.791C79.5231 17.8652 79.5535 17.9475 79.5674 18.0333C79.5743 18.0756 79.5699 18.1189 79.5545 18.1589C79.5392 18.1989 79.5136 18.2342 79.4802 18.261C79.3494 18.3482 79.1798 18.2392 79.0659 18.1302C78.853 17.9238 78.6585 17.6993 78.4845 17.4592C78.6738 17.7216 78.8315 18.0054 78.9545 18.3046C78.9773 18.3493 78.9891 18.3987 78.9891 18.4488C78.9891 18.4989 78.9773 18.5483 78.9545 18.5929C78.9223 18.632 78.878 18.6593 78.8285 18.6704C78.7596 18.6788 78.6896 18.673 78.623 18.6534C78.5564 18.6338 78.4944 18.6009 78.4409 18.5566C78.1937 18.3778 77.9685 18.1704 77.7699 17.9388C77.9293 18.1925 78.0601 18.4631 78.1599 18.7455C78.1943 18.8213 78.2069 18.9052 78.1963 18.9878C78.1734 19.0558 78.1287 19.1143 78.0691 19.1541C78.0095 19.194 77.9383 19.213 77.8668 19.2082C77.7232 19.1926 77.587 19.1363 77.4743 19.0459C77.2426 18.8856 77.0395 18.6874 76.8736 18.4597C76.968 18.7019 77.1473 18.8763 77.2272 19.1113C77.264 19.209 77.2777 19.3138 77.2672 19.4176C77.2567 19.5214 77.2223 19.6214 77.1667 19.7097C77.1096 19.7967 77.026 19.863 76.9282 19.8988C76.8305 19.9345 76.7238 19.9379 76.624 19.9083C76.5146 19.8606 76.4164 19.7905 76.3358 19.7024L75.8513 19.247C75.7566 19.1351 75.6283 19.0569 75.4855 19.0241C75.437 19.0241 75.3861 19.0241 75.3377 19.0241C75.2271 18.9847 75.1355 18.9051 75.0809 18.8012C75.0109 18.7197 74.9693 18.6177 74.9622 18.5105C74.9724 18.4307 75.0062 18.3556 75.0591 18.2949C75.3982 17.8492 75.9772 17.682 76.4569 17.3938C76.6273 17.2796 76.8035 17.1744 76.985 17.0788C77.1524 17.0152 77.3293 16.98 77.5083 16.9747C77.6754 16.9577 77.782 16.8463 77.9395 16.7954C78.1071 16.7517 78.2829 16.7503 78.4512 16.7913C78.6195 16.8323 78.7749 16.9145 78.9036 17.0304Z" fill="#E9B9A3"/>
<path d="M44.3536 24.6759L50.1992 24.1163L50.3009 25.7176L44.5038 26.2505L44.3536 24.6759Z" fill="#4183E4"/>
<path d="M56.0229 27.6556C55.2786 28.1504 54.7243 28.8832 54.4507 29.7341C54.184 30.5796 54.0134 31.4523 53.942 32.3359C53.2782 32.4716 52.7525 32.9634 52.2801 33.4479C51.0731 34.6867 49.9543 36.0086 48.9322 37.4039C47.7262 34.5344 47.1679 31.4342 47.297 28.3242C47.2928 28.2407 47.3094 28.1575 47.3454 28.082C47.4123 27.9868 47.5112 27.9189 47.624 27.8906C48.2345 27.675 49.0025 27.6605 49.361 27.1178C49.4647 26.9426 49.5346 26.7495 49.5669 26.5485C49.7842 25.5142 49.7468 24.4425 49.4579 23.4259C49.0461 24.017 49.3828 24.9206 48.9443 25.4899C48.6367 25.8872 48.0674 25.9598 47.5635 25.938C47.0596 25.9162 46.5339 25.8363 46.0736 26.0422C45.5092 26.2845 45.1942 26.924 45.1313 27.5369C45.1072 28.1544 45.1684 28.7723 45.3129 29.3732C45.9113 32.8132 45.4292 36.3549 45.8483 39.8191C45.9573 40.7203 46.1342 41.6312 46.5896 42.4137C46.6771 42.5894 46.8112 42.7378 46.9772 42.8425C47.1469 42.9202 47.3344 42.9503 47.5199 42.9297C48.244 42.8569 48.9414 42.6173 49.5572 42.2296C50.584 41.6192 51.5667 40.9376 52.4982 40.1898C53.7579 39.2208 55.0564 38.2154 55.7952 36.8128C56.2652 35.9189 56.5777 34.8021 57.491 34.3902C57.7187 34.3014 57.9517 34.227 58.1887 34.1674C58.8394 33.9397 59.4387 33.5857 59.9523 33.1257C60.5708 32.6593 61.0615 32.0444 61.3791 31.3379C61.6401 30.5734 61.6537 29.7461 61.4179 28.9735C61.2694 28.3451 61.0243 27.7436 60.6912 27.1905C60.3278 26.6478 59.9135 26.9313 59.2788 26.9918C58.179 27.0984 56.9992 27.0621 56.0229 27.6556Z" fill="#E9B9A3"/>
<path d="M62.5736 24.7486C62.559 25.2331 62.5518 25.7563 62.8013 26.1754C63.201 26.8562 64.107 27.0282 64.8968 27.0112C65.258 27.0162 65.6171 26.9537 65.9554 26.8271C66.1242 26.7647 66.2781 26.6679 66.4074 26.5428C66.5367 26.4176 66.6385 26.267 66.7064 26.1003C66.7752 25.8489 66.7957 25.5867 66.767 25.3275L66.6701 23.4525C66.6733 22.9973 66.5979 22.5449 66.4472 22.1153C66.4205 22.0336 66.3688 21.9624 66.2994 21.9118C66.224 21.876 66.1402 21.8617 66.0572 21.8706C65.1973 21.898 64.3395 21.9692 63.4869 22.0838C62.9273 22.1589 62.6244 22.2873 62.6196 22.842C62.6026 23.4719 62.593 24.1114 62.5736 24.7486Z" fill="#E09D80"/>
<path d="M61.5196 22.0063C62.2972 23.0383 63.5957 23.845 64.8482 23.5203C65.7808 23.2781 66.4616 22.4665 66.917 21.6187C67.4527 20.6089 67.7673 19.4968 67.8399 18.3561C67.9126 17.2154 67.7417 16.0723 67.3385 15.0027C67.1271 14.3828 66.7708 13.8222 66.2993 13.3675C65.3496 12.5196 63.9252 12.4252 62.6824 12.7086C61.8442 12.9 60.9261 13.3796 60.4561 14.1355C60.0927 14.7169 60.1363 15.4969 60.1 16.1559C59.991 18.1884 60.2599 20.3371 61.5196 22.0063Z" fill="#E9B9A3"/>
<path d="M60.9674 26.5146C60.7736 26.6018 60.5508 26.6938 60.4829 26.8949C60.451 27.0051 60.4444 27.121 60.4636 27.2341C60.6335 29.2924 60.0612 31.3436 58.8501 33.0166C58.595 33.3332 58.3626 33.6676 58.1549 34.0171C57.8091 34.7263 57.6891 35.5245 57.8109 36.304C57.9329 37.0782 58.1334 37.8379 58.4093 38.5715C58.4539 38.7334 58.5287 38.8855 58.6297 39.0197C58.9979 39.4436 59.6787 39.2329 60.1971 39.0197C62.3706 38.1147 64.7618 37.867 67.0746 38.3074C68.5064 38.603 69.8848 39.1941 71.3431 39.2765C71.5203 39.3014 71.7008 39.2727 71.8616 39.1941C72.0557 39.034 72.1799 38.8046 72.208 38.5545L73.0195 35.1993C73.0911 34.9641 73.1214 34.7182 73.1092 34.4726C73.0438 33.8839 72.5253 33.4721 72.1159 33.0457C70.9216 31.803 70.471 30.0442 70.064 28.3702C69.9063 27.8071 69.8081 27.229 69.7709 26.6454C69.7839 26.4861 69.7564 26.3261 69.691 26.1803C69.614 26.0686 69.5098 25.9786 69.3882 25.9186C68.6251 25.485 67.6924 25.313 67.094 24.6638C66.9647 24.4731 66.7909 24.3168 66.5877 24.2083C66.4589 24.1703 66.3238 24.1588 66.1904 24.1744C65.5751 24.2035 64.9622 24.2543 64.3517 24.3222C63.9544 24.3682 62.9515 24.3222 62.6559 24.6008C62.4137 24.843 62.3434 25.4123 62.0915 25.7079C61.7802 26.0556 61.3965 26.331 60.9674 26.5146Z" fill="#4183E4"/>
<path d="M43.5486 23.1664L42.3893 23.2569C41.9398 23.2919 41.6038 23.6847 41.6389 24.1343L41.9388 27.9792C41.9739 28.4288 42.3667 28.7647 42.8162 28.7297L43.9755 28.6393C44.425 28.6042 44.761 28.2114 44.7259 27.7619L44.426 23.9169C44.391 23.4674 43.9981 23.1314 43.5486 23.1664Z" fill="#4183E4"/>
<path d="M51.7307 22.2518L50.5714 22.3422C50.1218 22.3773 49.7859 22.7701 49.8209 23.2197L50.1208 27.0646C50.1559 27.5142 50.5487 27.8501 50.9982 27.8151L52.1575 27.7247C52.6071 27.6896 52.943 27.2968 52.908 26.8472L52.6081 23.0023C52.573 22.5527 52.1802 22.2168 51.7307 22.2518Z" fill="#4183E4"/>
<path d="M45.1772 24.7583C45.1082 25.072 45.1008 25.3962 45.1554 25.7127C45.1611 25.797 45.1833 25.8793 45.2208 25.955C45.2402 25.9935 45.2695 26.0262 45.3056 26.0496C45.3418 26.073 45.3836 26.0863 45.4267 26.0882C45.5818 26.0882 45.6568 25.8968 45.6859 25.7418C45.738 25.4499 45.7647 25.1541 45.7659 24.8576C45.764 25.184 45.8022 25.5095 45.8797 25.8266C45.8857 25.8775 45.9041 25.9262 45.9333 25.9684C45.9624 26.0107 46.0014 26.0451 46.0469 26.0688C46.0947 26.0856 46.1468 26.0856 46.1947 26.0688C46.2543 26.0344 46.3065 25.9884 46.3481 25.9335C46.3897 25.8785 46.4199 25.8158 46.4369 25.7491C46.5326 25.4593 46.5936 25.1593 46.6186 24.8552C46.6374 25.1547 46.6894 25.4513 46.7736 25.7394C46.791 25.823 46.8312 25.9002 46.8899 25.9623C46.9478 26.0044 47.0183 26.0259 47.0899 26.0233C47.1615 26.0206 47.2301 25.994 47.2848 25.9477C47.3927 25.8523 47.4709 25.7278 47.5101 25.5892C47.6041 25.323 47.6532 25.043 47.6554 24.7607C47.7112 25.0029 47.6772 25.2597 47.7475 25.4995C47.7752 25.5996 47.8253 25.692 47.8942 25.7697C47.9631 25.8474 48.0488 25.9083 48.1448 25.9477C48.2423 25.9858 48.3495 25.9913 48.4504 25.9633C48.5513 25.9354 48.6404 25.8755 48.7044 25.7927C48.7647 25.6904 48.8027 25.5764 48.8158 25.4584L48.937 24.8091C48.9485 24.6629 49.0072 24.5243 49.1041 24.4143C49.1443 24.3856 49.1823 24.354 49.218 24.3198C49.2843 24.2236 49.3119 24.106 49.2955 23.9903C49.3044 23.8834 49.2789 23.7765 49.2228 23.6851C49.1674 23.626 49.0958 23.5847 49.0169 23.5664C48.4839 23.4041 47.9146 23.6051 47.3575 23.6512C47.1523 23.6568 46.9476 23.6746 46.7446 23.7045C46.5717 23.7497 46.4078 23.8243 46.2601 23.9249C46.1127 23.9767 45.9599 24.0116 45.8046 24.0291C45.6492 24.0914 45.5111 24.1902 45.4019 24.3171C45.2927 24.444 45.2157 24.5953 45.1772 24.7583Z" fill="#E9B9A3"/>
<path d="M59.6325 15.3298C59.7611 14.7026 60.0332 14.1138 60.4274 13.6095C60.8216 13.1051 61.3274 12.6989 61.9049 12.4227C62.5276 12.1672 63.194 12.0348 63.8671 12.0327C64.5453 11.9719 65.2269 12.1029 65.8342 12.4106C66.418 12.7522 66.8032 13.336 67.1424 13.9271C67.7601 15.0294 68.2204 16.3715 67.7407 17.5391C67.5687 16.7203 67.3919 15.8821 66.951 15.1699C66.5598 14.5494 65.9899 14.0618 65.3163 13.7712C64.6428 13.4807 63.897 13.4008 63.1772 13.5421C62.4574 13.6834 61.7972 14.0392 61.2834 14.5628C60.7696 15.0864 60.4264 15.7533 60.2987 16.4756C60.1825 17.1612 60.2721 17.8686 60.1946 18.5493C59.3564 18.089 59.4339 16.1437 59.6325 15.3298Z" fill="#3F3D56"/>
<path d="M59.6323 18.2901C59.5876 18.2804 59.5414 18.2804 59.4967 18.2901C59.3707 18.324 59.3174 18.4694 59.3053 18.5978C59.3587 19.1887 59.6257 19.7399 60.0563 20.1482C60.1834 20.2593 60.3453 20.3227 60.5141 20.3275C60.5573 20.3306 60.6006 20.3233 60.6403 20.306C60.68 20.2887 60.7148 20.2619 60.7418 20.2281C60.7635 20.1852 60.7759 20.1381 60.7782 20.0901C60.7878 19.6639 60.676 19.2438 60.456 18.8788C60.3986 18.7182 60.2938 18.5789 60.1556 18.4791C59.9955 18.382 59.8176 18.3177 59.6323 18.2901Z" fill="#E9B9A3"/>
<path d="M67.9952 16.8632C68.0549 16.8331 68.1201 16.8156 68.1868 16.8118C68.2535 16.808 68.3202 16.8181 68.3829 16.8414C68.4715 16.8939 68.5435 16.9704 68.5902 17.0623C68.637 17.1541 68.6567 17.2573 68.6469 17.3598C68.6678 17.9048 68.5763 18.4482 68.378 18.9563C68.3655 19.003 68.3436 19.0467 68.3136 19.0846C68.2836 19.1225 68.2462 19.1539 68.2036 19.1767C68.0461 19.2373 67.8814 19.1041 67.7893 18.9757C67.3848 18.4136 67.1692 17.2654 67.9952 16.8632Z" fill="#E9B9A3"/>
<defs>
<linearGradient id="paint0_linear" x1="66.2654" y1="19.0532" x2="71.7501" y2="25.3276" gradientUnits="userSpaceOnUse">
<stop offset="0.01"/>
<stop offset="0.13" stop-opacity="0.69"/>
<stop offset="1" stop-opacity="0"/>
</linearGradient>
<linearGradient id="paint1_linear" x1="6971.56" y1="17270.4" x2="10747.7" y2="17270.4" gradientUnits="userSpaceOnUse">
<stop offset="0.01"/>
<stop offset="0.13" stop-opacity="0.69"/>
<stop offset="1" stop-opacity="0"/>
</linearGradient>
</defs>
</svg>
