<svg width="155" height="120" viewBox="0 0 155 120" fill="none" xmlns="http://www.w3.org/2000/svg">
<path opacity="0.18" d="M67.893 17.3724C59.2195 24.6071 52.2603 33.801 43.0409 40.3061C34.5205 46.3214 24.2399 49.9337 16.9083 57.3469C10.6512 63.6766 7.14543 72.2203 7.15307 81.1206C7.16072 90.021 10.6811 98.5586 16.9491 104.878C25.7144 113.714 38.6787 117.041 51.1022 117.699C63.5256 118.357 75.995 116.719 88.4236 117.388C100.184 118.02 111.893 120.714 123.628 119.816C135.362 118.918 147.806 113.393 152.449 102.571C157.582 90.5969 151.699 77.1225 147.643 64.7398C144.575 55.3808 142.549 45.7117 141.602 35.9082C140.194 21.2449 137.607 0.882652 119.153 0.0714272C100.524 -0.633786 82.2843 5.52244 67.893 17.3724Z" fill="#4183E4"/>
<path d="M120.842 104.265C92.9798 107.837 64.7502 105.092 36.6584 105.173C34.6176 105.173 31.837 106.02 32.1584 108.026C48.4849 111.883 65.439 112.184 82.2247 112.469L112.771 112.98C119.755 113.097 126.745 113.214 133.689 112.821C136.286 112.673 138.949 112.434 141.291 111.291C147.868 108.077 144.607 103.847 138.934 103.128C132.939 102.372 126.806 103.5 120.842 104.265Z" fill="url(#paint0_linear)"/>
<path d="M80.1836 26.4643V102.077C80.1836 105.347 83.0816 107.99 86.653 107.985L121.224 107.934C124.796 107.934 127.694 105.27 127.694 102.005V26.3877C127.694 23.1173 124.796 20.4694 121.224 20.4796L86.653 20.5306C83.0816 20.5357 80.1836 23.1939 80.1836 26.4643ZM83.4795 26.5153C83.4795 24.5 85.2652 22.8622 87.4693 22.8622H92.3418V23.3112C92.3722 23.9582 92.6577 24.5668 93.1358 25.0038C93.6139 25.4408 94.2457 25.6705 94.8928 25.6428L113.48 25.6122C114.127 25.6372 114.758 25.4058 115.235 24.9683C115.713 24.5308 115.999 23.9225 116.031 23.2755V22.8265H121.061C123.265 22.8265 125.051 24.4541 125.051 26.4694V101.852C125.051 103.867 123.265 105.5 121.061 105.505L87.4693 105.561C85.2652 105.561 83.4795 103.934 83.4795 101.918V26.5153Z" fill="#4183E4"/>
<path d="M78.5563 28.0153V103.633C78.5563 106.903 81.4542 109.546 85.0256 109.541L119.602 109.485C123.174 109.485 126.072 106.827 126.072 103.556V27.9439C126.072 24.6735 123.174 22.0255 119.602 22.0306L85.0256 22.0867C81.4542 22.0918 78.5563 24.75 78.5563 28.0153ZM81.8573 28.0714C81.8573 26.0306 83.6379 24.4184 85.842 24.4133H90.7144V24.8623C90.7448 25.5088 91.0305 26.1169 91.5088 26.5531C91.9871 26.9893 92.6188 27.2179 93.2654 27.1888H111.847C112.495 27.2137 113.127 26.9816 113.605 26.543C114.082 26.1044 114.368 25.4948 114.398 24.8469V24.4031H119.434C121.633 24.4031 123.419 26.0306 123.419 28.0459V103.408C123.419 105.418 121.633 107.056 119.434 107.061L85.8675 107.133C83.6634 107.133 81.8828 105.505 81.8828 103.49L81.8573 28.0714Z" fill="white"/>
<path d="M81.8569 28.051V103.469C81.8569 105.51 83.6375 107.117 85.8416 107.112L119.439 107.061C121.638 107.061 123.423 105.418 123.423 103.408V28.0051C123.423 25.9643 121.638 24.3572 119.439 24.3623H114.403V24.8061C114.372 25.454 114.087 26.0636 113.609 26.5022C113.132 26.9408 112.5 27.1729 111.852 27.148H93.2702C92.6236 27.1771 91.9918 26.9484 91.5136 26.5123C91.0353 26.0761 90.7496 25.468 90.7192 24.8214V24.3725H85.8671C83.6375 24.4184 81.8569 26.0561 81.8569 28.051Z" stroke="url(#paint1_linear)" stroke-width="0.45" stroke-miterlimit="10"/>
<path d="M81.8569 28.051V103.469C81.8569 105.51 83.6375 107.117 85.8416 107.112L119.439 107.061C121.638 107.061 123.423 105.418 123.423 103.408V28.0051C123.423 25.9643 121.638 24.3572 119.439 24.3623H114.403V24.8061C114.372 25.454 114.087 26.0636 113.609 26.5022C113.132 26.9408 112.5 27.1729 111.852 27.148H93.2702C92.6236 27.1771 91.9918 26.9484 91.5136 26.5123C91.0353 26.0761 90.7496 25.468 90.7192 24.8214V24.3725H85.8671C83.6375 24.4184 81.8569 26.0561 81.8569 28.051Z" fill="#4183E4"/>
<path opacity="0.28" d="M118.546 47.5816H88.7243V54.8674H118.546V47.5816Z" fill="white"/>
<path opacity="0.28" d="M118.546 36.8265H88.7243V44.1123H118.546V36.8265Z" fill="white"/>
<path d="M103.786 51.5663V52.0306L119.541 63.4898C119.541 63.4898 119.832 66.1888 120.255 66.5102C120.918 66.8522 121.614 67.1257 122.332 67.3265V69.1173L126.092 71.7245L127.281 72.1326V68.3571L122.138 64.2755L120.531 62.4388L119.908 62.949L103.786 51.5663Z" fill="url(#paint2_linear)"/>
<path d="M100.031 25.5357L106.413 25.5255V25.0051L100.031 25.0153V25.5357Z" fill="url(#paint3_linear)"/>
<path d="M98.3519 25.8354C98.7351 25.8317 99.043 25.5431 99.0395 25.1909C99.0361 24.8387 98.7227 24.5562 98.3395 24.56C97.9563 24.5637 97.6484 24.8523 97.6518 25.2045C97.6553 25.5567 97.9687 25.8392 98.3519 25.8354Z" fill="url(#paint4_linear)"/>
<path d="M0 68.6225C0.0306122 69.9031 0.668367 71.0816 1.29592 72.1939C4.16327 77.2602 7.38265 82.2551 11.8316 86.0153C18.3622 91.5459 26.9235 93.9286 35.1888 96.1633C34.449 95.801 33.5561 91.9949 33.2296 91.1582C32.5918 89.5153 31.9949 87.8622 31.3775 86.2143C30.4082 83.6071 28.3673 81.5102 26.3827 79.5816C21.884 75.2542 16.4261 72.0514 10.4541 70.2347C7.06267 69.2078 3.54322 68.665 0 68.6225Z" fill="#4183E4"/>
<path d="M0 68.6225C0.0306122 69.9031 0.668367 71.0816 1.29592 72.1939C4.16327 77.2602 7.38265 82.2551 11.8316 86.0153C18.3622 91.5459 26.9235 93.9286 35.1888 96.1633C34.449 95.801 33.5561 91.9949 33.2296 91.1582C32.5918 89.5153 31.9949 87.8622 31.3775 86.2143C30.4082 83.6071 28.3673 81.5102 26.3827 79.5816C21.884 75.2542 16.4261 72.0514 10.4541 70.2347C7.06267 69.2078 3.54322 68.665 0 68.6225Z" fill="url(#paint5_linear)"/>
<path d="M32.337 71.4592C31.6635 66.7449 30.9696 61.9592 29.0716 57.5918C27.1737 53.2245 23.8829 49.2449 19.4186 47.5816C19.2927 54.3367 19.1635 61.0918 19.0308 67.8469C18.9594 71.75 18.8931 75.7245 20.0104 79.4643C21.9696 86.0102 28.7859 93.699 35.3574 95.8622C36.3319 92.7143 34.6992 87.949 34.2349 84.6786L32.337 71.4592Z" fill="#4183E4"/>
<path d="M32.337 71.4592C31.6635 66.7449 30.9696 61.9592 29.0716 57.5918C27.1737 53.2245 23.8829 49.2449 19.4186 47.5816C19.2927 54.3367 19.1635 61.0918 19.0308 67.8469C18.9594 71.75 18.8931 75.7245 20.0104 79.4643C21.9696 86.0102 28.7859 93.699 35.3574 95.8622C36.3319 92.7143 34.6992 87.949 34.2349 84.6786L32.337 71.4592Z" fill="url(#paint6_linear)"/>
<path d="M57.7604 61.8367C57.5309 61.8367 57.388 61.5918 57.3319 61.3674C57.3117 61.138 57.2146 60.9223 57.0564 60.7551C56.9645 60.6837 56.8319 60.6378 56.7962 60.5255C56.7834 60.4753 56.7834 60.4227 56.7962 60.3725C56.8592 60.1128 56.9788 59.8703 57.1464 59.6621C57.3139 59.454 57.5253 59.2854 57.7655 59.1684C58.0104 59.3827 58.3829 59.3776 58.6176 59.602C58.8643 59.8791 59.0549 60.2014 59.1788 60.551L61.4645 65.9796L62.1788 67.6735C62.4534 68.214 62.6083 68.8075 62.6329 69.4133C62.6411 69.717 62.554 70.0156 62.3838 70.2672C62.2136 70.5189 61.9688 70.7109 61.6839 70.8163C61.4881 70.8588 61.2852 70.857 61.0902 70.8111C60.8951 70.7652 60.7127 70.6763 60.5564 70.551C60.2447 70.295 59.9967 69.9702 59.8319 69.602C59.24 68.4082 59.1533 67.051 58.9747 65.7092C58.7962 64.3674 58.6686 62.8163 57.7604 61.8367Z" fill="#FFBBAB"/>
<path d="M57.5406 66.102C57.4847 66.0568 57.42 66.0239 57.3505 66.0054C57.281 65.9869 57.2085 65.9834 57.1375 65.9949C57.0629 66.0222 56.9975 66.0699 56.9487 66.1327C56.7033 66.4207 56.5292 66.7625 56.4406 67.1304C56.352 67.4982 56.3513 67.8818 56.4385 68.25C56.4919 68.5702 56.6373 68.8681 56.8569 69.1071C57.0995 69.3195 57.3823 69.4808 57.6885 69.5816L60.1477 70.5612C60.3337 70.655 60.5425 70.694 60.7498 70.6735C60.8576 70.6426 60.9582 70.5906 61.0458 70.5206C61.1334 70.4505 61.2062 70.3637 61.26 70.2653C61.4154 70.0187 61.5143 69.7408 61.5496 69.4514C61.5849 69.1621 61.5557 68.8685 61.4641 68.5918C61.0049 67.1582 58.7192 66.7959 57.5406 66.102Z" fill="#FFBBAB"/>
<path d="M54.9693 62.8061L56.9234 64.6633L58.3468 66.0153C58.6682 66.3214 59.0764 66.5969 59.2091 67.0357C59.3725 67.6549 59.3148 68.3117 59.0458 68.8929C58.7423 69.5102 58.5178 70.1633 58.3774 70.8367C58.3774 70.5918 57.5968 70.0255 57.4234 69.8878C57.0458 69.5918 56.6478 69.3316 56.2703 69.0408C55.8927 68.75 55.4234 68.449 55.2907 68.0714C55.2526 67.8285 55.2407 67.5822 55.255 67.3367L55.005 63.4082L54.9693 62.8061Z" fill="#4183E4"/>
<path d="M54.9693 62.8061L56.9234 64.6633L58.3468 66.0153C58.6682 66.3214 59.0764 66.5969 59.2091 67.0357C59.3725 67.6549 59.3148 68.3117 59.0458 68.8929C58.7423 69.5102 58.5178 70.1633 58.3774 70.8367C58.3774 70.5918 57.5968 70.0255 57.4234 69.8878C57.0458 69.5918 56.6478 69.3316 56.2703 69.0408C55.8927 68.75 55.4234 68.449 55.2907 68.0714C55.2526 67.8285 55.2407 67.5822 55.255 67.3367L55.005 63.4082L54.9693 62.8061Z" fill="url(#paint7_linear)"/>
<path d="M82.9389 86.7857C82.4726 87.2499 82.1028 87.8017 81.8506 88.4094C81.5984 89.0171 81.4689 89.6686 81.4695 90.3265C81.4652 91.0296 81.6113 91.7254 81.8981 92.3673C82.1996 93.0559 82.6526 93.6677 83.2232 94.157C83.7938 94.6464 84.4675 95.0008 85.194 95.1939V96.3418H24.8573C23.2983 96.2963 21.8184 95.6451 20.7317 94.5262C19.6451 93.4074 19.0372 91.9092 19.0372 90.3495C19.0372 88.7898 19.6451 87.2916 20.7317 86.1727C21.8184 85.0539 23.2983 84.4026 24.8573 84.3571H85.194V85.5051C84.3426 85.7258 83.5646 86.1676 82.9389 86.7857Z" fill="#4183E4"/>
<path d="M85.1939 95.1735V96.3214H24.8572C23.6021 96.3231 22.3782 95.9298 21.359 95.1973C20.3399 94.4647 19.577 93.43 19.1786 92.2398C21.4695 92.6428 35.9797 94.9541 44.0562 90.3469L81.898 92.3877C82.2045 93.0687 82.6596 93.6724 83.23 94.1545C83.8003 94.6365 84.4714 94.9847 85.1939 95.1735Z" fill="url(#paint8_linear)"/>
<path d="M82.9386 86.7857C82.3154 87.4081 81.8672 88.1838 81.6393 89.0346C81.4114 89.8853 81.4118 90.7812 81.6405 91.6318C81.8692 92.4823 82.3181 93.2576 82.9419 93.8794C83.5657 94.5012 84.3424 94.9475 85.1937 95.1735V95.3419H49.0713C47.7425 95.3419 46.4681 94.814 45.5285 93.8744C44.5889 92.9348 44.0611 91.6604 44.0611 90.3316C44.0611 89.0029 44.5889 87.7285 45.5285 86.7889C46.4681 85.8493 47.7425 85.3214 49.0713 85.3214H85.1937V85.4847C84.3401 85.7112 83.5619 86.1601 82.9386 86.7857Z" fill="white"/>
<path d="M75.9335 93.6429C76.149 93.7355 76.3829 93.7774 76.6172 93.7653L80.1886 93.852C80.2849 93.8573 80.3814 93.847 80.4744 93.8214C80.5782 93.7685 80.663 93.6845 80.7169 93.5812C80.7708 93.4779 80.7913 93.3604 80.7754 93.2449C80.7267 92.9418 80.5836 92.6617 80.3665 92.4446C80.1494 92.2275 79.8693 92.0844 79.5662 92.0357C78.9601 91.9445 78.3472 91.907 77.7346 91.9235C77.4858 91.9231 77.2406 91.8648 77.0184 91.7532C76.7961 91.6416 76.6029 91.4798 76.4539 91.2806C76.1733 90.9286 75.8366 90.5663 75.3723 90.9031C74.6427 91.4592 75.2397 93.2704 75.9335 93.6429Z" fill="#FFBBAB"/>
<path d="M58.0203 77.4898C58.0203 77.4898 67.9948 77.1786 70.4744 78.2194C72.954 79.2602 76.806 91.2398 76.806 91.2398L74.7244 92.0357C74.7244 92.0357 71.1836 84.5765 70.0203 83.9082C68.8571 83.2398 56.3928 80.7908 56.3928 80.7908C56.3928 80.7908 55.4387 80.0612 58.0203 77.4898Z" fill="#473F47"/>
<path d="M58.0203 77.4898C58.0203 77.4898 67.9948 77.1786 70.4744 78.2194C72.954 79.2602 76.806 91.2398 76.806 91.2398L74.7244 92.0357C74.7244 92.0357 71.1836 84.5765 70.0203 83.9082C68.8571 83.2398 56.3928 80.7908 56.3928 80.7908C56.3928 80.7908 55.4387 80.0612 58.0203 77.4898Z" fill="url(#paint9_linear)"/>
<path d="M82.9385 98.7653C82.4688 99.2333 82.097 99.7901 81.8447 100.403C81.5925 101.016 81.4648 101.674 81.4692 102.337C81.4683 103.031 81.6143 103.718 81.8977 104.352C82.1983 105.041 82.651 105.654 83.2218 106.143C83.7925 106.633 84.4667 106.987 85.1936 107.179V108.327H24.8569C24.0703 108.327 23.2914 108.172 22.5647 107.871C21.838 107.57 21.1777 107.128 20.6215 106.572C20.0653 106.016 19.6241 105.356 19.3231 104.629C19.022 103.902 18.8671 103.123 18.8671 102.337C18.8671 101.55 19.022 100.771 19.3231 100.045C19.6241 99.3178 20.0653 98.6575 20.6215 98.1013C21.1777 97.5451 21.838 97.1039 22.5647 96.8029C23.2914 96.5019 24.0703 96.3469 24.8569 96.3469H85.1936V97.4898C84.3436 97.711 83.5661 98.1507 82.9385 98.7653Z" fill="#4183E4"/>
<path d="M85.1939 107.133V108.281H24.8572C23.6021 108.282 22.3782 107.889 21.359 107.156C20.3399 106.424 19.577 105.389 19.1786 104.199C21.4695 104.602 35.9797 106.913 44.0562 102.311L81.898 104.327C82.2011 105.012 82.6549 105.62 83.2255 106.106C83.7961 106.592 84.469 106.943 85.1939 107.133Z" fill="url(#paint10_linear)"/>
<path d="M82.9386 98.7653C82.3206 99.3881 81.8769 100.162 81.6521 101.01C81.4272 101.859 81.4291 102.751 81.6574 103.598C81.8857 104.445 82.3325 105.218 82.9531 105.838C83.5738 106.458 84.3464 106.905 85.1937 107.133V107.301H49.0713C47.7425 107.301 46.4681 106.773 45.5285 105.834C44.5889 104.894 44.0611 103.62 44.0611 102.291C44.0611 100.962 44.5889 99.6877 45.5285 98.7481C46.4681 97.8085 47.7425 97.2806 49.0713 97.2806H85.1937V97.4439C84.3388 97.6782 83.5609 98.134 82.9386 98.7653Z" fill="white"/>
<path d="M73.1988 97.1429C73.3947 97.1422 73.5894 97.1732 73.7753 97.2347C73.8681 97.2654 73.9502 97.3221 74.0117 97.3981C74.0732 97.474 74.1116 97.5661 74.1223 97.6633C74.1151 97.7591 74.0843 97.8516 74.0327 97.9326C73.9811 98.0137 73.9102 98.0806 73.8263 98.1275C73.6631 98.2296 73.4794 98.2908 73.3161 98.398C73.1804 98.5119 73.0353 98.6143 72.8825 98.7041C72.6071 98.784 72.3132 98.7714 72.0457 98.6684C70.7955 98.367 69.5024 98.2859 68.2243 98.4286C68.0989 98.4438 67.9721 98.4438 67.8467 98.4286C67.6655 98.376 67.5006 98.2781 67.3677 98.1442C67.2347 98.0104 67.1379 97.8448 67.0865 97.6633C66.8305 96.8843 66.7538 96.0576 66.862 95.2449C66.8628 95.1557 66.8856 95.0681 66.9284 94.9898C66.9765 94.9241 67.0418 94.8729 67.1172 94.8418C68.3314 94.2398 68.9947 95.4388 69.8825 96.0204C70.8702 96.6793 72.014 97.0664 73.1988 97.1429Z" fill="#FFBBAB"/>
<path d="M51.2551 78.1122C51.2551 78.1122 50.954 82.6428 55 84.0102C57.8061 84.9541 61.0306 84.7806 63.9336 84.5204C64.4438 84.4745 65.0051 84.352 65.5255 84.3571C66.5459 84.3571 66.3367 85.0306 66.3265 85.8877C66.3265 88.0578 66.3078 90.2262 66.2704 92.3928C66.1771 93.5299 66.3392 94.6735 66.7449 95.7398L69.7295 94.9439C69.6493 91.8033 69.8302 88.6616 70.2704 85.551C70.4642 84.2041 70.7551 82.5204 69.852 81.3724C68.9747 80.3446 67.817 79.5947 66.5204 79.2143L58.4387 76.6633L51.2551 78.1122Z" fill="#473F47"/>
<path d="M57.0767 57.3112C57.2247 57.5612 57.5308 57.7092 57.6328 57.9898C57.7349 58.2704 57.5206 58.6633 57.3981 59.0102C57.2349 59.4745 57.2859 59.9949 57.1226 60.4643C57.0946 60.5665 57.038 60.6585 56.9594 60.7296C56.8834 60.7783 56.7984 60.8113 56.7094 60.8265C56.3639 60.898 56.0098 60.9186 55.6583 60.8878C55.5923 60.8644 55.5203 60.8644 55.4543 60.8878C55.4034 60.9345 55.3709 60.9978 55.3624 61.0663C55.1588 61.951 55.1728 62.8719 55.4032 63.75C55.4798 64.0357 55.5614 64.3929 55.3471 64.5969C55.273 64.6692 55.1787 64.7173 55.0767 64.7347C54.4084 64.898 53.7655 64.4031 53.3114 63.8878C52.9123 63.4195 52.5697 62.9057 52.291 62.3572C52.2001 62.1997 52.1395 62.0267 52.1124 61.847C52.0998 61.6328 52.1275 61.4182 52.1941 61.2143C52.3836 60.4828 52.4998 59.7342 52.541 58.9796C52.592 58.0153 52.541 57.0102 52.8879 56.1174C52.9988 55.8113 53.2043 55.5486 53.4747 55.3674C53.7933 55.2199 54.146 55.1617 54.4951 55.199C55.2027 55.1523 55.9009 55.3808 56.4441 55.8368C56.6022 56.0051 56.8879 57 57.0767 57.3112Z" fill="#FFBBAB"/>
<path d="M58.0206 77.4898C57.5685 77.8842 57.0356 78.175 56.4593 78.3418C56.0512 78.4847 55.6328 78.6173 55.2093 78.75C54.6091 78.9306 54.0226 79.154 53.4542 79.4184C52.8522 79.6173 52.4032 79.7653 52.0614 79.8673C51.7534 79.9766 51.44 80.0702 51.1226 80.148C51.1538 80.1303 51.1862 80.115 51.2195 80.102C51.2195 80.102 51.0155 79.199 50.7093 77.9337C50.1991 75.6071 49.342 72.0714 48.9287 70.75C48.734 69.9144 48.6839 69.0515 48.7808 68.199C48.99 65.3929 50.1022 61.7296 52.143 61.9643C52.143 61.9643 55.0308 63.4592 55.9032 64.6224C56.6991 65.699 57.7604 66.5102 57.7706 67.9643C57.7961 70.0051 56.944 71.9184 57.1073 74.0306C57.1102 74.3386 57.1872 74.6413 57.3318 74.9133C57.5767 75.2959 58.0614 75.4796 58.3012 75.8622C58.4366 76.1274 58.4824 76.4293 58.4318 76.7227C58.3812 77.0161 58.2369 77.2853 58.0206 77.4898Z" fill="#4183E4"/>
<path d="M54.8266 77.0867C55.1661 77.57 55.3034 78.1669 55.2092 78.75C55.1601 78.9467 55.0535 79.1243 54.9031 79.2602C54.6586 79.4423 54.3729 79.5615 54.0715 79.6071C53.4112 79.7577 52.7381 79.8448 52.0613 79.8673C51.8215 79.8673 51.5817 79.8673 51.3419 79.8673C51.3215 79.1745 51.1077 78.5011 50.7245 77.9234C50.2143 75.5969 49.3572 72.0612 48.9439 70.7398C48.7491 69.9041 48.6991 69.0413 48.796 68.1888C49.1388 67.7585 49.4235 67.2851 49.6429 66.7806C49.796 66.3826 50.0511 65.949 50.4796 65.9183C50.9082 65.8877 51.1582 66.2041 51.3929 66.5C52.8521 68.3622 53.9184 70.6632 55.199 72.6632C55.265 72.7481 55.3025 72.8517 55.3061 72.9592C55.2768 73.0714 55.2056 73.1682 55.1072 73.2296C54.5561 73.6888 53.9694 74.25 53.9082 74.9541C53.847 75.6581 54.4082 76.4183 54.8266 77.0867Z" fill="url(#paint11_linear)"/>
<path d="M53.3672 74.8163C53.46 75.0923 53.5979 75.3509 53.7754 75.5816C54.2462 76.0357 54.8714 76.2945 55.5254 76.3061C56.2746 76.3834 57.0273 76.4225 57.7805 76.4234C58.2907 76.4234 59.0968 76.1786 59.5254 76.5867C59.6274 76.6888 59.704 76.8112 59.8111 76.9081C60.0933 77.125 60.4463 77.2287 60.8009 77.199C61.5739 77.213 62.3446 77.1097 63.0866 76.8928C63.118 76.8904 63.1481 76.8794 63.1737 76.8612C63.1993 76.843 63.2195 76.8181 63.2321 76.7893C63.2446 76.7605 63.2491 76.7288 63.2451 76.6976C63.241 76.6664 63.2286 76.6369 63.2091 76.6122C63.0581 76.1651 62.834 75.7462 62.5458 75.3724C62.4006 75.1868 62.2158 75.0359 62.0048 74.9309C61.7938 74.8258 61.5621 74.7692 61.3264 74.7653C61.0824 74.7937 60.8415 74.8449 60.607 74.9183C59.894 75.0218 59.1672 74.9732 58.4744 74.7755C57.6668 74.6657 56.8885 74.3988 56.1836 73.9898C55.9898 73.8305 55.8316 73.6324 55.7193 73.4081C55.3981 72.8024 55.1416 72.1645 54.954 71.5051C54.8774 71.25 54.7652 70.9592 54.5101 70.8724C54.4164 70.8515 54.3195 70.8494 54.2249 70.866C54.1304 70.8826 54.04 70.9178 53.9591 70.9694C53.3327 71.2558 52.8373 71.7677 52.5713 72.403C52.3825 73.0561 53.107 74.1786 53.3672 74.8163Z" fill="#FFBBAB"/>
<path d="M53.2757 65.7551C53.2757 65.7551 55.0971 70.6837 55.4543 71.0459C55.8114 71.4082 51.9441 73.597 51.9441 73.597C51.9441 73.597 49.4237 68.801 49.541 66.7245C49.6584 64.648 51.8522 63.7959 53.2757 65.7551Z" fill="#4183E4"/>
<path d="M56.148 55.7602C56.0902 56.2349 55.8639 56.6731 55.5102 56.9949C55.1684 57.3163 54.7449 57.5306 54.3929 57.8418C54.2046 57.9805 54.0544 58.1646 53.9563 58.3769C53.8582 58.5892 53.8153 58.8228 53.8316 59.0561C53.6949 59.0025 53.5437 58.9981 53.4041 59.0437C53.2644 59.0893 53.145 59.1821 53.0663 59.3061C53.0333 59.3907 53.0234 59.4826 53.0378 59.5723C53.0521 59.662 53.0902 59.7462 53.148 59.8163C53.2112 59.8884 53.29 59.9451 53.3784 59.9822C53.4668 60.0193 53.5624 60.0359 53.6582 60.0306C53.2921 60.1775 52.9779 60.4296 52.7551 60.7551C52.1888 61.5969 51.5306 62.2296 51.7347 63.352C51.8878 64.102 52.2908 64.7806 52.5051 65.5153C52.7068 66.2079 52.739 66.9389 52.5991 67.6465C52.4591 68.3542 52.1511 69.0179 51.7009 69.5816C51.2508 70.1453 50.6717 70.5925 50.0125 70.8855C49.3533 71.1785 48.6333 71.3088 47.9133 71.2653C46.5561 71.1888 45.1429 70.3061 44.9235 68.9643C44.6786 67.4337 45.9847 66.0816 46.1327 64.5459C46.2092 63.7143 45.9439 62.8571 46.1327 62.0459C46.4133 60.9235 47.4898 60.2296 48.3061 59.4133C50.0561 57.6531 50.0663 54.7449 52.8265 54.0051C54.1122 53.6939 56.2755 54.0714 56.148 55.7602Z" fill="#FC682D"/>
<path d="M61.556 76.5714L64.7754 68.3827H73.2856L69.005 78.2194L55.9693 77.7296L56.3877 76.9388L61.556 76.5714Z" fill="#4183E4"/>
<path d="M61.556 76.5714L64.7754 68.3827H73.2856L69.005 78.2194L55.9693 77.7296L56.3877 76.9388L61.556 76.5714Z" fill="url(#paint12_linear)"/>
<path d="M79.7449 91.8265C79.5434 91.7444 79.324 91.7163 79.1084 91.7449C78.8927 91.7735 78.6883 91.8579 78.5153 91.9898C78.3418 92.1633 78.2551 92.4031 78.0816 92.5765C77.8341 92.7702 77.5285 92.8745 77.2142 92.8724C76.7162 92.9091 76.2155 92.8816 75.7244 92.7908C75.644 92.7709 75.56 92.7709 75.4796 92.7908C75.4149 92.8179 75.3601 92.8643 75.3227 92.9237C75.2853 92.983 75.267 93.0524 75.2704 93.1224C75.2802 93.2614 75.3184 93.3968 75.3826 93.5204C75.4548 93.7229 75.5842 93.9001 75.7551 94.0306C75.9268 94.1181 76.1187 94.1586 76.3112 94.148C77.6331 94.2118 78.9579 94.1811 80.2755 94.0561C80.6059 94.0478 80.9233 93.9252 81.1734 93.7092C81.9081 92.9541 80.3163 92.0102 79.7449 91.8265Z" fill="#4183E4"/>
<path d="M71.4798 96.4184C71.3063 96.4184 71.1329 96.4184 70.9696 96.4184C70.9071 96.4081 70.8433 96.4081 70.7808 96.4184C70.6612 96.4685 70.5598 96.5539 70.49 96.6632C70.3216 96.8775 70.1686 97.1735 69.9135 97.2806C69.6804 97.3758 69.4346 97.436 69.1839 97.4592C68.6183 97.5069 68.0487 97.4674 67.4951 97.3418C67.4147 97.3219 67.3306 97.3219 67.2502 97.3418C67.1851 97.3683 67.1299 97.4146 67.0924 97.4741C67.0549 97.5335 67.0369 97.6033 67.041 97.6735C67.0509 97.8124 67.0891 97.9478 67.1533 98.0714C67.22 98.3105 67.3658 98.5199 67.5669 98.6654C67.768 98.8109 68.0125 98.8839 68.2604 98.8724H70.342C70.9849 98.8724 71.6278 98.8724 72.2706 98.8469C72.7052 98.8395 73.1371 98.7778 73.5563 98.6632C73.8462 98.5915 74.1055 98.4288 74.2961 98.199C74.3867 98.0812 74.4359 97.9368 74.4359 97.7882C74.4359 97.6397 74.3867 97.4953 74.2961 97.3775C74.1674 97.2557 74.0091 97.1696 73.8369 97.1275L72.4849 96.6582C72.2282 96.5609 71.9636 96.4858 71.6941 96.4337L71.4798 96.4184Z" fill="#4183E4"/>
<path d="M124.061 62.847H124.026C123.865 62.7289 123.722 62.588 123.602 62.4286C123.237 61.9674 122.788 61.5781 122.281 61.2806C122.071 61.1582 121.77 61.0612 121.607 61.2449C121.551 61.3061 121.526 61.3929 121.464 61.449C121.321 61.5816 121.092 61.4949 120.929 61.3929C120.765 61.2908 120.556 61.1786 120.388 61.2806C120.338 61.3197 120.298 61.3701 120.271 61.4278C120.244 61.4855 120.232 61.5488 120.235 61.6123C120.255 61.9082 120.35 62.1941 120.51 62.4439C120.754 62.9332 121.034 63.4039 121.347 63.8521C121.424 63.9873 121.536 64.0989 121.672 64.1745C121.808 64.2501 121.962 64.2868 122.117 64.2806C122.603 64.2803 123.08 64.4032 123.505 64.6378C123.585 64.7146 123.687 64.766 123.796 64.7857C124.107 64.8163 124.214 63.8572 124.265 63.6378C124.291 63.5306 124.429 63.1735 124.378 63.0663C124.327 62.9592 124.163 62.9031 124.061 62.847Z" fill="#FFBBAB"/>
<path d="M132.204 81.7041L132.699 106.204H136.02L136.98 86.7347L139.071 106.204L142.877 106.842L143.75 80.9031L132.204 81.7041Z" fill="#4183E4"/>
<path d="M132.204 81.7041L132.699 106.204H136.02L136.98 86.7347L139.071 106.204L142.877 106.842L143.75 80.9031L132.204 81.7041Z" fill="url(#paint13_linear)"/>
<path d="M140.602 105.821V83.1122L143.75 80.9031L142.689 106.204L140.602 105.821Z" fill="url(#paint14_linear)"/>
<path d="M123.163 65.6633L123.235 65.7245C123.944 66.3367 129.52 71.1377 130.377 70.8571C131.528 70.3376 132.64 69.7357 133.704 69.0561L133.984 68.8877V62.1429L130.485 66.3163L124.296 62.6684L123.163 65.6633Z" fill="#4183E4"/>
<path d="M123.235 65.7245C123.944 66.3367 129.52 71.1378 130.378 70.8571C131.528 70.3376 132.64 69.7357 133.704 69.0561C133.739 68.7821 133.751 68.5056 133.74 68.2296C133.74 67.6327 133.949 66.1888 133.031 66.5357C132.286 66.8214 131.745 67.7857 130.99 68.148C130.754 68.3595 130.461 68.4978 130.148 68.5459C129.638 68.5765 129.23 68.1633 128.872 67.801C127.629 66.5216 126.169 65.4715 124.561 64.699C124.492 64.6576 124.412 64.6364 124.332 64.6378C124.24 64.6613 124.159 64.7153 124.102 64.7908C123.816 65.1071 123.525 65.4184 123.235 65.7245Z" fill="url(#paint15_linear)"/>
<path d="M141.286 60.0306C142.172 60.4746 143.036 60.9633 143.872 61.4949C145.648 62.6327 145.332 63.1582 145.005 65.1225C144.316 69.3219 143.975 73.571 143.985 77.8265C144.054 78.8522 143.98 79.8824 143.765 80.8878C143.582 81.5204 143.158 82.051 143.107 82.7194C140.367 83.0969 134.097 84.5051 132.219 81.699C130.424 79.0051 133.658 69.4541 133.056 65.1786C132.454 60.9031 137.964 60.449 137.964 60.449L141.286 60.0306Z" fill="#4183E4"/>
<path d="M137.51 79.6684L142.474 83.0204L143.286 82C143.766 80.2734 143.989 78.4855 143.949 76.6939C143.832 74.0204 143.949 74.9745 143.949 74.9745L136.964 79.3929L137.51 79.6684Z" fill="url(#paint16_linear)"/>
<path d="M135.036 55.8877C135.032 56.1709 135.049 56.454 135.087 56.7347C135.219 57.3182 135.448 57.8752 135.765 58.3826C135.847 58.5613 135.969 58.7185 136.122 58.8418C136.44 58.9986 136.805 59.0278 137.143 58.9235C137.223 58.9056 137.307 58.9056 137.388 58.9235C137.582 59 137.607 59.2653 137.597 59.4745L137.541 60.449C137.52 60.582 137.544 60.718 137.607 60.8367C137.674 60.9185 137.765 60.9773 137.867 61.0051C138.227 61.1232 138.612 61.1414 138.981 61.0579C139.351 60.9743 139.69 60.7921 139.964 60.5306C140.1 60.4046 140.211 60.254 140.291 60.0867C140.357 59.9236 140.398 59.7517 140.413 59.5765C140.531 58.6428 140.413 57.699 140.5 56.7653C140.621 55.9941 140.643 55.2105 140.566 54.4337C140.493 54.0179 140.317 53.6268 140.056 53.2956C139.794 52.9643 139.454 52.7032 139.066 52.5357C138.261 52.2813 137.395 52.3011 136.602 52.5918C136.213 52.7011 135.83 52.8305 135.454 52.9796C135.271 53.0278 135.113 53.1424 135.01 53.301C134.862 53.602 135.01 54.0357 135.01 54.3571C135.046 54.8724 135.036 55.3826 135.036 55.8877Z" fill="#FFBBAB"/>
<path d="M141.582 52.398C140.847 51.2959 139.133 51.2755 137.939 51.1173C137.768 51.1077 137.602 51.0531 137.459 50.9592C137.424 50.9336 137.395 50.9012 137.373 50.864C137.351 50.8268 137.337 50.7855 137.331 50.7426C137.325 50.6997 137.328 50.6562 137.34 50.6145C137.351 50.5728 137.371 50.5338 137.398 50.5L136.49 51.0102V50.3367C136.178 50.5832 135.849 50.8066 135.505 51.0051V50.4031C135.104 50.715 134.806 51.1394 134.648 51.6221C134.489 52.1047 134.479 52.6236 134.617 53.1122C134.908 54.1326 136.449 54.2398 137.311 54.1939C137.549 54.1735 137.788 54.1735 138.026 54.1939C138.262 54.2201 138.483 54.3284 138.648 54.5C138.84 54.8238 138.947 55.1904 138.959 55.5663C138.962 55.5886 138.971 55.6096 138.985 55.6275C139 55.6297 139.016 55.6297 139.031 55.6275C139.296 55.6582 139.541 55.3469 139.786 55.4541C139.845 55.4871 139.895 55.5351 139.93 55.5933C139.965 55.6515 139.984 55.7179 139.985 55.7857C140.004 55.9486 139.981 56.1137 139.918 56.2653C139.886 56.3236 139.865 56.3878 139.857 56.4541C139.86 56.498 139.871 56.5412 139.888 56.5816L140.056 57.0459C140.1 57.2171 140.203 57.3672 140.347 57.4694C140.456 57.5023 140.571 57.5079 140.682 57.4856C140.793 57.4634 140.897 57.414 140.985 57.3418C141.118 57.2744 141.235 57.1786 141.327 57.0612C141.388 56.9574 141.429 56.8432 141.449 56.7245C141.674 55.5686 141.766 54.391 141.725 53.2143C141.735 52.9351 141.687 52.6569 141.582 52.398Z" fill="#963637"/>
<path d="M140.418 59.5867C140.418 59.5867 141.179 60.0969 141.158 60.6939C141.138 61.2908 137.015 72.8878 137.015 72.8878C137.015 72.8878 136.924 61.7704 137.015 61.2551C137.156 60.7526 137.342 60.2642 137.572 59.7959C137.572 59.7959 139.22 60.9898 140.418 59.5867Z" fill="white"/>
<path d="M139.071 60.6327L139.347 61.5306L138.882 61.9235L138.658 68.2245L137.02 72.8827L136.979 68.148L138.388 61.8929L137.872 61.0102L138.551 60.6327H139.071Z" fill="#212741"/>
<path d="M136.021 77.0306C136.506 77.6446 137.057 78.204 137.663 78.699L138.041 79C138.178 79.119 138.346 79.1968 138.526 79.2245C138.65 79.2217 138.771 79.1922 138.883 79.1378C141.283 78.2034 143.634 77.1494 145.929 75.9796C146.893 75.4694 147.944 74.8418 148.148 73.7806C148.201 73.4127 148.192 73.0386 148.123 72.6735C147.759 69.9922 147.058 67.3676 146.036 64.8622C145.745 64.1531 145.388 62.7857 144.628 62.3112L144.536 62.2653L144.429 62.2143C143.408 61.8469 142.521 62.8674 142.24 63.7449C141.922 64.9996 141.962 66.3184 142.357 67.551C142.752 68.7746 143.044 70.0289 143.23 71.301C143.256 71.4727 143.239 71.6483 143.179 71.8112C143.082 71.9736 142.947 72.1101 142.786 72.2092L136.021 77.0306Z" fill="#4183E4"/>
<path d="M136.021 106.204L135.842 108.01L134.704 108.219L134.194 107.77L133.317 108.459H129.903C129.903 108.459 129.036 106.964 130.924 106.454L132.806 105.944L136.021 106.204Z" fill="#212741"/>
<path d="M142.684 106.204L142.505 108.01L141.368 108.219L140.857 107.77L139.99 108.459H136.577C136.577 108.459 135.709 106.964 137.597 106.454L139.48 105.944L142.684 106.204Z" fill="#212741"/>
<path d="M136.98 86.7347L135.454 85.4949L134.378 105.944L136.02 106.204L136.98 86.7347Z" fill="url(#paint17_linear)"/>
<path d="M137.663 78.699L138.041 79C138.178 79.119 138.346 79.1968 138.525 79.2245C138.649 79.2217 138.771 79.1921 138.882 79.1378C141.282 78.2034 143.634 77.1494 145.928 75.9796C146.893 75.4694 147.944 74.8418 148.148 73.7806C148.201 73.4127 148.192 73.0386 148.122 72.6735C147.759 69.9922 147.058 67.3676 146.036 64.8622C145.745 64.1531 145.388 62.7857 144.627 62.3112L144.536 62.2653L144.428 62.2143C143.949 62.2077 143.48 62.352 143.087 62.6266C142.694 62.9013 142.398 63.2925 142.24 63.7449C142.24 63.7449 145.872 71.1735 145.714 72.2959C145.556 73.4184 137.933 77.0306 137.933 77.0306L137.663 78.699Z" fill="url(#paint18_linear)"/>
<path d="M134.337 77.6531C134.137 77.7034 133.951 77.7955 133.791 77.9235C133.713 77.9899 133.656 78.0768 133.625 78.1742C133.594 78.2716 133.592 78.3756 133.617 78.4745C133.677 78.5892 133.747 78.6985 133.826 78.801C133.923 78.9745 133.939 79.1939 134.025 79.3725C134.201 79.6447 134.472 79.8413 134.786 79.9235C135.694 80.25 136.801 80.2959 137.536 79.6684C138.046 79.2143 139.138 77.3316 137.959 77.0459C137.457 77.0155 136.954 77.0672 136.469 77.199C135.747 77.2914 135.034 77.4432 134.337 77.6531Z" fill="#FFBBAB"/>
<path d="M103.939 51.3979L103.786 51.5663L125.908 65.1326L126.071 64.7653L103.939 51.3979Z" fill="white"/>
<path d="M120.245 61.7245C120.21 61.559 120.237 61.3863 120.321 61.2398C120.38 61.175 120.453 61.1244 120.535 61.0917C120.616 61.059 120.703 61.0451 120.791 61.051C120.875 61.044 120.96 61.0527 121.041 61.0765C121.225 61.1429 121.332 61.3265 121.449 61.4847C121.486 61.5338 121.529 61.5783 121.577 61.6174C121.641 61.6604 121.712 61.6947 121.786 61.7194C121.89 61.7517 121.99 61.798 122.082 61.8571C122.223 61.9648 122.341 62.1002 122.429 62.2551C122.515 62.3785 122.588 62.5101 122.648 62.648C122.715 62.8272 122.744 63.0182 122.735 63.2092C122.741 63.2739 122.725 63.3386 122.689 63.3929C122.641 63.4446 122.575 63.4757 122.505 63.4796C122.224 63.502 121.944 63.4302 121.709 63.2755C121.469 63.1327 121.255 62.9439 121.031 62.7653C120.831 62.6604 120.657 62.5127 120.521 62.3328C120.386 62.1528 120.291 61.9451 120.245 61.7245Z" fill="#FFBBAB"/>
<defs>
<linearGradient id="paint0_linear" x1="84.7298" y1="71.7347" x2="98.6635" y2="202.265" gradientUnits="userSpaceOnUse">
<stop offset="0.01"/>
<stop offset="0.08" stop-opacity="0.69"/>
<stop offset="0.21" stop-opacity="0.32"/>
<stop offset="1" stop-opacity="0"/>
</linearGradient>
<linearGradient id="paint1_linear" x1="140.325" y1="38.8367" x2="77.9535" y2="93.1363" gradientUnits="userSpaceOnUse">
<stop stop-color="white"/>
<stop offset="1" stop-color="#CBCBCB"/>
</linearGradient>
<linearGradient id="paint2_linear" x1="5858.86" y1="2388.52" x2="5295.77" y2="4523.9" gradientUnits="userSpaceOnUse">
<stop offset="0.01"/>
<stop offset="0.08" stop-opacity="0.69"/>
<stop offset="0.21" stop-opacity="0.32"/>
<stop offset="1" stop-opacity="0"/>
</linearGradient>
<linearGradient id="paint3_linear" x1="-17224.6" y1="52.9182" x2="-17224.6" y2="57.1899" gradientUnits="userSpaceOnUse">
<stop stop-color="white"/>
<stop offset="1" stop-color="#CBCBCB"/>
</linearGradient>
<linearGradient id="paint4_linear" x1="-2590.37" y1="383.241" x2="-2590.85" y2="390.767" gradientUnits="userSpaceOnUse">
<stop stop-color="white"/>
<stop offset="1" stop-color="#CBCBCB"/>
</linearGradient>
<linearGradient id="paint5_linear" x1="35.1633" y1="67.4235" x2="-16.1276" y2="111.117" gradientUnits="userSpaceOnUse">
<stop offset="0.01"/>
<stop offset="0.13" stop-opacity="0.69"/>
<stop offset="0.25" stop-opacity="0.32"/>
<stop offset="1" stop-opacity="0"/>
</linearGradient>
<linearGradient id="paint6_linear" x1="-138.827" y1="11247.7" x2="4106.54" y2="9893.61" gradientUnits="userSpaceOnUse">
<stop offset="0.01"/>
<stop offset="0.13" stop-opacity="0.69"/>
<stop offset="0.25" stop-opacity="0.32"/>
<stop offset="1" stop-opacity="0"/>
</linearGradient>
<linearGradient id="paint7_linear" x1="542.023" y1="1378.38" x2="681.547" y2="1297.72" gradientUnits="userSpaceOnUse">
<stop offset="0.01"/>
<stop offset="0.08" stop-opacity="0.69"/>
<stop offset="0.21" stop-opacity="0.32"/>
<stop offset="1" stop-opacity="0"/>
</linearGradient>
<linearGradient id="paint8_linear" x1="6679.46" y1="829.93" x2="6696.01" y2="2366.87" gradientUnits="userSpaceOnUse">
<stop offset="0.01"/>
<stop offset="0.08" stop-opacity="0.69"/>
<stop offset="0.21" stop-opacity="0.32"/>
<stop offset="1" stop-opacity="0"/>
</linearGradient>
<linearGradient id="paint9_linear" x1="3193.67" y1="2808.31" x2="2189.25" y2="3221.51" gradientUnits="userSpaceOnUse">
<stop offset="0.01"/>
<stop offset="0.08" stop-opacity="0.69"/>
<stop offset="0.21" stop-opacity="0.32"/>
<stop offset="1" stop-opacity="0"/>
</linearGradient>
<linearGradient id="paint10_linear" x1="6679.46" y1="981.484" x2="6695.98" y2="2517.06" gradientUnits="userSpaceOnUse">
<stop offset="0.01"/>
<stop offset="0.08" stop-opacity="0.69"/>
<stop offset="0.21" stop-opacity="0.32"/>
<stop offset="1" stop-opacity="0"/>
</linearGradient>
<linearGradient id="paint11_linear" x1="633.934" y1="2302.27" x2="1101.92" y2="2388.33" gradientUnits="userSpaceOnUse">
<stop offset="0.01"/>
<stop offset="0.08" stop-opacity="0.69"/>
<stop offset="0.21" stop-opacity="0.32"/>
<stop offset="1" stop-opacity="0"/>
</linearGradient>
<linearGradient id="paint12_linear" x1="2109.86" y1="1622.49" x2="2372.24" y2="980.846" gradientUnits="userSpaceOnUse">
<stop offset="0.01"/>
<stop offset="0.08" stop-opacity="0.69"/>
<stop offset="0.21" stop-opacity="0.32"/>
<stop offset="1" stop-opacity="0"/>
</linearGradient>
<linearGradient id="paint13_linear" x1="-32631.4" y1="5168.22" x2="-33803.3" y2="5478.38" gradientUnits="userSpaceOnUse">
<stop offset="0.01"/>
<stop offset="0.08" stop-opacity="0.69"/>
<stop offset="0.21" stop-opacity="0.32"/>
<stop offset="1" stop-opacity="0"/>
</linearGradient>
<linearGradient id="paint14_linear" x1="-7893.61" y1="4937.32" x2="-7662.12" y2="4962.01" gradientUnits="userSpaceOnUse">
<stop offset="0.01"/>
<stop offset="0.08" stop-opacity="0.69"/>
<stop offset="0.21" stop-opacity="0.32"/>
<stop offset="1" stop-opacity="0"/>
</linearGradient>
<linearGradient id="paint15_linear" x1="-30074.8" y1="1127.82" x2="-30032.7" y2="908.091" gradientUnits="userSpaceOnUse">
<stop offset="0.01"/>
<stop offset="0.08" stop-opacity="0.69"/>
<stop offset="0.21" stop-opacity="0.32"/>
<stop offset="1" stop-opacity="0"/>
</linearGradient>
<linearGradient id="paint16_linear" x1="-19299.5" y1="1460.49" x2="-19156.2" y2="1720.7" gradientUnits="userSpaceOnUse">
<stop offset="0.01"/>
<stop offset="0.08" stop-opacity="0.69"/>
<stop offset="0.21" stop-opacity="0.32"/>
<stop offset="1" stop-opacity="0"/>
</linearGradient>
<linearGradient id="paint17_linear" x1="-6215.72" y1="4436.36" x2="-6296.49" y2="4438.64" gradientUnits="userSpaceOnUse">
<stop offset="0.01"/>
<stop offset="0.08" stop-opacity="0.69"/>
<stop offset="0.21" stop-opacity="0.32"/>
<stop offset="1" stop-opacity="0"/>
</linearGradient>
<linearGradient id="paint18_linear" x1="-29992" y1="2641.67" x2="-29280.9" y2="2876.26" gradientUnits="userSpaceOnUse">
<stop offset="0.01"/>
<stop offset="0.08" stop-opacity="0.69"/>
<stop offset="0.21" stop-opacity="0.32"/>
<stop offset="1" stop-opacity="0"/>
</linearGradient>
</defs>
</svg>
