<svg width="172" height="120" viewBox="0 0 172 120" fill="none" xmlns="http://www.w3.org/2000/svg">
<path opacity="0.18" d="M74.1376 7.80564C72.7999 8.42521 71.4809 9.10111 70.1948 9.83333C55.0998 18.4276 44.5389 34.5505 28.0169 39.9061C23.5485 41.3564 18.7421 41.7507 15.1279 44.9237C12.5223 47.3072 10.2532 50.0343 8.38305 53.0298C4.43175 59.2364 1.81065 66.1952 0.685329 73.4663C-1.57236 87.5475 1.58653 103.403 12.7905 113.049C21.2392 120.3 33.748 120.671 44.2948 118.709C50.3403 117.587 56.1418 115.395 62.131 113.959C72.6019 111.449 83.4948 111.255 94.0484 113.391C101.014 114.799 107.74 117.221 114.701 118.714C119.709 119.789 124.914 120.385 130.021 119.723C134.921 119.089 138.7 116.752 143.164 114.865C151.659 111.265 160.249 106.674 165.665 98.9345C169.826 92.868 171.747 85.5438 171.101 78.2163C170.411 70.904 167.435 63.9948 162.596 58.4698C160.437 55.9962 157.62 53.8042 156.574 50.65C155.527 47.4958 155.353 43.8207 155.029 40.582C154.311 33.4944 153.462 26.1957 150.002 19.9671C146.154 13.0345 139.343 8.07788 131.922 5.28511C124.501 2.49233 116.48 1.6944 108.552 1.60052C96.7801 1.45971 84.736 2.90538 74.1376 7.80564Z" fill="#4183E4"/>
<path d="M67.679 104.989H103.441L97.1133 82.2483H73.0157L67.679 104.989Z" fill="#4183E4"/>
<path d="M67.679 104.989H103.441L97.1133 82.2483H73.0157L67.679 104.989Z" fill="url(#paint0_linear)"/>
<path d="M139.127 21.4552V80.1268C139.127 81.8285 138.451 83.4606 137.248 84.6639C136.044 85.8672 134.412 86.5432 132.711 86.5432H40.0329C38.332 86.5419 36.7012 85.8654 35.4989 84.6622C34.2966 83.459 33.6213 81.8277 33.6213 80.1268V21.4552C33.6213 19.7534 34.2973 18.1214 35.5006 16.9181C36.7039 15.7148 38.3359 15.0388 40.0376 15.0388H132.706C133.549 15.0382 134.384 15.2037 135.163 15.5259C135.942 15.8481 136.65 16.3206 137.246 16.9165C137.842 17.5123 138.315 18.2199 138.638 18.9986C138.961 19.7774 139.127 20.6122 139.127 21.4552Z" fill="#4183E4"/>
<path d="M139.127 21.455V72.9077H33.6213V21.455C33.6213 19.7528 34.2971 18.1203 35.5003 16.9163C36.7035 15.7122 38.3355 15.0352 40.0376 15.0339H132.706C134.408 15.0364 136.04 15.7137 137.244 16.9174C138.447 18.121 139.125 19.7528 139.127 21.455Z" fill="#473F47"/>
<path d="M137.541 22.6988V71.2086H35.2172V22.6988C35.2215 21.8854 35.3861 21.0808 35.7015 20.331C36.0169 19.5812 36.477 18.9009 37.0554 18.329C37.6338 17.7571 38.3193 17.3048 39.0726 16.998C39.826 16.6911 40.6324 16.5357 41.4458 16.5406H131.312C132.125 16.5357 132.932 16.6911 133.685 16.998C134.439 17.3048 135.124 17.7571 135.702 18.329C136.281 18.9009 136.741 19.5812 137.056 20.331C137.372 21.0808 137.536 21.8854 137.541 22.6988Z" fill="white"/>
<path opacity="0.18" d="M137.541 22.6988V71.2086H35.2172V22.6988C35.2215 21.8854 35.3861 21.0808 35.7015 20.331C36.0169 19.5812 36.477 18.9009 37.0554 18.329C37.6338 17.7571 38.3193 17.3048 39.0726 16.998C39.826 16.6911 40.6324 16.5357 41.4458 16.5406H131.312C132.125 16.5357 132.932 16.6911 133.685 16.998C134.439 17.3048 135.124 17.7571 135.702 18.329C136.281 18.9009 136.741 19.5812 137.056 20.331C137.372 21.0808 137.536 21.8854 137.541 22.6988Z" fill="#4183E4"/>
<path d="M50.4388 50.7487C49.4344 46.7966 47.8854 42.9806 47.0922 38.9768C46.299 34.9731 46.2943 30.8801 46.3365 26.806C46.2852 25.4733 46.4533 24.1413 46.834 22.8632C47.2799 21.61 48.2422 20.4553 49.5189 20.1174L51.3729 32.2507C51.7343 34.6304 52.1051 37.0383 52.9969 39.2913C53.8887 41.5443 55.3438 43.6189 57.456 44.797C56.7663 41.3286 56.296 37.8201 56.0478 34.2925C55.907 32.3633 56.0009 30.0681 57.5921 28.9838C59.0002 28.0029 61.0795 28.5145 62.2858 29.7489C63.4921 30.9834 64.046 32.7013 64.398 34.3863C64.9049 36.813 65.1161 39.3523 66.2051 41.5771C66.5759 42.3422 67.5522 43.1355 68.1483 42.5159C68.2416 42.4068 68.319 42.2852 68.3783 42.1545L74.926 29.2138C75.5268 28.0216 76.0995 26.4868 75.2452 25.4589C74.5975 24.6844 73.4475 24.6234 72.429 24.6093C65.9292 24.5047 59.4665 23.6062 53.1847 21.9339C57.5733 19.7794 62.5721 19.3711 67.4771 19.2115C71.509 19.0801 75.7334 19.1364 79.3006 21.028C79.492 21.113 79.6619 21.2397 79.7981 21.3988C79.9444 21.6228 80.0271 21.8824 80.0375 22.1498C80.6473 27.0685 79.7986 32.058 77.5968 36.4985C76.1417 39.418 74.1281 42.0324 72.5839 44.9097C68.3313 52.8139 67.8526 62.2389 68.8289 71.1617C64.8345 70.7299 62.2576 71.8095 58.2398 71.373C57.2119 71.2603 55.5644 71.0303 54.5412 71.1899C53.9357 71.2885 50.9129 71.5607 50.3168 71.1617C50.3168 71.1617 51.617 65.3791 51.6874 64.2338C51.9661 59.7013 51.545 55.1529 50.4388 50.7487Z" fill="url(#paint1_linear)"/>
<path d="M67.6555 47.9794C67.2847 47.9794 68.43 45.5622 68.4957 45.4542C69.339 44.0833 70.3052 42.7919 71.3823 41.5959C72.3211 40.5117 73.2598 39.3946 74.2878 38.3948C75.2265 37.4561 76.4328 36.2216 77.9113 36.5173C79.0237 36.752 79.6902 37.9959 79.6433 39.1364C79.5964 40.277 79.0097 41.3096 78.3948 42.2718C77.1603 44.201 75.8367 46.0268 74.4943 47.9043L67.6555 47.9794Z" fill="white"/>
<path d="M59.0989 49.2795C59.4556 49.3593 58.8313 46.7496 58.7938 46.6323C58.2491 45.119 57.5688 43.658 56.7614 42.2671C56.0573 41.0045 55.3861 39.7278 54.5741 38.5121C53.8278 37.4138 52.9172 35.9446 51.4106 35.9399C50.2747 35.9399 49.3641 37.0195 49.1763 38.1413C48.9886 39.2631 49.35 40.4037 49.7537 41.4692C50.5657 43.6142 51.4857 45.6935 52.4197 47.7728L59.0989 49.2795Z" fill="white"/>
<path d="M56.2543 44.0553H70.7298C71.2229 44.0422 71.7139 44.1264 72.1745 44.303C72.6351 44.4797 73.0563 44.7454 73.4142 45.085C73.7721 45.4246 74.0595 45.8313 74.2601 46.282C74.4607 46.7327 74.5706 47.2185 74.5833 47.7117V47.8807C74.5833 47.8807 71.8234 59.1456 71.7671 62.9288C71.7671 64.9987 72.4195 71.1898 72.4195 71.1898H54.5458C54.5458 71.1898 55.3719 64.7218 55.3531 62.5533C55.325 58.8593 52.4008 47.8807 52.4008 47.8807C52.3914 47.3875 52.4793 46.8974 52.6595 46.4382C52.8396 45.9791 53.1084 45.5599 53.4506 45.2047C53.7928 44.8494 54.2015 44.5651 54.6536 44.3679C55.1057 44.1707 55.5922 44.0644 56.0853 44.0553H56.2543Z" fill="white"/>
<path d="M82.9055 22.7788C83.0357 22.3773 83.0615 21.9492 82.9806 21.535C82.8581 21.162 82.6258 20.8348 82.3141 20.5962C81.9311 20.2665 81.4803 20.025 80.9937 19.8888C80.507 19.7525 79.9964 19.7248 79.4979 19.8077C79.29 19.8409 79.0926 19.9211 78.9205 20.0424C78.7648 20.1754 78.633 20.3342 78.5309 20.5117C78.024 21.305 77.503 22.2625 77.8316 23.1449C78.0665 23.5695 78.3234 23.9816 78.6014 24.3794C78.7516 24.6657 78.8267 24.9849 78.9675 25.2759C79.3289 26.0081 80.7182 26.9891 81.5678 26.4446C81.9902 26.1771 82.1498 25.2665 82.3047 24.8253C82.5206 24.1681 82.7271 23.4782 82.9055 22.7788Z" fill="#FCA89E"/>
<path d="M46.8107 21.5207C46.678 21.1197 46.6521 20.691 46.7356 20.2769C46.8581 19.904 47.0904 19.5768 47.4021 19.3382C47.7851 19.0085 48.2359 18.767 48.7225 18.6307C49.2092 18.4944 49.7198 18.4668 50.2183 18.5496C50.4262 18.5828 50.6236 18.6631 50.7957 18.7843C50.9514 18.9174 51.0832 19.0761 51.1853 19.2537C51.6875 20.0469 52.2132 20.9997 51.8846 21.8869C51.6497 22.3115 51.3928 22.7235 51.1148 23.1213C50.9646 23.4076 50.8895 23.7268 50.7487 24.0178C50.3873 24.75 48.998 25.731 48.1437 25.1866C47.726 24.919 47.5664 24.0084 47.4115 23.5672C47.1909 22.9101 46.9844 22.2201 46.8107 21.5207Z" fill="#FCA89E"/>
<path d="M65.7217 46.1675C65.6687 46.5945 65.4512 46.984 65.1155 47.2531C64.7798 47.5222 64.3523 47.6497 63.924 47.6085C62.1498 47.524 62.0184 46.1675 62.0184 46.1675V39.127H65.7217V46.1675Z" fill="#FCA89E"/>
<path d="M62.0184 42.605C62.0184 42.605 64.3371 46.2192 65.7217 44.4825V41.6663L62.0184 42.605Z" fill="url(#paint2_linear)"/>
<path d="M60.46 40.8119C61.3987 43.6845 65.9986 43.769 67.5428 41.4878C68.4393 40.1642 68.5473 38.4416 68.2656 36.8692C68.0176 35.3173 67.5431 33.8102 66.8575 32.3961C66.3881 31.5043 65.9188 30.711 64.8251 30.5843C63.5959 30.5039 62.3693 30.7776 61.2908 31.3728C60.2687 31.9239 59.4687 32.8115 59.0264 33.8852C58.5841 34.9588 58.5268 36.1524 58.8641 37.2635C59.0476 37.8204 59.2817 38.3593 59.5635 38.8734C59.9161 39.4933 60.216 40.1418 60.46 40.8119Z" fill="#FCA89E"/>
<path d="M68.0968 32.1145C67.8993 32.5924 67.6089 33.0263 67.2425 33.3912C66.4879 34.1126 65.5258 34.5789 64.492 34.7242C62.9853 34.9636 61.4552 34.6961 59.9344 34.574C59.8995 34.8182 59.7971 35.0478 59.6387 35.2369C59.4803 35.426 59.2722 35.5671 59.0379 35.6442C59.2677 36.7053 59.5736 37.7484 59.9532 38.7655C60.3287 39.7606 60.8637 40.6853 61.2674 41.6569C60.0142 40.7932 59.052 39.31 58.1367 38.1225C57.6522 37.5541 57.2638 36.9104 56.9867 36.2168C56.8481 35.8694 56.7945 35.4939 56.8304 35.1216C56.8664 34.7493 56.9908 34.391 57.1932 34.0765C57.4172 33.7061 57.6665 33.3516 57.9395 33.0157C58.3578 32.7079 58.6511 32.2596 58.7657 31.7531C58.822 31.2227 58.5216 30.7111 58.4793 30.176C58.4656 30.1003 58.4789 30.0223 58.5169 29.9554C58.5639 29.9054 58.6241 29.8696 58.6905 29.8521L59.7748 29.4485C59.6765 29.2229 59.5487 29.0114 59.3946 28.8195C60.0311 28.4831 60.7452 28.3212 61.4645 28.3501C61.3185 28.013 61.1274 27.6972 60.8966 27.4114C61.1387 27.3145 61.399 27.2718 61.6593 27.2864C61.9196 27.301 62.1736 27.3725 62.4033 27.4959C62.9102 27.693 63.3984 27.9371 63.8865 28.1765C63.9319 27.7697 63.9397 27.3596 63.91 26.9514C64.5543 26.8988 65.1955 27.0841 65.7124 27.4724C66.238 27.7677 66.7133 28.1448 67.1205 28.5895C67.4104 28.9158 67.6279 29.2997 67.7588 29.716C67.8903 30.1854 68.1296 30.5703 68.2282 31.0256C68.2938 31.3935 68.248 31.7727 68.0968 32.1145Z" fill="#473F47"/>
<path d="M59.4648 38.9251C59.3029 38.9522 59.1481 39.0114 59.0094 39.0993C58.8707 39.1872 58.7511 39.3019 58.6575 39.4368C58.5549 39.6544 58.5398 39.903 58.6152 40.1314C58.6954 40.3541 58.8146 40.5608 58.9673 40.7416C59.0481 40.8506 59.1446 40.9471 59.2536 41.0279C59.4405 41.1348 59.6532 41.1884 59.8685 41.1828C60.0357 41.1922 60.2034 41.1922 60.3707 41.1828C60.4557 41.1815 60.5392 41.1606 60.6148 41.1218C60.6952 41.0621 60.7544 40.9782 60.7837 40.8824C60.9011 40.5321 60.9011 40.1532 60.7837 39.8029C60.7069 39.4728 60.5451 39.1686 60.3144 38.9205C60.1031 38.7092 59.7511 38.8454 59.4648 38.9251Z" fill="#FCA89E"/>
<path d="M75.0058 36.4093C74.6944 37.1801 74.5612 38.0112 74.6162 38.8407C74.6921 39.3899 74.9303 39.9039 75.3002 40.3168C75.6701 40.7298 76.1548 41.0229 76.6924 41.1585C77.2299 41.2942 77.7958 41.2662 78.3173 41.0782C78.8389 40.8902 79.2924 40.5507 79.6198 40.1033C80.0558 39.4038 80.333 38.6171 80.4318 37.7987C81.164 33.9498 81.8274 30.0916 82.4219 26.2239C81.7366 26.0409 79.6057 25.074 79.0283 25.4589C78.451 25.8437 77.8878 28.2751 77.6202 28.9885C77.1508 30.2324 76.6815 31.4762 76.259 32.7435C75.8366 33.8982 75.5831 35.3204 75.0058 36.4093Z" fill="white"/>
<path d="M48.3782 36.5314C48.4107 37.3621 48.6322 38.1744 49.026 38.9065C49.322 39.3738 49.7505 39.7423 50.2569 39.965C50.7633 40.1877 51.3245 40.2544 51.869 40.1567C52.4135 40.059 52.9165 39.8012 53.3139 39.4164C53.7112 39.0315 53.9849 38.537 54.0999 37.9959C54.2135 37.1783 54.1413 36.3456 53.8887 35.5598C52.9718 31.7516 51.9877 27.9638 50.9363 24.1963C50.237 24.3089 47.9183 24.2949 47.5287 24.8957C47.1391 25.4965 47.6413 27.909 47.6883 28.6976C47.7728 30.0212 47.8745 31.3433 47.9934 32.6638C48.1013 33.8982 48.4533 35.297 48.3782 36.5314Z" fill="white"/>
<path d="M80.3707 3.17285H49.3405V23.1963H80.3707V3.17285Z" fill="#4183E4"/>
<path d="M51.2753 16V9.1925H52.1994L55.7749 14.5372V9.1925H56.6386V16H55.7146L52.139 10.6506V16H51.2753Z" fill="white"/>
<path d="M58.1757 16V9.1925H63.0978V9.99584H59.0765V12.0808H62.8424V12.8795H59.0765V15.1966H63.2557V16H58.1757Z" fill="white"/>
<path d="M65.6889 16L63.8826 9.1925H64.8066L65.8422 13.655C65.9536 14.1224 66.0496 14.5868 66.1301 15.048C66.3034 14.3205 66.4056 13.9011 66.4365 13.7896L67.7321 9.1925H68.8187L69.7938 12.638C70.0384 13.4924 70.2148 14.2958 70.3232 15.048C70.4099 14.6177 70.5229 14.124 70.6622 13.5667L71.7302 9.1925H72.6357L70.769 16H69.9006L68.4658 10.8131C68.345 10.3797 68.2738 10.1135 68.2522 10.0144C68.181 10.3271 68.1144 10.5933 68.0525 10.8131L66.6083 16H65.6889Z" fill="white"/>
<path d="M73.1743 13.8128L74.0241 13.7385C74.0644 14.0791 74.1572 14.3592 74.3027 14.579C74.4513 14.7957 74.6804 14.9722 74.99 15.1084C75.2995 15.2415 75.6478 15.3081 76.0348 15.3081C76.3784 15.3081 76.6818 15.257 76.9449 15.1548C77.208 15.0527 77.4031 14.9134 77.53 14.7369C77.66 14.5574 77.725 14.3623 77.725 14.1518C77.725 13.9382 77.6631 13.7525 77.5393 13.5946C77.4154 13.4336 77.2111 13.299 76.9263 13.1906C76.7437 13.1194 76.3397 13.0095 75.7144 12.8609C75.089 12.7092 74.651 12.5668 74.4002 12.4337C74.0752 12.2634 73.8322 12.0529 73.6712 11.8022C73.5133 11.5483 73.4344 11.2651 73.4344 10.9524C73.4344 10.6088 73.5319 10.2884 73.7269 9.9912C73.9219 9.69091 74.2068 9.46338 74.5813 9.30859C74.9559 9.15381 75.3723 9.07642 75.8304 9.07642C76.335 9.07642 76.7793 9.15845 77.1631 9.32252C77.5501 9.4835 77.8473 9.72187 78.0547 10.0376C78.2621 10.3534 78.3736 10.7109 78.389 11.1103L77.5253 11.1753C77.4789 10.745 77.321 10.42 77.0517 10.2002C76.7855 9.98036 76.3908 9.87046 75.8676 9.87046C75.3228 9.87046 74.925 9.97107 74.6742 10.1723C74.4265 10.3704 74.3027 10.6103 74.3027 10.892C74.3027 11.1366 74.3909 11.3378 74.5674 11.4957C74.7408 11.6536 75.1927 11.8161 75.9233 11.9833C76.657 12.1474 77.1601 12.2913 77.4325 12.4151C77.8287 12.5978 78.1213 12.83 78.3101 13.1117C78.4989 13.3903 78.5934 13.7122 78.5934 14.0775C78.5934 14.4397 78.4897 14.7818 78.2822 15.1038C78.0748 15.4226 77.7761 15.6718 77.386 15.8514C76.9991 16.0278 76.5626 16.116 76.0766 16.116C75.4605 16.116 74.9435 16.0263 74.5256 15.8467C74.1108 15.6672 73.7842 15.3978 73.5458 15.0387C73.3105 14.6765 73.1867 14.2679 73.1743 13.8128Z" fill="white"/>
<path d="M80.7323 6.03614C82.3991 6.03614 83.7504 4.68491 83.7504 3.01807C83.7504 1.35124 82.3991 0 80.7323 0C79.0655 0 77.7142 1.35124 77.7142 3.01807C77.7142 4.68491 79.0655 6.03614 80.7323 6.03614Z" fill="#4183E4"/>
<path d="M80.7323 6.03614C82.3991 6.03614 83.7504 4.68491 83.7504 3.01807C83.7504 1.35124 82.3991 0 80.7323 0C79.0655 0 77.7142 1.35124 77.7142 3.01807C77.7142 4.68491 79.0655 6.03614 80.7323 6.03614Z" fill="url(#paint3_linear)"/>
<path d="M102.901 53.6025H88.2469C87.9462 53.6025 87.7024 53.8463 87.7024 54.147V54.1517C87.7024 54.4524 87.9462 54.6962 88.2469 54.6962H102.901C103.201 54.6962 103.445 54.4524 103.445 54.1517V54.147C103.445 53.8463 103.201 53.6025 102.901 53.6025Z" fill="#4183E4"/>
<path d="M121.328 53.6025H106.675C106.374 53.6025 106.13 53.8463 106.13 54.147V54.1517C106.13 54.4524 106.374 54.6962 106.675 54.6962H121.328C121.629 54.6962 121.873 54.4524 121.873 54.1517V54.147C121.873 53.8463 121.629 53.6025 121.328 53.6025Z" fill="#4183E4"/>
<path d="M112.011 56.0667H88.2469C87.9462 56.0667 87.7024 56.3104 87.7024 56.6111V56.6158C87.7024 56.9165 87.9462 57.1603 88.2469 57.1603H112.011C112.312 57.1603 112.556 56.9165 112.556 56.6158V56.6111C112.556 56.3104 112.312 56.0667 112.011 56.0667Z" fill="#4183E4"/>
<path d="M102.901 58.5261H88.2469C87.9462 58.5261 87.7024 58.7699 87.7024 59.0706V59.0753C87.7024 59.376 87.9462 59.6198 88.2469 59.6198H102.901C103.201 59.6198 103.445 59.376 103.445 59.0753V59.0706C103.445 58.7699 103.201 58.5261 102.901 58.5261Z" fill="#4183E4"/>
<path d="M121.328 58.5261H106.675C106.374 58.5261 106.13 58.7699 106.13 59.0706V59.0753C106.13 59.376 106.374 59.6198 106.675 59.6198H121.328C121.629 59.6198 121.873 59.376 121.873 59.0753V59.0706C121.873 58.7699 121.629 58.5261 121.328 58.5261Z" fill="#4183E4"/>
<path d="M108.275 43.5953C102.281 43.4029 97.4794 41.4221 97.5545 39.1785C97.5545 39.0236 97.6155 37.1226 97.6624 36.9724C97.6624 36.9724 97.9065 37.0381 97.9065 37.0335C98.5965 35.0292 102.971 35.2827 108.538 35.461C113.429 35.6206 117.723 35.386 119.028 37.0945C119.324 37.4794 119.272 39.4695 119.258 39.8826C119.183 42.1074 114.269 43.7924 108.275 43.5953Z" fill="#4183E4"/>
<path d="M108.275 43.5954C102.281 43.403 97.4794 41.4222 97.5545 39.1786C97.5545 39.0237 97.6389 36.888 97.6389 36.888C98.3289 34.8838 102.971 35.2828 108.538 35.4799C113.429 35.6395 117.925 36.0619 119.24 37.7705C119.24 37.7705 119.272 39.4884 119.24 39.9014C119.183 42.1075 114.269 43.7925 108.275 43.5954Z" fill="url(#paint4_linear)"/>
<path d="M108.252 41.638C102.262 41.4456 97.5592 39.507 97.6343 37.2587V36.8175C98.3243 34.8133 102.938 33.3254 108.51 33.5038C113.396 33.6633 117.489 35.0104 118.794 36.719C119.075 37.058 119.227 37.485 119.225 37.9253C119.16 40.1829 114.241 41.8492 108.252 41.638Z" fill="#4183E4"/>
<path d="M118.798 36.7332L108.857 36.9678L97.6295 37.2307C97.6154 37.0981 97.6154 36.9643 97.6295 36.8317C98.1552 35.3063 100.915 34.053 104.703 33.6494C105.966 33.5188 107.236 33.4749 108.505 33.5179C113.415 33.6588 117.493 35.0246 118.798 36.7332Z" fill="url(#paint5_linear)"/>
<path d="M103.159 41.0091L108.857 36.9678L97.6297 37.2306C97.6297 37.2306 97.0664 39.4883 103.159 41.0091Z" fill="url(#paint6_linear)"/>
<path d="M109.115 36.0478L97.7845 36.3107C97.7986 36.152 97.8269 35.9949 97.869 35.8413C98.3947 34.3205 101.211 33.133 104.966 32.72L109.115 36.0478Z" fill="#4183E4"/>
<path d="M108.857 36.9678L109.115 36.0479L97.7845 36.3107L108.857 36.9678Z" fill="#4183E4"/>
<path d="M108.857 36.9678L109.115 36.0479L97.7845 36.3107L97.639 36.8317L108.857 36.9678Z" fill="url(#paint7_linear)"/>
<path d="M103.159 41.0092L103.422 40.0657L109.026 36.3577L108.857 36.9679L103.159 41.0092Z" fill="url(#paint8_linear)"/>
<path d="M109.026 36.3577L97.639 36.827C97.639 36.827 98.8078 39.2208 103.422 40.061L109.026 36.3577Z" fill="#4183E4"/>
<path d="M103.422 40.0658L102.657 42.8257C102.657 42.8257 97.9629 41.6429 97.5734 39.465L97.6391 36.8318C97.6391 36.8318 99.0003 39.8123 103.422 40.0658Z" fill="#4183E4"/>
<path d="M103.422 40.0658L102.657 42.8257C102.657 42.8257 97.9629 41.6429 97.5734 39.465L97.6391 36.8318C97.6391 36.8318 99.0003 39.8123 103.422 40.0658Z" fill="url(#paint9_linear)"/>
<path d="M103.112 35.034L101.521 30.1244L95.7616 28.1624L95.8132 28.0122L101.648 30.0023L101.657 30.0399L103.262 34.9871L103.112 35.034Z" fill="#4183E4"/>
<path d="M95.1701 28.4957C94.9946 28.4577 94.8413 28.3516 94.744 28.2006C94.6468 28.0496 94.6134 27.8662 94.6514 27.6907C94.6894 27.5152 94.7955 27.3619 94.9465 27.2647C95.0975 27.1674 95.2809 27.1341 95.4564 27.172H95.5315C95.707 27.21 95.8603 27.3162 95.9575 27.4671C96.0548 27.6181 96.0881 27.8015 96.0502 27.977C96.0122 28.1525 95.9061 28.3058 95.7551 28.4031C95.6041 28.5003 95.4207 28.5336 95.2452 28.4957H95.1701ZM95.494 27.3457C95.3947 27.318 95.2896 27.3204 95.1917 27.3524C95.0938 27.3845 95.0076 27.4448 94.944 27.5258C94.8804 27.6069 94.8423 27.7049 94.8344 27.8076C94.8265 27.9103 94.8492 28.013 94.8997 28.1028C94.9501 28.1926 95.0261 28.2654 95.1179 28.312C95.2097 28.3587 95.3133 28.3771 95.4156 28.3649C95.5179 28.3527 95.6142 28.3104 95.6925 28.2435C95.7708 28.1765 95.8274 28.0879 95.8554 27.9888C95.8873 27.8582 95.8675 27.7203 95.8002 27.604C95.7328 27.4876 95.6231 27.4018 95.494 27.3645V27.3457Z" fill="#4183E4"/>
<path d="M110.242 34.2221L110.139 34.1048L114.095 30.6689L114.133 30.6783L120.117 31.9785L120.085 32.1334L114.138 30.8379L110.242 34.2221Z" fill="#4183E4"/>
<path d="M120.408 32.72C120.235 32.6721 120.088 32.5574 120 32.4012C119.912 32.2449 119.889 32.0599 119.937 31.8869C119.985 31.7139 120.099 31.567 120.256 31.4785C120.412 31.39 120.597 31.3673 120.77 31.4152C120.942 31.4655 121.087 31.5811 121.175 31.7372C121.263 31.8934 121.286 32.0777 121.239 32.2507C121.191 32.4229 121.076 32.569 120.921 32.657C120.765 32.745 120.581 32.7677 120.408 32.72ZM120.728 31.5654C120.628 31.5371 120.522 31.5391 120.424 31.5711C120.326 31.6031 120.239 31.6637 120.175 31.7452C120.111 31.8266 120.073 31.9252 120.066 32.0284C120.058 32.1317 120.081 32.2348 120.133 32.3247C120.184 32.4146 120.261 32.4871 120.353 32.5332C120.446 32.5792 120.55 32.5966 120.653 32.5831C120.756 32.5696 120.852 32.5259 120.929 32.4575C121.007 32.3891 121.063 32.2991 121.089 32.199C121.122 32.0672 121.103 31.9275 121.036 31.8093C120.969 31.6912 120.858 31.6037 120.728 31.5654Z" fill="#4183E4"/>
<path d="M124.069 47.5287C123.938 47.4952 123.819 47.4241 123.728 47.324C123.637 47.2239 123.576 47.0993 123.555 46.9655C123.534 46.8317 123.552 46.6945 123.607 46.5709C123.663 46.4473 123.753 46.3426 123.868 46.2698C123.982 46.1969 124.115 46.1591 124.25 46.161C124.386 46.1628 124.518 46.2043 124.63 46.2802C124.742 46.3561 124.83 46.4633 124.882 46.5884C124.934 46.7134 124.949 46.8511 124.924 46.9842C124.924 47.0077 124.924 47.0359 124.924 47.0593C124.9 47.1472 124.859 47.2294 124.803 47.301C124.746 47.3726 124.676 47.4321 124.596 47.4759C124.517 47.5198 124.429 47.547 124.338 47.5561C124.248 47.5652 124.156 47.5559 124.069 47.5287ZM124.389 46.3787C124.289 46.3511 124.184 46.3534 124.086 46.3854C123.988 46.4175 123.902 46.4779 123.839 46.5589C123.775 46.6399 123.737 46.7379 123.729 46.8406C123.721 46.9433 123.744 47.046 123.794 47.1358C123.845 47.2256 123.921 47.2984 124.012 47.3451C124.104 47.3917 124.208 47.4101 124.31 47.3979C124.412 47.3857 124.509 47.3434 124.587 47.2765C124.665 47.2096 124.722 47.1209 124.75 47.0218C124.786 46.8899 124.769 46.7489 124.702 46.6295C124.636 46.5101 124.525 46.4217 124.393 46.3834L124.389 46.3787Z" fill="#4183E4"/>
<path d="M123.652 46.792L117.893 45.1867L117.874 45.1726L113.208 39.9062L113.326 39.803L117.977 45.0506L123.694 46.6418L123.652 46.792Z" fill="#4183E4"/>
<path d="M89.2044 38.8828C89.0759 38.8464 88.9611 38.7728 88.8745 38.6712C88.7878 38.5696 88.7332 38.4446 88.7175 38.312C88.7018 38.1794 88.7257 38.0451 88.7862 37.9261C88.8468 37.8071 88.9412 37.7087 89.0576 37.6433C89.174 37.5779 89.3072 37.5484 89.4404 37.5586C89.5735 37.5688 89.7007 37.6183 89.8057 37.7006C89.9108 37.783 89.9891 37.8947 90.0308 38.0216C90.0725 38.1484 90.0757 38.2848 90.0399 38.4135C90.0166 38.4996 89.9764 38.5802 89.9216 38.6507C89.8668 38.7211 89.7985 38.7798 89.7207 38.8235C89.6429 38.8672 89.5572 38.895 89.4685 38.9052C89.3799 38.9154 89.2901 38.9078 89.2044 38.8828ZM89.5283 37.7282C89.4291 37.7005 89.3239 37.7028 89.226 37.7349C89.1282 37.7669 89.042 37.8273 88.9784 37.9083C88.9148 37.9893 88.8766 38.0874 88.8687 38.1901C88.8608 38.2928 88.8836 38.3955 88.934 38.4853C88.9845 38.5751 89.0604 38.6479 89.1523 38.6945C89.2441 38.7412 89.3477 38.7595 89.4499 38.7473C89.5522 38.7351 89.6486 38.6929 89.7269 38.6259C89.8051 38.559 89.8618 38.4704 89.8897 38.3712C89.9259 38.2381 89.9083 38.096 89.8407 37.9757C89.7731 37.8554 89.6609 37.7665 89.5283 37.7282Z" fill="#4183E4"/>
<path d="M95.7052 40.0704L89.9413 38.4652L89.9835 38.315L95.7052 39.9062L102.398 37.8127L102.445 37.9629L95.7052 40.0704Z" fill="#4183E4"/>
<path d="M127.543 45.6606H132.058C132.307 45.6606 132.546 45.7595 132.722 45.9356C132.898 46.1116 132.997 46.3504 132.997 46.5994C132.997 46.8484 132.898 47.0871 132.722 47.2632C132.546 47.4392 132.307 47.5381 132.058 47.5381H127.543C127.294 47.5381 127.055 47.4392 126.879 47.2632C126.703 47.0871 126.604 46.8484 126.604 46.5994C126.604 46.3504 126.703 46.1116 126.879 45.9356C127.055 45.7595 127.294 45.6606 127.543 45.6606Z" fill="#4183E4"/>
<path d="M123.464 30.6219H127.965C128.214 30.6219 128.453 30.7208 128.629 30.8969C128.805 31.0729 128.904 31.3117 128.904 31.5607C128.904 31.8096 128.805 32.0484 128.629 32.2245C128.453 32.4005 128.214 32.4994 127.965 32.4994H123.45C123.201 32.4994 122.962 32.4005 122.786 32.2245C122.61 32.0484 122.511 31.8096 122.511 31.5607C122.511 31.4362 122.536 31.313 122.584 31.1982C122.632 31.0833 122.702 30.9792 122.791 30.8919C122.88 30.8045 122.985 30.7356 123.1 30.6893C123.216 30.643 123.34 30.6201 123.464 30.6219Z" fill="#4183E4"/>
<path d="M92.5745 24.4075H97.0899C97.3388 24.4075 97.5776 24.5064 97.7537 24.6824C97.9297 24.8585 98.0286 25.0972 98.0286 25.3462C98.0286 25.5952 97.9297 25.834 97.7537 26.01C97.5776 26.1861 97.3388 26.285 97.0899 26.285H92.5745C92.3255 26.285 92.0867 26.1861 91.9107 26.01C91.7346 25.834 91.6357 25.5952 91.6357 25.3462C91.6357 25.0972 91.7346 24.8585 91.9107 24.6824C92.0867 24.5064 92.3255 24.4075 92.5745 24.4075Z" fill="#4183E4"/>
<path d="M84.4448 40.061H88.9602C89.2092 40.061 89.4479 40.1599 89.624 40.336C89.8 40.512 89.8989 40.7508 89.8989 40.9998C89.8989 41.2488 89.8 41.4875 89.624 41.6636C89.4479 41.8396 89.2092 41.9385 88.9602 41.9385H84.4448C84.1959 41.9385 83.9571 41.8396 83.7811 41.6636C83.605 41.4875 83.5061 41.2488 83.5061 40.9998C83.5061 40.7508 83.605 40.512 83.7811 40.336C83.9571 40.1599 84.1959 40.061 84.4448 40.061Z" fill="#4183E4"/>
<defs>
<linearGradient id="paint0_linear" x1="87.6179" y1="77.226" x2="83.7738" y2="129.04" gradientUnits="userSpaceOnUse">
<stop offset="0.01"/>
<stop offset="0.08" stop-opacity="0.69"/>
<stop offset="0.21" stop-opacity="0.32"/>
<stop offset="1" stop-opacity="0"/>
</linearGradient>
<linearGradient id="paint1_linear" x1="7053.23" y1="-2431.57" x2="-3841.61" y2="-25998.1" gradientUnits="userSpaceOnUse">
<stop offset="0.01"/>
<stop offset="0.08" stop-opacity="0.69"/>
<stop offset="0.21" stop-opacity="0.32"/>
<stop offset="1" stop-opacity="0"/>
</linearGradient>
<linearGradient id="paint2_linear" x1="640.371" y1="-684.567" x2="627.282" y2="-559.807" gradientUnits="userSpaceOnUse">
<stop offset="0.01"/>
<stop offset="0.08" stop-opacity="0.69"/>
<stop offset="0.21" stop-opacity="0.32"/>
<stop offset="1" stop-opacity="0"/>
</linearGradient>
<linearGradient id="paint3_linear" x1="1162.18" y1="-1715.92" x2="1403.56" y2="-1655.86" gradientUnits="userSpaceOnUse">
<stop offset="0.01"/>
<stop offset="0.08" stop-opacity="0.69"/>
<stop offset="0.21" stop-opacity="0.32"/>
<stop offset="1" stop-opacity="0"/>
</linearGradient>
<linearGradient id="paint4_linear" x1="11225.3" y1="532.852" x2="11705.3" y2="-715.769" gradientUnits="userSpaceOnUse">
<stop offset="0.01"/>
<stop offset="0.08" stop-opacity="0.69"/>
<stop offset="0.21" stop-opacity="0.32"/>
<stop offset="1" stop-opacity="0"/>
</linearGradient>
<linearGradient id="paint5_linear" x1="111.646" y1="48.4946" x2="103.386" y2="26.4834" gradientUnits="userSpaceOnUse">
<stop offset="0.01" stop-color="white"/>
<stop offset="1" stop-color="white" stop-opacity="0"/>
</linearGradient>
<linearGradient id="paint6_linear" x1="5719.21" y1="309.784" x2="5839.74" y2="-9.07157" gradientUnits="userSpaceOnUse">
<stop offset="0.01"/>
<stop offset="0.08" stop-opacity="0.69"/>
<stop offset="0.21" stop-opacity="0.32"/>
<stop offset="1" stop-opacity="0"/>
</linearGradient>
<linearGradient id="paint7_linear" x1="5563.51" y1="1360.65" x2="5552.89" y2="1411.53" gradientUnits="userSpaceOnUse">
<stop offset="0.01"/>
<stop offset="0.08" stop-opacity="0.69"/>
<stop offset="0.21" stop-opacity="0.32"/>
<stop offset="1" stop-opacity="0"/>
</linearGradient>
<linearGradient id="paint8_linear" x1="3282.45" y1="-702.303" x2="3280.23" y2="-604.278" gradientUnits="userSpaceOnUse">
<stop offset="0.01"/>
<stop offset="0.08" stop-opacity="0.69"/>
<stop offset="0.21" stop-opacity="0.32"/>
<stop offset="1" stop-opacity="0"/>
</linearGradient>
<linearGradient id="paint9_linear" x1="3245.62" y1="-1184.05" x2="3664.84" y2="-1055.08" gradientUnits="userSpaceOnUse">
<stop offset="0.01"/>
<stop offset="0.08" stop-opacity="0.69"/>
<stop offset="0.21" stop-opacity="0.32"/>
<stop offset="1" stop-opacity="0"/>
</linearGradient>
</defs>
</svg>
