<svg width="175" height="121" viewBox="0 0 175 121" fill="none" xmlns="http://www.w3.org/2000/svg">
<g clip-path="url(#clip0)">
<path fill-rule="evenodd" clip-rule="evenodd" d="M84.7679 0.591579C95.7186 0.453978 105.965 3.72925 115.833 8.48057C127.783 14.235 144.147 18.0173 147.569 30.832C151.013 43.7316 135.164 53.5759 131.285 66.3517C127.277 79.5541 133.771 95.7994 124.693 106.189C115.224 117.025 99.0119 121.627 84.7679 119.586C71.1794 117.638 63.719 103.553 52.3748 95.8226C40.498 87.7297 20.9489 87.0802 16.849 73.3055C12.7326 59.4754 26.937 47.2714 34.2155 34.8118C39.8141 25.2277 45.0738 15.4762 54.2654 9.25419C63.2377 3.1806 73.9341 0.727712 84.7679 0.591579Z" fill="#E5EDF8"/>
<g opacity="0.1">
<path opacity="0.1" d="M33.2364 14.2028V99.2315L26.1738 99.3083C24.6666 99.3253 23.1657 99.1103 21.7239 98.6709V24.5473H21.7356C25.2044 20.2844 29.0936 16.7272 33.2364 14.2028Z" fill="#4183E4"/>
<path opacity="0.1" d="M179.228 26.396H20.2824C20.7551 25.7687 21.2356 25.1569 21.7239 24.5607V24.5474H178.832C178.985 25.1514 179.117 25.7676 179.228 26.396Z" fill="#4183E4"/>
<path opacity="0.1" d="M166.477 9.94988V81.1937H165.898C165.598 81.8243 165.302 82.4428 165.009 83.049C164.879 83.3176 164.749 83.5812 164.622 83.8449V9.27582C165.264 9.48271 165.882 9.70739 166.477 9.94988Z" fill="#4183E4"/>
<path opacity="0.1" d="M122.328 9.12732V98.2655L120.473 98.2855V9.50773C121.088 9.37759 121.706 9.24912 122.328 9.12732Z" fill="#4183E4"/>
<path opacity="0.1" d="M77.7813 17.3979V98.7493L75.9276 98.7693V17.3095C76.5466 17.3496 77.1656 17.3729 77.7813 17.3979Z" fill="#4183E4"/>
<path opacity="0.1" d="M165.898 81.1953C165.598 81.826 165.302 82.4444 165.009 83.0507H8.47797C8.26329 82.44 8.06308 81.8215 7.87732 81.1953H165.898Z" fill="#4183E4"/>
</g>
<path d="M44.532 51.1995H41.3619V60.8199H44.532V51.1995Z" fill="#3F4D65"/>
<path d="M129.846 50.699H126.676V60.8767H129.846V50.699Z" fill="#3F4D65"/>
<path d="M150.063 95.8845V98.0536L124.715 98.2871L124.445 98.2922L114.811 98.3806L114.581 98.3839L111.653 98.4089H111.566L93.7169 98.5741L64.4168 98.8461H64.3918L56.9421 98.9162L56.862 98.9178L23.7595 99.2215V96.7188L31.5429 92.0471L47.1598 91.9169L47.4935 91.9152L47.6036 91.9136L47.9373 91.9086L55.4354 91.8468L55.7708 91.8452L55.8776 91.8435L56.2113 91.8418L58.6156 91.8218L58.679 91.8201L64.6104 91.7701H64.6588L110.942 91.3797L112.075 91.3713H112.189L113.053 91.363L119.335 91.3113L119.668 91.3063L119.977 91.3029H120.137L122.091 91.2879L122.478 91.2829L122.997 91.2796L124.624 91.2645L127.205 91.2428L127.538 91.2395L128.119 91.2362H128.228L140.693 91.1294L150.063 95.8845Z" fill="#3F4D65"/>
<path opacity="0.2" d="M150.063 95.8845V98.0536L124.715 98.2871L124.445 98.2922L114.811 98.3806L114.581 98.3839L111.653 98.4089H111.566L93.7169 98.5741L64.4168 98.8461H64.3918L56.9421 98.9162L56.862 98.9178L23.7595 99.2215V96.7188L31.5429 92.0471L47.1598 91.9169L47.4935 91.9152L47.6036 91.9136L47.9373 91.9086L55.4354 91.8468L55.7708 91.8452L55.8776 91.8435L56.2113 91.8418L58.6156 91.8218L58.679 91.8201L64.6104 91.7701H64.6588L110.942 91.3797L112.075 91.3713H112.189L113.053 91.363L119.335 91.3113L119.668 91.3063L119.977 91.3029H120.137L122.091 91.2879L122.478 91.2829L122.997 91.2796L124.624 91.2645L127.205 91.2428L127.538 91.2395L128.119 91.2362H128.228L140.693 91.1294L150.063 95.8845Z" fill="black"/>
<path d="M55.4605 87.5439V91.63C55.4605 91.8235 55.4057 92.0131 55.3024 92.1767C55.199 92.3403 55.0513 92.4713 54.8765 92.5543C54.7463 92.6174 54.604 92.6516 54.4594 92.6544L48.6364 92.7779C48.4809 92.7816 48.3267 92.749 48.1859 92.6828C48.008 92.6012 47.8573 92.4703 47.7517 92.3055C47.6461 92.1408 47.5901 91.9491 47.5903 91.7534V87.5439H55.4605Z" fill="#3F4D65"/>
<path opacity="0.1" d="M55.4605 87.5439V91.63C55.4605 91.8235 55.4057 92.0131 55.3024 92.1767C55.199 92.3403 55.0513 92.4713 54.8765 92.5543C54.7463 92.6174 54.604 92.6516 54.4594 92.6544L48.6364 92.7779C48.4809 92.7816 48.3267 92.749 48.1859 92.6828C48.008 92.6012 47.8573 92.4703 47.7517 92.3055C47.6461 92.1408 47.5901 91.9491 47.5903 91.7534V87.5439H55.4605Z" fill="black"/>
<path d="M55.7942 87.5439V91.63C55.7943 91.8235 55.7394 92.0131 55.6361 92.1767C55.5327 92.3403 55.385 92.4713 55.2102 92.5543C55.08 92.6174 54.9377 92.6516 54.7931 92.6544L48.9701 92.7779C48.8146 92.7816 48.6604 92.749 48.5196 92.6828C48.3417 92.6012 48.191 92.4703 48.0854 92.3055C47.9798 92.1408 47.9238 91.9491 47.924 91.7534V87.5439H55.7942Z" fill="#3F4D65"/>
<path d="M127.538 87.5439H119.668V92.7996H127.538V87.5439Z" fill="#3F4D65"/>
<path opacity="0.1" d="M127.538 87.5439H119.668V92.7996H127.538V87.5439Z" fill="black"/>
<path d="M127.205 87.5439H119.335V92.7996H127.205V87.5439Z" fill="#3F4D65"/>
<path opacity="0.1" d="M44.532 51.1979V52.1539L41.3619 52.0722V51.1979H44.532Z" fill="black"/>
<path d="M65.3979 24.2654L61.5888 51.6283C61.5646 51.8031 61.4769 51.9628 61.3424 52.077C61.2079 52.1912 61.036 52.2518 60.8596 52.2473L30.36 51.4565L29.781 51.4414C29.6802 51.4391 29.581 51.4154 29.49 51.3722C29.3989 51.3289 29.318 51.2669 29.2525 51.1902C29.187 51.1135 29.1384 51.0239 29.1099 50.9272C29.0814 50.8305 29.0735 50.7288 29.0869 50.6289L33.3632 21.9846C33.3908 21.8071 33.4839 21.6465 33.6241 21.5344C33.7644 21.4222 33.9416 21.3668 34.1207 21.3789L64.7305 23.4511C64.8293 23.4569 64.9258 23.483 65.0139 23.5279C65.1021 23.5728 65.18 23.6355 65.2427 23.712C65.3054 23.7885 65.3515 23.8772 65.3783 23.9724C65.405 24.0676 65.4117 24.1674 65.3979 24.2654Z" fill="#3F4D65"/>
<path d="M35.4104 23.3911L32.1853 48.6401L60.2156 49.5294L63.6627 25.1697L35.4104 23.3911Z" fill="#4183E4"/>
<path d="M103.486 23.0007H71.1158C70.6246 23.0007 70.2265 23.3988 70.2265 23.89V51.031C70.2265 51.5222 70.6246 51.9203 71.1158 51.9203H103.486C103.977 51.9203 104.375 51.5222 104.375 51.031V23.89C104.375 23.3988 103.977 23.0007 103.486 23.0007Z" fill="#3F4D65"/>
<path d="M102.872 24.9478H71.8382V49.0289H102.872V24.9478Z" fill="#4183E4"/>
<path opacity="0.1" d="M129.846 50.6973V51.3297L126.676 51.3947V50.6973H129.846Z" fill="black"/>
<path d="M144.15 50.1634C144.154 50.2325 144.145 50.3019 144.122 50.3672C144.099 50.4326 144.063 50.4926 144.016 50.5438C143.969 50.5949 143.913 50.636 143.85 50.6647C143.787 50.6934 143.719 50.709 143.649 50.7107L112.415 51.3564C112.286 51.359 112.16 51.3125 112.063 51.2262C111.966 51.1399 111.905 51.0201 111.893 50.8909L109.209 22.9807C109.202 22.9114 109.21 22.8415 109.231 22.7753C109.252 22.709 109.286 22.6477 109.332 22.5952C109.377 22.5426 109.433 22.4998 109.496 22.4694C109.558 22.439 109.626 22.4217 109.696 22.4184L140.693 20.8767L141.026 20.86C141.159 20.853 141.289 20.8979 141.389 20.985C141.49 21.0722 141.552 21.1949 141.564 21.3272L144.15 50.1634Z" fill="#3F4D65"/>
<path d="M110.992 24.0585L139.301 22.667L141.692 48.0278L113.607 48.6952L110.992 24.0585Z" fill="#4183E4"/>
<path opacity="0.1" d="M144.15 50.1634C144.154 50.2325 144.145 50.3019 144.122 50.3672C144.099 50.4326 144.063 50.4926 144.016 50.5438C143.969 50.5949 143.913 50.636 143.85 50.6647C143.787 50.6934 143.719 50.709 143.649 50.7107L140.693 20.8767L141.026 20.86C141.159 20.853 141.289 20.8979 141.389 20.985C141.49 21.0722 141.552 21.1949 141.564 21.3272L144.15 50.1634Z" fill="black"/>
<path opacity="0.1" d="M34.1257 21.3773L30.36 51.4565L29.781 51.4415C29.6802 51.4391 29.581 51.4155 29.49 51.3722C29.3989 51.3289 29.318 51.2669 29.2525 51.1902C29.187 51.1136 29.1384 51.024 29.1099 50.9272C29.0814 50.8305 29.0735 50.7289 29.0869 50.6289L33.3632 21.9846C33.3905 21.806 33.4841 21.6442 33.6255 21.5316C33.7668 21.419 33.9455 21.3639 34.1257 21.3773Z" fill="black"/>
<path opacity="0.1" d="M44.532 57.9702H41.3619V60.82H44.532V57.9702Z" fill="black"/>
<path opacity="0.1" d="M55.7942 87.5422V88.3714L47.924 88.5816V87.5422H55.7942Z" fill="black"/>
<path d="M69.6842 58.9629V87.0266C69.6822 87.198 69.6144 87.3619 69.4948 87.4846C69.3752 87.6073 69.2131 87.6793 69.0419 87.6857L37.0656 88.5366H37.0572C36.8831 88.5345 36.7167 88.4643 36.5936 88.3412C36.4705 88.2181 36.4004 88.0517 36.3982 87.8776V58.9629C36.4004 58.7888 36.4705 58.6224 36.5936 58.4993C36.7167 58.3762 36.8831 58.3061 37.0572 58.3039H69.0252C69.1993 58.3061 69.3657 58.3762 69.4888 58.4993C69.6119 58.6224 69.6821 58.7888 69.6842 58.9629Z" fill="#3F4D65"/>
<path opacity="0.1" d="M37.0656 58.3039V88.5366H37.0572C36.8831 88.5345 36.7167 88.4643 36.5936 88.3412C36.4705 88.2181 36.4004 88.0517 36.3982 87.8776V58.9629C36.4004 58.7888 36.4705 58.6224 36.5936 58.4993C36.7167 58.3762 36.8831 58.3061 37.0572 58.3039H37.0656Z" fill="black"/>
<path d="M38.5255 60.0958H68.1409V84.8309L38.5255 85.4983V60.0958Z" fill="#D4DFEC"/>
<path opacity="0.1" d="M129.846 57.9702H126.676V60.8767H129.846V57.9702Z" fill="black"/>
<path opacity="0.1" d="M127.205 87.5422V88.6117L119.335 88.4014V87.5422H127.205Z" fill="black"/>
<path d="M137.591 58.9629V87.8776C137.589 88.0531 137.518 88.2207 137.393 88.3441C137.268 88.4675 137.099 88.5366 136.924 88.5366L104.941 87.6857C104.77 87.6793 104.607 87.6073 104.488 87.4846C104.368 87.3619 104.3 87.198 104.298 87.0266V58.9629C104.301 58.7888 104.371 58.6224 104.494 58.4993C104.617 58.3762 104.783 58.3061 104.957 58.3039H136.925C137.101 58.3043 137.269 58.3737 137.393 58.497C137.518 58.6203 137.589 58.7877 137.591 58.9629Z" fill="#3F4D65"/>
<path opacity="0.1" d="M137.591 58.9629V87.8776C137.589 88.0531 137.518 88.2207 137.393 88.3441C137.268 88.4675 137.099 88.5366 136.924 88.5366V58.3039C137.099 58.3039 137.268 58.373 137.393 58.4964C137.518 58.6198 137.589 58.7874 137.591 58.9629Z" fill="black"/>
<path d="M135.464 60.0958H105.848V84.8309L135.464 85.4983V60.0958Z" fill="#D4DFEC"/>
<path d="M103.471 58.9629V87.0266C103.469 87.198 103.401 87.3619 103.281 87.4846C103.162 87.6073 103 87.6793 102.828 87.6857L70.8521 88.5366C70.6766 88.5366 70.5081 88.4675 70.3832 88.3441C70.2582 88.2207 70.1869 88.0531 70.1848 87.8776V58.9629C70.1869 58.7888 70.257 58.6224 70.3802 58.4993C70.5033 58.3762 70.6697 58.3061 70.8438 58.3039H102.812C102.986 58.3061 103.152 58.3762 103.275 58.4993C103.398 58.6224 103.469 58.7888 103.471 58.9629Z" fill="#3F4D65"/>
<path d="M72.3121 60.0958H101.927V84.8309L72.3121 85.4983V60.0958Z" fill="#D4DFEC"/>
<path opacity="0.1" d="M150.063 95.8846V98.0536L124.715 98.2872L124.445 98.2922L114.811 98.3806L114.581 98.384L111.653 98.409H111.566L93.7169 98.5742L64.4168 98.8461H64.3918L56.9421 98.9162L56.862 98.9179L23.7595 99.2215V96.7188L57.5477 96.4969H57.6278L64.4669 96.4502H64.4986L111.73 96.1382H111.778L111.806 96.1365H111.885L112.684 96.1315H112.928L125.356 96.0481L126.09 96.0447L126.254 96.0431L150.063 95.8846Z" fill="black"/>
<path d="M87.355 60.8199C92.085 60.8199 95.9193 56.9856 95.9193 52.2557C95.9193 47.5258 92.085 43.6914 87.355 43.6914C82.6251 43.6914 78.7908 47.5258 78.7908 52.2557C78.7908 56.9856 82.6251 60.8199 87.355 60.8199Z" fill="#FBBEBE"/>
<path d="M95.921 69.7746C95.921 69.7746 79.3197 71.7768 80.9047 69.7746C81.4787 69.0505 81.6372 66.9049 81.6055 64.4605C81.5955 63.7181 81.5688 62.9489 81.5304 62.1831C81.3469 58.5124 80.9047 54.9252 80.9047 54.9252C80.9047 54.9252 95.4204 48.0845 93.752 53.507C93.0846 55.6977 93.3031 58.7744 93.8104 61.6625C93.9588 62.5051 94.1307 63.331 94.3109 64.1152C94.7507 66.0279 95.2881 67.9169 95.921 69.7746Z" fill="#FBBEBE"/>
<path opacity="0.1" d="M95.921 69.7746C95.921 69.7746 79.3197 71.7768 80.9047 69.7746C81.4787 69.0505 81.6372 66.9049 81.6055 64.4605C84.1366 63.3794 87.3567 64.1852 87.3567 64.1852C90.747 63.5095 92.9211 63.6413 94.3109 64.1152C94.7507 66.0279 95.2881 67.9169 95.921 69.7746Z" fill="black"/>
<path d="M64.4102 99.0346V98.8945L93.7119 98.5758L111.565 98.4089H111.615L111.596 98.6559L111.621 98.4089H111.653V98.3806L111.882 96.1365L111.968 95.2872L111.995 95.0219L112.018 94.8L113.049 91.3613L114.081 87.9276L114.948 85.0361L116.273 80.618C116.273 80.618 115.522 78.8661 115.105 78.3656C114.688 77.865 114.271 74.4447 114.271 74.4447C114.271 74.4447 110.71 71.0527 109.154 70.6623C108.501 70.4954 107.213 70.2735 105.845 69.9949C105.333 69.8914 104.807 69.7813 104.302 69.6612C104.016 69.5961 103.736 69.5277 103.467 69.4593C102.945 69.3287 102.429 69.1694 101.924 68.9821C101.659 68.8859 101.407 68.7575 101.173 68.6C99.947 67.7007 96.8736 67.5989 96.7552 67.5989C96.7548 67.5951 96.7548 67.5911 96.7552 67.5873V67.5722C96.7595 67.5022 96.7595 67.432 96.7552 67.362C96.7552 67.2953 96.7552 67.2169 96.7402 67.1284C96.7402 67.1017 96.7402 67.0734 96.7285 67.045C96.7201 66.9849 96.7101 66.9215 96.6951 66.8548C96.69 66.825 96.6834 66.7955 96.6751 66.7664C96.6267 66.5653 96.5568 66.3701 96.4665 66.1841C96.4548 66.1574 96.4398 66.129 96.4265 66.1023C96.3447 65.9482 96.2498 65.8014 96.1428 65.6635C96.1212 65.6351 96.0978 65.6051 96.0728 65.5767C95.9361 65.4156 95.7841 65.2681 95.6189 65.1363C95.5739 65.1012 95.5272 65.0645 95.4788 65.0312C95.4518 65.0093 95.4234 64.9892 95.3937 64.9711L95.2452 64.8743L95.1067 64.7942C94.9849 64.7275 94.8564 64.6624 94.7163 64.6007C94.6729 64.5807 94.6262 64.5623 94.5795 64.544C94.5328 64.5256 94.4594 64.4972 94.3976 64.4739H94.3876L94.2625 64.4238C94.1674 64.3921 94.0706 64.3638 93.9688 64.3354L93.8137 64.2954L93.6468 64.257L93.48 64.2219C93.3131 64.1886 93.1346 64.1585 92.9477 64.1352L92.7575 64.1118L92.5623 64.0918L92.3604 64.0751L92.0734 64.0584L91.7397 64.0468C90.268 64.0466 88.8005 64.2027 87.3617 64.5123C86.3622 64.2898 85.3384 64.1956 84.315 64.232H84.1699L84.003 64.242H83.8963L83.681 64.262C83.6093 64.262 83.5359 64.277 83.4641 64.287C83.3924 64.297 83.3173 64.3054 83.2455 64.317L83.1354 64.3354C83.027 64.3537 82.9169 64.3738 82.8017 64.3971C82.765 64.4038 82.7283 64.4121 82.6916 64.4222C82.5465 64.4539 82.4013 64.4922 82.2578 64.5356C82.1861 64.5556 82.1143 64.579 82.0426 64.604C82.0059 64.614 81.9708 64.6274 81.9358 64.6407L81.829 64.6791L81.7239 64.7208L81.5988 64.7709C81.5354 64.7976 81.4736 64.8259 81.4119 64.856C81.3769 64.871 81.3418 64.8877 81.3084 64.906C81.2751 64.9244 81.24 64.9394 81.2083 64.9577C80.8311 65.1527 80.4824 65.3986 80.1722 65.6885L80.0871 65.7703L80.0037 65.8554C79.9753 65.8837 79.9486 65.9138 79.9219 65.9438C79.8132 66.0627 79.7118 66.188 79.6183 66.3192C79.5916 66.3542 79.5666 66.3893 79.5415 66.426C79.4357 66.5822 79.3398 66.7449 79.2546 66.9132C79.2329 66.9532 79.2128 66.9949 79.1928 67.035C79.0567 67.3169 78.945 67.6099 78.8591 67.9109C78.828 68.0222 78.7996 68.1334 78.774 68.2446C78.774 68.2446 75.2419 69.803 72.312 70.9309C71.5329 71.2312 70.7987 71.5032 70.1847 71.7084C70.0062 71.7684 69.8394 71.8235 69.6842 71.8752C69.3475 71.9969 68.9974 72.0776 68.6414 72.1155C68.4736 72.1182 68.3063 72.1339 68.1409 72.1622C66.7944 72.3808 64.4869 73.3301 64.235 74.2828C64.2145 74.3589 64.2089 74.4382 64.2183 74.5164C64.2183 74.5164 64.2183 74.5281 64.2183 74.5348C64.3851 75.7027 63.2172 75.5359 63.2172 75.5359C63.2172 75.5359 62.8001 78.6225 62.2161 79.4568C61.794 80.0574 61.5054 81.3972 61.4686 82.4083C61.4477 82.7233 61.4724 83.0397 61.5421 83.3476C61.5421 83.356 61.5421 83.3643 61.5421 83.371C61.6088 83.5946 61.4486 84.2052 61.1767 84.9878C60.8813 85.847 60.4509 86.9148 60.0371 87.9226C59.4131 89.4442 58.8258 90.8257 58.7891 91.1294C58.7741 91.2645 58.7307 91.5065 58.6706 91.8185C58.427 93.0899 57.8864 95.5108 57.6195 96.4902C57.4209 97.221 57.1323 98.2221 56.9337 98.9095C56.9337 98.9295 56.9221 98.9495 56.9171 98.9679L64.3968 98.8945V99.0346H64.4202H64.4102Z" fill="#4183E4"/>
<path opacity="0.1" d="M67.1398 79.3683C67.1398 79.3683 76.6501 84.2903 80.0705 83.7064L67.1398 79.3683Z" fill="black"/>
<path opacity="0.1" d="M86.4941 77.3662C86.4941 77.3662 95.7541 80.3695 98.8408 80.7866C101.927 81.2037 86.4941 77.3662 86.4941 77.3662Z" fill="black"/>
<path opacity="0.1" d="M96.7651 67.7024C91.9266 68.5934 82.8167 68.4015 78.8791 68.2663C80.3223 63.0941 87.36 64.8526 87.36 64.8526C96.0711 63.1141 96.7385 66.7213 96.7651 67.7024Z" fill="black"/>
<path d="M96.7651 67.3687C91.9266 68.2597 82.8167 68.0678 78.8791 67.9327C80.3223 62.7604 87.36 64.519 87.36 64.519C96.0711 62.7804 96.7385 66.3876 96.7651 67.3687Z" fill="#4183E4"/>
<path d="M122.45 90.1717C122.45 90.1717 128.149 89.2958 128.261 91.7985C128.373 94.3012 125.354 96.0497 125.354 96.0497L122.45 90.1717Z" fill="#FBBEBE"/>
<path opacity="0.1" d="M93.8103 61.6625C93.5652 61.7721 93.3146 61.869 93.0595 61.9528C91.2609 62.5735 89.4472 63.1992 87.5535 63.4261C85.6598 63.653 83.6727 63.4528 82.0209 62.5084C81.8474 62.4105 81.6803 62.3018 81.5203 62.1831C81.3368 58.5124 80.8947 54.9252 80.8947 54.9252C80.8947 54.9252 95.4104 48.0845 93.7419 53.507C93.0778 55.6977 93.3031 58.7744 93.8103 61.6625Z" fill="black"/>
<path d="M85.0058 38.8695C84.7677 38.9324 84.5182 38.9387 84.2772 38.888C84.0361 38.8374 83.8103 38.731 83.6177 38.5775L83.9647 39.0597C83.7602 39.0833 83.553 39.0619 83.3576 38.9971C83.1622 38.9322 82.9833 38.8255 82.8335 38.6843C82.802 39.1159 82.8199 39.5498 82.8869 39.9774C82.3127 40.0051 81.7473 39.8276 81.2918 39.4768C81.2829 39.6273 81.3204 39.777 81.3991 39.9056C81.4779 40.0341 81.5942 40.1355 81.7323 40.1959C81.1555 40.127 80.5733 40.2703 80.0943 40.5992C79.6154 40.928 79.2724 41.4198 79.1295 41.9829L80.0004 42.063C79.316 42.2091 78.7016 42.584 78.2585 43.1258C77.9916 43.4595 77.788 43.8866 77.9048 44.2937C78.0216 44.7008 78.5856 44.9611 78.8926 44.6708C78.4559 45.192 78.1385 45.8024 77.9627 46.4593C77.7868 47.1162 77.7568 47.8035 77.8748 48.4732C77.954 48.7586 77.98 49.0561 77.9515 49.3508C77.8965 49.6261 77.723 49.8647 77.6362 50.1334C77.4694 50.6206 77.6279 51.1495 77.7764 51.635L78.5589 54.2078C78.8425 55.1371 79.1245 56.0681 79.4949 56.9674C79.7572 57.536 79.9802 58.1219 80.1623 58.721C80.3725 59.5285 80.3808 60.4128 80.8297 61.1186C81.1373 61.5627 81.5484 61.9252 82.0276 62.1747C83.6777 63.1191 85.6716 63.3193 87.5603 63.0924C89.449 62.8655 91.261 62.2398 93.0579 61.6191C93.4571 61.4989 93.8403 61.3308 94.1991 61.1186C95.4421 60.3044 95.7191 58.6392 95.951 57.1726C96.2096 55.5375 96.555 53.9058 97.1673 52.3674C97.5311 51.4514 98.0016 50.5221 97.9215 49.541C97.8197 48.238 96.7886 47.1818 96.5333 45.9004C96.4479 45.4721 96.4518 45.0308 96.545 44.604C96.6242 44.3498 96.6685 44.086 96.6768 43.8199C96.6484 43.2826 96.208 42.8688 95.7942 42.5235C94.8965 41.7738 93.97 41.0652 93.0145 40.3978C92.9661 40.0641 93.42 39.9206 93.6252 39.657C93.9155 39.2849 93.6152 38.6943 93.1747 38.5208C92.7342 38.3473 92.2403 38.4607 91.7815 38.5758C91.8114 38.341 91.7647 38.1028 91.6483 37.8966C91.532 37.6904 91.3522 37.5273 91.1357 37.4315C90.9191 37.3357 90.6775 37.3124 90.4467 37.3649C90.2158 37.4175 90.0081 37.5432 89.8544 37.7233C89.7326 37.4439 89.5379 37.2023 89.2908 37.0239C89.0437 36.8454 88.7531 36.7366 88.4496 36.7088C87.3434 36.6221 87.3217 37.468 86.6142 37.9335C85.9068 38.399 85.3229 37.785 84.7789 37.3378C84.679 37.5906 84.6474 37.8652 84.6872 38.1341C84.727 38.4029 84.8369 38.6566 85.0058 38.8695Z" fill="#3F4D65"/>
<path d="M126.676 95.1771C126.676 95.1771 126.527 95.5308 126.254 96.043C125.84 96.8311 125.336 97.5685 124.752 98.2404L124.707 98.2888H124.437L114.803 98.3772H114.573L114.544 98.3439L112.676 96.1265L111.972 95.2906L111.943 95.2555L111.883 95.1854L111.85 95.1454L111.806 95.0937L110.437 93.4686L110.937 91.383L111.79 87.8692L111.811 87.7841L111.978 87.1167L112.097 86.6162L112.494 84.9844L113.855 79.37L116.275 80.6213L118.826 85.1262L120.196 87.5455H120.946C121.088 87.5455 121.414 87.8191 121.741 88.1345C121.857 88.2463 121.974 88.3647 122.074 88.4682C122.371 88.7752 122.606 89.0388 122.606 89.0388C122.606 89.0388 123.823 89.0655 124.15 90.0232C124.167 90.0695 124.181 90.1169 124.192 90.165C124.3 90.5415 124.441 90.9077 124.614 91.2595C124.829 91.7284 125.099 92.2606 125.373 92.7929C125.882 93.7689 126.399 94.6982 126.589 95.0353L126.612 95.077L126.676 95.1771Z" fill="#4183E4"/>
<path opacity="0.1" d="M112.344 87.644L112.327 87.8826V87.8993L112.299 88.283L112.077 91.3714L111.808 95.0921L111.731 96.1399L111.565 98.3823V98.4106L93.7119 98.5775L64.4152 98.8945V99.0347H64.3918V98.8945V98.8478L64.4669 96.4519L64.6104 91.7701L64.7339 87.8008L64.7456 87.4054C64.7529 87.1667 64.8087 86.9321 64.9098 86.7157C65.0108 86.4993 65.1549 86.3059 65.3332 86.1471C65.5115 85.9883 65.7203 85.8675 65.9469 85.7921C66.1735 85.7167 66.413 85.6883 66.651 85.7086C67.4385 85.7753 68.4613 85.8571 69.6842 85.9438L70.1848 85.9805C77.2474 86.4711 90.2999 87.1051 103.471 86.3142C103.748 86.2992 104.026 86.2825 104.305 86.2625C106.347 86.134 108.388 85.9688 110.408 85.762C110.664 85.7352 110.922 85.7648 111.165 85.8486C111.407 85.9324 111.629 86.0684 111.813 86.247C111.998 86.4256 112.141 86.6426 112.233 86.8825C112.324 87.1224 112.362 87.3795 112.344 87.6357V87.644Z" fill="black"/>
<path d="M64.4101 99.0346V98.8945L93.7118 98.5758L111.564 98.4089H111.615V98.3806L111.781 96.1382L111.853 95.1371L112.127 91.3647L112.342 88.3781V88.3047C112.352 88.1671 112.346 88.0287 112.324 87.8926C112.325 87.887 112.325 87.8814 112.324 87.8759C112.278 87.5943 112.163 87.3284 111.99 87.1017C111.806 86.8661 111.566 86.6812 111.291 86.5645C111.016 86.4477 110.715 86.4029 110.418 86.4343C108.398 86.6412 106.357 86.8064 104.315 86.9349C104.036 86.9549 103.758 86.9716 103.481 86.9866C90.3098 87.7691 77.2574 87.1351 70.1947 86.6529L69.6942 86.6162C68.4712 86.5294 67.4484 86.4493 66.6609 86.3809C66.2277 86.3444 65.7963 86.4696 65.4499 86.7324C65.1036 86.9952 64.8669 87.3771 64.7855 87.8041C64.7687 87.8945 64.7586 87.9859 64.7555 88.0778L64.642 91.7751L64.4869 96.4585L64.4135 98.8544V98.9012V99.0413L64.4101 99.0346Z" fill="#3F4D65"/>
<path opacity="0.1" d="M112.394 88.8136L112.189 91.3714L111.883 95.1838L111.807 96.1382L111.64 98.2755L111.63 98.3823V98.4107L111.605 98.6576L111.623 98.4107H111.575L93.7219 98.5775L64.4152 98.8945V98.8478L64.497 96.4519L64.6638 91.7701L64.7706 88.6584C64.7759 88.4814 64.8253 88.3085 64.9145 88.1555C65.0037 88.0025 65.1297 87.8743 65.2812 87.7825C65.4701 87.6667 65.691 87.6141 65.9118 87.6323C66.2622 87.6607 66.6927 87.6941 67.1949 87.7308C68.0108 87.7908 69.0169 87.8609 70.1881 87.9343C72.3572 88.0711 75.0784 88.218 78.1968 88.3381C86.8729 88.6718 98.5855 88.7836 109.711 87.8092C110.211 87.7658 110.729 87.7174 111.234 87.669C111.434 87.6491 111.636 87.6873 111.815 87.7791C111.866 87.8044 111.914 87.8346 111.958 87.8692C112.104 87.9745 112.219 88.116 112.292 88.2797C112.309 88.3122 112.323 88.3463 112.334 88.3815C112.384 88.5197 112.404 88.6669 112.394 88.8136Z" fill="black"/>
<path opacity="0.1" d="M55.7942 91.0977V91.63C55.7943 91.8235 55.7394 92.0131 55.6361 92.1767C55.5327 92.3403 55.385 92.4713 55.2102 92.5543L48.5196 92.6828C48.3417 92.6012 48.191 92.4703 48.0854 92.3055C47.9798 92.1408 47.9238 91.9491 47.924 91.7534V91.2529L55.7942 91.0977Z" fill="black"/>
<path d="M55.8776 92.868L47.1598 93.0348V91.5882L55.8776 91.4214V92.868Z" fill="#3F4D65"/>
<path opacity="0.1" d="M55.8776 92.868L47.1598 93.0348V91.5882L55.8776 91.4214V92.868Z" fill="black"/>
<path d="M56.2113 92.868L47.4935 93.0348V91.5882L56.2113 91.4214V92.868Z" fill="#3F4D65"/>
<g opacity="0.1">
<path opacity="0.1" d="M85.0742 38.3223C84.9112 38.1105 84.8029 37.8618 84.7589 37.5981C84.7186 37.8558 84.7427 38.1195 84.8289 38.3656C84.9118 38.358 84.9938 38.3435 85.0742 38.3223Z" fill="black"/>
<path opacity="0.1" d="M82.9553 39.4301C82.9239 39.2256 82.9032 39.0195 82.8936 38.8128C82.8936 39.018 82.8936 39.2249 82.8936 39.4318L82.9553 39.4301Z" fill="black"/>
<path opacity="0.1" d="M96.5533 44.9978C96.5626 44.8492 96.5826 44.7014 96.6134 44.5557C96.6923 44.3019 96.7372 44.0388 96.7469 43.7732C96.7431 43.7136 96.7342 43.6544 96.7202 43.5963C96.6918 43.7498 96.6468 43.9033 96.6134 44.0551C96.5467 44.3647 96.5265 44.6824 96.5533 44.9978Z" fill="black"/>
<path opacity="0.1" d="M93.0828 39.8423L93.2647 39.9741C93.418 39.8632 93.5615 39.7392 93.6935 39.6037C93.7563 39.5168 93.7952 39.415 93.8063 39.3085C93.8174 39.2019 93.8004 39.0943 93.7569 38.9963C93.7403 39.0344 93.719 39.0703 93.6935 39.1031C93.4883 39.3667 93.0345 39.5119 93.0828 39.8423Z" fill="black"/>
<path opacity="0.1" d="M79.3731 41.4473C79.3122 41.569 79.2636 41.6964 79.2279 41.8277C79.4889 41.6821 79.7701 41.5758 80.0622 41.5124L79.3731 41.4473Z" fill="black"/>
<path opacity="0.1" d="M81.6739 39.632C81.5643 39.5716 81.4594 39.503 81.3602 39.4268C81.356 39.4928 81.3611 39.559 81.3752 39.6236C81.4748 39.6189 81.5747 39.6217 81.6739 39.632Z" fill="black"/>
<path opacity="0.1" d="M97.9865 49.4626C97.9181 50.2719 97.541 51.051 97.2357 51.8185C96.6234 53.3569 96.278 54.9886 96.0194 56.6254C95.7875 58.092 95.5189 59.7571 94.2675 60.5697C93.91 60.7833 93.5271 60.9514 93.1279 61.0702C91.3293 61.6926 89.5157 62.3166 87.622 62.5435C85.7283 62.7704 83.7411 62.5718 82.0893 61.6275C81.6104 61.3776 81.1993 61.0152 80.8914 60.5713C80.4459 59.8656 80.4375 58.9813 80.224 58.1737C80.0419 57.5741 79.8189 56.9877 79.5566 56.4185C79.1878 55.5209 78.9042 54.5832 78.6222 53.6605C78.3608 52.8029 78.1 51.9448 77.8397 51.0861C77.754 50.8278 77.6904 50.5626 77.6495 50.2935C77.5844 50.7207 77.7113 51.1678 77.8397 51.5866C78.1 52.4464 78.3608 53.3046 78.6222 54.1611C78.9042 55.0904 79.1878 56.0214 79.5566 56.9191C79.8189 57.4882 80.0419 58.0747 80.224 58.6743C80.4342 59.4818 80.4425 60.3661 80.8914 61.0719C81.1993 61.5157 81.6104 61.8781 82.0893 62.128C83.7411 63.0724 85.7333 63.2709 87.622 63.044C89.5107 62.8171 91.3227 62.1931 93.1279 61.5708C93.5271 61.452 93.91 61.2838 94.2675 61.0702C95.5105 60.2577 95.7875 58.5925 96.0194 57.1259C96.278 55.4892 96.6234 53.8574 97.2357 52.3191C97.5994 51.4048 98.07 50.4754 97.9899 49.4927C97.9899 49.4827 97.9865 49.4727 97.9865 49.4626Z" fill="black"/>
<path opacity="0.1" d="M78.0166 48.8169C78.0166 48.8169 78.0166 48.8053 78.0166 48.7986C78.0467 48.5044 78.0207 48.2071 77.9399 47.9226C77.9066 47.7396 77.8848 47.5545 77.8748 47.3687C77.8556 47.7215 77.8774 48.0754 77.9399 48.4232C77.9666 48.5533 77.9966 48.6851 78.0166 48.8169Z" fill="black"/>
<path opacity="0.1" d="M78.5255 44.7359C78.6539 44.5203 78.7995 44.3155 78.961 44.1236C78.6557 44.4155 78.0917 44.1553 77.9733 43.7498C77.9296 43.9138 77.9296 44.0864 77.9733 44.2504C78.0143 44.3728 78.0871 44.4822 78.1841 44.5674C78.281 44.6527 78.3988 44.7108 78.5255 44.7359Z" fill="black"/>
</g>
<path opacity="0.1" d="M120.197 87.5439C120.197 87.5439 120.726 89.4626 120.197 91.1311C119.668 92.7996 120.197 87.5439 120.197 87.5439Z" fill="black"/>
<path opacity="0.1" d="M122.45 89.501C122.45 89.501 122.672 91.9369 122.171 92.3691C121.67 92.8012 122.45 89.501 122.45 89.501Z" fill="black"/>
<path d="M39.2579 64.0518L56.2113 63.8849" stroke="#4183E4" stroke-width="0.333695" stroke-miterlimit="10"/>
<path d="M39.2579 66.1323L56.2113 65.9672" stroke="#4183E4" stroke-width="0.333695" stroke-miterlimit="10"/>
<path d="M39.2579 68.2146L56.2113 68.0478" stroke="#4183E4" stroke-width="0.333695" stroke-miterlimit="10"/>
</g>
<defs>
<clipPath id="clip0">
<rect width="174" height="119.394" fill="white" transform="translate(0.32959 0.625732)"/>
</clipPath>
</defs>
</svg>
