<svg width="124" height="121" viewBox="0 0 124 121" fill="none" xmlns="http://www.w3.org/2000/svg">
<path opacity="0.18" d="M122.597 80.769C120.539 72.6782 114.86 65.8266 113.06 57.6731C111.425 50.26 113.154 42.5645 113.107 34.9757C113.041 24.4034 109.028 13.3856 100.514 7.10189C92.2164 0.968715 81.0637 0.200108 70.8334 1.5836C60.6031 2.96709 50.6802 6.22662 40.4028 7.29012C35.7222 7.77638 30.9286 7.81403 26.4675 9.31673C18.954 11.8516 13.3949 18.1949 8.89934 24.7234C5.7057 29.3539 2.80068 34.3263 1.63051 39.8257C-0.810208 51.3203 4.6171 63.0408 4.45397 74.7738C4.37868 80.3204 3.05479 85.8826 3.87359 91.3663C5.29159 100.881 12.9463 108.392 21.401 112.988C33.1779 119.394 46.9407 121.458 60.3396 120.909C82.6637 119.98 131.28 114.939 122.597 80.769Z" fill="#4183E4"/>
<path d="M27.6127 104.514C27.5434 104.469 27.4836 104.411 27.4368 104.343C27.39 104.275 27.357 104.199 27.3398 104.118C27.3226 104.037 27.3215 103.954 27.3366 103.873C27.3516 103.792 27.3826 103.714 27.4276 103.645L52.2112 65.2837L53.2653 65.9676L28.4817 104.329C28.4368 104.398 28.3788 104.458 28.3108 104.505C28.2428 104.552 28.1663 104.585 28.0856 104.602C28.0048 104.619 27.9215 104.62 27.8404 104.605C27.7592 104.59 27.6818 104.559 27.6127 104.514Z" fill="#4183E4"/>
<path opacity="0.18" d="M55.4582 106.145C41.9464 106.315 29.8024 105.499 16.3816 106.519C20.5666 108.137 26.9005 110.569 31.7537 110.911C53.3375 112.479 75.1 113.003 96.8061 112.498C98.2806 112.464 99.8241 112.413 101.095 111.93C102.365 111.447 103.234 110.381 102.616 109.515C100.856 107.058 87.6236 106.788 83.95 106.826C75.3542 106.92 64.0415 106.039 55.4582 106.145Z" fill="#4183E4"/>
<path d="M50.7367 102.353C50.605 102.826 50.492 103.353 50.7367 103.786C51.0285 104.301 51.7532 104.477 52.3524 104.332C52.9516 104.188 53.5884 103.915 53.8833 103.391C55.1225 101.195 58.1781 95.7521 59.9098 91.9562C60.3961 90.8895 61.4941 90.3876 60.6502 89.5468C58.5671 87.4669 55.1256 90.7546 54.4794 92.5491C53.2935 95.8462 51.6622 98.9489 50.7367 102.353Z" fill="url(#paint0_linear)"/>
<path d="M83.4544 106.199C84.0003 106.581 84.3705 104.724 84.9822 104.451C86.0363 103.981 84.245 92.2164 83.5548 90.927C82.2027 88.4173 78.1621 87.7898 78.3315 91.6862C78.3817 93.2014 82.8929 105.813 83.4544 106.199Z" fill="url(#paint1_linear)"/>
<path d="M70.2782 51.8285C68.7724 52.4214 67.5991 53.6387 66.6203 54.9249C61.491 61.6667 60.5185 70.8994 55.3014 77.5753C53.9618 79.2913 52.3305 80.8599 51.5838 82.9085C50.1846 86.7421 52.9171 91.5106 56.9358 92.2384C58.3036 92.4894 59.7812 92.3388 61.0142 92.96C62.2471 93.5811 63.0031 94.8046 64.0509 95.6799C67.094 98.2273 71.9378 97.1826 74.9212 94.5631C76.0663 93.556 77.1173 92.3074 78.5761 91.8745C80.4584 91.3161 82.532 92.2855 84.4583 91.8494C86.6323 91.36 88.0785 89.1389 88.3138 86.9241C88.5491 84.7092 87.8182 82.5132 86.9711 80.4552C84.4928 74.4318 80.8944 68.7002 80.1666 62.2282C79.8529 59.4048 80.4803 54.7775 78.5164 52.4057C76.9259 50.4482 72.3582 51.0128 70.2782 51.8285Z" fill="#4183E4"/>
<path d="M79.2002 57.4849C78.9869 58.3947 78.4849 59.3672 77.572 59.5931C76.7438 59.7907 75.8434 59.2793 75.0466 59.5742C73.9203 59.9915 73.8419 61.6385 72.8851 62.3663C72.3643 62.7616 71.6741 62.8181 71.0467 62.9938C69.4593 63.4455 68.242 64.6878 67.1001 65.88C66.6578 64.3114 67.7558 62.7898 68.3738 61.2871C69.102 59.4993 69.1764 57.512 68.584 55.6747C68.4113 55.2396 68.2851 54.7874 68.2075 54.3257C68.172 54.0935 68.1937 53.856 68.2708 53.6341C68.3479 53.4121 68.478 53.2123 68.6499 53.0521C68.8878 52.8877 69.1605 52.7803 69.4467 52.7383C70.7903 52.4618 72.174 52.4415 73.525 52.6787C74.4224 52.8943 75.3303 53.064 76.245 53.187C77.3555 53.2748 78.0143 52.823 78.9649 52.4717C79.4796 54.0936 79.5607 55.8219 79.2002 57.4849Z" fill="url(#paint2_linear)"/>
<path d="M49.1242 102.757C48.8155 103.193 48.5457 103.655 48.318 104.138C48.1566 104.424 48.0856 104.752 48.114 105.079C48.2257 105.468 48.4684 105.806 48.8011 106.036C49.6916 106.768 50.6484 107.416 51.659 107.971C52.9704 108.715 54.3853 109.383 55.9131 109.502C56.6873 109.605 57.4734 109.437 58.1373 109.025C58.7647 108.583 59.0785 107.727 58.7271 107.074C58.3757 106.422 57.4534 106.193 56.7413 105.819C54.7743 104.831 51.4551 99.4508 49.1242 102.757Z" fill="#3E3E54"/>
<path d="M83.1124 104.872C82.8954 104.989 82.7118 105.16 82.5791 105.367C82.4703 105.596 82.4197 105.848 82.4317 106.102C82.4296 106.846 82.5868 107.582 82.8928 108.26C82.9785 108.487 83.1251 108.685 83.3163 108.834C83.4989 108.939 83.7024 109.004 83.9124 109.022C85.7665 109.305 87.6582 109.163 89.5279 109.022C90.2934 108.963 91.1436 108.862 91.6267 108.269C91.8336 107.975 91.9446 107.625 91.9446 107.265C91.9446 106.906 91.8336 106.555 91.6267 106.262C91.1983 105.679 90.565 105.279 89.8542 105.145C89.1985 104.997 88.4644 105.17 87.837 105C87.3445 104.869 86.9115 104.483 86.3814 104.357C85.2663 104.096 84.0933 104.281 83.1124 104.872Z" fill="#3E3E54"/>
<path d="M56.3523 51.2921C56.0229 52.9077 55.9162 54.5736 55.43 56.1484C54.9092 57.8362 53.9524 59.4299 53.9084 61.193C53.8718 61.4886 53.9492 61.787 54.1249 62.0275C54.9092 62.8933 57.1899 61.1836 57.6197 60.5122C58.1091 59.7562 58.3099 58.8558 58.5013 57.9743L59.8565 51.7815C60.0824 50.7431 60.3271 49.6231 60.9859 48.7604C61.6133 47.9604 67.6806 41.0304 67.3575 39.9073C66.8242 38.025 59.0126 44.773 58.1593 45.9275C57.1742 47.2545 56.6723 49.7235 56.3523 51.2921Z" fill="url(#paint3_linear)"/>
<path d="M67.6808 35.6751C67.0847 38.0688 67.3671 40.5817 67.5522 43.0443C67.7718 45.803 67.8889 48.5658 67.9035 51.3327C67.9035 52.9013 67.938 54.6299 68.967 55.8189C70.3787 57.4502 72.9512 57.2746 75.0312 56.691C75.7895 56.5208 76.5063 56.2008 77.1393 55.7499C78.5072 54.6613 78.7958 52.7319 78.9464 50.9877C79.3635 46.0623 79.461 41.115 79.2381 36.1771C79.0938 33.0211 77.9236 28.6824 73.8579 28.9804C70.9968 29.1812 68.3019 33.203 67.6808 35.6751Z" fill="#4183E4"/>
<path d="M78.943 50.9783C78.7956 52.7194 78.5101 54.6519 77.1392 55.7405C76.5053 56.192 75.7874 56.512 75.0279 56.6816C72.951 57.2652 70.3786 57.4408 68.9668 55.8064C67.9378 54.6205 67.9096 52.8951 67.9033 51.3234C67.9033 49.6387 67.85 47.9572 67.7622 46.2725C67.7099 45.1891 67.6409 44.11 67.5551 43.035C67.3575 40.5754 67.0845 38.0594 67.6837 35.6689C68.1355 33.8493 69.7135 31.1984 71.6491 29.8369C72.2878 29.3506 73.0471 29.0479 73.8451 28.9616C77.9235 28.6479 79.0811 33.0023 79.2254 36.1614C79.4533 41.1013 79.359 46.0507 78.943 50.9783Z" fill="url(#paint4_linear)"/>
<path d="M73.9518 31.1075C73.4725 32.2483 72.8675 33.3321 72.1479 34.3388C71.7918 34.7829 71.5042 35.2777 71.2946 35.807C71.1422 36.4405 71.1071 37.0965 71.1911 37.7426C71.3699 40.5661 71.0248 43.7346 68.9261 45.6483C68.6033 45.9607 68.2005 46.1778 67.7622 46.2758C67.7099 45.1924 67.6409 44.1132 67.5551 43.0382C67.3575 40.5786 67.0845 38.0626 67.6837 35.6721C68.1355 33.8526 69.7135 31.2016 71.6491 29.8401C71.9628 29.8087 72.2766 29.7899 72.5715 29.7868C73.9079 29.7868 74.5259 29.7052 73.9518 31.1075Z" fill="url(#paint5_linear)"/>
<path d="M80.5806 14.976C80.8316 16.6952 81.0732 19.6535 81.252 21.379C81.3367 22.2103 81.4057 23.1013 81.0073 23.8385C80.7009 24.3587 80.2405 24.7708 79.6897 25.0181C79.1369 25.2609 78.5637 25.4541 77.9768 25.5953C77.478 25.7365 76.9384 25.909 76.656 26.3576C76.4798 26.6929 76.3923 27.0676 76.4019 27.4462L76.3015 29.1089C76.2733 29.5858 75.7964 30.0501 75.3604 30.2289C74.9059 30.3843 74.4126 30.3843 73.9581 30.2289C73.5529 30.1209 73.185 29.9039 72.8946 29.6015C72.5546 29.1621 72.3536 28.6312 72.3173 28.0768C72.1818 26.7884 72.2464 25.4868 72.5087 24.2181C72.6145 23.5957 72.7633 22.9815 72.9542 22.3797C73.1361 21.8276 73.3714 21.2911 73.6067 20.7547C73.8552 20.1425 74.1631 19.5562 74.5259 19.0041C74.9908 18.3938 75.5233 17.8382 76.1133 17.3477C76.6881 16.7741 77.3472 16.2917 78.0678 15.9171C78.8834 15.5344 79.9061 14.3548 80.5806 14.976Z" fill="url(#paint6_linear)"/>
<path d="M84.6088 11.359C82.5665 13.4107 80.154 15.0515 77.7604 16.6922C76.6467 17.4483 75.5298 18.2075 74.3565 18.8663C70.9703 20.7464 67.2002 21.83 63.3325 22.0348C63.1537 21.6145 63.7372 21.2066 64.1481 21.0058L68.0006 19.1235C68.1754 19.059 68.3308 18.951 68.4523 18.8098C68.5858 18.5594 68.6162 18.2667 68.5371 17.9942C68.2798 16.4036 67.8343 14.6876 68.5371 13.2413C69.1049 12.0869 70.2813 11.3841 71.4076 10.763C72.3487 10.2391 73.4154 9.71516 74.4726 9.93789C75.5298 10.1606 76.2733 11.0579 76.8945 11.9331C77.0291 12.1632 77.2188 12.3562 77.4466 12.4947C77.6131 12.566 77.7925 12.6023 77.9737 12.6014C80.4301 12.7049 82.4818 10.8665 84.7688 9.97554C84.9211 9.89951 85.0937 9.87422 85.2613 9.90339C85.688 10.0257 85.6096 10.7002 85.2833 11.0045C84.957 11.3088 84.9225 11.0422 84.6088 11.359Z" fill="#4183E4"/>
<path d="M85.2927 10.9949C84.979 11.3086 84.9256 11.042 84.6088 11.3557C82.5634 13.4105 80.154 15.0513 77.7572 16.6889C76.6435 17.4449 75.533 18.201 74.3565 18.863C70.9692 20.7408 67.1998 21.8253 63.3325 22.0346C63.1537 21.6111 63.7372 21.2001 64.1481 21.0025L68.0006 19.1202C68.1739 19.0529 68.3287 18.9454 68.4523 18.8065C68.5873 18.5554 68.6178 18.2611 68.5371 17.9877C68.2798 16.3971 67.8343 14.6811 68.5371 13.2349C69.1017 12.0804 70.2782 11.3777 71.4076 10.7565C72.3487 10.2326 73.4091 9.70868 74.4694 9.93456C75.5298 10.1604 76.2733 11.0514 76.8913 11.9267C77.0268 12.1561 77.2163 12.3489 77.4435 12.4882C77.5138 12.5202 77.5875 12.5444 77.6631 12.5604C77.7664 12.5817 77.8714 12.5932 77.9768 12.5949C80.1917 12.689 82.0834 11.1957 84.1163 10.2514C84.3327 10.1479 84.5523 10.0569 84.7719 9.96906C84.922 9.89309 85.0926 9.86778 85.2582 9.89691C85.7005 10.0224 85.619 10.6875 85.2927 10.9949Z" fill="url(#paint7_linear)"/>
<path d="M78.9336 17.8655C77.2629 19.0162 76.1131 20.7792 75.7337 22.7721C75.5455 23.7854 75.5675 24.8269 75.3886 25.8402C75.1835 26.9636 74.7418 28.0304 74.0927 28.97C73.4436 29.9095 72.6021 30.7002 71.624 31.2895C70.8648 31.7381 70.0084 32.0769 69.428 32.742C68.8476 33.4071 68.5967 34.411 68.4147 35.3333C67.8437 38.2321 67.323 41.2939 65.5034 43.6186C64.2152 45.2799 62.3518 46.399 60.28 46.7558C59.2514 46.9213 58.1999 46.8748 57.19 46.619C56.18 46.3633 55.2331 45.9038 54.4072 45.2687C53.0458 44.1483 52.0667 42.632 51.6057 40.93C50.9155 38.5207 51.292 35.5968 53.2967 34.0565C54.2327 33.3959 55.3318 33.0042 56.4746 32.924C57.1585 32.8549 57.9491 32.8079 58.3569 32.2526C58.5271 31.9647 58.6341 31.6439 58.6706 31.3115C58.8699 30.3232 59.1522 29.3535 59.5145 28.4127C59.7875 27.7006 60.142 26.9696 60.7694 26.5304C61.3968 26.0912 62.2627 26.0567 63.0313 25.859C64.2977 25.5268 65.3928 24.7307 66.0995 23.6285C66.9245 22.3235 68.0571 22.0819 69.3119 21.1847C69.7256 20.8786 70.1642 20.6078 70.6233 20.3753C71.1727 20.1218 71.7412 19.912 72.3236 19.7478C74.6294 19.0263 77.0984 17.3291 79.0654 15.9268C79.0623 16.2969 78.9431 17.4953 78.9336 17.8655Z" fill="#3E3E54"/>
<path d="M78.9336 17.8655C77.2629 19.0162 76.1131 20.7792 75.7337 22.7721C75.5455 23.7854 75.5675 24.8269 75.3886 25.8402C75.1835 26.9636 74.7418 28.0304 74.0927 28.97C73.4436 29.9095 72.6021 30.7002 71.624 31.2895C70.8648 31.7381 70.0084 32.0769 69.428 32.742C68.8476 33.4071 68.5967 34.411 68.4147 35.3333C67.8437 38.2321 67.323 41.2939 65.5034 43.6186C64.2152 45.2799 62.3518 46.399 60.28 46.7558C59.2514 46.9213 58.1999 46.8748 57.19 46.619C56.18 46.3633 55.2331 45.9038 54.4072 45.2687C53.0458 44.1483 52.0667 42.632 51.6057 40.93C50.9155 38.5207 51.292 35.5968 53.2967 34.0565C54.2327 33.3959 55.3318 33.0042 56.4746 32.924C57.1585 32.8549 57.9491 32.8079 58.3569 32.2526C58.5271 31.9647 58.6341 31.6439 58.6706 31.3115C58.8699 30.3232 59.1522 29.3535 59.5145 28.4127C59.7875 27.7006 60.142 26.9696 60.7694 26.5304C61.3968 26.0912 62.2627 26.0567 63.0313 25.859C64.2977 25.5268 65.3928 24.7307 66.0995 23.6285C66.9245 22.3235 68.0571 22.0819 69.3119 21.1847C69.7256 20.8786 70.1642 20.6078 70.6233 20.3753C71.1727 20.1218 71.7412 19.912 72.3236 19.7478C74.6294 19.0263 77.0984 17.3291 79.0654 15.9268C79.0623 16.2969 78.9431 17.4953 78.9336 17.8655Z" fill="url(#paint8_linear)"/>
<path d="M74.5822 30.4361C73.9548 31.2738 73.8701 32.4031 74.0803 33.4227C74.3415 34.4296 74.7405 35.3956 75.2661 36.2932L81.1295 47.4271C82.9616 50.8999 84.8596 54.4637 87.8274 57.0331C88.7871 57.8605 89.8399 58.5732 90.9645 59.157C91.1841 59.263 91.394 59.388 91.592 59.5303C92.0845 59.9161 92.3355 60.5216 92.6774 61.0455C93.2422 61.874 94.0498 62.507 94.9891 62.8576C95.9285 63.2082 96.9534 63.259 97.9228 63.0031C98.1487 62.1875 97.5934 61.3655 96.9816 60.7851C96.3699 60.2048 95.6327 59.6809 95.3378 58.8872C95.3534 58.9514 95.3816 59.012 95.4206 59.0654C95.4597 59.1188 95.5089 59.1639 95.5654 59.1983C95.6219 59.2327 95.6847 59.2556 95.75 59.2657C95.8154 59.2758 95.8821 59.273 95.9464 59.2573C96.0106 59.2417 96.0712 59.2135 96.1246 59.1745C96.178 59.1354 96.2231 59.0862 96.2575 59.0297C96.2919 58.9732 96.3148 58.9105 96.3249 58.8451C96.3351 58.7797 96.3322 58.713 96.3166 58.6487C96.253 58.4805 96.1445 58.3329 96.0028 58.2221C95.5929 57.7879 95.1315 57.4055 94.6288 57.0833C94.0923 56.7696 93.4868 56.6002 92.9535 56.2896C92.3255 55.8901 91.7714 55.3849 91.3159 54.7963C90.1043 53.3577 89.0465 51.7963 88.1599 50.1376C87.3756 48.6788 86.7231 47.1416 85.8196 45.7455C85.0133 44.4907 84.0063 43.3801 83.3475 42.0499C82.1679 39.6814 82.1993 36.9018 81.3899 34.3827C80.913 32.8925 79.9593 30.6746 78.6041 29.7648C77.3837 28.9585 75.4449 29.2628 74.5822 30.4361Z" fill="url(#paint9_linear)"/>
<path d="M81.7037 18.4208C81.7783 18.4179 81.8519 18.4388 81.9139 18.4805C81.9607 18.5297 81.9914 18.5921 82.0017 18.6593C82.0997 19.0475 82.1326 19.4493 82.0989 19.8483C82.0707 20.2122 81.8888 20.6545 81.5249 20.6514C81.3756 20.64 81.2343 20.5793 81.1233 20.4788C80.6841 20.1275 80.4959 19.4812 80.2543 18.973C80.2543 18.9573 77.4779 19.4122 77.2457 19.453C76.7124 19.5408 76.4583 19.6569 76.8411 19.3024C77.9485 18.2671 80.2637 18.3393 81.7037 18.4208Z" fill="#3E3E54"/>
<path d="M54.5358 61.3372L51.6151 65.5254L53.1837 66.6579L56.1013 62.8054C55.8817 62.2501 54.9342 61.3278 54.5358 61.3372Z" fill="#4183E4"/>
<path d="M54.5358 61.3372L51.6151 65.5254L53.1837 66.6579L56.1013 62.8054C55.8817 62.2501 54.9342 61.3278 54.5358 61.3372Z" fill="#3E3E54"/>
<path d="M43.2483 79.0402L38.7872 76.6654C37.6156 76.0384 36.2488 75.8825 34.966 76.2294C33.6833 76.5763 32.5814 77.4 31.8855 78.532L21.5704 95.2531C21.1167 95.9906 20.9715 96.8771 21.1665 97.7208C21.3614 98.5645 21.8807 99.2975 22.612 99.7612L27.8385 103.033L43.2483 79.0402Z" fill="#3E3E54"/>
<path d="M26.7971 106.215C27.7622 106.215 28.5445 105.432 28.5445 104.467C28.5445 103.502 27.7622 102.72 26.7971 102.72C25.832 102.72 25.0497 103.502 25.0497 104.467C25.0497 105.432 25.832 106.215 26.7971 106.215Z" fill="#3E3E54"/>
<path d="M26.7939 105.17C27.234 105.17 27.5908 104.813 27.5908 104.373C27.5908 103.933 27.234 103.576 26.7939 103.576C26.3538 103.576 25.9971 103.933 25.9971 104.373C25.9971 104.813 26.3538 105.17 26.7939 105.17Z" fill="#4183E4"/>
<path d="M56.0449 62.7397C56.8783 62.7397 57.5539 62.0641 57.5539 61.2307C57.5539 60.3973 56.8783 59.7217 56.0449 59.7217C55.2115 59.7217 54.5359 60.3973 54.5359 61.2307C54.5359 62.0641 55.2115 62.7397 56.0449 62.7397Z" fill="#4183E4"/>
<path d="M84.1257 10.2483C84.0871 10.4071 84.0131 10.555 83.9093 10.6812C83.2021 11.5217 82.4011 12.2785 81.5219 12.9368C79.9784 14.1917 78.4286 15.4466 76.8161 16.6073C74.2593 18.4394 71.3261 20.0802 68.1826 19.9484C68.5258 19.5023 68.9023 19.0828 69.3089 18.6936C69.5794 18.4167 69.8891 18.181 70.2281 17.994C70.578 17.8386 70.94 17.7116 71.3104 17.6144C73.0201 17.0811 74.5134 16.0144 75.9032 14.8788C76.3393 14.8788 77.1863 13.6239 77.3557 13.2725C77.5251 12.9212 77.5753 12.7141 77.6694 12.5447C77.7727 12.566 77.8777 12.5776 77.9831 12.5792C80.2011 12.6859 82.0928 11.1926 84.1257 10.2483Z" fill="url(#paint10_linear)"/>
<path d="M65.5976 69.315C66.451 67.4327 67.4141 65.5818 67.9913 63.5928C68.5685 61.6038 68.738 59.4266 67.9913 57.4941C65.3624 61.1489 64.371 65.6884 63.0659 69.9958C61.7609 74.3031 59.8943 78.7548 56.1955 81.3241C54.7524 82.3249 52.9642 83.128 52.3243 84.775C51.6843 86.422 52.4937 88.2918 53.805 89.4305C55.1163 90.5693 56.8324 91.1027 58.5108 91.5575C60.1892 92.0124 61.9146 92.436 63.3514 93.4085C64.5718 94.2367 65.5694 95.4508 66.9717 95.9182C69.2587 96.6711 71.6273 95.1653 73.5378 93.6908C74.6829 92.8061 75.9409 91.5983 75.6774 90.1772C74.6562 90.7551 73.4701 90.9718 72.3106 90.7925C71.1511 90.6132 70.0859 90.0483 69.287 89.189C67.7184 87.3977 67.5992 84.7969 67.4611 82.4064C67.2878 79.4008 66.9379 76.408 66.4133 73.4435C64.7883 75.7086 64.6063 78.6638 64.4808 81.4496L64.2675 86.2557C64.2141 87.4165 64.4996 89.647 63.64 90.5631C61.9209 92.4171 60.7821 88.8188 60.7633 87.5043C60.7005 81.4935 63.1569 74.6827 65.5976 69.315Z" fill="url(#paint11_linear)"/>
<path d="M72.1886 74.548C72.8756 78.0773 74.234 81.4686 74.6983 85.0355C74.9053 86.6355 75.0936 88.5272 76.4928 89.3303C76.9235 89.5478 77.3847 89.6991 77.8606 89.7789C79.9342 90.2276 82.1993 90.6542 84.0973 89.7036C86.3215 88.5868 87.3066 85.5187 86.1427 83.3164L85.1764 85.8449C85.0604 86.143 84.9129 86.4724 84.6086 86.5759C84.0941 86.7484 83.6832 86.1398 83.4792 85.6347L81.2832 80.2106C80.295 81.8482 81.5499 83.8936 81.622 85.8073C81.6547 86.1331 81.588 86.4612 81.4307 86.7484C81.073 87.3163 80.2134 87.3759 79.6331 87.0308C79.0527 86.6857 78.6919 86.0896 78.3782 85.4998C74.6957 78.7043 73.2044 70.9365 74.1085 63.2604C74.2246 62.3193 74.3752 61.3436 74.2277 60.3962C74.0897 59.5209 73.6003 58.4543 72.7313 58.1343C72.6089 59.3107 72.8317 60.5028 72.6497 61.6856C72.4489 62.9624 72.0882 64.1953 71.9219 65.4909C71.5271 68.5048 71.6171 71.5625 72.1886 74.548Z" fill="url(#paint12_linear)"/>
<defs>
<linearGradient id="paint0_linear" x1="50.5924" y1="96.6305" x2="60.9576" y2="96.6305" gradientUnits="userSpaceOnUse">
<stop stop-color="#E5C5D5"/>
<stop offset="0.42" stop-color="#EAD4D1"/>
<stop offset="1" stop-color="#F0E9CB"/>
</linearGradient>
<linearGradient id="paint1_linear" x1="2211.58" y1="5450.17" x2="2366.9" y2="5450.17" gradientUnits="userSpaceOnUse">
<stop stop-color="#E5C5D5"/>
<stop offset="0.42" stop-color="#EAD4D1"/>
<stop offset="1" stop-color="#F0E9CB"/>
</linearGradient>
<linearGradient id="paint2_linear" x1="66.297" y1="52.983" x2="100.279" y2="84.2669" gradientUnits="userSpaceOnUse">
<stop stop-opacity="0"/>
<stop offset="0.99"/>
</linearGradient>
<linearGradient id="paint3_linear" x1="3122.6" y1="3678.46" x2="3700.75" y2="3678.46" gradientUnits="userSpaceOnUse">
<stop stop-color="#E5C5D5"/>
<stop offset="0.42" stop-color="#EAD4D1"/>
<stop offset="1" stop-color="#F0E9CB"/>
</linearGradient>
<linearGradient id="paint4_linear" x1="70.6421" y1="43.0318" x2="82.6794" y2="43.0318" gradientUnits="userSpaceOnUse">
<stop offset="0.02" stop-color="white" stop-opacity="0"/>
<stop offset="0.58" stop-color="white" stop-opacity="0.39"/>
<stop offset="0.68" stop-color="white" stop-opacity="0.68"/>
<stop offset="1" stop-color="white"/>
</linearGradient>
<linearGradient id="paint5_linear" x1="2125.92" y1="2659.92" x2="924.509" y2="1587.51" gradientUnits="userSpaceOnUse">
<stop stop-opacity="0"/>
<stop offset="0.99"/>
</linearGradient>
<linearGradient id="paint6_linear" x1="2667.64" y1="1103.23" x2="2930.64" y2="1103.23" gradientUnits="userSpaceOnUse">
<stop stop-color="#E5C5D5"/>
<stop offset="0.42" stop-color="#EAD4D1"/>
<stop offset="1" stop-color="#F0E9CB"/>
</linearGradient>
<linearGradient id="paint7_linear" x1="6897.65" y1="836.84" x2="6574.94" y2="28.0286" gradientUnits="userSpaceOnUse">
<stop offset="0.02" stop-color="white" stop-opacity="0"/>
<stop offset="0.58" stop-color="white" stop-opacity="0.39"/>
<stop offset="0.68" stop-color="white" stop-opacity="0.68"/>
<stop offset="1" stop-color="white"/>
</linearGradient>
<linearGradient id="paint8_linear" x1="5636.55" y1="3050.08" x2="8097.37" y2="3050.08" gradientUnits="userSpaceOnUse">
<stop stop-opacity="0"/>
<stop offset="0.99"/>
</linearGradient>
<linearGradient id="paint9_linear" x1="7076.32" y1="4952.84" x2="8911.85" y2="4952.84" gradientUnits="userSpaceOnUse">
<stop stop-color="#E5C5D5"/>
<stop offset="0.42" stop-color="#EAD4D1"/>
<stop offset="1" stop-color="#F0E9CB"/>
</linearGradient>
<linearGradient id="paint10_linear" x1="4718.79" y1="318.269" x2="4853.03" y2="771.888" gradientUnits="userSpaceOnUse">
<stop stop-opacity="0"/>
<stop offset="0.99"/>
</linearGradient>
<linearGradient id="paint11_linear" x1="7752.66" y1="7422.04" x2="-535.708" y2="12954.7" gradientUnits="userSpaceOnUse">
<stop stop-opacity="0"/>
<stop offset="0.99"/>
</linearGradient>
<linearGradient id="paint12_linear" x1="4392.71" y1="6462.93" x2="9211.77" y2="13039.8" gradientUnits="userSpaceOnUse">
<stop stop-opacity="0"/>
<stop offset="0.99"/>
</linearGradient>
</defs>
</svg>
