<svg width="128" height="121" viewBox="0 0 128 121" fill="none" xmlns="http://www.w3.org/2000/svg">
<path opacity="0.24" d="M60.0213 119.429C75.9425 120.444 92.3173 120.644 107.386 115.401C111.511 113.967 115.553 112.099 118.886 109.28C126.68 102.687 129.509 90.8573 125.544 81.453C123.423 76.4283 119.557 71.9386 119.232 66.5048C118.949 61.7686 121.422 57.3785 123.213 52.9832C128.062 41.0928 127.779 26.496 119.932 16.3444C111.538 5.46102 96.807 1.86821 83.1307 0.669729C72.7621 -0.195222 62.3406 -0.222409 51.9676 0.588431C47.9159 0.890018 43.7907 1.32011 40.0799 2.97228C34.4468 5.482 30.3583 10.5539 27.2847 15.8985C24.4748 20.7852 22.334 26.0273 20.92 31.484C19.8395 35.6512 19.176 39.9573 17.4924 43.9199C14.7859 50.3057 9.65635 55.2884 6.00846 61.1864C-1.23224 72.8748 -3.36171 94.6258 7.77864 104.961C20.6184 116.872 43.5783 118.378 60.0213 119.429Z" fill="#4183E4"/>
<path d="M99.0072 32.3364C100.216 30.1755 101.055 27.49 99.9671 25.2557C99.8603 24.9719 99.6466 24.7412 99.3718 24.6132C99.2168 24.5686 99.054 24.5579 98.8945 24.5817C96.2562 24.8439 94.4965 27.4271 93.5629 29.908C92.6293 32.3889 92.0629 35.153 90.1956 37.0359C89.38 37.8567 88.3599 38.4599 87.5731 39.3201C85.8764 41.2004 85.6377 43.9488 85.5591 46.4821C85.4751 49.1702 85.5932 54.0533 89.3984 53.5104C91.4046 53.2219 94.0297 50.7043 94.8532 48.8922C95.8078 46.7942 95.4092 44.1534 95.4721 41.919C95.5927 38.0403 97.1636 35.6198 99.0072 32.3364Z" fill="#4183E4"/>
<path d="M99.0072 32.3364C100.216 30.1755 101.055 27.49 99.9671 25.2557C99.8603 24.9719 99.6466 24.7412 99.3718 24.6132C99.2168 24.5686 99.054 24.5579 98.8945 24.5817C96.2562 24.8439 94.4965 27.4271 93.5629 29.908C92.6293 32.3889 92.0629 35.153 90.1956 37.0359C89.38 37.8567 88.3599 38.4599 87.5731 39.3201C85.8764 41.2004 85.6377 43.9488 85.5591 46.4821C85.4751 49.1702 85.5932 54.0533 89.3984 53.5104C91.4046 53.2219 94.0297 50.7043 94.8532 48.8922C95.8078 46.7942 95.4092 44.1534 95.4721 41.919C95.5927 38.0403 97.1636 35.6198 99.0072 32.3364Z" fill="url(#paint0_linear)"/>
<path d="M101.519 42.4616C103.153 42.3043 105.191 42.7003 105.676 44.2712C105.962 45.2074 105.55 46.2066 105.076 47.0641C103.177 50.5048 100.208 53.2637 98.3253 56.7149C97.9094 57.3973 97.6414 58.1594 97.5385 58.9519C97.4205 60.4152 98.2466 61.7632 98.9048 63.0771C100.536 66.3316 101.123 70.6246 98.7134 73.352C97.5359 74.6816 95.7972 75.45 94.7639 76.9002C93.6048 78.5209 93.555 80.6583 92.9754 82.5674C92.3958 84.4766 90.72 86.4409 88.7794 86.0055C89.0146 80.9218 88.927 75.8283 88.5171 70.7557C87.9926 64.4224 86.6421 57.7324 89.2567 51.7322C91.3993 46.7835 96.0489 42.9914 101.519 42.4616Z" fill="#4183E4"/>
<path d="M101.519 42.4616C103.153 42.3043 105.191 42.7003 105.676 44.2712C105.962 45.2074 105.55 46.2066 105.076 47.0641C103.177 50.5048 100.208 53.2637 98.3253 56.7149C97.9094 57.3973 97.6414 58.1594 97.5385 58.9519C97.4205 60.4152 98.2466 61.7632 98.9048 63.0771C100.536 66.3316 101.123 70.6246 98.7134 73.352C97.5359 74.6816 95.7972 75.45 94.7639 76.9002C93.6048 78.5209 93.555 80.6583 92.9754 82.5674C92.3958 84.4766 90.72 86.4409 88.7794 86.0055C89.0146 80.9218 88.927 75.8283 88.5171 70.7557C87.9926 64.4224 86.6421 57.7324 89.2567 51.7322C91.3993 46.7835 96.0489 42.9914 101.519 42.4616Z" fill="url(#paint1_linear)"/>
<path d="M82.0421 16.7219H53.1606C49.0009 16.7219 45.6288 20.094 45.6288 24.2537V91.8511C45.6288 96.0108 49.0009 99.3829 53.1606 99.3829H82.0421C86.2018 99.3829 89.5739 96.0108 89.5739 91.8511V24.2537C89.5739 20.094 86.2018 16.7219 82.0421 16.7219Z" fill="#4183E4"/>
<path d="M82.0421 16.7219H53.1606C49.0009 16.7219 45.6288 20.094 45.6288 24.2537V91.8511C45.6288 96.0108 49.0009 99.3829 53.1606 99.3829H82.0421C86.2018 99.3829 89.5739 96.0108 89.5739 91.8511V24.2537C89.5739 20.094 86.2018 16.7219 82.0421 16.7219Z" fill="url(#paint2_linear)"/>
<path d="M32.6134 102.464C30.9166 102.606 28.7557 103.191 28.6167 104.888C28.4777 106.584 30.4944 107.51 32.1465 107.817C36.0803 108.57 40.1058 108.604 44.1077 108.633C57.7971 108.711 71.4866 108.633 85.176 108.396C88.8291 108.334 92.8782 108.098 95.443 105.499C95.8705 105.066 96.2613 104.513 96.2062 103.907C96.0987 102.761 94.6327 102.394 93.4735 102.32C72.9709 101.027 53.0924 100.744 32.6134 102.464Z" fill="url(#paint3_linear)"/>
<path d="M39.1697 105.307H26.705L28.1683 89.845L37.2448 89.6143L39.1697 105.307Z" fill="#4183E4"/>
<path d="M39.1697 105.307H26.705L28.1683 89.845L37.2448 89.6143L39.1697 105.307Z" fill="url(#paint4_linear)"/>
<path d="M37.0928 105.307H24.6307L26.0915 89.845L35.1679 89.6143L37.0928 105.307Z" fill="#4183E4"/>
<path d="M37.0928 105.307H24.6307L26.0915 89.845L35.1679 89.6143L37.0928 105.307Z" fill="url(#paint5_linear)"/>
<path d="M34.1084 89.9551L33.9616 89.9394C33.9878 89.2602 33.9616 87.3589 33.0699 86.2679C32.8776 86.0226 32.6341 85.8222 32.3565 85.6804C32.0789 85.5387 31.7738 85.4591 31.4623 85.4471C31.1653 85.4255 30.8671 85.4685 30.5883 85.5731C30.3094 85.6776 30.0565 85.8413 29.8469 86.0529C28.7481 87.1281 28.512 89.2917 28.4622 89.9866H28.2812C28.2812 89.8634 28.3888 87.0756 29.7577 85.8221C29.9849 85.6046 30.2558 85.438 30.5525 85.3335C30.8492 85.229 31.1647 85.1891 31.4781 85.2163C31.8026 85.2254 32.1215 85.3029 32.4139 85.444C32.7064 85.585 32.9657 85.7862 33.1748 86.0345C34.3235 87.3589 34.1268 89.8502 34.1084 89.9551Z" fill="#4183E4"/>
<path d="M35.4695 89.9552L35.3227 89.9395C35.3463 89.2602 35.3227 87.3589 34.4284 86.268C34.2368 86.0225 33.9939 85.8219 33.7167 85.6801C33.4394 85.5383 33.1346 85.4588 32.8234 85.4471C32.5264 85.4254 32.2281 85.4683 31.9493 85.5729C31.6704 85.6775 31.4175 85.8412 31.208 86.0529C30.1091 87.1282 29.8705 89.2917 29.8233 89.9867H29.6423C29.6423 89.8634 29.7499 87.0757 31.1188 85.8222C31.3464 85.6026 31.6185 85.4345 31.9166 85.3291C32.2147 85.2237 32.532 85.1834 32.847 85.2111C33.1715 85.2205 33.4903 85.2982 33.7827 85.4392C34.0751 85.5802 34.3344 85.7813 34.5438 86.0293C35.6872 87.3589 35.4905 89.8503 35.4695 89.9552Z" fill="#4183E4"/>
<path d="M79.9653 16.7219H51.0838C46.9241 16.7219 43.552 20.094 43.552 24.2537V91.8511C43.552 96.0108 46.9241 99.3829 51.0838 99.3829H79.9653C84.125 99.3829 87.4971 96.0108 87.4971 91.8511V24.2537C87.4971 20.094 84.125 16.7219 79.9653 16.7219Z" fill="#4183E4"/>
<path d="M78.5647 21.9644H53.2367C49.5882 21.9644 46.6306 24.922 46.6306 28.5704V87.8545C46.6306 91.5029 49.5882 94.4605 53.2367 94.4605H78.5647C82.2131 94.4605 85.1708 91.5029 85.1708 87.8545V28.5704C85.1708 24.922 82.2131 21.9644 78.5647 21.9644Z" fill="white"/>
<path d="M74.8645 64.1497H57.6294C55.4207 64.1497 53.6301 65.9402 53.6301 68.149V68.1516C53.6301 70.3603 55.4207 72.1509 57.6294 72.1509H74.8645C77.0732 72.1509 78.8638 70.3603 78.8638 68.1516V68.149C78.8638 65.9402 77.0732 64.1497 74.8645 64.1497Z" fill="#4183E4"/>
<path d="M59.334 68.8701C59.3357 68.9007 59.3357 68.9314 59.334 68.9619C59.3358 68.9838 59.3358 69.0057 59.334 69.0275C59.3299 69.044 59.3238 69.0598 59.3156 69.0747C59.3055 69.0905 59.2941 69.1054 59.2816 69.1193C59.2533 69.1435 59.2225 69.1646 59.1898 69.1822C59.136 69.2121 59.0799 69.2375 59.0219 69.2583C58.6911 69.3702 58.3326 69.3702 58.0018 69.2583C57.8521 69.2025 57.7175 69.1127 57.6084 68.996C57.4894 68.8705 57.3998 68.72 57.3462 68.5554C57.2256 68.1472 57.2256 67.7128 57.3462 67.3045C57.4 67.1331 57.4894 66.975 57.6084 66.8404C57.721 66.7142 57.8609 66.6155 58.0175 66.5519C58.1847 66.487 58.3627 66.4541 58.542 66.4548C58.6177 66.4552 58.6931 66.4622 58.7676 66.4758C58.8351 66.4875 58.9018 66.5041 58.9669 66.5257C59.0241 66.5448 59.0795 66.5694 59.1321 66.5991C59.1699 66.6167 59.2045 66.6407 59.2344 66.6699C59.2507 66.6834 59.2648 66.6993 59.2763 66.7171C59.2835 66.733 59.2888 66.7498 59.292 66.7669C59.2939 66.7914 59.2939 66.8159 59.292 66.8404C59.292 66.8666 59.292 66.9007 59.292 66.94C59.292 66.9793 59.292 67.0213 59.292 67.0528C59.2901 67.0778 59.2849 67.1026 59.2763 67.1262C59.271 67.1413 59.262 67.1549 59.2501 67.1655C59.2457 67.17 59.2403 67.1735 59.2344 67.1757C59.2286 67.178 59.2223 67.179 59.216 67.1787C59.185 67.1749 59.1559 67.1621 59.1321 67.1419C59.0919 67.1101 59.0489 67.082 59.0036 67.058C58.9436 67.0231 58.8804 66.9941 58.8148 66.9715C58.7298 66.9456 58.6413 66.9332 58.5525 66.9348C58.4488 66.9331 58.3463 66.9565 58.2535 67.003C58.1649 67.049 58.0885 67.1155 58.0306 67.197C57.9657 67.2898 57.9186 67.3938 57.8916 67.5038C57.8565 67.6364 57.8398 67.7732 57.8418 67.9103C57.8396 68.0545 57.8573 68.1984 57.8943 68.3378C57.9219 68.4461 57.9709 68.5477 58.0385 68.6367C58.0991 68.7124 58.1775 68.7718 58.2667 68.8098C58.3612 68.8498 58.463 68.8695 58.5656 68.8675C58.6543 68.8697 58.7427 68.8582 58.8279 68.8334C58.8939 68.8118 58.9579 68.7846 59.0193 68.7521L59.1478 68.6761C59.171 68.6565 59.1991 68.6438 59.2291 68.6394C59.2402 68.6356 59.2522 68.6356 59.2632 68.6394C59.274 68.6479 59.2815 68.66 59.2842 68.6735C59.2866 68.6979 59.2866 68.7225 59.2842 68.7469C59.334 68.7757 59.334 68.8177 59.334 68.8701Z" fill="white"/>
<path d="M62.2396 67.8605C62.2427 68.0717 62.2135 68.2822 62.1531 68.4847C62.1007 68.6575 62.0112 68.8168 61.8908 68.9515C61.7747 69.0819 61.629 69.1826 61.466 69.2452C61.2798 69.3144 61.0824 69.3482 60.8838 69.3448C60.6897 69.3486 60.4964 69.3193 60.3121 69.2583C60.1563 69.2073 60.0162 69.117 59.9056 68.996C59.7924 68.8672 59.7091 68.715 59.6617 68.5502C59.6034 68.3412 59.576 68.1247 59.5804 67.9077C59.5777 67.6999 59.6069 67.493 59.6669 67.2941C59.7211 67.1235 59.8104 66.9663 59.9292 66.8325C60.047 66.704 60.1922 66.6036 60.354 66.5388C60.542 66.4694 60.7412 66.4356 60.9415 66.4391C61.132 66.4349 61.3218 66.4633 61.5027 66.523C61.6585 66.574 61.7985 66.6643 61.9092 66.7853C62.0241 66.9127 62.1092 67.0641 62.1583 67.2285C62.2167 67.434 62.2441 67.647 62.2396 67.8605ZM61.6417 67.892C61.6434 67.7566 61.632 67.6213 61.6076 67.4881C61.5881 67.3785 61.548 67.2735 61.4896 67.1787C61.4352 67.0929 61.358 67.0238 61.2667 66.9794C61.1585 66.9286 61.0399 66.9043 60.9205 66.9085C60.7986 66.9045 60.6776 66.9316 60.5691 66.9872C60.4766 67.038 60.3981 67.111 60.3409 67.1996C60.2809 67.2939 60.24 67.3991 60.2203 67.5091C60.1958 67.6317 60.1835 67.7564 60.1836 67.8815C60.1832 68.0203 60.1946 68.1589 60.2177 68.2958C60.2372 68.4063 60.2772 68.5122 60.3357 68.6079C60.3897 68.6931 60.4658 68.762 60.556 68.8072C60.6658 68.8555 60.7849 68.8788 60.9048 68.8754C61.0267 68.8798 61.1477 68.8527 61.2562 68.7967C61.3487 68.746 61.4271 68.673 61.4843 68.5843C61.5447 68.489 61.5866 68.3831 61.6076 68.2722C61.6312 68.1469 61.6426 68.0195 61.6417 67.892Z" fill="white"/>
<path d="M65.0327 69.0958C65.0329 69.1245 65.0274 69.1529 65.0166 69.1795C65.0058 69.206 64.9899 69.2302 64.9697 69.2505C64.9484 69.2668 64.9245 69.2793 64.8989 69.2873C64.8726 69.2956 64.8452 69.3001 64.8176 69.3004H64.579C64.5347 69.3013 64.4906 69.296 64.4478 69.2846C64.4102 69.2737 64.3754 69.2549 64.3456 69.2296C64.3098 69.1984 64.2789 69.1622 64.2538 69.122C64.2249 69.0748 64.1935 69.0171 64.1567 68.9437L63.4592 67.6325C63.4198 67.5538 63.3779 67.4699 63.3359 67.3702C63.2939 67.2706 63.2572 67.1919 63.2231 67.108C63.2231 67.2129 63.2231 67.3178 63.2362 67.42C63.2494 67.5223 63.2362 67.6298 63.2362 67.74V69.2086C63.2359 69.2219 63.2313 69.2348 63.2231 69.2453C63.2137 69.2597 63.1999 69.2707 63.1838 69.2768C63.1582 69.2853 63.1319 69.2914 63.1051 69.2951H62.9766H62.8507C62.8239 69.2921 62.7975 69.2859 62.7721 69.2768C62.7559 69.2707 62.7422 69.2597 62.7327 69.2453C62.7289 69.2334 62.7289 69.2205 62.7327 69.2086V66.6857C62.7307 66.6575 62.7351 66.6291 62.7455 66.6028C62.756 66.5765 62.7722 66.5528 62.793 66.5336C62.8342 66.4996 62.8865 66.4818 62.9399 66.4838H63.2441C63.2902 66.4776 63.337 66.4776 63.3831 66.4838C63.4188 66.4936 63.4525 66.5096 63.4828 66.531C63.5164 66.5548 63.545 66.5851 63.5667 66.6202C63.5962 66.666 63.6233 66.7132 63.648 66.7618L64.1934 67.7872L64.2879 67.9708C64.3193 68.0311 64.3482 68.0914 64.377 68.1517L64.4636 68.3274L64.5422 68.5005C64.5422 68.3982 64.5422 68.2933 64.5422 68.1832C64.5422 68.073 64.5422 67.9708 64.5422 67.8711V66.5599C64.5422 66.5457 64.5468 66.5319 64.5554 66.5205C64.5678 66.507 64.583 66.4963 64.5999 66.4891C64.6254 66.4799 64.6518 66.4738 64.6786 66.4707H64.8071H64.9304C64.9564 66.4737 64.9819 66.4799 65.0064 66.4891C65.0215 66.4968 65.0349 66.5075 65.0458 66.5205C65.05 66.5333 65.05 66.5471 65.0458 66.5599L65.0327 69.0958Z" fill="white"/>
<path d="M67.2172 66.7251C67.2172 66.767 67.2172 66.8037 67.2172 66.8352C67.2153 66.8589 67.2091 66.882 67.1989 66.9034C67.1936 66.9185 67.1846 66.9321 67.1727 66.9427C67.1682 66.9472 67.1629 66.9507 67.157 66.9529C67.1511 66.9552 67.1448 66.9562 67.1386 66.9558H66.2207V67.7111H67.0809C67.0928 67.7073 67.1056 67.7073 67.1176 67.7111C67.1282 67.7219 67.137 67.7343 67.1438 67.7478C67.1524 67.7707 67.1586 67.7945 67.1622 67.8186C67.1622 67.8475 67.1622 67.8816 67.1622 67.9262C67.1622 67.9708 67.1622 68.0048 67.1622 68.0337C67.1586 68.0579 67.1524 68.0816 67.1438 68.1045C67.1382 68.1202 67.1292 68.1345 67.1176 68.1465C67.1056 68.1503 67.0928 68.1503 67.0809 68.1465H66.2207V69.1955C66.2213 69.2026 66.2204 69.2097 66.2182 69.2165C66.2159 69.2232 66.2123 69.2295 66.2076 69.2348C66.196 69.2504 66.1793 69.2616 66.1604 69.2663C66.1322 69.2753 66.1032 69.2814 66.0738 69.2846H65.9348H65.7985C65.7682 69.2814 65.7384 69.2752 65.7093 69.2663C65.691 69.2602 65.6747 69.2493 65.6621 69.2348C65.6536 69.2234 65.649 69.2096 65.649 69.1955V66.6516C65.6461 66.6266 65.6492 66.6012 65.6578 66.5776C65.6665 66.5539 65.6805 66.5326 65.6988 66.5153C65.7313 66.4866 65.7735 66.4715 65.8168 66.4733H67.1281C67.1391 66.4695 67.1511 66.4695 67.1622 66.4733C67.1741 66.484 67.1831 66.4975 67.1884 66.5126C67.1985 66.5359 67.2047 66.5608 67.2067 66.5861C67.2146 66.6438 67.2172 66.6805 67.2172 66.7251Z" fill="white"/>
<path d="M68.2507 69.2163C68.2507 69.2305 68.2461 69.2443 68.2375 69.2557C68.2247 69.2694 68.2084 69.2793 68.1903 69.2845C68.1622 69.2935 68.1332 69.2997 68.1038 69.3029H67.9648H67.8284C67.7982 69.2999 67.7683 69.2938 67.7393 69.2845C67.7212 69.2793 67.7049 69.2694 67.6921 69.2557C67.6836 69.2443 67.679 69.2305 67.679 69.2163V66.565C67.6793 66.5517 67.6839 66.5388 67.6921 66.5283C67.7049 66.5146 67.7212 66.5046 67.7393 66.4994C67.7684 66.4907 67.7982 66.4846 67.8284 66.4811C67.8738 66.4781 67.9194 66.4781 67.9648 66.4811C68.0111 66.478 68.0575 66.478 68.1038 66.4811C68.1332 66.4843 68.1622 66.4904 68.1903 66.4994C68.2084 66.5046 68.2247 66.5146 68.2375 66.5283C68.2457 66.5388 68.2503 66.5517 68.2507 66.565V69.2163Z" fill="white"/>
<path d="M70.9466 69.2217C70.9508 69.2345 70.9508 69.2483 70.9466 69.261C70.9373 69.275 70.9234 69.2852 70.9072 69.2899C70.8753 69.2968 70.8428 69.3012 70.8102 69.303C70.7534 69.3062 70.6965 69.3062 70.6397 69.303C70.5917 69.3062 70.5435 69.3062 70.4955 69.303C70.4661 69.3018 70.437 69.2965 70.409 69.2873C70.3918 69.2819 70.3764 69.2719 70.3644 69.2584C70.3558 69.2443 70.3488 69.2294 70.3434 69.2138L70.0812 68.5871C70.0497 68.5162 70.0208 68.4533 69.992 68.3982C69.9661 68.3477 69.9335 68.3009 69.895 68.2592C69.8606 68.2231 69.8184 68.1953 69.7717 68.1779C69.7211 68.1569 69.6665 68.1471 69.6117 68.1491H69.436V69.2165C69.4363 69.2237 69.435 69.231 69.4323 69.2378C69.4296 69.2446 69.4255 69.2507 69.4203 69.2558C69.4084 69.2706 69.3917 69.2808 69.3731 69.2846C69.3449 69.2936 69.3159 69.2998 69.2865 69.303H69.1475H69.0112C68.9818 69.2998 68.9528 69.2936 68.9246 69.2846C68.906 69.2808 68.8893 69.2706 68.8774 69.2558C68.8689 69.2444 68.8643 69.2306 68.8643 69.2165V66.67C68.8615 66.645 68.8645 66.6196 68.8732 66.5959C68.8818 66.5723 68.8958 66.5509 68.9141 66.5336C68.9474 66.5045 68.9906 66.4895 69.0348 66.4917H69.9422H70.0733C70.178 66.5058 70.2803 66.5341 70.3775 66.5756C70.4624 66.6116 70.5397 66.6632 70.6057 66.7277C70.6696 66.7904 70.7189 66.8665 70.7499 66.9506C70.7849 67.0454 70.8018 67.1459 70.7997 67.2469C70.8016 67.3356 70.7901 67.424 70.7656 67.5092C70.7424 67.5836 70.707 67.6536 70.6607 67.7164C70.6121 67.778 70.5536 67.8312 70.4876 67.8737C70.4158 67.9203 70.3382 67.9573 70.2569 67.9839C70.2991 68.0033 70.3388 68.028 70.3749 68.0573C70.4137 68.0882 70.4489 68.1234 70.4798 68.1622C70.5142 68.2059 70.545 68.2524 70.5716 68.3012C70.6004 68.3563 70.6266 68.414 70.6555 68.4822L70.8915 69.0329C70.9077 69.0723 70.9217 69.1126 70.9335 69.1535C70.9413 69.1754 70.9457 69.1984 70.9466 69.2217ZM70.2097 67.3178C70.2123 67.2354 70.1904 67.1542 70.1467 67.0844C70.0972 67.0162 70.0244 66.9686 69.9422 66.9506L69.8425 66.9322H69.6904H69.4281V67.719H69.7166C69.7885 67.7199 69.86 67.7102 69.929 67.6902C69.9858 67.675 70.0392 67.6492 70.0864 67.6141C70.1266 67.579 70.1581 67.535 70.1782 67.4856C70.2 67.4324 70.2107 67.3753 70.2097 67.3178Z" fill="white"/>
<path d="M74.6312 69.2163C74.6354 69.2291 74.6354 69.2429 74.6312 69.2557C74.6199 69.2699 74.6042 69.28 74.5866 69.2845C74.5602 69.2933 74.533 69.2995 74.5053 69.3029H74.3716H74.2431C74.2145 69.2997 74.1864 69.2936 74.1592 69.2845C74.1423 69.28 74.1275 69.2698 74.1172 69.2557C74.1125 69.2504 74.1089 69.2441 74.1066 69.2374C74.1043 69.2306 74.1035 69.2235 74.1041 69.2163V66.9348L73.2911 69.2163C73.2863 69.2338 73.2762 69.2493 73.2623 69.2609C73.2481 69.2756 73.2298 69.2856 73.2098 69.2898C73.1818 69.299 73.1527 69.3043 73.1233 69.3055H73H72.8741C72.8446 69.3036 72.8154 69.2974 72.7876 69.2872C72.768 69.2819 72.7501 69.272 72.7352 69.2583C72.7218 69.2489 72.7125 69.2349 72.7089 69.219L71.9222 66.9374V69.219C71.9222 69.2332 71.9176 69.247 71.9091 69.2583C71.8983 69.2731 71.8824 69.2834 71.8645 69.2872C71.8381 69.2959 71.8108 69.3021 71.7832 69.3055H71.6521H71.5209C71.4924 69.3021 71.4643 69.2959 71.437 69.2872C71.4201 69.2827 71.4053 69.2725 71.395 69.2583C71.3865 69.247 71.3819 69.2332 71.3819 69.219V66.7198C71.3786 66.6584 71.3993 66.5982 71.4396 66.5519C71.4606 66.5321 71.4853 66.5168 71.5124 66.5069C71.5394 66.497 71.5682 66.4927 71.597 66.4942H71.9694C72.0266 66.4934 72.0837 66.4986 72.1398 66.51C72.1847 66.5194 72.2274 66.5372 72.2657 66.5624C72.3012 66.5903 72.3306 66.6251 72.3523 66.6647C72.3771 66.7134 72.3973 66.7643 72.4126 66.8168L73.0184 68.4873L73.6478 66.8194C73.6632 66.7666 73.6843 66.7156 73.7107 66.6673C73.7295 66.6288 73.7553 66.5941 73.7868 66.565C73.8178 66.5386 73.8547 66.5197 73.8943 66.51C73.9398 66.4988 73.9865 66.4935 74.0333 66.4942H74.4188C74.4519 66.4899 74.4854 66.4899 74.5184 66.4942C74.5446 66.5031 74.5681 66.5184 74.5866 66.5388C74.6061 66.5597 74.6204 66.5849 74.6286 66.6122C74.6387 66.6426 74.6431 66.6746 74.6417 66.7066L74.6312 69.2163Z" fill="white"/>
<path d="M34.5122 77.4221C33.9173 77.3604 33.3161 77.4321 32.7525 77.6319C31.8162 78.0358 31.2917 79.0297 30.9508 79.9922C30.4001 81.5473 30.151 83.1916 29.9018 84.8228C29.7917 85.544 29.6842 86.2862 29.8599 86.9916C29.9082 87.2393 30.0297 87.4667 30.2087 87.6446C30.397 87.7864 30.6148 87.8841 30.8459 87.9304C34.2617 88.8672 37.8383 89.063 41.3359 88.5048C41.7784 88.476 42.201 88.3101 42.5449 88.0301C42.8858 87.6918 42.9671 87.1778 43.0143 86.7005C43.218 84.5586 43.0206 82.3974 42.4321 80.3279C42.2538 79.7037 42.0151 79.0507 41.5037 78.6495C40.6829 78.0122 39.3559 78.125 38.3882 77.8837C37.1146 77.6023 35.8162 77.4477 34.5122 77.4221Z" fill="#4183E4"/>
<path opacity="0.26" d="M43.0143 86.7033C42.9644 87.1779 42.8831 87.6867 42.5475 88.0302C42.2118 88.3738 41.7607 88.4315 41.3332 88.5049C37.8356 89.0624 34.2592 88.8666 30.8433 87.9306C30.6161 87.8793 30.4019 87.7821 30.2139 87.6447C30.0946 87.5285 30.0047 87.3856 29.9516 87.2278C29.9194 87.1498 29.8913 87.0701 29.8677 86.9891C29.6973 86.2837 29.8022 85.5389 29.9097 84.8177C30.1719 83.1865 30.4106 81.5474 30.9587 79.9897C31.2708 79.119 31.7297 78.2274 32.5086 77.7763C32.5905 77.7203 32.6785 77.6737 32.7708 77.6373C33.3346 77.4341 33.937 77.3606 34.5331 77.4223C35.837 77.4484 37.1352 77.6022 38.4092 77.8812C39.3769 78.1198 40.7038 78.0045 41.5247 78.6443C42.0308 79.0456 42.2695 79.6933 42.4504 80.3254C43.034 82.3976 43.2252 84.5607 43.0143 86.7033Z" fill="url(#paint6_linear)"/>
<path d="M36.0961 65.9383C35.0681 67.7111 34.1791 69.6885 34.3548 71.7288C34.4689 72.8251 34.8813 73.8692 35.547 74.7476C36.2128 75.6261 37.1065 76.3053 38.1312 76.7115C39.112 75.9248 39.2195 74.4955 39.2484 73.2394C39.3113 70.3258 39.6994 67.1788 39.3979 64.2809C39.3218 63.5414 40.1846 60.0325 39.1199 60.4311C38.4774 60.6802 36.4554 65.3194 36.0961 65.9383Z" fill="#4183E4"/>
<path opacity="0.26" d="M36.0961 65.9383C35.0681 67.7111 34.1791 69.6885 34.3548 71.7288C34.4689 72.8251 34.8813 73.8692 35.547 74.7476C36.2128 75.6261 37.1065 76.3053 38.1312 76.7115C39.112 75.9248 39.2195 74.4955 39.2484 73.2394C39.3113 70.3258 39.6994 67.1788 39.3979 64.2809C39.3218 63.5414 40.1846 60.0325 39.1199 60.4311C38.4774 60.6802 36.4554 65.3194 36.0961 65.9383Z" fill="url(#paint7_linear)"/>
<path opacity="0.26" d="M51.0653 79.4154C51.0874 78.6912 51.2513 77.9784 51.5478 77.3174C52.5391 75.4345 55.1302 75.2194 56.8689 74C58.2667 73.0113 59.0718 71.3512 59.3838 69.6676C59.6959 67.9839 59.57 66.2583 59.4415 64.5459C59.4074 64.0607 59.355 63.5388 59.0298 63.1769C58.3191 62.3902 57.0315 62.9514 56.1451 63.5493L53.8268 65.1543C53.3338 65.4926 52.6598 65.8283 52.1903 65.4585C51.8809 65.2172 51.8284 64.7766 51.7996 64.3833L51.359 58.2361C51.2358 56.5394 50.9447 54.5647 49.4551 53.7438C47.9655 52.923 46.0458 53.8015 45.1044 55.1967C44.1629 56.5918 43.9924 58.3437 43.8718 60.0194C43.2448 68.8199 43.3764 77.6579 44.2652 86.4358C44.2993 86.782 44.3622 87.1727 44.6481 87.3694C44.8733 87.4881 45.1299 87.5339 45.3824 87.5005C47.0162 87.4481 49.9481 88.0618 50.7427 86.3545C51.5373 84.6473 50.8975 81.3167 51.0653 79.4154Z" fill="url(#paint8_linear)"/>
<path d="M58.7387 67.6483C58.8343 66.9552 58.8183 66.2514 58.6915 65.5634C58.6803 65.4552 58.6464 65.3506 58.5918 65.2566C58.3951 64.9707 57.9257 65.0835 57.6949 65.3431C57.4641 65.6027 57.3697 65.9594 57.1494 66.2269C56.9685 66.4472 56.7167 66.5966 56.5148 66.7986C56.1937 67.1659 55.9788 67.6138 55.8933 68.0941C55.8582 68.214 55.8449 68.3392 55.8539 68.4639C55.8883 68.6406 55.9638 68.8068 56.0742 68.949C56.4309 69.4919 57.0367 70.2393 57.708 69.7358C58.3086 69.2611 58.6259 68.3642 58.7387 67.6483Z" fill="url(#paint9_linear)"/>
<path d="M49.1694 77.3174L47.5959 103.542L44.7374 103.962L43.4262 84.0546L42.2408 103.915L39.4111 104.007C39.4111 104.007 38.0999 83.9471 38.3857 82.4785C38.6716 81.0099 38.3857 76.3235 38.3857 76.3235L49.1694 77.3174Z" fill="url(#paint10_linear)"/>
<path d="M49.6307 74.7578C51.0154 73.9212 52.3555 70.3599 51.7602 69.4971C51.0416 68.4481 49.9717 61.2651 49.0249 60.439C48.0782 59.6129 46.8824 59.0176 45.6393 59.0648C44.1681 59.1199 42.5448 58.4328 41.1811 58.9888C40.3943 59.3035 39.7649 59.8752 39.1381 60.439C38.1547 61.3175 37.3889 76.153 38.4904 77.7658C39.9013 79.8271 42.8044 79.8953 45.2617 79.7536C46.1087 79.7038 46.9925 79.6461 47.7347 79.2291C49.5835 78.1382 49.8169 76.9449 49.6307 74.7578Z" fill="#4183E4"/>
<path d="M49.3687 54.0689C49.3687 54.0689 49.3687 54.0925 49.3687 54.103C49.4237 54.4473 49.5344 54.7803 49.6965 55.0891C49.762 55.2228 49.8355 55.3828 49.762 55.5139C49.6886 55.645 49.4998 55.6739 49.3765 55.7762C48.9648 56.1774 49.4054 57.0717 49.0067 57.5647C48.7445 57.8715 48.3301 57.9554 47.9578 58.0892C47.6771 58.1941 47.3179 58.4091 47.2497 58.7291C47.1815 59.049 47.3205 59.4581 47.2995 59.8017C47.2707 60.237 47.0163 60.7274 46.5809 60.7668C46.4237 60.773 46.2674 60.7387 46.1273 60.6671C45.6487 60.3904 45.262 59.9791 45.0153 59.4844C44.1919 58.063 43.6779 56.3977 43.9322 54.7639C44.1866 53.1301 45.3326 51.6011 46.9271 51.2051C47.8135 50.9849 48.5819 51.2655 48.991 52.102C49.1734 52.5073 49.297 52.9364 49.3582 53.3766C49.3733 53.607 49.3768 53.8381 49.3687 54.0689Z" fill="url(#paint11_linear)"/>
<path d="M49.2822 51.1684C49.0593 51.9708 48.3853 52.5688 47.672 53.0041C47.1868 53.2952 46.762 53.505 46.484 54.0111C46.1977 54.5411 46.0102 55.1187 45.9306 55.7158C45.9306 55.8023 45.8939 55.9046 45.8126 55.9308C45.7313 55.957 45.6291 55.8495 45.595 55.7525C45.5268 55.5479 45.5005 55.3014 45.3196 55.186C45.2503 55.1471 45.1712 55.1294 45.092 55.135C45.0127 55.1406 44.9369 55.1692 44.8738 55.2175C44.7483 55.3171 44.665 55.4604 44.6404 55.6187C44.6072 55.8113 44.6352 56.0094 44.7203 56.1853C44.8054 56.3612 44.9435 56.506 45.115 56.5995C45.2088 56.6385 45.2969 56.6896 45.3773 56.7516C45.7235 57.0742 45.3904 57.4387 45.254 57.7403C45.0885 58.1645 45.0335 58.6238 45.0941 59.0752C45.1544 59.7072 45.317 60.3392 45.2252 60.9686C45.1577 61.4799 44.8933 61.9447 44.4883 62.2641C44.2843 62.4187 44.044 62.5182 43.7905 62.5531C43.537 62.588 43.2788 62.5571 43.0407 62.4634C42.6971 62.3139 42.4244 62.0202 42.0651 61.9153C41.2364 61.6688 40.3893 62.5237 39.5449 62.327C39.0676 62.2143 38.7319 61.8026 38.4775 61.3725C38.2452 61.0305 38.0994 60.6372 38.0527 60.2264C38.0133 59.5446 38.4224 58.9152 38.8106 58.3645C39.3613 57.5594 39.9146 56.7175 40.0982 55.7577C40.2398 55.0024 40.1454 54.2131 40.329 53.4683C40.5309 52.6474 41.1341 52.0574 41.4252 51.2995C41.6874 50.594 42.031 49.9043 42.7653 49.5713C43.4498 49.2566 44.2496 49.3903 44.9997 49.309C46.0486 49.1936 46.8747 48.4593 47.9526 48.8684C48.8442 49.1989 49.5497 50.2085 49.2822 51.1684Z" fill="#606161"/>
<path d="M55.3532 68.3589C55.5555 68.2533 55.788 68.2209 56.0115 68.2671C56.1349 68.3202 56.2451 68.3999 56.334 68.5005C56.7904 68.9687 57.1473 69.5245 57.383 70.1343C57.5202 70.4193 57.5509 70.744 57.4696 71.0496C57.3069 71.3678 57.0391 71.6198 56.7117 71.7629C54.5219 73.0217 51.8994 74.8181 49.3844 74.5742C49.2087 74.5559 49.269 74.0314 49.1379 73.9133C48.9935 73.747 48.9159 73.533 48.9202 73.3128C48.8077 72.5145 48.7839 71.7062 48.8494 70.9027C48.9184 70.0934 49.2552 69.3302 49.8067 68.7339C50.0209 68.4912 50.3167 68.3355 50.638 68.296C51.1258 68.2671 51.089 68.6395 51.3801 68.8205C51.7394 69.0329 52.2718 69.0329 52.6914 69.0224C53.6095 68.9516 54.5093 68.7274 55.3532 68.3589Z" fill="#4183E4"/>
<path opacity="0.26" d="M46.6123 66.6123C46.6123 66.6123 47.4305 73.0977 49.6177 74.7578C49.6177 74.7578 50.3703 78.7754 46.9086 79.4782C46.9086 79.4782 45.9278 79.8821 44.2861 79.7405C44.2861 79.7405 47.6534 80.7606 47.0188 74.0103C46.3841 67.2601 46.6123 66.6123 46.6123 66.6123Z" fill="url(#paint12_linear)"/>
<path d="M49.6543 105.336C49.7028 105.377 49.7422 105.428 49.7701 105.486C49.7981 105.543 49.814 105.605 49.8169 105.669C49.8022 105.761 49.7558 105.844 49.6858 105.905C49.4324 106.112 49.1207 106.235 48.7942 106.257C47.7441 106.413 46.6733 106.353 45.6472 106.081C45.389 106.035 45.1506 105.912 44.9627 105.729C44.7749 105.455 44.6878 105.124 44.7162 104.793L44.6847 103.652C44.6758 103.564 44.6856 103.475 44.7136 103.39C44.8001 103.183 45.0676 103.128 45.2931 103.115C45.8333 103.075 46.3752 103.065 46.9165 103.086C47.1079 103.086 47.3544 103.057 47.5065 103.178C47.6586 103.298 47.7111 103.537 47.8134 103.663C48.3195 104.329 49.0905 104.722 49.6543 105.336Z" fill="#606161"/>
<path d="M44.2365 105.341C44.2827 105.381 44.3205 105.43 44.3475 105.485C44.3745 105.54 44.3903 105.6 44.3938 105.661C44.3805 105.75 44.3347 105.832 44.2653 105.889C44.0211 106.09 43.7204 106.209 43.4051 106.23C42.3894 106.382 41.3533 106.325 40.3604 106.062C40.1104 106.017 39.8794 105.898 39.6969 105.722C39.5172 105.456 39.433 105.137 39.4583 104.817L39.4294 103.715C39.4192 103.627 39.4291 103.537 39.4583 103.453C39.5422 103.254 39.7992 103.204 40.0169 103.191C40.5405 103.153 41.0657 103.144 41.5904 103.162C41.7766 103.162 42.0152 103.136 42.1621 103.254C42.3089 103.372 42.3588 103.6 42.4584 103.723C42.9567 104.358 43.691 104.749 44.2365 105.341Z" fill="#606161"/>
<path opacity="0.26" d="M33.2192 83.816C33.2035 84.7837 33.1852 85.7671 32.8914 86.685C32.8463 86.8798 32.7628 87.0636 32.6457 87.2258C32.5286 87.3879 32.3803 87.525 32.2096 87.6291C31.6694 87.8913 30.5312 87.6291 29.9411 87.2278C29.9089 87.1499 29.8808 87.0702 29.8572 86.9892C29.6868 86.2837 29.7917 85.5389 29.8992 84.8178C30.1614 83.1866 30.4001 81.5475 30.9482 79.9898C31.2602 79.1191 31.7192 78.2274 32.4981 77.7764C32.5618 77.7914 32.6228 77.8162 32.679 77.8498C33.138 78.1278 33.2035 78.7598 33.2192 79.2922C33.2586 80.8001 33.235 82.3002 33.2192 83.816Z" fill="url(#paint13_linear)"/>
<path d="M35.2072 76.3654C35.3185 76.0317 35.4719 75.7136 35.6635 75.4187C35.8583 75.1227 36.1583 74.9118 36.5027 74.8286C36.4741 74.9889 36.4075 75.1399 36.3086 75.2692C35.9047 75.9125 35.6038 76.6151 35.417 77.3514C35.3593 77.577 34.8925 78.4004 34.701 77.8208C34.6066 77.4878 35.0996 76.6774 35.2072 76.3654Z" fill="#4183E4"/>
<path d="M46.5257 77.0944C47.3347 77.0888 48.1397 77.2082 48.9122 77.4485C49.1268 77.5091 49.3179 77.6335 49.4603 77.8051C49.5598 77.9682 49.62 78.1523 49.636 78.3427C50.1605 81.6838 49.5468 85.0904 49.6124 88.4708C49.636 89.7663 49.7619 91.054 49.8615 92.3442C49.8785 92.4204 49.8791 92.4993 49.8633 92.5757C49.8475 92.6521 49.8156 92.7243 49.7698 92.7874C49.6785 92.8619 49.5649 92.9034 49.4472 92.9054C48.6496 92.9841 47.8466 92.992 47.0476 92.929C43.9006 92.7586 39.7335 93.2673 36.6284 92.8058C36.1643 88.872 37.2946 84.0545 37.9082 80.1418C38.0315 79.355 37.9397 78.2798 38.2596 77.5534C38.5796 76.8269 39.3663 76.9502 40.0796 76.9528C42.2283 76.9598 44.377 77.007 46.5257 77.0944Z" fill="#606161"/>
<path d="M65.8616 56.9169C73.0412 56.9169 78.8613 51.0967 78.8613 43.9172C78.8613 36.7376 73.0412 30.9175 65.8616 30.9175C58.6821 30.9175 52.8619 36.7376 52.8619 43.9172C52.8619 51.0967 58.6821 56.9169 65.8616 56.9169Z" fill="#4183E4"/>
<path d="M69.6378 47.4288H60.8524L61.7021 39.7764H68.5049L69.6378 47.4288Z" fill="white"/>
<path d="M66.5512 40.2248C66.5512 40.2038 66.2444 38.1268 65.0013 38.2841C63.7032 38.4493 63.6586 40.015 63.6586 40.0805H62.8378C62.8378 39.2702 63.2915 37.6862 64.8964 37.4816C66.5486 37.2797 67.2304 39.1207 67.3616 40.1251L66.5512 40.2248Z" fill="white"/>
<path d="M70.0077 50.0907C71.6806 50.0907 73.0367 48.7346 73.0367 47.0617C73.0367 45.3888 71.6806 44.0327 70.0077 44.0327C68.3349 44.0327 66.9788 45.3888 66.9788 47.0617C66.9788 48.7346 68.3349 50.0907 70.0077 50.0907Z" fill="#4183E4"/>
<path d="M70.4115 50.379C72.0844 50.379 73.4405 49.0229 73.4405 47.35C73.4405 45.6772 72.0844 44.321 70.4115 44.321C68.7387 44.321 67.3826 45.6772 67.3826 47.35C67.3826 49.0229 68.7387 50.379 70.4115 50.379Z" fill="white"/>
<path d="M69.9395 49.1359C69.8312 49.1352 69.7275 49.0919 69.651 49.0153L68.324 47.6831C68.2472 47.6062 68.204 47.502 68.204 47.3933C68.204 47.2846 68.2472 47.1803 68.324 47.1035C68.4009 47.0266 68.5051 46.9835 68.6138 46.9835C68.7225 46.9835 68.8267 47.0266 68.9036 47.1035L69.9185 48.121L71.9955 45.7398C72.069 45.673 72.1642 45.6353 72.2635 45.6336C72.3628 45.6319 72.4593 45.6664 72.535 45.7305C72.6108 45.7947 72.6606 45.8843 72.6752 45.9825C72.6898 46.0807 72.6682 46.1808 72.6144 46.2643L70.2542 48.9759C70.217 49.0185 70.1716 49.053 70.1206 49.0774C70.0697 49.1017 70.0143 49.1154 69.9578 49.1176L69.9395 49.1359Z" fill="#4183E4"/>
<path d="M65.7853 105.307H53.3232L54.784 89.845L63.863 89.6143L65.7853 105.307Z" fill="#4183E4"/>
<path d="M65.7853 105.307H53.3232L54.784 89.845L63.863 89.6143L65.7853 105.307Z" fill="url(#paint14_linear)"/>
<path d="M63.7083 105.307H51.2462L52.7069 89.845L61.786 89.6143L63.7083 105.307Z" fill="#4183E4"/>
<path d="M63.7083 105.307H51.2462L52.7069 89.845L61.786 89.6143L63.7083 105.307Z" fill="url(#paint15_linear)"/>
<path d="M60.7267 89.9551L60.5799 89.9393C60.6035 89.2601 60.5799 87.3588 59.6856 86.2679C59.494 86.0224 59.2511 85.8217 58.9739 85.6799C58.6966 85.5382 58.3918 85.4587 58.0806 85.447C57.7836 85.4253 57.4853 85.4682 57.2065 85.5728C56.9276 85.6773 56.6747 85.8411 56.4652 86.0528C55.3663 87.128 55.1277 89.2916 55.0805 89.9865H54.8995C54.8995 89.8633 55.0044 87.0756 56.3734 85.822C56.6011 85.6046 56.8726 85.4381 57.1696 85.3336C57.4667 85.2292 57.7826 85.1891 58.0964 85.2162C58.4208 85.2256 58.7396 85.3033 59.032 85.4443C59.3244 85.5853 59.5837 85.7864 59.7931 86.0344C60.9391 87.3588 60.7424 89.8502 60.7267 89.9551Z" fill="#4183E4"/>
<path d="M62.0929 89.9551L61.9434 89.9394C61.9696 89.2602 61.9434 87.3589 61.0517 86.2679C60.8594 86.0226 60.616 85.8222 60.3384 85.6804C60.0608 85.5387 59.7556 85.4591 59.4441 85.4471C59.1471 85.4255 58.8489 85.4685 58.5701 85.5731C58.2912 85.6776 58.0383 85.8413 57.8287 86.0529C56.7325 87.1281 56.4938 89.2917 56.444 89.9866H56.2631C56.2631 89.8634 56.3706 87.0756 57.7395 85.8221C57.9667 85.6046 58.2377 85.438 58.5343 85.3335C58.831 85.229 59.1465 85.1891 59.4599 85.2163C59.7844 85.2252 60.1034 85.3027 60.3959 85.4437C60.6883 85.5848 60.9476 85.7861 61.1566 86.0345C62.3053 87.3589 62.1086 89.8502 62.0929 89.9551Z" fill="#4183E4"/>
<path d="M72.0165 105.307H59.5544L61.0152 89.845L70.0942 89.6143L72.0165 105.307Z" fill="#4183E4"/>
<path d="M72.0165 105.307H59.5544L61.0152 89.845L70.0942 89.6143L72.0165 105.307Z" fill="url(#paint16_linear)"/>
<path d="M69.9395 105.307H57.4774L58.9381 89.845L68.0172 89.6143L69.9395 105.307Z" fill="#4183E4"/>
<path d="M69.9395 105.307H57.4774L58.9381 89.845L68.0172 89.6143L69.9395 105.307Z" fill="url(#paint17_linear)"/>
<path d="M66.9576 89.9551L66.8107 89.9393C66.8343 89.2601 66.8107 87.3588 65.9164 86.2678C65.7254 86.023 65.4833 85.8228 65.2071 85.681C64.9308 85.5393 64.627 85.4594 64.3167 85.447C64.0197 85.4253 63.7214 85.4682 63.4425 85.5727C63.1637 85.6773 62.9108 85.8411 62.7012 86.0528C61.6024 87.128 61.3638 89.2916 61.3166 89.9865H61.1356C61.1356 89.8633 61.2431 87.0756 62.6095 85.822C62.835 85.6057 63.1036 85.4394 63.3978 85.3341C63.692 85.2288 64.0052 85.1868 64.3167 85.211C64.6412 85.2204 64.96 85.2981 65.2524 85.4391C65.5447 85.5801 65.8041 85.7811 66.0135 86.0292C67.17 87.3588 66.9733 89.8502 66.9576 89.9551Z" fill="#4183E4"/>
<path d="M68.3239 89.9551L68.177 89.9393C68.2006 89.2601 68.177 87.3588 67.2827 86.2678C67.0904 86.0226 66.847 85.8221 66.5694 85.6803C66.2918 85.5386 65.9866 85.459 65.6752 85.447C65.3785 85.4255 65.0808 85.4685 64.8023 85.5731C64.5239 85.6776 64.2714 85.8413 64.0623 86.0528C62.9635 87.128 62.7249 89.2916 62.675 89.9865H62.4967C62.4967 89.8633 62.6016 87.0756 63.9705 85.822C64.1978 85.6046 64.4688 85.4381 64.7654 85.3337C65.0621 85.2292 65.3776 85.1892 65.6909 85.2162C66.0154 85.2251 66.3344 85.3026 66.6269 85.4436C66.9193 85.5847 67.1786 85.786 67.3876 86.0344C68.5363 87.3588 68.3396 89.8502 68.3239 89.9551Z" fill="#4183E4"/>
<defs>
<linearGradient id="paint0_linear" x1="93.2954" y1="35.1477" x2="82.9864" y2="80.8446" gradientUnits="userSpaceOnUse">
<stop stop-color="#010101" stop-opacity="0"/>
<stop offset="0.95" stop-color="#010101"/>
</linearGradient>
<linearGradient id="paint1_linear" x1="7202.9" y1="10619.2" x2="4678.45" y2="11412.7" gradientUnits="userSpaceOnUse">
<stop stop-color="#010101" stop-opacity="0"/>
<stop offset="0.95" stop-color="#010101"/>
</linearGradient>
<linearGradient id="paint2_linear" x1="10953.2" y1="18139.3" x2="31125.2" y2="20522.4" gradientUnits="userSpaceOnUse">
<stop stop-color="#010101" stop-opacity="0"/>
<stop offset="0.95" stop-color="#010101"/>
</linearGradient>
<linearGradient id="paint3_linear" x1="17749.7" y1="2466.99" x2="17732.6" y2="8071.99" gradientUnits="userSpaceOnUse">
<stop stop-color="#010101" stop-opacity="0"/>
<stop offset="0.95" stop-color="#010101"/>
</linearGradient>
<linearGradient id="paint4_linear" x1="1547.03" y1="5921.76" x2="2561.16" y2="6145.48" gradientUnits="userSpaceOnUse">
<stop stop-color="#010101" stop-opacity="0"/>
<stop offset="0.95" stop-color="#010101"/>
</linearGradient>
<linearGradient id="paint5_linear" x1="1586.75" y1="5891.63" x2="-392.636" y2="6646.41" gradientUnits="userSpaceOnUse">
<stop stop-color="#010101" stop-opacity="0"/>
<stop offset="0.95" stop-color="#010101"/>
</linearGradient>
<linearGradient id="paint6_linear" x1="2092.34" y1="3612.51" x2="2202.15" y2="4058.24" gradientUnits="userSpaceOnUse">
<stop stop-color="#010101" stop-opacity="0"/>
<stop offset="0.95" stop-color="#010101"/>
</linearGradient>
<linearGradient id="paint7_linear" x1="841.337" y1="4302.95" x2="979.18" y2="4324.55" gradientUnits="userSpaceOnUse">
<stop stop-color="#010101" stop-opacity="0"/>
<stop offset="0.95" stop-color="#010101"/>
</linearGradient>
<linearGradient id="paint8_linear" x1="15383.7" y1="8495.64" x2="11263.9" y2="9305.88" gradientUnits="userSpaceOnUse">
<stop stop-color="#010101" stop-opacity="0"/>
<stop offset="0.95" stop-color="#010101"/>
</linearGradient>
<linearGradient id="paint9_linear" x1="58.8016" y1="67.4909" x2="55.8487" y2="67.4909" gradientUnits="userSpaceOnUse">
<stop stop-color="#E4C5D5"/>
<stop offset="0.42" stop-color="#E9D3CF"/>
<stop offset="1" stop-color="#EFE8CA"/>
</linearGradient>
<linearGradient id="paint10_linear" x1="1856.96" y1="9790.85" x2="2303.25" y2="9790.85" gradientUnits="userSpaceOnUse">
<stop stop-color="#E4C5D5"/>
<stop offset="0.42" stop-color="#E9D3CF"/>
<stop offset="1" stop-color="#EFE8CA"/>
</linearGradient>
<linearGradient id="paint11_linear" x1="4964.7" y1="1797.5" x2="4831.08" y2="1785.48" gradientUnits="userSpaceOnUse">
<stop stop-color="#E4C5D5"/>
<stop offset="0.42" stop-color="#E9D3CF"/>
<stop offset="1" stop-color="#EFE8CA"/>
</linearGradient>
<linearGradient id="paint12_linear" x1="4520.53" y1="4077.58" x2="4932.28" y2="3887.95" gradientUnits="userSpaceOnUse">
<stop stop-color="#010101" stop-opacity="0"/>
<stop offset="0.95" stop-color="#010101"/>
</linearGradient>
<linearGradient id="paint13_linear" x1="499.601" y1="3291.55" x2="545.591" y2="3291.55" gradientUnits="userSpaceOnUse">
<stop stop-color="#010101" stop-opacity="0"/>
<stop offset="0.95" stop-color="#010101"/>
</linearGradient>
<linearGradient id="paint14_linear" x1="2838.22" y1="5921.76" x2="3852.05" y2="6145.4" gradientUnits="userSpaceOnUse">
<stop stop-color="#010101" stop-opacity="0"/>
<stop offset="0.95" stop-color="#010101"/>
</linearGradient>
<linearGradient id="paint15_linear" x1="2878.27" y1="5891.63" x2="898.762" y2="6646.4" gradientUnits="userSpaceOnUse">
<stop stop-color="#010101" stop-opacity="0"/>
<stop offset="0.95" stop-color="#010101"/>
</linearGradient>
<linearGradient id="paint16_linear" x1="3140.55" y1="5921.76" x2="4154.38" y2="6145.4" gradientUnits="userSpaceOnUse">
<stop stop-color="#010101" stop-opacity="0"/>
<stop offset="0.95" stop-color="#010101"/>
</linearGradient>
<linearGradient id="paint17_linear" x1="3180.6" y1="5891.63" x2="1201.09" y2="6646.4" gradientUnits="userSpaceOnUse">
<stop stop-color="#010101" stop-opacity="0"/>
<stop offset="0.95" stop-color="#010101"/>
</linearGradient>
</defs>
</svg>
