<svg width="58" height="57" viewBox="0 0 58 57" fill="none" xmlns="http://www.w3.org/2000/svg">
<g clip-path="url(#clip0)">
<path d="M2.88484 21.2734H12.7513L27.2433 49.8496L2.88484 21.2734Z" stroke="#B0B6C7"/>
<path d="M56.3048 21.2734H46.4384L31.9463 49.8496L56.3048 21.2734Z" stroke="#B0B6C7"/>
<path d="M29.5919 52.2708L13.872 21.2734H45.3117L29.5919 52.2708Z" stroke="#B0B6C7"/>
<path d="M13.6311 19.4065L14.4048 4.82522L28.3312 3.34216L13.6311 19.4065Z" stroke="#B0B6C7"/>
<path d="M45.5524 19.4065L44.7787 4.82522L30.8523 3.34216L45.5524 19.4065Z" stroke="#B0B6C7"/>
<path d="M46.6056 20.2735H56.3965L45.8486 6.00855L46.6056 20.2735Z" stroke="#B0B6C7"/>
<path d="M12.5842 20.2735H2.79319L13.3411 6.00854L12.5842 20.2735Z" stroke="#B0B6C7"/>
<path d="M44.9907 20.2736H14.1931L29.5919 3.44572L44.9907 20.2736Z" stroke="#B0B6C7"/>
</g>
<defs>
<clipPath id="clip0">
<rect width="57" height="56" fill="white" transform="translate(0.643585 0.371582)"/>
</clipPath>
</defs>
</svg>
