<svg width="58" height="56" viewBox="0 0 58 56" fill="none" xmlns="http://www.w3.org/2000/svg">
<g clip-path="url(#clip0)">
<path d="M2.66216 2.39753H54.9123V53.6009H2.66216V2.39753ZM0.287186 55.9936H57.2873V0.00488281H0.287186V55.9936ZM36.3398 23.2617C35.9835 23.0942 35.5085 23.0224 34.9384 23.0224C31.8747 23.0224 29.7372 25.3912 29.7372 29.3391C29.7372 33.8373 31.9222 35.6557 34.6536 35.6557C35.2472 35.6557 35.8648 35.5839 36.3398 35.3686V23.2617ZM35.0809 19.3616C35.5797 19.3616 35.8647 19.3616 36.3397 19.4095V13.045C36.3397 12.8775 36.4584 12.8057 36.5771 12.8057H40.4246C40.6146 12.8057 40.6621 12.8775 40.6621 12.9971V35.3687C40.6621 36.0386 40.6621 36.8761 40.7808 37.7853C40.7808 37.9527 40.7333 37.9767 40.5671 38.0724C38.5246 39.0534 36.3634 39.4841 34.3447 39.4841C29.0959 39.4841 25.3434 36.2062 25.3434 29.5306C25.3197 23.812 29.0722 19.3616 35.0809 19.3616ZM21.1398 38.8142C21.1398 39.0533 21.0923 39.1252 20.831 39.1252H17.1735C16.936 39.1252 16.8647 39.0056 16.8647 38.8142V13.1167C16.8647 12.8775 16.9834 12.8056 17.1735 12.8056H20.8547C21.0447 12.8056 21.1398 12.8774 21.1398 13.0928V38.8142Z" fill="#B0B6C7"/>
</g>
<defs>
<clipPath id="clip0">
<rect width="57" height="56" fill="white" transform="translate(0.28717)"/>
</clipPath>
</defs>
</svg>
