<svg width="58" height="57" viewBox="0 0 58 57" fill="none" xmlns="http://www.w3.org/2000/svg">
<g clip-path="url(#clip0)">
<g clip-path="url(#clip1)">
<path fill-rule="evenodd" clip-rule="evenodd" d="M51.9525 21.5112C49.6815 21.5112 48.3987 21.9529 47.6621 22.988C46.8925 24.0692 46.7378 25.7758 46.7378 28.1794C46.7378 32.8978 47.4625 34.8702 51.9525 34.8702C52.4918 34.8702 54.3352 34.8599 55.4113 34.7276C55.8301 34.6576 56.0176 34.3346 56.0176 34.0456V33.5244C56.0176 33.1189 55.7134 32.8129 55.3098 32.8129H51.9523C49.419 32.8129 48.9622 32.2113 48.8972 28.7911V27.6839C48.9188 24.184 49.3756 23.5686 51.9525 23.5686C54.3285 23.5686 54.7842 24.1147 54.8632 27.196H51.0877V29.2762H56.0535C57.0316 29.2762 57.0316 28.5871 57.0316 28.3608V27.6966C56.9607 22.8986 55.8213 21.5112 51.9525 21.5112ZM45.4137 21.6946L45.3597 21.6803C44.8972 21.5823 43.6334 21.5112 43.0068 21.5112C40.7894 21.5112 39.6175 22.4465 39.6175 24.216V34.0681C39.6175 34.4736 39.8991 34.7569 40.3027 34.7569H41.0915C41.4952 34.7569 41.7769 34.4738 41.7769 34.0681V24.3969C41.7769 23.9602 41.8866 23.5686 43.2097 23.5686L45.1689 23.5669C45.3607 23.5899 45.5437 23.5365 45.6847 23.4162C45.8386 23.2856 45.9232 23.0948 45.9232 22.8797V22.3813C45.9232 22.0542 45.7374 21.8039 45.4137 21.6946ZM35.9438 21.6699H35.155C34.7515 21.6699 34.4696 21.9531 34.4696 22.3588V32.8131H31.1893C29.1602 32.8131 28.337 32.6831 28.337 29.4251V22.3588C28.337 21.9533 28.0551 21.6699 27.6516 21.6699H26.8852C26.4817 21.6699 26.1774 21.966 26.1774 22.3588V29.4251C26.1774 34.0554 27.8444 34.8702 31.347 34.8702C32.607 34.8702 34.3326 34.8702 35.9783 34.6368L36.0163 34.6291C36.4228 34.5268 36.629 34.2924 36.629 33.9323V22.3588C36.629 21.9533 36.3471 21.6699 35.9438 21.6699Z" fill="#B0B6C7"/>
<path fill-rule="evenodd" clip-rule="evenodd" d="M23.7446 21.9937C23.6434 21.7768 23.4262 21.6475 23.1638 21.6475H22.15C21.8555 21.6475 21.6353 21.7669 21.5194 21.982L20.0167 24.1939L21.3322 26.0063L23.6289 22.6872C23.881 22.3787 23.7938 22.0993 23.7446 21.9937Z" fill="#B0B6C7"/>
<path fill-rule="evenodd" clip-rule="evenodd" d="M15.8226 21.957L15.8213 21.955C15.5922 21.6475 15.2874 21.6475 15.1872 21.6475H14.1955C13.9415 21.6475 13.7334 21.7651 13.6248 21.9699C13.5129 22.1796 13.5366 22.4316 13.6913 22.665L17.365 27.7956L13.1406 33.7316C12.993 33.9549 12.9723 34.203 13.0838 34.4126C13.1931 34.6173 13.4013 34.7346 13.6549 34.7346H14.6686C14.9293 34.7346 15.1586 34.5983 15.2732 34.3835L20.0017 27.8193L15.8226 21.957Z" fill="#B0B6C7"/>
<path fill-rule="evenodd" clip-rule="evenodd" d="M24.249 33.783L21.3016 29.708L20.0051 31.5085L22.336 34.6425L22.3966 34.6692C22.4891 34.7111 22.5892 34.7332 22.6906 34.734H23.682C23.9215 34.734 24.1248 34.6268 24.2399 34.4396C24.3578 34.2477 24.3611 34.0086 24.249 33.783Z" fill="#B0B6C7"/>
<path fill-rule="evenodd" clip-rule="evenodd" d="M9.24163 29.1856V32.6462C8.23786 32.8014 6.70786 32.8358 6.18643 32.8358C3.87975 32.8358 3.62699 32.2008 3.62699 30.8523C3.62699 29.5904 4.09574 29.1855 5.55551 29.1855L9.24163 29.1856ZM6.07379 21.5112C5.36105 21.5112 4.38909 21.5299 3.17976 21.6764L3.1251 21.6886C2.77279 21.7896 2.5944 22.0227 2.5944 22.3815V22.8797C2.5944 23.3046 2.85693 23.5686 3.27964 23.5686H6.07396C8.32383 23.5686 9.24163 24.1827 9.24163 25.688V27.151H5.55551C2.67457 27.151 1.4452 28.2578 1.4452 30.8522C1.4452 33.7437 2.71763 34.8704 5.98369 34.8704C7.30664 34.8704 9.74185 34.7668 10.6419 34.4903C11.4009 34.278 11.4009 33.694 11.4009 33.5021V25.5523C11.4009 22.8332 9.65837 21.5112 6.07396 21.5112H6.07379Z" fill="#B0B6C7"/>
</g>
</g>
<defs>
<clipPath id="clip0">
<rect width="57" height="56" fill="white" transform="translate(0.28717 0.371582)"/>
</clipPath>
<clipPath id="clip1">
<rect width="55.5864" height="15.9712" fill="white" transform="translate(1.44522 20.2051)"/>
</clipPath>
</defs>
</svg>
