<svg width="87" height="87" viewBox="0 0 87 87" fill="none" xmlns="http://www.w3.org/2000/svg">
<circle cx="43.357" cy="43.391" r="42" stroke="#4183E4" stroke-width="2"/>
<g clip-path="url(#clip0)">
<path d="M51.3431 19.8794C50.7803 15.9347 47.3466 12.9596 43.3566 12.9596C40.7905 12.9596 38.3535 14.1978 36.8383 16.2731C36.5288 16.6963 36.6214 17.29 37.0446 17.5995C37.4665 17.9079 38.0615 17.8164 38.3705 17.3926C39.5303 15.8057 41.3939 14.858 43.3563 14.858C46.4079 14.858 49.0331 17.1321 49.4636 20.1472C49.5314 20.6207 49.9377 20.9625 50.4024 20.9625C50.4466 20.9625 50.4922 20.9592 50.5375 20.953C51.0564 20.8788 51.417 20.398 51.3431 19.8794Z" fill="#4183E4"/>
<path d="M65.0517 30.5047L62.2042 25.7589C62.0329 25.4727 61.724 25.2981 61.3903 25.2981H58.6616C58.1377 25.2981 57.7125 25.7233 57.7125 26.2472C57.7125 26.771 58.1377 27.1962 58.6616 27.1962H60.8531L62.5615 30.0437H24.1512L25.8597 27.1962H26.8649C27.3888 27.1962 27.814 26.771 27.814 26.2472C27.814 25.7233 27.3888 25.2981 26.8649 25.2981H25.3225C24.9888 25.2981 24.6799 25.4727 24.5086 25.7589L21.6611 30.5047C21.4851 30.7984 21.4809 31.1635 21.6492 31.461C21.8174 31.7585 22.1327 31.9426 22.475 31.9426H64.2378C64.5801 31.9426 64.8951 31.7585 65.0636 31.461C65.2321 31.1635 65.2277 30.7978 65.0517 30.5047Z" fill="#4183E4"/>
<path d="M60.3206 21.7531C60.1877 21.5387 59.9756 21.3866 59.7303 21.3293L46.7913 18.3031C46.5464 18.2455 46.2883 18.2884 46.0742 18.4207C45.8606 18.5536 45.7083 18.7658 45.651 19.0111L44.6752 23.1821C44.5556 23.6924 44.8727 24.2029 45.3832 24.322C45.8935 24.4415 46.4045 24.1245 46.5236 23.614L47.2833 20.3675L58.3736 22.9616L56.6309 30.4126C56.5113 30.9228 56.8283 31.4334 57.3389 31.5524C57.412 31.5693 57.4846 31.5774 57.5563 31.5774C57.9873 31.5774 58.3775 31.2821 58.479 30.8447L60.438 22.4697C60.4958 22.2247 60.4536 21.9667 60.3206 21.7531Z" fill="#4183E4"/>
<path d="M43.8585 23.9969L42.9937 16.6822C42.9642 16.4322 42.8366 16.2039 42.6386 16.0482C42.4406 15.8925 42.1906 15.8213 41.9395 15.8508L26.0644 17.7272C25.5441 17.7889 25.1721 18.2605 25.2335 18.7814L26.6753 30.9812C26.7326 31.4642 27.1422 31.8193 27.6169 31.8193C27.6539 31.8193 27.692 31.8168 27.7298 31.8126C28.2498 31.7509 28.6218 31.2793 28.5607 30.7585L27.2301 19.5005L41.2201 17.847L41.9732 24.219C42.0349 24.7396 42.5043 25.1094 43.0273 25.0505C43.5476 24.9893 43.9197 24.5174 43.8585 23.9969Z" fill="#4183E4"/>
<path d="M51.3651 30.6326L49.4811 22.7983C49.4222 22.5538 49.2684 22.3422 49.054 22.2107C48.8396 22.0803 48.5824 22.0394 48.3363 22.0978L33.046 25.775C32.5363 25.8974 32.2226 26.4101 32.345 26.9198L33.2865 30.8356C33.4089 31.3459 33.9216 31.6598 34.4311 31.5367C34.9408 31.4143 35.2544 30.9015 35.1321 30.3918L34.4122 27.3987L47.8569 24.1658L49.5189 31.077C49.6232 31.5122 50.0125 31.8042 50.441 31.8042C50.5147 31.8042 50.5892 31.7955 50.664 31.7775C51.1737 31.6548 51.4874 31.1423 51.3651 30.6326Z" fill="#4183E4"/>
<path d="M65.1867 30.9451C65.1605 30.4407 64.744 30.0447 64.2384 30.0447H22.4757C21.9702 30.0447 21.5536 30.4404 21.5275 30.9451L19.6291 67.962C19.6157 68.2217 19.7097 68.4758 19.8888 68.6644C20.0682 68.8526 20.3168 68.9597 20.577 68.9597H66.1363C66.3963 68.9597 66.6452 68.8529 66.8253 68.6644C67.0041 68.4758 67.0981 68.222 67.0851 67.962L65.1867 30.9451ZM21.5759 67.0613L23.3769 31.9428H63.3361L65.1372 67.0613H21.5759Z" fill="#4183E4"/>
<path d="M50.4752 33.8408C48.9049 33.8408 47.6277 35.118 47.6277 36.6883C47.6277 38.2585 48.9049 39.5357 50.4752 39.5357C52.0455 39.5357 53.3227 38.2585 53.3227 36.6883C53.3227 35.118 52.0455 33.8408 50.4752 33.8408ZM50.4752 37.6376C49.9516 37.6376 49.5261 37.2119 49.5261 36.6886C49.5261 36.1652 49.9519 35.7395 50.4752 35.7395C50.9985 35.7395 51.4243 36.1652 51.4243 36.6886C51.4243 37.2119 50.9985 37.6376 50.4752 37.6376Z" fill="#4183E4"/>
<path d="M36.2379 33.8408C34.6676 33.8408 33.3904 35.118 33.3904 36.6883C33.3904 38.2585 34.6676 39.5357 36.2379 39.5357C37.8082 39.5357 39.0853 38.2585 39.0853 36.6883C39.0853 35.118 37.8082 33.8408 36.2379 33.8408ZM36.2379 37.6376C35.7146 37.6376 35.2888 37.2119 35.2888 36.6886C35.2888 36.1652 35.7146 35.7395 36.2379 35.7395C36.7612 35.7395 37.187 36.1652 37.187 36.6886C37.187 37.2119 36.7612 37.6376 36.2379 37.6376Z" fill="#4183E4"/>
<path d="M50.4752 36.6882H50.4021C49.8782 36.6882 49.453 37.1134 49.453 37.6373C49.453 37.7669 49.4786 37.8906 49.5262 38.0032V42.8575C49.5262 46.2592 46.7585 49.0271 43.3566 49.0271C39.9547 49.0271 37.187 46.2595 37.187 42.8575V37.6376C37.187 37.1137 36.7619 36.6885 36.238 36.6885C35.7141 36.6885 35.2889 37.1137 35.2889 37.6376V42.8578C35.2889 47.3064 38.908 50.9255 43.3566 50.9255C47.8052 50.9255 51.4243 47.3064 51.4243 42.8578V37.6376C51.4243 37.1137 50.9991 36.6882 50.4752 36.6882Z" fill="#4183E4"/>
</g>
<defs>
<clipPath id="clip0">
<rect width="56" height="56" fill="white" transform="translate(15.357 12.9596)"/>
</clipPath>
</defs>
</svg>
