<svg width="58" height="56" viewBox="0 0 58 56" fill="none" xmlns="http://www.w3.org/2000/svg">
<g clip-path="url(#clip0)">
<path d="M3.01857 2.39753H55.2687V53.6009H3.01857V2.39753ZM0.643599 55.9936H57.6437V0.00488281H0.643599V55.9936ZM37.9786 19.9598C37.9786 19.7684 38.0499 19.6726 38.2637 19.6726H41.9924C42.1823 19.6726 42.2774 19.7444 42.2774 19.9598V38.8381C42.2774 39.0294 42.2299 39.1252 41.9924 39.1252H38.3112C38.0737 39.1252 38.0024 39.0056 38.0024 38.8142V19.9598H37.9786ZM37.7174 14.5284C37.7174 12.9971 38.7861 12.0879 40.14 12.0879C41.5887 12.0879 42.5624 13.0689 42.5624 14.5284C42.5624 16.1076 41.5412 16.9689 40.0925 16.9689C38.7149 16.969 37.7174 16.1076 37.7174 14.5284ZM27.0299 27.8317C26.365 25.1758 24.7975 19.3856 24.2036 16.5861H24.1561C23.6574 19.3856 22.3987 24.123 21.4012 27.8317H27.0299ZM20.4274 31.7079L18.5511 38.886C18.5036 39.0772 18.4324 39.1251 18.1949 39.1251H14.7036C14.4662 39.1251 14.4186 39.0533 14.4662 38.7662L21.2111 14.983C21.3299 14.5523 21.4011 14.1695 21.4486 12.9971C21.4486 12.8296 21.5199 12.7579 21.6386 12.7579H26.6261C26.7923 12.7579 26.8636 12.8057 26.9112 12.9971L34.4636 38.8141C34.5111 39.0054 34.4636 39.1251 34.2736 39.1251H30.3311C30.1411 39.1251 30.0223 39.0772 29.9749 38.9099L28.0274 31.7079H20.4274Z" fill="#B0B6C7"/>
</g>
<defs>
<clipPath id="clip0">
<rect width="57" height="56" fill="white" transform="translate(0.643585)"/>
</clipPath>
</defs>
</svg>
