<svg width="57" height="56" viewBox="0 0 57 56" fill="none" xmlns="http://www.w3.org/2000/svg">
<g clip-path="url(#clip0)">
<path d="M2.37499 2.39753H54.6251V53.6009H2.37499V2.39753ZM1.52588e-05 55.9936H57.0001V0.00488281H1.52588e-05V55.9936ZM38.4276 22.9746C36.5513 22.9746 35.9101 23.9316 35.9101 24.7212C35.9101 25.5825 36.3376 26.1807 38.8551 27.4967C42.5839 29.3152 43.7476 31.0618 43.7476 33.622C43.7476 37.4502 40.8501 39.508 36.9313 39.508C34.8651 39.508 33.0838 39.0772 32.0626 38.4792C31.8963 38.4074 31.8726 38.2878 31.8726 38.0963V34.579C31.8726 34.3398 31.9913 34.2679 32.1577 34.3876C33.6539 35.3687 35.3639 35.7993 36.9313 35.7993C38.8076 35.7993 39.5914 35.0098 39.5914 33.933C39.5914 33.0717 39.0451 32.306 36.6463 31.0618C33.2738 29.4348 31.8726 27.7839 31.8726 25.0323C31.8726 21.9457 34.2714 19.3856 38.4276 19.3856C40.4701 19.3856 41.8951 19.6967 42.6788 20.0555C42.8688 20.1751 42.9163 20.3665 42.9163 20.534V23.8119C42.9163 24.0033 42.7976 24.123 42.56 24.0511C41.5151 23.3814 39.9713 22.9746 38.4276 22.9746ZM18.0025 25.8219C18.5488 25.8697 18.9763 25.8697 19.9263 25.8697C22.7052 25.8697 25.3176 24.8887 25.3176 21.0844C25.3176 18.0457 23.4413 16.5143 20.2826 16.5143C19.3326 16.5143 18.4301 16.5622 18.0025 16.5861V25.8219ZM13.7751 13.1167C13.7751 12.9493 14.1077 12.8295 14.2975 12.8295C15.8176 12.7578 18.0739 12.7099 20.4251 12.7099C27.0038 12.7099 29.5688 16.3468 29.5688 20.9886C29.5688 27.066 25.1988 29.674 19.8313 29.674C18.9288 29.674 18.6201 29.6262 17.9788 29.6262V38.8141C17.9788 39.0055 17.9075 39.1012 17.6938 39.1012H14.0601C13.8701 39.1012 13.775 39.0294 13.775 38.8141V13.1167H13.7751Z" fill="#B0B6C7"/>
</g>
<defs>
<clipPath id="clip0">
<rect width="57" height="56" fill="white"/>
</clipPath>
</defs>
</svg>
