<svg width="57" height="56" viewBox="0 0 57 56" fill="none" xmlns="http://www.w3.org/2000/svg">
<g clip-path="url(#clip0)">
<path d="M53.6868 48.9923C53.7074 52.8371 50.6295 55.9678 46.8154 55.9886C46.5319 55.9909 46.2461 55.9747 45.9648 55.9402C42.4251 55.4126 39.832 52.3096 39.9189 48.7066V7.28191C39.8343 3.67435 42.4342 0.571297 45.9762 0.0483622C49.7652 -0.398551 53.1974 2.33361 53.641 6.1508C53.6731 6.43185 53.6891 6.7129 53.6868 6.99625V48.9923Z" fill="#B0B6C7"/>
<path d="M10.3593 42.1274C14.162 42.1274 17.2444 45.2327 17.2444 49.0637C17.2444 52.8947 14.162 56.0001 10.3593 56.0001C6.55657 56.0001 3.47415 52.8947 3.47415 49.0637C3.47415 45.2327 6.55657 42.1274 10.3593 42.1274ZM28.4742 21.1063C24.6532 21.3182 21.6897 24.5457 21.7789 28.3997V47.0296C21.7789 52.0861 23.9878 55.1546 27.2234 55.8089C30.9575 56.5714 34.5956 54.141 35.3525 50.3791C35.4462 49.9184 35.492 49.4507 35.4897 48.9808V28.0772C35.4965 24.2324 32.4095 21.1109 28.5931 21.104C28.5542 21.104 28.5131 21.104 28.4742 21.1063Z" fill="#B0B6C7"/>
</g>
<defs>
<clipPath id="clip0">
<rect width="50.2127" height="56" fill="white" transform="translate(3.47415)"/>
</clipPath>
</defs>
</svg>
