<svg width="57" height="57" viewBox="0 0 57 57" fill="none" xmlns="http://www.w3.org/2000/svg">
<g clip-path="url(#clip0)">
<g clip-path="url(#clip1)">
<path d="M19.6905 56.3719C24.8045 56.3719 28.9549 52.1905 28.9549 47.0385V37.7051H19.6905C14.5766 37.7051 10.4262 41.8864 10.4262 47.0385C10.4262 52.1905 14.5766 56.3719 19.6905 56.3719Z" fill="#B0B6C7"/>
<path d="M10.4262 28.3714C10.4262 23.2194 14.5766 19.0381 19.6905 19.0381H28.9549V37.7047H19.6905C14.5766 37.7047 10.4262 33.5234 10.4262 28.3714Z" fill="#B0B6C7"/>
<path d="M10.4256 9.70491C10.4256 4.55291 14.5761 0.371582 19.69 0.371582H28.9544V19.0382H19.69C14.5761 19.0382 10.4256 14.8569 10.4256 9.70491Z" fill="#B0B6C7"/>
<path d="M28.955 0.371582H38.2194C43.3333 0.371582 47.4838 4.55291 47.4838 9.70491C47.4838 14.8569 43.3333 19.0382 38.2194 19.0382H28.955V0.371582Z" fill="#B0B6C7"/>
<path d="M47.4838 28.3714C47.4838 33.5234 43.3333 37.7047 38.2194 37.7047C33.1054 37.7047 28.955 33.5234 28.955 28.3714C28.955 23.2194 33.1054 19.0381 38.2194 19.0381C43.3333 19.0381 47.4838 23.2194 47.4838 28.3714Z" fill="#B0B6C7"/>
</g>
</g>
<defs>
<clipPath id="clip0">
<rect width="57" height="56" fill="white" transform="translate(0 0.371582)"/>
</clipPath>
<clipPath id="clip1">
<rect width="37.065" height="56" fill="white" transform="translate(10.4225 0.371582)"/>
</clipPath>
</defs>
</svg>
