<svg width="14" height="16" viewBox="0 0 14 16" fill="none" xmlns="http://www.w3.org/2000/svg">
<path d="M13.7778 7.74349L0.444444 0.0397963C0.353037 -0.0131666 0.240148 -0.0133147 0.148148 0.0396482C0.0564444 0.0926111 0 0.190389 0 0.296315V15.7037C0 15.8096 0.0564444 15.9074 0.148148 15.9604C0.194148 15.9868 0.245111 16 0.296296 16C0.347481 16 0.39874 15.9867 0.444444 15.9602L13.7778 8.25653C13.8695 8.20356 13.9259 8.10579 13.9259 8.00001C13.9259 7.89423 13.8695 7.79645 13.7778 7.74349ZM4.97948 8.00001L0.592592 14.7091V1.29091L4.97948 8.00001ZM5.49362 8.29631H12.5245L1.22489 14.8249L5.49362 8.29631ZM5.49362 7.70371L1.22489 1.17513L12.5245 7.70371H5.49362Z" fill="url(#paint0_linear)"/>
<defs>
<linearGradient id="paint0_linear" x1="6.96296" y1="0" x2="6.96296" y2="16" gradientUnits="userSpaceOnUse">
<stop stop-color="#8FAFDF"/>
<stop offset="0.494792" stop-color="#5F93E0"/>
<stop offset="1" stop-color="#4183E4"/>
</linearGradient>
</defs>
</svg>
