<svg width="134" height="120" viewBox="0 0 134 120" fill="none" xmlns="http://www.w3.org/2000/svg">
<g clip-path="url(#clip0)">
<path opacity="0.24" d="M133.568 47.0267C133.385 52.5805 131.222 57.8687 128.725 62.8233C124.511 71.1977 119.177 79.2312 116.716 88.3656C115.635 92.3483 116.18 96.555 115.81 100.445C115.496 103.736 114.536 106.805 111.401 109.338C108.084 112.018 103.49 112.334 99.222 112.352C89.9658 112.408 80.3563 111.723 71.8138 115.275C69.2829 116.339 66.8982 117.745 64.2992 118.641C59.2521 120.387 53.7422 120.063 48.4101 119.73C43.2144 119.398 37.9359 119.048 33.0179 117.374C28.0999 115.701 23.4596 112.503 21.1967 107.806C20.086 105.504 19.5866 102.964 18.8656 100.499C18.5486 99.3858 18.1413 98.3007 17.6477 97.2541C14.3398 90.4337 6.27955 87.0235 2.57218 80.4223C0.0047898 75.8575 -0.143797 70.3476 0.068122 65.1081C0.289785 59.5884 0.891441 53.9494 3.29563 48.9754C5.78264 43.8285 10.0429 39.7508 14.5542 36.2286C22.7727 29.8052 32.0338 24.8872 40.7225 19.1386C47.314 14.7736 53.5912 9.92134 60.5334 6.14089C67.4755 2.36044 75.2313 -0.35797 83.1162 0.0512535C94.5964 0.62368 104.71 7.57561 113.601 14.8515C118.677 18.9925 123.641 23.3916 127.432 28.7359C131.222 34.0802 133.799 40.4816 133.568 47.0267Z" fill="#4183E4"/>
<path opacity="0.24" d="M115.81 100.445C115.496 103.736 114.536 106.805 111.401 109.338C108.084 112.018 103.49 112.334 99.2222 112.351C89.9659 112.407 80.3565 111.723 71.8139 115.274C69.2831 116.339 66.8984 117.744 64.2993 118.641C59.2522 120.387 53.7423 120.063 48.4102 119.73C43.2145 119.398 37.936 119.048 33.018 117.374C28.1001 115.701 23.4597 112.502 21.1968 107.806C20.0861 105.504 19.5867 102.964 18.8657 100.499C32.6868 97.0129 47.8354 102.615 61.6199 98.7058C64.8547 97.7802 67.9336 96.3576 71.205 95.5635C79.7085 93.4833 86.7725 96.6986 95.0349 97.634C101.921 98.4013 108.033 97.4294 114.846 100.019C115.165 100.15 115.499 100.289 115.81 100.445Z" fill="#4183E4"/>
<path d="M97.7971 65.8242H93.1787V104.386H97.7971V65.8242Z" fill="#4183E4"/>
<path d="M97.8825 65.8242H93.2642V104.386H97.8825V65.8242Z" fill="url(#paint0_linear)"/>
<path d="M49.2699 6.01904H2.62573V69.5949H49.2699V6.01904Z" fill="#4183E4"/>
<path d="M49.2699 6.01904H2.62573V69.5949H49.2699V6.01904Z" fill="url(#paint1_linear)"/>
<path opacity="0.3" d="M32.4335 47.587C39.203 47.587 44.6907 42.0992 44.6907 35.3297C44.6907 28.5603 39.203 23.0725 32.4335 23.0725C25.664 23.0725 20.1763 28.5603 20.1763 35.3297C20.1763 42.0992 25.664 47.587 32.4335 47.587Z" fill="#4183E4"/>
<path d="M40.9541 73.6748H48.7951C51.8029 73.6748 54.6876 74.8688 56.8155 76.9944C58.9435 79.1201 60.1406 82.0035 60.1438 85.0113V109.764H29.6055V85.0113C29.6087 82.0035 30.8058 79.1201 32.9337 76.9944C35.0617 74.8688 37.9464 73.6748 40.9541 73.6748Z" fill="#4183E4"/>
<path d="M60.1437 85.0283V109.764H29.6029V85.0283C29.599 84.1844 29.6955 83.343 29.8903 82.5218C30.4556 80.0086 31.8601 77.7628 33.8726 76.1546C35.885 74.5465 38.3852 73.6718 40.9613 73.6748H48.7999C50.2902 73.6755 51.7658 73.9696 53.1424 74.5405C54.5191 75.1115 55.7698 75.9479 56.8232 77.0022C57.8765 78.0565 58.7119 79.3079 59.2816 80.685C59.8514 82.0622 60.1443 83.538 60.1437 85.0283Z" fill="url(#paint2_linear)" fill-opacity="0.03"/>
<path d="M60.1437 85.0283V93.1056C60.0804 93.1884 60.0146 93.2737 59.9513 93.3492C58.8795 90.4652 57.8069 87.5746 56.7335 84.6776C55.1258 87.6932 54.7653 91.2325 54.9967 94.6353C55.2281 98.0382 56.0028 101.383 56.5581 104.747C56.6872 105.524 56.8017 106.347 56.4948 107.075C55.8639 108.573 53.6838 108.87 52.3246 107.981C50.9654 107.092 50.3102 105.458 49.9667 103.87C48.9924 99.3122 50.013 94.5793 49.7231 89.9293C49.6111 88.3021 49.3163 86.6116 48.3274 85.3011C46.9121 83.445 44.4446 82.8166 42.1622 82.2977C38.925 81.567 35.3589 80.8825 32.4553 82.4731C31.9925 82.7167 31.5224 83.0382 30.9938 83.0455C30.7831 83.0453 30.575 82.998 30.3849 82.9069C30.1948 82.8159 30.0275 82.6835 29.8953 82.5194C30.4608 80.0074 31.8649 77.7628 33.8762 76.1552C35.8876 74.5476 38.3865 73.6728 40.9613 73.6748H48.7999C50.2903 73.6754 51.7659 73.9696 53.1425 74.5405C54.5191 75.1115 55.7698 75.9479 56.8232 77.0022C57.8766 78.0565 58.712 79.3079 59.2817 80.685C59.8514 82.0621 60.1443 83.538 60.1437 85.0283Z" fill="url(#paint3_linear)"/>
<path d="M41.6481 41.4193C41.217 42.7127 41.3583 44.1182 41.5069 45.475C41.5337 45.7185 41.6287 46.0474 41.882 46.062C41.9826 46.0579 42.0798 46.0249 42.1621 45.967C42.5254 45.7476 42.8504 45.4703 43.1243 45.1461C43.2606 44.9469 43.4394 44.7805 43.648 44.659C44.1522 44.4324 44.6808 44.8733 45.1801 45.1145C45.5998 45.3148 46.0715 45.3795 46.5296 45.2996C46.649 45.2777 46.7902 45.2265 46.817 45.1071C46.8264 45.0465 46.817 44.9845 46.7902 44.9293C46.532 44.2522 45.8744 43.8186 45.4481 43.2242C45.0569 42.6359 44.8291 41.9541 44.788 41.2488C44.7319 40.7031 44.9731 39.7288 44.5005 39.3342C43.3971 38.4085 41.921 40.6008 41.6481 41.4193Z" stroke="#4183E4" stroke-width="0.95" stroke-miterlimit="10"/>
<path d="M48.5857 41.054C48.951 41.4096 51.7986 43.9234 52.03 44.3789C52.4644 45.1799 52.8247 46.0189 53.1066 46.8854C53.3673 47.8558 53.5386 48.8481 53.6181 49.8498L54.0834 54.0444C54.0986 54.4708 54.2129 54.8877 54.4171 55.2623C54.6903 55.6118 55.046 55.888 55.4523 56.0661C57.7505 57.2959 60.134 58.3591 62.5845 59.2474C62.6403 60.0864 62.5921 60.9291 62.4408 61.7563C62.4386 61.7982 62.428 61.8392 62.4096 61.8768C62.3911 61.9145 62.3653 61.9481 62.3336 61.9755C62.2635 62.0082 62.1838 62.0143 62.1095 61.9926C58.2609 61.3032 54.6363 59.6371 50.7804 58.9989C50.5574 58.9828 50.3421 58.9108 50.1544 58.7894C49.9918 58.6374 49.871 58.4462 49.8036 58.2341C49.4942 57.4862 49.1824 56.736 48.9364 55.9638C48.5808 54.8507 48.3591 53.6985 48.023 52.5804C47.8232 51.9106 47.5796 51.248 47.4457 50.5611C47.2411 49.5088 47.2947 48.4273 47.3507 47.358C47.3613 46.6764 47.4487 45.9982 47.6113 45.3362C48.0059 43.9648 47.0706 39.5803 48.5857 41.054Z" fill="#4183E4"/>
<path d="M50.9265 44.698C51.2919 45.0536 51.7986 43.9234 52.03 44.3789C52.4644 45.1799 52.8247 46.0189 53.1066 46.8854C53.3673 47.8559 53.5386 48.8481 53.6181 49.8498L54.0834 54.0444C54.0986 54.4708 54.2129 54.8877 54.4171 55.2623C54.6903 55.6118 55.046 55.888 55.4523 56.0661C57.7505 57.2959 60.134 58.3591 62.5845 59.2474C62.6403 60.0864 62.5921 60.9291 62.4408 61.7563C62.4386 61.7982 62.428 61.8392 62.4096 61.8768C62.3911 61.9145 62.3653 61.9481 62.3336 61.9755C62.2635 62.0082 62.1838 62.0143 62.1095 61.9926C58.2609 61.3032 54.6363 59.6371 50.7804 58.9989C50.5574 58.9828 50.3421 58.9108 50.1544 58.7894C49.9918 58.6374 49.871 58.4462 49.8036 58.2341C49.4942 57.4863 49.1824 56.736 48.9364 55.9638C48.5808 54.8507 48.3591 53.6985 48.023 52.5804C47.8232 51.9106 47.5796 51.248 47.4457 50.5611C47.2411 49.5088 47.2947 48.4273 47.3507 47.358C47.3613 46.6764 47.4487 45.9982 47.6113 45.3362C48.0059 43.9648 49.4139 43.2243 50.9265 44.698Z" fill="url(#paint4_linear)"/>
<path d="M52.332 47.7112L52.5415 53.779C52.5951 55.3891 52.5415 57.2403 51.2773 58.2658C50.4491 58.9332 49.2385 59.1037 48.5784 59.9319C48.1497 60.4678 48.0401 61.1864 48.0595 61.8684C48.0985 63.2374 48.593 64.5479 49.107 65.8267C49.2711 66.149 49.3507 66.5077 49.3384 66.8692C49.2604 67.5464 48.5857 67.9824 47.9597 68.2772C44.9961 69.6427 41.6748 70.0292 38.4769 69.3806C36.8836 69.0623 35.3488 68.5003 33.9267 67.7145C33.7683 67.6468 33.6354 67.5309 33.5467 67.3832C33.4855 67.1974 33.4941 66.9956 33.5711 66.8157C34.219 64.694 35.3955 62.7405 35.8608 60.5726C36.3114 58.468 36.0654 56.2879 36.1604 54.1419C36.2566 51.981 36.6982 49.8494 37.4684 47.8282C37.9288 46.6102 38.5256 45.424 39.461 44.5154C41.0589 42.9589 43.4119 42.4376 45.6529 42.2135C46.2427 42.1294 46.842 42.1392 47.4287 42.2427C48.2008 42.4132 48.8341 42.8688 49.5259 43.2171C50.0837 43.4996 50.8705 43.5752 51.3772 43.8821C52.4879 44.5568 52.2931 46.5615 52.332 47.7112Z" fill="#4183E4"/>
<path d="M52.332 47.7112L52.5415 53.779C52.5951 55.3891 52.5415 57.2403 51.2773 58.2658C50.4491 58.9332 49.2385 59.1037 48.5784 59.9319C48.1497 60.4678 48.0401 61.1864 48.0595 61.8684C48.0985 63.2374 48.593 64.5479 49.107 65.8267C49.2711 66.149 49.3507 66.5077 49.3384 66.8692C49.2604 67.5464 48.5857 67.9824 47.9597 68.2772C44.9961 69.6427 41.6748 70.0292 38.4769 69.3806C36.8836 69.0623 35.3488 68.5003 33.9267 67.7145C33.7683 67.6468 33.6354 67.5309 33.5467 67.3832C33.4855 67.1974 33.4941 66.9956 33.5711 66.8157C34.219 64.694 35.3955 62.7405 35.8608 60.5726C36.3114 58.468 36.0654 56.2879 36.1604 54.1419C36.2566 51.981 36.6982 49.8494 37.4684 47.8282C37.9288 46.6102 38.5256 45.424 39.461 44.5154C41.0589 42.9589 43.4119 42.4376 45.6529 42.2135C46.2427 42.1294 46.842 42.1392 47.4287 42.2427C48.2008 42.4132 48.8341 42.8688 49.5259 43.2171C50.0837 43.4996 50.8705 43.5752 51.3772 43.8821C52.4879 44.5568 52.2931 46.5615 52.332 47.7112Z" fill="url(#paint5_linear)"/>
<path d="M45.1024 36.7473C44.8822 37.7146 44.738 38.6976 44.6712 39.6874C44.6079 40.6081 44.6225 41.5825 45.0805 42.3839C45.3451 42.8171 45.6918 43.1944 46.1011 43.4946C46.5486 43.8846 47.0961 44.1419 47.6819 44.2376C47.9747 44.2803 48.2736 44.2381 48.5431 44.1159C48.8125 43.9937 49.0412 43.7967 49.2019 43.5482C49.4577 43.083 49.3797 42.5154 49.292 41.9941L49.0338 40.4133C48.9709 39.8075 48.7941 39.219 48.5126 38.6789C47.9353 37.7192 46.7904 37.2832 45.7211 36.9544" fill="url(#paint6_linear)"/>
<path d="M48.0375 43.2195C48.2003 43.3845 48.3986 43.5103 48.6173 43.5873C48.7271 43.6241 48.8455 43.6275 48.9573 43.5971C49.0691 43.5668 49.1695 43.504 49.2457 43.4168C49.3329 43.2696 49.376 43.1005 49.3699 42.9296C49.3967 42.3669 49.4187 41.8042 49.4308 41.2391C49.4604 40.7883 49.426 40.3356 49.3285 39.8945C49.1458 39.2003 48.6806 38.6181 48.2032 38.0823C47.7257 37.5464 46.8537 36.5404 46.0328 36.572C45.1315 36.6061 45.4214 37.9239 45.5115 38.5012C45.7923 40.3155 46.6833 41.9798 48.0375 43.2195Z" fill="url(#paint7_linear)"/>
<path d="M37.78 44.2278C37.3489 45.1291 37.1223 46.1132 36.8447 47.0754C36.5426 48.1155 36.1797 49.1361 35.9458 50.1932C35.692 51.5023 35.5389 52.8288 35.4879 54.1612C35.4002 55.5375 35.3125 56.9138 35.3125 58.3022C35.3125 59.3326 35.4051 60.4677 36.1383 61.1936C36.7058 61.7538 37.5364 61.9389 38.3305 62.0851C41.1639 62.6094 44.0292 62.9438 46.9072 63.0862C47.1138 63.1226 47.3264 63.0762 47.4991 62.9571C47.6102 62.8336 47.6778 62.677 47.6915 62.5114C47.8188 61.8192 47.8613 61.1141 47.8182 60.4117L40.6933 58.1877C40.5813 54.4389 42.3083 50.8802 42.8149 47.1777C42.8872 46.4053 43.0027 45.6376 43.1608 44.8782C43.3533 44.1207 43.6821 43.4021 43.8672 42.6445C44.0134 42.0331 44.1961 40.7494 43.4215 40.4693C42.8271 40.255 41.8162 40.7129 41.2779 40.9297C39.7542 41.5741 38.5128 42.7446 37.78 44.2278Z" fill="#4183E4"/>
<path d="M52.0298 60.7039C53.104 60.5894 54.1807 60.4092 55.2598 60.4798C56.3389 60.5505 57.452 60.9037 58.1828 61.6977C58.422 61.9331 58.5842 62.2354 58.648 62.5649C58.6768 62.7297 58.6579 62.8993 58.5936 63.0538C58.5293 63.2083 58.4223 63.3412 58.2851 63.4369C57.949 63.6391 57.5227 63.5222 57.1305 63.5198C56.2098 63.5198 55.3158 64.1677 54.4316 63.9217C53.8811 63.7658 53.4353 63.2811 52.8653 63.2616C52.1857 63.2372 51.6693 63.8803 51.0092 64.0459C50.4709 64.1823 49.9033 63.985 49.4259 63.7025C49.0678 63.4905 48.7438 63.2275 48.3906 63.0082C48.0862 62.8158 47.6404 62.7013 47.3749 62.4626C46.9486 62.0826 47.1313 61.6977 47.543 61.3665C48.6708 60.4555 50.6804 60.8501 52.0298 60.7039Z" fill="url(#paint8_linear)"/>
<path d="M68.372 60.0391C69.2723 60.0296 70.1724 60.0678 71.0685 60.1536C71.7943 60.2092 72.5028 60.4027 73.1561 60.7235C73.4818 60.885 73.7724 61.1094 74.0111 61.3836C74.2498 61.6578 74.4319 61.9766 74.5469 62.3215C73.4971 62.8988 72.0429 62.2776 71.0637 62.967C70.8627 63.1293 70.67 63.3016 70.4864 63.4834C69.6898 64.1751 68.5547 64.3067 67.5 64.3042C66.635 64.34 65.7717 64.2008 64.9618 63.895C64.214 63.5735 60.8574 61.0037 62.0388 60.1779C62.677 59.7321 64.0703 60.0098 64.7889 60.0147L68.372 60.0391Z" fill="url(#paint9_linear)"/>
<path d="M59.4495 63.1324L59.7223 62.1678L70.0893 61.7781L70.2501 63.0471L59.4495 63.1324Z" fill="#4183E4"/>
<path d="M59.4495 63.1324L59.7223 62.1678L70.0893 61.7781L70.2501 63.0471L59.4495 63.1324Z" fill="url(#paint10_linear)"/>
<path d="M89.8465 57.7102H60.8379L64.7231 37.0249H93.7317L89.8465 57.7102Z" fill="#4183E4"/>
<path d="M93.7268 37.0227L89.844 57.7104H60.8379L64.7182 37.0227H93.7268Z" fill="url(#paint11_linear)"/>
<path d="M93.7268 37.0227L89.844 57.7104H62.012L65.8923 37.0227H93.7268Z" fill="url(#paint12_linear)"/>
<path d="M74.6322 48.2543L78.1885 61.8756H70.2501L69.21 63.0472H83.6546L79.2311 47.0388L75.2606 46.9097L74.6322 48.2543Z" fill="#4183E4"/>
<path d="M74.6322 48.2543L78.1885 61.8756H70.2501L69.21 63.0472H83.6546L79.2311 47.0388L75.2606 46.9097L74.6322 48.2543Z" fill="url(#paint13_linear)"/>
<path d="M75.2606 46.9097L79.231 61.8756H70.25V63.0472H84.6971L80.2711 47.0388L75.2606 46.9097Z" fill="#4183E4"/>
<path d="M74.4543 105.548C74.4492 105.63 74.4279 105.709 74.3915 105.783C74.3551 105.856 74.3044 105.921 74.2423 105.974C72.1256 108.21 68.4645 108.118 65.6072 106.973C65.1079 106.768 64.5915 106.52 64.2773 106.084C63.9265 105.597 63.8802 104.949 63.851 104.337C63.6293 98.9955 63.6074 93.6196 62.6598 88.346C62.3456 86.5702 61.9291 84.814 61.7074 83.0212C61.4029 80.4514 61.5418 77.845 61.4395 75.2557C61.4534 75.0622 61.3934 74.8707 61.2714 74.7198C61.127 74.6094 60.9453 74.5596 60.7647 74.581C59.9975 74.5639 59.2399 74.5542 58.4726 74.5444C58.4531 79.9813 58.0926 85.1574 58.1949 90.5918C58.2583 93.717 57.5933 96.813 57.4179 99.9382C57.3702 100.484 57.3923 101.033 57.4837 101.573C57.8442 103.292 59.3958 104.457 60.3287 105.945C60.5888 106.314 60.7307 106.753 60.7355 107.204C60.6892 107.916 60.0437 108.469 59.3495 108.646C58.6553 108.824 57.927 108.663 57.2425 108.478C56.7264 108.358 56.2329 108.156 55.781 107.879C55.4239 107.622 55.1014 107.32 54.8213 106.98C54.2659 106.352 53.73 105.697 53.2209 105.032C53.011 104.782 52.8462 104.497 52.7337 104.191C52.4755 103.358 52.9773 102.508 53.333 101.714C54.1115 99.9718 54.283 98.0188 53.8201 96.1675C53.4337 94.8199 53.2224 93.4281 53.1917 92.0266C53.1624 87.3676 53.091 82.7086 52.9773 78.0496C49.4781 78.505 45.9414 78.6005 42.4228 78.3346C40.0551 78.169 37.5218 77.7524 35.8021 76.1155C33.946 74.3593 33.4637 71.597 33.4101 69.0516C33.3906 68.1454 33.4101 67.2027 33.8632 66.4257C37.2904 66.3989 41.9405 66.7692 45.3701 66.7399C46.1595 66.7058 46.9503 66.7589 47.728 66.8983C48.0717 66.9378 48.4174 66.9566 48.7633 66.9543C50.5001 67.0176 54.0686 67.1199 57.6274 67.8215C57.6425 67.8259 57.6585 67.8259 57.6736 67.8215C59.9487 68.2745 62.2141 68.9687 63.9874 70.0771C64.153 70.1794 64.3211 70.2817 64.4746 70.3913C64.7824 70.6076 65.0791 70.8393 65.3636 71.0855L65.3904 71.1123C66.5493 72.1298 67.2846 73.5447 67.4512 75.0779C67.4804 75.3556 67.5072 75.6795 67.5267 76.04C67.5462 76.4005 67.5535 76.8171 67.5535 77.258C67.5535 77.4139 67.5535 77.5819 67.5535 77.7573C67.5998 82.3854 67.2295 90.1802 67.6558 96.2455C67.8482 98.9249 68.4401 101.967 70.7152 103.426C71.8138 104.138 73.1827 104.379 74.1985 105.212C74.2616 105.248 74.3168 105.296 74.3607 105.354C74.4047 105.412 74.4365 105.478 74.4543 105.548Z" fill="#606161"/>
<path d="M74.4543 105.548C74.4492 105.63 74.4279 105.709 74.3915 105.783C74.3551 105.856 74.3044 105.921 74.2423 105.974C72.1256 108.21 68.4645 108.118 65.6072 106.973C65.1079 106.768 64.5915 106.52 64.2773 106.084C63.9265 105.597 63.8802 104.949 63.851 104.337C63.6293 98.9955 63.6074 93.6196 62.6598 88.346C62.3456 86.5702 61.9291 84.814 61.7074 83.0212C61.4029 80.4514 61.5418 77.845 61.4395 75.2557C61.4534 75.0622 61.3934 74.8707 61.2714 74.7198C61.127 74.6094 60.9453 74.5596 60.7647 74.581C59.9975 74.5639 59.2399 74.5542 58.4726 74.5444C58.4531 79.9813 58.0926 85.1574 58.1949 90.5918C58.2583 93.717 57.5933 96.813 57.4179 99.9382C57.3702 100.484 57.3923 101.033 57.4837 101.573C57.8442 103.292 59.3958 104.457 60.3287 105.945C60.5888 106.314 60.7307 106.753 60.7355 107.204C60.6892 107.916 60.0437 108.469 59.3495 108.646C58.6553 108.824 57.927 108.663 57.2425 108.478C56.7264 108.358 56.2329 108.156 55.781 107.879C55.4239 107.622 55.1014 107.32 54.8213 106.98C54.2659 106.352 53.73 105.697 53.2209 105.032C53.011 104.782 52.8462 104.497 52.7337 104.191C52.4755 103.358 52.9773 102.508 53.333 101.714C54.1115 99.9718 54.283 98.0188 53.8201 96.1675C53.4337 94.8199 53.2224 93.4281 53.1917 92.0266C53.1624 87.3676 53.091 82.7086 52.9773 78.0496C49.4781 78.505 45.9414 78.6005 42.4228 78.3346C40.0551 78.169 37.5218 77.7524 35.8021 76.1155C33.946 74.3593 33.4637 71.597 33.4101 69.0516C33.3906 68.1454 33.4101 67.2027 33.8632 66.4257C37.2904 66.3989 41.9405 66.7692 45.3701 66.7399C46.1595 66.7058 46.9503 66.7589 47.728 66.8983C48.0717 66.9378 48.4174 66.9566 48.7633 66.9543C50.5001 67.0176 54.0686 67.1199 57.6274 67.8215C57.6425 67.8259 57.6585 67.8259 57.6736 67.8215C59.9487 68.2745 62.2141 68.9687 63.9874 70.0771C64.153 70.1794 64.3211 70.2817 64.4746 70.3913C64.7824 70.6076 65.0791 70.8393 65.3636 71.0855L65.3904 71.1123C66.5493 72.1298 67.2846 73.5447 67.4512 75.0779C67.4804 75.3556 67.5072 75.6795 67.5267 76.04C67.5462 76.4005 67.5535 76.8171 67.5535 77.258C67.5535 77.4139 67.5535 77.5819 67.5535 77.7573C67.5998 82.3854 67.2295 90.1802 67.6558 96.2455C67.8482 98.9249 68.4401 101.967 70.7152 103.426C71.8138 104.138 73.1827 104.379 74.1985 105.212C74.2616 105.248 74.3168 105.296 74.3607 105.354C74.4047 105.412 74.4365 105.478 74.4543 105.548Z" fill="url(#paint14_linear)"/>
<path d="M74.4543 105.548C74.4492 105.63 74.4279 105.709 74.3915 105.783C74.3551 105.856 74.3044 105.921 74.2423 105.974C72.1256 108.21 68.4645 108.118 65.6072 106.973C65.1079 106.768 64.5915 106.52 64.2773 106.084C63.9265 105.597 63.8802 104.949 63.851 104.337C63.6293 98.9955 63.6074 93.6196 62.6599 88.346C62.3456 86.5702 61.9291 84.814 61.7074 83.0212C61.403 80.4514 61.5418 77.845 61.4395 75.2557C61.4535 75.0622 61.3934 74.8706 61.2714 74.7198C61.127 74.6094 60.9453 74.5596 60.7648 74.5809C59.9975 74.5639 59.2399 74.5542 58.4726 74.5444C58.4726 74.5444 58.5359 72.9367 57.9538 72.2255C57.3716 71.5142 46.9535 68.2502 46.9535 68.2502C46.9535 68.2502 46.2885 67.3708 48.7657 66.947C48.9411 66.9275 49.136 66.9007 49.3382 66.8715C50.8728 66.6888 54.2756 67.0395 57.6201 67.8141C57.6352 67.8185 57.6512 67.8185 57.6664 67.8141C60.0243 68.3695 62.3432 69.1368 63.9801 70.0697C64.1457 70.172 64.3138 70.2744 64.4673 70.384C64.7852 70.5863 65.083 70.8188 65.3563 71.0782L65.3831 71.105C65.5428 71.2647 65.6879 71.4383 65.8167 71.6238C66.7376 72.9316 67.3231 74.4456 67.5218 76.0327C67.5651 76.4372 67.5741 76.8446 67.5486 77.2506C67.5452 77.3715 67.533 77.492 67.5121 77.6112L67.5584 77.75C67.6046 82.3781 67.2344 90.1729 67.6607 96.2381C67.8531 98.9176 68.445 101.96 70.7201 103.419C71.8187 104.13 73.1876 104.371 74.2034 105.205C74.2663 105.242 74.321 105.291 74.3642 105.35C74.4073 105.409 74.438 105.477 74.4543 105.548Z" fill="url(#paint15_linear)"/>
<path d="M102.625 63.0886H40.3645V66.3843H102.625V63.0886Z" fill="#4183E4"/>
<path d="M55.2866 65.8242H50.6682V111.847H55.2866V65.8242Z" fill="#4183E4"/>
<path d="M102.64 63.0886H40.3645V64.1969H102.64V63.0886Z" fill="url(#paint16_linear)"/>
<path d="M74.2425 66.2139H55.937V69.5973H74.2425V66.2139Z" fill="#4183E4"/>
<path d="M74.2425 66.2139H55.937V67.9068H74.2425V66.2139Z" fill="url(#paint17_linear)"/>
<path d="M52.7314 41.9357C52.37 42.326 51.9069 42.6077 51.3941 42.7493C50.5806 42.9076 49.7913 42.4131 49.1556 41.8797C47.5915 40.5714 46.3573 38.9134 45.5529 37.0396C45.337 36.4727 45.0881 35.9188 44.8076 35.3808C44.4568 34.7767 43.9721 34.2408 43.7455 33.5807C43.519 32.9206 43.631 31.3397 44.2571 31.0328C44.4553 30.9564 44.6588 30.8946 44.866 30.8477C45.6211 30.6041 46.179 30.6674 46.6807 30.0512C47.7988 28.6773 49.1434 27.2621 50.9045 27.0599C52.0737 26.926 53.2283 27.362 54.2977 27.8516C55.367 28.3412 56.8529 29.128 57.3693 30.246C57.8857 31.3641 57.4521 32.9644 57.2036 34.0728C56.5335 37.0823 54.9756 39.8214 52.7314 41.9357Z" fill="url(#paint18_linear)"/>
<path d="M52.1978 29.3448C52.2246 30.0755 53.0284 30.5091 53.7446 30.6455C54.4607 30.7819 55.2597 30.7892 55.8126 31.2642C56.2413 31.632 56.5166 32.2654 57.0768 32.3311C57.3392 32.3477 57.5987 32.2689 57.8076 32.1095C58.6455 31.5468 58.989 30.4336 58.8477 29.43C58.7064 28.4264 58.1584 27.5349 57.5202 26.7506C55.2816 24.0273 51.679 22.4074 48.1714 22.7728C44.6637 23.1382 41.3997 25.6398 40.3425 29.0086C39.7823 30.799 39.8237 32.7184 39.4461 34.5575C39.0185 36.6315 38.0648 38.5608 36.6765 40.16C35.215 41.8285 33.2249 43.2681 32.8255 45.4458C32.5819 46.8391 33.0544 48.2884 33.8485 49.4649C34.6426 50.6414 35.7193 51.589 36.7862 52.5244C37.8482 50.7413 40.1647 50.2517 41.8747 49.0801C42.9087 48.3526 43.7302 47.3627 44.2547 46.2123C44.7791 45.062 44.9876 43.7926 44.8586 42.5349C44.6808 40.9784 44.7197 40.9199 44.8586 39.3683C44.9487 38.4427 45.6405 37.9677 45.5358 37.0445C45.4676 36.4526 44.1595 34.0265 43.9987 33.4516C43.7308 32.4968 44.0109 31.1254 45.2556 31.1302C46.2982 31.1302 46.9315 32.4651 47.2262 33.2787C48.2396 32.9157 52.2465 30.6333 52.1978 29.3448Z" fill="#606161"/>
<path d="M52.1978 29.3448C52.2246 30.0755 53.0284 30.5091 53.7446 30.6455C54.4607 30.7819 55.2597 30.7892 55.8126 31.2642C56.2413 31.632 56.5166 32.2654 57.0768 32.3311C57.3392 32.3477 57.5987 32.2689 57.8076 32.1095C58.6455 31.5468 58.989 30.4336 58.8477 29.43C58.7064 28.4264 58.1584 27.5349 57.5202 26.7506C55.2816 24.0273 51.679 22.4074 48.1714 22.7728C44.6637 23.1382 41.3997 25.6398 40.3425 29.0086C39.7823 30.799 39.8237 32.7184 39.4461 34.5575C39.0185 36.6315 38.0648 38.5608 36.6765 40.16C35.215 41.8285 33.2249 43.2681 32.8255 45.4458C32.5819 46.8391 33.0544 48.2884 33.8485 49.4649C34.6426 50.6414 35.7193 51.589 36.7862 52.5244C37.8482 50.7413 40.1647 50.2517 41.8747 49.0801C42.9087 48.3526 43.7302 47.3627 44.2547 46.2123C44.7791 45.062 44.9876 43.7926 44.8586 42.5349C44.6808 40.9784 44.7197 40.9199 44.8586 39.3683C44.9487 38.4427 45.6405 37.9677 45.5358 37.0445C45.4676 36.4526 44.1595 34.0265 43.9987 33.4516C43.7308 32.4968 44.0109 31.1254 45.2556 31.1302C46.2982 31.1302 46.9315 32.4651 47.2262 33.2787C48.2396 32.9157 52.2465 30.6333 52.1978 29.3448Z" fill="url(#paint19_linear)"/>
<path d="M114.52 17.1892L71.605 17.3091L71.64 29.8439L114.555 29.7241L114.52 17.1892Z" fill="white"/>
<path d="M79.8513 20.6892L74.6094 20.7102L74.6432 29.1455L79.8851 29.1245L79.8513 20.6892Z" fill="#4183E4"/>
<path d="M79.8513 20.6892L74.6094 20.7102L74.6432 29.1455L79.8851 29.1245L79.8513 20.6892Z" fill="url(#paint20_linear)"/>
<path d="M85.0591 20.6853L79.8171 20.7063L79.851 29.1416L85.0929 29.1206L85.0591 20.6853Z" fill="#4183E4"/>
<path d="M85.0591 20.6853L79.8171 20.7063L79.851 29.1416L85.0929 29.1206L85.0591 20.6853Z" fill="url(#paint21_linear)"/>
<path d="M90.2695 20.6789L85.0276 20.7L85.0614 29.1352L90.3034 29.1142L90.2695 20.6789Z" fill="#4183E4"/>
<path d="M90.2695 20.6789L85.0276 20.7L85.0614 29.1352L90.3034 29.1142L90.2695 20.6789Z" fill="url(#paint22_linear)"/>
<path d="M95.4773 20.675L90.2354 20.696L90.2692 29.1313L95.5111 29.1103L95.4773 20.675Z" fill="#4183E4"/>
<path d="M95.4773 20.675L90.2354 20.696L90.2692 29.1313L95.5111 29.1103L95.4773 20.675Z" fill="url(#paint23_linear)"/>
<path d="M100.685 20.6713L95.4431 20.6924L95.477 29.1277L100.719 29.1066L100.685 20.6713Z" fill="#3E7AD1"/>
<path d="M105.712 20.6355L100.47 20.6565L100.504 29.0918L105.746 29.0708L105.712 20.6355Z" fill="#4183E4"/>
<path d="M110.859 20.635L105.617 20.656L105.651 29.0913L110.893 29.0703L110.859 20.635Z" fill="#669CEB"/>
<path d="M53.7253 65.8242H49.1069V111.847H53.7253V65.8242Z" fill="#4183E4"/>
<path d="M53.7253 65.8242H49.1069V111.847H53.7253V65.8242Z" fill="url(#paint24_linear)"/>
<path d="M53.2479 60.5311L51.6865 55.4109L52.2492 55.1089L53.9835 60.5749L53.2479 60.5311Z" fill="#4183E4"/>
<path d="M53.2479 60.5311L51.6865 55.4109L52.2492 55.1089L53.9835 60.5749L53.2479 60.5311Z" fill="url(#paint25_linear)"/>
<path opacity="0.51" d="M26.5265 33.1399C33.296 33.1399 38.7837 27.6522 38.7837 20.8827C38.7837 14.1132 33.296 8.62549 26.5265 8.62549C19.757 8.62549 14.2693 14.1132 14.2693 20.8827C14.2693 27.6522 19.757 33.1399 26.5265 33.1399Z" fill="#4183E4"/>
<path opacity="0.51" d="M18.247 48.3687C25.0165 48.3687 30.5042 42.881 30.5042 36.1115C30.5042 29.342 25.0165 23.8542 18.247 23.8542C11.4775 23.8542 5.98975 29.342 5.98975 36.1115C5.98975 42.881 11.4775 48.3687 18.247 48.3687Z" fill="#4183E4"/>
<path d="M22.7849 35.7827L23.0114 40.1429L24.1198 38.5157L25.4619 40.5984L26.3096 40.0114L24.7701 38.0919L26.5264 37.7996L22.7849 35.7827Z" fill="white"/>
<path opacity="0.51" d="M30.6455 54.7605H8.78369V56.8432H30.6455V54.7605Z" fill="#4183E4"/>
<path opacity="0.51" d="M30.6455 56.7554H8.78369V58.838H30.6455V56.7554Z" fill="#4183E4"/>
<path opacity="0.51" d="M30.6455 56.7554H8.78369V58.838H30.6455V56.7554Z" fill="#4183E4"/>
</g>
<defs>
<linearGradient id="paint0_linear" x1="95.6148" y1="81.3966" x2="96.0508" y2="41.2611" gradientUnits="userSpaceOnUse">
<stop stop-color="#010101" stop-opacity="0"/>
<stop offset="0.95" stop-color="#010101"/>
</linearGradient>
<linearGradient id="paint1_linear" x1="-51.5136" y1="-2.13133" x2="115.058" y2="83.7569" gradientUnits="userSpaceOnUse">
<stop stop-color="white" stop-opacity="0"/>
<stop offset="0.07" stop-color="white" stop-opacity="0.22"/>
<stop offset="0.16" stop-color="white" stop-opacity="0.45"/>
<stop offset="0.25" stop-color="white" stop-opacity="0.65"/>
<stop offset="0.33" stop-color="white" stop-opacity="0.8"/>
<stop offset="0.4" stop-color="white" stop-opacity="0.91"/>
<stop offset="0.46" stop-color="white" stop-opacity="0.98"/>
<stop offset="0.51" stop-color="white"/>
</linearGradient>
<linearGradient id="paint2_linear" x1="5519.63" y1="15417.2" x2="9000.07" y2="8163.76" gradientUnits="userSpaceOnUse">
<stop stop-color="#010101" stop-opacity="0.18"/>
<stop offset="0.95" stop-color="#010101"/>
</linearGradient>
<linearGradient id="paint3_linear" x1="4965.23" y1="14530.9" x2="13222.3" y2="5140.62" gradientUnits="userSpaceOnUse">
<stop stop-color="#010101" stop-opacity="0"/>
<stop offset="0.95" stop-color="#010101"/>
</linearGradient>
<linearGradient id="paint4_linear" x1="3596.73" y1="4048.62" x2="2140.53" y2="4696.96" gradientUnits="userSpaceOnUse">
<stop stop-color="#010101" stop-opacity="0"/>
<stop offset="0.95" stop-color="#010101"/>
</linearGradient>
<linearGradient id="paint5_linear" x1="3834.99" y1="6472.65" x2="768.184" y2="6159.31" gradientUnits="userSpaceOnUse">
<stop stop-color="#010101" stop-opacity="0"/>
<stop offset="0.95" stop-color="#010101"/>
</linearGradient>
<linearGradient id="paint6_linear" x1="44.6503" y1="41.5823" x2="48.8712" y2="39.3408" gradientUnits="userSpaceOnUse">
<stop stop-color="#E4C5D5"/>
<stop offset="0.42" stop-color="#E9D3CF"/>
<stop offset="1" stop-color="#EFE8CA"/>
</linearGradient>
<linearGradient id="paint7_linear" x1="804.966" y1="1347.19" x2="1491.4" y2="791.716" gradientUnits="userSpaceOnUse">
<stop stop-color="#010101" stop-opacity="0"/>
<stop offset="0.95" stop-color="#010101"/>
</linearGradient>
<linearGradient id="paint8_linear" x1="2357" y1="994.846" x2="2902.59" y2="994.846" gradientUnits="userSpaceOnUse">
<stop stop-color="#E4C5D5"/>
<stop offset="0.42" stop-color="#E9D3CF"/>
<stop offset="1" stop-color="#EFE8CA"/>
</linearGradient>
<linearGradient id="paint9_linear" x1="3385.28" y1="1186.9" x2="4053.4" y2="1186.9" gradientUnits="userSpaceOnUse">
<stop stop-color="#E4C5D5"/>
<stop offset="0.42" stop-color="#E9D3CF"/>
<stop offset="1" stop-color="#EFE8CA"/>
</linearGradient>
<linearGradient id="paint10_linear" x1="2900.44" y1="393.439" x2="2902.49" y2="459.424" gradientUnits="userSpaceOnUse">
<stop stop-color="#010101" stop-opacity="0"/>
<stop offset="0.95" stop-color="#010101"/>
</linearGradient>
<linearGradient id="paint11_linear" x1="10332.7" y1="3459.19" x2="10964.6" y2="9351.7" gradientUnits="userSpaceOnUse">
<stop stop-color="#010101" stop-opacity="0"/>
<stop offset="0.95" stop-color="#010101"/>
</linearGradient>
<linearGradient id="paint12_linear" x1="10044.9" y1="3464.15" x2="10694.3" y2="9304.28" gradientUnits="userSpaceOnUse">
<stop stop-color="#010101" stop-opacity="0.22"/>
<stop offset="0.95" stop-color="#010101"/>
</linearGradient>
<linearGradient id="paint13_linear" x1="4300.05" y1="3604.43" x2="5757.3" y2="4214.06" gradientUnits="userSpaceOnUse">
<stop stop-color="#010101" stop-opacity="0.31"/>
<stop offset="0.95" stop-color="#010101"/>
</linearGradient>
<linearGradient id="paint14_linear" x1="10915.9" y1="13047.2" x2="6860.16" y2="18354.4" gradientUnits="userSpaceOnUse">
<stop stop-color="#010101" stop-opacity="0"/>
<stop offset="0.95" stop-color="#010101"/>
</linearGradient>
<linearGradient id="paint15_linear" x1="8115.7" y1="15367.2" x2="4330.72" y2="14271.1" gradientUnits="userSpaceOnUse">
<stop stop-color="#010101" stop-opacity="0"/>
<stop offset="0.95" stop-color="#010101"/>
</linearGradient>
<linearGradient id="paint16_linear" x1="18306.3" y1="346.174" x2="18306.3" y2="380.229" gradientUnits="userSpaceOnUse">
<stop stop-color="#010101" stop-opacity="0.26"/>
<stop offset="0.95" stop-color="#010101"/>
</linearGradient>
<linearGradient id="paint17_linear" x1="4931.97" y1="501.803" x2="4932.22" y2="559.81" gradientUnits="userSpaceOnUse">
<stop stop-color="#010101" stop-opacity="0.33"/>
<stop offset="0.95" stop-color="#010101"/>
</linearGradient>
<linearGradient id="paint18_linear" x1="2642.43" y1="2314.94" x2="3443.81" y2="2314.94" gradientUnits="userSpaceOnUse">
<stop stop-color="#E4C5D5"/>
<stop offset="0.42" stop-color="#E9D3CF"/>
<stop offset="1" stop-color="#EFE8CA"/>
</linearGradient>
<linearGradient id="paint19_linear" x1="4428.31" y1="4497.59" x2="5991.68" y2="4965.3" gradientUnits="userSpaceOnUse">
<stop stop-color="#010101" stop-opacity="0"/>
<stop offset="0.95" stop-color="#010101"/>
</linearGradient>
<linearGradient id="paint20_linear" x1="257.133" y1="1802.73" x2="814.917" y2="1936.19" gradientUnits="userSpaceOnUse">
<stop stop-color="#010101" stop-opacity="0.55"/>
<stop offset="0.95" stop-color="#010101"/>
</linearGradient>
<linearGradient id="paint21_linear" x1="388.739" y1="1773.21" x2="1172.08" y2="1971.17" gradientUnits="userSpaceOnUse">
<stop stop-color="#010101" stop-opacity="0.5"/>
<stop offset="0.95" stop-color="#010101"/>
</linearGradient>
<linearGradient id="paint22_linear" x1="526.809" y1="1759.53" x2="1942.06" y2="1939.92" gradientUnits="userSpaceOnUse">
<stop stop-color="#010101" stop-opacity="0.45"/>
<stop offset="0.95" stop-color="#010101"/>
</linearGradient>
<linearGradient id="paint23_linear" x1="90.6495" y1="25.0625" x2="170.806" y2="19.5156" gradientUnits="userSpaceOnUse">
<stop stop-color="#010101" stop-opacity="0.4"/>
<stop offset="0.36" stop-color="#010101" stop-opacity="0.36"/>
<stop offset="0.95" stop-color="#010101"/>
</linearGradient>
<linearGradient id="paint24_linear" x1="766.249" y1="18542.7" x2="2605.51" y2="18421.1" gradientUnits="userSpaceOnUse">
<stop stop-color="#010101" stop-opacity="0"/>
<stop offset="0.95" stop-color="#010101"/>
</linearGradient>
<linearGradient id="paint25_linear" x1="539.089" y1="1353.08" x2="560.75" y2="1353.08" gradientUnits="userSpaceOnUse">
<stop stop-color="#010101" stop-opacity="0"/>
<stop offset="0.95" stop-color="#010101"/>
</linearGradient>
<clipPath id="clip0">
<rect width="133.582" height="120" fill="white"/>
</clipPath>
</defs>
</svg>
