<svg width="164" height="120" viewBox="0 0 164 120" fill="none" xmlns="http://www.w3.org/2000/svg">
<g clip-path="url(#clip0)">
<path opacity="0.18" d="M118.836 46.5634C122.231 52.0004 124.133 58.6839 129.279 62.4644C136.504 67.7538 147.468 65.3346 154.48 70.8988C157.719 73.4697 159.576 77.3691 161.069 81.2234C163.246 86.8572 164.821 93.3726 162.102 98.7645C158.961 104.993 151.351 107.375 144.471 108.409C134.942 109.864 125.199 109.999 115.855 112.398C112.127 113.358 108.474 114.67 104.706 115.371C100.938 116.072 97.149 116.142 93.3521 116.076C75.0011 115.751 56.8668 112.051 39.8552 105.161C26.2708 99.6543 12.9366 91.5726 5.63799 78.8575C0.870209 70.4942 -0.947922 60.771 0.475681 51.25C1.27114 46.0426 3.07118 40.9295 6.13823 36.657C10.4395 30.6787 17.0246 26.5784 24.0115 24.2248C30.9985 21.8712 38.4242 21.1004 45.7924 20.7108C61.0005 19.8908 80.19 18.5254 94.2746 25.2212C98.4734 27.2221 101.557 29.9489 104.935 33.0405C109.782 37.4524 115.301 40.9295 118.836 46.5634Z" fill="#4183E4"/>
<path opacity="0.43" d="M99.8552 0H31.8636C29.3681 0 27.3451 2.02303 27.3451 4.51855V112.751C27.3451 115.246 29.3681 117.269 31.8636 117.269H99.8552C102.351 117.269 104.374 115.246 104.374 112.751V4.51855C104.374 2.02303 102.351 0 99.8552 0Z" fill="#4183E4"/>
<path opacity="0.34" d="M102.369 80.3868L102.881 88.2389C101.853 87.8494 100.911 87.2646 100.105 86.5168C95.6563 82.7281 92.6467 77.574 89.7846 72.5019C87.3518 68.1747 84.9695 63.8243 82.6378 59.4506C81.7849 57.8556 80.8993 56.2031 79.4764 55.0837C80.8172 54.3252 82.4943 53.8946 83.8884 54.5507C85.59 55.3503 86.2297 57.3758 87.1153 59.0323C88.0379 60.7586 89.3623 62.2306 90.5391 63.7928C92.0619 65.8138 93.3431 68.006 94.3565 70.3246C94.5306 70.7903 94.7739 71.2271 95.0782 71.6203C95.5474 72.0786 96.1056 72.4358 96.7183 72.67C98.5765 73.5356 100.381 74.5118 102.123 75.5935C102.736 75.9375 103.289 76.3778 103.763 76.8975C104.338 77.6134 104.611 78.5253 104.525 79.4397C104.386 81.0511 103.619 80.2925 102.369 80.3868Z" fill="#4183E4"/>
<path opacity="0.34" d="M40.8556 77.2663C40.097 77.4344 39.2851 77.6395 38.8054 78.234C38.3257 78.8286 38.3954 79.9438 39.1334 80.1776C39.3455 80.2274 39.5637 80.2468 39.7813 80.235C42.9385 80.3047 44.9149 83.9499 47.9819 84.651C49.0909 84.8491 50.2296 84.8043 51.3196 84.5198C52.2933 84.368 53.2184 83.9917 54.0217 83.4209C54.5793 82.9699 55.1206 82.3138 55.834 82.3835C56.6541 82.4614 57.0313 83.4127 57.2158 84.2123C58.8847 91.478 58.4459 99.039 57.9662 106.481C57.8104 108.941 57.7571 111.508 57.712 113.981C57.712 114.854 57.712 115.805 58.2409 116.498C58.9913 117.462 60.4059 117.507 61.6278 117.462C62.415 117.429 63.2925 117.359 63.8338 116.781C64.375 116.203 64.3832 115.408 64.3873 114.657C64.4365 106.809 64.1249 98.9721 63.4524 91.1459C63.272 89.0753 63.7887 84.0442 63.764 81.9653C63.7435 79.7757 64.4775 76.393 64.8588 74.2362C65.8183 68.7664 66.7737 67.729 67.5937 62.2387C68.3442 62.7835 69.1917 63.1802 70.0908 63.4072C71.0011 63.5754 72.0508 63.3252 72.5756 62.5626C72.8938 61.9953 73.0485 61.3509 73.0226 60.701C73.0971 59.0269 73.0752 57.3498 72.957 55.6781C72.9586 55.2842 72.8643 54.8958 72.6822 54.5465C72.409 54.1803 72.0402 53.8965 71.6162 53.7264L66.0971 50.9792C65.518 50.6265 64.8596 50.4249 64.1823 50.3928C63.4323 50.4769 62.7364 50.8241 62.2182 51.3728C59.2045 54.1897 59.1881 58.8436 58.7781 62.948C58.4336 66.4005 57.6259 69.8939 55.7233 72.7888C53.8208 75.6836 50.6758 77.9306 47.2069 78.0782C45.058 78.1969 42.9055 77.9218 40.8556 77.2663Z" fill="#4183E4"/>
<path d="M53.4969 11.6531V32.1793C53.4969 32.7916 53.2537 33.3787 52.8208 33.8117C52.3879 34.2446 51.8007 34.4878 51.1884 34.4878H36.1198C35.5075 34.4878 34.9203 34.2446 34.4874 33.8117C34.0545 33.3787 33.8113 32.7916 33.8113 32.1793V11.6531C33.8156 11.0433 34.0606 10.4599 34.4929 10.0299C34.9253 9.59987 35.51 9.358 36.1198 9.35693H51.1884C51.7982 9.358 52.3829 9.59987 52.8153 10.0299C53.2476 10.4599 53.4926 11.0433 53.4969 11.6531Z" fill="#4183E4"/>
<path d="M52.4964 81.7112C52.2422 82.0905 51.8812 82.3859 51.459 82.56C51.0344 82.6507 50.5925 82.6151 50.1879 82.4575C47.0553 81.5144 44.2267 79.7621 41.9873 77.3772C42.2759 76.7364 42.6541 76.14 43.1108 75.6059C44.5668 76.1962 46.113 76.5332 47.6827 76.6022C47.8964 76.63 48.1135 76.5929 48.3059 76.4956C48.4363 76.3955 48.5416 76.2663 48.6134 76.1184C49.3515 74.8637 50.0349 73.5789 50.6636 72.2641C51.4836 70.5215 52.3037 68.6189 53.9438 67.5979C54.0892 67.4904 54.2634 67.4289 54.4441 67.4216C54.6312 67.4456 54.8075 67.5224 54.9525 67.643C56.1826 68.4631 57.5603 69.4062 58.1262 70.8495C58.6141 72.0796 58.0852 72.8669 57.4496 73.9206C55.8218 76.5735 54.4646 79.2716 52.4964 81.7112Z" fill="#4183E4"/>
<path d="M58.5895 93.9425C57.4578 93.6227 56.6746 92.5361 56.3712 91.3962C56.0678 90.2563 55.6004 86.8858 55.6742 85.7173C56.0273 80.1117 55.8818 74.4858 55.2395 68.9059C55.2026 68.5943 62.1322 66.7738 62.7841 67.1879C64.3381 68.172 63.0629 72.953 62.8169 74.4947C61.8698 80.4073 60.5043 88.28 58.5895 93.9425Z" fill="#4183E4"/>
<path d="M95.0332 14.3716H60.5413V16.6719H95.0332V14.3716Z" fill="#4183E4"/>
<path d="M85.6762 20.2637H60.5413V22.564H85.6762V20.2637Z" fill="#4183E4"/>
<path d="M95.0332 25.5818H60.5413V27.8821H95.0332V25.5818Z" fill="#4183E4"/>
<path d="M91.06 31.4741H60.5413V33.7744H91.06V31.4741Z" fill="#4183E4"/>
<path d="M94.9634 38.7317H34.0286V41.032H94.9634V38.7317Z" fill="#4183E4"/>
<path d="M81.826 44.6238H34.0286V46.9241H81.826V44.6238Z" fill="#4183E4"/>
<path d="M94.9634 49.9377H34.0286V52.238H94.9634V49.9377Z" fill="#4183E4"/>
<path d="M87.7223 55.8301H34.0286V58.1304H87.7223V55.8301Z" fill="#4183E4"/>
<path d="M105.759 85.9346L102.889 87.3738L82.1252 54.2678C83.3553 53.6774 83.9868 53.4478 84.9955 52.5703L105.759 85.9346Z" fill="#4183E4"/>
<path d="M105.776 86.1109L102.906 87.5501L82.1581 54.4605C83.3882 53.8741 84.0196 53.6404 85.0283 52.7629L105.776 86.1109Z" fill="url(#paint0_linear)"/>
<path d="M75.9748 26.2256C73.0336 26.2256 70.1584 27.0977 67.7128 28.7317C65.2673 30.3656 63.3611 32.688 62.2354 35.4053C61.1096 38.1225 60.8149 41.1126 61.3884 43.9973C61.9619 46.8821 63.3779 49.532 65.4573 51.612C67.5368 53.692 70.1863 55.1088 73.0709 55.6831C75.9555 56.2574 78.9456 55.9634 81.6632 54.8384C84.3807 53.7135 86.7037 51.8079 88.3383 49.3628C89.9729 46.9177 90.8458 44.0428 90.8466 41.1016C90.8466 37.1569 89.2799 33.3738 86.491 30.5841C83.7021 27.7944 79.9194 26.2267 75.9748 26.2256ZM75.6755 53.2549C73.2732 53.2557 70.9246 52.5441 68.9268 51.2101C66.929 49.876 65.3717 47.9795 64.4519 45.7603C63.532 43.5412 63.2909 41.0991 63.7591 38.7429C64.2272 36.3867 65.3836 34.2222 67.082 32.5233C68.7804 30.8243 70.9444 29.6672 73.3004 29.1983C75.6565 28.7293 78.0987 28.9696 80.3182 29.8887C82.5376 30.8078 84.4347 32.3645 85.7694 34.3618C87.1041 36.3592 87.8165 38.7075 87.8165 41.1098C87.8165 44.3273 86.5397 47.4134 84.2665 49.6904C81.9933 51.9675 78.9094 53.2495 75.6919 53.2549H75.6755Z" fill="#4183E4"/>
<path d="M75.9748 26.2256C73.0336 26.2256 70.1584 27.0977 67.7128 28.7317C65.2673 30.3656 63.3611 32.688 62.2354 35.4053C61.1096 38.1225 60.8149 41.1126 61.3884 43.9973C61.9619 46.8821 63.3779 49.532 65.4573 51.612C67.5368 53.692 70.1863 55.1088 73.0709 55.6831C75.9555 56.2574 78.9456 55.9634 81.6632 54.8384C84.3807 53.7135 86.7037 51.8079 88.3383 49.3628C89.9729 46.9177 90.8458 44.0428 90.8466 41.1016C90.8466 37.1569 89.2799 33.3738 86.491 30.5841C83.7021 27.7944 79.9194 26.2267 75.9748 26.2256ZM75.6755 53.2549C73.2732 53.2557 70.9246 52.5441 68.9268 51.2101C66.929 49.876 65.3717 47.9795 64.4519 45.7603C63.532 43.5412 63.2909 41.0991 63.7591 38.7429C64.2272 36.3867 65.3836 34.2222 67.082 32.5233C68.7804 30.8243 70.9444 29.6672 73.3004 29.1983C75.6565 28.7293 78.0987 28.9696 80.3182 29.8887C82.5376 30.8078 84.4347 32.3645 85.7694 34.3618C87.1041 36.3592 87.8165 38.7075 87.8165 41.1098C87.8165 44.3273 86.5397 47.4134 84.2665 49.6904C81.9933 51.9675 78.9094 53.2495 75.6919 53.2549H75.6755Z" fill="url(#paint1_linear)"/>
<path opacity="0.53" d="M87.833 41.1098C87.8338 43.5122 87.1221 45.8609 85.7879 47.8588C84.4537 49.8567 82.5569 51.414 80.3375 52.3338C78.1181 53.2535 75.6758 53.4944 73.3195 53.0259C70.9632 52.5574 68.7987 51.4006 67.1 49.7018C65.4012 48.003 64.2444 45.8386 63.7759 43.4823C63.3074 41.126 63.5483 38.6837 64.468 36.4643C65.3878 34.2449 66.9451 32.3481 68.943 31.0139C70.9408 29.6797 73.2895 28.9679 75.692 28.9688C78.9116 28.9698 81.9991 30.2493 84.2758 32.526C86.5524 34.8026 87.8319 37.8901 87.833 41.1098Z" fill="white" stroke="#4183E4" stroke-width="0.62" stroke-miterlimit="10"/>
<path d="M110.754 62.858C110.573 62.9031 110.344 62.9318 110.266 63.0917C110.216 63.202 110.2 63.3249 110.221 63.4443L110.418 65.72C110.423 66.0849 110.512 66.4438 110.676 66.7697C111.033 67.3601 111.803 67.5201 112.488 67.5898C113.173 67.6595 113.94 67.7743 114.374 68.3114C114.608 68.5984 114.727 68.9962 115.047 69.1807C115.345 69.3033 115.678 69.3178 115.986 69.2217C116.199 69.2025 116.402 69.1197 116.568 68.9839C116.668 68.8482 116.726 68.6857 116.734 68.5171C116.742 68.3485 116.7 68.1813 116.613 68.0367C116.438 67.7613 116.286 67.4719 116.158 67.1715C115.99 66.5401 116.363 65.9127 116.568 65.2977C116.799 64.6737 116.851 63.9976 116.719 63.3456C116.586 62.6936 116.274 62.0915 115.818 61.6074C115.423 61.2381 114.931 60.9878 114.4 60.8856C113.869 60.7833 113.32 60.8331 112.816 61.0292C111.881 61.386 111.82 62.6038 110.754 62.858Z" fill="url(#paint2_linear)"/>
<path d="M112.398 59.0036C112.367 58.9688 112.329 58.9415 112.286 58.9239C112.243 58.9063 112.196 58.8988 112.15 58.9019C112.104 58.9051 112.059 58.9189 112.018 58.9422C111.978 58.9655 111.944 58.9977 111.918 59.0364C111.879 59.1193 111.863 59.2116 111.873 59.3029C111.925 59.9104 112.212 60.4737 112.673 60.8733C113.131 61.267 113.63 61.6107 114.161 61.8984C114.5 62.0693 114.792 62.3214 115.01 62.6324C115.24 63.1426 115.27 63.7211 115.092 64.252C115.063 64.3791 115.047 64.5472 115.166 64.6087C115.285 64.6702 115.457 64.5103 115.621 64.4775C115.713 64.473 115.804 64.5047 115.874 64.5659C115.944 64.6271 115.987 64.7131 115.994 64.8055C116 64.9939 115.942 65.1788 115.83 65.3304C115.744 65.4993 115.614 65.6412 115.453 65.7404C115.395 65.765 115.33 65.7937 115.317 65.8552C115.305 65.9167 115.354 65.9577 115.395 65.9946C115.588 66.171 115.785 66.3432 115.986 66.5072C116.098 66.6173 116.241 66.6915 116.396 66.7204C116.511 66.7092 116.622 66.6738 116.722 66.6165C116.823 66.5593 116.91 66.4815 116.978 66.3883L118.261 65.0434C118.389 64.9318 118.487 64.7912 118.548 64.6333C118.581 64.4917 118.581 64.3445 118.548 64.2028C118.529 63.9845 118.457 63.7742 118.339 63.59C118.22 63.4057 118.058 63.253 117.868 63.1449C118.015 62.9776 118.127 62.7826 118.197 62.5713C118.268 62.3601 118.295 62.1368 118.278 61.9148C118.267 61.5467 118.179 61.1851 118.018 60.8536C117.858 60.5221 117.629 60.2284 117.347 59.9918C116.788 59.608 116.187 59.2902 115.555 59.0446C114.831 58.6823 114.186 58.1806 113.657 57.5685C113.569 57.4393 113.447 57.3372 113.304 57.2733C112.997 57.1707 112.66 57.4865 112.521 57.7407C112.359 58.1409 112.316 58.5796 112.398 59.0036Z" fill="#3E3E54"/>
<path d="M108.777 73.7319C108.499 73.9446 108.183 74.1031 107.847 74.1994C107.48 74.2554 107.107 74.2457 106.744 74.1707C104.05 73.7606 101.372 73.2194 98.7276 72.5552C98.6269 72.5133 98.5179 72.4952 98.4091 72.5024C98.3003 72.5095 98.1946 72.5416 98.1002 72.5962C98.0067 72.6982 97.9441 72.8248 97.9198 72.9611L97.3745 75.0112C97.3317 75.0918 97.3085 75.1813 97.307 75.2725C97.3054 75.3637 97.3254 75.454 97.3654 75.5359C97.4054 75.6179 97.4642 75.6893 97.537 75.7442C97.6099 75.7991 97.6947 75.8359 97.7845 75.8518C100.111 76.9042 102.448 77.9279 104.796 78.9229C105.548 79.3003 106.368 79.5247 107.207 79.5831C107.857 79.5567 108.498 79.418 109.101 79.1731C111.178 78.4294 113.139 77.3969 114.928 76.106L120.172 81.338C121.066 82.2319 122.083 83.1791 123.346 83.2488C124.086 83.2382 124.815 83.0661 125.482 82.7444C126.986 82.1513 128.481 81.5376 129.968 80.9034C130.227 80.83 130.45 80.6617 130.591 80.4319C130.653 80.2483 130.653 80.0496 130.591 79.866C130.373 79.1695 129.989 78.5363 129.472 78.0209C126.606 74.7147 123.376 71.7423 119.844 69.1601C119.143 68.6475 118.286 68.012 117.413 67.8357C116.671 67.684 115.797 68.2211 115.162 68.5819C113.649 69.4471 112.378 70.669 111.082 71.8171C110.353 72.5009 109.583 73.1404 108.777 73.7319Z" fill="#4183E4"/>
<path d="M109.475 109.495C109.382 109.647 109.328 109.819 109.318 109.996C109.308 110.174 109.342 110.351 109.417 110.512C109.594 110.704 109.838 110.82 110.098 110.836C111.02 110.996 111.961 111.02 112.89 110.906C113.739 108.245 115.285 105.866 116.81 103.525C119.106 99.9933 121.404 96.4657 123.703 92.9421C126.356 88.8664 129.033 84.7415 130.628 80.145C130.534 80.4197 126.675 81.1947 126.159 81.3751C125.015 81.7851 123.436 82.2485 122.436 82.966C120.287 84.516 118.963 88.4031 117.79 90.7239C114.707 96.8456 112.091 103.172 109.475 109.495Z" fill="#3E3E54"/>
<path d="M109.475 109.495C109.382 109.647 109.328 109.819 109.318 109.996C109.308 110.174 109.342 110.351 109.417 110.512C109.594 110.704 109.838 110.82 110.098 110.836C111.02 110.996 111.961 111.02 112.89 110.906C113.739 108.245 115.285 105.866 116.81 103.525C119.106 99.9933 121.404 96.4657 123.703 92.9421C126.356 88.8664 129.033 84.7415 130.628 80.145C130.534 80.4197 126.675 81.1947 126.159 81.3751C125.015 81.7851 123.436 82.2485 122.436 82.966C120.287 84.516 118.963 88.4031 117.79 90.7239C114.707 96.8456 112.091 103.172 109.475 109.495Z" fill="url(#paint3_linear)"/>
<path d="M123.768 95.2464C123.764 95.8103 123.902 96.3662 124.17 96.8624C124.438 97.3585 124.827 97.7787 125.302 98.0838C129.103 101.274 133.133 104.181 137.16 107.105C138.261 106.691 139.203 105.939 139.85 104.956C136.728 102.751 133.79 100.298 131.063 97.6205C130.411 97.0013 129.726 96.3125 129.591 95.4268C129.48 94.7052 129.759 93.9876 130.001 93.2947C130.866 90.7156 131.182 87.9929 131.493 85.2908C131.665 83.7942 131.821 82.2033 131.153 80.8543C131.038 80.5856 130.852 80.3531 130.616 80.1818C130.165 79.8948 129.578 79.9973 129.062 80.1285C127.453 80.5024 125.888 81.0425 124.391 81.7399C123.161 82.3509 123.133 82.8798 123.161 84.2001C123.215 87.874 123.366 91.5602 123.768 95.2464Z" fill="#3E3E54"/>
<path d="M109.93 110.45C108.9 110.754 108.08 111.508 107.297 112.238C107.051 112.468 106.785 112.825 106.973 113.103C107.036 113.174 107.112 113.231 107.197 113.271C107.283 113.311 107.375 113.334 107.469 113.337C108.346 113.48 109.237 113.518 110.122 113.452C110.655 113.434 111.177 113.294 111.648 113.042C111.881 112.914 112.076 112.726 112.211 112.498C112.347 112.269 112.419 112.008 112.419 111.742C112.38 111.459 112.256 111.194 112.063 110.983C111.871 110.772 111.619 110.625 111.34 110.561C110.777 110.445 110.192 110.523 109.68 110.783" fill="#3E3E54"/>
<path d="M136.27 107.564C135.86 107.949 135.413 108.519 135.659 109.036C135.758 109.197 135.9 109.327 136.069 109.413C136.237 109.499 136.426 109.537 136.615 109.524C137.219 109.464 137.798 109.254 138.3 108.913C139.53 108.22 140.834 107.58 141.99 106.776C140.608 103.513 138.009 105.96 136.27 107.564Z" fill="#3E3E54"/>
<path d="M94.7338 70.5746C94.6185 70.4768 94.4884 70.3979 94.3484 70.3409C94.2497 70.3073 94.1448 70.2961 94.0412 70.3082C93.9376 70.3202 93.8381 70.3552 93.7498 70.4106C93.5909 70.5341 93.4709 70.7006 93.4041 70.8904C93.3372 71.0801 93.3262 71.285 93.3725 71.4808C93.4299 71.8908 93.6103 72.2517 93.6882 72.6453C93.7037 73.0418 93.8148 73.4287 94.0122 73.7729C94.3321 74.056 94.7499 74.2031 95.1767 74.1829C96.0992 74.2649 97.9403 74.5561 97.4851 72.9528C97.2145 72.0016 95.4801 71.1487 94.7338 70.5746Z" fill="url(#paint4_linear)"/>
<path d="M50.1756 34.4877H36.825C36.0295 33.4544 37.2719 29.5345 37.7025 28.5094C37.887 28.0707 40.708 23.9991 40.8597 24.2779C39.9904 22.7813 39.0884 21.1822 39.1417 19.4477C39.2032 17.2787 40.872 15.3474 42.9304 14.6545C45.1897 13.9082 48.1132 14.8677 48.8389 17.1147C49.0574 17.903 49.0883 18.7315 48.9291 19.5338C48.5989 21.5032 47.6697 23.323 46.268 24.7454C48.4002 25.4137 49.372 27.837 49.9173 30.002C50.2166 31.2362 50.4791 33.2494 50.1756 34.4877Z" fill="url(#paint5_linear)"/>
<path d="M65.232 46.752C65.232 47.2194 65.1951 47.7442 64.822 48.0477C64.6615 48.1653 64.4714 48.236 64.273 48.2519C64.0746 48.2679 63.8757 48.2284 63.6985 48.1379C63.346 47.9526 63.0467 47.6802 62.8292 47.3465C62.5591 46.9838 62.3359 46.5884 62.165 46.1697C61.9381 45.6124 61.8387 45.0114 61.8739 44.4107C61.8866 44.1035 61.962 43.8021 62.0953 43.525C62.2544 43.2453 62.4873 43.0148 62.7687 42.8586C63.05 42.7024 63.3688 42.6265 63.6903 42.6393C64.3422 42.6639 65.2607 43.0904 65.2484 43.8161C65.2484 44.792 65.2443 45.772 65.232 46.752Z" fill="url(#paint6_linear)"/>
<path d="M64.0388 49.5894C63.9527 49.8723 63.9076 50.2495 64.1659 50.3889C64.2781 50.4377 64.4011 50.4561 64.5226 50.4422C64.8617 50.421 65.2014 50.4717 65.5194 50.5912C65.8374 50.7106 66.1265 50.896 66.3678 51.1352C66.7161 51.5692 66.921 52.1008 66.9541 52.6564C67.0074 53.2017 66.9869 53.7553 67.0648 54.2965C67.1878 55.1166 69.115 56.4738 69.2544 56.1007C69.5741 55.1982 69.6725 54.2322 69.5414 53.2837C69.4963 52.9557 69.4635 52.5498 69.7382 52.3776C69.9004 52.2996 70.0851 52.2822 70.259 52.3284C70.7956 52.4116 71.315 52.5819 71.7966 52.8327C71.5998 53.3165 72.5101 57.6219 72.4363 58.6798C72.1492 62.8457 67.0115 59.4998 66.1382 59.0201C65.8962 58.893 65.6297 58.6388 65.7281 58.3886C65.519 59.9509 65.232 61.6156 65.0229 63.1778C64.8425 64.5145 64.6374 65.9168 63.842 67.0075C63.1882 67.8276 62.3257 68.4565 61.3449 68.8281C59.1635 69.7506 56.4983 69.8285 54.5589 68.4754C54.1588 68.2269 53.8375 67.8701 53.6322 67.4463C53.4907 67.0299 53.4403 66.588 53.4846 66.1506C53.5763 63.3584 53.9388 60.5818 54.567 57.8597C55.055 55.7357 55.7971 53.5257 57.4578 52.1193C59.0405 50.7989 61.9804 49.8231 64.0388 49.5894Z" fill="white"/>
<path d="M61.9066 37.5548C61.237 37.5504 60.5738 37.6852 59.959 37.9506C59.3442 38.216 58.7913 38.6062 58.3352 39.0965C57.4287 40.0856 56.7387 41.2531 56.3097 42.5244C55.8996 43.6315 55.5634 44.8001 54.8581 45.7513C53.9069 47.0388 52.398 47.7605 51.0448 48.6216C49.6917 49.4826 48.3632 50.6717 48.1746 52.279C48.0721 53.1647 48.3509 54.0627 48.2443 54.9442C48.1131 56.0185 47.4243 57.1092 47.8589 58.1056C48.0273 58.4649 48.2893 58.7723 48.6175 58.9954C49.2843 59.4683 50.0817 59.7224 50.8993 59.7224C51.7169 59.7224 52.5142 59.4683 53.1811 58.9954C54.5916 57.9457 55.1329 56.0554 56.4368 54.8745C57.8678 53.5788 59.963 53.3369 61.5786 52.2872C62.4383 51.7186 63.1387 50.9401 63.6137 50.0253C64.0887 49.1105 64.3225 48.0897 64.293 47.0593C64.2643 46.3008 64.088 45.5258 64.293 44.796C64.498 44.0661 65.0188 43.5331 65.1951 42.8319C65.4165 41.9708 65.0475 40.3717 64.7522 39.527C64.3668 38.3544 63.0957 37.6163 61.9066 37.5548Z" fill="#3E3E54"/>
<path d="M69.5045 51.3689C69.3729 51.2008 69.2755 51.0086 69.2175 50.8031C69.1895 50.6998 69.203 50.5897 69.2551 50.4962C69.3072 50.4027 69.3938 50.3334 69.4963 50.3028C69.5942 50.3057 69.692 50.296 69.7875 50.2741C69.8396 50.2486 69.8857 50.2122 69.9228 50.1675C70.0061 50.0953 70.1048 50.0429 70.2114 50.0145C70.3179 49.9861 70.4296 49.9823 70.5378 50.0035C70.6467 50.0285 70.7483 50.0786 70.8344 50.1498C70.9206 50.221 70.9889 50.3113 71.034 50.4136C71.0967 50.4052 71.1605 50.4138 71.2189 50.4383C71.2773 50.4628 71.3281 50.5023 71.3661 50.553C71.4398 50.6548 71.4877 50.773 71.5055 50.8974C71.5125 50.9734 71.5378 51.0466 71.5793 51.1106C71.6162 51.1598 71.6736 51.1844 71.7146 51.2295C71.7536 51.2895 71.7795 51.357 71.7908 51.4276C71.8021 51.4982 71.7985 51.5704 71.7802 51.6395L71.6695 52.4883C71.6677 52.5211 71.6593 52.5531 71.6449 52.5826C71.5875 52.681 71.4399 52.6605 71.3292 52.6277C71.0362 52.5457 70.735 52.4962 70.4312 52.4801C69.7137 52.4473 69.8244 51.8979 69.5045 51.3689Z" fill="url(#paint7_linear)"/>
<path d="M56.2278 95.0535C56.2148 95.2277 56.24 95.4026 56.3016 95.5661C56.5025 96.0171 57.1216 96.1278 57.6711 96.1565C58.7387 96.2106 59.8089 96.1886 60.8734 96.0909C61.119 96.093 61.3583 96.0137 61.5541 95.8654C61.652 95.7476 61.7006 95.5966 61.6899 95.4438C61.6792 95.2911 61.61 95.1483 61.4967 95.0453C61.2565 94.8274 60.9686 94.6687 60.6561 94.582C60.3431 94.4959 60.0522 94.3435 59.8032 94.135C59.5527 93.8558 59.423 93.4887 59.4424 93.1141C59.4424 92.745 59.4916 92.3801 59.4424 92.0152C59.4426 91.9832 59.4357 91.9515 59.4223 91.9224C59.4088 91.8934 59.3891 91.8676 59.3645 91.8471C59.3183 91.8213 59.2655 91.8099 59.2128 91.8143C58.528 91.7938 56.8387 91.5108 56.3426 92.0808C55.8464 92.6507 56.236 94.3565 56.2278 95.0535Z" fill="#3E3E54"/>
<path d="M41.0074 73.8714C40.8463 73.7645 40.6623 73.697 40.4703 73.6746C40.2049 73.6965 39.9549 73.8078 39.7609 73.9903C38.8763 74.679 38.1127 75.5105 37.5017 76.4505C37.1654 76.9589 36.8579 77.6273 37.0916 78.2095C37.9814 78.4104 38.9286 78.6195 39.7691 78.2095C40.0476 78.042 40.3366 77.8927 40.6343 77.7626C40.8111 77.7063 40.9977 77.6879 41.182 77.7084C41.3664 77.7288 41.5444 77.7878 41.7045 77.8815C42.012 78.0578 42.3031 78.3694 42.6435 78.3243C42.8617 78.2689 43.0534 78.1382 43.1847 77.9553C43.6685 77.373 44.2508 76.1553 43.7833 75.4295C43.3159 74.7037 41.6758 74.2445 41.0074 73.8714Z" fill="#3E3E54"/>
<path d="M50.4093 96.3206L61.5499 96.1401V119.996H27.9191V110.942H35.5375V105.05H46.0261V96.2837L50.4093 96.3206Z" fill="#4183E4"/>
</g>
<defs>
<linearGradient id="paint0_linear" x1="82.1581" y1="70.1483" x2="105.776" y2="70.1483" gradientUnits="userSpaceOnUse">
<stop stop-opacity="0"/>
<stop offset="0.99"/>
</linearGradient>
<linearGradient id="paint1_linear" x1="6302.53" y1="3233.49" x2="4051.52" y2="5067.79" gradientUnits="userSpaceOnUse">
<stop stop-opacity="0"/>
<stop offset="0.99"/>
</linearGradient>
<linearGradient id="paint2_linear" x1="110.212" y1="65.0476" x2="116.798" y2="65.0476" gradientUnits="userSpaceOnUse">
<stop stop-color="#E5C5D5"/>
<stop offset="0.42" stop-color="#EAD4D1"/>
<stop offset="1" stop-color="#F0E9CB"/>
</linearGradient>
<linearGradient id="paint3_linear" x1="6019.38" y1="8437.39" x2="6692.59" y2="8091.14" gradientUnits="userSpaceOnUse">
<stop stop-opacity="0"/>
<stop offset="0.99"/>
</linearGradient>
<linearGradient id="paint4_linear" x1="1059.52" y1="870.808" x2="1102.69" y2="870.808" gradientUnits="userSpaceOnUse">
<stop stop-color="#E5C5D5"/>
<stop offset="0.42" stop-color="#EAD4D1"/>
<stop offset="1" stop-color="#F0E9CB"/>
</linearGradient>
<linearGradient id="paint5_linear" x1="1574.15" y1="108.994" x2="1298" y2="4702.33" gradientUnits="userSpaceOnUse">
<stop stop-opacity="0"/>
<stop offset="0.99"/>
</linearGradient>
<linearGradient id="paint6_linear" x1="578" y1="812.339" x2="605.898" y2="812.339" gradientUnits="userSpaceOnUse">
<stop stop-color="#E5C5D5"/>
<stop offset="0.42" stop-color="#EAD4D1"/>
<stop offset="1" stop-color="#F0E9CB"/>
</linearGradient>
<linearGradient id="paint7_linear" x1="511.479" y1="453.311" x2="527.847" y2="453.311" gradientUnits="userSpaceOnUse">
<stop stop-color="#E5C5D5"/>
<stop offset="0.42" stop-color="#EAD4D1"/>
<stop offset="1" stop-color="#F0E9CB"/>
</linearGradient>
<clipPath id="clip0">
<rect width="163.562" height="120" fill="white"/>
</clipPath>
</defs>
</svg>
