<svg width="108" height="120" viewBox="0 0 108 120" fill="none" xmlns="http://www.w3.org/2000/svg">
<g clip-path="url(#clip0)">
<path opacity="0.18" d="M105.146 114.487C101.669 114.889 98.1918 115.231 94.7149 115.532C94.7542 115.617 94.8013 115.698 94.8556 115.774C95.2173 116.316 95.961 116.417 96.584 116.678C97.207 116.939 97.7698 117.683 97.3678 118.205C97.1668 118.467 96.8051 118.547 96.4835 118.587L92.886 119.19C88.5047 119.914 83.8822 120.637 79.742 119.05C78.0337 118.386 77.9131 117.402 78.496 116.578C56.2477 117.542 33.899 116.799 11.6105 116.075C9.80168 116.075 7.77181 115.593 7.28946 113.764C18.7653 108.599 29.8995 108.579 42.34 108.237L86.0527 107.071C86.7964 107.051 87.6003 107.051 88.2434 107.433C88.8865 107.815 89.2483 108.579 89.7909 109.141C91.3988 110.809 94.0919 110.468 96.4031 110.287C99.7771 110.041 103.166 110.471 106.372 111.553C106.814 111.694 107.296 111.895 107.517 112.297C108.12 113.422 106.412 114.347 105.146 114.487Z" fill="#1D2741"/>
<path opacity="0.18" d="M46.7013 0.411799C40.8328 1.63777 35.6676 5.13478 31.2059 9.13425C26.7442 13.1337 22.7648 17.6758 18.2026 21.5748C11.1483 27.6242 2.10428 33.0506 0.315576 42.175C-1.11137 49.4907 2.74741 56.8063 2.92829 64.2625C3.02878 69.91 1.0391 75.3766 0.617044 81.004C0.19499 86.551 1.46115 92.4196 5.09885 96.62C10.2841 102.609 19.1673 104.016 27.0256 102.891C34.8838 101.765 42.2798 98.5494 50.0175 96.8411C59.3428 94.7911 69.0501 94.9519 78.5563 95.9769C84.3646 96.5999 90.4542 97.5043 95.9208 95.4141C100.785 93.5651 104.623 89.425 106.472 84.5613C108.321 79.6977 108.261 74.211 106.673 69.2669C104.483 62.4135 99.6389 56.746 96.5439 50.2544C93.9111 44.7275 92.6047 38.6981 91.1577 32.7492C90.193 28.81 89.1077 24.7301 86.4347 21.6753C83.3999 18.1582 78.7975 16.5302 74.7177 14.2994C64.8496 8.91317 59.584 -2.28131 46.7013 0.411799Z" fill="#4183E4"/>
<path d="M24.0511 7.3457H58.9007V114.829H24.0511C22.3667 114.829 20.7513 114.16 19.5603 112.969C18.3693 111.778 17.7002 110.162 17.7002 108.478V13.6966C17.7002 12.0122 18.3693 10.3969 19.5603 9.20584C20.7513 8.01481 22.3667 7.3457 24.0511 7.3457Z" fill="#4183E4"/>
<path d="M24.0511 7.3457H58.9007V114.829H24.0511C22.3667 114.829 20.7513 114.16 19.5603 112.969C18.3693 111.778 17.7002 110.162 17.7002 108.478V13.6966C17.7002 12.0122 18.3693 10.3969 19.5603 9.20584C20.7513 8.01481 22.3667 7.3457 24.0511 7.3457Z" fill="url(#paint0_linear)"/>
<path d="M27.9099 7.3457H73.8334C75.8216 7.3457 77.7283 8.13551 79.1342 9.54137C80.54 10.9472 81.3298 12.854 81.3298 14.8422V107.332C81.3298 109.32 80.54 111.227 79.1342 112.633C77.7283 114.039 75.8216 114.829 73.8334 114.829H27.9099C25.9217 114.829 24.0149 114.039 22.6091 112.633C21.2032 111.227 20.4134 109.32 20.4134 107.332V14.8422C20.4134 12.854 21.2032 10.9472 22.6091 9.54137C24.0149 8.13551 25.9217 7.3457 27.9099 7.3457Z" fill="#4183E4"/>
<path d="M78.6568 13.797V103.192C78.6515 104.198 78.2496 105.161 77.5384 105.872C76.8272 106.583 75.8641 106.985 74.8583 106.991H26.8848C25.8802 106.987 24.918 106.586 24.2095 105.873C23.5011 105.161 23.1043 104.197 23.1064 103.192V13.797C23.1043 12.7924 23.5011 11.8281 24.2095 11.1158C24.918 10.4036 25.8802 10.0017 26.8848 9.99854H36.371V11.1843C36.371 12.1971 36.7733 13.1683 37.4894 13.8845C38.2056 14.6006 39.1768 15.0029 40.1896 15.0029H61.4732C62.4859 15.0029 63.4572 14.6006 64.1733 13.8845C64.8894 13.1683 65.2917 12.1971 65.2917 11.1843V9.99854H74.8583C75.3573 9.99801 75.8514 10.0959 76.3125 10.2866C76.7736 10.4773 77.1926 10.7571 77.5454 11.1099C77.8982 11.4627 78.178 11.8817 78.3687 12.3428C78.5594 12.8039 78.6573 13.2981 78.6568 13.797Z" fill="white"/>
<path d="M45.3748 10.3203H56.3683C56.4345 10.3198 56.5001 10.3324 56.5613 10.3575C56.6225 10.3825 56.6781 10.4195 56.7248 10.4663C56.7716 10.5131 56.8086 10.5687 56.8336 10.6299C56.8587 10.6911 56.8713 10.7566 56.8708 10.8228V10.9233C56.8713 10.9894 56.8587 11.055 56.8336 11.1162C56.8086 11.1774 56.7716 11.233 56.7248 11.2797C56.6781 11.3265 56.6225 11.3635 56.5613 11.3886C56.5001 11.4136 56.4345 11.4262 56.3683 11.4257H45.3748C45.3087 11.4262 45.2431 11.4136 45.1819 11.3886C45.1207 11.3635 45.0651 11.3265 45.0184 11.2797C44.9716 11.233 44.9346 11.1774 44.9096 11.1162C44.8845 11.055 44.8719 10.9894 44.8724 10.9233V10.8228C44.8745 10.6902 44.9281 10.5636 45.0219 10.4698C45.1156 10.376 45.2422 10.3224 45.3748 10.3203Z" fill="url(#paint1_linear)"/>
<path d="M74.4965 9.99854V90.8118C74.4944 92.6288 73.7717 94.3707 72.4869 95.6555C71.2021 96.9403 69.4601 97.663 67.6432 97.6652H23.1064V13.797C23.1043 12.7924 23.5011 11.8281 24.2095 11.1158C24.918 10.4036 25.8802 10.0017 26.8848 9.99854H36.371V11.1843C36.371 12.1971 36.7733 13.1683 37.4894 13.8845C38.2055 14.6006 39.1768 15.0029 40.1896 15.0029H61.4731C62.4859 15.0029 63.4572 14.6006 64.1733 13.8845C64.8894 13.1683 65.2917 12.1971 65.2917 11.1843V9.99854H74.4965Z" fill="#EBEBF0"/>
<path d="M34.0597 45.6318H90.4542C91.4295 45.6324 92.3646 46.02 93.0543 46.7097C93.7439 47.3993 94.1315 48.3345 94.1321 49.3097V63.1973C94.1315 64.1726 93.7439 65.1077 93.0543 65.7974C92.3646 66.487 91.4295 66.8747 90.4542 66.8752H34.0597C33.0844 66.8747 32.1493 66.487 31.4596 65.7974C30.77 65.1077 30.3824 64.1726 30.3818 63.1973V49.3097C30.3824 48.3345 30.77 47.3993 31.4596 46.7097C32.1493 46.02 33.0844 45.6324 34.0597 45.6318Z" fill="#4183E4"/>
<path d="M34.0597 45.6318H90.4542C91.4295 45.6324 92.3646 46.02 93.0543 46.7097C93.7439 47.3993 94.1315 48.3345 94.1321 49.3097V63.1973C94.1315 64.1726 93.7439 65.1077 93.0543 65.7974C92.3646 66.487 91.4295 66.8747 90.4542 66.8752H34.0597C33.0844 66.8747 32.1493 66.487 31.4596 65.7974C30.77 65.1077 30.3824 64.1726 30.3818 63.1973V49.3097C30.3824 48.3345 30.77 47.3993 31.4596 46.7097C32.1493 46.02 33.0844 45.6324 34.0597 45.6318Z" fill="url(#paint2_linear)"/>
<path d="M35.1651 44.3057H91.5596C92.5348 44.3062 93.47 44.6939 94.1596 45.3835C94.8493 46.0731 95.2369 47.0083 95.2374 47.9836V61.8712C95.2369 62.8464 94.8493 63.7816 94.1596 64.4712C93.47 65.1609 92.5348 65.5485 91.5596 65.5491H35.1651C34.1898 65.5485 33.2546 65.1609 32.565 64.4712C31.8754 63.7816 31.4877 62.8464 31.4872 61.8712V47.9836C31.4877 47.0083 31.8754 46.0731 32.565 45.3835C33.2546 44.6939 34.1898 44.3062 35.1651 44.3057Z" fill="white"/>
<path d="M38.3004 20.6704H28.774V30.1968H38.3004V20.6704Z" fill="white"/>
<path d="M37.2553 48.2046H46.9022C47.4086 48.2046 47.8943 48.4058 48.2523 48.7639C48.6104 49.1219 48.8115 49.6076 48.8115 50.1139V59.7609C48.8115 60.0116 48.7621 60.2599 48.6662 60.4915C48.5702 60.7232 48.4296 60.9337 48.2523 61.111C48.075 61.2882 47.8645 61.4289 47.6329 61.5248C47.4013 61.6208 47.153 61.6702 46.9022 61.6702H37.2553C37.0046 61.6702 36.7563 61.6208 36.5246 61.5248C36.293 61.4289 36.0825 61.2882 35.9052 61.111C35.7279 60.9337 35.5873 60.7232 35.4913 60.4915C35.3954 60.2599 35.346 60.0116 35.346 59.7609V50.1139C35.3441 49.8627 35.3922 49.6136 35.4875 49.3811C35.5828 49.1486 35.7234 48.9374 35.9011 48.7597C36.0787 48.582 36.2899 48.4415 36.5224 48.3462C36.7549 48.2509 37.004 48.2028 37.2553 48.2046Z" fill="#EBEBF0"/>
<path d="M38.3004 32.4883H28.774V42.0146H38.3004V32.4883Z" fill="white"/>
<path d="M38.3004 70.0708H28.774V79.5972H38.3004V70.0708Z" fill="white"/>
<path d="M38.3004 81.8887H28.774V91.4151H38.3004V81.8887Z" fill="white"/>
<path opacity="0.38" d="M48.7914 57.9723V59.761C48.7914 60.0117 48.7421 60.26 48.6461 60.4917C48.5502 60.7233 48.4095 60.9338 48.2322 61.1111C48.0549 61.2884 47.8444 61.429 47.6128 61.525C47.3812 61.6209 47.1329 61.6703 46.8821 61.6703H37.2352C36.9845 61.6703 36.7362 61.6209 36.5045 61.525C36.2729 61.429 36.0624 61.2884 35.8851 61.1111C35.7078 60.9338 35.5672 60.7233 35.4712 60.4917C35.3753 60.26 35.3259 60.0117 35.3259 59.761V57.9723C36.9319 56.9076 38.7484 56.2016 40.6518 55.9022C40.0994 55.5927 39.6657 55.1083 39.4188 54.5253C39.1719 53.9422 39.1259 53.2936 39.2881 52.6816C39.4502 52.0695 39.8113 51.5288 40.3145 51.1444C40.8177 50.7601 41.4344 50.554 42.0676 50.5587C42.7008 50.5633 43.3144 50.7783 43.8119 51.17C44.3095 51.5616 44.6626 52.1076 44.8158 52.7219C44.9691 53.3363 44.9136 53.9841 44.6582 54.5635C44.4029 55.1429 43.9621 55.6209 43.4052 55.9223C46.2591 56.3846 48.7914 57.9723 48.7914 57.9723Z" fill="white"/>
<path d="M90.4743 50.556H54.0972C53.9373 50.556 53.784 50.4924 53.6709 50.3794C53.5578 50.2663 53.4943 50.1129 53.4943 49.953C53.4943 49.7931 53.5578 49.6398 53.6709 49.5267C53.784 49.4136 53.9373 49.3501 54.0972 49.3501H90.4743C90.6342 49.3501 90.7875 49.4136 90.9006 49.5267C91.0137 49.6398 91.0772 49.7931 91.0772 49.953C91.0772 50.1129 91.0137 50.2663 90.9006 50.3794C90.7875 50.4924 90.6342 50.556 90.4743 50.556Z" fill="#EBEBF0"/>
<path d="M41.8577 23.1626H75.9436C76.0929 23.1626 76.236 23.2219 76.3415 23.3274C76.4471 23.433 76.5064 23.5761 76.5064 23.7253C76.5064 23.8746 76.4471 24.0177 76.3415 24.1232C76.236 24.2288 76.0929 24.2881 75.9436 24.2881H41.8577C41.7838 24.2881 41.7107 24.2735 41.6424 24.2452C41.5741 24.217 41.5121 24.1755 41.4598 24.1232C41.4076 24.071 41.3661 24.009 41.3378 23.9407C41.3095 23.8724 41.295 23.7992 41.295 23.7253C41.295 23.6514 41.3095 23.5783 41.3378 23.51C41.3661 23.4417 41.4076 23.3797 41.4598 23.3274C41.5121 23.2752 41.5741 23.2337 41.6424 23.2054C41.7107 23.1772 41.7838 23.1626 41.8577 23.1626Z" fill="white"/>
<path d="M75.9436 28.1069H41.8577C41.7838 28.1069 41.7107 28.0924 41.6424 28.0641C41.5741 28.0358 41.5121 27.9944 41.4598 27.9421C41.4076 27.8898 41.3661 27.8278 41.3378 27.7595C41.3095 27.6913 41.295 27.6181 41.295 27.5442C41.295 27.4703 41.3095 27.3971 41.3378 27.3288C41.3661 27.2606 41.4076 27.1985 41.4598 27.1463C41.5121 27.094 41.5741 27.0526 41.6424 27.0243C41.7107 26.996 41.7838 26.9814 41.8577 26.9814H75.9436C76.0929 26.9814 76.236 27.0407 76.3415 27.1463C76.4471 27.2518 76.5064 27.3949 76.5064 27.5442C76.5033 27.6925 76.443 27.8338 76.3381 27.9387C76.2332 28.0436 76.0919 28.1038 75.9436 28.1069Z" fill="white"/>
<path d="M75.9436 35.7842H41.8577C41.7838 35.7842 41.7107 35.7696 41.6424 35.7413C41.5741 35.7131 41.5121 35.6716 41.4598 35.6193C41.4076 35.5671 41.3661 35.5051 41.3378 35.4368C41.3095 35.3685 41.295 35.2953 41.295 35.2214C41.295 35.1475 41.3095 35.0744 41.3378 35.0061C41.3661 34.9378 41.4076 34.8758 41.4598 34.8235C41.5121 34.7713 41.5741 34.7298 41.6424 34.7015C41.7107 34.6732 41.7838 34.6587 41.8577 34.6587H75.9436C76.0929 34.6587 76.236 34.718 76.3415 34.8235C76.4471 34.9291 76.5064 35.0722 76.5064 35.2214C76.5033 35.3697 76.443 35.5111 76.3381 35.6159C76.2332 35.7208 76.0919 35.7811 75.9436 35.7842Z" fill="white"/>
<path d="M75.9436 39.02H41.8577C41.7838 39.02 41.7107 39.0055 41.6424 38.9772C41.5741 38.9489 41.5121 38.9074 41.4598 38.8552C41.4076 38.8029 41.3661 38.7409 41.3378 38.6726C41.3095 38.6043 41.295 38.5312 41.295 38.4573C41.295 38.3834 41.3095 38.3102 41.3378 38.2419C41.3661 38.1736 41.4076 38.1116 41.4598 38.0594C41.5121 38.0071 41.5741 37.9656 41.6424 37.9374C41.7107 37.9091 41.7838 37.8945 41.8577 37.8945H75.9436C76.0929 37.8945 76.236 37.9538 76.3415 38.0594C76.4471 38.1649 76.5064 38.308 76.5064 38.4573C76.5033 38.6056 76.443 38.7469 76.3381 38.8518C76.2332 38.9567 76.0919 39.0169 75.9436 39.02Z" fill="white"/>
<path d="M75.9436 73.7891H41.8577C41.7838 73.7891 41.7107 73.7745 41.6424 73.7462C41.5741 73.7179 41.5121 73.6765 41.4598 73.6242C41.4076 73.572 41.3661 73.5099 41.3378 73.4417C41.3095 73.3734 41.295 73.3002 41.295 73.2263C41.295 73.1524 41.3095 73.0792 41.3378 73.011C41.3661 72.9427 41.4076 72.8807 41.4598 72.8284C41.5121 72.7761 41.5741 72.7347 41.6424 72.7064C41.7107 72.6781 41.7838 72.6636 41.8577 72.6636H75.9436C76.0929 72.6636 76.236 72.7229 76.3415 72.8284C76.4471 72.9339 76.5064 73.0771 76.5064 73.2263C76.5033 73.3746 76.443 73.5159 76.3381 73.6208C76.2332 73.7257 76.0919 73.786 75.9436 73.7891Z" fill="white"/>
<path d="M75.9436 77.0249H41.8577C41.7838 77.0249 41.7107 77.0103 41.6424 76.9821C41.5741 76.9538 41.5121 76.9123 41.4598 76.8601C41.4076 76.8078 41.3661 76.7458 41.3378 76.6775C41.3095 76.6092 41.295 76.5361 41.295 76.4622C41.295 76.3883 41.3095 76.3151 41.3378 76.2468C41.3661 76.1785 41.4076 76.1165 41.4598 76.0642C41.5121 76.012 41.5741 75.9705 41.6424 75.9422C41.7107 75.914 41.7838 75.8994 41.8577 75.8994H75.9436C76.0929 75.8994 76.236 75.9587 76.3415 76.0642C76.4471 76.1698 76.5064 76.3129 76.5064 76.4622C76.5033 76.6104 76.443 76.7518 76.3381 76.8567C76.2332 76.9615 76.0919 77.0218 75.9436 77.0249Z" fill="white"/>
<path d="M75.9436 85.6064H41.8577C41.7838 85.6064 41.7107 85.5919 41.6424 85.5636C41.5741 85.5353 41.5121 85.4939 41.4598 85.4416C41.4076 85.3894 41.3661 85.3273 41.3378 85.259C41.3095 85.1908 41.295 85.1176 41.295 85.0437C41.295 84.9698 41.3095 84.8966 41.3378 84.8283C41.3661 84.7601 41.4076 84.698 41.4598 84.6458C41.5121 84.5935 41.5741 84.5521 41.6424 84.5238C41.7107 84.4955 41.7838 84.481 41.8577 84.481H75.9436C76.0175 84.481 76.0907 84.4955 76.159 84.5238C76.2272 84.5521 76.2893 84.5935 76.3415 84.6458C76.3938 84.698 76.4352 84.7601 76.4635 84.8283C76.4918 84.8966 76.5064 84.9698 76.5064 85.0437C76.5033 85.192 76.443 85.3333 76.3381 85.4382C76.2332 85.5431 76.0919 85.6034 75.9436 85.6064Z" fill="white"/>
<path d="M75.9436 88.8423H41.8577C41.7838 88.8423 41.7107 88.8277 41.6424 88.7994C41.5741 88.7711 41.5121 88.7297 41.4598 88.6774C41.4076 88.6252 41.3661 88.5631 41.3378 88.4949C41.3095 88.4266 41.295 88.3534 41.295 88.2795C41.295 88.2056 41.3095 88.1325 41.3378 88.0642C41.3661 87.9959 41.4076 87.9339 41.4598 87.8816C41.5121 87.8294 41.5741 87.7879 41.6424 87.7596C41.7107 87.7314 41.7838 87.7168 41.8577 87.7168H75.9436C76.0929 87.7168 76.236 87.7761 76.3415 87.8816C76.4471 87.9871 76.5064 88.1303 76.5064 88.2795C76.5033 88.4278 76.443 88.5692 76.3381 88.674C76.2332 88.7789 76.0919 88.8392 75.9436 88.8423Z" fill="white"/>
<path d="M90.4743 54.4349H54.0972C53.9373 54.4349 53.784 54.3714 53.6709 54.2583C53.5578 54.1452 53.4943 53.9918 53.4943 53.8319C53.4943 53.672 53.5578 53.5187 53.6709 53.4056C53.784 53.2925 53.9373 53.229 54.0972 53.229H90.4743C90.6342 53.229 90.7875 53.2925 90.9006 53.4056C91.0137 53.5187 91.0772 53.672 91.0772 53.8319C91.0772 53.9918 91.0137 54.1452 90.9006 54.2583C90.7875 54.3714 90.6342 54.4349 90.4743 54.4349Z" fill="#EBEBF0"/>
<path d="M90.4743 58.3138H54.0972C53.9373 58.3138 53.784 58.2503 53.6709 58.1372C53.5578 58.0241 53.4943 57.8708 53.4943 57.7108C53.4943 57.5509 53.5578 57.3976 53.6709 57.2845C53.784 57.1714 53.9373 57.1079 54.0972 57.1079H90.4743C90.6342 57.1079 90.7875 57.1714 90.9006 57.2845C91.0137 57.3976 91.0772 57.5509 91.0772 57.7108C91.0772 57.8708 91.0137 58.0241 90.9006 58.1372C90.7875 58.2503 90.6342 58.3138 90.4743 58.3138Z" fill="#EBEBF0"/>
<path d="M83.5606 84.6016L81.2695 101.283C81.1721 101.987 81.2479 102.705 81.4905 103.373L85.5905 115.432L87.9821 114.688L86.1733 102.69C86.1365 102.442 86.1502 102.189 86.2135 101.946L89.3287 91.2138L90.6752 115.412H92.886L94.7953 91.5153C95.4384 87.5359 94.2526 84.5815 94.2526 84.5815L83.5606 84.6016Z" fill="#3F3D56"/>
<path d="M95.2978 69.89V81.3458C95.2978 82.7527 95.0767 83.8781 93.6699 83.8781H83.8621C82.4553 83.8781 82.4151 82.7527 82.395 81.3458L82.3146 73.5478C82.3146 73.5478 80.2043 77.3262 78.5161 76.9645C76.8279 76.6027 71.8235 69.6891 71.8235 69.6891L74.3157 67.5989L78.5161 71.8194C78.5161 71.8194 79.1994 70.292 80.1641 66.8553C81.1288 63.4185 84.3445 63.3984 84.3445 63.3984H92.8659C95.9409 63.3984 95.2978 69.89 95.2978 69.89Z" fill="#4183E4"/>
<path d="M95.2375 58.314C95.2375 58.314 98.3527 64.7051 98.5135 66.8957C98.6742 69.0864 95.338 72.0408 95.338 72.0408L92.8459 63.3987H95.2174V58.314H95.2375Z" fill="#4183E4"/>
<path d="M95.2375 58.314C95.2375 58.314 98.3527 64.7051 98.5135 66.8957C98.6742 69.0864 95.338 72.0408 95.338 72.0408L92.8459 63.3987H95.2174V58.314H95.2375Z" fill="url(#paint3_linear)"/>
<path d="M95.3581 72.0406C95.3581 72.0406 97.388 66.4534 97.1669 65.1872C96.9458 63.9211 95.2375 59.8613 95.2375 59.8613V63.4186L92.2429 63.4789L95.3581 72.0406Z" fill="#4183E4"/>
<path d="M94.2527 83.8179H83.5606V84.6017H94.2527V83.8179Z" fill="#4183E4"/>
<path d="M94.2527 83.8179H83.5606V84.6017H94.2527V83.8179Z" fill="url(#paint4_linear)"/>
<path d="M90.2733 55.6206H87.1984V63.4588H90.2733V55.6206Z" fill="url(#paint5_linear)"/>
<path d="M90.2733 54.7563V63.4587H88.6454V62.9362C88.6454 62.627 88.5226 62.3305 88.304 62.1119C88.0854 61.8933 87.7889 61.7705 87.4797 61.7705H87.3792C86.995 61.7723 86.6143 61.6984 86.2588 61.5528C85.9032 61.4073 85.5799 61.193 85.3074 60.9223C85.0348 60.6516 84.8183 60.3297 84.6703 59.9752C84.5223 59.6207 84.4457 59.2405 84.4449 58.8563V54.7764H90.2733V54.7563Z" fill="url(#paint6_linear)"/>
<path d="M85.2288 52.1035C85.8719 51.7417 86.6557 51.7015 87.4194 51.6814L89.0071 51.6412C89.3627 51.6245 89.7191 51.638 90.0723 51.6814C90.4118 51.7375 90.7369 51.86 91.0289 52.042C91.3209 52.224 91.5741 52.4619 91.7739 52.742C91.9737 53.0221 92.1162 53.3389 92.1932 53.6743C92.2703 54.0096 92.2803 54.3569 92.2228 54.6961C92.1878 54.882 92.134 55.0638 92.062 55.2387C92.0009 55.3655 91.9602 55.5012 91.9414 55.6407C91.9756 55.8604 92.0506 56.0717 92.1625 56.2637C92.3836 56.8667 92.0218 57.5098 91.6199 57.9922C91.2179 58.4745 90.7356 58.9769 90.6753 59.6201C90.6552 59.8211 90.6753 60.0622 90.5346 60.223C90.448 60.3019 90.337 60.349 90.2201 60.3563C90.1031 60.3636 89.9872 60.3307 89.8915 60.2632C89.7076 60.1235 89.5566 59.9451 89.4493 59.7407C89.4694 60.0421 89.0473 60.2029 88.7861 60.0622C88.6633 59.9773 88.5602 59.8669 88.4839 59.7386C88.4076 59.6103 88.3599 59.4671 88.3439 59.3186C88.3091 59.0236 88.2206 58.7376 88.0826 58.4745C87.942 58.2735 87.7209 58.1328 87.6606 57.8917C87.54 57.4897 87.942 57.0476 87.7812 56.6456C87.6606 56.324 87.1983 56.2235 86.8768 56.3642C86.5689 56.5348 86.3121 56.7846 86.1332 57.0878C86.4346 56.6858 86.1934 56.0025 85.8719 55.6809C85.3694 55.1383 84.6258 55.6005 84.2038 55.2187C83.4199 54.4549 84.5253 52.5054 85.2288 52.1035Z" fill="#3F3D56"/>
<path opacity="0.25" d="M89.59 63.4386C89.59 63.4386 88.3841 65.0063 86.7361 65.0063C85.0881 65.0063 80.2445 69.7494 79.9229 71.1763C79.6014 72.6033 78.5161 71.8194 78.5161 71.8194C78.5161 71.8194 79.1994 70.292 80.1641 66.8553C81.1288 63.4185 84.3445 63.3984 84.3445 63.3984H88.6856L89.59 63.4386Z" fill="white"/>
<path d="M87.9621 114.487L88.8062 116.557L85.4097 118.165L82.2543 118.386C82.2543 118.386 81.7117 116.316 83.1788 116.135C84.036 116.037 84.8531 115.719 85.5504 115.211L87.9621 114.487Z" fill="#222A72"/>
<path d="M90.6552 115.412C90.2287 115.59 89.8581 115.881 89.5823 116.252C89.3065 116.623 89.1356 117.062 89.0876 117.522L89.0072 118.386H92.8659V115.412H90.6552Z" fill="#222A72"/>
<path d="M74.2955 67.619L72.6676 65.6092C72.6676 65.6092 72.1049 63.4587 71.8034 64.7852C71.6225 65.5288 71.1402 66.8754 71.1402 66.8754H68.648C68.648 66.8754 70.3965 68.7244 71.1402 69.066C71.4796 69.2152 71.8381 69.3166 72.2053 69.3675L74.2955 67.619Z" fill="url(#paint7_linear)"/>
</g>
<defs>
<linearGradient id="paint0_linear" x1="-11.727" y1="132.414" x2="74.4222" y2="13.2826" gradientUnits="userSpaceOnUse">
<stop stop-opacity="0"/>
<stop offset="0.85" stop-opacity="0.51"/>
<stop offset="0.99"/>
</linearGradient>
<linearGradient id="paint1_linear" x1="3085.27" y1="211.236" x2="3085.22" y2="235.118" gradientUnits="userSpaceOnUse">
<stop stop-opacity="0"/>
<stop offset="0.85" stop-opacity="0.51"/>
<stop offset="0.99"/>
</linearGradient>
<linearGradient id="paint2_linear" x1="19797.4" y1="8304.85" x2="19791.5" y2="12162.9" gradientUnits="userSpaceOnUse">
<stop stop-opacity="0"/>
<stop offset="0.85" stop-opacity="0.51"/>
<stop offset="0.99"/>
</linearGradient>
<linearGradient id="paint3_linear" x1="3334.24" y1="-393.55" x2="4380.74" y2="-1056.44" gradientUnits="userSpaceOnUse">
<stop stop-opacity="0"/>
<stop offset="0.85" stop-opacity="0.51"/>
<stop offset="0.99"/>
</linearGradient>
<linearGradient id="paint4_linear" x1="4795.01" y1="405.976" x2="4795.31" y2="425.226" gradientUnits="userSpaceOnUse">
<stop stop-opacity="0"/>
<stop offset="0.85" stop-opacity="0.51"/>
<stop offset="0.99"/>
</linearGradient>
<linearGradient id="paint5_linear" x1="87.7812" y1="59.5578" x2="92.8438" y2="59.4653" gradientUnits="userSpaceOnUse">
<stop stop-color="#ECC4D7"/>
<stop offset="0.42" stop-color="#EFD4D1"/>
<stop offset="1" stop-color="#F2EAC9"/>
</linearGradient>
<linearGradient id="paint6_linear" x1="3475.91" y1="-1150.32" x2="3441.5" y2="-1138.11" gradientUnits="userSpaceOnUse">
<stop stop-color="#ECC4D7"/>
<stop offset="0.42" stop-color="#EFD4D1"/>
<stop offset="1" stop-color="#F2EAC9"/>
</linearGradient>
<linearGradient id="paint7_linear" x1="2808.05" y1="-456.594" x2="2966.97" y2="-456.594" gradientUnits="userSpaceOnUse">
<stop stop-color="#ECC4D7"/>
<stop offset="0.42" stop-color="#EFD4D1"/>
<stop offset="1" stop-color="#F2EAC9"/>
</linearGradient>
<clipPath id="clip0">
<rect width="107.863" height="120" fill="white"/>
</clipPath>
</defs>
</svg>
