<svg width="172" height="139" viewBox="0 0 172 139" fill="none" xmlns="http://www.w3.org/2000/svg">
<path fill-rule="evenodd" clip-rule="evenodd" d="M86.9976 7.16826C98.7479 9.89585 101.276 25.9171 110.418 33.7869C117.757 40.1047 128.345 41.2075 134.862 48.3711C143.024 57.3434 153.347 67.5243 152.082 79.5875C150.82 91.6162 139.009 99.9855 128.773 106.428C120.144 111.86 108.846 108.699 99.4691 112.704C88.1434 117.541 80.5573 135.855 68.8548 132.019C56.9858 128.127 63.3059 107.279 54.8588 98.0782C45.9707 88.3966 25.743 91.941 20.8598 79.739C16.2862 68.3107 27.7987 56.6556 34.034 46.0422C39.7021 36.3941 46.3433 27.6282 55.3641 21.0072C64.8343 14.0563 75.5545 4.51199 86.9976 7.16826Z" fill="#E5EDF8"/>
<path d="M44.9374 124.986H42.2913L39.8972 108.227L38.133 98.5249L44.4334 97.1388L44.4964 105.833L44.9374 124.986Z" fill="#9F616A"/>
<path d="M53.443 124.986H50.5448L48.1507 108.227L46.3865 98.5249L52.687 97.1388L52.75 105.833L53.443 124.986Z" fill="#9F616A"/>
<path d="M54.1361 106.526L46.5756 107.912L45.3155 105.644L45.0635 107.786L37.8811 108.038L37.629 90.5233L51.9939 89.7672L54.1361 106.526Z" fill="#3F4D65"/>
<path d="M56.5321 127.57H50.7392C50.5039 127.57 50.2781 127.476 50.1117 127.31C49.9453 127.143 49.8518 126.918 49.8518 126.682V124.989C49.8518 124.892 49.8708 124.797 49.9079 124.707C49.9449 124.618 49.9992 124.537 50.0676 124.468C50.136 124.4 50.2173 124.345 50.3067 124.308C50.3961 124.271 50.4919 124.252 50.5887 124.252C51.294 124.943 52.1067 124.888 53.0033 124.252L53.0469 124.005C53.0681 123.885 53.1199 123.773 53.1975 123.679C53.2751 123.586 53.3756 123.514 53.4893 123.471C53.603 123.428 53.7258 123.416 53.8458 123.435C53.9658 123.454 54.0788 123.504 54.1737 123.58L55.7401 124.833L56.1689 124.722C56.3829 124.666 56.6066 124.66 56.8231 124.705C57.0396 124.749 57.243 124.843 57.4178 124.978C57.5925 125.113 57.734 125.287 57.8313 125.485C57.9287 125.683 57.9793 125.902 57.9793 126.122C57.9793 126.313 57.9418 126.501 57.8691 126.676C57.7964 126.852 57.6898 127.011 57.5554 127.146C57.421 127.28 57.2615 127.387 57.0859 127.46C56.9104 127.532 56.7222 127.57 56.5321 127.57Z" fill="#3F4D65"/>
<path d="M48.0896 127.57H42.2967C42.0613 127.57 41.8356 127.476 41.6691 127.31C41.5027 127.143 41.4092 126.918 41.4092 126.682V124.989C41.4092 124.892 41.4283 124.797 41.4653 124.707C41.5023 124.618 41.5566 124.537 41.6251 124.468C41.6935 124.4 41.7747 124.345 41.8641 124.308C41.9535 124.271 42.0494 124.252 42.1462 124.252C42.8515 124.943 43.6642 124.888 44.5607 124.252L44.6044 124.005C44.6255 123.885 44.6774 123.773 44.7549 123.679C44.8325 123.586 44.9331 123.514 45.0467 123.471C45.1604 123.428 45.2833 123.416 45.4033 123.435C45.5233 123.454 45.6363 123.504 45.7311 123.58L47.2975 124.833L47.7264 124.722C47.9403 124.666 48.1641 124.66 48.3805 124.705C48.597 124.749 48.8004 124.843 48.9752 124.978C49.15 125.113 49.2915 125.287 49.3888 125.485C49.4861 125.683 49.5367 125.902 49.5367 126.122C49.5367 126.313 49.4993 126.501 49.4266 126.676C49.3539 126.852 49.2473 127.011 49.1129 127.146C48.9785 127.28 48.819 127.387 48.6434 127.46C48.4678 127.532 48.2796 127.57 48.0896 127.57Z" fill="#3F4D65"/>
<path d="M48.9697 57.3832C51.5446 57.3832 53.632 55.2958 53.632 52.7209C53.632 50.146 51.5446 48.0586 48.9697 48.0586C46.3948 48.0586 44.3074 50.146 44.3074 52.7209C44.3074 55.2958 46.3948 57.3832 48.9697 57.3832Z" fill="#9F616A"/>
<path d="M46.1976 60.4074L41.9133 59.2733L44.9374 52.7209L48.9698 55.6191L46.1976 60.4074Z" fill="#9F616A"/>
<path d="M52.4979 91.2794C48.7098 89.2617 46.0865 90.5004 42.6845 92.9419C40.035 94.8433 36.2956 92.734 33.3447 92.1615L35.6296 66.1341C35.8113 64.0636 36.6002 62.0929 37.8974 60.4689C39.1945 58.845 40.9422 57.6401 42.9213 57.0052L47.0796 58.8954C48.9974 61.6261 49.6089 67.3479 50.6078 74.0163C51.4695 79.7689 51.7781 84.9187 52.4979 91.2794Z" fill="#4183E4"/>
<path d="M47.9616 87.8772L48.5471 91.024C48.6016 91.3173 48.5962 91.6187 48.5311 91.9099C48.4659 92.2011 48.3424 92.4761 48.1681 92.7182C47.9937 92.9604 47.772 93.1647 47.5165 93.3188C47.261 93.4729 46.9769 93.5736 46.6813 93.6148C46.3294 93.6639 45.9708 93.6274 45.636 93.5083C45.3012 93.3891 45.0001 93.191 44.7582 92.9306C44.5164 92.6702 44.341 92.3553 44.2469 92.0127C44.1528 91.67 44.1427 91.3097 44.2177 90.9623L44.9374 87.6252L41.4092 73.8903L41.9133 68.976L46.9536 68.85C47.4332 70.2959 47.2616 71.813 46.5755 73.3863L47.9616 87.8772Z" fill="#9F616A"/>
<path d="M46.2747 53.2979C46.6443 53.2759 47.0052 53.4008 47.3722 53.4495C48.6853 53.6238 50.0513 52.671 50.3413 51.3785C50.3645 51.2064 50.4158 51.0392 50.4931 50.8837C50.6952 50.5538 51.1555 50.4909 51.5349 50.5667C51.9143 50.6426 52.2739 50.8202 52.6603 50.8404C53.2569 50.8717 53.8297 50.5045 54.1476 49.9987C54.4481 49.4769 54.5759 48.8735 54.5127 48.2747L54.2267 48.5748C54.1104 48.329 54.0656 48.0554 54.0972 47.7853C53.9456 47.745 53.7862 47.7442 53.6343 47.7831C53.4823 47.8219 53.3429 47.8992 53.2294 48.0074C52.9772 48.0342 53.1675 47.5396 52.9802 47.3687C52.889 47.3127 52.7804 47.2924 52.6752 47.3116C52.1387 47.3168 51.7047 46.9064 51.282 46.5761C50.5494 46.005 49.6929 45.6143 48.7814 45.4355C48.1756 45.3173 47.5314 45.2984 46.9569 45.5239C46.4931 45.7321 46.0745 46.0291 45.7247 46.398C44.8252 47.2629 44.0287 48.2791 43.6545 49.4695C43.3503 50.4446 43.3417 51.4879 43.6298 52.4678C43.7806 52.9768 44.235 54.7197 44.9002 54.7602C45.7362 54.8113 45.2343 53.36 46.2747 53.2979Z" fill="#3F4D65"/>
<path d="M48.3397 71.2441C45.8453 69.3936 43.2459 69.0311 40.5272 70.362L41.6068 63.1644C41.7271 62.3625 42.1312 61.6305 42.7455 61.1015C43.3599 60.5724 44.1437 60.2814 44.9545 60.2814C45.8523 60.2814 46.7134 60.638 47.3482 61.2729C47.983 61.9077 48.3397 62.7687 48.3397 63.6665L48.3397 71.2441Z" fill="#4183E4"/>
<path d="M142.218 53.1494L141.663 52.9633L146.76 37.7486C147.147 36.5922 147.303 35.3708 147.218 34.1542C147.134 32.9375 146.81 31.7495 146.266 30.6579C145.723 29.5662 144.969 28.5924 144.049 27.792C143.129 26.9915 142.06 26.3802 140.904 25.9928L140.904 25.9928L108.669 15.1946C107.513 14.8072 106.291 14.6514 105.075 14.736C103.858 14.8207 102.67 15.1441 101.578 15.6879C100.487 16.2317 99.513 16.9851 98.7126 17.9053C97.9121 18.8254 97.3008 19.8942 96.9134 21.0506L96.9134 21.0506L68.9521 104.52C68.1697 106.855 68.3472 109.406 69.4454 111.611C70.5436 113.815 72.4726 115.493 74.8081 116.276H74.8081L107.043 127.074C109.378 127.856 111.929 127.679 114.133 126.581C116.338 125.482 118.016 123.553 118.798 121.218L118.798 121.218L138.035 63.7935L138.59 63.9795L142.218 53.1494Z" fill="#3F4D65"/>
<path d="M140.492 28.4028L136.284 26.9932C136.318 27.5325 136.22 28.0719 135.997 28.5641C135.774 29.0562 135.433 29.486 135.005 29.8155C134.577 30.145 134.074 30.3641 133.541 30.4536C133.008 30.543 132.462 30.5001 131.949 30.3285L113.483 24.1423C112.97 23.9707 112.508 23.6756 112.137 23.2832C111.765 22.8908 111.496 22.4131 111.353 21.8921C111.209 21.3712 111.196 20.8229 111.315 20.2958C111.433 19.7686 111.679 19.2786 112.032 18.869L108.102 17.5525C106.358 16.9683 104.453 17.1008 102.807 17.9209C101.16 18.7411 99.907 20.1816 99.3227 21.9257L71.4024 105.273C70.8182 107.017 70.9507 108.922 71.7708 110.568C72.5909 112.214 74.0315 113.467 75.7756 114.052H75.7756L108.165 124.902C109.029 125.191 109.941 125.308 110.85 125.244C111.758 125.181 112.645 124.94 113.461 124.534C114.276 124.127 115.003 123.565 115.601 122.878C116.199 122.19 116.655 121.392 116.944 120.529L144.865 37.1818C145.154 36.3182 145.27 35.4061 145.207 34.4976C145.144 33.589 144.902 32.7018 144.496 31.8866C144.09 31.0714 143.528 30.3441 142.84 29.7464C142.153 29.1486 141.355 28.6921 140.492 28.4028Z" fill="white"/>
<path d="M132.391 56.3648L97.8252 44.7855C97.6556 44.7284 97.5155 44.6064 97.4357 44.4462C97.3559 44.286 97.3429 44.1007 97.3996 43.9309L100.272 35.3565C100.329 35.1869 100.451 35.0468 100.611 34.967C100.771 34.8872 100.957 34.8742 101.126 34.9309L135.693 46.5102C135.862 46.5672 136.002 46.6892 136.082 46.8494C136.162 47.0096 136.175 47.1949 136.118 47.3647L133.246 55.9391C133.189 56.1087 133.067 56.2488 132.907 56.3286C132.747 56.4084 132.561 56.4214 132.391 56.3648ZM101.041 35.1869C100.939 35.1529 100.828 35.1607 100.731 35.2086C100.635 35.2565 100.562 35.3405 100.528 35.4423L97.6556 44.0167C97.6216 44.1186 97.6294 44.2298 97.6773 44.3259C97.7252 44.422 97.8092 44.4952 97.911 44.5294L132.477 56.1087C132.579 56.1427 132.69 56.1349 132.786 56.0871C132.882 56.0392 132.956 55.9551 132.99 55.8533L135.862 47.2789C135.896 47.1771 135.888 47.0659 135.841 46.9698C135.793 46.8736 135.709 46.8004 135.607 46.7662L101.041 35.1869Z" fill="#3F4D65"/>
<path d="M121.027 90.2907L86.4604 78.7114C86.2908 78.6544 86.1507 78.5324 86.0709 78.3722C85.9911 78.212 85.9781 78.0267 86.0347 77.8569L91.3516 61.9852C91.4086 61.8156 91.5306 61.6755 91.6908 61.5957C91.851 61.5159 92.0363 61.5029 92.2061 61.5595L126.772 73.1388C126.942 73.1959 127.082 73.3179 127.162 73.4781C127.242 73.6383 127.255 73.8236 127.198 73.9934L121.881 89.865C121.824 90.0347 121.702 90.1748 121.542 90.2546C121.382 90.3344 121.196 90.3474 121.027 90.2907ZM92.1203 61.8156C92.0185 61.7816 91.9073 61.7894 91.8112 61.8373C91.715 61.8851 91.6418 61.9692 91.6076 62.071L86.2908 77.9427C86.2568 78.0445 86.2646 78.1557 86.3125 78.2518C86.3603 78.348 86.4444 78.4212 86.5462 78.4554L121.112 90.0347C121.214 90.0687 121.325 90.0609 121.422 90.013C121.518 89.9651 121.591 89.8811 121.625 89.7793L126.942 73.9076C126.976 73.8057 126.968 73.6945 126.92 73.5984C126.872 73.5023 126.788 73.4291 126.687 73.3949L92.1203 61.8156Z" fill="#3F4D65"/>
<path d="M127.675 69.5934L112.312 64.447C112.143 64.3899 112.003 64.2679 111.923 64.1077C111.843 63.9475 111.83 63.7622 111.887 63.5925L114.759 55.018C114.816 54.8484 114.938 54.7083 115.098 54.6285C115.259 54.5487 115.444 54.5357 115.614 54.5924L130.976 59.7387C131.146 59.7958 131.286 59.9178 131.366 60.078C131.446 60.2382 131.459 60.4235 131.402 60.5933L128.53 69.1677C128.473 69.3373 128.351 69.4774 128.191 69.5572C128.03 69.637 127.845 69.65 127.675 69.5934ZM115.528 54.8484C115.426 54.8144 115.315 54.8222 115.219 54.8701C115.123 54.918 115.049 55.002 115.015 55.1038L112.143 63.6782C112.109 63.7801 112.117 63.8913 112.164 63.9874C112.212 64.0835 112.296 64.1567 112.398 64.1909L127.761 69.3373C127.863 69.3713 127.974 69.3635 128.07 69.3156C128.166 69.2677 128.239 69.1837 128.274 69.0819L131.146 60.5075C131.18 60.4056 131.172 60.2944 131.124 60.1983C131.076 60.1022 130.992 60.029 130.891 59.9948L115.528 54.8484Z" fill="#E6E6E6"/>
<path d="M94.8757 104.598L79.5129 99.4512C79.3432 99.3941 79.2031 99.2721 79.1233 99.1119C79.0435 98.9517 79.0305 98.7664 79.0872 98.5966L84.4469 82.5969C84.504 82.4273 84.626 82.2872 84.7862 82.2074C84.9464 82.1276 85.1317 82.1146 85.3015 82.1712L100.664 87.3176C100.834 87.3746 100.974 87.4966 101.054 87.6568C101.134 87.817 101.147 88.0024 101.09 88.1721L95.7302 104.172C95.6731 104.341 95.5511 104.482 95.3909 104.561C95.2307 104.641 95.0454 104.654 94.8757 104.598ZM85.2157 82.4273C85.1138 82.3933 85.0026 82.4011 84.9065 82.4489C84.8104 82.4968 84.7372 82.5809 84.703 82.6827L79.3432 98.6824C79.3092 98.7842 79.317 98.8954 79.3649 98.9916C79.4128 99.0877 79.4968 99.1609 79.5986 99.1951L94.9614 104.341C95.0633 104.375 95.1745 104.368 95.2706 104.32C95.3667 104.272 95.4399 104.188 95.4741 104.086L100.834 88.0864C100.868 87.9845 100.86 87.8733 100.812 87.7772C100.764 87.6811 100.68 87.6079 100.578 87.5736L85.2157 82.4273Z" fill="#E6E6E6"/>
<path d="M113.823 110.945L98.4602 105.798C98.2905 105.741 98.1505 105.619 98.0707 105.459C97.9909 105.299 97.9779 105.114 98.0345 104.944L103.394 88.9441C103.451 88.7744 103.573 88.6343 103.733 88.5545C103.894 88.4747 104.079 88.4617 104.249 88.5184L119.612 93.6647C119.781 93.7218 119.921 93.8438 120.001 94.004C120.081 94.1642 120.094 94.3495 120.037 94.5193L114.678 110.519C114.62 110.689 114.498 110.829 114.338 110.909C114.178 110.988 113.993 111.001 113.823 110.945ZM104.163 88.7744C104.061 88.7404 103.95 88.7482 103.854 88.7961C103.758 88.844 103.684 88.9281 103.65 89.0298L98.2905 105.03C98.2565 105.131 98.2643 105.243 98.3122 105.339C98.3601 105.435 98.4442 105.508 98.546 105.542L113.909 110.689C114.011 110.723 114.122 110.715 114.218 110.667C114.314 110.619 114.387 110.535 114.421 110.433L119.781 94.4335C119.815 94.3317 119.807 94.2205 119.76 94.1243C119.712 94.0282 119.628 93.955 119.526 93.9208L104.163 88.7744Z" fill="#E6E6E6"/>
<path d="M95.4374 71.6454C96.9562 71.6454 98.1873 70.4143 98.1873 68.8955C98.1873 67.3768 96.9562 66.1456 95.4374 66.1456C93.9187 66.1456 92.6875 67.3768 92.6875 68.8955C92.6875 70.4143 93.9187 71.6454 95.4374 71.6454Z" fill="#4183E4"/>
<path d="M102.042 69.1744C101.985 69.1549 101.924 69.1469 101.864 69.1509C101.804 69.1548 101.745 69.1707 101.691 69.1974C101.637 69.2242 101.588 69.2614 101.548 69.3069C101.509 69.3525 101.478 69.4054 101.459 69.4626C101.44 69.5199 101.432 69.5804 101.437 69.6407C101.441 69.7009 101.457 69.7597 101.484 69.8137C101.511 69.8677 101.549 69.9158 101.594 69.9552C101.64 69.9947 101.693 70.0247 101.751 70.0436L122.238 76.9066C122.295 76.9261 122.356 76.9342 122.416 76.9302C122.476 76.9263 122.535 76.9105 122.589 76.8837C122.643 76.8569 122.692 76.8197 122.731 76.7742C122.771 76.7286 122.801 76.6757 122.821 76.6185C122.84 76.5612 122.847 76.5007 122.843 76.4404C122.839 76.3802 122.823 76.3214 122.796 76.2674C122.769 76.2134 122.731 76.1653 122.685 76.1258C122.64 76.0864 122.587 76.0563 122.529 76.0375L102.042 69.1744Z" fill="#E6E6E6"/>
<path d="M101.168 71.782C101.111 71.7625 101.051 71.7545 100.99 71.7584C100.93 71.7624 100.871 71.7782 100.817 71.805C100.763 71.8318 100.715 71.869 100.675 71.9145C100.635 71.96 100.605 72.0129 100.586 72.0702C100.567 72.1275 100.559 72.188 100.563 72.2482C100.568 72.3084 100.584 72.3673 100.611 72.4212C100.638 72.4752 100.675 72.5233 100.721 72.5628C100.767 72.6022 100.82 72.6323 100.877 72.6511L109.693 75.6043C109.808 75.6422 109.933 75.6329 110.042 75.5786C110.15 75.5243 110.232 75.4294 110.271 75.3145C110.309 75.1997 110.301 75.0743 110.247 74.9657C110.193 74.8572 110.099 74.7743 109.984 74.7352L101.168 71.782Z" fill="#E6E6E6"/>
<path d="M91.7499 73.2633C91.4193 73.1525 91.085 73.2574 91.0047 73.497C90.9244 73.7366 91.1281 74.0217 91.4587 74.1324L119.725 83.6013C120.056 83.712 120.39 83.6072 120.47 83.3676C120.55 83.128 120.347 82.8429 120.016 82.7321L91.7499 73.2633Z" fill="#E6E6E6"/>
<path d="M90.8764 75.8708C90.5458 75.7601 90.2115 75.8649 90.1312 76.1045C90.0509 76.3441 90.2546 76.6292 90.5852 76.74L118.851 86.2088C119.182 86.3196 119.516 86.2147 119.597 85.9751C119.677 85.7355 119.473 85.4504 119.143 85.3397L90.8764 75.8708Z" fill="#E6E6E6"/>
<path d="M104.957 44.0783C106.476 44.0783 107.707 42.8471 107.707 41.3284C107.707 39.8097 106.476 38.5785 104.957 38.5785C103.438 38.5785 102.207 39.8097 102.207 41.3284C102.207 42.8471 103.438 44.0783 104.957 44.0783Z" fill="#4183E4"/>
<path d="M111.561 41.6073C111.504 41.5882 111.444 41.5804 111.384 41.5846C111.324 41.5887 111.265 41.6047 111.211 41.6315C111.157 41.6583 111.109 41.6955 111.07 41.7409C111.03 41.7864 111 41.8391 110.981 41.8962C110.962 41.9533 110.954 42.0136 110.958 42.0737C110.962 42.1338 110.978 42.1924 111.005 42.2463C111.032 42.3002 111.069 42.3483 111.115 42.3878C111.16 42.4273 111.213 42.4574 111.27 42.4765L131.757 49.3395C131.873 49.3774 131.998 49.3682 132.106 49.3139C132.214 49.2596 132.297 49.1646 132.335 49.0498C132.374 48.9349 132.365 48.8095 132.312 48.7009C132.258 48.5924 132.163 48.5095 132.049 48.4704L111.561 41.6073Z" fill="#E6E6E6"/>
<path d="M110.688 44.2149C110.631 44.1957 110.57 44.188 110.51 44.1921C110.45 44.1963 110.392 44.2122 110.338 44.239C110.284 44.2659 110.236 44.3031 110.196 44.3485C110.157 44.3939 110.126 44.4467 110.107 44.5038C110.088 44.5609 110.081 44.6212 110.085 44.6812C110.089 44.7413 110.105 44.8 110.132 44.8539C110.159 44.9078 110.196 44.9558 110.241 44.9953C110.287 45.0348 110.34 45.065 110.397 45.084L119.212 48.0372C119.327 48.0751 119.453 48.0658 119.561 48.0115C119.669 47.9572 119.752 47.8623 119.79 47.7474C119.829 47.6326 119.82 47.5072 119.766 47.3986C119.713 47.2901 119.618 47.2072 119.504 47.1681L110.688 44.2149Z" fill="#E6E6E6"/>
<path d="M108.714 63.2432L94.3021 58.4155L99.6615 53.6772C99.7576 53.5923 99.8743 53.5341 99.9999 53.5086C100.126 53.4831 100.256 53.4911 100.377 53.5318C100.499 53.5725 100.608 53.6446 100.693 53.7406C100.777 53.8367 100.836 53.9534 100.861 54.0791L101.469 57.0738L105.362 53.6322C105.482 53.5259 105.629 53.4531 105.786 53.4211C105.943 53.3892 106.106 53.3992 106.258 53.4502C106.411 53.5012 106.547 53.5913 106.653 53.7116C106.759 53.8319 106.832 53.978 106.864 54.1353L108.714 63.2432ZM94.8313 58.308L108.356 62.8386L106.599 54.1891C106.577 54.0782 106.526 53.9752 106.451 53.8905C106.376 53.8057 106.28 53.7422 106.173 53.7062C106.065 53.6703 105.95 53.6632 105.84 53.6858C105.729 53.7083 105.626 53.7596 105.541 53.8345L101.298 57.5859L100.596 54.1328C100.58 54.0536 100.544 53.98 100.49 53.9195C100.437 53.8589 100.368 53.8135 100.292 53.7879C100.215 53.7622 100.133 53.7572 100.054 53.7732C99.9745 53.7893 99.901 53.826 99.8404 53.8795L94.8313 58.308Z" fill="#E6E6E6"/>
<path d="M127.149 69.4188L112.737 64.591L118.097 59.8527C118.193 59.7678 118.31 59.7097 118.435 59.6842C118.561 59.6586 118.691 59.6666 118.813 59.7074C118.934 59.7481 119.043 59.8201 119.128 59.9162C119.213 60.0122 119.271 60.1289 119.296 60.2546L119.905 63.2494L123.797 59.8077C123.918 59.7014 124.064 59.6286 124.221 59.5967C124.378 59.5647 124.541 59.5747 124.694 59.6257C124.846 59.6767 124.982 59.7669 125.088 59.8871C125.195 60.0074 125.267 60.1535 125.299 60.3109L127.149 69.4188ZM113.267 64.4835L126.791 69.0142L125.035 60.3646C125.012 60.2537 124.961 60.1507 124.886 60.066C124.811 59.9812 124.715 59.9177 124.608 59.8818C124.501 59.8458 124.386 59.8388 124.275 59.8613C124.164 59.8838 124.061 59.9351 123.976 60.0101L119.733 63.7615L119.032 60.3083C119.016 60.2291 118.979 60.1556 118.925 60.095C118.872 60.0345 118.803 59.9891 118.727 59.9634C118.65 59.9377 118.568 59.9327 118.489 59.9488C118.41 59.9649 118.336 60.0015 118.276 60.0551L113.267 64.4835Z" fill="#E6E6E6"/>
<path d="M108.728 63.2462L93.3651 58.0998C93.1954 58.0428 93.0554 57.9208 92.9756 57.7606C92.8958 57.6004 92.8828 57.4151 92.9394 57.2453L95.8117 48.6709C95.8688 48.5012 95.9908 48.3612 96.151 48.2814C96.3112 48.2016 96.4965 48.1885 96.6663 48.2452L112.029 53.3916C112.199 53.4486 112.339 53.5706 112.419 53.7308C112.498 53.891 112.511 54.0763 112.455 54.2461L109.582 62.8205C109.525 62.9901 109.403 63.1302 109.243 63.21C109.083 63.2898 108.898 63.3028 108.728 63.2462ZM96.5805 48.5012C96.4786 48.4672 96.3675 48.475 96.2713 48.5229C96.1752 48.5708 96.102 48.6549 96.0678 48.7567L93.1955 57.331C93.1615 57.4329 93.1693 57.5441 93.2171 57.6402C93.265 57.7364 93.3491 57.8096 93.4509 57.8438L108.814 62.9901C108.916 63.0241 109.027 63.0163 109.123 62.9685C109.219 62.9206 109.292 62.8365 109.326 62.7347L112.199 54.1603C112.233 54.0585 112.225 53.9473 112.177 53.8512C112.129 53.755 112.045 53.6818 111.943 53.6476L96.5805 48.5012Z" fill="#E6E6E6"/>
<path d="M87.4696 86.5673C87.4125 86.5478 87.352 86.5398 87.2918 86.5437C87.2315 86.5477 87.1726 86.5635 87.1185 86.5902C87.0643 86.617 87.016 86.6542 86.9763 86.6998C86.9366 86.7453 86.9063 86.7982 86.8871 86.8555C86.8679 86.9127 86.8603 86.9732 86.8645 87.0335C86.8688 87.0937 86.8849 87.1525 86.912 87.2065C86.9391 87.2605 86.9766 87.3086 87.0223 87.3481C87.068 87.3875 87.1211 87.4175 87.1785 87.4364L95.9943 90.3896C96.0513 90.4088 96.1116 90.4165 96.1717 90.4124C96.2318 90.4082 96.2905 90.3923 96.3444 90.3654C96.3983 90.3386 96.4464 90.3014 96.4859 90.256C96.5254 90.2106 96.5556 90.1578 96.5747 90.1007C96.5939 90.0436 96.6016 89.9833 96.5974 89.9232C96.5932 89.8632 96.5772 89.8045 96.5503 89.7506C96.5234 89.6967 96.4862 89.6487 96.4408 89.6092C96.3953 89.5697 96.3425 89.5395 96.2854 89.5204L87.4696 86.5673Z" fill="#E6E6E6"/>
<path d="M86.6119 89.1277C86.4969 89.0898 86.3715 89.0991 86.2632 89.1534C86.1549 89.2077 86.0726 89.3026 86.0341 89.4175C85.9956 89.5323 86.0042 89.6578 86.0579 89.7663C86.1116 89.8749 86.2061 89.9578 86.3208 89.9969L95.1365 92.95C95.2516 92.9879 95.377 92.9787 95.4853 92.9244C95.5935 92.8701 95.6759 92.7751 95.7144 92.6603C95.7529 92.5454 95.7443 92.42 95.6906 92.3114C95.6369 92.2029 95.5424 92.12 95.4277 92.0809L86.6119 89.1277Z" fill="#E6E6E6"/>
<path d="M88.2996 98.7249C87.7585 98.5437 87.2834 98.2061 86.9342 97.7548C86.5851 97.3035 86.3776 96.7589 86.338 96.1897C86.2984 95.6205 86.4285 95.0523 86.7118 94.557C86.9951 94.0618 87.4189 93.6616 87.9296 93.4072C88.4403 93.1528 89.015 93.0555 89.581 93.1277C90.147 93.2 90.6789 93.4384 91.1093 93.8129C91.5398 94.1873 91.8496 94.6811 91.9995 95.2316C92.1494 95.7822 92.1326 96.3648 91.9514 96.9058C91.7076 97.6308 91.1862 98.2294 90.5016 98.5705C89.817 98.9115 89.0251 98.9671 88.2996 98.7249ZM90.0465 93.51C89.5561 93.3457 89.028 93.3306 88.529 93.4664C88.03 93.6023 87.5825 93.8831 87.2431 94.2732C86.9036 94.6634 86.6875 95.1455 86.6221 95.6585C86.5566 96.1715 86.6448 96.6924 86.8754 97.1554C87.106 97.6183 87.4687 98.0024 87.9176 98.2592C88.3665 98.516 88.8815 98.6339 89.3974 98.598C89.9133 98.5621 90.407 98.374 90.816 98.0576C91.2251 97.7411 91.5311 97.3104 91.6954 96.82C91.9148 96.1624 91.8644 95.4446 91.5553 94.8241C91.2462 94.2036 90.7036 93.731 90.0465 93.51Z" fill="#E6E6E6"/>
<path d="M111.655 106.549C111.712 106.568 111.772 106.576 111.833 106.572C111.893 106.568 111.952 106.552 112.006 106.526C112.06 106.499 112.108 106.462 112.148 106.416C112.188 106.371 112.218 106.318 112.237 106.26C112.256 106.203 112.264 106.143 112.26 106.082C112.256 106.022 112.239 105.963 112.212 105.909C112.185 105.855 112.148 105.807 112.102 105.768C112.056 105.728 112.003 105.698 111.946 105.68L103.13 102.726C103.073 102.707 103.013 102.699 102.952 102.703C102.892 102.707 102.833 102.723 102.779 102.749C102.725 102.776 102.677 102.813 102.637 102.859C102.597 102.904 102.567 102.957 102.548 103.015C102.528 103.072 102.521 103.132 102.525 103.193C102.529 103.253 102.545 103.312 102.572 103.366C102.6 103.42 102.637 103.468 102.683 103.507C102.729 103.547 102.782 103.577 102.839 103.595L111.655 106.549Z" fill="#E6E6E6"/>
<path d="M112.512 103.988C112.57 104.007 112.63 104.015 112.69 104.011C112.75 104.007 112.809 103.991 112.863 103.964C112.916 103.937 112.965 103.9 113.004 103.855C113.044 103.809 113.074 103.756 113.093 103.699C113.112 103.642 113.12 103.582 113.116 103.522C113.111 103.462 113.095 103.403 113.069 103.349C113.042 103.295 113.004 103.247 112.959 103.208C112.914 103.168 112.861 103.138 112.804 103.119L103.988 100.166C103.931 100.146 103.87 100.138 103.81 100.142C103.75 100.146 103.691 100.162 103.637 100.189C103.583 100.216 103.534 100.253 103.495 100.298C103.455 100.344 103.425 100.397 103.405 100.454C103.386 100.511 103.378 100.572 103.383 100.632C103.387 100.692 103.403 100.751 103.43 100.805C103.457 100.859 103.495 100.907 103.541 100.947C103.586 100.986 103.639 101.016 103.697 101.035L112.512 103.988Z" fill="#E6E6E6"/>
<path d="M110.825 94.391C111.366 94.5722 111.841 94.9098 112.19 95.3611C112.539 95.8124 112.747 96.357 112.786 96.9262C112.826 97.4954 112.696 98.0636 112.413 98.5589C112.129 99.0541 111.706 99.4543 111.195 99.7087C110.684 99.9631 110.109 100.06 109.543 99.9882C108.977 99.9159 108.446 99.6775 108.015 99.303C107.585 98.9286 107.275 98.4348 107.125 97.8843C106.975 97.3337 106.992 96.7511 107.173 96.2101C107.417 95.4851 107.938 94.8865 108.623 94.5454C109.307 94.2044 110.099 94.1488 110.825 94.391ZM109.078 99.6059C109.568 99.7702 110.096 99.7853 110.595 99.6495C111.094 99.5136 111.542 99.2328 111.881 98.8426C112.221 98.4525 112.437 97.9704 112.502 97.4574C112.568 96.9443 112.48 96.4234 112.249 95.9605C112.018 95.4976 111.656 95.1135 111.207 94.8567C110.758 94.5999 110.243 94.482 109.727 94.5179C109.211 94.5538 108.717 94.7419 108.308 95.0583C107.899 95.3748 107.593 95.8055 107.429 96.2959C107.21 96.9535 107.26 97.6713 107.569 98.2918C107.878 98.9123 108.421 99.3849 109.078 99.6059Z" fill="#E6E6E6"/>
</svg>
