<svg width="178" height="130" viewBox="0 0 178 130" fill="none" xmlns="http://www.w3.org/2000/svg">
<g clip-path="url(#clip0)">
<path d="M31.8351 0.178345L22.6136 15.2505C25.1042 16.8682 26.865 19.394 27.5213 22.2903C28.1777 25.1866 27.6777 28.2247 26.1278 30.758C24.5779 33.2912 22.1005 35.1195 19.2229 35.8538C16.3454 36.588 13.2949 36.1701 10.7208 34.6891L0.915955 50.7148L95.506 108.587L126.425 58.0503L31.8351 0.178345Z" fill="#EBF2FC"/>
<path d="M17.7835 32.235C21.8854 32.235 25.2107 28.9097 25.2107 24.8078C25.2107 20.7059 21.8854 17.3806 17.7835 17.3806C13.6816 17.3806 10.3563 20.7059 10.3563 24.8078C10.3563 28.9097 13.6816 32.235 17.7835 32.235Z" fill="#EBF2FC"/>
<path d="M86.7007 124.297C101.2 124.297 112.955 123.524 112.955 122.57C112.955 121.616 101.2 120.843 86.7007 120.843C72.2009 120.843 60.4465 121.616 60.4465 122.57C60.4465 123.524 72.2009 124.297 86.7007 124.297Z" fill="#F7F8F9"/>
<path d="M138.864 120.325C153.363 120.325 165.118 119.551 165.118 118.597C165.118 117.643 153.363 116.87 138.864 116.87C124.364 116.87 112.609 117.643 112.609 118.597C112.609 119.551 124.364 120.325 138.864 120.325Z" fill="#F7F8F9"/>
<path d="M2.06549 115.834H177.381" stroke="#2F2E41" stroke-width="0.34545" stroke-miterlimit="10"/>
<path d="M158.641 30.5941H32.5514V115.747H158.641V30.5941Z" fill="#3F3D56"/>
<path d="M32.5514 36.8223H158.641" stroke="#2F2E41" stroke-width="0.34545" stroke-miterlimit="10"/>
<path d="M36.4378 35.2576C37.2964 35.2576 37.9923 34.5616 37.9923 33.7031C37.9923 32.8445 37.2964 32.1486 36.4378 32.1486C35.5793 32.1486 34.8833 32.8445 34.8833 33.7031C34.8833 34.5616 35.5793 35.2576 36.4378 35.2576Z" fill="#4183E4"/>
<path d="M41.1013 35.344C41.9599 35.344 42.6559 34.648 42.6559 33.7894C42.6559 32.9309 41.9599 32.2349 41.1013 32.2349C40.2428 32.2349 39.5468 32.9309 39.5468 33.7894C39.5468 34.648 40.2428 35.344 41.1013 35.344Z" fill="#4183E4"/>
<path d="M45.7649 35.4303C46.6234 35.4303 47.3194 34.7344 47.3194 33.8758C47.3194 33.0173 46.6234 32.3213 45.7649 32.3213C44.9063 32.3213 44.2104 33.0173 44.2104 33.8758C44.2104 34.7344 44.9063 35.4303 45.7649 35.4303Z" fill="#4183E4"/>
<path opacity="0.3" d="M146.809 42.5984H40.4105V63.3254H146.809V42.5984Z" fill="#4183E4"/>
<path opacity="0.3" d="M40.4105 63.3254L146.809 42.5984" stroke="#4183E4" stroke-width="0.34545" stroke-miterlimit="10"/>
<path opacity="0.3" d="M146.809 63.3254L40.4105 42.5984" stroke="#4183E4" stroke-width="0.34545" stroke-miterlimit="10"/>
<path opacity="0.3" d="M65.801 76.4525H40.4105V109.788H65.801V76.4525Z" fill="#4183E4"/>
<path opacity="0.3" d="M146.809 76.4525H121.418V109.788H146.809V76.4525Z" fill="#4183E4"/>
<path opacity="0.3" d="M106.305 76.4525H80.9144V109.788H106.305V76.4525Z" fill="#4183E4"/>
<path opacity="0.3" d="M40.4105 76.4525L65.801 109.788" stroke="#4183E4" stroke-width="0.34545" stroke-miterlimit="10"/>
<path opacity="0.3" d="M65.801 76.4525L40.4105 109.788" stroke="#4183E4" stroke-width="0.34545" stroke-miterlimit="10"/>
<path opacity="0.3" d="M81.0008 76.4525L106.391 109.788" stroke="#4183E4" stroke-width="0.34545" stroke-miterlimit="10"/>
<path opacity="0.3" d="M106.391 76.4525L81.0008 109.788" stroke="#4183E4" stroke-width="0.34545" stroke-miterlimit="10"/>
<path opacity="0.3" d="M121.418 76.4525L146.809 109.788" stroke="#4183E4" stroke-width="0.34545" stroke-miterlimit="10"/>
<path opacity="0.3" d="M146.809 76.4525L121.418 109.788" stroke="#4183E4" stroke-width="0.34545" stroke-miterlimit="10"/>
<path d="M160.972 42.5984H54.5739V63.3254H160.972V42.5984Z" fill="#4183E4"/>
<path d="M151.645 84.3978H126.255V117.734H151.645V84.3978Z" fill="#4183E4"/>
<path d="M147.932 88.8023H129.968V90.875H147.932V88.8023Z" fill="#3F3D56"/>
<path d="M147.932 93.2932H129.968V95.3658H147.932V93.2932Z" fill="#3F3D56"/>
<path d="M147.932 97.784H129.968V99.8567H147.932V97.784Z" fill="#3F3D56"/>
<path d="M147.932 102.275H129.968V104.348H147.932V102.275Z" fill="#3F3D56"/>
<path d="M147.932 106.766H129.968V108.838H147.932V106.766Z" fill="#3F3D56"/>
<path d="M147.932 111.257H129.968V113.329H147.932V111.257Z" fill="#3F3D56"/>
<path d="M72.0191 80.9434H46.6285V114.279H72.0191V80.9434Z" fill="#4183E4"/>
<path d="M68.3055 92.0841H50.3421V94.1568H68.3055V92.0841Z" fill="#3F3D56"/>
<path d="M68.3055 96.575H50.3421V98.6476H68.3055V96.575Z" fill="#3F3D56"/>
<path d="M68.3055 101.066H50.3421V103.138H68.3055V101.066Z" fill="#3F3D56"/>
<path d="M112.926 54.7529C112.926 58.6338 110.619 59.9889 107.773 59.9889C107.707 59.9889 107.641 59.9881 107.576 59.9867C107.444 59.9838 107.313 59.9776 107.184 59.9688C104.616 59.787 102.62 58.3622 102.62 54.7529C102.62 51.0177 107.393 46.3045 107.752 45.9557L107.752 45.9551C107.766 45.9416 107.773 45.935 107.773 45.935C107.773 45.935 112.926 50.872 112.926 54.7529Z" fill="#3F3D56"/>
<path d="M107.585 59.3951L109.47 56.7616L107.581 59.6843L107.576 59.9866C107.444 59.9838 107.313 59.9775 107.184 59.9687L107.387 56.086L107.386 56.0558L107.389 56.0502L107.408 55.6835L105.514 52.7536L107.414 55.4084L107.419 55.4863L107.572 52.5526L105.951 49.5251L107.592 52.0377L107.752 45.9557L107.752 45.9349V45.955L107.726 50.7511L109.34 48.8498L107.719 51.1643L107.676 53.7909L109.184 51.2701L107.67 54.1774L107.646 55.6376L109.835 52.1291L107.638 56.1472L107.585 59.3951Z" fill="#4183E4"/>
<path d="M15.1014 62.8208C17.3367 62.8208 19.1488 61.0087 19.1488 58.7734C19.1488 56.538 17.3367 54.726 15.1014 54.726C12.866 54.726 11.054 56.538 11.054 58.7734C11.054 61.0087 12.866 62.8208 15.1014 62.8208Z" fill="#2F2E41"/>
<path d="M12.9704 61.4679C12.9704 61.4679 13.0314 63.9662 12.7876 64.0272C12.5439 64.0881 16.1391 65.0631 16.1391 65.0631L16.5047 61.6507L12.9704 61.4679Z" fill="#A0616A"/>
<path d="M41.3663 82.7952C41.3663 82.7952 44.0474 82.7952 44.1083 82.4906C44.1693 82.1859 44.7177 84.9889 44.7177 84.9889L43.6209 85.3545C43.6209 85.3545 41.5491 84.4405 41.3663 84.4405C41.1834 84.4405 41.3663 82.7952 41.3663 82.7952Z" fill="#A0616A"/>
<path d="M44.2912 83.8921C44.2912 83.8921 43.8037 82.2468 43.1943 82.1859C43.1943 82.1859 45.2661 80.8453 45.3271 80.4188C45.388 79.9922 46.1192 78.8954 46.4239 79.261C46.7286 79.6266 46.7286 85.4155 46.1802 86.0248C45.6317 86.6342 43.1943 85.1683 43.1943 85.1683C43.1943 85.1683 44.7177 84.5014 44.2912 83.8921Z" fill="#2F2E41"/>
<path d="M11.2034 107.23L10.7159 109.851L12.9705 110.216V107.23H11.2034Z" fill="#A0616A"/>
<path d="M11.2032 109.546C11.2032 109.546 10.8376 108.388 10.5939 108.571C10.3501 108.754 9.98454 109.911 10.0455 110.216C10.1064 110.521 10.533 112.897 10.3501 113.324C10.1673 113.75 11.2642 115.944 12.6657 115.761C14.0672 115.578 13.9453 114.36 13.9453 114.36L13.4579 112.471L13.275 109.485C13.275 109.485 11.6907 109.241 11.2032 109.546Z" fill="#2F2E41"/>
<path d="M13.6856 56.1883C14.6105 56.1883 15.3604 55.4384 15.3604 54.5135C15.3604 53.5885 14.6105 52.8387 13.6856 52.8387C12.7606 52.8387 12.0108 53.5885 12.0108 54.5135C12.0108 55.4384 12.7606 56.1883 13.6856 56.1883Z" fill="#2F2E41"/>
<path d="M11.4525 53.6063C11.4525 53.1923 11.6058 52.793 11.8829 52.4854C12.16 52.1778 12.5411 51.9837 12.9528 51.9406C12.8949 51.9346 12.8366 51.9315 12.7784 51.9315C12.3342 51.9315 11.9082 52.108 11.5941 52.4221C11.28 52.7361 11.1036 53.1621 11.1036 53.6063C11.1036 54.0505 11.28 54.4765 11.5941 54.7906C11.9082 55.1046 12.3342 55.2811 12.7784 55.2811C12.8366 55.2811 12.8949 55.2781 12.9528 55.272C12.5411 55.2289 12.1599 55.0348 11.8829 54.7272C11.6058 54.4196 11.4525 54.0203 11.4525 53.6063Z" fill="#2F2E41"/>
<path d="M15.1032 63.1741C16.5166 63.1741 17.6624 62.0283 17.6624 60.6148C17.6624 59.2014 16.5166 58.0555 15.1032 58.0555C13.6897 58.0555 12.5439 59.2014 12.5439 60.6148C12.5439 62.0283 13.6897 63.1741 15.1032 63.1741Z" fill="#A0616A"/>
<path d="M10.0455 78.4079C10.0455 78.4079 10.1674 81.4547 10.6549 83.039C11.1423 84.6233 12.8998 95.9064 12.5342 96.7595C12.1686 97.6126 10.2892 107.047 10.7158 107.596C11.1423 108.144 13.1532 107.962 13.1532 107.962L15.8857 96.5158C15.8857 96.5158 15.3469 83.8921 19.8561 83.5874C24.3653 83.2827 31.7385 83.0999 31.7385 83.0999C31.7385 83.0999 36.4914 84.5014 38.6242 84.4405C40.7569 84.3796 41.9756 84.9889 41.9756 84.9889L42.3412 82.4906L32.8962 80.4188C32.8962 80.4188 24.2434 77.4329 19.4905 78.2251C14.7375 79.0173 10.0455 78.4079 10.0455 78.4079Z" fill="#2F2E41"/>
<path d="M13.4579 63.235C13.4579 63.235 12.7266 62.8084 12.5438 63.235C12.361 63.6615 11.0814 64.0271 10.5939 63.6615C10.1064 63.2959 8.88772 63.7834 8.88772 63.7834L7.54715 67.7442C7.54715 67.7442 8.21744 71.1566 8.82679 73.0456C9.43614 74.9346 9.67988 78.8344 9.43614 79.2C9.19241 79.5656 14.311 81.0281 16.8093 80.1141C19.3077 79.2 19.8561 78.1641 19.8561 78.1641C19.8561 78.1641 17.114 74.2643 18.028 72.4362C18.942 70.6082 18.2108 68.5364 18.2108 68.5364L18.5764 66.4646L16.5046 65.3068C16.5046 65.3068 16.3828 64.21 15.8953 64.21C15.4078 64.21 13.4579 63.235 13.4579 63.235Z" fill="#4183E4"/>
<path d="M17.6624 66.5255H18.5764C18.83 66.7628 19.0189 67.0607 19.1255 67.3912C19.2321 67.7216 19.2529 68.0738 19.1858 68.4145C18.942 69.5723 17.8428 73.4106 17.8428 73.4106L16.9312 71.0347L17.6624 66.5255Z" fill="#4183E4"/>
<path d="M20.2872 76.3114C20.2872 76.3114 22.1107 78.286 20.7702 79.3219C19.4296 80.3578 19.0992 76.9455 19.0992 76.9455L20.2872 76.3114Z" fill="#A0616A"/>
<path d="M17.6624 72.1925L18.0889 73.8987L18.8202 75.2393C18.8202 75.2393 21.3185 76.8845 21.3185 77.4939C21.3185 77.4939 20.2217 76.0924 18.8202 77.4939L17.571 74.4776L17.6624 72.1925Z" fill="#4183E4"/>
<path d="M15.5722 59.59C17.1138 59.59 18.3635 58.8402 18.3635 57.9152C18.3635 56.9902 17.1138 56.2404 15.5722 56.2404C14.0306 56.2404 12.7809 56.9902 12.7809 57.9152C12.7809 58.8402 14.0306 59.59 15.5722 59.59Z" fill="#2F2E41"/>
<path d="M10.0455 58.0555C10.0455 58.0555 11.9954 56.9587 12.7876 57.7509C13.5797 58.543 10.4111 59.7617 10.4111 59.7617L10.0455 58.0555Z" fill="#A0616A"/>
<path d="M9.31428 64.0881L8.88774 63.7834C8.88774 63.7834 8.40025 63.0522 7.97371 63.296C7.54716 63.5397 5.04881 62.3819 5.04881 62.3819C5.04881 62.3819 5.96284 62.8085 5.96284 62.0773C5.96284 61.346 6.08471 61.4679 6.69407 61.4679C7.30342 61.4679 7.30342 61.7726 7.54715 61.346C7.79089 60.9195 7.66902 60.6757 8.09557 60.9195C8.52212 61.1632 9.0096 60.9804 9.13147 60.7976C9.25334 60.6148 11.447 60.3101 11.447 60.3101C11.447 60.3101 10.5939 57.8118 10.4111 57.629C10.2283 57.4462 5.53631 59.518 5.53631 59.518C5.53631 59.518 -0.374415 61.1632 1.14897 63.0522C2.67235 64.9412 8.15651 67.8052 8.15651 67.8052L9.31428 64.0881Z" fill="#4183E4"/>
<path d="M100.691 89.2341H75.3009V122.57H100.691V89.2341Z" fill="#4183E4"/>
<path d="M93.6961 94.5022H82.2962V105.902H93.6961V94.5022Z" fill="#3F3D56"/>
<path d="M98.0142 108.32H77.9781V109.702H98.0142V108.32Z" fill="#3F3D56"/>
<path d="M98.0142 112.12H77.9781V113.502H98.0142V112.12Z" fill="#3F3D56"/>
<path d="M98.0142 115.92H77.9781V117.302H98.0142V115.92Z" fill="#3F3D56"/>
</g>
<defs>
<clipPath id="clip0">
<rect width="176.483" height="129.589" fill="white" transform="translate(0.898041 0.178345)"/>
</clipPath>
</defs>
</svg>
