<svg width="182" height="126" viewBox="0 0 182 126" fill="none" xmlns="http://www.w3.org/2000/svg">
<g clip-path="url(#clip0)">
<path opacity="0.1" d="M2.0283 66.4041C5.23401 61.1678 12.4834 62.0805 17.6244 64.814C22.7653 67.5474 27.8951 71.6277 33.5528 70.8438C38.3232 70.1823 42.2349 66.0225 44.3482 61.2234C46.4615 56.4244 47.0816 51.0132 47.6763 45.7132C48.4237 39.0548 49.1706 32.3921 49.9169 25.7252C50.1904 23.2875 50.5132 20.7147 51.8839 18.7859C53.695 16.2416 57.0152 15.4593 59.8552 16.2241C62.6952 16.989 65.117 19.0403 67.1889 21.3285C73.8262 28.6558 77.5868 38.5608 83.3892 46.715C84.5707 48.3751 85.9048 50.0161 87.6699 50.8176C90.2141 51.9704 93.1352 51.1547 95.6206 49.8714C103.73 45.691 109.178 37.1599 114.532 29.1997C117.137 25.3309 120.312 21.1933 124.645 20.7719C129.204 20.3187 133.162 24.2035 135.841 28.3171C144.441 41.5534 146.284 59.6237 156.672 71.1681C157.962 72.5993 159.385 73.9223 161.024 74.8111C161.565 75.1033 162.129 75.3506 162.71 75.5506C171.774 78.6879 174.795 91.2818 168.091 98.7491C167.946 98.9081 167.798 99.0671 167.649 99.2261C166.654 100.277 165.526 101.271 164.181 101.584C162.929 101.874 161.637 101.54 160.396 101.179C152.468 98.8651 144.635 95.3287 136.438 95.5004C128.462 95.6594 120.896 99.3438 113.009 100.67C107.706 101.562 102.31 101.384 96.9483 101.192C79.09 100.549 61.2355 99.8017 43.3846 98.9494C34.5243 98.5423 25.6609 98.1544 16.8023 97.7012C9.97739 97.3466 5.62996 96.5658 4.83807 88.6453C4.14477 81.7092 -2.08221 73.1208 2.0283 66.4041Z" fill="#4183E4"/>
<path d="M126.24 125.686C149.951 125.686 169.172 123 169.172 119.686C169.172 116.373 149.951 113.687 126.24 113.687C102.53 113.687 83.3082 116.373 83.3082 119.686C83.3082 123 102.53 125.686 126.24 125.686Z" fill="#30374E" fill-opacity="0.15"/>
<path d="M38.2421 91.1307C37.834 91.2032 37.4344 91.3172 37.0495 91.471C28.4723 94.8961 28.6154 117.317 28.6154 117.317H26.0902C26.0902 117.317 25.2952 107.695 21.8303 93.9675C18.7088 81.6169 31.511 70.5479 34.1109 68.449C34.4035 68.2152 34.5657 68.0912 34.5657 68.0912C47.4601 72.8298 38.2421 91.1307 38.2421 91.1307Z" fill="#AFC0E0"/>
<path opacity="0.2" d="M35.504 68.4808C35.2066 68.344 34.8997 68.2136 34.5737 68.0944C34.5737 68.0944 34.4147 68.2184 34.119 68.4521C31.5191 70.5511 18.7169 81.6201 21.8383 93.9707C25.3032 107.698 26.0904 117.317 26.0904 117.317H27.5103C27.5103 117.317 26.7232 107.695 23.2504 93.9675C20.1417 81.6741 32.8198 70.6465 35.504 68.4808Z" fill="white"/>
<path d="M80.7846 93.9707C77.3117 107.698 76.5294 117.317 76.5294 117.317H73.9994C73.9994 117.317 74.1585 93.8848 64.9786 91.269C64.7798 91.2094 64.5774 91.1621 64.3728 91.1275C64.3728 91.1275 55.15 72.8266 68.0492 68.0912C68.0492 68.0912 68.1796 68.1882 68.4149 68.3774C70.8049 70.2903 83.941 81.477 80.7846 93.9707Z" fill="#AFC0E0"/>
<path opacity="0.1" d="M38.2421 91.1307C37.834 91.2032 37.4344 91.3172 37.0495 91.471C35.4988 83.8818 34.5165 76.1875 34.1109 68.4521C34.4035 68.2184 34.5657 68.0944 34.5657 68.0944C47.4601 72.8298 38.2421 91.1307 38.2421 91.1307Z" fill="black"/>
<path opacity="0.1" d="M68.4198 68.3806C67.894 76.0935 66.7448 83.7511 64.9835 91.2786C64.7847 91.2189 64.5823 91.1717 64.3776 91.1371C64.3776 91.1371 55.1549 72.8362 68.054 68.1008C68.0493 68.0944 68.1797 68.1914 68.4198 68.3806Z" fill="black"/>
<path d="M63.6986 94.6004C62.8081 98.1135 61.7645 101.718 60.5676 105.413C60.5676 105.413 54.8876 111.33 41.1679 105.413C41.1679 105.413 39.7972 101.549 38.2898 94.9804C34.9712 80.5372 30.9911 53.0135 39.4713 24.7425C41.9966 16.2437 45.5859 8.09804 50.1538 0.499268C50.1538 0.499268 57.3985 8.81727 62.7159 24.7377C68.0333 40.6582 71.4171 64.1843 63.6986 94.6004Z" fill="#E3E8F4"/>
<path d="M51.3067 58.5758C57.5973 58.5758 62.6969 53.4763 62.6969 47.1857C62.6969 40.8951 57.5973 35.7955 51.3067 35.7955C45.0161 35.7955 39.9166 40.8951 39.9166 47.1857C39.9166 53.4763 45.0161 58.5758 51.3067 58.5758Z" fill="#AFC0E0"/>
<path d="M59.3845 47.192C59.3845 48.7217 58.9501 50.2199 58.132 51.5124C57.3138 52.8049 56.1454 53.8385 54.7628 54.493C53.3802 55.1475 51.8402 55.396 50.3219 55.2095C48.8037 55.023 47.3695 54.4093 46.1864 53.4397C45.6089 52.9641 45.0995 52.4114 44.6726 51.7971C44.4809 51.5226 44.3067 51.2364 44.151 50.94C43.5452 49.7836 43.2293 48.4975 43.2303 47.192C43.2303 47.1268 43.2303 47.0632 43.2303 46.9996C43.2718 45.2722 43.8654 43.6035 44.9241 42.2379C45.9829 40.8724 47.4512 39.8819 49.1139 39.4115C49.7487 39.2365 50.402 39.1372 51.0602 39.1157H51.3019C52.363 39.1151 53.4138 39.3235 54.3943 39.7291C55.3748 40.1347 56.2658 40.7294 57.0163 41.4794C57.7669 42.2294 58.3624 43.12 58.7687 44.1001C59.1751 45.0803 59.3843 46.131 59.3845 47.192Z" fill="#4183E4"/>
<path d="M62.7144 24.7377C49.7913 30.9249 39.4634 24.7377 39.4634 24.7377C41.9916 16.2401 45.5835 8.09614 50.1539 0.499268C50.1539 0.499268 57.3985 8.81727 62.7144 24.7377Z" fill="#AFC0E0"/>
<path d="M63.6985 94.6004C63.0943 96.9792 62.4211 99.3989 61.6791 101.859C61.3271 103.033 60.9561 104.216 60.566 105.409C60.566 105.409 54.886 111.325 41.1663 105.409C41.1663 105.409 40.7211 104.154 40.0532 101.859C39.5539 100.126 38.9322 97.8029 38.2834 94.9757C38.2834 94.9757 43.3909 97.1558 50.6403 97.1558C55.1188 97.1711 59.5562 96.3027 63.6985 94.6004Z" fill="#AFC0E0"/>
<path d="M61.6791 101.859C61.3272 103.033 60.9562 104.216 60.566 105.409C60.566 105.409 54.8861 111.325 41.1664 105.409C41.1664 105.409 40.7211 104.154 40.0533 101.859C40.0517 101.859 54.0354 105.882 61.6791 101.859Z" fill="#E3E8F4"/>
<path opacity="0.2" d="M49.1186 39.4004L49.1011 39.4131L43.2335 46.9885C43.2335 47.0521 43.2335 47.1157 43.2335 47.1809C43.2325 48.4863 43.5484 49.7725 44.1542 50.9289L51.0681 39.1046L49.1186 39.4004Z" fill="white"/>
<path opacity="0.2" d="M50.9919 46.238L46.1865 53.4334C45.609 52.9578 45.0996 52.4051 44.6727 51.7908L50.3972 45.6465L50.9919 46.238Z" fill="white"/>
<path opacity="0.2" d="M44.2369 105.41C44.2369 105.41 42.8662 101.545 41.3587 94.9772C38.0401 80.5324 34.06 53.0088 42.5402 24.7377C44.8197 17.0882 47.9591 9.72178 51.8981 2.77952C50.8216 1.27048 50.149 0.500854 50.149 0.500854C45.5803 8.09741 41.99 16.2409 39.4633 24.7377C30.9831 53.0088 34.9632 80.5324 38.2818 94.9772C39.7893 101.545 41.16 105.41 41.16 105.41C46.5807 107.746 50.7453 108.236 53.8015 107.975C51.1905 107.776 48.0198 107.04 44.2369 105.41Z" fill="white"/>
<path opacity="0.25" d="M158.69 112.521C157.337 112.862 152.799 111.399 152.799 111.399C152.799 111.399 156.105 107.962 157.458 107.624C157.78 107.543 158.114 107.526 158.442 107.574C158.77 107.623 159.085 107.735 159.37 107.905C159.655 108.075 159.903 108.3 160.101 108.566C160.299 108.832 160.442 109.135 160.523 109.456C160.604 109.778 160.621 110.112 160.572 110.44C160.524 110.768 160.412 111.084 160.241 111.368C160.071 111.653 159.847 111.901 159.58 112.099C159.314 112.297 159.012 112.44 158.69 112.521Z" fill="black"/>
<path d="M164.685 110.912L156.513 99.0607C156.513 99.0607 156.354 96.1269 155.826 95.4416C155.298 94.7562 155.712 93.2313 155.712 93.2313C155.712 93.2313 156.284 92.3933 155.788 92.3169C155.292 92.2406 155.712 90.3722 155.712 90.3722L155.674 87.4002C155.674 87.4002 156.132 84.538 155.75 83.8574C155.638 83.672 155.582 83.4583 155.589 83.242C155.596 83.0256 155.665 82.8158 155.788 82.6378C155.788 82.6378 156.246 80.9983 155.788 80.5801C155.33 80.1619 155.445 77.6066 155.559 75.5871C155.674 73.5676 154.756 72.4243 154.756 72.119C154.756 71.8137 151.735 68.8418 151.735 68.5762C151.735 68.3106 149.827 67.2039 148.68 66.8986C147.534 66.5933 146.961 66.3659 146.999 66.2133C147.038 66.0606 145.204 65.4516 145.204 65.4516C145.204 65.4516 143.6 65.3371 142.988 64.5357C142.375 63.7342 140.509 63.5053 140.454 63.4973C140.443 63.4448 140.431 63.3908 140.42 63.3383C140.408 63.2858 140.396 63.2238 140.385 63.1666C140.529 62.9233 140.663 62.6752 140.784 62.4192C140.82 62.3413 140.855 62.2602 140.889 62.187C141.558 62.1568 142.245 62.0137 142.77 61.6034C143.039 61.3779 143.26 61.0993 143.417 60.785C143.574 60.4707 143.665 60.1274 143.684 59.7764C143.716 59.072 143.562 58.3715 143.237 57.7458C142.903 57.0588 142.412 56.348 142.581 55.6039C142.655 55.2858 142.848 54.9996 142.946 54.6848C143.132 54.0885 142.961 53.4333 142.671 52.88C142.382 52.3266 141.979 51.84 141.658 51.3041C141.248 50.6212 140.974 49.8652 140.852 49.0779C140.787 48.6645 140.761 48.2288 140.553 47.8647C140.38 47.5944 140.152 47.3641 139.884 47.1889C138.689 46.3343 137.246 45.8968 135.778 45.9438C134.738 45.9804 133.701 46.2618 132.669 46.133C132.047 46.0567 131.454 45.8357 130.853 45.656C129.572 45.2775 128.094 45.1217 126.978 45.8547C125.862 46.5878 125.418 48.03 124.663 49.1574C123.995 50.1561 123.015 50.9925 122.507 52.0483C122.507 52.0292 122.516 52.0086 122.523 51.9879C122.397 52.2322 122.302 52.4906 122.238 52.7575C122.044 53.5876 122.206 54.4558 122.408 55.2842C122.511 55.712 122.655 56.1763 123.025 56.4132C123.396 56.6502 123.92 56.5977 124.359 56.6756C124.343 56.7472 124.324 56.8203 124.308 56.8935C123.854 59.0406 124.225 61.2801 125.347 63.166C126.47 65.0519 128.261 66.4459 130.365 67.0703C130.365 67.1483 130.365 67.2294 130.365 67.3025C130.364 67.5215 130.351 67.7402 130.325 67.9576C130.325 67.9576 126.485 67.1626 125.453 67.7032C124.421 68.2439 122.397 68.6573 122.092 68.9594C121.786 69.2615 121.023 69.0357 120.342 70.8278C119.662 72.6199 119.579 74.447 118.7 75.2802C117.82 76.1134 117.364 76.6907 117.326 77.3013C117.288 77.9119 117.44 78.063 117.095 78.2554C116.75 78.4478 116.256 79.246 116.408 79.5513C116.408 79.5513 116.599 80.313 115.989 80.693C115.378 81.0731 115.453 81.8363 115.453 81.8363C115.453 81.8363 115.224 82.6759 114.69 82.8652C114.155 83.0544 113.81 84.3138 113.81 84.3138L112.072 86.3094L108.639 82.509C108.382 82.2242 108.022 82.0531 107.639 82.0334C107.256 82.0137 106.881 82.1471 106.596 82.404L104.91 83.9242C104.26 84.082 103.672 84.4322 103.223 84.9292C102.856 85.3063 102.56 85.7471 102.35 86.2299L101.426 87.0599C101.136 87.42 100.958 87.8579 100.916 88.3185C100.874 88.7791 100.969 89.2419 101.189 89.6487L103.388 92.08L103.403 92.1007C102.571 92.2056 101.836 92.4728 101.275 92.9673C97.9915 95.8629 97.9517 98.5328 98.4494 99.7492C98.9471 100.966 103.109 105.657 103.109 105.657C103.109 105.657 105.527 108.8 109.019 110.473L108.992 110.5C108.924 110.573 108.855 110.659 108.789 110.739L108.731 110.812L108.679 110.885L108.617 110.977C108.599 111.001 108.583 111.026 108.567 111.052C108.552 111.077 108.523 111.123 108.502 111.162L108.459 111.235C108.434 111.283 108.407 111.332 108.381 111.383L108.356 111.432C108.324 111.499 108.292 111.567 108.262 111.639C108.251 111.664 108.241 111.691 108.23 111.717C108.211 111.766 108.191 111.817 108.172 111.876C108.152 111.934 108.148 111.941 108.137 111.974C108.125 112.008 108.103 112.073 108.087 112.124C108.071 112.175 108.065 112.195 108.055 112.23C108.046 112.265 108.024 112.342 108.009 112.399C107.995 112.456 107.992 112.466 107.982 112.502C107.962 112.59 107.941 112.68 107.923 112.776C107.923 112.811 107.911 112.847 107.904 112.884C107.892 112.947 107.881 113.013 107.871 113.079C107.863 113.125 107.858 113.172 107.852 113.218C107.846 113.264 107.836 113.343 107.828 113.407L107.814 113.553C107.814 113.623 107.801 113.696 107.796 113.769C107.796 113.814 107.796 113.859 107.788 113.903C107.788 114.024 107.776 114.145 107.774 114.272C107.698 118.724 107.958 119.378 107.958 119.378C107.958 119.378 108.498 120.798 109.986 120.9C110.204 120.916 110.424 120.904 110.639 120.865C112.626 120.521 117.285 119.721 118.927 120.027C119.915 120.21 121.743 119.939 123.046 119.693L123.388 119.628L123.626 120.384L124.381 120.178L125.017 120.548L125.423 120.78C126.177 123.337 129.239 122.466 129.239 122.466L129.958 122.883L137.33 123.073C137.33 123.073 138.92 124.027 139.939 124.326C140.06 124.363 140.184 124.39 140.31 124.407C140.993 124.462 141.679 124.475 142.364 124.446C142.929 124.431 143.366 124.407 143.366 124.407C143.366 124.407 143.291 122.406 143.183 120.165C146.001 120.047 148.499 119.871 150.011 119.605C153.948 118.914 155.591 115.334 156.195 113.421C156.377 114.203 156.506 114.996 156.582 115.795C156.742 116.493 156.947 117.181 157.194 117.853C157.409 118.394 157.691 118.906 158.033 119.376C160.937 118.386 159.18 116.9 158.568 116.252C157.956 115.603 158.989 115.07 158.989 115.07C158.989 115.07 159.784 114.538 159.714 114.041C159.644 113.545 159.6 113.013 162.196 113.051C164.793 113.089 164.685 110.912 164.685 110.912ZM124.35 86.5829C124.383 86.8007 124.746 89.1494 125.073 89.7632C125.141 89.8936 125.169 90.3563 125.159 91.0178C123.62 90.8954 122.017 90.8302 122.017 90.8302C122.063 90.8858 122.092 90.9539 122.1 91.0257L121.858 90.9717L121.506 90.8858L124.342 86.5734L124.35 86.5829ZM118.733 95.5195L121.397 95.9425L121.621 95.9774C121.545 96.3928 121.498 96.8132 121.483 97.2352C121.483 97.275 121.543 97.3227 121.629 97.3783C121.592 97.5883 121.574 97.8012 121.576 98.0144C121.619 98.2259 122.864 98.6807 124.292 99.0591C124.273 99.1354 124.254 99.2086 124.235 99.277C122.974 98.6139 120.986 98.3038 120.757 97.8109C120.528 97.3179 113.761 94.9486 113.761 94.9486C113.761 94.9486 113.514 94.8182 113.088 94.6115L114.869 94.9486L115.359 94.8993C116.469 95.1771 117.596 95.3832 118.733 95.5163V95.5195Z" fill="url(#paint0_linear)"/>
<path d="M155.99 112.571C155.99 112.571 154.931 118.968 149.555 119.914C144.179 120.86 126.234 120.671 126.234 120.671C126.234 120.671 115.974 119.195 112.265 110.526C108.555 101.856 106.17 98.4104 109.35 98.2593C112.53 98.1082 129.68 104.052 130.658 104.127C131.636 104.202 156.936 90.9526 155.99 112.571Z" fill="#3F4D65"/>
<path opacity="0.05" d="M155.99 112.571C155.99 112.571 154.931 118.968 149.555 119.914C144.179 120.86 126.234 120.671 126.234 120.671C126.234 120.671 115.974 119.195 112.265 110.526C108.555 101.856 106.17 98.4104 109.35 98.2593C112.53 98.1082 129.68 104.052 130.658 104.127C131.636 104.202 156.936 90.9526 155.99 112.571Z" fill="black"/>
<path d="M107.866 119.686C107.866 119.686 108.402 121.098 109.876 121.199C110.093 121.214 110.31 121.202 110.523 121.164C112.492 120.823 117.111 120.028 118.738 120.33C119.718 120.513 121.529 120.243 122.818 120C123.677 119.841 124.303 119.682 124.303 119.682C124.303 119.682 122.79 114.647 122.599 114.496C122.408 114.345 115.785 110.37 115.785 110.37L110.538 109.993H110.522C110.522 109.993 109.55 110.058 108.744 111.038C108.189 111.707 107.714 112.807 107.682 114.611C107.609 119.042 107.866 119.686 107.866 119.686Z" fill="#3F4D65"/>
<path opacity="0.05" d="M107.866 119.686C107.866 119.686 108.402 121.098 109.876 121.199C109.359 120.534 108.881 119.839 108.445 119.119L108.472 115.447C108.238 112.698 109.525 110.937 110.539 109.998H110.523C110.523 109.998 107.76 110.185 107.683 114.609C107.607 119.033 107.866 119.686 107.866 119.686Z" fill="black"/>
<path opacity="0.1" d="M130.626 111.661L135.509 107.845L143.194 100.272C143.194 100.272 142.364 100.233 141.113 100.179C140.795 100.377 139.928 101.002 139.896 101.769C139.858 102.694 137.818 101.832 136.759 102.362C135.7 102.891 130.513 109.53 129.603 109.487C128.694 109.444 127.977 109.026 127.597 109.67C127.597 109.684 127.579 109.697 127.57 109.711L130.626 111.661Z" fill="black"/>
<path opacity="0.1" d="M108.746 111.041C108.919 111.125 109.094 111.2 109.274 111.283C112.985 112.873 117.565 116.212 117.906 116.81C118.113 117.179 120.769 118.791 122.818 120C123.677 119.841 124.304 119.682 124.304 119.682C124.304 119.682 122.79 114.647 122.599 114.496C122.408 114.345 115.785 110.37 115.785 110.37L110.538 109.993H110.522C110.522 109.993 109.552 110.061 108.746 111.041Z" fill="black"/>
<path d="M98.4478 100.19C98.9391 101.401 103.059 106.059 103.059 106.059C103.059 106.059 105.67 109.465 109.382 111.055C113.093 112.645 117.673 115.985 118.013 116.582C118.232 116.972 121.193 118.753 123.273 119.977L123.739 120.249L124.773 120.849L125.32 121.167C125.32 121.167 126.592 120.149 127.849 119.125C129.107 118.101 130.335 117.098 130.355 117.04C130.392 116.928 130.883 115.64 130.771 115.565C130.712 115.525 130.452 115 129.975 114.393C129.466 113.719 128.806 113.174 128.047 112.803C126.297 112.008 125.549 110.198 125.549 110.198C125.549 110.198 125.389 110.077 125.13 109.918C124.682 109.635 123.962 109.228 123.429 109.16C122.594 109.055 121.044 107.352 121.044 107.352C121.044 107.352 119.983 106.67 119.566 105.8C119.169 104.97 113.298 100.937 112.754 100.565L126.988 109.705L130.394 111.895L135.277 108.078L142.964 100.506C142.964 100.506 141.93 100.455 140.419 100.392C136.684 100.233 130.05 99.9767 129.212 100.166C128.53 100.325 127.826 100.371 127.129 100.301C127.129 100.301 125.24 100.387 123.99 99.727C122.74 99.0671 120.77 98.7586 120.543 98.2704C120.315 97.7823 113.615 95.432 113.615 95.432C113.615 95.432 104.492 90.5869 101.235 93.465C97.9787 96.3432 97.9549 98.9796 98.4478 100.19Z" fill="#3F4D65"/>
<path d="M127.862 72.4037L129.036 76.3027L130.55 85.085L136.115 85.4635L137.726 82.792L139.34 80.1254C139.34 80.1254 140.342 76.5762 141.062 73.1431C141.698 70.1059 142.115 67.1578 141.421 66.8382C140.808 66.5536 140.404 65.5311 140.149 64.4307C140.116 64.2956 140.086 64.1572 140.057 64.0189C139.872 63.0873 139.748 62.1444 139.688 61.1964C139.688 61.1964 128.028 60.5921 129.656 65.3991C129.947 66.2203 130.095 67.085 130.095 67.9561C130.093 68.1734 130.08 68.3905 130.055 68.6064C129.972 69.3566 129.734 70.0815 129.357 70.7351C128.98 71.3887 128.471 71.9569 127.862 72.4037Z" fill="#EE8E9E"/>
<path d="M125.439 71.7596L125.855 78.3841L126.802 84.0243L127.862 86.6369L128.808 100.929C128.808 100.929 137.937 101.985 140.157 100.91C140.317 100.842 140.456 100.732 140.559 100.592C143.24 96.5482 142.361 84.8194 142.361 84.8194L143.384 77.2456L142.701 73.3147L141.056 73.1398L139.783 73.0047C139.783 73.0047 139.497 73.3577 139.084 73.9031C137.961 75.3851 135.904 78.2998 136.036 79.5163C136.223 81.1827 135.808 82.8858 135.164 83.1513C134.52 83.4169 133.991 83.8701 133.878 83.4169C133.765 82.9637 133.65 82.8492 133.763 82.2052C133.876 81.5612 133.27 79.5926 133.27 79.5926C133.27 79.5926 132.249 77.2837 132.316 76.2994C132.383 75.3151 132.203 74.1782 131.9 73.9142C131.596 73.6503 131.181 73.3831 131.521 72.1651C131.861 70.947 130.028 68.5952 130.028 68.5952L125.439 71.7596Z" fill="#E3E8F4"/>
<path opacity="0.1" d="M137.497 88.305L137.875 99.6252L140.062 100.837C140.222 100.769 140.361 100.659 140.464 100.519C143.147 96.4688 142.267 84.7415 142.267 84.7415L143.29 77.1693L142.608 73.2401L140.96 73.0651C141.596 70.028 142.013 67.0799 141.321 66.7602C140.706 66.4756 140.302 65.4532 140.039 64.3528L138.863 72.3671C138.863 72.3671 138.961 73.089 138.996 73.8332C139.023 74.3865 139.014 74.9463 138.901 75.2436C138.635 75.9258 138.825 77.1375 138.825 77.1375C138.142 78.3396 137.802 80.5674 137.635 82.7189C137.411 85.5795 137.497 88.305 137.497 88.305Z" fill="black"/>
<path d="M140.076 64.1779C140.076 64.1779 141.984 64.4148 142.588 65.2099C143.193 66.0049 144.784 66.1146 144.784 66.1146C144.784 66.1146 146.602 66.7205 146.564 66.8715C146.526 67.0226 147.093 67.2516 148.23 67.5537C149.367 67.8558 151.251 68.9546 151.251 69.2202C151.251 69.4857 154.243 72.437 154.243 72.7407C154.243 73.0445 155.152 74.1719 155.038 76.185C154.923 78.1981 154.81 80.728 155.265 81.1446C155.72 81.5612 155.265 83.1895 155.265 83.1895C155.144 83.3676 155.078 83.5768 155.074 83.7918C155.069 84.0069 155.128 84.2185 155.241 84.4012C155.62 85.0834 155.166 87.9234 155.166 87.9234L155.203 90.8762C155.203 90.8762 154.786 92.7303 155.279 92.8067C155.772 92.883 155.203 93.7146 155.203 93.7146C155.203 93.7146 154.786 95.23 155.317 95.9106C155.849 96.5912 155.998 99.5075 155.998 99.5075L164.108 111.275C164.108 111.275 164.222 113.432 161.648 113.394C159.073 113.356 159.104 113.887 159.186 114.378C159.269 114.87 158.468 115.401 158.468 115.401C158.468 115.401 157.445 115.93 158.051 116.574C158.657 117.218 160.398 118.694 157.521 119.678C157.181 119.211 156.901 118.702 156.688 118.165C156.444 117.497 156.242 116.814 156.082 116.121C156.082 116.121 155.817 113.243 155.287 112.865C154.758 112.486 154.832 110.669 154.832 110.669C154.832 110.669 155.589 109.193 154.53 108.587C153.471 107.981 138.084 99.4709 138.084 99.4709L137.705 88.1508C137.705 88.1508 137.44 79.785 139.03 76.9832C139.03 76.9832 138.84 75.7715 139.106 75.091C139.372 74.4104 139.068 72.2128 139.068 72.2128L140.076 64.1779Z" fill="#3F4D65"/>
<path opacity="0.1" d="M130.154 68.7193C130.154 68.7193 126.348 67.9354 125.326 68.4649C124.304 68.9944 122.305 69.419 121.987 69.7148C121.669 70.0105 120.926 69.7911 120.246 71.5704C119.565 73.3498 119.487 75.1657 118.617 75.999C117.747 76.8322 117.293 77.3999 117.254 78.0057C117.216 78.6116 117.367 78.7626 117.027 78.9598C116.687 79.157 116.194 79.9441 116.345 80.2478C116.496 80.5515 124.234 87.2047 124.234 87.2047C124.234 87.2047 124.614 89.7489 124.954 90.3849C125.294 91.021 124.575 99.8876 123.819 100.493C123.062 101.099 128.929 101.044 128.929 101.044C128.929 101.044 129.193 95.2317 129.421 94.928C129.648 94.6242 129.262 88.4084 129.262 88.4084C129.262 88.4084 129.223 83.1085 129.716 81.7076C130.209 80.3066 130.154 75.6555 130.154 75.6555C130.154 75.6555 130.589 72.8616 131.119 72.2097C131.648 71.5577 130.154 68.7193 130.154 68.7193Z" fill="black"/>
<path d="M130.041 68.6064C130.041 68.6064 126.234 67.8225 125.211 68.352C124.189 68.8815 122.19 69.2981 121.88 69.6018C121.57 69.9055 120.821 69.6766 120.131 71.4559C119.441 73.2353 119.374 75.0528 118.503 75.8861C117.631 76.7193 117.178 77.287 117.14 77.8928C117.102 78.4986 117.254 78.6497 116.914 78.8389C116.574 79.0282 116.081 79.8232 116.232 80.1254C116.383 80.4275 124.106 87.0917 124.106 87.0917C124.106 87.0917 124.485 89.636 124.825 90.272C125.165 90.9081 124.447 99.7731 123.69 100.379C122.933 100.985 128.8 100.929 128.8 100.929C128.8 100.929 129.066 95.1172 129.293 94.815C129.521 94.5129 129.134 88.2955 129.134 88.2955C129.134 88.2955 129.098 82.9955 129.589 81.5946C130.08 80.1937 130.026 75.5362 130.026 75.5362C130.026 75.5362 130.462 72.7424 130.99 72.092C131.518 71.4416 130.041 68.6064 130.041 68.6064Z" fill="#3F4D65"/>
<path opacity="0.1" d="M129.64 65.3991C129.931 66.2203 130.079 67.085 130.079 67.9561C131.941 68.5075 133.933 68.4194 135.739 67.7058C137.545 66.9921 139.059 65.6941 140.041 64.0189C139.856 63.0873 139.732 62.1444 139.672 61.1964C139.672 61.1964 128.013 60.5921 129.64 65.3991Z" fill="black"/>
<path d="M123.887 59.417C123.889 61.6378 124.743 63.7731 126.273 65.3826C127.803 66.9921 129.893 67.9531 132.111 68.0673C134.328 68.1815 136.506 67.4402 138.193 65.9964C139.88 64.5525 140.949 62.5162 141.179 60.3074C141.409 58.0985 140.783 55.8857 139.429 54.1251C138.076 52.3645 136.098 51.1906 133.904 50.8453C131.71 50.5 129.468 51.0098 127.639 52.2695C125.81 53.5292 124.534 55.4427 124.075 57.6154C123.949 58.2077 123.886 58.8116 123.887 59.417Z" fill="#EE8E9E"/>
<path d="M118.321 79.4813L116.24 80.1253C116.24 80.1253 116.429 80.8822 115.823 81.2607C115.217 81.6391 115.294 82.3976 115.294 82.3976C115.294 82.3976 115.066 83.2293 114.537 83.4185C114.007 83.6077 113.665 84.8496 113.665 84.8496L111.924 86.8564C111.924 86.8564 111.28 87.3859 111.395 87.6514C111.509 87.917 110.713 87.9917 110.713 87.9917L111.129 94.7371L114.726 95.4193L116.952 95.1919L118.77 94.5097L120.36 93.5556L121.085 91.7158L124.265 86.8707L118.321 79.4813Z" fill="#3F4D65"/>
<path d="M111.242 88.5356C111.242 88.5356 106.631 81.8714 103.179 85.4683C99.7264 89.0651 104.58 94.8946 105.715 94.7054C106.85 94.5161 112.265 94.214 112.265 94.214L111.242 88.5356Z" fill="#EE8E9E"/>
<path d="M105.965 83.8922L101.693 87.7455C100.87 88.4878 100.804 89.7568 101.547 90.5797L106.292 95.8413C107.035 96.6642 108.304 96.7296 109.127 95.9873L113.399 92.134C114.222 91.3917 114.287 90.1228 113.545 89.2998L108.799 84.0383C108.057 83.2153 106.788 83.1499 105.965 83.8922Z" fill="#30374E"/>
<path opacity="0.1" d="M105.965 83.8922L101.693 87.7455C100.87 88.4878 100.804 89.7568 101.547 90.5797L106.292 95.8413C107.035 96.6642 108.304 96.7296 109.127 95.9873L113.399 92.134C114.222 91.3917 114.287 90.1228 113.545 89.2998L108.799 84.0383C108.057 83.2153 106.788 83.1499 105.965 83.8922Z" fill="black"/>
<path d="M106.095 83.3434L101.823 87.1967C101 87.9391 100.934 89.208 101.677 90.031L106.422 95.2925C107.165 96.1155 108.434 96.1809 109.257 95.4385L113.529 91.5852C114.352 90.8429 114.417 89.574 113.675 88.751L108.929 83.4895C108.187 82.6665 106.918 82.6011 106.095 83.3434Z" fill="#30374E"/>
<path d="M107.555 91.8224C108.746 91.8224 109.712 90.8563 109.712 89.6646C109.712 88.4729 108.746 87.5068 107.555 87.5068C106.363 87.5068 105.397 88.4729 105.397 89.6646C105.397 90.8563 106.363 91.8224 107.555 91.8224Z" fill="#4183E4"/>
<path opacity="0.1" d="M107.555 91.8224C108.746 91.8224 109.712 90.8563 109.712 89.6646C109.712 88.4729 108.746 87.5068 107.555 87.5068C106.363 87.5068 105.397 88.4729 105.397 89.6646C105.397 90.8563 106.363 91.8224 107.555 91.8224Z" fill="black"/>
<path d="M107.675 91.5489C108.867 91.5489 109.833 90.5828 109.833 89.3911C109.833 88.1994 108.867 87.2333 107.675 87.2333C106.484 87.2333 105.518 88.1994 105.518 89.3911C105.518 90.5828 106.484 91.5489 107.675 91.5489Z" fill="#4183E4"/>
<path d="M108.253 89.9302C108.214 94.928 118.55 95.987 118.55 95.987L121.19 96.4068L122.373 96.5944L122.866 91.7159C122.866 91.7159 122.324 91.6348 121.646 91.4774C120.646 91.2436 119.35 90.8413 119.078 90.2768C118.625 89.3307 108.289 84.934 108.253 89.9302Z" fill="#EE8E9E"/>
<path opacity="0.1" d="M124.075 57.6154C124.313 57.6329 124.538 57.733 124.711 57.8984C125.003 58.2085 125.019 58.7587 125.399 58.9495C125.541 59.0113 125.698 59.0296 125.851 59.002C126.857 58.8589 127.441 57.7299 128.406 57.4118C128.956 57.2337 129.562 57.3498 130.1 57.5565C130.316 57.6243 130.51 57.749 130.661 57.9175C130.979 58.3357 130.758 58.9511 130.907 59.4584C131.116 60.1612 131.955 60.4411 132.682 60.5333C133.409 60.6255 134.228 60.6764 134.713 61.225C135.056 61.6146 135.144 62.1791 135.074 62.6895C135.031 62.8677 135.031 63.0535 135.074 63.2317C135.274 63.7994 136.257 63.7088 136.513 63.2667C136.7 62.9408 136.643 62.6704 137.085 62.5798C137.384 62.5178 137.735 62.6434 138.012 62.7388C138.783 63.0047 139.595 63.1297 140.41 63.1077C140.925 62.0017 141.201 60.7993 141.22 59.5792C141.239 58.3592 141 57.1489 140.519 56.0275C140.038 54.9061 139.326 53.8989 138.429 53.0717C137.532 52.2445 136.47 51.6159 135.314 51.227C134.157 50.8382 132.931 50.6978 131.717 50.815C130.502 50.9323 129.326 51.3046 128.265 51.9076C127.204 52.5106 126.283 53.3306 125.561 54.3142C124.839 55.2978 124.332 56.4227 124.075 57.6154Z" fill="black"/>
<path d="M135.069 63.0028C135.026 62.8246 135.026 62.6388 135.069 62.4606C135.137 61.947 135.051 61.3841 134.708 60.9961C134.231 60.4475 133.404 60.395 132.677 60.3044C131.951 60.2137 131.111 59.9339 130.903 59.231C130.753 58.7238 130.979 58.1068 130.656 57.6886C130.506 57.5201 130.312 57.3958 130.096 57.3292C129.557 57.1209 128.952 57.0112 128.401 57.1829C127.436 57.501 126.853 58.6331 125.846 58.7731C125.694 58.8007 125.536 58.7824 125.394 58.7206C125.014 58.5298 124.998 57.9796 124.706 57.6711C124.246 57.1845 123.373 57.4978 122.81 57.1368C122.443 56.8999 122.302 56.4403 122.2 56.0158C121.999 55.1921 121.839 54.3286 122.031 53.505C122.36 52.0961 123.621 51.1309 124.416 49.9287C125.165 48.8077 125.585 47.3845 126.711 46.6467C127.837 45.9089 129.282 46.0727 130.551 46.4495C131.146 46.626 131.734 46.8455 132.35 46.9266C133.374 47.0522 134.401 46.7675 135.431 46.7389C136.887 46.6919 138.317 47.1262 139.5 47.9745C139.767 48.1491 139.994 48.3784 140.165 48.6471C140.37 49.0096 140.397 49.4422 140.459 49.8524C140.58 50.635 140.85 51.3871 141.254 52.0675C141.572 52.6002 141.972 53.0836 142.259 53.6338C142.547 54.1839 142.716 54.8343 142.531 55.4258C142.434 55.7439 142.242 56.019 142.17 56.3386C142.002 57.078 142.488 57.784 142.821 58.4662C143.143 59.0884 143.295 59.7843 143.263 60.4841C143.244 60.8325 143.154 61.1733 142.998 61.4855C142.842 61.7976 142.624 62.0743 142.356 62.2984C141.82 62.7182 141.116 62.8581 140.437 62.8804C139.606 62.9084 138.777 62.7839 137.991 62.5131C137.713 62.4177 137.355 62.2921 137.064 62.3541C136.622 62.4447 136.68 62.715 136.492 63.041C136.25 63.4862 135.269 63.5705 135.069 63.0028Z" fill="#3F4D65"/>
<path opacity="0.1" d="M130.399 111.888L135.282 108.072L142.969 100.5C142.969 100.5 141.935 100.449 140.424 100.385C140.149 100.665 139.904 101.021 139.888 101.419C139.85 102.344 137.81 101.484 136.751 102.014C135.692 102.543 130.505 109.18 129.595 109.137C128.686 109.094 127.969 108.676 127.589 109.32C127.581 109.335 127.572 109.35 127.562 109.363C127.411 109.536 127.208 109.656 126.984 109.705L130.399 111.888Z" fill="black"/>
<path d="M120.556 111.623L123.009 119.456L123.394 120.687L124.563 120.369L127.139 119.661L138.613 116.509C138.613 116.509 140.769 116.481 142.748 115.407C144.934 114.218 147.4 113.62 149.878 113.852C151.395 113.994 153.082 113.34 154.489 110.755C154.489 110.755 157.669 101.373 149.642 98.6695C141.615 95.9663 141.234 100.101 141.234 100.101C141.234 100.101 141.192 100.123 141.126 100.167C140.808 100.366 139.941 100.991 139.909 101.758C139.871 102.683 137.831 101.821 136.772 102.351C135.713 102.88 130.526 109.519 129.616 109.476C128.707 109.433 127.989 109.015 127.609 109.659C127.609 109.673 127.592 109.686 127.582 109.7C127.303 110.087 126.46 110.177 125.902 110.192C125.598 110.201 125.377 110.192 125.377 110.192L125.305 110.214L124.711 110.379L120.556 111.623Z" fill="#3F4D65"/>
<path opacity="0.1" d="M121.19 96.4068L122.373 96.5944L122.866 91.7159C122.866 91.7159 122.324 91.6348 121.646 91.4774C121.826 92.1532 121.419 94.788 121.19 96.4068Z" fill="black"/>
<path opacity="0.1" d="M152.147 73.5883C152.147 73.5883 155.667 72.5659 154.796 82.5615C153.925 92.5571 147.415 98.8715 147.415 98.8715C147.415 98.8715 139.919 102.165 136.549 101.635C133.18 101.106 130.72 100.999 130.72 100.999C129.659 100.463 128.499 100.154 127.312 100.091C125.418 100.015 121.444 98.8413 121.368 98.4628C121.292 98.0844 122.352 92.5189 121.898 92.1023C121.898 92.1023 127.198 92.3202 127.729 92.7034C128.26 93.0866 129.015 92.8115 129.583 92.7034C130.15 92.5952 131.893 91.0798 135.337 92.406C135.337 92.406 136.511 92.5189 136.966 92.2168C137.421 91.9147 138.149 92.1405 138.149 92.1405C138.149 92.1405 138.863 91.8749 138.972 91.7159C139.082 91.5569 139.993 91.7159 139.993 91.7159C140.047 91.7423 140.107 91.7563 140.167 91.7569C140.227 91.7574 140.287 91.7445 140.341 91.719C140.396 91.6936 140.444 91.6562 140.482 91.6097C140.521 91.5633 140.548 91.5088 140.563 91.4503C140.682 91.1404 140.862 90.8576 141.092 90.6187C141.092 90.6187 142.115 84.864 144.045 82.7062C144.045 82.7062 144.613 82.2132 144.462 81.6074C144.311 81.0016 147.609 72.3751 152.147 73.5883Z" fill="black"/>
<path d="M152.061 72.8187C152.061 72.8187 155.582 71.7962 154.712 81.7918C153.842 91.7874 147.321 98.1082 147.321 98.1082C147.321 98.1082 139.825 101.401 136.455 100.872C133.086 100.342 130.626 100.228 130.626 100.228C129.566 99.6915 128.405 99.3822 127.218 99.3199C125.326 99.2436 121.351 98.07 121.274 97.6916C121.198 97.3131 122.259 91.7477 121.805 91.331C121.805 91.331 127.105 91.5489 127.635 91.9321C128.164 92.3153 128.923 92.0402 129.491 91.9321C130.058 91.824 131.799 90.3102 135.245 91.6347C135.245 91.6347 136.419 91.7476 136.872 91.4455C137.325 91.1434 138.057 91.3692 138.057 91.3692C138.057 91.3692 138.766 91.1036 138.879 90.9526C138.992 90.8015 139.901 90.9526 139.901 90.9526C139.955 90.979 140.014 90.9931 140.074 90.9937C140.134 90.9944 140.194 90.9816 140.248 90.9562C140.303 90.9309 140.351 90.8938 140.389 90.8475C140.427 90.8011 140.454 90.7469 140.469 90.6886C140.588 90.3781 140.768 90.0947 140.998 89.8554C140.998 89.8554 142.021 84.1007 143.951 81.9429C143.951 81.9429 144.519 81.4499 144.368 80.8457C144.217 80.2414 147.51 71.607 152.061 72.8187Z" fill="#3F4D65"/>
<path opacity="0.1" d="M124.711 110.379L129.71 116.422C129.729 116.404 129.742 116.392 129.742 116.387C129.78 116.272 130.271 114.986 130.158 114.91C130.045 114.833 129.174 112.941 127.433 112.146C126.369 111.669 125.673 110.796 125.293 110.198L124.711 110.379Z" fill="black"/>
<path opacity="0.1" d="M124.779 120.849L125.326 121.167C125.326 121.167 126.598 120.149 127.856 119.125C129.114 118.101 130.341 117.098 130.362 117.04C130.398 116.927 130.89 115.639 130.777 115.565C130.718 115.525 130.459 115 129.982 114.393C126.592 113.439 128.749 115.797 129.037 115.905C129.037 115.905 124.903 114.951 124.683 119.453C124.653 119.92 124.686 120.39 124.779 120.849Z" fill="black"/>
<path d="M128.959 122.754L129.68 123.17L136.994 123.36C136.994 123.36 138.562 124.314 139.58 124.603C139.7 124.64 139.823 124.668 139.947 124.684C140.624 124.739 141.304 124.752 141.983 124.722C142.542 124.708 142.976 124.684 142.976 124.684C142.976 124.684 142.63 115.461 142.369 114.507C142.245 114.043 141.633 114.145 141.029 114.377C140.575 114.561 140.137 114.783 139.72 115.04C139.72 115.04 136.616 115.341 136.123 115.608C135.63 115.875 134.231 115.449 133.359 115.608C132.488 115.767 130.938 114.582 130.938 114.582C126.697 113.183 129.082 115.794 129.384 115.908C129.384 115.908 125.259 114.954 125.032 119.456C124.804 123.957 128.959 122.754 128.959 122.754Z" fill="#3F4D65"/>
<path d="M139.523 119.195C139.602 121.103 141.089 123.471 141.975 124.722C142.534 124.708 142.969 124.684 142.969 124.684C142.969 124.684 142.622 115.461 142.361 114.507C142.237 114.043 141.625 114.145 141.021 114.377C140.294 115.744 139.459 117.657 139.523 119.195Z" fill="#3F4D65"/>
<path opacity="0.1" d="M139.523 119.195C139.602 121.103 141.089 123.471 141.975 124.722C142.534 124.708 142.969 124.684 142.969 124.684C142.969 124.684 142.622 115.461 142.361 114.507C142.237 114.043 141.625 114.145 141.021 114.377C140.294 115.744 139.459 117.657 139.523 119.195Z" fill="black"/>
<path opacity="0.05" d="M138.273 119.448C138.775 121.289 138.771 123.355 139.572 124.603C139.692 124.64 139.815 124.668 139.939 124.684C140.616 124.739 141.296 124.752 141.975 124.722C142.534 124.708 142.969 124.684 142.969 124.684C142.969 124.684 142.622 115.461 142.361 114.507C142.237 114.043 141.625 114.145 141.021 114.377C140.567 114.561 140.129 114.783 139.712 115.04C139.712 115.04 137.63 117.091 138.273 119.448Z" fill="black"/>
<path opacity="0.1" d="M113.066 100.77C113.066 100.77 116.695 101.948 119.77 106.134L113.066 100.77Z" fill="black"/>
<g opacity="0.1">
<path opacity="0.1" d="M142.556 55.3431C142.551 55.37 142.543 55.3966 142.534 55.4226C142.499 55.5313 142.457 55.6376 142.409 55.7407C142.446 55.604 142.495 55.471 142.556 55.3431Z" fill="black"/>
<path opacity="0.1" d="M122.025 53.5066C122.088 53.2413 122.182 52.9845 122.306 52.7417C122.287 52.8069 122.267 52.8721 122.251 52.9389C122.058 53.7626 122.219 54.626 122.419 55.4497C122.523 55.8743 122.663 56.3338 123.03 56.5708C123.594 56.9317 124.461 56.6169 124.925 57.1034C125.218 57.4135 125.234 57.9637 125.615 58.1545C125.757 58.2164 125.915 58.2347 126.067 58.207C127.072 58.0639 127.657 56.9349 128.622 56.6169C129.173 56.4388 129.777 56.5548 130.316 56.7632C130.532 56.8298 130.725 56.954 130.876 57.1225C131.194 57.5407 130.973 58.1577 131.122 58.6634C131.33 59.3662 132.17 59.6461 132.897 59.7367C133.623 59.8274 134.442 59.8798 134.927 60.43C135.271 60.818 135.358 61.3841 135.288 61.8945C135.246 62.0728 135.246 62.2585 135.288 62.4368C135.489 63.0044 136.471 62.9138 136.719 62.4717C136.907 62.1458 136.851 61.8754 137.293 61.7848C137.591 61.7228 137.942 61.8484 138.219 61.9438C139.005 62.2147 139.834 62.3392 140.664 62.3111C141.343 62.2873 142.049 62.1521 142.584 61.7292C142.828 61.5345 143.028 61.2907 143.172 61.0136C143.048 61.5182 142.763 61.9689 142.361 62.2984C141.827 62.7182 141.122 62.8582 140.442 62.8804C139.612 62.9086 138.783 62.7841 137.998 62.5131C137.72 62.4177 137.362 62.2921 137.071 62.3541C136.629 62.4447 136.684 62.715 136.498 63.041C136.241 63.4894 135.26 63.5737 135.058 63.006C135.016 62.8277 135.016 62.6421 135.058 62.4638C135.128 61.9502 135.042 61.3873 134.698 60.9993C134.212 60.4507 133.393 60.3982 132.666 60.3076C131.939 60.2169 131.1 59.9371 130.893 59.2342C130.742 58.727 130.969 58.11 130.647 57.6918C130.495 57.5235 130.301 57.3993 130.085 57.3324C129.546 57.1241 128.942 57.0144 128.392 57.1861C127.425 57.5042 126.841 58.6363 125.836 58.7763C125.684 58.804 125.527 58.7857 125.385 58.7238C125.003 58.533 124.987 57.9828 124.695 57.6743C124.235 57.1877 123.364 57.501 122.801 57.14C122.432 56.9031 122.292 56.4435 122.189 56.019C121.991 55.1937 121.831 54.3302 122.025 53.5066Z" fill="black"/>
</g>
<path opacity="0.1" d="M143.143 83.8065C142.45 84.7431 141.658 85.6097 141.044 86.6004C140.431 87.5911 139.997 88.7471 140.125 89.9047C140.761 89.2527 141.051 88.3527 141.451 87.5354C142.129 86.152 143.143 84.9785 143.996 83.7064C144.155 83.4631 145.206 82.0606 144.676 81.9938C144.241 81.9381 143.38 83.4869 143.143 83.8065Z" fill="black"/>
</g>
<defs>
<linearGradient id="paint0_linear" x1="131.451" y1="124.454" x2="131.451" y2="45.3363" gradientUnits="userSpaceOnUse">
<stop stop-color="#808080" stop-opacity="0.25"/>
<stop offset="0.54" stop-color="#808080" stop-opacity="0.12"/>
<stop offset="1" stop-color="#808080" stop-opacity="0.1"/>
</linearGradient>
<clipPath id="clip0">
<rect width="181.365" height="125.187" fill="white" transform="translate(0.635376 0.499268)"/>
</clipPath>
</defs>
</svg>
