<svg width="87" height="87" viewBox="0 0 87 87" fill="none" xmlns="http://www.w3.org/2000/svg">
<circle cx="43.5278" cy="43.9773" r="42" stroke="#4183E4" stroke-width="2"/>
<path d="M31.4028 58.8523H22.6528C22.4208 58.8523 22.1982 58.9445 22.0341 59.1086C21.87 59.2727 21.7778 59.4952 21.7778 59.7273V66.7273C21.7778 66.9594 21.87 67.1819 22.0341 67.346C22.1982 67.5101 22.4208 67.6023 22.6528 67.6023H31.4028C31.6349 67.6023 31.8575 67.5101 32.0216 67.346C32.1856 67.1819 32.2778 66.9594 32.2778 66.7273V59.7273C32.2778 59.4952 32.1856 59.2727 32.0216 59.1086C31.8575 58.9445 31.6349 58.8523 31.4028 58.8523ZM30.5278 65.8523H23.5278V60.6023H30.5278V65.8523Z" fill="#4183E4"/>
<path d="M41.0278 58.8523H34.0278C33.7958 58.8523 33.5732 58.9445 33.4091 59.1086C33.245 59.2727 33.1528 59.4952 33.1528 59.7273C33.1528 59.9594 33.245 60.1819 33.4091 60.346C33.5732 60.5101 33.7958 60.6023 34.0278 60.6023H41.0278C41.2599 60.6023 41.4825 60.5101 41.6466 60.346C41.8106 60.1819 41.9028 59.9594 41.9028 59.7273C41.9028 59.4952 41.8106 59.2727 41.6466 59.1086C41.4825 58.9445 41.2599 58.8523 41.0278 58.8523Z" fill="#4183E4"/>
<path d="M37.5278 61.4773H34.0278C33.7958 61.4773 33.5732 61.5695 33.4091 61.7336C33.245 61.8977 33.1528 62.1202 33.1528 62.3523C33.1528 62.5844 33.245 62.8069 33.4091 62.971C33.5732 63.1351 33.7958 63.2273 34.0278 63.2273H37.5278C37.7599 63.2273 37.9825 63.1351 38.1466 62.971C38.3106 62.8069 38.4028 62.5844 38.4028 62.3523C38.4028 62.1202 38.3106 61.8977 38.1466 61.7336C37.9825 61.5695 37.7599 61.4773 37.5278 61.4773Z" fill="#4183E4"/>
<path d="M35.7778 64.1023H34.0278C33.7958 64.1023 33.5732 64.1945 33.4091 64.3586C33.245 64.5227 33.1528 64.7452 33.1528 64.9773C33.1528 65.2094 33.245 65.4319 33.4091 65.596C33.5732 65.7601 33.7958 65.8523 34.0278 65.8523H35.7778C36.0099 65.8523 36.2325 65.7601 36.3966 65.596C36.5606 65.4319 36.6528 65.2094 36.6528 64.9773C36.6528 64.7452 36.5606 64.5227 36.3966 64.3586C36.2325 64.1945 36.0099 64.1023 35.7778 64.1023Z" fill="#4183E4"/>
<path d="M71.5249 35.2875L66.3383 20.4158C66.1271 19.8111 65.7021 19.3045 65.1434 18.9913C64.5846 18.6782 63.9307 18.5802 63.3046 18.7157C62.6786 18.8512 62.1238 19.211 61.7446 19.7272C61.3654 20.2434 61.188 20.8804 61.2458 21.5183L56.0242 25.8659L47.9119 28.6955C46.9496 29.0321 46.135 29.694 45.6085 30.5669C45.082 31.4399 44.8766 32.4692 45.0277 33.4774H21.7778C21.0819 33.4783 20.4148 33.7551 19.9227 34.2472C19.4306 34.7393 19.1538 35.4064 19.1528 36.1024V67.6023C19.1538 68.2983 19.4306 68.9654 19.9227 69.4575C20.4148 69.9496 21.0819 70.2264 21.7778 70.2273H53.2778C53.9737 70.2264 54.6409 69.9496 55.133 69.4575C55.625 68.9654 55.9019 68.2983 55.9028 67.6023V45.3686L57.2667 44.8928C57.3852 44.8516 57.4934 44.7855 57.584 44.6988C57.6746 44.6121 57.7455 44.5069 57.7919 44.3904C57.8383 44.2739 57.8591 44.1488 57.8528 44.0235C57.8465 43.8983 57.8134 43.7758 57.7556 43.6645L55.3767 39.0653L60.058 37.4334L66.8502 37.5909C67.171 38.081 67.6466 38.4496 68.2012 38.6381C68.7558 38.8266 69.3575 38.8241 69.9105 38.6311C70.5679 38.4017 71.1072 37.9206 71.41 37.2936C71.7127 36.6665 71.754 35.945 71.5249 35.2875ZM33.1528 35.2274H41.9028V50.2172L38.0135 47.6239C37.8695 47.5283 37.7006 47.4774 37.5278 47.4774C37.3551 47.4774 37.1861 47.5283 37.0422 47.6239L33.1528 50.2172V35.2274ZM54.1528 67.6023C54.1525 67.8343 54.0602 68.0567 53.8962 68.2207C53.7322 68.3847 53.5098 68.477 53.2778 68.4773H21.7778C21.5459 68.477 21.3235 68.3847 21.1595 68.2207C20.9954 68.0567 20.9032 67.8343 20.9028 67.6023V36.1024C20.9032 35.8704 20.9954 35.648 21.1595 35.484C21.3235 35.32 21.5459 35.2277 21.7778 35.2274H31.4028V51.8523C31.4031 52.0107 31.4462 52.166 31.5276 52.3017C31.6091 52.4375 31.7258 52.5486 31.8654 52.6234C32.0049 52.6981 32.1621 52.7336 32.3203 52.7261C32.4784 52.7186 32.6316 52.6684 32.7635 52.5808L37.5278 49.4045L42.2922 52.5808C42.4361 52.6764 42.6051 52.7273 42.7778 52.7273C43.0098 52.7269 43.2321 52.6346 43.3961 52.4706C43.5601 52.3066 43.6524 52.0843 43.6528 51.8523V35.2274H45.3197C45.3962 35.2273 45.4723 35.217 45.5461 35.1967L46.3741 37.5713C46.6743 38.4286 47.2335 39.1715 47.9744 39.6972C48.7153 40.2229 49.6011 40.5055 50.5096 40.5058C50.7399 40.5054 50.97 40.4871 51.1975 40.4511L53.723 45.3336C53.816 45.5125 53.9678 45.6539 54.1528 45.7339V67.6023ZM55.7388 43.5727L55.1755 43.7684C55.1267 43.7602 55.0773 43.7558 55.0278 43.7553C54.9794 43.7558 54.9311 43.7602 54.8835 43.7684L52.8983 39.9294L53.7077 39.6472L55.7388 43.5727ZM53.8488 37.7452H53.8477L51.3692 38.6092C50.7119 38.8379 49.9907 38.7964 49.3639 38.4937C48.7372 38.191 48.2563 37.6519 48.0267 36.9949L46.8739 33.6906C46.6453 33.0331 46.6869 32.3118 46.9896 31.685C47.2923 31.0581 47.8313 30.5769 48.4883 30.347L55.9247 27.7549L58.8056 36.017L53.8488 37.7452ZM60.5458 35.6944L57.9164 28.1519L57.4877 26.9247L61.7971 23.3372L62.8711 26.4172L66.1513 35.8245L60.5458 35.6944ZM69.8339 36.5333C69.7587 36.6892 69.6388 36.8192 69.4896 36.907C69.3404 36.9948 69.1685 37.0363 68.9957 37.0264C68.8228 37.0164 68.6568 36.9554 68.5187 36.8511C68.3805 36.7468 68.2764 36.6038 68.2196 36.4403L63.0341 21.5686C62.9962 21.4601 62.9801 21.3452 62.9867 21.2304C62.9933 21.1157 63.0224 21.0034 63.0723 20.8999C63.1732 20.6909 63.3531 20.5305 63.5722 20.4541C63.7914 20.3776 64.0319 20.3914 64.2409 20.4923C64.4499 20.5932 64.6103 20.773 64.6867 20.9922L69.8722 35.8639C69.9103 35.9725 69.9265 36.0875 69.9199 36.2024C69.9133 36.3173 69.8841 36.4297 69.8339 36.5333Z" fill="#4183E4"/>
</svg>
