<svg width="86" height="87" viewBox="0 0 86 87" fill="none" xmlns="http://www.w3.org/2000/svg">
<circle cx="43" cy="43.9774" r="42" stroke="#4183E4" stroke-width="2"/>
<g clip-path="url(#clip0)">
<path d="M50.9861 20.4658C50.4233 16.5211 46.9896 13.546 42.9996 13.546C40.4335 13.546 37.9965 14.7843 36.4813 16.8595C36.1718 17.2827 36.2644 17.8764 36.6876 18.1859C37.1095 18.4943 37.7045 18.4028 38.0135 17.979C39.1733 16.3921 41.037 15.4444 42.9993 15.4444C46.0509 15.4444 48.6761 17.7185 49.1066 20.7336C49.1744 21.2072 49.5807 21.5489 50.0454 21.5489C50.0896 21.5489 50.1352 21.5456 50.1805 21.5395C50.6994 21.4652 51.06 20.9844 50.9861 20.4658Z" fill="#4183E4"/>
<path d="M64.6947 31.0911L61.8472 26.3453C61.6759 26.0591 61.367 25.8845 61.0333 25.8845H58.3046C57.7807 25.8845 57.3555 26.3097 57.3555 26.8336C57.3555 27.3575 57.7807 27.7826 58.3046 27.7826H60.4961L62.2045 30.6301H23.7942L25.5027 27.7826H26.5079C27.0318 27.7826 27.457 27.3575 27.457 26.8336C27.457 26.3097 27.0318 25.8845 26.5079 25.8845H24.9655C24.6318 25.8845 24.3229 26.0591 24.1516 26.3453L21.3041 31.0911C21.1281 31.3848 21.1239 31.7499 21.2922 32.0474C21.4604 32.345 21.7757 32.529 22.118 32.529H63.8808C64.2231 32.529 64.5381 32.345 64.7066 32.0474C64.8751 31.7499 64.8707 31.3842 64.6947 31.0911Z" fill="#4183E4"/>
<path d="M59.9636 22.3396C59.8307 22.1252 59.6186 21.9731 59.3733 21.9158L46.4343 18.8895C46.1894 18.832 45.9313 18.8748 45.7172 19.0071C45.5036 19.1401 45.3513 19.3522 45.294 19.5975L44.3182 23.7686C44.1986 24.2788 44.5156 24.7894 45.0262 24.9084C45.5364 25.0279 46.0475 24.7109 46.1666 24.2004L46.9263 20.9539L58.0166 23.5481L56.2739 30.999C56.1543 31.5092 56.4713 32.0198 56.9819 32.1388C57.055 32.1558 57.1276 32.1638 57.1993 32.1638C57.6303 32.1638 58.0205 31.8685 58.122 31.4311L60.081 23.0561C60.1388 22.8112 60.0966 22.5531 59.9636 22.3396Z" fill="#4183E4"/>
<path d="M43.5015 24.5833L42.6367 17.2686C42.6072 17.0186 42.4796 16.7903 42.2816 16.6346C42.0836 16.4789 41.8336 16.4077 41.5825 16.4372L25.7074 18.3136C25.1871 18.3753 24.8151 18.847 24.8765 19.3678L26.3183 31.5676C26.3756 32.0506 26.7852 32.4057 27.2599 32.4057C27.2969 32.4057 27.335 32.4032 27.3728 32.3991C27.8928 32.3373 28.2648 31.8657 28.2037 31.3449L26.8731 20.0869L40.8631 18.4335L41.6162 24.8055C41.6779 25.326 42.1473 25.6959 42.6703 25.6369C43.1906 25.5757 43.5627 25.1038 43.5015 24.5833Z" fill="#4183E4"/>
<path d="M51.0081 31.2191L49.1241 23.3847C49.0652 23.1403 48.9114 22.9286 48.697 22.7971C48.4826 22.6667 48.2254 22.6258 47.9793 22.6842L32.689 26.3614C32.1793 26.4838 31.8656 26.9966 31.988 27.5063L32.9295 31.4221C33.0519 31.9323 33.5646 32.2463 34.0741 32.1231C34.5838 32.0007 34.8974 31.488 34.7751 30.9783L34.0552 27.9851L47.4999 24.7522L49.1619 31.6634C49.2662 32.0986 49.6555 32.3906 50.084 32.3906C50.1577 32.3906 50.2322 32.382 50.307 32.3639C50.8168 32.2413 51.1304 31.7288 51.0081 31.2191Z" fill="#4183E4"/>
<path d="M64.8297 31.5315C64.8035 31.0271 64.387 30.6311 63.8815 30.6311H22.1187C21.6132 30.6311 21.1966 31.0268 21.1705 31.5315L19.2721 68.5484C19.2587 68.8081 19.3527 69.0623 19.5318 69.2508C19.7112 69.4391 19.9598 69.5461 20.22 69.5461H65.7793C66.0393 69.5461 66.2882 69.4393 66.4683 69.2508C66.6471 69.0623 66.7411 68.8084 66.7281 68.5484L64.8297 31.5315ZM21.2189 67.6477L23.0199 32.5292H62.9791L64.7802 67.6477H21.2189Z" fill="#4183E4"/>
<path d="M50.1182 34.4272C48.5479 34.4272 47.2708 35.7044 47.2708 37.2747C47.2708 38.845 48.5479 40.1222 50.1182 40.1222C51.6885 40.1222 52.9657 38.845 52.9657 37.2747C52.9657 35.7044 51.6885 34.4272 50.1182 34.4272ZM50.1182 38.224C49.5946 38.224 49.1692 37.7983 49.1692 37.275C49.1692 36.7516 49.5949 36.3259 50.1182 36.3259C50.6415 36.3259 51.0673 36.7516 51.0673 37.275C51.0673 37.7983 50.6415 38.224 50.1182 38.224Z" fill="#4183E4"/>
<path d="M35.8809 34.4272C34.3106 34.4272 33.0335 35.7044 33.0335 37.2747C33.0335 38.845 34.3106 40.1222 35.8809 40.1222C37.4512 40.1222 38.7284 38.845 38.7284 37.2747C38.7284 35.7044 37.4512 34.4272 35.8809 34.4272ZM35.8809 38.224C35.3576 38.224 34.9319 37.7983 34.9319 37.275C34.9319 36.7516 35.3576 36.3259 35.8809 36.3259C36.4042 36.3259 36.83 36.7516 36.83 37.275C36.83 37.7983 36.4042 38.224 35.8809 38.224Z" fill="#4183E4"/>
<path d="M50.1182 37.2747H50.0451C49.5212 37.2747 49.0961 37.6998 49.0961 38.2237C49.0961 38.3533 49.1216 38.477 49.1692 38.5897V43.444C49.1692 46.8456 46.4015 49.6135 42.9996 49.6135C39.5977 49.6135 36.83 46.8459 36.83 43.444V38.224C36.83 37.7001 36.4049 37.2749 35.881 37.2749C35.3571 37.2749 34.9319 37.7001 34.9319 38.224V43.4442C34.9319 47.8928 38.551 51.5119 42.9996 51.5119C47.4482 51.5119 51.0673 47.8928 51.0673 43.4442V38.224C51.0673 37.7001 50.6421 37.2747 50.1182 37.2747Z" fill="#4183E4"/>
</g>
<defs>
<clipPath id="clip0">
<rect width="56" height="56" fill="white" transform="translate(15 13.546)"/>
</clipPath>
</defs>
</svg>
