<svg width="86" height="87" viewBox="0 0 86 87" fill="none" xmlns="http://www.w3.org/2000/svg">
<circle cx="43" cy="43.9774" r="42" stroke="#4183E4" stroke-width="2"/>
<g clip-path="url(#clip0)">
<path d="M21.5332 61.6438C19.9868 61.6438 18.7333 62.8974 18.7333 64.4438C18.7333 65.9901 19.9868 67.2437 21.5332 67.2437C23.0796 67.2437 24.3332 65.9901 24.3332 64.4438C24.3332 62.8974 23.0796 61.6438 21.5332 61.6438ZM21.5332 65.3771C21.0178 65.3771 20.5999 64.9592 20.5999 64.4438C20.5999 63.9283 21.0178 63.5104 21.5332 63.5104C22.0487 63.5104 22.4665 63.9283 22.4665 64.4438C22.4665 64.9592 22.0487 65.3771 21.5332 65.3771Z" fill="#4183E4"/>
<path d="M70.3572 54.5005C69.5424 53.142 68.0744 52.3107 66.4902 52.3107H66.2933C65.5534 52.3112 64.8249 52.4932 64.1718 52.8409L56.9993 56.6665V43.9109H60.2659C63.101 43.9109 65.3992 41.6127 65.3992 38.7776C65.3992 35.9426 63.101 33.6444 60.2659 33.6444H40.1996C37.6223 33.6444 35.533 31.555 35.533 28.9778C35.533 26.4006 37.6223 24.3112 40.1996 24.3112H43.4662L48.7861 31.4044C48.9624 31.6394 49.239 31.7777 49.5328 31.7777H70.0658C70.5812 31.7777 70.9991 31.3599 70.9991 30.8444V15.9113C70.9991 15.3959 70.5812 14.978 70.0658 14.978H49.5328C49.239 14.978 48.9624 15.1164 48.7861 15.3514L43.4662 22.4446H40.1996C36.5914 22.4446 33.6664 25.3696 33.6664 28.9778C33.6664 32.586 36.5914 35.511 40.1996 35.511H60.2659C62.07 35.511 63.5325 36.9735 63.5325 38.7776C63.5325 40.5817 62.07 42.0442 60.2659 42.0442H56.9993V38.311C56.9993 37.7955 56.5814 37.3777 56.066 37.3777H29.9331C29.4177 37.3777 28.9998 37.7955 28.9998 38.311V52.3107C28.2761 52.5634 27.5747 52.8756 26.9026 53.2441H15V55.1107H26.1998V69.1105H15V70.9771H50.3653C51.2113 70.9771 52.0414 70.747 52.7667 70.3116L68.8095 60.6863C70.945 59.4055 71.6379 56.6361 70.3572 54.5005ZM51.4109 26.0177C52.8689 25.5022 53.6329 23.9024 53.1174 22.4446C52.602 20.9866 51.0022 20.2226 49.5443 20.7381C48.7469 21.02 48.1197 21.6473 47.8379 22.4446H45.7995L49.9994 16.8447H69.1324V29.9111H49.9994L45.7995 24.3112H47.8379C48.3533 25.7692 49.9531 26.5332 51.4109 26.0177ZM49.5328 23.3779C49.5328 22.8625 49.9506 22.4446 50.4661 22.4446C50.9815 22.4446 51.3994 22.8625 51.3994 23.3779C51.3994 23.8933 50.9815 24.3112 50.4661 24.3112C49.9506 24.3112 49.5328 23.8933 49.5328 23.3779ZM41.1329 39.2443H44.8662V42.9776H41.1329V39.2443ZM30.8664 39.2443H39.2663V43.9109C39.2663 44.4263 39.6842 44.8442 40.1996 44.8442H45.7995C46.3149 44.8442 46.7328 44.4263 46.7328 43.9109V39.2443H55.1327V57.6615L53.6039 58.4762C54.174 56.2279 52.8135 53.943 50.565 53.3729C50.2276 53.2873 49.8809 53.2441 49.5328 53.2441H40.4432C37.5204 51.6508 34.1296 51.1379 30.8664 51.7956V39.2443ZM67.8491 59.0857L51.8063 68.711C51.371 68.9723 50.873 69.1105 50.3653 69.1105H28.0664V54.7374C31.7503 52.8533 36.1349 52.949 39.7329 54.9922C39.8754 55.0721 40.0362 55.113 40.1996 55.1107H49.5328C50.8214 55.1107 51.8661 56.1553 51.8661 57.444C51.8661 58.7327 50.8214 59.7773 49.5328 59.7773H41.1329C40.6175 59.7773 40.1996 60.1952 40.1996 60.7106C40.1996 61.226 40.6175 61.6439 41.1329 61.6439H51.3994C51.5527 61.6442 51.7037 61.6067 51.839 61.5347L65.0501 54.4882C65.4329 54.2845 65.8598 54.1777 66.2933 54.1774H66.4902C67.9495 54.1773 69.1325 55.3601 69.1327 56.8194C69.1327 57.7479 68.6455 58.6082 67.8491 59.0857Z" fill="#4183E4"/>
<path d="M65.3893 24.8083C65.3166 24.0982 64.8847 23.475 64.2454 23.1575L61.7889 21.9293C61.6796 21.8758 61.6343 21.7439 61.6878 21.6347C61.7242 21.5601 61.7993 21.5124 61.8822 21.5111H65.399V19.6445H63.5323V18.7112H61.6657V19.6669C60.5232 19.7838 59.6919 20.8047 59.8088 21.9472C59.8814 22.6574 60.3133 23.2806 60.9526 23.598L63.4091 24.8263C63.5185 24.8797 63.5637 25.0117 63.5103 25.1209C63.4739 25.1954 63.3988 25.2431 63.3158 25.2444H59.7991V27.111H61.6657V28.0444H63.5323V27.0886C64.6748 26.9717 65.5062 25.9508 65.3893 24.8083Z" fill="#4183E4"/>
</g>
<defs>
<clipPath id="clip0">
<rect width="56" height="56" fill="white" transform="translate(15 14.9774)"/>
</clipPath>
</defs>
</svg>
