<svg width="58" height="58" viewBox="0 0 58 58" fill="none" xmlns="http://www.w3.org/2000/svg">
<g filter="url(#filter0_d)">
<g clip-path="url(#clip0)">
<rect x="13" y="10" width="31" height="33" fill="white"/>
<path d="M29.0009 0C15.1948 0 4.00098 11.1939 4.00098 25C4.00098 38.8059 15.1948 50 29.0009 50C42.807 50 54.0007 38.8058 54.0007 25C54.0008 11.1939 42.807 0 29.0009 0ZM42.2025 36.4778L40.2008 38.4799C39.8435 38.8367 38.797 39.0594 38.7634 39.0594C32.431 39.1147 26.3337 36.6273 21.8539 32.147C17.3617 27.6522 14.8715 21.5333 14.9383 15.1794C14.9383 15.1766 15.1675 14.1601 15.5246 13.8064L17.5262 11.8045C18.2586 11.0687 19.6656 10.7361 20.6513 11.0659L21.0723 11.2063C22.0551 11.5358 23.0869 12.6224 23.3585 13.6235L24.3653 17.319C24.6369 18.323 24.2706 19.7514 23.5384 20.4838L22.2018 21.8206C23.5141 26.6784 27.3257 30.4908 32.1844 31.8062L33.5204 30.4692C34.2562 29.7333 35.6841 29.3674 36.6859 29.6385L40.3809 30.649C41.3822 30.9241 42.4686 31.9494 42.798 32.9319L42.9384 33.359C43.2649 34.3419 42.9349 35.7486 42.2025 36.4778Z" fill="#4183E4"/>
</g>
</g>
<defs>
<filter id="filter0_d" x="0" y="0" width="58" height="58" filterUnits="userSpaceOnUse" color-interpolation-filters="sRGB">
<feFlood flood-opacity="0" result="BackgroundImageFix"/>
<feColorMatrix in="SourceAlpha" type="matrix" values="0 0 0 0 0 0 0 0 0 0 0 0 0 0 0 0 0 0 127 0"/>
<feOffset dy="4"/>
<feGaussianBlur stdDeviation="2"/>
<feColorMatrix type="matrix" values="0 0 0 0 0 0 0 0 0 0 0 0 0 0 0 0 0 0 0.25 0"/>
<feBlend mode="normal" in2="BackgroundImageFix" result="effect1_dropShadow"/>
<feBlend mode="normal" in="SourceGraphic" in2="effect1_dropShadow" result="shape"/>
</filter>
<clipPath id="clip0">
<rect x="4" width="50" height="50" fill="white"/>
</clipPath>
</defs>
</svg>
