<svg width="50" height="50" viewBox="0 0 50 50" fill="none" xmlns="http://www.w3.org/2000/svg">
<g clip-path="url(#clip0)">
<path d="M25.0009 0C11.1948 0 0.000976562 11.1939 0.000976562 25C0.000976562 38.8059 11.1948 50 25.0009 50C38.807 50 50.0007 38.8058 50.0007 25C50.0008 11.1939 38.807 0 25.0009 0ZM38.2025 36.4778L36.2008 38.4799C35.8435 38.8367 34.797 39.0594 34.7634 39.0594C28.431 39.1147 22.3337 36.6273 17.8539 32.147C13.3617 27.6522 10.8715 21.5333 10.9383 15.1794C10.9383 15.1766 11.1675 14.1601 11.5246 13.8064L13.5262 11.8045C14.2586 11.0687 15.6656 10.7361 16.6513 11.0659L17.0723 11.2063C18.0551 11.5358 19.0869 12.6224 19.3585 13.6235L20.3653 17.319C20.6369 18.323 20.2706 19.7514 19.5384 20.4838L18.2018 21.8206C19.5141 26.6784 23.3257 30.4908 28.1844 31.8062L29.5204 30.4692C30.2562 29.7333 31.6841 29.3674 32.6859 29.6385L36.3809 30.649C37.3822 30.9241 38.4686 31.9494 38.798 32.9319L38.9384 33.359C39.2649 34.3419 38.9349 35.7486 38.2025 36.4778Z" fill="#4183E4"/>
</g>
<defs>
<clipPath id="clip0">
<rect width="50" height="50" fill="white"/>
</clipPath>
</defs>
</svg>
