<svg width="50" height="50" viewBox="0 0 50 50" fill="none" xmlns="http://www.w3.org/2000/svg">
<path d="M24.9997 49.9997C38.8067 49.9997 49.9994 38.807 49.9994 25C49.9994 11.1931 38.8067 0.000305176 24.9997 0.000305176C11.1927 0.000305176 0 11.1931 0 25C0 38.807 11.1927 49.9997 24.9997 49.9997Z" fill="#41B4E6"/>
<path d="M20.572 28.6426L31.8699 37.1726L37.5729 12.8281L8.42676 24.2929L17.2956 27.2305L33.4814 16.3734L20.572 28.6426Z" fill="white"/>
<path d="M17.2959 27.2304L19.7249 35.9711L20.5723 28.6426L33.4818 16.3734L17.2959 27.2304Z" fill="#D2D2D7"/>
<path d="M24.2441 31.4148L19.7249 35.9711L20.5722 28.6426L24.2441 31.4148Z" fill="#B9B9BE"/>
</svg>
