<svg width="58" height="58" viewBox="0 0 58 58" fill="none" xmlns="http://www.w3.org/2000/svg">
<g filter="url(#filter0_d)">
<path d="M28.9997 49.9997C42.8067 49.9997 53.9994 38.807 53.9994 25C53.9994 11.1931 42.8067 0.000305176 28.9997 0.000305176C15.1927 0.000305176 4 11.1931 4 25C4 38.807 15.1927 49.9997 28.9997 49.9997Z" fill="#41B4E6"/>
<path d="M24.572 28.6426L35.8699 37.1726L41.5729 12.8281L12.4268 24.2929L21.2956 27.2305L37.4814 16.3734L24.572 28.6426Z" fill="white"/>
<path d="M21.2959 27.2304L23.7249 35.9711L24.5723 28.6426L37.4818 16.3734L21.2959 27.2304Z" fill="#D2D2D7"/>
<path d="M28.2441 31.4148L23.7249 35.9711L24.5722 28.6426L28.2441 31.4148Z" fill="#B9B9BE"/>
</g>
<defs>
<filter id="filter0_d" x="0" y="0" width="58" height="58" filterUnits="userSpaceOnUse" color-interpolation-filters="sRGB">
<feFlood flood-opacity="0" result="BackgroundImageFix"/>
<feColorMatrix in="SourceAlpha" type="matrix" values="0 0 0 0 0 0 0 0 0 0 0 0 0 0 0 0 0 0 127 0"/>
<feOffset dy="4"/>
<feGaussianBlur stdDeviation="2"/>
<feColorMatrix type="matrix" values="0 0 0 0 0 0 0 0 0 0 0 0 0 0 0 0 0 0 0.25 0"/>
<feBlend mode="normal" in2="BackgroundImageFix" result="effect1_dropShadow"/>
<feBlend mode="normal" in="SourceGraphic" in2="effect1_dropShadow" result="shape"/>
</filter>
</defs>
</svg>
