<svg width="59" height="59" viewBox="0 0 59 59" fill="none" xmlns="http://www.w3.org/2000/svg">
<g filter="url(#filter0_d)">
<g clip-path="url(#clip0)">
<path d="M29.7531 0.852783H29.7406C15.9562 0.852783 4.74683 12.0653 4.74683 25.8528C4.74683 31.3215 6.50933 36.3903 9.5062 40.5059L6.39058 49.7934L16 46.7215C19.9531 49.3403 24.6687 50.8528 29.7531 50.8528C43.5374 50.8528 54.7468 39.6372 54.7468 25.8528C54.7468 12.0684 43.5374 0.852783 29.7531 0.852783Z" fill="#665CAC"/>
<path d="M44.0455 36.1881L43.2212 31.723C43.153 31.3541 42.8673 31.064 42.4995 30.9904L36.0169 29.6939C35.7158 29.634 35.4055 29.728 35.1886 29.9446L32.555 32.5784C28.1176 30.5901 25.6548 28.122 23.4879 23.4942L26.1131 20.8691C26.3298 20.6523 26.4239 20.3414 26.3638 20.0409L25.0673 13.5582C24.9938 13.1905 24.7036 12.9045 24.3347 12.8364L19.8696 12.0123C19.7474 11.9898 19.6215 11.9922 19.5001 12.0198C18.3211 12.2876 17.2454 12.8816 16.3892 13.7381C14.9065 15.2207 14.3399 17.3842 14.7507 19.9947C15.4402 24.3781 17.5878 30.4784 21.55 34.4566L21.6042 34.5103C25.5792 38.4697 31.6796 40.6175 36.0633 41.3072C36.6155 41.3942 37.1474 41.4373 37.6574 41.4373C39.5582 41.4373 41.1508 40.8376 42.3201 39.6686C43.1763 38.8122 43.7706 37.7365 44.0383 36.5577C44.0654 36.4362 44.068 36.3106 44.0455 36.1881Z" fill="white"/>
<path d="M25.2169 21.7653L26.1132 20.8689L26.1142 20.8679L25.2168 21.7652L25.2169 21.7653Z" fill="#E5E5E5"/>
<path d="M35.1888 29.9435L34.2837 30.8486L34.2838 30.8488L35.189 29.9437L35.1888 29.9435Z" fill="#E5E5E5"/>
<path d="M39.386 39.7083C38.876 39.7083 38.3441 39.6652 37.7919 39.5782C33.4083 38.8886 27.3079 36.7408 23.3328 32.7813L23.2786 32.7276C19.3164 28.7495 17.1688 22.6492 16.4793 18.2657C16.1474 16.1567 16.4542 14.3397 17.3661 12.9375C17.0169 13.1705 16.6892 13.4378 16.3889 13.738C14.9063 15.2206 14.3396 17.3841 14.7504 19.9946C15.44 24.378 17.5875 30.4783 21.5498 34.4565L21.6039 34.5102C25.579 38.4696 31.6793 40.6174 36.063 41.3071C36.6153 41.3941 37.1471 41.4372 37.6572 41.4372C39.558 41.4372 41.1505 40.8376 42.3198 39.6685C42.6199 39.3682 42.8872 39.0406 43.1202 38.6914C42.085 39.3647 40.8239 39.7083 39.386 39.7083Z" fill="#E5E5E5"/>
<path d="M32.0378 17.6023C31.5316 17.6023 31.1211 18.0128 31.1211 18.519C31.1211 19.0253 31.5316 19.4358 32.0378 19.4358C34.0599 19.4358 35.705 21.0808 35.705 23.1029C35.705 23.6025 36.1222 24.0197 36.6217 24.0197C37.1213 24.0197 37.5385 23.6025 37.5385 23.1029C37.5386 20.0698 35.071 17.6023 32.0378 17.6023Z" fill="white"/>
<path d="M32.0378 13.9351C31.6987 13.9351 31.3564 13.9539 31.0204 13.9909C30.5172 14.0465 30.1542 14.4995 30.2097 15.0028C30.2653 15.5062 30.7192 15.8682 31.2216 15.8135C31.491 15.7838 31.7656 15.7686 32.0378 15.7686C36.0819 15.7686 39.372 19.0588 39.372 23.1029C39.372 23.3752 39.3569 23.6497 39.3271 23.9192C39.2724 24.4156 39.6412 24.8764 40.1378 24.9311C40.6344 24.9858 41.0949 24.617 41.1498 24.1204C41.1868 23.7843 41.2056 23.4421 41.2056 23.1029C41.2056 18.0478 37.093 13.9351 32.0378 13.9351Z" fill="white"/>
<path d="M32.0383 10.2681C31.7106 10.2681 31.3788 10.2805 31.0522 10.3053C30.5474 10.3436 30.169 10.784 30.2073 11.2888C30.2454 11.7937 30.6873 12.172 31.1907 12.1338C31.4714 12.1124 31.7566 12.1017 32.0383 12.1017C38.1045 12.1017 43.0397 17.0368 43.0397 23.103C43.0397 23.9614 42.9406 24.8158 42.7453 25.6425C42.6333 26.1162 42.925 26.6087 43.3948 26.7373C43.889 26.8727 44.412 26.5628 44.5297 26.0642C44.7577 25.0995 44.8732 24.1033 44.8732 23.103C44.8732 16.0258 39.1155 10.2681 32.0383 10.2681Z" fill="white"/>
</g>
</g>
<defs>
<filter id="filter0_d" x="0.746826" y="0.852783" width="58" height="58" filterUnits="userSpaceOnUse" color-interpolation-filters="sRGB">
<feFlood flood-opacity="0" result="BackgroundImageFix"/>
<feColorMatrix in="SourceAlpha" type="matrix" values="0 0 0 0 0 0 0 0 0 0 0 0 0 0 0 0 0 0 127 0"/>
<feOffset dy="4"/>
<feGaussianBlur stdDeviation="2"/>
<feColorMatrix type="matrix" values="0 0 0 0 0 0 0 0 0 0 0 0 0 0 0 0 0 0 0.25 0"/>
<feBlend mode="normal" in2="BackgroundImageFix" result="effect1_dropShadow"/>
<feBlend mode="normal" in="SourceGraphic" in2="effect1_dropShadow" result="shape"/>
</filter>
<clipPath id="clip0">
<rect x="4.74683" y="0.852783" width="50" height="50" fill="white"/>
</clipPath>
</defs>
</svg>
