<svg width="51" height="51" viewBox="0 0 51 51" fill="none" xmlns="http://www.w3.org/2000/svg">
<g clip-path="url(#clip0)">
<path d="M25.7531 0.852783H25.7406C11.9562 0.852783 0.746826 12.0653 0.746826 25.8528C0.746826 31.3215 2.50933 36.3903 5.5062 40.5059L2.39058 49.7934L12 46.7215C15.9531 49.3403 20.6687 50.8528 25.7531 50.8528C39.5374 50.8528 50.7468 39.6372 50.7468 25.8528C50.7468 12.0684 39.5374 0.852783 25.7531 0.852783Z" fill="#665CAC"/>
<path d="M40.0455 36.1881L39.2212 31.723C39.153 31.3541 38.8673 31.064 38.4995 30.9904L32.0169 29.6939C31.7158 29.634 31.4055 29.728 31.1886 29.9446L28.555 32.5784C24.1176 30.5901 21.6548 28.122 19.4879 23.4942L22.1131 20.8691C22.3298 20.6523 22.4239 20.3414 22.3638 20.0409L21.0673 13.5582C20.9938 13.1905 20.7036 12.9045 20.3347 12.8364L15.8696 12.0123C15.7474 11.9898 15.6215 11.9922 15.5001 12.0198C14.3211 12.2876 13.2454 12.8816 12.3892 13.7381C10.9065 15.2207 10.3399 17.3842 10.7507 19.9947C11.4402 24.3781 13.5878 30.4784 17.55 34.4566L17.6042 34.5103C21.5792 38.4697 27.6796 40.6175 32.0633 41.3072C32.6155 41.3942 33.1474 41.4373 33.6574 41.4373C35.5582 41.4373 37.1508 40.8376 38.3201 39.6686C39.1763 38.8122 39.7706 37.7365 40.0383 36.5577C40.0654 36.4362 40.068 36.3106 40.0455 36.1881Z" fill="white"/>
<path d="M21.2169 21.7653L22.1132 20.8689L22.1142 20.8679L21.2168 21.7652L21.2169 21.7653Z" fill="#E5E5E5"/>
<path d="M31.1888 29.9435L30.2837 30.8486L30.2838 30.8488L31.189 29.9437L31.1888 29.9435Z" fill="#E5E5E5"/>
<path d="M35.386 39.7083C34.876 39.7083 34.3441 39.6652 33.7919 39.5782C29.4083 38.8886 23.3079 36.7408 19.3328 32.7813L19.2786 32.7276C15.3164 28.7495 13.1688 22.6492 12.4793 18.2657C12.1474 16.1567 12.4542 14.3397 13.3661 12.9375C13.0169 13.1705 12.6892 13.4378 12.3889 13.738C10.9063 15.2206 10.3396 17.3841 10.7504 19.9946C11.44 24.378 13.5875 30.4783 17.5498 34.4565L17.6039 34.5102C21.579 38.4696 27.6793 40.6174 32.063 41.3071C32.6153 41.3941 33.1471 41.4372 33.6572 41.4372C35.558 41.4372 37.1505 40.8376 38.3198 39.6685C38.6199 39.3682 38.8872 39.0406 39.1202 38.6914C38.085 39.3647 36.8239 39.7083 35.386 39.7083Z" fill="#E5E5E5"/>
<path d="M28.0378 17.6023C27.5316 17.6023 27.1211 18.0128 27.1211 18.519C27.1211 19.0253 27.5316 19.4358 28.0378 19.4358C30.0599 19.4358 31.705 21.0808 31.705 23.1029C31.705 23.6025 32.1222 24.0197 32.6217 24.0197C33.1213 24.0197 33.5385 23.6025 33.5385 23.1029C33.5386 20.0698 31.071 17.6023 28.0378 17.6023Z" fill="white"/>
<path d="M28.0378 13.9351C27.6987 13.9351 27.3564 13.9539 27.0204 13.9909C26.5172 14.0465 26.1542 14.4995 26.2097 15.0028C26.2653 15.5062 26.7192 15.8682 27.2216 15.8135C27.491 15.7838 27.7656 15.7686 28.0378 15.7686C32.0819 15.7686 35.372 19.0588 35.372 23.1029C35.372 23.3752 35.3569 23.6497 35.3271 23.9192C35.2724 24.4156 35.6412 24.8764 36.1378 24.9311C36.6344 24.9858 37.0949 24.617 37.1498 24.1204C37.1868 23.7843 37.2056 23.4421 37.2056 23.1029C37.2056 18.0478 33.093 13.9351 28.0378 13.9351Z" fill="white"/>
<path d="M28.0383 10.2681C27.7106 10.2681 27.3788 10.2805 27.0522 10.3053C26.5474 10.3436 26.169 10.784 26.2073 11.2888C26.2454 11.7937 26.6873 12.172 27.1907 12.1338C27.4714 12.1124 27.7566 12.1017 28.0383 12.1017C34.1045 12.1017 39.0397 17.0368 39.0397 23.103C39.0397 23.9614 38.9406 24.8158 38.7453 25.6425C38.6333 26.1162 38.925 26.6087 39.3948 26.7373C39.889 26.8727 40.412 26.5628 40.5297 26.0642C40.7577 25.0995 40.8732 24.1033 40.8732 23.103C40.8732 16.0258 35.1155 10.2681 28.0383 10.2681Z" fill="white"/>
</g>
<defs>
<clipPath id="clip0">
<rect x="0.746826" y="0.852783" width="50" height="50" fill="white"/>
</clipPath>
</defs>
</svg>
