<svg width="50" height="50" viewBox="0 0 50 50" fill="none" xmlns="http://www.w3.org/2000/svg">
<path d="M25.0063 0H24.9937C11.2094 0 0 11.2125 0 25C0 30.4688 1.7625 35.5375 4.75938 39.6531L1.64375 48.9406L11.2531 45.8688C15.2063 48.4875 19.9219 50 25.0063 50C38.7906 50 50 38.7844 50 25C50 11.2156 38.7906 0 25.0063 0Z" fill="#4CAF50"/>
<path d="M39.5532 35.3031C38.9501 37.0063 36.5563 38.4188 34.647 38.8313C33.3407 39.1094 31.6345 39.3313 25.8907 36.95C18.5438 33.9063 13.8126 26.4406 13.4438 25.9563C13.0907 25.4719 10.4751 22.0031 10.4751 18.4156C10.4751 14.8281 12.297 13.0813 13.0313 12.3313C13.6345 11.7156 14.6313 11.4344 15.5876 11.4344C15.897 11.4344 16.1751 11.45 16.4251 11.4625C17.1595 11.4938 17.5282 11.5375 18.0126 12.6969C18.6157 14.15 20.0845 17.7375 20.2595 18.1063C20.4376 18.475 20.6157 18.975 20.3657 19.4594C20.1313 19.9594 19.9251 20.1813 19.5563 20.6063C19.1876 21.0313 18.8376 21.3563 18.4688 21.8125C18.1313 22.2094 17.7501 22.6344 18.1751 23.3688C18.6001 24.0875 20.0688 26.4844 22.2313 28.4094C25.022 30.8938 27.2845 31.6875 28.0938 32.025C28.697 32.275 29.4157 32.2156 29.8563 31.7469C30.4157 31.1438 31.1063 30.1438 31.8095 29.1594C32.3095 28.4531 32.9407 28.3656 33.6032 28.6156C34.2782 28.85 37.8501 30.6156 38.5845 30.9813C39.3188 31.35 39.8032 31.525 39.9813 31.8344C40.1563 32.1438 40.1563 33.5969 39.5532 35.3031Z" fill="#FAFAFA"/>
</svg>
