<svg width="58" height="58" viewBox="0 0 58 58" fill="none" xmlns="http://www.w3.org/2000/svg">
<g filter="url(#filter0_d)">
<path d="M29.0063 0H28.9937C15.2094 0 4 11.2125 4 25C4 30.4688 5.7625 35.5375 8.75938 39.6531L5.64375 48.9406L15.2531 45.8688C19.2063 48.4875 23.9219 50 29.0063 50C42.7906 50 54 38.7844 54 25C54 11.2156 42.7906 0 29.0063 0Z" fill="#4CAF50"/>
<path d="M43.5532 35.3031C42.9501 37.0063 40.5563 38.4188 38.647 38.8313C37.3407 39.1094 35.6345 39.3313 29.8907 36.95C22.5438 33.9063 17.8126 26.4406 17.4438 25.9563C17.0907 25.4719 14.4751 22.0031 14.4751 18.4156C14.4751 14.8281 16.297 13.0813 17.0313 12.3313C17.6345 11.7156 18.6313 11.4344 19.5876 11.4344C19.897 11.4344 20.1751 11.45 20.4251 11.4625C21.1595 11.4938 21.5282 11.5375 22.0126 12.6969C22.6157 14.15 24.0845 17.7375 24.2595 18.1063C24.4376 18.475 24.6157 18.975 24.3657 19.4594C24.1313 19.9594 23.9251 20.1813 23.5563 20.6063C23.1876 21.0313 22.8376 21.3563 22.4688 21.8125C22.1313 22.2094 21.7501 22.6344 22.1751 23.3688C22.6001 24.0875 24.0688 26.4844 26.2313 28.4094C29.022 30.8938 31.2845 31.6875 32.0938 32.025C32.697 32.275 33.4157 32.2156 33.8563 31.7469C34.4157 31.1438 35.1063 30.1438 35.8095 29.1594C36.3095 28.4531 36.9407 28.3656 37.6032 28.6156C38.2782 28.85 41.8501 30.6156 42.5845 30.9813C43.3188 31.35 43.8032 31.525 43.9813 31.8344C44.1563 32.1438 44.1563 33.5969 43.5532 35.3031Z" fill="#FAFAFA"/>
</g>
<defs>
<filter id="filter0_d" x="0" y="0" width="58" height="58" filterUnits="userSpaceOnUse" color-interpolation-filters="sRGB">
<feFlood flood-opacity="0" result="BackgroundImageFix"/>
<feColorMatrix in="SourceAlpha" type="matrix" values="0 0 0 0 0 0 0 0 0 0 0 0 0 0 0 0 0 0 127 0"/>
<feOffset dy="4"/>
<feGaussianBlur stdDeviation="2"/>
<feColorMatrix type="matrix" values="0 0 0 0 0 0 0 0 0 0 0 0 0 0 0 0 0 0 0.25 0"/>
<feBlend mode="normal" in2="BackgroundImageFix" result="effect1_dropShadow"/>
<feBlend mode="normal" in="SourceGraphic" in2="effect1_dropShadow" result="shape"/>
</filter>
</defs>
</svg>
