<svg width="113" height="39" viewBox="0 0 113 39" fill="none" xmlns="http://www.w3.org/2000/svg">
<path d="M43.8431 37.9568C43.9879 37.9568 44.1133 38.0039 44.2195 38.0981C44.3256 38.2017 44.3787 38.3242 44.3787 38.4654C44.3787 38.5408 44.3642 38.6067 44.3353 38.6633C44.3063 38.7292 44.2677 38.7857 44.2195 38.8328C44.1712 38.8799 44.1133 38.9129 44.0458 38.9317C43.9879 38.96 43.9203 38.9741 43.8431 38.9741C43.1096 38.9741 42.4824 38.7198 41.9612 38.2111C41.4401 37.7025 41.1795 37.0902 41.1795 36.3743V34.6647H39.5582C39.4135 34.6647 39.288 34.6176 39.1819 34.5234C39.0853 34.4198 39.0371 34.2973 39.0371 34.156C39.0371 34.0147 39.0853 33.8922 39.1819 33.7887C39.288 33.6851 39.4135 33.6332 39.5582 33.6332H41.1795V31.4432C41.1795 31.3019 41.2278 31.1794 41.3243 31.0758C41.4304 30.9722 41.5559 30.9204 41.7007 30.9204C41.8454 30.9204 41.9709 30.9722 42.077 31.0758C42.1832 31.1794 42.2363 31.3019 42.2363 31.4432V33.6332H43.8431C43.9879 33.6332 44.1133 33.6851 44.2195 33.7887C44.3256 33.8922 44.3787 34.0147 44.3787 34.156C44.3787 34.2973 44.3256 34.4198 44.2195 34.5234C44.1133 34.6176 43.9879 34.6647 43.8431 34.6647H42.2363V36.3743C42.2363 36.8076 42.3907 37.1797 42.6995 37.4905C43.018 37.8014 43.3992 37.9568 43.8431 37.9568ZM52.725 34.5375C53.2461 34.0289 53.8734 33.7745 54.6068 33.7745C55.3499 33.7745 55.9821 34.0289 56.5032 34.5375C57.0243 35.0462 57.2849 35.6584 57.2849 36.3743C57.2849 36.5156 57.2318 36.6381 57.1256 36.7417C57.0195 36.8359 56.894 36.883 56.7493 36.883H53.0869C53.193 37.2032 53.386 37.4623 53.6659 37.6601C53.9458 37.8579 54.2594 37.9568 54.6068 37.9568C54.684 37.9568 54.7516 37.9709 54.8095 37.9992C54.877 38.0274 54.9349 38.0604 54.9832 38.0981C55.0315 38.1452 55.0701 38.2017 55.099 38.2676C55.128 38.3336 55.1425 38.3995 55.1425 38.4654C55.1425 38.5597 55.1183 38.6444 55.0701 38.7198C55.0218 38.8045 54.9543 38.8658 54.8674 38.9035C54.7902 38.9505 54.7033 38.9741 54.6068 38.9741C53.8734 38.9741 53.2461 38.7198 52.725 38.2111C52.2038 37.7025 51.9433 37.0902 51.9433 36.3743C51.9433 35.6584 52.2038 35.0462 52.725 34.5375ZM55.5478 35.0885C55.2775 34.8907 54.9639 34.7918 54.6068 34.7918C54.2594 34.7918 53.9458 34.8907 53.6659 35.0885C53.386 35.2864 53.193 35.5454 53.0869 35.8657H56.1413C56.0255 35.5454 55.8276 35.2864 55.5478 35.0885ZM68.0225 37.9568C68.1672 37.9568 68.2929 38.0039 68.3988 38.0981C68.5048 38.2017 68.5581 38.3242 68.5581 38.4654C68.5581 38.5408 68.5436 38.6067 68.5146 38.6633C68.4857 38.7292 68.4469 38.7857 68.3988 38.8328C68.3508 38.8799 68.2929 38.9129 68.2251 38.9317C68.1672 38.96 68.0995 38.9741 68.0225 38.9741C67.2888 38.9741 66.6617 38.7198 66.1406 38.2111C65.6195 37.7025 65.3589 37.0902 65.3589 36.3743C65.3589 35.6584 65.6195 35.0462 66.1406 34.5375C66.6617 34.0289 67.2888 33.7745 68.0225 33.7745C68.0995 33.7745 68.1672 33.7887 68.2251 33.8169C68.2929 33.8357 68.3508 33.8687 68.3988 33.9158C68.4469 33.9629 68.4857 34.0194 68.5146 34.0854C68.5436 34.1513 68.5581 34.2172 68.5581 34.2832C68.5581 34.4245 68.5048 34.5469 68.3988 34.6505C68.2929 34.7448 68.1672 34.7918 68.0225 34.7918C67.5783 34.7918 67.1973 34.9473 66.8789 35.2581C66.5604 35.5689 66.4012 35.941 66.4012 36.3743C66.4012 36.8076 66.5604 37.1797 66.8789 37.4905C67.1973 37.8014 67.5783 37.9568 68.0225 37.9568ZM79.657 33.7745C80.3999 33.7745 81.0322 34.0289 81.5534 34.5375C82.0745 35.0462 82.335 35.6584 82.335 36.3743V38.4654C82.335 38.5408 82.3206 38.6067 82.2916 38.6633C82.2627 38.7292 82.2239 38.7857 82.1758 38.8328C82.1272 38.8799 82.0693 38.9129 82.0021 38.9317C81.9442 38.96 81.8765 38.9741 81.7994 38.9741C81.6547 38.9741 81.529 38.9223 81.4231 38.8187C81.3264 38.7245 81.2783 38.6067 81.2783 38.4654V36.3743C81.2783 35.941 81.1191 35.5689 80.8006 35.2581C80.4914 34.9473 80.1104 34.7918 79.657 34.7918C79.2129 34.7918 78.8319 34.9473 78.5134 35.2581C78.1949 35.5689 78.0357 35.941 78.0357 36.3743V38.4654C78.0357 38.5597 78.0114 38.6444 77.9633 38.7198C77.9245 38.8045 77.862 38.8658 77.7752 38.9035C77.6976 38.9505 77.6107 38.9741 77.5146 38.9741C77.3698 38.9741 77.2442 38.9223 77.1382 38.8187C77.0415 38.7245 76.9934 38.6067 76.9934 38.4654V31.4432C76.9934 31.3019 77.0415 31.1794 77.1382 31.0758C77.2442 30.9722 77.3698 30.9204 77.5146 30.9204C77.6593 30.9204 77.7798 30.9722 77.8765 31.0758C77.9824 31.1794 78.0357 31.3019 78.0357 31.4432V34.3256C78.5279 33.9582 79.0681 33.7745 79.657 33.7745Z" fill="#4183E4"/>
<path d="M0.509766 3.51992L1.87422 2.97168L6.62286 7.02519L0.509766 3.51992Z" fill="#045CFC"/>
<path d="M11.6368 11.3086L14.6642 17.5018L15.0703 19.2159L10.7617 24.4929L11.6368 11.3086Z" fill="url(#paint0_linear)"/>
<path d="M22.823 10.0046L14.6637 17.5025L11.6367 11.3099L11.6552 9.83887L22.823 10.0046Z" fill="url(#paint1_linear)"/>
<path d="M0 1.36875L11.766 0.0185547L11.652 11.3141L6.23022 6.69624L0 1.36875Z" fill="url(#paint2_linear)"/>
<path d="M22.8224 10.0039L11.732 0L11.6523 11.3157L22.8224 10.0039Z" fill="url(#paint3_linear)"/>
<path d="M26.7154 5.7514L23.8302 3.75342L23.1172 6.60474L26.7154 5.7514Z" fill="url(#paint4_radial)"/>
<path d="M23.8315 3.75293L18.3027 5.92304L22.822 10.0045L23.8315 3.75293Z" fill="url(#paint5_linear)"/>
<path d="M22.114 17.4799C23.5408 17.4799 24.7544 17.9682 25.755 18.9448C26.7556 19.9214 27.2559 21.097 27.2559 22.4715C27.2559 23.846 26.7556 25.0215 25.755 25.9982C24.7544 26.9748 23.5408 27.4631 22.114 27.4631C20.9838 27.4631 19.9461 27.1104 19.0011 26.4051V26.4865C19.0011 26.6673 18.9548 26.8301 18.8622 26.9748C18.7881 27.1375 18.6676 27.2551 18.5009 27.3274C18.3526 27.4179 18.1859 27.4631 18.0006 27.4631C17.7226 27.4631 17.4818 27.3636 17.2779 27.1647C17.0926 26.9838 17 26.7577 17 26.4865V13.0037C17 12.7325 17.0926 12.4974 17.2779 12.2984C17.4818 12.0995 17.7226 12 18.0006 12C18.2785 12 18.5101 12.0995 18.6954 12.2984C18.8992 12.4974 19.0011 12.7325 19.0011 13.0037V18.5379C19.9461 17.8326 20.9838 17.4799 22.114 17.4799ZM19.9183 24.6146C20.5298 25.2114 21.2617 25.5098 22.114 25.5098C22.9849 25.5098 23.7168 25.2114 24.3097 24.6146C24.9212 24.0178 25.2269 23.3034 25.2269 22.4715C25.2269 21.6396 24.9212 20.9252 24.3097 20.3284C23.7168 19.7315 22.9849 19.4331 22.114 19.4331C21.2617 19.4331 20.5298 19.7315 19.9183 20.3284C19.3069 20.9252 19.0011 21.6396 19.0011 22.4715C19.0011 23.3034 19.3069 24.0178 19.9183 24.6146ZM34.2195 17.4799C34.4975 17.4799 34.7383 17.5794 34.9422 17.7783C35.146 17.9592 35.2479 18.1852 35.2479 18.4565C35.2479 18.7278 35.146 18.9629 34.9422 19.1618C34.7383 19.3427 34.4975 19.4331 34.2195 19.4331C33.3672 19.4331 32.6353 19.7315 32.0238 20.3284C31.4124 20.9252 31.1066 21.6396 31.1066 22.4715V26.4865C31.1066 26.6673 31.0603 26.8301 30.9677 26.9748C30.8935 27.1375 30.7731 27.2551 30.6063 27.3274C30.4581 27.4179 30.2913 27.4631 30.1061 27.4631C29.8281 27.4631 29.5872 27.3636 29.3834 27.1647C29.1981 26.9838 29.1055 26.7577 29.1055 26.4865V18.4294C29.1055 18.1581 29.1981 17.932 29.3834 17.7512C29.5872 17.5522 29.8281 17.4528 30.1061 17.4528C30.384 17.4528 30.6156 17.5522 30.8009 17.7512C31.0047 17.932 31.1066 18.1581 31.1066 18.4294V18.5379C32.0516 17.8326 33.0892 17.4799 34.2195 17.4799ZM44.2873 17.7783C44.4911 17.5794 44.732 17.4799 45.01 17.4799C45.2879 17.4799 45.5288 17.5794 45.7326 17.7783C45.9364 17.9592 46.0383 18.1852 46.0383 18.4565V26.4865C46.0383 26.6673 45.992 26.8301 45.8994 26.9748C45.8067 27.1375 45.677 27.2551 45.5102 27.3274C45.362 27.4179 45.1953 27.4631 45.01 27.4631C44.732 27.4631 44.4911 27.3636 44.2873 27.1647C44.102 26.9838 44.0094 26.7577 44.0094 26.4865V26.4051C43.0829 27.1104 42.0453 27.4631 40.8965 27.4631C39.4883 27.4631 38.2839 26.9748 37.2833 25.9982C36.2827 25.0215 35.7825 23.846 35.7825 22.4715C35.7825 21.097 36.2827 19.9214 37.2833 18.9448C38.2839 17.9682 39.4883 17.4799 40.8965 17.4799C42.0453 17.4799 43.0829 17.8326 44.0094 18.5379V18.4565C44.0094 18.1852 44.102 17.9592 44.2873 17.7783ZM38.7008 24.6146C39.3123 25.2114 40.0442 25.5098 40.8965 25.5098C41.7674 25.5098 42.4993 25.2114 43.0922 24.6146C43.7037 24.0178 44.0094 23.3034 44.0094 22.4715C44.0094 21.6396 43.7037 20.9252 43.0922 20.3284C42.4993 19.7315 41.7674 19.4331 40.8965 19.4331C40.0442 19.4331 39.3123 19.7315 38.7008 20.3284C38.0893 20.9252 37.7836 21.6396 37.7836 22.4715C37.7836 23.3034 38.0893 24.0178 38.7008 24.6146ZM61.691 17.4799C63.0992 17.4799 64.3037 17.9682 65.3043 18.9448C66.3049 19.9214 66.8051 21.097 66.8051 22.4715V26.4865C66.8051 26.6673 66.7588 26.8301 66.6662 26.9748C66.5735 27.1375 66.4531 27.2551 66.3049 27.3274C66.1566 27.4179 65.9899 27.4631 65.8046 27.4631C65.5266 27.4631 65.2857 27.3636 65.0819 27.1647C64.8966 26.9838 64.804 26.7577 64.804 26.4865V22.4715C64.804 21.6396 64.4983 20.9252 63.8867 20.3284C63.2752 19.7315 62.5341 19.4331 61.6632 19.4331C60.8109 19.4331 60.079 19.7315 59.4675 20.3284C58.8746 20.9252 58.5781 21.6396 58.5781 22.4715V26.4865C58.5781 26.6673 58.5318 26.8301 58.4391 26.9748C58.3465 27.1375 58.2168 27.2551 58.05 27.3274C57.9018 27.4179 57.735 27.4631 57.5497 27.4631C57.2718 27.4631 57.0309 27.3636 56.8271 27.1647C56.6418 26.9838 56.5491 26.7577 56.5491 26.4865V22.4715C56.5491 21.6396 56.2434 20.9252 55.632 20.3284C55.039 19.7315 54.3071 19.4331 53.4363 19.4331C52.5839 19.4331 51.852 19.7315 51.2406 20.3284C50.6291 20.9252 50.3234 21.6396 50.3234 22.4715V26.4865C50.3234 26.6673 50.277 26.8301 50.1844 26.9748C50.1103 27.1375 49.9898 27.2551 49.8231 27.3274C49.6748 27.4179 49.5081 27.4631 49.3228 27.4631C49.0449 27.4631 48.804 27.3636 48.6002 27.1647C48.4149 26.9838 48.3222 26.7577 48.3222 26.4865V18.4294C48.3222 18.1581 48.4149 17.932 48.6002 17.7512C48.804 17.5522 49.0449 17.4528 49.3228 17.4528C49.6007 17.4528 49.8323 17.5522 50.0176 17.7512C50.2215 17.932 50.3234 18.1581 50.3234 18.4294V18.5379C51.2683 17.8326 52.306 17.4799 53.4363 17.4799C54.2701 17.4799 55.0483 17.6608 55.7709 18.0225C56.4936 18.3842 57.0865 18.8815 57.5497 19.5145C58.0315 18.8815 58.6337 18.3842 59.3563 18.0225C60.0789 17.6608 60.8572 17.4799 61.691 17.4799ZM74.2 17.4799C75.6267 17.4799 76.8404 17.9682 77.841 18.9448C78.8415 19.9214 79.3418 21.097 79.3418 22.4715C79.3418 23.846 78.8415 25.0215 77.841 25.9982C76.8404 26.9748 75.6267 27.4631 74.2 27.4631C73.0697 27.4631 72.0321 27.1104 71.0871 26.4051V26.4865C71.0871 26.6673 71.0408 26.8301 70.9481 26.9748C70.874 27.1375 70.7536 27.2551 70.5868 27.3274C70.4386 27.4179 70.2718 27.4631 70.0865 27.4631C69.8086 27.4631 69.5677 27.3636 69.3639 27.1647C69.1786 26.9838 69.086 26.7577 69.086 26.4865V13.0037C69.086 12.7325 69.1786 12.4974 69.3639 12.2984C69.5677 12.0995 69.8086 12 70.0865 12C70.3645 12 70.5961 12.0995 70.7814 12.2984C70.9852 12.4974 71.0871 12.7325 71.0871 13.0037V18.5379C72.0321 17.8326 73.0697 17.4799 74.2 17.4799ZM72.0043 24.6146C72.6158 25.2114 73.3477 25.5098 74.2 25.5098C75.0709 25.5098 75.8028 25.2114 76.3957 24.6146C77.0072 24.0178 77.3129 23.3034 77.3129 22.4715C77.3129 21.6396 77.0072 20.9252 76.3957 20.3284C75.8028 19.7315 75.0709 19.4331 74.2 19.4331C73.3477 19.4331 72.6158 19.7315 72.0043 20.3284C71.3928 20.9252 71.0871 21.6396 71.0871 22.4715C71.0871 23.3034 71.3928 24.0178 72.0043 24.6146ZM81.9035 12.2984C82.1073 12.0995 82.3482 12 82.6261 12C82.9041 12 83.1357 12.0995 83.321 12.2984C83.5248 12.4974 83.6267 12.7325 83.6267 13.0037V26.4865C83.6267 26.6673 83.5804 26.8301 83.4877 26.9748C83.4136 27.1375 83.2932 27.2551 83.1264 27.3274C82.9782 27.4179 82.8114 27.4631 82.6261 27.4631C82.3482 27.4631 82.1073 27.3636 81.9035 27.1647C81.7182 26.9838 81.6255 26.7577 81.6255 26.4865V13.0037C81.6255 12.7325 81.7182 12.4974 81.9035 12.2984ZM86.2463 17.6969C86.4501 17.498 86.6909 17.3985 86.9689 17.3985C87.2468 17.3985 87.4784 17.498 87.6637 17.6969C87.8676 17.8778 87.9695 18.1038 87.9695 18.3751V26.4322C87.9695 26.7035 87.8676 26.9296 87.6637 27.1104C87.4784 27.3094 87.2468 27.4088 86.9689 27.4088C86.6909 27.4088 86.4501 27.3094 86.2463 27.1104C86.061 26.9296 85.9683 26.7035 85.9683 26.4322V18.3751C85.9683 18.1038 86.061 17.8778 86.2463 17.6969ZM86.2463 13.4921C86.4501 13.2931 86.6909 13.1936 86.9689 13.1936C87.2468 13.1936 87.4784 13.2931 87.6637 13.4921C87.8676 13.6729 87.9695 13.899 87.9695 14.1703V15.1469C87.9695 15.4182 87.8676 15.6533 87.6637 15.8522C87.4784 16.0511 87.2468 16.1506 86.9689 16.1506C86.6909 16.1506 86.4501 16.0511 86.2463 15.8522C86.061 15.6533 85.9683 15.4182 85.9683 15.1469V14.1703C85.9683 13.899 86.061 13.6729 86.2463 13.4921ZM95.4251 17.4799C96.8519 17.4799 98.0655 17.9682 99.0661 18.9448C100.067 19.9214 100.567 21.097 100.567 22.4715V26.4865C100.567 26.6673 100.521 26.8301 100.428 26.9748C100.335 27.1375 100.206 27.2551 100.039 27.3274C99.8906 27.4179 99.7331 27.4631 99.5664 27.4631C99.4181 27.4631 99.2792 27.4359 99.1495 27.3817C99.0383 27.3455 98.9364 27.2822 98.8438 27.1918C98.7511 27.1014 98.677 26.9929 98.6214 26.8663C98.5658 26.7577 98.538 26.6311 98.538 26.4865V22.4715C98.538 21.6396 98.2323 20.9252 97.6208 20.3284C97.0279 19.7315 96.296 19.4331 95.4251 19.4331C94.5728 19.4331 93.8409 19.7315 93.2294 20.3284C92.618 20.9252 92.3122 21.6396 92.3122 22.4715V26.4865C92.3122 26.6673 92.2659 26.8301 92.1733 26.9748C92.0991 27.1375 91.9787 27.2551 91.8119 27.3274C91.6637 27.4179 91.4969 27.4631 91.3117 27.4631C91.0337 27.4631 90.7928 27.3636 90.589 27.1647C90.4037 26.9838 90.3111 26.7577 90.3111 26.4865V18.4294C90.3111 18.1581 90.4037 17.932 90.589 17.7512C90.7928 17.5522 91.0337 17.4528 91.3117 17.4528C91.5896 17.4528 91.8212 17.5522 92.0065 17.7512C92.2103 17.932 92.3122 18.1581 92.3122 18.4294V18.5379C93.2572 17.8326 94.2948 17.4799 95.4251 17.4799ZM111.481 17.4799C111.666 17.4799 111.833 17.5251 111.981 17.6155C112.148 17.6879 112.278 17.8054 112.371 17.9682C112.463 18.1129 112.51 18.2757 112.51 18.4565V31.9392C112.51 33.3318 112.009 34.5164 111.009 35.493C110.008 36.4696 108.794 36.958 107.368 36.958C105.96 36.958 104.755 36.4696 103.755 35.493C102.754 34.5164 102.254 33.3318 102.254 31.9392C102.254 31.686 102.346 31.46 102.532 31.261C102.735 31.0621 102.976 30.9626 103.254 30.9626C103.44 30.9626 103.606 31.0078 103.755 31.0983C103.921 31.1887 104.042 31.3062 104.116 31.4509C104.209 31.6137 104.255 31.7765 104.255 31.9392C104.255 32.7892 104.561 33.5036 105.172 34.0824C105.783 34.6792 106.515 34.9776 107.368 34.9776C108.239 34.9776 108.97 34.6792 109.563 34.0824C110.175 33.5036 110.481 32.7892 110.481 31.9392V26.4051C109.554 27.1104 108.517 27.4631 107.368 27.4631C105.96 27.4631 104.755 26.9748 103.755 25.9982C102.754 25.0215 102.254 23.846 102.254 22.4715C102.254 21.097 102.754 19.9214 103.755 18.9448C104.755 17.9682 105.96 17.4799 107.368 17.4799C108.517 17.4799 109.554 17.8326 110.481 18.5379V18.4565C110.481 18.1852 110.573 17.9592 110.759 17.7783C110.962 17.5794 111.203 17.4799 111.481 17.4799ZM105.172 24.6146C105.783 25.2114 106.515 25.5098 107.368 25.5098C108.239 25.5098 108.97 25.2114 109.563 24.6146C110.175 24.0178 110.481 23.3034 110.481 22.4715C110.481 21.6396 110.175 20.9252 109.563 20.3284C108.97 19.7315 108.239 19.4331 107.368 19.4331C106.515 19.4331 105.783 19.7315 105.172 20.3284C104.561 20.9252 104.255 21.6396 104.255 22.4715C104.255 23.3034 104.561 24.0178 105.172 24.6146Z" fill="#4183E4"/>
<defs>
<linearGradient id="paint0_linear" x1="12.0726" y1="11.7291" x2="11.5879" y2="24.2982" gradientUnits="userSpaceOnUse">
<stop stop-color="#045CFC"/>
<stop offset="0.955108" stop-color="white"/>
</linearGradient>
<linearGradient id="paint1_linear" x1="17.0916" y1="10.1549" x2="14.8868" y2="17.0974" gradientUnits="userSpaceOnUse">
<stop stop-color="white"/>
<stop offset="1" stop-color="#045CFC"/>
</linearGradient>
<linearGradient id="paint2_linear" x1="3.59805" y1="2.24845" x2="11.9624" y2="0.973108" gradientUnits="userSpaceOnUse">
<stop stop-color="white"/>
<stop offset="1" stop-color="#045CFC"/>
</linearGradient>
<linearGradient id="paint3_linear" x1="14.7077" y1="-0.677517" x2="17.5382" y2="11.2572" gradientUnits="userSpaceOnUse">
<stop stop-color="white"/>
<stop offset="1" stop-color="#045CFC"/>
</linearGradient>
<radialGradient id="paint4_radial" cx="0" cy="0" r="1" gradientUnits="userSpaceOnUse" gradientTransform="translate(23.8871 4.43518) rotate(25.6911) scale(2.97487 3.89601)">
<stop stop-color="white"/>
<stop offset="1" stop-color="#045CFC"/>
</radialGradient>
<linearGradient id="paint5_linear" x1="19.8576" y1="6.93116" x2="23.906" y2="4.23808" gradientUnits="userSpaceOnUse">
<stop stop-color="white"/>
<stop offset="1" stop-color="#045CFC"/>
</linearGradient>
</defs>
</svg>
