<svg width="46" height="50" viewBox="0 0 46 50" fill="none" xmlns="http://www.w3.org/2000/svg">
<path d="M36.7143 24C39.5714 24.9048 41.8095 26.4286 43.4286 28.5714C45.0476 30.6667 45.8571 33.2619 45.8571 36.3571C45.8571 40.7381 44.1429 44.119 40.7143 46.5C37.3333 48.8333 32.381 50 25.8571 50H0V0H24.4286C30.5238 0 35.1905 1.16667 38.4286 3.5C41.7143 5.83333 43.3571 9 43.3571 13C43.3571 15.4286 42.7619 17.5952 41.5714 19.5C40.4286 21.4048 38.8095 22.9048 36.7143 24ZM11.5 8.71429V20.5H23C25.8571 20.5 28.0238 20 29.5 19C30.9762 18 31.7143 16.5238 31.7143 14.5714C31.7143 12.6191 30.9762 11.1667 29.5 10.2143C28.0238 9.21429 25.8571 8.71429 23 8.71429H11.5ZM25 41.2857C28.0476 41.2857 30.3333 40.7857 31.8571 39.7857C33.4286 38.7857 34.2143 37.2381 34.2143 35.1429C34.2143 31 31.1429 28.9286 25 28.9286H11.5V41.2857H25Z" fill="black"/>
</svg>
