<svg width="44" height="51" viewBox="0 0 44 51" fill="none" xmlns="http://www.w3.org/2000/svg">
<path d="M36.7143 25C39.5714 25.9048 41.8095 27.4286 43.4286 29.5714C45.0476 31.6667 42 33.9048 42 37C42 41.381 44.1429 45.119 40.7143 47.5C37.3333 49.8333 32.5238 49 26 49L0 51V1L27 0C33.0952 0 32.7619 4.66667 36 7C39.2857 9.33333 43.3571 10 43.3571 14C43.3571 16.4286 40.6905 18.0952 39.5 20C38.3571 21.9048 38.8095 23.9048 36.7143 25ZM11.5 9.71429V21.5H23C25.8571 21.5 28.0238 21 29.5 20C30.9762 19 31.7143 17.5238 31.7143 15.5714C31.7143 13.6191 30.9762 12.1667 29.5 11.2143C28.0238 10.2143 25.8571 9.71429 23 9.71429H11.5ZM25 42.2857C28.0476 42.2857 30.3333 41.7857 31.8571 40.7857C33.4286 39.7857 34.2143 38.2381 34.2143 36.1429C34.2143 32 31.1429 29.9286 25 29.9286H11.5V42.2857H25Z" fill="black"/>
</svg>
