<svg width="50" height="52" viewBox="0 0 50 52" fill="none" xmlns="http://www.w3.org/2000/svg">
<path d="M36.7143 25.9999C39.5714 26.9046 43.381 26.3571 45 28.5C46.619 30.5952 49.5 32.4048 49.5 35.5C49.5 39.8809 47.4286 44.119 44 46.5C40.619 48.8333 32.381 51.9999 25.8571 51.9999H0V1.99989L23.5 1.99994C29.5952 1.99994 35.2619 -0.333403 38.5 1.99993C41.7857 4.33326 45 8.21417 45 12.2142C45 14.6427 43.6905 17.5952 42.5 19.4999C41.3571 21.4047 38.8095 24.9046 36.7143 25.9999ZM11.5 10.7142V22.4999H23C25.8571 22.4999 28.0238 21.9999 29.5 20.9999C30.9762 19.9999 35 16.5 34.5 14C34 11.5 32 11 30 11C27.4431 11 25.8571 10.7142 23 10.7142H11.5ZM25 43.2856C28.0476 43.2856 30.3333 42.7856 31.8571 41.7856C33.4286 40.7856 38.5 37.5952 38.5 35.5C38.5 31.3571 31.1429 30.9285 25 30.9285H11.5V43.2856H25Z" fill="#5761D7"/>
</svg>
