<svg width="50" height="52" viewBox="0 0 50 52" fill="none" xmlns="http://www.w3.org/2000/svg">
<path d="M38.5 21.9999C41.3571 22.9046 44.381 24.8571 46 27C47.5 29 49.5 31.9048 49.5 35C49.5 39.3809 47.4286 43.619 44 46C40.619 48.3333 32.381 51.4999 25.8571 51.4999H0V1.49988L23.5 1.49993C29.5952 1.49993 35.2619 -0.833408 38.5 1.49993C41.7857 3.83326 45 7.71416 45 11.7142C45 14.1427 43.6905 17.0952 42.5 18.9999C41.3571 20.9047 40.5952 20.9046 38.5 21.9999ZM11.5 10.2142V21.9999L23.5 20.5C26.5 20 28.5238 18.4629 30 17.4629C31.4762 16.4629 35 16 34.5 13.5C34 11 32 10.5 30 10.5C27.4431 10.5 25.8571 10.2142 23 10.2142H11.5ZM25 42.7856C28.0476 42.7856 32.9762 40 34.5 39C36.0714 38 38.5 34.5952 38.5 32.5C38.5 28.3571 32 28 25.8571 28L11.5 30.4285V42.7856H25Z" fill="#5761D7"/>
</svg>
