<svg width="50" height="60" viewBox="0 0 50 60" fill="none" xmlns="http://www.w3.org/2000/svg">
<path d="M39 30.0001C41.8571 30.9049 44.881 32.8574 46.5 35.0002C48 37.0003 50 39.905 50 43.0002C50 47.3812 47.9286 51.6193 44.5 54.0002C41.119 56.3336 32.881 59.5001 26.3571 59.5001H0.5L8.5 1.50013L32 1.50018C38.0952 1.50018 43.7619 -0.833164 47 1.50017C50.2857 3.8335 45.5 15.7144 45.5 19.7144C45.5 22.143 44.1905 25.0954 43 27.0002C41.8571 28.9049 41.0952 28.9049 39 30.0001ZM20 10.5002L12 30.0001L24 28.5002C27 28.0002 29.0238 26.4631 30.5 25.4631C31.9762 24.4631 33.5 23.4631 35 21.5002C36.5 19.5373 40.5 11.9631 38.5 10.5002C36.4363 8.99072 33 8.71186 30 9.46313L20 10.5002ZM25.5 50.7858C32 50.5 36 46 37.5 44.4631C39 42.5 39 40.5239 39 38.4287C39 34.2858 31.6429 33.9998 26 35.5L12 38.4287V50.7858H25.5Z" fill="#5761D7"/>
</svg>
