<svg width="25" height="25" viewBox="0 0 25 25" fill="none" xmlns="http://www.w3.org/2000/svg">
<path fill-rule="evenodd" clip-rule="evenodd" d="M14.1956 12.4998L24.6488 2.04674C25.1171 1.57851 25.1171 0.819417 24.6488 0.351179C24.1806 -0.11706 23.4215 -0.11706 22.9532 0.351179L12.5 10.8042L2.04678 0.352777C1.57853 -0.115461 0.81943 -0.115461 0.351184 0.352777C-0.117061 0.821015 -0.117061 1.5801 0.351184 2.04834L10.8044 12.5014L0.352782 22.9529C-0.115463 23.4211 -0.115463 24.1802 0.352782 24.6484C0.587704 24.8817 0.892943 25 1.19978 25C1.50662 25 1.81345 24.8833 2.04678 24.6484L12.5 14.1954L22.9532 24.6484C23.1881 24.8817 23.4934 25 23.8002 25C24.1071 25 24.4139 24.8833 24.6472 24.6484C25.1155 24.1802 25.1155 23.4211 24.6472 22.9529L14.1956 12.4998Z" fill="#4183E4"/>
</svg>
