<svg width="269" height="36" viewBox="0 0 269 36" fill="none" xmlns="http://www.w3.org/2000/svg">
<path d="M14.7396 35.408C11.9664 35.408 9.25689 35.1051 6.61117 34.4995C3.99732 33.862 1.84569 33.0172 0.15625 31.9653L3.79013 23.7413C5.38394 24.6657 7.169 25.4148 9.14532 25.9886C11.1216 26.5305 13.0183 26.8014 14.8352 26.8014C16.3971 26.8014 17.5128 26.658 18.1822 26.3711C18.8516 26.0523 19.1863 25.5901 19.1863 24.9845C19.1863 24.2832 18.74 23.7572 17.8475 23.4066C16.9869 23.056 15.5524 22.6734 13.5442 22.2591C10.9623 21.7172 8.81062 21.1434 7.08931 20.5377C5.368 19.9002 3.86982 18.8802 2.59477 17.4776C1.31973 16.0432 0.682206 14.1147 0.682206 11.6921C0.682206 9.58829 1.27191 7.67572 2.45133 5.95441C3.63075 4.23309 5.38394 2.87836 7.7109 1.8902C10.0697 0.902038 12.9226 0.407959 16.2696 0.407959C18.5647 0.407959 20.812 0.662968 23.0114 1.17298C25.2428 1.65113 27.2032 2.36834 28.8926 3.32462L25.4978 11.5009C22.2145 9.8433 19.1066 9.01452 16.174 9.01452C13.2733 9.01452 11.8229 9.71579 11.8229 11.1183C11.8229 11.7877 12.2532 12.2978 13.1139 12.6484C13.9746 12.9672 15.393 13.3178 17.3694 13.7003C19.9195 14.1784 22.0711 14.7363 23.8243 15.3738C25.5775 15.9795 27.0916 16.9836 28.3666 18.3861C29.6736 19.7887 30.327 21.7012 30.327 24.1238C30.327 26.2276 29.7373 28.1402 28.5579 29.8615C27.3785 31.5509 25.6093 32.9057 23.2505 33.9257C20.9236 34.9139 18.0866 35.408 14.7396 35.408Z" fill="black"/>
<path d="M62.469 26.132V34.6429H34.6411V1.17298H61.8474V9.68392H45.734V13.6047H59.887V21.7331H45.734V26.132H62.469Z" fill="black"/>
<path d="M95.5971 26.132V34.6429H67.7693V1.17298H94.9756V9.68392H78.8622V13.6047H93.0152V21.7331H78.8622V26.132H95.5971Z" fill="black"/>
<path d="M146.073 34.6429L145.977 19.3902L138.709 31.6306H133.736L126.469 19.9162V34.6429H116.189V1.17298H125.465L136.366 19.0077L146.981 1.17298H156.257L156.353 34.6429H146.073Z" fill="black"/>
<path d="M180.312 35.408C176.71 35.408 173.475 34.6589 170.606 33.1607C167.737 31.6625 165.49 29.5906 163.864 26.9448C162.239 24.2672 161.426 21.255 161.426 17.908C161.426 14.561 162.239 11.5646 163.864 8.91889C165.49 6.24129 167.737 4.1534 170.606 2.65523C173.475 1.15705 176.71 0.407959 180.312 0.407959C183.914 0.407959 187.15 1.15705 190.019 2.65523C192.887 4.1534 195.135 6.24129 196.76 8.91889C198.386 11.5646 199.199 14.561 199.199 17.908C199.199 21.255 198.386 24.2672 196.76 26.9448C195.135 29.5906 192.887 31.6625 190.019 33.1607C187.15 34.6589 183.914 35.408 180.312 35.408ZM180.312 26.2754C181.715 26.2754 182.974 25.9407 184.09 25.2713C185.237 24.5701 186.146 23.5978 186.815 22.3547C187.484 21.0796 187.819 19.5974 187.819 17.908C187.819 16.2185 187.484 14.7522 186.815 13.5091C186.146 12.234 185.237 11.2618 184.09 10.5924C182.974 9.89111 181.715 9.54047 180.312 9.54047C178.91 9.54047 177.635 9.89111 176.487 10.5924C175.372 11.2618 174.479 12.234 173.81 13.5091C173.14 14.7522 172.806 16.2185 172.806 17.908C172.806 19.5974 173.14 21.0796 173.81 22.3547C174.479 23.5978 175.372 24.5701 176.487 25.2713C177.635 25.9407 178.91 26.2754 180.312 26.2754Z" fill="black"/>
<path d="M218.595 26.2276H215.535V34.6429H204.251V1.17298H220.364C223.456 1.17298 226.15 1.683 228.445 2.70304C230.74 3.72308 232.509 5.18938 233.752 7.10195C234.995 9.01451 235.617 11.2458 235.617 13.7959C235.617 16.1866 235.075 18.2745 233.991 20.0596C232.907 21.8447 231.346 23.2631 229.305 24.3151L236.334 34.6429H224.285L218.595 26.2276ZM224.237 13.7959C224.237 12.5528 223.855 11.5965 223.09 10.9271C222.325 10.2258 221.177 9.87517 219.647 9.87517H215.535V17.7167H219.647C221.177 17.7167 222.325 17.382 223.09 16.7126C223.855 16.0113 224.237 15.0391 224.237 13.7959Z" fill="black"/>
<path d="M268.662 26.132V34.6429H240.834V1.17298H268.041V9.68392H251.927V13.6047H266.08V21.7331H251.927V26.132H268.662Z" fill="black"/>
</svg>
