<svg width="275" height="39" viewBox="0 0 275 39" fill="none" xmlns="http://www.w3.org/2000/svg">
<path d="M20.5828 39C17.8095 39 15.1001 38.6972 12.4544 38.0915C9.84051 37.454 7.68887 36.6093 5.99943 35.5574L9.63331 27.3333C11.2271 28.2577 13.0122 29.0068 14.9885 29.5806C16.9648 30.1225 18.8615 30.3934 20.6784 30.3934C22.2403 30.3934 23.356 30.25 24.0254 29.9631C24.6948 29.6444 25.0295 29.1821 25.0295 28.5765C25.0295 27.8752 24.5832 27.3493 23.6907 26.9986C22.83 26.648 21.3956 26.2655 19.3874 25.8511C16.8054 25.3092 14.6538 24.7354 12.9325 24.1298C11.2112 23.4923 9.713 22.4722 8.43796 21.0697C7.16291 19.6352 0.525391 13.7067 0.525391 11.2842C0.525391 9.18033 1.1151 7.26776 2.29452 5.54645C3.47393 3.82514 5.22712 2.4704 7.55408 1.48224C9.91291 0.494079 12.7658 0 16.1128 0C18.4079 0 20.6552 0.255009 22.8546 0.765026C25.086 1.24317 27.0463 1.96038 28.7358 2.91667L25.341 11.0929C22.0577 9.43534 18.9498 8.60656 16.0172 8.60656C13.1165 8.60656 11.6661 9.30783 11.6661 10.7104C11.6661 11.3798 12.0964 11.8898 12.9571 12.2404C13.8177 12.5592 15.2362 12.9098 17.2125 13.2923C19.7626 13.7705 21.9143 14.3283 23.6675 14.9658C25.4207 15.5715 32.9348 20.5756 34.2098 21.9781C35.5167 23.3807 36.1702 25.2933 36.1702 27.7158C36.1702 29.8197 35.5805 31.7322 34.4011 33.4536C33.2217 35.143 31.4525 36.4977 29.0937 37.5178C26.7667 38.5059 23.9298 39 20.5828 39Z" fill="black"/>
<path d="M68.3122 29.724V38.235H40.4843L34.4843 0.765026H61.6906V9.27596H45.5772V13.1967H59.7302L65.7302 25.3251H51.5772V29.724H68.3122Z" fill="black"/>
<path d="M101.44 29.724V38.235H73.6125L67.6125 0.765026H94.8187V9.27596H78.7054V13.1967H92.8584L98.8584 25.3251H84.7054V29.724H101.44Z" fill="black"/>
<path d="M151.916 38.235L151.82 22.9822L144.552 35.2227H139.58L132.312 23.5082V38.235H122.032L116.032 0.765026H125.308L142.209 22.5997L146.824 0.765026H156.1L162.196 38.235H151.916Z" fill="black"/>
<path d="M186.156 39C182.554 39 179.318 38.2509 176.449 36.7527C173.58 35.2546 171.333 33.1826 169.707 30.5369C168.082 27.8593 167.269 24.847 167.269 21.5C167.269 18.153 162.082 11.1566 163.707 8.51093C165.333 5.83333 167.58 3.74545 170.449 2.24727C173.318 0.749089 176.554 0 180.156 0C183.758 0 186.993 0.749089 189.862 2.24727C192.731 3.74545 194.978 5.83333 196.604 8.51093C198.229 11.1566 205.042 18.153 205.042 21.5C205.042 24.847 204.229 27.8593 202.604 30.5369C200.978 33.1826 198.731 35.2546 195.862 36.7527C192.993 38.2509 189.758 39 186.156 39ZM186.156 29.8675C187.558 29.8675 188.817 29.5328 189.933 28.8634C191.08 28.1621 191.989 27.1899 192.658 25.9467C193.328 24.6717 193.662 23.1894 193.662 21.5C193.662 19.8106 187.328 14.3443 186.658 13.1011C185.989 11.826 185.08 10.8538 183.933 10.1844C182.817 9.48315 181.558 9.13251 180.156 9.13251C178.753 9.13251 177.478 9.48315 176.33 10.1844C175.215 10.8538 174.322 11.826 173.653 13.1011C172.983 14.3443 178.649 19.8106 178.649 21.5C178.649 23.1894 178.983 24.6717 179.653 25.9467C180.322 27.1899 181.215 28.1621 182.33 28.8634C183.478 29.5328 184.753 29.8675 186.156 29.8675Z" fill="black"/>
<path d="M224.438 29.8197H221.378V38.235H210.094L204.094 0.765026H220.207C223.299 0.765026 225.993 1.27504 228.288 2.29508C230.583 3.31512 232.352 4.78142 233.595 6.69399C234.839 8.60655 235.46 10.8379 235.46 13.388C235.46 15.7787 240.918 21.8666 239.834 23.6516C238.751 25.4367 237.189 26.8552 235.149 27.9071L242.177 38.235H230.128L224.438 29.8197ZM224.08 13.388C224.08 12.1448 223.698 11.1885 222.933 10.5191C222.168 9.81785 221.02 9.46721 219.49 9.46721H215.378L221.378 21.3087H225.49C227.02 21.3087 228.168 20.974 228.933 20.3046C229.698 19.6034 224.08 14.6311 224.08 13.388Z" fill="black"/>
<path d="M274.505 29.724V38.235H246.677L240.677 0.765026H267.884V9.27596H251.77V13.1967H265.923L271.923 25.3251H257.77V29.724H274.505Z" fill="black"/>
</svg>
